<?xml version="1.0" encoding="UTF-8" standalone="no"?>
<!DOCTYPE svg PUBLIC "-//W3C//DTD SVG 1.1//EN"
 "http://www.w3.org/Graphics/SVG/1.1/DTD/svg11.dtd">
<!-- Generated by graphviz version 2.43.0 (0)
 -->
<!-- Title: ramses::Resource Pages: 1 -->
<!--zoomable 180 -->
<svg id="main" version="1.1" xmlns="http://www.w3.org/2000/svg" xmlns:xlink="http://www.w3.org/1999/xlink" xml:space="preserve" onload="init(evt)">
<style type="text/css"><![CDATA[
.edge:hover path { stroke: red; }
.edge:hover polygon { stroke: red; fill: red; }
]]></style>
<script type="text/javascript"><![CDATA[
var edges = document.getElementsByTagName('g');
if (edges && edges.length) {
  for (var i=0;i<edges.length;i++) {
    if (edges[i].id.substr(0,4)=='edge') {
      edges[i].setAttribute('class','edge');
    }
  }
}
]]></script>
        <defs>
                <circle id="rim" cx="0" cy="0" r="7"/>
                <circle id="rim2" cx="0" cy="0" r="3.5"/>
                <g id="zoomPlus">
                        <use xlink:href="#rim" fill="#404040">
                                <set attributeName="fill" to="#808080" begin="zoomplus.mouseover" end="zoomplus.mouseout"/>
                        </use>
                        <path d="M-4,0h8M0,-4v8" fill="none" stroke="white" stroke-width="1.5" pointer-events="none"/>
                </g>
                <g id="zoomMin">
                        <use xlink:href="#rim" fill="#404040">
                                <set attributeName="fill" to="#808080" begin="zoomminus.mouseover" end="zoomminus.mouseout"/>
                        </use>
                        <path d="M-4,0h8" fill="none" stroke="white" stroke-width="1.5" pointer-events="none"/>
                </g>
                <g id="dirArrow">
                        <path fill="none" stroke="white" stroke-width="1.5" d="M0,-3.0v7 M-2.5,-0.5L0,-3.0L2.5,-0.5"/>
                </g>
               <g id="resetDef">
                       <use xlink:href="#rim2" fill="#404040">
                               <set attributeName="fill" to="#808080" begin="reset.mouseover" end="reset.mouseout"/>
                       </use>
               </g>
        </defs>

<script type="text/javascript">
var viewWidth = 910;
var viewHeight = 180;
var sectionId = 'dynsection-0';
</script>
<script xlink:href="svgpan.js"/>
<svg id="graph" class="graph">
<g id="viewport">
<title>ramses::Resource</title>
<polygon fill="white" stroke="transparent" points="-4,4 -4,-176 906,-176 906,4 -4,4"/>
<!-- Node1 -->
<g id="node1" class="node">
<title>Node1</title>
<g id="a_node1"><a xlink:title="The Resource is the base class of all resources, such as arrays and textures.">
<polygon fill="#bfbfbf" stroke="black" points="632,-76.5 632,-95.5 736,-95.5 736,-76.5 632,-76.5"/>
<text text-anchor="middle" x="684" y="-83.5" font-family="Helvetica,sans-Serif" font-size="10.00">ramses::Resource</text>
</a>
</g>
</g>
<!-- Node6 -->
<g id="node6" class="node">
<title>Node6</title>
<g id="a_node6"><a xlink:href="classramses_1_1ArrayResource.html" target="_top" xlink:title="The ArrayResource stores a data array of a given type. The data is immutable. The resource can be use...">
<polygon fill="white" stroke="black" points="772,-152.5 772,-171.5 902,-171.5 902,-152.5 772,-152.5"/>
<text text-anchor="middle" x="837" y="-159.5" font-family="Helvetica,sans-Serif" font-size="10.00">ramses::ArrayResource</text>
</a>
</g>
</g>
<!-- Node1&#45;&gt;Node6 -->
<g id="edge5" class="edge">
<title>Node1&#45;&gt;Node6</title>
<path fill="none" stroke="midnightblue" d="M705.09,-101.61C722.12,-114.22 747.59,-131.68 772,-143 779.89,-146.66 788.64,-149.8 797.09,-152.42"/>
<polygon fill="midnightblue" stroke="midnightblue" points="707.1,-98.74 697.01,-95.51 702.89,-104.33 707.1,-98.74"/>
</g>
<!-- Node7 -->
<g id="node7" class="node">
<title>Node7</title>
<g id="a_node7"><a xlink:href="classramses_1_1Effect.html" target="_top" xlink:title="An effect describes how an object will be rendered to the screen.">
<polygon fill="white" stroke="black" points="794,-114.5 794,-133.5 880,-133.5 880,-114.5 794,-114.5"/>
<text text-anchor="middle" x="837" y="-121.5" font-family="Helvetica,sans-Serif" font-size="10.00">ramses::Effect</text>
</a>
</g>
</g>
<!-- Node1&#45;&gt;Node7 -->
<g id="edge6" class="edge">
<title>Node1&#45;&gt;Node7</title>
<path fill="none" stroke="midnightblue" d="M732.84,-98.04C753.94,-103.35 778.38,-109.5 798.17,-114.48"/>
<polygon fill="midnightblue" stroke="midnightblue" points="733.66,-94.64 723.1,-95.59 731.95,-101.42 733.66,-94.64"/>
</g>
<!-- Node8 -->
<g id="node8" class="node">
<title>Node8</title>
<g id="a_node8"><a xlink:href="classramses_1_1Texture2D.html" target="_top" xlink:title="Texture represents a 2&#45;D texture resource.">
<polygon fill="white" stroke="black" points="783,-76.5 783,-95.5 891,-95.5 891,-76.5 783,-76.5"/>
<text text-anchor="middle" x="837" y="-83.5" font-family="Helvetica,sans-Serif" font-size="10.00">ramses::Texture2D</text>
</a>
</g>
</g>
<!-- Node1&#45;&gt;Node8 -->
<g id="edge7" class="edge">
<title>Node1&#45;&gt;Node8</title>
<path fill="none" stroke="midnightblue" d="M746.18,-86C758.34,-86 771.01,-86 782.87,-86"/>
<polygon fill="midnightblue" stroke="midnightblue" points="746.12,-82.5 736.12,-86 746.12,-89.5 746.12,-82.5"/>
</g>
<!-- Node9 -->
<g id="node9" class="node">
<title>Node9</title>
<g id="a_node9"><a xlink:href="classramses_1_1Texture3D.html" target="_top" xlink:title="Texture represents a texture resource.">
<polygon fill="white" stroke="black" points="783,-38.5 783,-57.5 891,-57.5 891,-38.5 783,-38.5"/>
<text text-anchor="middle" x="837" y="-45.5" font-family="Helvetica,sans-Serif" font-size="10.00">ramses::Texture3D</text>
</a>
</g>
</g>
<!-- Node1&#45;&gt;Node9 -->
<g id="edge8" class="edge">
<title>Node1&#45;&gt;Node9</title>
<path fill="none" stroke="midnightblue" d="M732.84,-73.96C753.94,-68.65 778.38,-62.5 798.17,-57.52"/>
<polygon fill="midnightblue" stroke="midnightblue" points="731.95,-70.58 723.1,-76.41 733.66,-77.36 731.95,-70.58"/>
</g>
<!-- Node10 -->
<g id="node10" class="node">
<title>Node10</title>
<g id="a_node10"><a xlink:href="classramses_1_1TextureCube.html" target="_top" xlink:title="TextureCube stores pixel data with 6 equally sized quadratic faces.">
<polygon fill="white" stroke="black" points="777.5,-0.5 777.5,-19.5 896.5,-19.5 896.5,-0.5 777.5,-0.5"/>
<text text-anchor="middle" x="837" y="-7.5" font-family="Helvetica,sans-Serif" font-size="10.00">ramses::TextureCube</text>
</a>
</g>
</g>
<!-- Node1&#45;&gt;Node10 -->
<g id="edge9" class="edge">
<title>Node1&#45;&gt;Node10</title>
<path fill="none" stroke="midnightblue" d="M705.09,-70.39C722.12,-57.78 747.59,-40.32 772,-29 779.89,-25.34 788.64,-22.2 797.09,-19.58"/>
<polygon fill="midnightblue" stroke="midnightblue" points="702.89,-67.67 697.01,-76.49 707.1,-73.26 702.89,-67.67"/>
</g>
<!-- Node2 -->
<g id="node2" class="node">
<title>Node2</title>
<g id="a_node2"><a xlink:href="classramses_1_1SceneObject.html" target="_top" xlink:title="The SceneObject is a base class for all client API objects owned by a Scene.">
<polygon fill="white" stroke="black" points="477,-76.5 477,-95.5 596,-95.5 596,-76.5 477,-76.5"/>
<text text-anchor="middle" x="536.5" y="-83.5" font-family="Helvetica,sans-Serif" font-size="10.00">ramses::SceneObject</text>
</a>
</g>
</g>
<!-- Node2&#45;&gt;Node1 -->
<g id="edge1" class="edge">
<title>Node2&#45;&gt;Node1</title>
<path fill="none" stroke="midnightblue" d="M606.34,-86C614.97,-86 623.68,-86 631.98,-86"/>
<polygon fill="midnightblue" stroke="midnightblue" points="606.26,-82.5 596.26,-86 606.26,-89.5 606.26,-82.5"/>
</g>
<!-- Node3 -->
<g id="node3" class="node">
<title>Node3</title>
<g id="a_node3"><a xlink:href="classramses_1_1ClientObject.html" target="_top" xlink:title="The ClientObject is a base class for all client API objects owned by a RamsesClient.">
<polygon fill="white" stroke="black" points="322,-76.5 322,-95.5 441,-95.5 441,-76.5 322,-76.5"/>
<text text-anchor="middle" x="381.5" y="-83.5" font-family="Helvetica,sans-Serif" font-size="10.00">ramses::ClientObject</text>
</a>
</g>
</g>
<!-- Node3&#45;&gt;Node2 -->
<g id="edge2" class="edge">
<title>Node3&#45;&gt;Node2</title>
<path fill="none" stroke="midnightblue" d="M451.49,-86C459.99,-86 468.62,-86 476.94,-86"/>
<polygon fill="midnightblue" stroke="midnightblue" points="451.22,-82.5 441.22,-86 451.22,-89.5 451.22,-82.5"/>
</g>
<!-- Node4 -->
<g id="node4" class="node">
<title>Node4</title>
<g id="a_node4"><a xlink:href="classramses_1_1RamsesObject.html" target="_top" xlink:title="The RamsesObject is a base class for all client API objects owned by the framework.">
<polygon fill="white" stroke="black" points="157,-76.5 157,-95.5 286,-95.5 286,-76.5 157,-76.5"/>
<text text-anchor="middle" x="221.5" y="-83.5" font-family="Helvetica,sans-Serif" font-size="10.00">ramses::RamsesObject</text>
</a>
</g>
</g>
<!-- Node4&#45;&gt;Node3 -->
<g id="edge3" class="edge">
<title>Node4&#45;&gt;Node3</title>
<path fill="none" stroke="midnightblue" d="M296.57,-86C305.04,-86 313.59,-86 321.81,-86"/>
<polygon fill="midnightblue" stroke="midnightblue" points="296.31,-82.5 286.31,-86 296.31,-89.5 296.31,-82.5"/>
</g>
<!-- Node5 -->
<g id="node5" class="node">
<title>Node5</title>
<g id="a_node5"><a xlink:href="classramses_1_1StatusObject.html" target="_top" xlink:title="The StatusObject provides status message handling.">
<polygon fill="white" stroke="black" points="0,-76.5 0,-95.5 121,-95.5 121,-76.5 0,-76.5"/>
<text text-anchor="middle" x="60.5" y="-83.5" font-family="Helvetica,sans-Serif" font-size="10.00">ramses::StatusObject</text>
</a>
</g>
</g>
<!-- Node5&#45;&gt;Node4 -->
<g id="edge4" class="edge">
<title>Node5&#45;&gt;Node4</title>
<path fill="none" stroke="midnightblue" d="M131.37,-86C139.82,-86 148.43,-86 156.78,-86"/>
<polygon fill="midnightblue" stroke="midnightblue" points="131.16,-82.5 121.16,-86 131.16,-89.5 131.16,-82.5"/>
</g>
</g>
</svg>
        <g id="navigator" transform="translate(0 0)" fill="#404254">
                <rect fill="#f2f5e9" fill-opacity="0.5" stroke="#606060" stroke-width=".5" x="0" y="0" width="60" height="60"/>
                <use id="zoomplus" xlink:href="#zoomPlus" x="17" y="9" onmousedown="handleZoom(evt,'in')"/>
                <use id="zoomminus" xlink:href="#zoomMin" x="42" y="9" onmousedown="handleZoom(evt,'out')"/>
                <use id="reset" xlink:href="#resetDef" x="30" y="36" onmousedown="handleReset()"/>
                <g id="arrowUp" xlink:href="#dirArrow" transform="translate(30 24)" onmousedown="handlePan(0,-1)">
                  <use xlink:href="#rim" fill="#404040">
                        <set attributeName="fill" to="#808080" begin="arrowUp.mouseover" end="arrowUp.mouseout"/>
                  </use>
                  <path fill="none" stroke="white" stroke-width="1.5" d="M0,-3.0v7 M-2.5,-0.5L0,-3.0L2.5,-0.5"/>
                </g>
                <g id="arrowRight" xlink:href="#dirArrow" transform="rotate(90) translate(36 -43)" onmousedown="handlePan(1,0)">
                  <use xlink:href="#rim" fill="#404040">
                        <set attributeName="fill" to="#808080" begin="arrowRight.mouseover" end="arrowRight.mouseout"/>
                  </use>
                  <path fill="none" stroke="white" stroke-width="1.5" d="M0,-3.0v7 M-2.5,-0.5L0,-3.0L2.5,-0.5"/>
                </g>
                <g id="arrowDown" xlink:href="#dirArrow" transform="rotate(180) translate(-30 -48)" onmousedown="handlePan(0,1)">
                  <use xlink:href="#rim" fill="#404040">
                        <set attributeName="fill" to="#808080" begin="arrowDown.mouseover" end="arrowDown.mouseout"/>
                  </use>
                  <path fill="none" stroke="white" stroke-width="1.5" d="M0,-3.0v7 M-2.5,-0.5L0,-3.0L2.5,-0.5"/>
                </g>
                <g id="arrowLeft" xlink:href="#dirArrow" transform="rotate(270) translate(-36 17)" onmousedown="handlePan(-1,0)">
                  <use xlink:href="#rim" fill="#404040">
                        <set attributeName="fill" to="#808080" begin="arrowLeft.mouseover" end="arrowLeft.mouseout"/>
                  </use>
                  <path fill="none" stroke="white" stroke-width="1.5" d="M0,-3.0v7 M-2.5,-0.5L0,-3.0L2.5,-0.5"/>
                </g>
        </g>
        <svg viewBox="0 0 15 15" width="100%" height="30px" preserveAspectRatio="xMaxYMin meet">
         <g id="arrow_out" transform="scale(0.3 0.3)">
          <a xlink:href="classramses_1_1Resource__inherit__graph_org.svg" target="_base">
           <rect id="button" ry="5" rx="5" y="6" x="6" height="38" width="38"
                fill="#f2f5e9" fill-opacity="0.5" stroke="#606060" stroke-width="1.0"/>
           <path id="arrow"
             d="M 11.500037,31.436501 C 11.940474,20.09759 22.043105,11.32322 32.158766,21.979434 L 37.068811,17.246167 C 37.068811,17.246167 37.088388,32 37.088388,32 L 22.160133,31.978069 C 22.160133,31.978069 26.997745,27.140456 26.997745,27.140456 C 18.528582,18.264221 13.291696,25.230495 11.500037,31.436501 z"
             style="fill:#404040;"/>
          </a>
         </g>
        </svg>
</svg>
