<?xml version="1.0" encoding="UTF-8" standalone="no"?>
<!DOCTYPE svg PUBLIC "-//W3C//DTD SVG 1.1//EN"
 "http://www.w3.org/Graphics/SVG/1.1/DTD/svg11.dtd">
<!-- Generated by graphviz version 2.43.0 (0)
 -->
<!-- Title: ramses::DcsmStatusMessage Pages: 1 -->
<svg width="373pt" height="116pt"
 viewBox="0.00 0.00 373.00 115.50" xmlns="http://www.w3.org/2000/svg" xmlns:xlink="http://www.w3.org/1999/xlink">
<g id="graph0" class="graph" transform="scale(1 1) rotate(0) translate(4 111.5)">
<title>ramses::DcsmStatusMessage</title>
<polygon fill="white" stroke="transparent" points="-4,4 -4,-111.5 369,-111.5 369,4 -4,4"/>
<!-- Node1 -->
<g id="node1" class="node">
<title>Node1</title>
<g id="a_node1"><a xlink:title="The base class of a message to be sent from DCSM consumer to provider.">
<polygon fill="#bfbfbf" stroke="black" points="0,-50 0,-69 161,-69 161,-50 0,-50"/>
<text text-anchor="middle" x="80.5" y="-57" font-family="Helvetica,sans-Serif" font-size="10.00">ramses::DcsmStatusMessage</text>
</a>
</g>
</g>
<!-- Node2 -->
<g id="node2" class="node">
<title>Node2</title>
<g id="a_node2"><a xlink:href="classramses_1_1ActiveLayoutMessage.html" target="_top" xlink:title="A status message containing the instrument cluster&#39;s active layout.">
<polygon fill="white" stroke="black" points="198,-88 198,-107 364,-107 364,-88 198,-88"/>
<text text-anchor="middle" x="281" y="-95" font-family="Helvetica,sans-Serif" font-size="10.00">ramses::ActiveLayoutMessage</text>
</a>
</g>
</g>
<!-- Node1&#45;&gt;Node2 -->
<g id="edge1" class="edge">
<title>Node1&#45;&gt;Node2</title>
<path fill="none" stroke="midnightblue" d="M141.52,-70.99C169.84,-76.41 203.24,-82.81 230.15,-87.96"/>
<polygon fill="midnightblue" stroke="midnightblue" points="141.81,-67.48 131.33,-69.04 140.5,-74.36 141.81,-67.48"/>
</g>
<!-- Node3 -->
<g id="node3" class="node">
<title>Node3</title>
<g id="a_node3"><a xlink:href="classramses_1_1StreamStatusMessage.html" target="_top" xlink:title="A message containing a stream status.">
<polygon fill="white" stroke="black" points="197,-50 197,-69 365,-69 365,-50 197,-50"/>
<text text-anchor="middle" x="281" y="-57" font-family="Helvetica,sans-Serif" font-size="10.00">ramses::StreamStatusMessage</text>
</a>
</g>
</g>
<!-- Node1&#45;&gt;Node3 -->
<g id="edge2" class="edge">
<title>Node1&#45;&gt;Node3</title>
<path fill="none" stroke="midnightblue" d="M171.37,-59.5C179.84,-59.5 188.41,-59.5 196.82,-59.5"/>
<polygon fill="midnightblue" stroke="midnightblue" points="171.09,-56 161.09,-59.5 171.09,-63 171.09,-56"/>
</g>
<!-- Node4 -->
<g id="node4" class="node">
<title>Node4</title>
<g id="a_node4"><a xlink:href="classramses_1_1WidgetFocusStatusMessage.html" target="_top" xlink:title="A message containing the widget focus state.">
<polygon fill="white" stroke="black" points="205,-0.5 205,-30.5 357,-30.5 357,-0.5 205,-0.5"/>
<text text-anchor="start" x="213" y="-18.5" font-family="Helvetica,sans-Serif" font-size="10.00">ramses::WidgetFocusStatus</text>
<text text-anchor="middle" x="281" y="-7.5" font-family="Helvetica,sans-Serif" font-size="10.00">Message</text>
</a>
</g>
</g>
<!-- Node1&#45;&gt;Node4 -->
<g id="edge3" class="edge">
<title>Node1&#45;&gt;Node4</title>
<path fill="none" stroke="midnightblue" d="M134.47,-47.76C158.29,-42.48 186.68,-36.19 212.03,-30.57"/>
<polygon fill="midnightblue" stroke="midnightblue" points="133.58,-44.37 124.57,-49.95 135.09,-51.21 133.58,-44.37"/>
</g>
</g>
</svg>
