<?xml version="1.0" encoding="UTF-8" standalone="no"?>
<!DOCTYPE svg PUBLIC "-//W3C//DTD SVG 1.1//EN"
 "http://www.w3.org/Graphics/SVG/1.1/DTD/svg11.dtd">
<!-- Generated by graphviz version 2.40.1 (20161225.0304)
 -->
<!-- Title: ramses::EffectInput Pages: 1 -->
<svg width="250pt" height="140pt"
 viewBox="0.00 0.00 250.00 140.00" xmlns="http://www.w3.org/2000/svg" xmlns:xlink="http://www.w3.org/1999/xlink">
<g id="graph0" class="graph" transform="scale(1 1) rotate(0) translate(4 136)">
<title>ramses::EffectInput</title>
<polygon fill="#ffffff" stroke="transparent" points="-4,4 -4,-136 246,-136 246,4 -4,4"/>
<!-- Node0 -->
<g id="node1" class="node">
<title>Node0</title>
<polygon fill="#bfbfbf" stroke="#000000" points="70,-56.5 70,-75.5 173,-75.5 173,-56.5 70,-56.5"/>
<text text-anchor="middle" x="121.5" y="-63.5" font-family="Helvetica,sans-Serif" font-size="10.00" fill="#000000">ramses::EffectInput</text>
</g>
<!-- Node2 -->
<g id="node3" class="node">
<title>Node2</title>
<g id="a_node3"><a xlink:href="classramses_1_1AttributeInput.html" target="_top" xlink:title="The AttributeInput is a description of an attribute effect input. ">
<polygon fill="#ffffff" stroke="#000000" points="0,-.5 0,-19.5 113,-19.5 113,-.5 0,-.5"/>
<text text-anchor="middle" x="56.5" y="-7.5" font-family="Helvetica,sans-Serif" font-size="10.00" fill="#000000">ramses::AttributeInput</text>
</a>
</g>
</g>
<!-- Node0&#45;&gt;Node2 -->
<g id="edge2" class="edge">
<title>Node0&#45;&gt;Node2</title>
<path fill="none" stroke="#191970" d="M102.5165,-49.645C91.2121,-39.9058 77.253,-27.8795 67.6924,-19.6427"/>
<polygon fill="#191970" stroke="#191970" points="100.3173,-52.3701 110.1779,-56.2455 104.8862,-47.0668 100.3173,-52.3701"/>
</g>
<!-- Node3 -->
<g id="node4" class="node">
<title>Node3</title>
<g id="a_node4"><a xlink:href="classramses_1_1UniformInput.html" target="_top" xlink:title="The UniformInput is a description of an uniform effect input. ">
<polygon fill="#ffffff" stroke="#000000" points="131,-.5 131,-19.5 242,-19.5 242,-.5 131,-.5"/>
<text text-anchor="middle" x="186.5" y="-7.5" font-family="Helvetica,sans-Serif" font-size="10.00" fill="#000000">ramses::UniformInput</text>
</a>
</g>
</g>
<!-- Node0&#45;&gt;Node3 -->
<g id="edge3" class="edge">
<title>Node0&#45;&gt;Node3</title>
<path fill="none" stroke="#191970" d="M140.4835,-49.645C151.7879,-39.9058 165.747,-27.8795 175.3076,-19.6427"/>
<polygon fill="#191970" stroke="#191970" points="138.1138,-47.0668 132.8221,-56.2455 142.6827,-52.3701 138.1138,-47.0668"/>
</g>
<!-- Node1 -->
<g id="node2" class="node">
<title>Node1</title>
<g id="a_node2"><a xlink:href="classramses_1_1StatusObject.html" target="_top" xlink:title="The StatusObject provides status message handling. ">
<polygon fill="#ffffff" stroke="#000000" points="65.5,-112.5 65.5,-131.5 177.5,-131.5 177.5,-112.5 65.5,-112.5"/>
<text text-anchor="middle" x="121.5" y="-119.5" font-family="Helvetica,sans-Serif" font-size="10.00" fill="#000000">ramses::StatusObject</text>
</a>
</g>
</g>
<!-- Node1&#45;&gt;Node0 -->
<g id="edge1" class="edge">
<title>Node1&#45;&gt;Node0</title>
<path fill="none" stroke="#191970" d="M121.5,-102.1575C121.5,-93.155 121.5,-82.9199 121.5,-75.6427"/>
<polygon fill="#191970" stroke="#191970" points="118.0001,-102.2455 121.5,-112.2455 125.0001,-102.2456 118.0001,-102.2455"/>
</g>
</g>
</svg>
