<?xml version="1.0" encoding="UTF-8" standalone="no"?>
<!DOCTYPE svg PUBLIC "-//W3C//DTD SVG 1.1//EN"
 "http://www.w3.org/Graphics/SVG/1.1/DTD/svg11.dtd">
<!-- Generated by graphviz version 2.40.1 (20161225.0304)
 -->
<!-- Title: ramses::SplineBezierFloat Pages: 1 -->
<svg width="139pt" height="364pt"
 viewBox="0.00 0.00 139.00 364.00" xmlns="http://www.w3.org/2000/svg" xmlns:xlink="http://www.w3.org/1999/xlink">
<g id="graph0" class="graph" transform="scale(1 1) rotate(0) translate(4 360)">
<title>ramses::SplineBezierFloat</title>
<polygon fill="#ffffff" stroke="transparent" points="-4,4 -4,-360 135,-360 135,4 -4,4"/>
<!-- Node0 -->
<g id="node1" class="node">
<title>Node0</title>
<polygon fill="#bfbfbf" stroke="#000000" points="0,-.5 0,-19.5 131,-19.5 131,-.5 0,-.5"/>
<text text-anchor="middle" x="65.5" y="-7.5" font-family="Helvetica,sans-Serif" font-size="10.00" fill="#000000">ramses::SplineBezierFloat</text>
</g>
<!-- Node1 -->
<g id="node2" class="node">
<title>Node1</title>
<g id="a_node2"><a xlink:href="classramses_1_1Spline.html" target="_top" xlink:title="The Spline is a set of keys describing an animation. ">
<polygon fill="#ffffff" stroke="#000000" points="24.5,-56.5 24.5,-75.5 106.5,-75.5 106.5,-56.5 24.5,-56.5"/>
<text text-anchor="middle" x="65.5" y="-63.5" font-family="Helvetica,sans-Serif" font-size="10.00" fill="#000000">ramses::Spline</text>
</a>
</g>
</g>
<!-- Node1&#45;&gt;Node0 -->
<g id="edge1" class="edge">
<title>Node1&#45;&gt;Node0</title>
<path fill="none" stroke="#191970" d="M65.5,-46.1575C65.5,-37.155 65.5,-26.9199 65.5,-19.6427"/>
<polygon fill="#191970" stroke="#191970" points="62.0001,-46.2455 65.5,-56.2455 69.0001,-46.2456 62.0001,-46.2455"/>
</g>
<!-- Node2 -->
<g id="node3" class="node">
<title>Node2</title>
<g id="a_node3"><a xlink:href="classramses_1_1AnimationObject.html" target="_top" xlink:title="The AnimationObject is a base class for all client API objects owned by an AnimationSystem. ">
<polygon fill="#ffffff" stroke="#000000" points="2,-112.5 2,-131.5 129,-131.5 129,-112.5 2,-112.5"/>
<text text-anchor="middle" x="65.5" y="-119.5" font-family="Helvetica,sans-Serif" font-size="10.00" fill="#000000">ramses::AnimationObject</text>
</a>
</g>
</g>
<!-- Node2&#45;&gt;Node1 -->
<g id="edge2" class="edge">
<title>Node2&#45;&gt;Node1</title>
<path fill="none" stroke="#191970" d="M65.5,-102.1575C65.5,-93.155 65.5,-82.9199 65.5,-75.6427"/>
<polygon fill="#191970" stroke="#191970" points="62.0001,-102.2455 65.5,-112.2455 69.0001,-102.2456 62.0001,-102.2455"/>
</g>
<!-- Node3 -->
<g id="node4" class="node">
<title>Node3</title>
<g id="a_node4"><a xlink:href="classramses_1_1SceneObject.html" target="_top" xlink:title="The SceneObject is a base class for all client API objects owned by a Scene. ">
<polygon fill="#ffffff" stroke="#000000" points="10,-168.5 10,-187.5 121,-187.5 121,-168.5 10,-168.5"/>
<text text-anchor="middle" x="65.5" y="-175.5" font-family="Helvetica,sans-Serif" font-size="10.00" fill="#000000">ramses::SceneObject</text>
</a>
</g>
</g>
<!-- Node3&#45;&gt;Node2 -->
<g id="edge3" class="edge">
<title>Node3&#45;&gt;Node2</title>
<path fill="none" stroke="#191970" d="M65.5,-158.1575C65.5,-149.155 65.5,-138.9199 65.5,-131.6427"/>
<polygon fill="#191970" stroke="#191970" points="62.0001,-158.2455 65.5,-168.2455 69.0001,-158.2456 62.0001,-158.2455"/>
</g>
<!-- Node4 -->
<g id="node5" class="node">
<title>Node4</title>
<g id="a_node5"><a xlink:href="classramses_1_1ClientObject.html" target="_top" xlink:title="The ClientObject is a base class for all client API objects owned by a RamsesClient. ">
<polygon fill="#ffffff" stroke="#000000" points="11,-224.5 11,-243.5 120,-243.5 120,-224.5 11,-224.5"/>
<text text-anchor="middle" x="65.5" y="-231.5" font-family="Helvetica,sans-Serif" font-size="10.00" fill="#000000">ramses::ClientObject</text>
</a>
</g>
</g>
<!-- Node4&#45;&gt;Node3 -->
<g id="edge4" class="edge">
<title>Node4&#45;&gt;Node3</title>
<path fill="none" stroke="#191970" d="M65.5,-214.1575C65.5,-205.155 65.5,-194.9199 65.5,-187.6427"/>
<polygon fill="#191970" stroke="#191970" points="62.0001,-214.2455 65.5,-224.2455 69.0001,-214.2456 62.0001,-214.2455"/>
</g>
<!-- Node5 -->
<g id="node6" class="node">
<title>Node5</title>
<g id="a_node6"><a xlink:href="classramses_1_1RamsesObject.html" target="_top" xlink:title="The RamsesObject is a base class for all client API objects owned by the framework. ">
<polygon fill="#ffffff" stroke="#000000" points="5.5,-280.5 5.5,-299.5 125.5,-299.5 125.5,-280.5 5.5,-280.5"/>
<text text-anchor="middle" x="65.5" y="-287.5" font-family="Helvetica,sans-Serif" font-size="10.00" fill="#000000">ramses::RamsesObject</text>
</a>
</g>
</g>
<!-- Node5&#45;&gt;Node4 -->
<g id="edge5" class="edge">
<title>Node5&#45;&gt;Node4</title>
<path fill="none" stroke="#191970" d="M65.5,-270.1575C65.5,-261.155 65.5,-250.9199 65.5,-243.6427"/>
<polygon fill="#191970" stroke="#191970" points="62.0001,-270.2455 65.5,-280.2455 69.0001,-270.2456 62.0001,-270.2455"/>
</g>
<!-- Node6 -->
<g id="node7" class="node">
<title>Node6</title>
<g id="a_node7"><a xlink:href="classramses_1_1StatusObject.html" target="_top" xlink:title="The StatusObject provides status message handling. ">
<polygon fill="#ffffff" stroke="#000000" points="9.5,-336.5 9.5,-355.5 121.5,-355.5 121.5,-336.5 9.5,-336.5"/>
<text text-anchor="middle" x="65.5" y="-343.5" font-family="Helvetica,sans-Serif" font-size="10.00" fill="#000000">ramses::StatusObject</text>
</a>
</g>
</g>
<!-- Node6&#45;&gt;Node5 -->
<g id="edge6" class="edge">
<title>Node6&#45;&gt;Node5</title>
<path fill="none" stroke="#191970" d="M65.5,-326.1575C65.5,-317.155 65.5,-306.9199 65.5,-299.6427"/>
<polygon fill="#191970" stroke="#191970" points="62.0001,-326.2455 65.5,-336.2455 69.0001,-326.2456 62.0001,-326.2455"/>
</g>
</g>
</svg>
