<?xml version="1.0" encoding="UTF-8" standalone="no"?>
<!DOCTYPE svg PUBLIC "-//W3C//DTD SVG 1.1//EN"
 "http://www.w3.org/Graphics/SVG/1.1/DTD/svg11.dtd">
<!-- Generated by graphviz version 2.43.0 (0)
 -->
<!-- Title: ramses::DataObject Pages: 1 -->
<!--zoomable 408 -->
<svg id="main" version="1.1" xmlns="http://www.w3.org/2000/svg" xmlns:xlink="http://www.w3.org/1999/xlink" xml:space="preserve" onload="init(evt)">
<style type="text/css"><![CDATA[
.edge:hover path { stroke: red; }
.edge:hover polygon { stroke: red; fill: red; }
]]></style>
<script type="text/javascript"><![CDATA[
var edges = document.getElementsByTagName('g');
if (edges && edges.length) {
  for (var i=0;i<edges.length;i++) {
    if (edges[i].id.substr(0,4)=='edge') {
      edges[i].setAttribute('class','edge');
    }
  }
}
]]></script>
        <defs>
                <circle id="rim" cx="0" cy="0" r="7"/>
                <circle id="rim2" cx="0" cy="0" r="3.5"/>
                <g id="zoomPlus">
                        <use xlink:href="#rim" fill="#404040">
                                <set attributeName="fill" to="#808080" begin="zoomplus.mouseover" end="zoomplus.mouseout"/>
                        </use>
                        <path d="M-4,0h8M0,-4v8" fill="none" stroke="white" stroke-width="1.5" pointer-events="none"/>
                </g>
                <g id="zoomMin">
                        <use xlink:href="#rim" fill="#404040">
                                <set attributeName="fill" to="#808080" begin="zoomminus.mouseover" end="zoomminus.mouseout"/>
                        </use>
                        <path d="M-4,0h8" fill="none" stroke="white" stroke-width="1.5" pointer-events="none"/>
                </g>
                <g id="dirArrow">
                        <path fill="none" stroke="white" stroke-width="1.5" d="M0,-3.0v7 M-2.5,-0.5L0,-3.0L2.5,-0.5"/>
                </g>
               <g id="resetDef">
                       <use xlink:href="#rim2" fill="#404040">
                               <set attributeName="fill" to="#808080" begin="reset.mouseover" end="reset.mouseout"/>
                       </use>
               </g>
        </defs>

<script type="text/javascript">
var viewWidth = 918;
var viewHeight = 408;
var sectionId = 'dynsection-0';
</script>
<script xlink:href="svgpan.js"/>
<svg id="graph" class="graph">
<g id="viewport">
<title>ramses::DataObject</title>
<polygon fill="white" stroke="transparent" points="-4,4 -4,-404 914,-404 914,4 -4,4"/>
<!-- Node1 -->
<g id="node1" class="node">
<title>Node1</title>
<g id="a_node1"><a xlink:title="The DataObject is a base class for data container for storing data in a scene.">
<polygon fill="#bfbfbf" stroke="black" points="632,-190.5 632,-209.5 745,-209.5 745,-190.5 632,-190.5"/>
<text text-anchor="middle" x="688.5" y="-197.5" font-family="Helvetica,sans-Serif" font-size="10.00">ramses::DataObject</text>
</a>
</g>
</g>
<!-- Node6 -->
<g id="node6" class="node">
<title>Node6</title>
<g id="a_node6"><a xlink:href="classramses_1_1DataFloat.html" target="_top" xlink:title="The DataFloat data object stores a float value within a scene.">
<polygon fill="white" stroke="black" points="792,-380.5 792,-399.5 899,-399.5 899,-380.5 792,-380.5"/>
<text text-anchor="middle" x="845.5" y="-387.5" font-family="Helvetica,sans-Serif" font-size="10.00">ramses::DataFloat</text>
</a>
</g>
</g>
<!-- Node1&#45;&gt;Node6 -->
<g id="edge5" class="edge">
<title>Node1&#45;&gt;Node6</title>
<path fill="none" stroke="midnightblue" d="M694.53,-219.48C704.72,-254.98 731.14,-330.26 781,-371 785.72,-374.86 791.21,-377.93 796.95,-380.39"/>
<polygon fill="midnightblue" stroke="midnightblue" points="697.91,-218.55 691.89,-209.83 691.16,-220.4 697.91,-218.55"/>
</g>
<!-- Node7 -->
<g id="node7" class="node">
<title>Node7</title>
<g id="a_node7"><a xlink:href="classramses_1_1DataInt32.html" target="_top" xlink:title="The DataInt32 data object stores an 32&#45;bit integer value within a scene.">
<polygon fill="white" stroke="black" points="792,-342.5 792,-361.5 899,-361.5 899,-342.5 792,-342.5"/>
<text text-anchor="middle" x="845.5" y="-349.5" font-family="Helvetica,sans-Serif" font-size="10.00">ramses::DataInt32</text>
</a>
</g>
</g>
<!-- Node1&#45;&gt;Node7 -->
<g id="edge6" class="edge">
<title>Node1&#45;&gt;Node7</title>
<path fill="none" stroke="midnightblue" d="M697.55,-219.11C710.73,-248.07 739.64,-302.88 781,-333 786.3,-336.86 792.39,-339.95 798.65,-342.41"/>
<polygon fill="midnightblue" stroke="midnightblue" points="700.65,-217.45 693.42,-209.71 694.24,-220.27 700.65,-217.45"/>
</g>
<!-- Node8 -->
<g id="node8" class="node">
<title>Node8</title>
<g id="a_node8"><a xlink:href="classramses_1_1DataMatrix22f.html" target="_top" xlink:title="The DataMatrix22f data object stores a matrix with 4 float components (2 rows, 2 columns) within a sc...">
<polygon fill="white" stroke="black" points="781,-304.5 781,-323.5 910,-323.5 910,-304.5 781,-304.5"/>
<text text-anchor="middle" x="845.5" y="-311.5" font-family="Helvetica,sans-Serif" font-size="10.00">ramses::DataMatrix22f</text>
</a>
</g>
</g>
<!-- Node1&#45;&gt;Node8 -->
<g id="edge7" class="edge">
<title>Node1&#45;&gt;Node8</title>
<path fill="none" stroke="midnightblue" d="M702.11,-217.86C718.1,-239.23 747.64,-274.66 781,-295 787.29,-298.83 794.4,-301.94 801.53,-304.44"/>
<polygon fill="midnightblue" stroke="midnightblue" points="704.84,-215.67 696.12,-209.65 699.18,-219.79 704.84,-215.67"/>
</g>
<!-- Node9 -->
<g id="node9" class="node">
<title>Node9</title>
<g id="a_node9"><a xlink:href="classramses_1_1DataMatrix33f.html" target="_top" xlink:title="The DataMatrix33f data object stores a matrix with 9 float components (3 rows, 3 columns) within a sc...">
<polygon fill="white" stroke="black" points="781,-266.5 781,-285.5 910,-285.5 910,-266.5 781,-266.5"/>
<text text-anchor="middle" x="845.5" y="-273.5" font-family="Helvetica,sans-Serif" font-size="10.00">ramses::DataMatrix33f</text>
</a>
</g>
</g>
<!-- Node1&#45;&gt;Node9 -->
<g id="edge8" class="edge">
<title>Node1&#45;&gt;Node9</title>
<path fill="none" stroke="midnightblue" d="M711.07,-215.75C729.05,-228.3 755.72,-245.59 781,-257 789.08,-260.64 798.04,-263.82 806.62,-266.47"/>
<polygon fill="midnightblue" stroke="midnightblue" points="712.69,-212.61 702.51,-209.67 708.64,-218.32 712.69,-212.61"/>
</g>
<!-- Node10 -->
<g id="node10" class="node">
<title>Node10</title>
<g id="a_node10"><a xlink:href="classramses_1_1DataMatrix44f.html" target="_top" xlink:title="The DataMatrix44f data object stores a matrix with 16 float components (4 rows, 4 columns) within a s...">
<polygon fill="white" stroke="black" points="781,-228.5 781,-247.5 910,-247.5 910,-228.5 781,-228.5"/>
<text text-anchor="middle" x="845.5" y="-235.5" font-family="Helvetica,sans-Serif" font-size="10.00">ramses::DataMatrix44f</text>
</a>
</g>
</g>
<!-- Node1&#45;&gt;Node10 -->
<g id="edge9" class="edge">
<title>Node1&#45;&gt;Node10</title>
<path fill="none" stroke="midnightblue" d="M738.61,-212.04C760.26,-217.35 785.35,-223.5 805.67,-228.48"/>
<polygon fill="midnightblue" stroke="midnightblue" points="739.16,-208.57 728.61,-209.59 737.49,-215.37 739.16,-208.57"/>
</g>
<!-- Node11 -->
<g id="node11" class="node">
<title>Node11</title>
<g id="a_node11"><a xlink:href="classramses_1_1DataVector2f.html" target="_top" xlink:title="The DataVector2f data object stores a vector with 2 float components within a scene.">
<polygon fill="white" stroke="black" points="784.5,-190.5 784.5,-209.5 906.5,-209.5 906.5,-190.5 784.5,-190.5"/>
<text text-anchor="middle" x="845.5" y="-197.5" font-family="Helvetica,sans-Serif" font-size="10.00">ramses::DataVector2f</text>
</a>
</g>
</g>
<!-- Node1&#45;&gt;Node11 -->
<g id="edge10" class="edge">
<title>Node1&#45;&gt;Node11</title>
<path fill="none" stroke="midnightblue" d="M755.04,-200C764.78,-200 774.77,-200 784.38,-200"/>
<polygon fill="midnightblue" stroke="midnightblue" points="755.02,-196.5 745.02,-200 755.02,-203.5 755.02,-196.5"/>
</g>
<!-- Node12 -->
<g id="node12" class="node">
<title>Node12</title>
<g id="a_node12"><a xlink:href="classramses_1_1DataVector2i.html" target="_top" xlink:title="The DataVector2i data object stores a vector with two 32&#45;bit&#45;integer components within a scene.">
<polygon fill="white" stroke="black" points="784.5,-152.5 784.5,-171.5 906.5,-171.5 906.5,-152.5 784.5,-152.5"/>
<text text-anchor="middle" x="845.5" y="-159.5" font-family="Helvetica,sans-Serif" font-size="10.00">ramses::DataVector2i</text>
</a>
</g>
</g>
<!-- Node1&#45;&gt;Node12 -->
<g id="edge11" class="edge">
<title>Node1&#45;&gt;Node12</title>
<path fill="none" stroke="midnightblue" d="M738.61,-187.96C760.26,-182.65 785.35,-176.5 805.67,-171.52"/>
<polygon fill="midnightblue" stroke="midnightblue" points="737.49,-184.63 728.61,-190.41 739.16,-191.43 737.49,-184.63"/>
</g>
<!-- Node13 -->
<g id="node13" class="node">
<title>Node13</title>
<g id="a_node13"><a xlink:href="classramses_1_1DataVector3f.html" target="_top" xlink:title="The DataVector3f data object stores a vector with 3 float components within a scene.">
<polygon fill="white" stroke="black" points="784.5,-114.5 784.5,-133.5 906.5,-133.5 906.5,-114.5 784.5,-114.5"/>
<text text-anchor="middle" x="845.5" y="-121.5" font-family="Helvetica,sans-Serif" font-size="10.00">ramses::DataVector3f</text>
</a>
</g>
</g>
<!-- Node1&#45;&gt;Node13 -->
<g id="edge12" class="edge">
<title>Node1&#45;&gt;Node13</title>
<path fill="none" stroke="midnightblue" d="M711.07,-184.25C729.05,-171.7 755.72,-154.41 781,-143 789.08,-139.36 798.04,-136.18 806.62,-133.53"/>
<polygon fill="midnightblue" stroke="midnightblue" points="708.64,-181.68 702.51,-190.33 712.69,-187.39 708.64,-181.68"/>
</g>
<!-- Node14 -->
<g id="node14" class="node">
<title>Node14</title>
<g id="a_node14"><a xlink:href="classramses_1_1DataVector3i.html" target="_top" xlink:title="The DataVector3i data object stores a vector with 3 integer components within a scene.">
<polygon fill="white" stroke="black" points="784.5,-76.5 784.5,-95.5 906.5,-95.5 906.5,-76.5 784.5,-76.5"/>
<text text-anchor="middle" x="845.5" y="-83.5" font-family="Helvetica,sans-Serif" font-size="10.00">ramses::DataVector3i</text>
</a>
</g>
</g>
<!-- Node1&#45;&gt;Node14 -->
<g id="edge13" class="edge">
<title>Node1&#45;&gt;Node14</title>
<path fill="none" stroke="midnightblue" d="M702.11,-182.14C718.1,-160.77 747.64,-125.34 781,-105 787.29,-101.17 794.4,-98.06 801.53,-95.56"/>
<polygon fill="midnightblue" stroke="midnightblue" points="699.18,-180.21 696.12,-190.35 704.84,-184.33 699.18,-180.21"/>
</g>
<!-- Node15 -->
<g id="node15" class="node">
<title>Node15</title>
<g id="a_node15"><a xlink:href="classramses_1_1DataVector4f.html" target="_top" xlink:title="The DataVector4f data object stores a vector with 4 float components within a scene.">
<polygon fill="white" stroke="black" points="784.5,-38.5 784.5,-57.5 906.5,-57.5 906.5,-38.5 784.5,-38.5"/>
<text text-anchor="middle" x="845.5" y="-45.5" font-family="Helvetica,sans-Serif" font-size="10.00">ramses::DataVector4f</text>
</a>
</g>
</g>
<!-- Node1&#45;&gt;Node15 -->
<g id="edge14" class="edge">
<title>Node1&#45;&gt;Node15</title>
<path fill="none" stroke="midnightblue" d="M697.55,-180.89C710.73,-151.93 739.64,-97.12 781,-67 786.3,-63.14 792.39,-60.05 798.65,-57.59"/>
<polygon fill="midnightblue" stroke="midnightblue" points="694.24,-179.73 693.42,-190.29 700.65,-182.55 694.24,-179.73"/>
</g>
<!-- Node16 -->
<g id="node16" class="node">
<title>Node16</title>
<g id="a_node16"><a xlink:href="classramses_1_1DataVector4i.html" target="_top" xlink:title="The DataVector4i data object stores a vector with 4 integer components within a scene.">
<polygon fill="white" stroke="black" points="784.5,-0.5 784.5,-19.5 906.5,-19.5 906.5,-0.5 784.5,-0.5"/>
<text text-anchor="middle" x="845.5" y="-7.5" font-family="Helvetica,sans-Serif" font-size="10.00">ramses::DataVector4i</text>
</a>
</g>
</g>
<!-- Node1&#45;&gt;Node16 -->
<g id="edge15" class="edge">
<title>Node1&#45;&gt;Node16</title>
<path fill="none" stroke="midnightblue" d="M694.53,-180.52C704.72,-145.02 731.14,-69.74 781,-29 785.72,-25.14 791.21,-22.07 796.95,-19.61"/>
<polygon fill="midnightblue" stroke="midnightblue" points="691.16,-179.6 691.89,-190.17 697.91,-181.45 691.16,-179.6"/>
</g>
<!-- Node2 -->
<g id="node2" class="node">
<title>Node2</title>
<g id="a_node2"><a xlink:href="classramses_1_1SceneObject.html" target="_top" xlink:title="The SceneObject is a base class for all client API objects owned by a Scene.">
<polygon fill="white" stroke="black" points="477,-190.5 477,-209.5 596,-209.5 596,-190.5 477,-190.5"/>
<text text-anchor="middle" x="536.5" y="-197.5" font-family="Helvetica,sans-Serif" font-size="10.00">ramses::SceneObject</text>
</a>
</g>
</g>
<!-- Node2&#45;&gt;Node1 -->
<g id="edge1" class="edge">
<title>Node2&#45;&gt;Node1</title>
<path fill="none" stroke="midnightblue" d="M606.57,-200C615.01,-200 623.55,-200 631.76,-200"/>
<polygon fill="midnightblue" stroke="midnightblue" points="606.35,-196.5 596.35,-200 606.35,-203.5 606.35,-196.5"/>
</g>
<!-- Node3 -->
<g id="node3" class="node">
<title>Node3</title>
<g id="a_node3"><a xlink:href="classramses_1_1ClientObject.html" target="_top" xlink:title="The ClientObject is a base class for all client API objects owned by a RamsesClient.">
<polygon fill="white" stroke="black" points="322,-190.5 322,-209.5 441,-209.5 441,-190.5 322,-190.5"/>
<text text-anchor="middle" x="381.5" y="-197.5" font-family="Helvetica,sans-Serif" font-size="10.00">ramses::ClientObject</text>
</a>
</g>
</g>
<!-- Node3&#45;&gt;Node2 -->
<g id="edge2" class="edge">
<title>Node3&#45;&gt;Node2</title>
<path fill="none" stroke="midnightblue" d="M451.49,-200C459.99,-200 468.62,-200 476.94,-200"/>
<polygon fill="midnightblue" stroke="midnightblue" points="451.22,-196.5 441.22,-200 451.22,-203.5 451.22,-196.5"/>
</g>
<!-- Node4 -->
<g id="node4" class="node">
<title>Node4</title>
<g id="a_node4"><a xlink:href="classramses_1_1RamsesObject.html" target="_top" xlink:title="The RamsesObject is a base class for all client API objects owned by the framework.">
<polygon fill="white" stroke="black" points="157,-190.5 157,-209.5 286,-209.5 286,-190.5 157,-190.5"/>
<text text-anchor="middle" x="221.5" y="-197.5" font-family="Helvetica,sans-Serif" font-size="10.00">ramses::RamsesObject</text>
</a>
</g>
</g>
<!-- Node4&#45;&gt;Node3 -->
<g id="edge3" class="edge">
<title>Node4&#45;&gt;Node3</title>
<path fill="none" stroke="midnightblue" d="M296.57,-200C305.04,-200 313.59,-200 321.81,-200"/>
<polygon fill="midnightblue" stroke="midnightblue" points="296.31,-196.5 286.31,-200 296.31,-203.5 296.31,-196.5"/>
</g>
<!-- Node5 -->
<g id="node5" class="node">
<title>Node5</title>
<g id="a_node5"><a xlink:href="classramses_1_1StatusObject.html" target="_top" xlink:title="The StatusObject provides status message handling.">
<polygon fill="white" stroke="black" points="0,-190.5 0,-209.5 121,-209.5 121,-190.5 0,-190.5"/>
<text text-anchor="middle" x="60.5" y="-197.5" font-family="Helvetica,sans-Serif" font-size="10.00">ramses::StatusObject</text>
</a>
</g>
</g>
<!-- Node5&#45;&gt;Node4 -->
<g id="edge4" class="edge">
<title>Node5&#45;&gt;Node4</title>
<path fill="none" stroke="midnightblue" d="M131.37,-200C139.82,-200 148.43,-200 156.78,-200"/>
<polygon fill="midnightblue" stroke="midnightblue" points="131.16,-196.5 121.16,-200 131.16,-203.5 131.16,-196.5"/>
</g>
</g>
</svg>
        <g id="navigator" transform="translate(0 0)" fill="#404254">
                <rect fill="#f2f5e9" fill-opacity="0.5" stroke="#606060" stroke-width=".5" x="0" y="0" width="60" height="60"/>
                <use id="zoomplus" xlink:href="#zoomPlus" x="17" y="9" onmousedown="handleZoom(evt,'in')"/>
                <use id="zoomminus" xlink:href="#zoomMin" x="42" y="9" onmousedown="handleZoom(evt,'out')"/>
                <use id="reset" xlink:href="#resetDef" x="30" y="36" onmousedown="handleReset()"/>
                <g id="arrowUp" xlink:href="#dirArrow" transform="translate(30 24)" onmousedown="handlePan(0,-1)">
                  <use xlink:href="#rim" fill="#404040">
                        <set attributeName="fill" to="#808080" begin="arrowUp.mouseover" end="arrowUp.mouseout"/>
                  </use>
                  <path fill="none" stroke="white" stroke-width="1.5" d="M0,-3.0v7 M-2.5,-0.5L0,-3.0L2.5,-0.5"/>
                </g>
                <g id="arrowRight" xlink:href="#dirArrow" transform="rotate(90) translate(36 -43)" onmousedown="handlePan(1,0)">
                  <use xlink:href="#rim" fill="#404040">
                        <set attributeName="fill" to="#808080" begin="arrowRight.mouseover" end="arrowRight.mouseout"/>
                  </use>
                  <path fill="none" stroke="white" stroke-width="1.5" d="M0,-3.0v7 M-2.5,-0.5L0,-3.0L2.5,-0.5"/>
                </g>
                <g id="arrowDown" xlink:href="#dirArrow" transform="rotate(180) translate(-30 -48)" onmousedown="handlePan(0,1)">
                  <use xlink:href="#rim" fill="#404040">
                        <set attributeName="fill" to="#808080" begin="arrowDown.mouseover" end="arrowDown.mouseout"/>
                  </use>
                  <path fill="none" stroke="white" stroke-width="1.5" d="M0,-3.0v7 M-2.5,-0.5L0,-3.0L2.5,-0.5"/>
                </g>
                <g id="arrowLeft" xlink:href="#dirArrow" transform="rotate(270) translate(-36 17)" onmousedown="handlePan(-1,0)">
                  <use xlink:href="#rim" fill="#404040">
                        <set attributeName="fill" to="#808080" begin="arrowLeft.mouseover" end="arrowLeft.mouseout"/>
                  </use>
                  <path fill="none" stroke="white" stroke-width="1.5" d="M0,-3.0v7 M-2.5,-0.5L0,-3.0L2.5,-0.5"/>
                </g>
        </g>
        <svg viewBox="0 0 15 15" width="100%" height="30px" preserveAspectRatio="xMaxYMin meet">
         <g id="arrow_out" transform="scale(0.3 0.3)">
          <a xlink:href="classramses_1_1DataObject__inherit__graph_org.svg" target="_base">
           <rect id="button" ry="5" rx="5" y="6" x="6" height="38" width="38"
                fill="#f2f5e9" fill-opacity="0.5" stroke="#606060" stroke-width="1.0"/>
           <path id="arrow"
             d="M 11.500037,31.436501 C 11.940474,20.09759 22.043105,11.32322 32.158766,21.979434 L 37.068811,17.246167 C 37.068811,17.246167 37.088388,32 37.088388,32 L 22.160133,31.978069 C 22.160133,31.978069 26.997745,27.140456 26.997745,27.140456 C 18.528582,18.264221 13.291696,25.230495 11.500037,31.436501 z"
             style="fill:#404040;"/>
          </a>
         </g>
        </svg>
</svg>
