<?xml version="1.0" encoding="UTF-8" standalone="no"?>
<!DOCTYPE svg PUBLIC "-//W3C//DTD SVG 1.1//EN"
 "http://www.w3.org/Graphics/SVG/1.1/DTD/svg11.dtd">
<!-- Generated by graphviz version 2.43.0 (0)
 -->
<!-- Title: ramses::IDcsmProviderEventHandler Pages: 1 -->
<svg width="446pt" height="106pt"
 viewBox="0.00 0.00 445.50 106.00" xmlns="http://www.w3.org/2000/svg" xmlns:xlink="http://www.w3.org/1999/xlink">
<g id="graph0" class="graph" transform="scale(1 1) rotate(0) translate(4 102)">
<title>ramses::IDcsmProviderEventHandler</title>
<polygon fill="white" stroke="transparent" points="-4,4 -4,-102 441.5,-102 441.5,4 -4,4"/>
<!-- Node1 -->
<g id="node1" class="node">
<title>Node1</title>
<g id="a_node1"><a xlink:title="An Interface for a class, whose functions are called as reaction to DcsmConsumer communication after ...">
<polygon fill="#bfbfbf" stroke="black" points="125.5,-67.5 125.5,-97.5 283.5,-97.5 283.5,-67.5 125.5,-67.5"/>
<text text-anchor="start" x="133.5" y="-85.5" font-family="Helvetica,sans-Serif" font-size="10.00">ramses::IDcsmProviderEvent</text>
<text text-anchor="middle" x="204.5" y="-74.5" font-family="Helvetica,sans-Serif" font-size="10.00">Handler</text>
</a>
</g>
</g>
<!-- Node2 -->
<g id="node2" class="node">
<title>Node2</title>
<g id="a_node2"><a xlink:title=" ">
<polygon fill="white" stroke="#bfbfbf" points="0,-6 0,-25 129,-25 129,-6 0,-6"/>
<text text-anchor="middle" x="64.5" y="-13" font-family="Helvetica,sans-Serif" font-size="10.00">DCSMProviderExample</text>
</a>
</g>
</g>
<!-- Node1&#45;&gt;Node2 -->
<g id="edge1" class="edge">
<title>Node1&#45;&gt;Node2</title>
<path fill="none" stroke="#8b1a1a" d="M164.94,-63.13C137.99,-50.62 103.57,-34.64 82.82,-25.01"/>
<polygon fill="#8b1a1a" stroke="#8b1a1a" points="163.58,-66.36 174.12,-67.4 166.53,-60.01 163.58,-66.36"/>
</g>
<!-- Node3 -->
<g id="node3" class="node">
<title>Node3</title>
<g id="a_node3"><a xlink:href="classLocalDCSMExample.html" target="_top" xlink:title=" ">
<polygon fill="white" stroke="black" points="147.5,-6 147.5,-25 261.5,-25 261.5,-6 147.5,-6"/>
<text text-anchor="middle" x="204.5" y="-13" font-family="Helvetica,sans-Serif" font-size="10.00">LocalDCSMExample</text>
</a>
</g>
</g>
<!-- Node1&#45;&gt;Node3 -->
<g id="edge2" class="edge">
<title>Node1&#45;&gt;Node3</title>
<path fill="none" stroke="midnightblue" d="M204.5,-57.25C204.5,-46.02 204.5,-33.38 204.5,-25.19"/>
<polygon fill="midnightblue" stroke="midnightblue" points="201,-57.4 204.5,-67.4 208,-57.4 201,-57.4"/>
</g>
<!-- Node4 -->
<g id="node4" class="node">
<title>Node4</title>
<g id="a_node4"><a xlink:href="classramses_1_1IDcsmProviderEventHandlerExtended.html" target="_top" xlink:title="An Interface for a class, whose functions are called as reaction to a DcsmConsumer message after call...">
<polygon fill="white" stroke="black" points="279.5,-0.5 279.5,-30.5 437.5,-30.5 437.5,-0.5 279.5,-0.5"/>
<text text-anchor="start" x="287.5" y="-18.5" font-family="Helvetica,sans-Serif" font-size="10.00">ramses::IDcsmProviderEvent</text>
<text text-anchor="middle" x="358.5" y="-7.5" font-family="Helvetica,sans-Serif" font-size="10.00">HandlerExtended</text>
</a>
</g>
</g>
<!-- Node1&#45;&gt;Node4 -->
<g id="edge3" class="edge">
<title>Node1&#45;&gt;Node4</title>
<path fill="none" stroke="midnightblue" d="M247.37,-63.41C271.95,-53.03 302.36,-40.2 325.15,-30.58"/>
<polygon fill="midnightblue" stroke="midnightblue" points="245.77,-60.28 237.92,-67.4 248.49,-66.73 245.77,-60.28"/>
</g>
</g>
</svg>
