<?xml version="1.0" encoding="UTF-8" standalone="no"?>
<!DOCTYPE svg PUBLIC "-//W3C//DTD SVG 1.1//EN"
 "http://www.w3.org/Graphics/SVG/1.1/DTD/svg11.dtd">
<!-- Generated by graphviz version 2.40.1 (20161225.0304)
 -->
<!-- Title: ramses::IDcsmProviderEventHandlerExtended Pages: 1 -->
<svg width="154pt" height="106pt"
 viewBox="0.00 0.00 154.00 106.00" xmlns="http://www.w3.org/2000/svg" xmlns:xlink="http://www.w3.org/1999/xlink">
<g id="graph0" class="graph" transform="scale(1 1) rotate(0) translate(4 102)">
<title>ramses::IDcsmProviderEventHandlerExtended</title>
<polygon fill="#ffffff" stroke="transparent" points="-4,4 -4,-102 150,-102 150,4 -4,4"/>
<!-- Node0 -->
<g id="node1" class="node">
<title>Node0</title>
<polygon fill="#bfbfbf" stroke="#000000" points="0,-.5 0,-30.5 146,-30.5 146,-.5 0,-.5"/>
<text text-anchor="start" x="8" y="-18.5" font-family="Helvetica,sans-Serif" font-size="10.00" fill="#000000">ramses::IDcsmProviderEvent</text>
<text text-anchor="middle" x="73" y="-7.5" font-family="Helvetica,sans-Serif" font-size="10.00" fill="#000000">HandlerExtended</text>
</g>
<!-- Node1 -->
<g id="node2" class="node">
<title>Node1</title>
<g id="a_node2"><a xlink:href="classramses_1_1IDcsmProviderEventHandler.html" target="_top" xlink:title="An Interface for a class, whose functions are called as reaction to DcsmConsumer communication after ...">
<polygon fill="#ffffff" stroke="#000000" points="0,-67.5 0,-97.5 146,-97.5 146,-67.5 0,-67.5"/>
<text text-anchor="start" x="8" y="-85.5" font-family="Helvetica,sans-Serif" font-size="10.00" fill="#000000">ramses::IDcsmProviderEvent</text>
<text text-anchor="middle" x="73" y="-74.5" font-family="Helvetica,sans-Serif" font-size="10.00" fill="#000000">Handler</text>
</a>
</g>
</g>
<!-- Node1&#45;&gt;Node0 -->
<g id="edge1" class="edge">
<title>Node1&#45;&gt;Node0</title>
<path fill="none" stroke="#191970" d="M73,-57.0249C73,-48.128 73,-38.4287 73,-30.6432"/>
<polygon fill="#191970" stroke="#191970" points="69.5001,-57.2966 73,-67.2967 76.5001,-57.2967 69.5001,-57.2966"/>
</g>
</g>
</svg>
