<?xml version="1.0" encoding="UTF-8" standalone="no"?>
<!DOCTYPE svg PUBLIC "-//W3C//DTD SVG 1.1//EN"
 "http://www.w3.org/Graphics/SVG/1.1/DTD/svg11.dtd">
<!-- Generated by graphviz version 2.40.1 (20161225.0304)
 -->
<!-- Title: ramses::AnimationSequence Pages: 1 -->
<svg width="150pt" height="308pt"
 viewBox="0.00 0.00 150.00 308.00" xmlns="http://www.w3.org/2000/svg" xmlns:xlink="http://www.w3.org/1999/xlink">
<g id="graph0" class="graph" transform="scale(1 1) rotate(0) translate(4 304)">
<title>ramses::AnimationSequence</title>
<polygon fill="#ffffff" stroke="transparent" points="-4,4 -4,-304 146,-304 146,4 -4,4"/>
<!-- Node6 -->
<g id="node1" class="node">
<title>Node6</title>
<polygon fill="#bfbfbf" stroke="#000000" points="0,-.5 0,-19.5 142,-19.5 142,-.5 0,-.5"/>
<text text-anchor="middle" x="71" y="-7.5" font-family="Helvetica,sans-Serif" font-size="10.00" fill="#000000">ramses::AnimationSequence</text>
</g>
<!-- Node7 -->
<g id="node2" class="node">
<title>Node7</title>
<g id="a_node2"><a xlink:href="classramses_1_1AnimationObject.html" target="_top" xlink:title="The AnimationObject is a base class for all client API objects owned by an AnimationSystem. ">
<polygon fill="#ffffff" stroke="#000000" points="7.5,-56.5 7.5,-75.5 134.5,-75.5 134.5,-56.5 7.5,-56.5"/>
<text text-anchor="middle" x="71" y="-63.5" font-family="Helvetica,sans-Serif" font-size="10.00" fill="#000000">ramses::AnimationObject</text>
</a>
</g>
</g>
<!-- Node7&#45;&gt;Node6 -->
<g id="edge1" class="edge">
<title>Node7&#45;&gt;Node6</title>
<path fill="none" stroke="#191970" d="M71,-46.1575C71,-37.155 71,-26.9199 71,-19.6427"/>
<polygon fill="#191970" stroke="#191970" points="67.5001,-46.2455 71,-56.2455 74.5001,-46.2456 67.5001,-46.2455"/>
</g>
<!-- Node8 -->
<g id="node3" class="node">
<title>Node8</title>
<g id="a_node3"><a xlink:href="classramses_1_1SceneObject.html" target="_top" xlink:title="The SceneObject is a base class for all client API objects owned by a Scene. ">
<polygon fill="#ffffff" stroke="#000000" points="15.5,-112.5 15.5,-131.5 126.5,-131.5 126.5,-112.5 15.5,-112.5"/>
<text text-anchor="middle" x="71" y="-119.5" font-family="Helvetica,sans-Serif" font-size="10.00" fill="#000000">ramses::SceneObject</text>
</a>
</g>
</g>
<!-- Node8&#45;&gt;Node7 -->
<g id="edge2" class="edge">
<title>Node8&#45;&gt;Node7</title>
<path fill="none" stroke="#191970" d="M71,-102.1575C71,-93.155 71,-82.9199 71,-75.6427"/>
<polygon fill="#191970" stroke="#191970" points="67.5001,-102.2455 71,-112.2455 74.5001,-102.2456 67.5001,-102.2455"/>
</g>
<!-- Node9 -->
<g id="node4" class="node">
<title>Node9</title>
<g id="a_node4"><a xlink:href="classramses_1_1ClientObject.html" target="_top" xlink:title="The ClientObject is a base class for all client API objects owned by a RamsesClient. ">
<polygon fill="#ffffff" stroke="#000000" points="16.5,-168.5 16.5,-187.5 125.5,-187.5 125.5,-168.5 16.5,-168.5"/>
<text text-anchor="middle" x="71" y="-175.5" font-family="Helvetica,sans-Serif" font-size="10.00" fill="#000000">ramses::ClientObject</text>
</a>
</g>
</g>
<!-- Node9&#45;&gt;Node8 -->
<g id="edge3" class="edge">
<title>Node9&#45;&gt;Node8</title>
<path fill="none" stroke="#191970" d="M71,-158.1575C71,-149.155 71,-138.9199 71,-131.6427"/>
<polygon fill="#191970" stroke="#191970" points="67.5001,-158.2455 71,-168.2455 74.5001,-158.2456 67.5001,-158.2455"/>
</g>
<!-- Node10 -->
<g id="node5" class="node">
<title>Node10</title>
<g id="a_node5"><a xlink:href="classramses_1_1RamsesObject.html" target="_top" xlink:title="The RamsesObject is a base class for all client API objects owned by the framework. ">
<polygon fill="#ffffff" stroke="#000000" points="11,-224.5 11,-243.5 131,-243.5 131,-224.5 11,-224.5"/>
<text text-anchor="middle" x="71" y="-231.5" font-family="Helvetica,sans-Serif" font-size="10.00" fill="#000000">ramses::RamsesObject</text>
</a>
</g>
</g>
<!-- Node10&#45;&gt;Node9 -->
<g id="edge4" class="edge">
<title>Node10&#45;&gt;Node9</title>
<path fill="none" stroke="#191970" d="M71,-214.1575C71,-205.155 71,-194.9199 71,-187.6427"/>
<polygon fill="#191970" stroke="#191970" points="67.5001,-214.2455 71,-224.2455 74.5001,-214.2456 67.5001,-214.2455"/>
</g>
<!-- Node11 -->
<g id="node6" class="node">
<title>Node11</title>
<g id="a_node6"><a xlink:href="classramses_1_1StatusObject.html" target="_top" xlink:title="The StatusObject provides status message handling. ">
<polygon fill="#ffffff" stroke="#000000" points="15,-280.5 15,-299.5 127,-299.5 127,-280.5 15,-280.5"/>
<text text-anchor="middle" x="71" y="-287.5" font-family="Helvetica,sans-Serif" font-size="10.00" fill="#000000">ramses::StatusObject</text>
</a>
</g>
</g>
<!-- Node11&#45;&gt;Node10 -->
<g id="edge5" class="edge">
<title>Node11&#45;&gt;Node10</title>
<path fill="none" stroke="#191970" d="M71,-270.1575C71,-261.155 71,-250.9199 71,-243.6427"/>
<polygon fill="#191970" stroke="#191970" points="67.5001,-270.2455 71,-280.2455 74.5001,-270.2456 67.5001,-270.2455"/>
</g>
</g>
</svg>
