<?xml version="1.0" encoding="UTF-8" standalone="no"?>
<!DOCTYPE svg PUBLIC "-//W3C//DTD SVG 1.1//EN"
 "http://www.w3.org/Graphics/SVG/1.1/DTD/svg11.dtd">
<!-- Generated by graphviz version 2.43.0 (0)
 -->
<!-- Title: ramses::IRendererEventHandler Pages: 1 -->
<svg width="290pt" height="151pt"
 viewBox="0.00 0.00 290.00 151.00" xmlns="http://www.w3.org/2000/svg" xmlns:xlink="http://www.w3.org/1999/xlink">
<g id="graph0" class="graph" transform="scale(1 1) rotate(0) translate(4 147)">
<title>ramses::IRendererEventHandler</title>
<polygon fill="white" stroke="transparent" points="-4,4 -4,-147 286,-147 286,4 -4,4"/>
<!-- Node1 -->
<g id="node1" class="node">
<title>Node1</title>
<g id="a_node1"><a xlink:title="Provides an interface for handling the result of renderer events. Implementation of this interface mu...">
<polygon fill="#bfbfbf" stroke="black" points="110,-123.5 110,-142.5 282,-142.5 282,-123.5 110,-123.5"/>
<text text-anchor="middle" x="196" y="-130.5" font-family="Helvetica,sans-Serif" font-size="10.00">ramses::IRendererEventHandler</text>
</a>
</g>
</g>
<!-- Node2 -->
<g id="node2" class="node">
<title>Node2</title>
<g id="a_node2"><a xlink:href="classramses_1_1RendererEventHandlerEmpty.html" target="_top" xlink:title="Convenience empty implementation of IRendererEventHandler that can be used to derive from when only s...">
<polygon fill="white" stroke="black" points="111.5,-56.5 111.5,-86.5 280.5,-86.5 280.5,-56.5 111.5,-56.5"/>
<text text-anchor="start" x="119.5" y="-74.5" font-family="Helvetica,sans-Serif" font-size="10.00">ramses::RendererEventHandler</text>
<text text-anchor="middle" x="196" y="-63.5" font-family="Helvetica,sans-Serif" font-size="10.00">Empty</text>
</a>
</g>
</g>
<!-- Node1&#45;&gt;Node2 -->
<g id="edge1" class="edge">
<title>Node1&#45;&gt;Node2</title>
<path fill="none" stroke="midnightblue" d="M196,-113.23C196,-104.59 196,-94.5 196,-86.52"/>
<polygon fill="midnightblue" stroke="midnightblue" points="192.5,-113.48 196,-123.48 199.5,-113.48 192.5,-113.48"/>
</g>
<!-- Node3 -->
<g id="node3" class="node">
<title>Node3</title>
<g id="a_node3"><a xlink:href="classLocalDCSMExample.html" target="_top" xlink:title=" ">
<polygon fill="white" stroke="black" points="0,-0.5 0,-19.5 114,-19.5 114,-0.5 0,-0.5"/>
<text text-anchor="middle" x="57" y="-7.5" font-family="Helvetica,sans-Serif" font-size="10.00">LocalDCSMExample</text>
</a>
</g>
</g>
<!-- Node2&#45;&gt;Node3 -->
<g id="edge2" class="edge">
<title>Node2&#45;&gt;Node3</title>
<path fill="none" stroke="midnightblue" d="M153.65,-52.37C128.28,-41.51 97.17,-28.2 77.23,-19.66"/>
<polygon fill="midnightblue" stroke="midnightblue" points="152.49,-55.68 163.06,-56.4 155.24,-49.25 152.49,-55.68"/>
</g>
<!-- Node4 -->
<g id="node4" class="node">
<title>Node4</title>
<g id="a_node4"><a xlink:href="classRendererEventHandler.html" target="_top" xlink:title=" ">
<polygon fill="white" stroke="black" points="132.5,-0.5 132.5,-19.5 259.5,-19.5 259.5,-0.5 132.5,-0.5"/>
<text text-anchor="middle" x="196" y="-7.5" font-family="Helvetica,sans-Serif" font-size="10.00">RendererEventHandler</text>
</a>
</g>
</g>
<!-- Node2&#45;&gt;Node4 -->
<g id="edge3" class="edge">
<title>Node2&#45;&gt;Node4</title>
<path fill="none" stroke="midnightblue" d="M162.9,-46.9C160.85,-37.3 163.66,-26.81 171.35,-19.66"/>
<polygon fill="midnightblue" stroke="midnightblue" points="159.76,-48.48 166.8,-56.4 166.24,-45.82 159.76,-48.48"/>
</g>
<!-- Node2&#45;&gt;Node4 -->
<g id="edge4" class="edge">
<title>Node2&#45;&gt;Node4</title>
<path fill="none" stroke="midnightblue" d="M176.1,-46.59C174.94,-37.08 176.65,-26.73 181.21,-19.66"/>
<polygon fill="midnightblue" stroke="midnightblue" points="172.72,-47.51 178.48,-56.4 179.52,-45.86 172.72,-47.51"/>
</g>
<!-- Node2&#45;&gt;Node4 -->
<g id="edge5" class="edge">
<title>Node2&#45;&gt;Node4</title>
<path fill="none" stroke="midnightblue" d="M189.36,-46.29C188.99,-36.86 189.57,-26.65 191.07,-19.66"/>
<polygon fill="midnightblue" stroke="midnightblue" points="185.88,-46.71 190.16,-56.4 192.86,-46.15 185.88,-46.71"/>
</g>
<!-- Node2&#45;&gt;Node4 -->
<g id="edge6" class="edge">
<title>Node2&#45;&gt;Node4</title>
<path fill="none" stroke="midnightblue" d="M202.64,-46.29C203.01,-36.86 202.43,-26.65 200.93,-19.66"/>
<polygon fill="midnightblue" stroke="midnightblue" points="199.14,-46.15 201.84,-56.4 206.12,-46.71 199.14,-46.15"/>
</g>
<!-- Node2&#45;&gt;Node4 -->
<g id="edge7" class="edge">
<title>Node2&#45;&gt;Node4</title>
<path fill="none" stroke="midnightblue" d="M215.9,-46.59C217.06,-37.08 215.35,-26.73 210.79,-19.66"/>
<polygon fill="midnightblue" stroke="midnightblue" points="212.48,-45.86 213.52,-56.4 219.28,-47.51 212.48,-45.86"/>
</g>
<!-- Node2&#45;&gt;Node4 -->
<g id="edge8" class="edge">
<title>Node2&#45;&gt;Node4</title>
<path fill="none" stroke="midnightblue" d="M229.1,-46.9C231.15,-37.3 228.34,-26.81 220.65,-19.66"/>
<polygon fill="midnightblue" stroke="midnightblue" points="225.76,-45.82 225.2,-56.4 232.24,-48.48 225.76,-45.82"/>
</g>
</g>
</svg>
