<?xml version="1.0" encoding="UTF-8" standalone="no"?>
<!DOCTYPE svg PUBLIC "-//W3C//DTD SVG 1.1//EN"
 "http://www.w3.org/Graphics/SVG/1.1/DTD/svg11.dtd">
<!-- Generated by graphviz version 2.40.1 (20161225.0304)
 -->
<!-- Title: ramses::Spline Pages: 1 -->
<svg width="1031pt" height="940pt"
 viewBox="0.00 0.00 1031.00 940.00" xmlns="http://www.w3.org/2000/svg" xmlns:xlink="http://www.w3.org/1999/xlink">
<g id="graph0" class="graph" transform="scale(1 1) rotate(0) translate(4 936)">
<title>ramses::Spline</title>
<polygon fill="#ffffff" stroke="transparent" points="-4,4 -4,-936 1027,-936 1027,4 -4,4"/>
<!-- Node0 -->
<g id="node1" class="node">
<title>Node0</title>
<polygon fill="#bfbfbf" stroke="#000000" points="759,-456.5 759,-475.5 841,-475.5 841,-456.5 759,-456.5"/>
<text text-anchor="middle" x="800" y="-463.5" font-family="Helvetica,sans-Serif" font-size="10.00" fill="#000000">ramses::Spline</text>
</g>
<!-- Node6 -->
<g id="node7" class="node">
<title>Node6</title>
<g id="a_node7"><a xlink:href="classramses_1_1SplineBezierFloat.html" target="_top" xlink:title="The SplineBezierFloat stores spline keys of type float that can be used for animation with Bezier int...">
<polygon fill="#ffffff" stroke="#000000" points="884.5,-912.5 884.5,-931.5 1015.5,-931.5 1015.5,-912.5 884.5,-912.5"/>
<text text-anchor="middle" x="950" y="-919.5" font-family="Helvetica,sans-Serif" font-size="10.00" fill="#000000">ramses::SplineBezierFloat</text>
</a>
</g>
</g>
<!-- Node0&#45;&gt;Node6 -->
<g id="edge6" class="edge">
<title>Node0&#45;&gt;Node6</title>
<path fill="none" stroke="#191970" d="M800.7428,-486.0945C804.0097,-563.455 819.6032,-840.8041 877,-903 880.5526,-906.8496 884.7772,-909.9601 889.3771,-912.4684"/>
<polygon fill="#191970" stroke="#191970" points="804.2288,-485.6705 800.3331,-475.8179 797.2343,-485.9494 804.2288,-485.6705"/>
</g>
<!-- Node7 -->
<g id="node8" class="node">
<title>Node7</title>
<g id="a_node8"><a xlink:href="classramses_1_1SplineBezierInt32.html" target="_top" xlink:title="The SplineBezierInt32 stores spline keys of type int32_t that can be used for animation with Bezier i...">
<polygon fill="#ffffff" stroke="#000000" points="884.5,-874.5 884.5,-893.5 1015.5,-893.5 1015.5,-874.5 884.5,-874.5"/>
<text text-anchor="middle" x="950" y="-881.5" font-family="Helvetica,sans-Serif" font-size="10.00" fill="#000000">ramses::SplineBezierInt32</text>
</a>
</g>
</g>
<!-- Node0&#45;&gt;Node7 -->
<g id="edge7" class="edge">
<title>Node0&#45;&gt;Node7</title>
<path fill="none" stroke="#191970" d="M801.0892,-485.7365C805.4894,-558.2761 824.3145,-808.8307 877,-865 880.5837,-868.8207 884.8297,-871.9112 889.4436,-874.4066"/>
<polygon fill="#191970" stroke="#191970" points="804.5791,-485.4596 800.5039,-475.6799 797.5909,-485.8664 804.5791,-485.4596"/>
</g>
<!-- Node8 -->
<g id="node9" class="node">
<title>Node8</title>
<g id="a_node9"><a xlink:href="classramses_1_1SplineBezierVector2f.html" target="_top" xlink:title="The SplineBezierVector2f stores spline keys of type Vector2f that can be used for animation with Bezi...">
<polygon fill="#ffffff" stroke="#000000" points="877,-836.5 877,-855.5 1023,-855.5 1023,-836.5 877,-836.5"/>
<text text-anchor="middle" x="950" y="-843.5" font-family="Helvetica,sans-Serif" font-size="10.00" fill="#000000">ramses::SplineBezierVector2f</text>
</a>
</g>
</g>
<!-- Node0&#45;&gt;Node8 -->
<g id="edge8" class="edge">
<title>Node0&#45;&gt;Node8</title>
<path fill="none" stroke="#191970" d="M801.5481,-486.0193C807.2323,-554.3613 829.1605,-776.984 877,-827 880.6208,-830.7855 884.8923,-833.8519 889.5228,-836.3315"/>
<polygon fill="#191970" stroke="#191970" points="805.0142,-485.4574 800.7228,-475.7706 798.0368,-486.0193 805.0142,-485.4574"/>
</g>
<!-- Node9 -->
<g id="node10" class="node">
<title>Node9</title>
<g id="a_node10"><a xlink:href="classramses_1_1SplineBezierVector2i.html" target="_top" xlink:title="The SplineBezierVector2i stores spline keys of type Vector2i that can be used for animation with Bezi...">
<polygon fill="#ffffff" stroke="#000000" points="877,-798.5 877,-817.5 1023,-817.5 1023,-798.5 877,-798.5"/>
<text text-anchor="middle" x="950" y="-805.5" font-family="Helvetica,sans-Serif" font-size="10.00" fill="#000000">ramses::SplineBezierVector2i</text>
</a>
</g>
</g>
<!-- Node0&#45;&gt;Node9 -->
<g id="edge9" class="edge">
<title>Node0&#45;&gt;Node9</title>
<path fill="none" stroke="#191970" d="M802.0816,-485.9384C809.0993,-549.383 833.8957,-744.9984 877,-789 880.7574,-792.8356 885.1836,-795.9299 889.9682,-798.4221"/>
<polygon fill="#191970" stroke="#191970" points="805.5293,-485.2637 800.9778,-475.6963 798.5696,-486.0138 805.5293,-485.2637"/>
</g>
<!-- Node10 -->
<g id="node11" class="node">
<title>Node10</title>
<g id="a_node11"><a xlink:href="classramses_1_1SplineBezierVector3f.html" target="_top" xlink:title="The SplineBezierVector3f stores spline keys of type Vector3f that can be used for animation with Bezi...">
<polygon fill="#ffffff" stroke="#000000" points="877,-760.5 877,-779.5 1023,-779.5 1023,-760.5 877,-760.5"/>
<text text-anchor="middle" x="950" y="-767.5" font-family="Helvetica,sans-Serif" font-size="10.00" fill="#000000">ramses::SplineBezierVector3f</text>
</a>
</g>
</g>
<!-- Node0&#45;&gt;Node10 -->
<g id="edge10" class="edge">
<title>Node0&#45;&gt;Node10</title>
<path fill="none" stroke="#191970" d="M802.7481,-485.8467C811.2034,-544.1096 838.6002,-712.9537 877,-751 880.9072,-754.8712 885.4973,-757.9836 890.441,-760.482"/>
<polygon fill="#191970" stroke="#191970" points="806.1841,-485.1482 801.312,-475.74 799.2537,-486.133 806.1841,-485.1482"/>
</g>
<!-- Node11 -->
<g id="node12" class="node">
<title>Node11</title>
<g id="a_node12"><a xlink:href="classramses_1_1SplineBezierVector3i.html" target="_top" xlink:title="The SplineBezierVector3i stores spline keys of type Vector3i that can be used for animation with Bezi...">
<polygon fill="#ffffff" stroke="#000000" points="877,-722.5 877,-741.5 1023,-741.5 1023,-722.5 877,-722.5"/>
<text text-anchor="middle" x="950" y="-729.5" font-family="Helvetica,sans-Serif" font-size="10.00" fill="#000000">ramses::SplineBezierVector3i</text>
</a>
</g>
</g>
<!-- Node0&#45;&gt;Node11 -->
<g id="edge11" class="edge">
<title>Node0&#45;&gt;Node11</title>
<path fill="none" stroke="#191970" d="M803.5754,-485.5795C813.5597,-538.1879 843.2317,-680.8009 877,-713 881.0754,-716.886 885.8414,-720.0027 890.9509,-722.4987"/>
<polygon fill="#191970" stroke="#191970" points="806.9757,-484.7209 801.7017,-475.532 800.0943,-486.0042 806.9757,-484.7209"/>
</g>
<!-- Node12 -->
<g id="node13" class="node">
<title>Node12</title>
<g id="a_node13"><a xlink:href="classramses_1_1SplineBezierVector4f.html" target="_top" xlink:title="The SplineBezierVector4f stores spline keys of type Vector4f that can be used for animation with Bezi...">
<polygon fill="#ffffff" stroke="#000000" points="877,-684.5 877,-703.5 1023,-703.5 1023,-684.5 877,-684.5"/>
<text text-anchor="middle" x="950" y="-691.5" font-family="Helvetica,sans-Serif" font-size="10.00" fill="#000000">ramses::SplineBezierVector4f</text>
</a>
</g>
</g>
<!-- Node0&#45;&gt;Node12 -->
<g id="edge12" class="edge">
<title>Node0&#45;&gt;Node12</title>
<path fill="none" stroke="#191970" d="M801.3631,-485.7592C805.3157,-527.2292 820.4257,-623.7339 877,-675 881.2699,-678.8692 886.2284,-681.9697 891.5129,-684.4514"/>
<polygon fill="#191970" stroke="#191970" points="804.8355,-485.2808 800.519,-475.6052 797.8596,-485.8608 804.8355,-485.2808"/>
</g>
<!-- Node13 -->
<g id="node14" class="node">
<title>Node13</title>
<g id="a_node14"><a xlink:href="classramses_1_1SplineBezierVector4i.html" target="_top" xlink:title="The SplineBezierVector4i stores spline keys of type Vector4i that can be used for animation with Bezi...">
<polygon fill="#ffffff" stroke="#000000" points="877,-646.5 877,-665.5 1023,-665.5 1023,-646.5 877,-646.5"/>
<text text-anchor="middle" x="950" y="-653.5" font-family="Helvetica,sans-Serif" font-size="10.00" fill="#000000">ramses::SplineBezierVector4i</text>
</a>
</g>
</g>
<!-- Node0&#45;&gt;Node13 -->
<g id="edge13" class="edge">
<title>Node0&#45;&gt;Node13</title>
<path fill="none" stroke="#191970" d="M803.2468,-486.0562C810.1318,-521.9179 829.6342,-597.0102 877,-637 881.603,-640.8862 886.9087,-643.9892 892.5161,-646.4651"/>
<polygon fill="#191970" stroke="#191970" points="806.6346,-485.1169 801.4354,-475.8855 799.7431,-486.3443 806.6346,-485.1169"/>
</g>
<!-- Node14 -->
<g id="node15" class="node">
<title>Node14</title>
<g id="a_node15"><a xlink:href="classramses_1_1SplineLinearFloat.html" target="_top" xlink:title="The SplineLinearFloat stores spline keys of type float that can be used for animation with linear int...">
<polygon fill="#ffffff" stroke="#000000" points="885,-608.5 885,-627.5 1015,-627.5 1015,-608.5 885,-608.5"/>
<text text-anchor="middle" x="950" y="-615.5" font-family="Helvetica,sans-Serif" font-size="10.00" fill="#000000">ramses::SplineLinearFloat</text>
</a>
</g>
</g>
<!-- Node0&#45;&gt;Node14 -->
<g id="edge14" class="edge">
<title>Node0&#45;&gt;Node14</title>
<path fill="none" stroke="#191970" d="M805.9304,-485.6524C815.7938,-514.9151 838.3994,-569.6366 877,-599 882.1072,-602.8851 887.9338,-605.979 894.0172,-608.4422"/>
<polygon fill="#191970" stroke="#191970" points="809.154,-484.243 802.7672,-475.7896 802.4884,-486.3808 809.154,-484.243"/>
</g>
<!-- Node15 -->
<g id="node16" class="node">
<title>Node15</title>
<g id="a_node16"><a xlink:href="classramses_1_1SplineLinearInt32.html" target="_top" xlink:title="The SplineLinearInt32 stores spline keys of type int32_t that can be used for animation with linear i...">
<polygon fill="#ffffff" stroke="#000000" points="885,-570.5 885,-589.5 1015,-589.5 1015,-570.5 885,-570.5"/>
<text text-anchor="middle" x="950" y="-577.5" font-family="Helvetica,sans-Serif" font-size="10.00" fill="#000000">ramses::SplineLinearInt32</text>
</a>
</g>
</g>
<!-- Node0&#45;&gt;Node15 -->
<g id="edge15" class="edge">
<title>Node0&#45;&gt;Node15</title>
<path fill="none" stroke="#191970" d="M810.16,-484.6883C822.9114,-506.3522 846.8168,-541.5619 877,-561 883.0556,-564.8998 889.8787,-568.0009 896.86,-570.4665"/>
<polygon fill="#191970" stroke="#191970" points="813.0882,-482.7571 805.1036,-475.7931 807.0027,-486.2164 813.0882,-482.7571"/>
</g>
<!-- Node16 -->
<g id="node17" class="node">
<title>Node16</title>
<g id="a_node17"><a xlink:href="classramses_1_1SplineLinearVector2f.html" target="_top" xlink:title="The SplineLinearVector2f stores spline keys of type Vector2f that can be used for animation with line...">
<polygon fill="#ffffff" stroke="#000000" points="877.5,-532.5 877.5,-551.5 1022.5,-551.5 1022.5,-532.5 877.5,-532.5"/>
<text text-anchor="middle" x="950" y="-539.5" font-family="Helvetica,sans-Serif" font-size="10.00" fill="#000000">ramses::SplineLinearVector2f</text>
</a>
</g>
</g>
<!-- Node0&#45;&gt;Node16 -->
<g id="edge16" class="edge">
<title>Node0&#45;&gt;Node16</title>
<path fill="none" stroke="#191970" d="M817.9559,-482.4333C832.7892,-495.1965 854.9227,-512.446 877,-523 884.9162,-526.7843 893.689,-529.8892 902.3278,-532.4111"/>
<polygon fill="#191970" stroke="#191970" points="819.9359,-479.5126 810.1215,-475.5214 815.3048,-484.7618 819.9359,-479.5126"/>
</g>
<!-- Node17 -->
<g id="node18" class="node">
<title>Node17</title>
<g id="a_node18"><a xlink:href="classramses_1_1SplineLinearVector2i.html" target="_top" xlink:title="The SplineLinearVector2i stores spline keys of type Vector2i that can be used for animation with line...">
<polygon fill="#ffffff" stroke="#000000" points="878,-494.5 878,-513.5 1022,-513.5 1022,-494.5 878,-494.5"/>
<text text-anchor="middle" x="950" y="-501.5" font-family="Helvetica,sans-Serif" font-size="10.00" fill="#000000">ramses::SplineLinearVector2i</text>
</a>
</g>
</g>
<!-- Node0&#45;&gt;Node17 -->
<g id="edge17" class="edge">
<title>Node0&#45;&gt;Node17</title>
<path fill="none" stroke="#191970" d="M847.811,-478.1121C868.7016,-483.4044 892.8472,-489.5213 912.4209,-494.4799"/>
<polygon fill="#191970" stroke="#191970" points="848.4047,-474.652 837.8513,-475.589 846.6856,-481.4377 848.4047,-474.652"/>
</g>
<!-- Node18 -->
<g id="node19" class="node">
<title>Node18</title>
<g id="a_node19"><a xlink:href="classramses_1_1SplineLinearVector3f.html" target="_top" xlink:title="The SplineLinearVector3f stores spline keys of type Vector3f that can be used for animation with line...">
<polygon fill="#ffffff" stroke="#000000" points="877.5,-456.5 877.5,-475.5 1022.5,-475.5 1022.5,-456.5 877.5,-456.5"/>
<text text-anchor="middle" x="950" y="-463.5" font-family="Helvetica,sans-Serif" font-size="10.00" fill="#000000">ramses::SplineLinearVector3f</text>
</a>
</g>
</g>
<!-- Node0&#45;&gt;Node18 -->
<g id="edge18" class="edge">
<title>Node0&#45;&gt;Node18</title>
<path fill="none" stroke="#191970" d="M851.6456,-466C859.953,-466 868.6851,-466 877.3746,-466"/>
<polygon fill="#191970" stroke="#191970" points="851.3853,-462.5001 841.3852,-466 851.3852,-469.5001 851.3853,-462.5001"/>
</g>
<!-- Node19 -->
<g id="node20" class="node">
<title>Node19</title>
<g id="a_node20"><a xlink:href="classramses_1_1SplineLinearVector3i.html" target="_top" xlink:title="The SplineLinearVector3i stores spline keys of type Vector3i that can be used for animation with line...">
<polygon fill="#ffffff" stroke="#000000" points="878,-418.5 878,-437.5 1022,-437.5 1022,-418.5 878,-418.5"/>
<text text-anchor="middle" x="950" y="-425.5" font-family="Helvetica,sans-Serif" font-size="10.00" fill="#000000">ramses::SplineLinearVector3i</text>
</a>
</g>
</g>
<!-- Node0&#45;&gt;Node19 -->
<g id="edge19" class="edge">
<title>Node0&#45;&gt;Node19</title>
<path fill="none" stroke="#191970" d="M847.811,-453.8879C868.7016,-448.5956 892.8472,-442.4787 912.4209,-437.5201"/>
<polygon fill="#191970" stroke="#191970" points="846.6856,-450.5623 837.8513,-456.411 848.4047,-457.348 846.6856,-450.5623"/>
</g>
<!-- Node20 -->
<g id="node21" class="node">
<title>Node20</title>
<g id="a_node21"><a xlink:href="classramses_1_1SplineLinearVector4f.html" target="_top" xlink:title="The SplineLinearVector4f stores spline keys of type Vector4f that can be used for animation with line...">
<polygon fill="#ffffff" stroke="#000000" points="877.5,-380.5 877.5,-399.5 1022.5,-399.5 1022.5,-380.5 877.5,-380.5"/>
<text text-anchor="middle" x="950" y="-387.5" font-family="Helvetica,sans-Serif" font-size="10.00" fill="#000000">ramses::SplineLinearVector4f</text>
</a>
</g>
</g>
<!-- Node0&#45;&gt;Node20 -->
<g id="edge20" class="edge">
<title>Node0&#45;&gt;Node20</title>
<path fill="none" stroke="#191970" d="M817.9559,-449.5667C832.7892,-436.8035 854.9227,-419.554 877,-409 884.9162,-405.2157 893.689,-402.1108 902.3278,-399.5889"/>
<polygon fill="#191970" stroke="#191970" points="815.3048,-447.2382 810.1215,-456.4786 819.9359,-452.4874 815.3048,-447.2382"/>
</g>
<!-- Node21 -->
<g id="node22" class="node">
<title>Node21</title>
<g id="a_node22"><a xlink:href="classramses_1_1SplineLinearVector4i.html" target="_top" xlink:title="The SplineLinearVector4i stores spline keys of type Vector4i that can be used for animation with line...">
<polygon fill="#ffffff" stroke="#000000" points="878,-342.5 878,-361.5 1022,-361.5 1022,-342.5 878,-342.5"/>
<text text-anchor="middle" x="950" y="-349.5" font-family="Helvetica,sans-Serif" font-size="10.00" fill="#000000">ramses::SplineLinearVector4i</text>
</a>
</g>
</g>
<!-- Node0&#45;&gt;Node21 -->
<g id="edge21" class="edge">
<title>Node0&#45;&gt;Node21</title>
<path fill="none" stroke="#191970" d="M810.16,-447.3117C822.9114,-425.6478 846.8168,-390.4381 877,-371 883.0556,-367.1002 889.8787,-363.9991 896.86,-361.5335"/>
<polygon fill="#191970" stroke="#191970" points="807.0027,-445.7836 805.1036,-456.2069 813.0882,-449.2429 807.0027,-445.7836"/>
</g>
<!-- Node22 -->
<g id="node23" class="node">
<title>Node22</title>
<g id="a_node23"><a xlink:href="classramses_1_1SplineStepBool.html" target="_top" xlink:title="The SplineStepBool stores spline keys of type bool that can be used for animation with step interpola...">
<polygon fill="#ffffff" stroke="#000000" points="889,-304.5 889,-323.5 1011,-323.5 1011,-304.5 889,-304.5"/>
<text text-anchor="middle" x="950" y="-311.5" font-family="Helvetica,sans-Serif" font-size="10.00" fill="#000000">ramses::SplineStepBool</text>
</a>
</g>
</g>
<!-- Node0&#45;&gt;Node22 -->
<g id="edge22" class="edge">
<title>Node0&#45;&gt;Node22</title>
<path fill="none" stroke="#191970" d="M805.9304,-446.3476C815.7938,-417.0849 838.3994,-362.3634 877,-333 882.1072,-329.1149 887.9338,-326.021 894.0172,-323.5578"/>
<polygon fill="#191970" stroke="#191970" points="802.4884,-445.6192 802.7672,-456.2104 809.154,-447.757 802.4884,-445.6192"/>
</g>
<!-- Node23 -->
<g id="node24" class="node">
<title>Node23</title>
<g id="a_node24"><a xlink:href="classramses_1_1SplineStepFloat.html" target="_top" xlink:title="The SplineStepFloat stores spline keys of type float that can be used for animation with step interpo...">
<polygon fill="#ffffff" stroke="#000000" points="888,-266.5 888,-285.5 1012,-285.5 1012,-266.5 888,-266.5"/>
<text text-anchor="middle" x="950" y="-273.5" font-family="Helvetica,sans-Serif" font-size="10.00" fill="#000000">ramses::SplineStepFloat</text>
</a>
</g>
</g>
<!-- Node0&#45;&gt;Node23 -->
<g id="edge23" class="edge">
<title>Node0&#45;&gt;Node23</title>
<path fill="none" stroke="#191970" d="M803.2468,-445.9438C810.1318,-410.0821 829.6342,-334.9898 877,-295 881.603,-291.1138 886.9087,-288.0108 892.5161,-285.5349"/>
<polygon fill="#191970" stroke="#191970" points="799.7431,-445.6557 801.4354,-456.1145 806.6346,-446.8831 799.7431,-445.6557"/>
</g>
<!-- Node24 -->
<g id="node25" class="node">
<title>Node24</title>
<g id="a_node25"><a xlink:href="classramses_1_1SplineStepInt32.html" target="_top" xlink:title="The SplineStepInt32 stores spline keys of type int32_t that can be used for animation with step inter...">
<polygon fill="#ffffff" stroke="#000000" points="888,-228.5 888,-247.5 1012,-247.5 1012,-228.5 888,-228.5"/>
<text text-anchor="middle" x="950" y="-235.5" font-family="Helvetica,sans-Serif" font-size="10.00" fill="#000000">ramses::SplineStepInt32</text>
</a>
</g>
</g>
<!-- Node0&#45;&gt;Node24 -->
<g id="edge24" class="edge">
<title>Node0&#45;&gt;Node24</title>
<path fill="none" stroke="#191970" d="M801.3631,-446.2408C805.3157,-404.7708 820.4257,-308.2661 877,-257 881.2699,-253.1308 886.2284,-250.0303 891.5129,-247.5486"/>
<polygon fill="#191970" stroke="#191970" points="797.8596,-446.1392 800.519,-456.3948 804.8355,-446.7192 797.8596,-446.1392"/>
</g>
<!-- Node25 -->
<g id="node26" class="node">
<title>Node25</title>
<g id="a_node26"><a xlink:href="classramses_1_1SplineStepVector2f.html" target="_top" xlink:title="The SplineStepVector2f stores spline keys of type Vector2f that can be used for animation with step i...">
<polygon fill="#ffffff" stroke="#000000" points="880.5,-190.5 880.5,-209.5 1019.5,-209.5 1019.5,-190.5 880.5,-190.5"/>
<text text-anchor="middle" x="950" y="-197.5" font-family="Helvetica,sans-Serif" font-size="10.00" fill="#000000">ramses::SplineStepVector2f</text>
</a>
</g>
</g>
<!-- Node0&#45;&gt;Node25 -->
<g id="edge25" class="edge">
<title>Node0&#45;&gt;Node25</title>
<path fill="none" stroke="#191970" d="M803.5754,-446.4205C813.5597,-393.8121 843.2317,-251.1991 877,-219 881.0754,-215.114 885.8414,-211.9973 890.9509,-209.5013"/>
<polygon fill="#191970" stroke="#191970" points="800.0943,-445.9958 801.7017,-456.468 806.9757,-447.2791 800.0943,-445.9958"/>
</g>
<!-- Node26 -->
<g id="node27" class="node">
<title>Node26</title>
<g id="a_node27"><a xlink:href="classramses_1_1SplineStepVector2i.html" target="_top" xlink:title="The SplineStepVector2i stores spline keys of type Vector2i that can be used for animation with step i...">
<polygon fill="#ffffff" stroke="#000000" points="881,-152.5 881,-171.5 1019,-171.5 1019,-152.5 881,-152.5"/>
<text text-anchor="middle" x="950" y="-159.5" font-family="Helvetica,sans-Serif" font-size="10.00" fill="#000000">ramses::SplineStepVector2i</text>
</a>
</g>
</g>
<!-- Node0&#45;&gt;Node26 -->
<g id="edge26" class="edge">
<title>Node0&#45;&gt;Node26</title>
<path fill="none" stroke="#191970" d="M802.7481,-446.1533C811.2034,-387.8904 838.6002,-219.0463 877,-181 880.9072,-177.1288 885.4973,-174.0164 890.441,-171.518"/>
<polygon fill="#191970" stroke="#191970" points="799.2537,-445.867 801.312,-456.26 806.1841,-446.8518 799.2537,-445.867"/>
</g>
<!-- Node27 -->
<g id="node28" class="node">
<title>Node27</title>
<g id="a_node28"><a xlink:href="classramses_1_1SplineStepVector3f.html" target="_top" xlink:title="The SplineStepVector3f stores spline keys of type Vector3f that can be used for animation with step i...">
<polygon fill="#ffffff" stroke="#000000" points="880.5,-114.5 880.5,-133.5 1019.5,-133.5 1019.5,-114.5 880.5,-114.5"/>
<text text-anchor="middle" x="950" y="-121.5" font-family="Helvetica,sans-Serif" font-size="10.00" fill="#000000">ramses::SplineStepVector3f</text>
</a>
</g>
</g>
<!-- Node0&#45;&gt;Node27 -->
<g id="edge27" class="edge">
<title>Node0&#45;&gt;Node27</title>
<path fill="none" stroke="#191970" d="M802.0816,-446.0616C809.0993,-382.617 833.8957,-187.0016 877,-143 880.7574,-139.1644 885.1836,-136.0701 889.9682,-133.5779"/>
<polygon fill="#191970" stroke="#191970" points="798.5696,-445.9862 800.9778,-456.3037 805.5293,-446.7363 798.5696,-445.9862"/>
</g>
<!-- Node28 -->
<g id="node29" class="node">
<title>Node28</title>
<g id="a_node29"><a xlink:href="classramses_1_1SplineStepVector3i.html" target="_top" xlink:title="The SplineStepVector3i stores spline keys of type Vector3i that can be used for animation with step i...">
<polygon fill="#ffffff" stroke="#000000" points="881,-76.5 881,-95.5 1019,-95.5 1019,-76.5 881,-76.5"/>
<text text-anchor="middle" x="950" y="-83.5" font-family="Helvetica,sans-Serif" font-size="10.00" fill="#000000">ramses::SplineStepVector3i</text>
</a>
</g>
</g>
<!-- Node0&#45;&gt;Node28 -->
<g id="edge28" class="edge">
<title>Node0&#45;&gt;Node28</title>
<path fill="none" stroke="#191970" d="M801.5481,-445.9807C807.2323,-377.6387 829.1605,-155.016 877,-105 880.6208,-101.2145 884.8923,-98.1481 889.5228,-95.6685"/>
<polygon fill="#191970" stroke="#191970" points="798.0368,-445.9807 800.7228,-456.2294 805.0142,-446.5426 798.0368,-445.9807"/>
</g>
<!-- Node29 -->
<g id="node30" class="node">
<title>Node29</title>
<g id="a_node30"><a xlink:href="classramses_1_1SplineStepVector4f.html" target="_top" xlink:title="The SplineStepVector4f stores spline keys of type Vector4f that can be used for animation with step i...">
<polygon fill="#ffffff" stroke="#000000" points="880.5,-38.5 880.5,-57.5 1019.5,-57.5 1019.5,-38.5 880.5,-38.5"/>
<text text-anchor="middle" x="950" y="-45.5" font-family="Helvetica,sans-Serif" font-size="10.00" fill="#000000">ramses::SplineStepVector4f</text>
</a>
</g>
</g>
<!-- Node0&#45;&gt;Node29 -->
<g id="edge29" class="edge">
<title>Node0&#45;&gt;Node29</title>
<path fill="none" stroke="#191970" d="M801.0892,-446.2635C805.4894,-373.7239 824.3145,-123.1693 877,-67 880.5837,-63.1793 884.8297,-60.0888 889.4436,-57.5934"/>
<polygon fill="#191970" stroke="#191970" points="797.5909,-446.1336 800.5039,-456.3201 804.5791,-446.5404 797.5909,-446.1336"/>
</g>
<!-- Node30 -->
<g id="node31" class="node">
<title>Node30</title>
<g id="a_node31"><a xlink:href="classramses_1_1SplineStepVector4i.html" target="_top" xlink:title="The SplineStepVector4i stores spline keys of type Vector4i that can be used for animation with step i...">
<polygon fill="#ffffff" stroke="#000000" points="881,-.5 881,-19.5 1019,-19.5 1019,-.5 881,-.5"/>
<text text-anchor="middle" x="950" y="-7.5" font-family="Helvetica,sans-Serif" font-size="10.00" fill="#000000">ramses::SplineStepVector4i</text>
</a>
</g>
</g>
<!-- Node0&#45;&gt;Node30 -->
<g id="edge30" class="edge">
<title>Node0&#45;&gt;Node30</title>
<path fill="none" stroke="#191970" d="M800.7428,-445.9055C804.0097,-368.545 819.6032,-91.1959 877,-29 880.5526,-25.1504 884.7772,-22.0399 889.3771,-19.5316"/>
<polygon fill="#191970" stroke="#191970" points="797.2343,-446.0506 800.3331,-456.1821 804.2288,-446.3295 797.2343,-446.0506"/>
</g>
<!-- Node1 -->
<g id="node2" class="node">
<title>Node1</title>
<g id="a_node2"><a xlink:href="classramses_1_1AnimationObject.html" target="_top" xlink:title="The AnimationObject is a base class for all client API objects owned by an AnimationSystem. ">
<polygon fill="#ffffff" stroke="#000000" points="596,-456.5 596,-475.5 723,-475.5 723,-456.5 596,-456.5"/>
<text text-anchor="middle" x="659.5" y="-463.5" font-family="Helvetica,sans-Serif" font-size="10.00" fill="#000000">ramses::AnimationObject</text>
</a>
</g>
</g>
<!-- Node1&#45;&gt;Node0 -->
<g id="edge1" class="edge">
<title>Node1&#45;&gt;Node0</title>
<path fill="none" stroke="#191970" d="M733.372,-466C742.0585,-466 750.671,-466 758.6763,-466"/>
<polygon fill="#191970" stroke="#191970" points="733.1727,-462.5001 723.1726,-466 733.1726,-469.5001 733.1727,-462.5001"/>
</g>
<!-- Node2 -->
<g id="node3" class="node">
<title>Node2</title>
<g id="a_node3"><a xlink:href="classramses_1_1SceneObject.html" target="_top" xlink:title="The SceneObject is a base class for all client API objects owned by a Scene. ">
<polygon fill="#ffffff" stroke="#000000" points="449,-456.5 449,-475.5 560,-475.5 560,-456.5 449,-456.5"/>
<text text-anchor="middle" x="504.5" y="-463.5" font-family="Helvetica,sans-Serif" font-size="10.00" fill="#000000">ramses::SceneObject</text>
</a>
</g>
</g>
<!-- Node2&#45;&gt;Node1 -->
<g id="edge2" class="edge">
<title>Node2&#45;&gt;Node1</title>
<path fill="none" stroke="#191970" d="M570.2673,-466C578.7693,-466 587.4641,-466 595.9297,-466"/>
<polygon fill="#191970" stroke="#191970" points="570.0208,-462.5001 560.0208,-466 570.0207,-469.5001 570.0208,-462.5001"/>
</g>
<!-- Node3 -->
<g id="node4" class="node">
<title>Node3</title>
<g id="a_node4"><a xlink:href="classramses_1_1ClientObject.html" target="_top" xlink:title="The ClientObject is a base class for all client API objects owned by a RamsesClient. ">
<polygon fill="#ffffff" stroke="#000000" points="304,-456.5 304,-475.5 413,-475.5 413,-456.5 304,-456.5"/>
<text text-anchor="middle" x="358.5" y="-463.5" font-family="Helvetica,sans-Serif" font-size="10.00" fill="#000000">ramses::ClientObject</text>
</a>
</g>
</g>
<!-- Node3&#45;&gt;Node2 -->
<g id="edge3" class="edge">
<title>Node3&#45;&gt;Node2</title>
<path fill="none" stroke="#191970" d="M423.5191,-466C431.9978,-466 440.6218,-466 448.9262,-466"/>
<polygon fill="#191970" stroke="#191970" points="423.2804,-462.5001 413.2804,-466 423.2804,-469.5001 423.2804,-462.5001"/>
</g>
<!-- Node4 -->
<g id="node5" class="node">
<title>Node4</title>
<g id="a_node5"><a xlink:href="classramses_1_1RamsesObject.html" target="_top" xlink:title="The RamsesObject is a base class for all client API objects owned by the framework. ">
<polygon fill="#ffffff" stroke="#000000" points="148,-456.5 148,-475.5 268,-475.5 268,-456.5 148,-456.5"/>
<text text-anchor="middle" x="208" y="-463.5" font-family="Helvetica,sans-Serif" font-size="10.00" fill="#000000">ramses::RamsesObject</text>
</a>
</g>
</g>
<!-- Node4&#45;&gt;Node3 -->
<g id="edge4" class="edge">
<title>Node4&#45;&gt;Node3</title>
<path fill="none" stroke="#191970" d="M278.3762,-466C286.9761,-466 295.6613,-466 303.9799,-466"/>
<polygon fill="#191970" stroke="#191970" points="278.347,-462.5001 268.3469,-466 278.3469,-469.5001 278.347,-462.5001"/>
</g>
<!-- Node5 -->
<g id="node6" class="node">
<title>Node5</title>
<g id="a_node6"><a xlink:href="classramses_1_1StatusObject.html" target="_top" xlink:title="The StatusObject provides status message handling. ">
<polygon fill="#ffffff" stroke="#000000" points="0,-456.5 0,-475.5 112,-475.5 112,-456.5 0,-456.5"/>
<text text-anchor="middle" x="56" y="-463.5" font-family="Helvetica,sans-Serif" font-size="10.00" fill="#000000">ramses::StatusObject</text>
</a>
</g>
</g>
<!-- Node5&#45;&gt;Node4 -->
<g id="edge5" class="edge">
<title>Node5&#45;&gt;Node4</title>
<path fill="none" stroke="#191970" d="M122.4268,-466C130.9276,-466 139.5908,-466 147.9818,-466"/>
<polygon fill="#191970" stroke="#191970" points="122.1674,-462.5001 112.1673,-466 122.1673,-469.5001 122.1674,-462.5001"/>
</g>
</g>
</svg>
