<?xml version="1.0" encoding="UTF-8" standalone="no"?>
<!DOCTYPE svg PUBLIC "-//W3C//DTD SVG 1.1//EN"
 "http://www.w3.org/Graphics/SVG/1.1/DTD/svg11.dtd">
<!-- Generated by graphviz version 2.40.1 (20161225.0304)
 -->
<!-- Title: ramses::SplineStepFloat Pages: 1 -->
<svg width="135pt" height="364pt"
 viewBox="0.00 0.00 135.00 364.00" xmlns="http://www.w3.org/2000/svg" xmlns:xlink="http://www.w3.org/1999/xlink">
<g id="graph0" class="graph" transform="scale(1 1) rotate(0) translate(4 360)">
<title>ramses::SplineStepFloat</title>
<polygon fill="#ffffff" stroke="transparent" points="-4,4 -4,-360 131,-360 131,4 -4,4"/>
<!-- Node7 -->
<g id="node1" class="node">
<title>Node7</title>
<polygon fill="#bfbfbf" stroke="#000000" points="1.5,-.5 1.5,-19.5 125.5,-19.5 125.5,-.5 1.5,-.5"/>
<text text-anchor="middle" x="63.5" y="-7.5" font-family="Helvetica,sans-Serif" font-size="10.00" fill="#000000">ramses::SplineStepFloat</text>
</g>
<!-- Node8 -->
<g id="node2" class="node">
<title>Node8</title>
<g id="a_node2"><a xlink:href="classramses_1_1Spline.html" target="_top" xlink:title="The Spline is a set of keys describing an animation. ">
<polygon fill="#ffffff" stroke="#000000" points="22.5,-56.5 22.5,-75.5 104.5,-75.5 104.5,-56.5 22.5,-56.5"/>
<text text-anchor="middle" x="63.5" y="-63.5" font-family="Helvetica,sans-Serif" font-size="10.00" fill="#000000">ramses::Spline</text>
</a>
</g>
</g>
<!-- Node8&#45;&gt;Node7 -->
<g id="edge1" class="edge">
<title>Node8&#45;&gt;Node7</title>
<path fill="none" stroke="#191970" d="M63.5,-46.1575C63.5,-37.155 63.5,-26.9199 63.5,-19.6427"/>
<polygon fill="#191970" stroke="#191970" points="60.0001,-46.2455 63.5,-56.2455 67.0001,-46.2456 60.0001,-46.2455"/>
</g>
<!-- Node9 -->
<g id="node3" class="node">
<title>Node9</title>
<g id="a_node3"><a xlink:href="classramses_1_1AnimationObject.html" target="_top" xlink:title="The AnimationObject is a base class for all client API objects owned by an AnimationSystem. ">
<polygon fill="#ffffff" stroke="#000000" points="0,-112.5 0,-131.5 127,-131.5 127,-112.5 0,-112.5"/>
<text text-anchor="middle" x="63.5" y="-119.5" font-family="Helvetica,sans-Serif" font-size="10.00" fill="#000000">ramses::AnimationObject</text>
</a>
</g>
</g>
<!-- Node9&#45;&gt;Node8 -->
<g id="edge2" class="edge">
<title>Node9&#45;&gt;Node8</title>
<path fill="none" stroke="#191970" d="M63.5,-102.1575C63.5,-93.155 63.5,-82.9199 63.5,-75.6427"/>
<polygon fill="#191970" stroke="#191970" points="60.0001,-102.2455 63.5,-112.2455 67.0001,-102.2456 60.0001,-102.2455"/>
</g>
<!-- Node10 -->
<g id="node4" class="node">
<title>Node10</title>
<g id="a_node4"><a xlink:href="classramses_1_1SceneObject.html" target="_top" xlink:title="The SceneObject is a base class for all client API objects owned by a Scene. ">
<polygon fill="#ffffff" stroke="#000000" points="8,-168.5 8,-187.5 119,-187.5 119,-168.5 8,-168.5"/>
<text text-anchor="middle" x="63.5" y="-175.5" font-family="Helvetica,sans-Serif" font-size="10.00" fill="#000000">ramses::SceneObject</text>
</a>
</g>
</g>
<!-- Node10&#45;&gt;Node9 -->
<g id="edge3" class="edge">
<title>Node10&#45;&gt;Node9</title>
<path fill="none" stroke="#191970" d="M63.5,-158.1575C63.5,-149.155 63.5,-138.9199 63.5,-131.6427"/>
<polygon fill="#191970" stroke="#191970" points="60.0001,-158.2455 63.5,-168.2455 67.0001,-158.2456 60.0001,-158.2455"/>
</g>
<!-- Node11 -->
<g id="node5" class="node">
<title>Node11</title>
<g id="a_node5"><a xlink:href="classramses_1_1ClientObject.html" target="_top" xlink:title="The ClientObject is a base class for all client API objects owned by a RamsesClient. ">
<polygon fill="#ffffff" stroke="#000000" points="9,-224.5 9,-243.5 118,-243.5 118,-224.5 9,-224.5"/>
<text text-anchor="middle" x="63.5" y="-231.5" font-family="Helvetica,sans-Serif" font-size="10.00" fill="#000000">ramses::ClientObject</text>
</a>
</g>
</g>
<!-- Node11&#45;&gt;Node10 -->
<g id="edge4" class="edge">
<title>Node11&#45;&gt;Node10</title>
<path fill="none" stroke="#191970" d="M63.5,-214.1575C63.5,-205.155 63.5,-194.9199 63.5,-187.6427"/>
<polygon fill="#191970" stroke="#191970" points="60.0001,-214.2455 63.5,-224.2455 67.0001,-214.2456 60.0001,-214.2455"/>
</g>
<!-- Node12 -->
<g id="node6" class="node">
<title>Node12</title>
<g id="a_node6"><a xlink:href="classramses_1_1RamsesObject.html" target="_top" xlink:title="The RamsesObject is a base class for all client API objects owned by the framework. ">
<polygon fill="#ffffff" stroke="#000000" points="3.5,-280.5 3.5,-299.5 123.5,-299.5 123.5,-280.5 3.5,-280.5"/>
<text text-anchor="middle" x="63.5" y="-287.5" font-family="Helvetica,sans-Serif" font-size="10.00" fill="#000000">ramses::RamsesObject</text>
</a>
</g>
</g>
<!-- Node12&#45;&gt;Node11 -->
<g id="edge5" class="edge">
<title>Node12&#45;&gt;Node11</title>
<path fill="none" stroke="#191970" d="M63.5,-270.1575C63.5,-261.155 63.5,-250.9199 63.5,-243.6427"/>
<polygon fill="#191970" stroke="#191970" points="60.0001,-270.2455 63.5,-280.2455 67.0001,-270.2456 60.0001,-270.2455"/>
</g>
<!-- Node13 -->
<g id="node7" class="node">
<title>Node13</title>
<g id="a_node7"><a xlink:href="classramses_1_1StatusObject.html" target="_top" xlink:title="The StatusObject provides status message handling. ">
<polygon fill="#ffffff" stroke="#000000" points="7.5,-336.5 7.5,-355.5 119.5,-355.5 119.5,-336.5 7.5,-336.5"/>
<text text-anchor="middle" x="63.5" y="-343.5" font-family="Helvetica,sans-Serif" font-size="10.00" fill="#000000">ramses::StatusObject</text>
</a>
</g>
</g>
<!-- Node13&#45;&gt;Node12 -->
<g id="edge6" class="edge">
<title>Node13&#45;&gt;Node12</title>
<path fill="none" stroke="#191970" d="M63.5,-326.1575C63.5,-317.155 63.5,-306.9199 63.5,-299.6427"/>
<polygon fill="#191970" stroke="#191970" points="60.0001,-326.2455 63.5,-336.2455 67.0001,-326.2456 60.0001,-326.2455"/>
</g>
</g>
</svg>
