<?xml version="1.0" encoding="UTF-8" standalone="no"?>
<!DOCTYPE svg PUBLIC "-//W3C//DTD SVG 1.1//EN"
 "http://www.w3.org/Graphics/SVG/1.1/DTD/svg11.dtd">
<!-- Generated by graphviz version 2.40.1 (20161225.0304)
 -->
<!-- Title: ramses::SplineLinearFloat Pages: 1 -->
<svg width="138pt" height="364pt"
 viewBox="0.00 0.00 138.00 364.00" xmlns="http://www.w3.org/2000/svg" xmlns:xlink="http://www.w3.org/1999/xlink">
<g id="graph0" class="graph" transform="scale(1 1) rotate(0) translate(4 360)">
<title>ramses::SplineLinearFloat</title>
<polygon fill="#ffffff" stroke="transparent" points="-4,4 -4,-360 134,-360 134,4 -4,4"/>
<!-- Node0 -->
<g id="node1" class="node">
<title>Node0</title>
<polygon fill="#bfbfbf" stroke="#000000" points="0,-.5 0,-19.5 130,-19.5 130,-.5 0,-.5"/>
<text text-anchor="middle" x="65" y="-7.5" font-family="Helvetica,sans-Serif" font-size="10.00" fill="#000000">ramses::SplineLinearFloat</text>
</g>
<!-- Node1 -->
<g id="node2" class="node">
<title>Node1</title>
<g id="a_node2"><a xlink:href="classramses_1_1Spline.html" target="_top" xlink:title="The Spline is a set of keys describing an animation. ">
<polygon fill="#ffffff" stroke="#000000" points="24,-56.5 24,-75.5 106,-75.5 106,-56.5 24,-56.5"/>
<text text-anchor="middle" x="65" y="-63.5" font-family="Helvetica,sans-Serif" font-size="10.00" fill="#000000">ramses::Spline</text>
</a>
</g>
</g>
<!-- Node1&#45;&gt;Node0 -->
<g id="edge1" class="edge">
<title>Node1&#45;&gt;Node0</title>
<path fill="none" stroke="#191970" d="M65,-46.1575C65,-37.155 65,-26.9199 65,-19.6427"/>
<polygon fill="#191970" stroke="#191970" points="61.5001,-46.2455 65,-56.2455 68.5001,-46.2456 61.5001,-46.2455"/>
</g>
<!-- Node2 -->
<g id="node3" class="node">
<title>Node2</title>
<g id="a_node3"><a xlink:href="classramses_1_1AnimationObject.html" target="_top" xlink:title="The AnimationObject is a base class for all client API objects owned by an AnimationSystem. ">
<polygon fill="#ffffff" stroke="#000000" points="1.5,-112.5 1.5,-131.5 128.5,-131.5 128.5,-112.5 1.5,-112.5"/>
<text text-anchor="middle" x="65" y="-119.5" font-family="Helvetica,sans-Serif" font-size="10.00" fill="#000000">ramses::AnimationObject</text>
</a>
</g>
</g>
<!-- Node2&#45;&gt;Node1 -->
<g id="edge2" class="edge">
<title>Node2&#45;&gt;Node1</title>
<path fill="none" stroke="#191970" d="M65,-102.1575C65,-93.155 65,-82.9199 65,-75.6427"/>
<polygon fill="#191970" stroke="#191970" points="61.5001,-102.2455 65,-112.2455 68.5001,-102.2456 61.5001,-102.2455"/>
</g>
<!-- Node3 -->
<g id="node4" class="node">
<title>Node3</title>
<g id="a_node4"><a xlink:href="classramses_1_1SceneObject.html" target="_top" xlink:title="The SceneObject is a base class for all client API objects owned by a Scene. ">
<polygon fill="#ffffff" stroke="#000000" points="9.5,-168.5 9.5,-187.5 120.5,-187.5 120.5,-168.5 9.5,-168.5"/>
<text text-anchor="middle" x="65" y="-175.5" font-family="Helvetica,sans-Serif" font-size="10.00" fill="#000000">ramses::SceneObject</text>
</a>
</g>
</g>
<!-- Node3&#45;&gt;Node2 -->
<g id="edge3" class="edge">
<title>Node3&#45;&gt;Node2</title>
<path fill="none" stroke="#191970" d="M65,-158.1575C65,-149.155 65,-138.9199 65,-131.6427"/>
<polygon fill="#191970" stroke="#191970" points="61.5001,-158.2455 65,-168.2455 68.5001,-158.2456 61.5001,-158.2455"/>
</g>
<!-- Node4 -->
<g id="node5" class="node">
<title>Node4</title>
<g id="a_node5"><a xlink:href="classramses_1_1ClientObject.html" target="_top" xlink:title="The ClientObject is a base class for all client API objects owned by a RamsesClient. ">
<polygon fill="#ffffff" stroke="#000000" points="10.5,-224.5 10.5,-243.5 119.5,-243.5 119.5,-224.5 10.5,-224.5"/>
<text text-anchor="middle" x="65" y="-231.5" font-family="Helvetica,sans-Serif" font-size="10.00" fill="#000000">ramses::ClientObject</text>
</a>
</g>
</g>
<!-- Node4&#45;&gt;Node3 -->
<g id="edge4" class="edge">
<title>Node4&#45;&gt;Node3</title>
<path fill="none" stroke="#191970" d="M65,-214.1575C65,-205.155 65,-194.9199 65,-187.6427"/>
<polygon fill="#191970" stroke="#191970" points="61.5001,-214.2455 65,-224.2455 68.5001,-214.2456 61.5001,-214.2455"/>
</g>
<!-- Node5 -->
<g id="node6" class="node">
<title>Node5</title>
<g id="a_node6"><a xlink:href="classramses_1_1RamsesObject.html" target="_top" xlink:title="The RamsesObject is a base class for all client API objects owned by the framework. ">
<polygon fill="#ffffff" stroke="#000000" points="5,-280.5 5,-299.5 125,-299.5 125,-280.5 5,-280.5"/>
<text text-anchor="middle" x="65" y="-287.5" font-family="Helvetica,sans-Serif" font-size="10.00" fill="#000000">ramses::RamsesObject</text>
</a>
</g>
</g>
<!-- Node5&#45;&gt;Node4 -->
<g id="edge5" class="edge">
<title>Node5&#45;&gt;Node4</title>
<path fill="none" stroke="#191970" d="M65,-270.1575C65,-261.155 65,-250.9199 65,-243.6427"/>
<polygon fill="#191970" stroke="#191970" points="61.5001,-270.2455 65,-280.2455 68.5001,-270.2456 61.5001,-270.2455"/>
</g>
<!-- Node6 -->
<g id="node7" class="node">
<title>Node6</title>
<g id="a_node7"><a xlink:href="classramses_1_1StatusObject.html" target="_top" xlink:title="The StatusObject provides status message handling. ">
<polygon fill="#ffffff" stroke="#000000" points="9,-336.5 9,-355.5 121,-355.5 121,-336.5 9,-336.5"/>
<text text-anchor="middle" x="65" y="-343.5" font-family="Helvetica,sans-Serif" font-size="10.00" fill="#000000">ramses::StatusObject</text>
</a>
</g>
</g>
<!-- Node6&#45;&gt;Node5 -->
<g id="edge6" class="edge">
<title>Node6&#45;&gt;Node5</title>
<path fill="none" stroke="#191970" d="M65,-326.1575C65,-317.155 65,-306.9199 65,-299.6427"/>
<polygon fill="#191970" stroke="#191970" points="61.5001,-326.2455 65,-336.2455 68.5001,-326.2456 61.5001,-326.2455"/>
</g>
</g>
</svg>
