<?xml version="1.0" encoding="UTF-8" standalone="no"?>
<!DOCTYPE svg PUBLIC "-//W3C//DTD SVG 1.1//EN"
 "http://www.w3.org/Graphics/SVG/1.1/DTD/svg11.dtd">
<!-- Generated by graphviz version 2.40.1 (20161225.0304)
 -->
<!-- Title: ramses::RendererSceneControlEventHandlerEmpty Pages: 1 -->
<svg width="165pt" height="162pt"
 viewBox="0.00 0.00 165.00 162.00" xmlns="http://www.w3.org/2000/svg" xmlns:xlink="http://www.w3.org/1999/xlink">
<g id="graph0" class="graph" transform="scale(1 1) rotate(0) translate(4 158)">
<title>ramses::RendererSceneControlEventHandlerEmpty</title>
<polygon fill="#ffffff" stroke="transparent" points="-4,4 -4,-158 161,-158 161,4 -4,4"/>
<!-- Node0 -->
<g id="node1" class="node">
<title>Node0</title>
<polygon fill="#bfbfbf" stroke="#000000" points="1.5,-56.5 1.5,-86.5 155.5,-86.5 155.5,-56.5 1.5,-56.5"/>
<text text-anchor="start" x="9.5" y="-74.5" font-family="Helvetica,sans-Serif" font-size="10.00" fill="#000000">ramses::RendererSceneControl</text>
<text text-anchor="middle" x="78.5" y="-63.5" font-family="Helvetica,sans-Serif" font-size="10.00" fill="#000000">EventHandlerEmpty</text>
</g>
<!-- Node2 -->
<g id="node3" class="node">
<title>Node2</title>
<g id="a_node3"><a xlink:href="classSceneStateEventHandler.html" target="_top" xlink:title="SceneStateEventHandler">
<polygon fill="#ffffff" stroke="#000000" points="15,-.5 15,-19.5 142,-19.5 142,-.5 15,-.5"/>
<text text-anchor="middle" x="78.5" y="-7.5" font-family="Helvetica,sans-Serif" font-size="10.00" fill="#000000">SceneStateEventHandler</text>
</a>
</g>
</g>
<!-- Node0&#45;&gt;Node2 -->
<g id="edge2" class="edge">
<title>Node0&#45;&gt;Node2</title>
<path fill="none" stroke="#191970" d="M78.5,-46.2849C78.5,-36.9858 78.5,-26.9883 78.5,-19.8469"/>
<polygon fill="#191970" stroke="#191970" points="75.0001,-46.2977 78.5,-56.2977 82.0001,-46.2978 75.0001,-46.2977"/>
</g>
<!-- Node1 -->
<g id="node2" class="node">
<title>Node1</title>
<g id="a_node2"><a xlink:href="classramses_1_1IRendererSceneControlEventHandler.html" target="_top" xlink:title="Provides an interface for handling the result of renderer scene control events. Implementation of thi...">
<polygon fill="#ffffff" stroke="#000000" points="0,-123.5 0,-153.5 157,-153.5 157,-123.5 0,-123.5"/>
<text text-anchor="start" x="8" y="-141.5" font-family="Helvetica,sans-Serif" font-size="10.00" fill="#000000">ramses::IRendererSceneControl</text>
<text text-anchor="middle" x="78.5" y="-130.5" font-family="Helvetica,sans-Serif" font-size="10.00" fill="#000000">EventHandler</text>
</a>
</g>
</g>
<!-- Node1&#45;&gt;Node0 -->
<g id="edge1" class="edge">
<title>Node1&#45;&gt;Node0</title>
<path fill="none" stroke="#191970" d="M78.5,-113.0249C78.5,-104.128 78.5,-94.4287 78.5,-86.6432"/>
<polygon fill="#191970" stroke="#191970" points="75.0001,-113.2966 78.5,-123.2967 82.0001,-113.2967 75.0001,-113.2966"/>
</g>
</g>
</svg>
