<?xml version="1.0" encoding="UTF-8" standalone="no"?>
<!DOCTYPE svg PUBLIC "-//W3C//DTD SVG 1.1//EN"
 "http://www.w3.org/Graphics/SVG/1.1/DTD/svg11.dtd">
<!-- Generated by graphviz version 2.43.0 (0)
 -->
<!-- Title: ramses::EffectInput Pages: 1 -->
<svg width="276pt" height="140pt"
 viewBox="0.00 0.00 275.50 140.00" xmlns="http://www.w3.org/2000/svg" xmlns:xlink="http://www.w3.org/1999/xlink">
<g id="graph0" class="graph" transform="scale(1 1) rotate(0) translate(4 136)">
<title>ramses::EffectInput</title>
<polygon fill="white" stroke="transparent" points="-4,4 -4,-136 271.5,-136 271.5,4 -4,4"/>
<!-- Node1 -->
<g id="node1" class="node">
<title>Node1</title>
<g id="a_node1"><a xlink:title="The EffectInput is a description of an effect input.">
<polygon fill="#bfbfbf" stroke="black" points="78.5,-56.5 78.5,-75.5 189.5,-75.5 189.5,-56.5 78.5,-56.5"/>
<text text-anchor="middle" x="134" y="-63.5" font-family="Helvetica,sans-Serif" font-size="10.00">ramses::EffectInput</text>
</a>
</g>
</g>
<!-- Node3 -->
<g id="node3" class="node">
<title>Node3</title>
<g id="a_node3"><a xlink:href="classramses_1_1AttributeInput.html" target="_top" xlink:title="The AttributeInput is a description of an attribute effect input.">
<polygon fill="white" stroke="black" points="0,-0.5 0,-19.5 126,-19.5 126,-0.5 0,-0.5"/>
<text text-anchor="middle" x="63" y="-7.5" font-family="Helvetica,sans-Serif" font-size="10.00">ramses::AttributeInput</text>
</a>
</g>
</g>
<!-- Node1&#45;&gt;Node3 -->
<g id="edge2" class="edge">
<title>Node1&#45;&gt;Node3</title>
<path fill="none" stroke="midnightblue" d="M114.41,-50.1C101.63,-40.38 85.39,-28.03 74.61,-19.83"/>
<polygon fill="midnightblue" stroke="midnightblue" points="112.51,-53.06 122.59,-56.32 116.75,-47.48 112.51,-53.06"/>
</g>
<!-- Node4 -->
<g id="node4" class="node">
<title>Node4</title>
<g id="a_node4"><a xlink:href="classramses_1_1UniformInput.html" target="_top" xlink:title="The UniformInput is a description of an uniform effect input.">
<polygon fill="white" stroke="black" points="144.5,-0.5 144.5,-19.5 267.5,-19.5 267.5,-0.5 144.5,-0.5"/>
<text text-anchor="middle" x="206" y="-7.5" font-family="Helvetica,sans-Serif" font-size="10.00">ramses::UniformInput</text>
</a>
</g>
</g>
<!-- Node1&#45;&gt;Node4 -->
<g id="edge3" class="edge">
<title>Node1&#45;&gt;Node4</title>
<path fill="none" stroke="midnightblue" d="M153.87,-50.1C166.82,-40.38 183.3,-28.03 194.22,-19.83"/>
<polygon fill="midnightblue" stroke="midnightblue" points="151.47,-47.52 145.57,-56.32 155.67,-53.12 151.47,-47.52"/>
</g>
<!-- Node2 -->
<g id="node2" class="node">
<title>Node2</title>
<g id="a_node2"><a xlink:href="classramses_1_1StatusObject.html" target="_top" xlink:title="The StatusObject provides status message handling.">
<polygon fill="white" stroke="black" points="73.5,-112.5 73.5,-131.5 194.5,-131.5 194.5,-112.5 73.5,-112.5"/>
<text text-anchor="middle" x="134" y="-119.5" font-family="Helvetica,sans-Serif" font-size="10.00">ramses::StatusObject</text>
</a>
</g>
</g>
<!-- Node2&#45;&gt;Node1 -->
<g id="edge1" class="edge">
<title>Node2&#45;&gt;Node1</title>
<path fill="none" stroke="midnightblue" d="M134,-101.8C134,-92.91 134,-82.78 134,-75.75"/>
<polygon fill="midnightblue" stroke="midnightblue" points="130.5,-102.08 134,-112.08 137.5,-102.08 130.5,-102.08"/>
</g>
</g>
</svg>
