<?xml version="1.0" encoding="UTF-8" standalone="no"?>
<!DOCTYPE svg PUBLIC "-//W3C//DTD SVG 1.1//EN"
 "http://www.w3.org/Graphics/SVG/1.1/DTD/svg11.dtd">
<!-- Generated by graphviz version 2.40.1 (20161225.0304)
 -->
<!-- Title: ramses::SceneObject Pages: 1 -->
<svg width="128pt" height="196pt"
 viewBox="0.00 0.00 128.00 196.00" xmlns="http://www.w3.org/2000/svg" xmlns:xlink="http://www.w3.org/1999/xlink">
<g id="graph0" class="graph" transform="scale(1 1) rotate(0) translate(4 192)">
<title>ramses::SceneObject</title>
<polygon fill="#ffffff" stroke="transparent" points="-4,4 -4,-192 124,-192 124,4 -4,4"/>
<!-- Node73 -->
<g id="node1" class="node">
<title>Node73</title>
<polygon fill="#bfbfbf" stroke="#000000" points="4.5,-.5 4.5,-19.5 115.5,-19.5 115.5,-.5 4.5,-.5"/>
<text text-anchor="middle" x="60" y="-7.5" font-family="Helvetica,sans-Serif" font-size="10.00" fill="#000000">ramses::SceneObject</text>
</g>
<!-- Node74 -->
<g id="node2" class="node">
<title>Node74</title>
<g id="a_node2"><a xlink:href="classramses_1_1ClientObject.html" target="_top" xlink:title="The ClientObject is a base class for all client API objects owned by a RamsesClient. ">
<polygon fill="#ffffff" stroke="#000000" points="5.5,-56.5 5.5,-75.5 114.5,-75.5 114.5,-56.5 5.5,-56.5"/>
<text text-anchor="middle" x="60" y="-63.5" font-family="Helvetica,sans-Serif" font-size="10.00" fill="#000000">ramses::ClientObject</text>
</a>
</g>
</g>
<!-- Node74&#45;&gt;Node73 -->
<g id="edge1" class="edge">
<title>Node74&#45;&gt;Node73</title>
<path fill="none" stroke="#191970" d="M60,-46.1575C60,-37.155 60,-26.9199 60,-19.6427"/>
<polygon fill="#191970" stroke="#191970" points="56.5001,-46.2455 60,-56.2455 63.5001,-46.2456 56.5001,-46.2455"/>
</g>
<!-- Node75 -->
<g id="node3" class="node">
<title>Node75</title>
<g id="a_node3"><a xlink:href="classramses_1_1RamsesObject.html" target="_top" xlink:title="The RamsesObject is a base class for all client API objects owned by the framework. ">
<polygon fill="#ffffff" stroke="#000000" points="0,-112.5 0,-131.5 120,-131.5 120,-112.5 0,-112.5"/>
<text text-anchor="middle" x="60" y="-119.5" font-family="Helvetica,sans-Serif" font-size="10.00" fill="#000000">ramses::RamsesObject</text>
</a>
</g>
</g>
<!-- Node75&#45;&gt;Node74 -->
<g id="edge2" class="edge">
<title>Node75&#45;&gt;Node74</title>
<path fill="none" stroke="#191970" d="M60,-102.1575C60,-93.155 60,-82.9199 60,-75.6427"/>
<polygon fill="#191970" stroke="#191970" points="56.5001,-102.2455 60,-112.2455 63.5001,-102.2456 56.5001,-102.2455"/>
</g>
<!-- Node76 -->
<g id="node4" class="node">
<title>Node76</title>
<g id="a_node4"><a xlink:href="classramses_1_1StatusObject.html" target="_top" xlink:title="The StatusObject provides status message handling. ">
<polygon fill="#ffffff" stroke="#000000" points="4,-168.5 4,-187.5 116,-187.5 116,-168.5 4,-168.5"/>
<text text-anchor="middle" x="60" y="-175.5" font-family="Helvetica,sans-Serif" font-size="10.00" fill="#000000">ramses::StatusObject</text>
</a>
</g>
</g>
<!-- Node76&#45;&gt;Node75 -->
<g id="edge3" class="edge">
<title>Node76&#45;&gt;Node75</title>
<path fill="none" stroke="#191970" d="M60,-158.1575C60,-149.155 60,-138.9199 60,-131.6427"/>
<polygon fill="#191970" stroke="#191970" points="56.5001,-158.2455 60,-168.2455 63.5001,-158.2456 56.5001,-158.2455"/>
</g>
</g>
</svg>
