<?xml version="1.0" encoding="UTF-8" standalone="no"?>
<!DOCTYPE svg PUBLIC "-//W3C//DTD SVG 1.1//EN"
 "http://www.w3.org/Graphics/SVG/1.1/DTD/svg11.dtd">
<!-- Generated by graphviz version 2.43.0 (0)
 -->
<!-- Title: ramses::DcsmContentControlEventHandlerEmpty Pages: 1 -->
<svg width="171pt" height="106pt"
 viewBox="0.00 0.00 171.00 106.00" xmlns="http://www.w3.org/2000/svg" xmlns:xlink="http://www.w3.org/1999/xlink">
<g id="graph0" class="graph" transform="scale(1 1) rotate(0) translate(4 102)">
<title>ramses::DcsmContentControlEventHandlerEmpty</title>
<polygon fill="white" stroke="transparent" points="-4,4 -4,-102 167,-102 167,4 -4,4"/>
<!-- Node1 -->
<g id="node1" class="node">
<title>Node1</title>
<g id="a_node1"><a xlink:title="Convenience empty implementation of IDcsmContentControlEventHandler that can be used to derive from w...">
<polygon fill="#bfbfbf" stroke="black" points="1.5,-0.5 1.5,-30.5 161.5,-30.5 161.5,-0.5 1.5,-0.5"/>
<text text-anchor="start" x="9.5" y="-18.5" font-family="Helvetica,sans-Serif" font-size="10.00">ramses::DcsmContentControl</text>
<text text-anchor="middle" x="81.5" y="-7.5" font-family="Helvetica,sans-Serif" font-size="10.00">EventHandlerEmpty</text>
</a>
</g>
</g>
<!-- Node2 -->
<g id="node2" class="node">
<title>Node2</title>
<g id="a_node2"><a xlink:href="classramses_1_1IDcsmContentControlEventHandler.html" target="_top" xlink:title="Callback handler interface for events emitted by ramses::DcsmContentControl.">
<polygon fill="white" stroke="black" points="0,-67.5 0,-97.5 163,-97.5 163,-67.5 0,-67.5"/>
<text text-anchor="start" x="8" y="-85.5" font-family="Helvetica,sans-Serif" font-size="10.00">ramses::IDcsmContentControl</text>
<text text-anchor="middle" x="81.5" y="-74.5" font-family="Helvetica,sans-Serif" font-size="10.00">EventHandler</text>
</a>
</g>
</g>
<!-- Node2&#45;&gt;Node1 -->
<g id="edge1" class="edge">
<title>Node2&#45;&gt;Node1</title>
<path fill="none" stroke="midnightblue" d="M81.5,-57.11C81.5,-48.15 81.5,-38.32 81.5,-30.58"/>
<polygon fill="midnightblue" stroke="midnightblue" points="78,-57.4 81.5,-67.4 85,-57.4 78,-57.4"/>
</g>
</g>
</svg>
