<?xml version="1.0" encoding="UTF-8" standalone="no"?>
<!DOCTYPE svg PUBLIC "-//W3C//DTD SVG 1.1//EN"
 "http://www.w3.org/Graphics/SVG/1.1/DTD/svg11.dtd">
<!-- Generated by graphviz version 2.43.0 (0)
 -->
<!-- Title: ramses::RendererEventHandlerEmpty Pages: 1 -->
<svg width="268pt" height="151pt"
 viewBox="0.00 0.00 267.50 151.00" xmlns="http://www.w3.org/2000/svg" xmlns:xlink="http://www.w3.org/1999/xlink">
<g id="graph0" class="graph" transform="scale(1 1) rotate(0) translate(4 147)">
<title>ramses::RendererEventHandlerEmpty</title>
<polygon fill="white" stroke="transparent" points="-4,4 -4,-147 263.5,-147 263.5,4 -4,4"/>
<!-- Node1 -->
<g id="node1" class="node">
<title>Node1</title>
<g id="a_node1"><a xlink:title="Convenience empty implementation of IRendererEventHandler that can be used to derive from when only s...">
<polygon fill="#bfbfbf" stroke="black" points="41.5,-56.5 41.5,-86.5 210.5,-86.5 210.5,-56.5 41.5,-56.5"/>
<text text-anchor="start" x="49.5" y="-74.5" font-family="Helvetica,sans-Serif" font-size="10.00">ramses::RendererEventHandler</text>
<text text-anchor="middle" x="126" y="-63.5" font-family="Helvetica,sans-Serif" font-size="10.00">Empty</text>
</a>
</g>
</g>
<!-- Node3 -->
<g id="node3" class="node">
<title>Node3</title>
<g id="a_node3"><a xlink:href="classLocalDCSMExample.html" target="_top" xlink:title=" ">
<polygon fill="white" stroke="black" points="0,-0.5 0,-19.5 114,-19.5 114,-0.5 0,-0.5"/>
<text text-anchor="middle" x="57" y="-7.5" font-family="Helvetica,sans-Serif" font-size="10.00">LocalDCSMExample</text>
</a>
</g>
</g>
<!-- Node1&#45;&gt;Node3 -->
<g id="edge2" class="edge">
<title>Node1&#45;&gt;Node3</title>
<path fill="none" stroke="midnightblue" d="M101.76,-49.6C89.84,-39.32 76.11,-27.48 67.04,-19.66"/>
<polygon fill="midnightblue" stroke="midnightblue" points="99.79,-52.52 109.65,-56.4 104.36,-47.22 99.79,-52.52"/>
</g>
<!-- Node4 -->
<g id="node4" class="node">
<title>Node4</title>
<g id="a_node4"><a xlink:href="classRendererEventHandler.html" target="_top" xlink:title=" ">
<polygon fill="white" stroke="black" points="132.5,-0.5 132.5,-19.5 259.5,-19.5 259.5,-0.5 132.5,-0.5"/>
<text text-anchor="middle" x="196" y="-7.5" font-family="Helvetica,sans-Serif" font-size="10.00">RendererEventHandler</text>
</a>
</g>
</g>
<!-- Node1&#45;&gt;Node4 -->
<g id="edge3" class="edge">
<title>Node1&#45;&gt;Node4</title>
<path fill="none" stroke="midnightblue" d="M150.24,-49.89C162.42,-39.54 176.52,-27.56 185.81,-19.66"/>
<polygon fill="midnightblue" stroke="midnightblue" points="147.94,-47.26 142.59,-56.4 152.48,-52.59 147.94,-47.26"/>
</g>
<!-- Node2 -->
<g id="node2" class="node">
<title>Node2</title>
<g id="a_node2"><a xlink:href="classramses_1_1IRendererEventHandler.html" target="_top" xlink:title="Provides an interface for handling the result of renderer events. Implementation of this interface mu...">
<polygon fill="white" stroke="black" points="40,-123.5 40,-142.5 212,-142.5 212,-123.5 40,-123.5"/>
<text text-anchor="middle" x="126" y="-130.5" font-family="Helvetica,sans-Serif" font-size="10.00">ramses::IRendererEventHandler</text>
</a>
</g>
</g>
<!-- Node2&#45;&gt;Node1 -->
<g id="edge1" class="edge">
<title>Node2&#45;&gt;Node1</title>
<path fill="none" stroke="midnightblue" d="M126,-113.23C126,-104.59 126,-94.5 126,-86.52"/>
<polygon fill="midnightblue" stroke="midnightblue" points="122.5,-113.48 126,-123.48 129.5,-113.48 122.5,-113.48"/>
</g>
</g>
</svg>
