<?xml version="1.0" encoding="UTF-8" standalone="no"?>
<!DOCTYPE svg PUBLIC "-//W3C//DTD SVG 1.1//EN"
 "http://www.w3.org/Graphics/SVG/1.1/DTD/svg11.dtd">
<!-- Generated by graphviz version 2.40.1 (20161225.0304)
 -->
<!-- Title: ramses::AnimationObject Pages: 1 -->
<svg width="1091pt" height="940pt"
 viewBox="0.00 0.00 1091.00 940.00" xmlns="http://www.w3.org/2000/svg" xmlns:xlink="http://www.w3.org/1999/xlink">
<g id="graph0" class="graph" transform="scale(1 1) rotate(0) translate(4 936)">
<title>ramses::AnimationObject</title>
<polygon fill="#ffffff" stroke="transparent" points="-4,4 -4,-936 1087,-936 1087,4 -4,4"/>
<!-- Node0 -->
<g id="node1" class="node">
<title>Node0</title>
<polygon fill="#bfbfbf" stroke="#000000" points="596,-513.5 596,-532.5 723,-532.5 723,-513.5 596,-513.5"/>
<text text-anchor="middle" x="659.5" y="-520.5" font-family="Helvetica,sans-Serif" font-size="10.00" fill="#000000">ramses::AnimationObject</text>
</g>
<!-- Node5 -->
<g id="node6" class="node">
<title>Node5</title>
<g id="a_node6"><a xlink:href="classramses_1_1AnimatedProperty.html" target="_top" xlink:title="The AnimatedProperty holds a reference to data that can be animated. ">
<polygon fill="#ffffff" stroke="#000000" points="763.5,-570.5 763.5,-589.5 896.5,-589.5 896.5,-570.5 763.5,-570.5"/>
<text text-anchor="middle" x="830" y="-577.5" font-family="Helvetica,sans-Serif" font-size="10.00" fill="#000000">ramses::AnimatedProperty</text>
</a>
</g>
</g>
<!-- Node0&#45;&gt;Node5 -->
<g id="edge5" class="edge">
<title>Node0&#45;&gt;Node5</title>
<path fill="none" stroke="#191970" d="M692.0978,-536.4262C711.3795,-544.1217 736.3792,-553.6754 759,-561 769.44,-564.3805 780.8783,-567.6339 791.4659,-570.4642"/>
<polygon fill="#191970" stroke="#191970" points="693.1623,-533.0819 682.5788,-532.593 690.5475,-539.5752 693.1623,-533.0819"/>
</g>
<!-- Node6 -->
<g id="node7" class="node">
<title>Node6</title>
<g id="a_node7"><a xlink:href="classramses_1_1Animation.html" target="_top" xlink:title="The Animation combines spline with one or more AnimatedProperty instances and allows control of the a...">
<polygon fill="#ffffff" stroke="#000000" points="781,-532.5 781,-551.5 879,-551.5 879,-532.5 781,-532.5"/>
<text text-anchor="middle" x="830" y="-539.5" font-family="Helvetica,sans-Serif" font-size="10.00" fill="#000000">ramses::Animation</text>
</a>
</g>
</g>
<!-- Node0&#45;&gt;Node6 -->
<g id="edge6" class="edge">
<title>Node0&#45;&gt;Node6</title>
<path fill="none" stroke="#191970" d="M733.8333,-531.2835C749.7484,-533.057 766.1796,-534.888 780.8586,-536.5238"/>
<polygon fill="#191970" stroke="#191970" points="733.7991,-527.7581 723.473,-530.129 733.0238,-534.715 733.7991,-527.7581"/>
</g>
<!-- Node7 -->
<g id="node8" class="node">
<title>Node7</title>
<g id="a_node8"><a xlink:href="classramses_1_1AnimationSequence.html" target="_top" xlink:title="The AnimationSequence is a container for multiple animations. AnimationSequence has its own virtual t...">
<polygon fill="#ffffff" stroke="#000000" points="759,-494.5 759,-513.5 901,-513.5 901,-494.5 759,-494.5"/>
<text text-anchor="middle" x="830" y="-501.5" font-family="Helvetica,sans-Serif" font-size="10.00" fill="#000000">ramses::AnimationSequence</text>
</a>
</g>
</g>
<!-- Node0&#45;&gt;Node7 -->
<g id="edge7" class="edge">
<title>Node0&#45;&gt;Node7</title>
<path fill="none" stroke="#191970" d="M733.5868,-514.744C741.9559,-513.8114 750.471,-512.8625 758.802,-511.9341"/>
<polygon fill="#191970" stroke="#191970" points="733.0238,-511.285 723.473,-515.871 733.7991,-518.2419 733.0238,-511.285"/>
</g>
<!-- Node8 -->
<g id="node9" class="node">
<title>Node8</title>
<g id="a_node9"><a xlink:href="classramses_1_1Spline.html" target="_top" xlink:title="The Spline is a set of keys describing an animation. ">
<polygon fill="#ffffff" stroke="#000000" points="789,-456.5 789,-475.5 871,-475.5 871,-456.5 789,-456.5"/>
<text text-anchor="middle" x="830" y="-463.5" font-family="Helvetica,sans-Serif" font-size="10.00" fill="#000000">ramses::Spline</text>
</a>
</g>
</g>
<!-- Node0&#45;&gt;Node8 -->
<g id="edge8" class="edge">
<title>Node0&#45;&gt;Node8</title>
<path fill="none" stroke="#191970" d="M692.0978,-509.5738C711.3795,-501.8783 736.3792,-492.3246 759,-485 769.44,-481.6195 780.8783,-478.3661 791.4659,-475.5358"/>
<polygon fill="#191970" stroke="#191970" points="690.5475,-506.4248 682.5788,-513.407 693.1623,-512.9181 690.5475,-506.4248"/>
</g>
<!-- Node1 -->
<g id="node2" class="node">
<title>Node1</title>
<g id="a_node2"><a xlink:href="classramses_1_1SceneObject.html" target="_top" xlink:title="The SceneObject is a base class for all client API objects owned by a Scene. ">
<polygon fill="#ffffff" stroke="#000000" points="449,-513.5 449,-532.5 560,-532.5 560,-513.5 449,-513.5"/>
<text text-anchor="middle" x="504.5" y="-520.5" font-family="Helvetica,sans-Serif" font-size="10.00" fill="#000000">ramses::SceneObject</text>
</a>
</g>
</g>
<!-- Node1&#45;&gt;Node0 -->
<g id="edge1" class="edge">
<title>Node1&#45;&gt;Node0</title>
<path fill="none" stroke="#191970" d="M570.2673,-523C578.7693,-523 587.4641,-523 595.9297,-523"/>
<polygon fill="#191970" stroke="#191970" points="570.0208,-519.5001 560.0208,-523 570.0207,-526.5001 570.0208,-519.5001"/>
</g>
<!-- Node2 -->
<g id="node3" class="node">
<title>Node2</title>
<g id="a_node3"><a xlink:href="classramses_1_1ClientObject.html" target="_top" xlink:title="The ClientObject is a base class for all client API objects owned by a RamsesClient. ">
<polygon fill="#ffffff" stroke="#000000" points="304,-513.5 304,-532.5 413,-532.5 413,-513.5 304,-513.5"/>
<text text-anchor="middle" x="358.5" y="-520.5" font-family="Helvetica,sans-Serif" font-size="10.00" fill="#000000">ramses::ClientObject</text>
</a>
</g>
</g>
<!-- Node2&#45;&gt;Node1 -->
<g id="edge2" class="edge">
<title>Node2&#45;&gt;Node1</title>
<path fill="none" stroke="#191970" d="M423.5191,-523C431.9978,-523 440.6218,-523 448.9262,-523"/>
<polygon fill="#191970" stroke="#191970" points="423.2804,-519.5001 413.2804,-523 423.2804,-526.5001 423.2804,-519.5001"/>
</g>
<!-- Node3 -->
<g id="node4" class="node">
<title>Node3</title>
<g id="a_node4"><a xlink:href="classramses_1_1RamsesObject.html" target="_top" xlink:title="The RamsesObject is a base class for all client API objects owned by the framework. ">
<polygon fill="#ffffff" stroke="#000000" points="148,-513.5 148,-532.5 268,-532.5 268,-513.5 148,-513.5"/>
<text text-anchor="middle" x="208" y="-520.5" font-family="Helvetica,sans-Serif" font-size="10.00" fill="#000000">ramses::RamsesObject</text>
</a>
</g>
</g>
<!-- Node3&#45;&gt;Node2 -->
<g id="edge3" class="edge">
<title>Node3&#45;&gt;Node2</title>
<path fill="none" stroke="#191970" d="M278.3762,-523C286.9761,-523 295.6613,-523 303.9799,-523"/>
<polygon fill="#191970" stroke="#191970" points="278.347,-519.5001 268.3469,-523 278.3469,-526.5001 278.347,-519.5001"/>
</g>
<!-- Node4 -->
<g id="node5" class="node">
<title>Node4</title>
<g id="a_node5"><a xlink:href="classramses_1_1StatusObject.html" target="_top" xlink:title="The StatusObject provides status message handling. ">
<polygon fill="#ffffff" stroke="#000000" points="0,-513.5 0,-532.5 112,-532.5 112,-513.5 0,-513.5"/>
<text text-anchor="middle" x="56" y="-520.5" font-family="Helvetica,sans-Serif" font-size="10.00" fill="#000000">ramses::StatusObject</text>
</a>
</g>
</g>
<!-- Node4&#45;&gt;Node3 -->
<g id="edge4" class="edge">
<title>Node4&#45;&gt;Node3</title>
<path fill="none" stroke="#191970" d="M122.4268,-523C130.9276,-523 139.5908,-523 147.9818,-523"/>
<polygon fill="#191970" stroke="#191970" points="122.1674,-519.5001 112.1673,-523 122.1673,-526.5001 122.1674,-519.5001"/>
</g>
<!-- Node9 -->
<g id="node10" class="node">
<title>Node9</title>
<g id="a_node10"><a xlink:href="classramses_1_1SplineBezierFloat.html" target="_top" xlink:title="The SplineBezierFloat stores spline keys of type float that can be used for animation with Bezier int...">
<polygon fill="#ffffff" stroke="#000000" points="944.5,-912.5 944.5,-931.5 1075.5,-931.5 1075.5,-912.5 944.5,-912.5"/>
<text text-anchor="middle" x="1010" y="-919.5" font-family="Helvetica,sans-Serif" font-size="10.00" fill="#000000">ramses::SplineBezierFloat</text>
</a>
</g>
</g>
<!-- Node8&#45;&gt;Node9 -->
<g id="edge9" class="edge">
<title>Node8&#45;&gt;Node9</title>
<path fill="none" stroke="#191970" d="M880.8043,-471.374C888.5398,-474.331 895.6969,-478.6734 901,-485 960.8919,-556.4514 876.8635,-831.7543 937,-903 940.2099,-906.8028 944.0753,-909.8953 948.3308,-912.4046"/>
<polygon fill="#191970" stroke="#191970" points="881.7546,-468.0046 871.1677,-468.414 879.6992,-474.6961 881.7546,-468.0046"/>
</g>
<!-- Node10 -->
<g id="node11" class="node">
<title>Node10</title>
<g id="a_node11"><a xlink:href="classramses_1_1SplineBezierInt32.html" target="_top" xlink:title="The SplineBezierInt32 stores spline keys of type int32_t that can be used for animation with Bezier i...">
<polygon fill="#ffffff" stroke="#000000" points="944.5,-874.5 944.5,-893.5 1075.5,-893.5 1075.5,-874.5 944.5,-874.5"/>
<text text-anchor="middle" x="1010" y="-881.5" font-family="Helvetica,sans-Serif" font-size="10.00" fill="#000000">ramses::SplineBezierInt32</text>
</a>
</g>
</g>
<!-- Node8&#45;&gt;Node10 -->
<g id="edge10" class="edge">
<title>Node8&#45;&gt;Node10</title>
<path fill="none" stroke="#191970" d="M880.7591,-471.4121C888.4994,-474.365 895.67,-478.6961 901,-485 955.7665,-549.7727 882.0119,-800.4154 937,-865 940.2261,-868.7891 944.1029,-871.8719 948.3661,-874.3747"/>
<polygon fill="#191970" stroke="#191970" points="881.7072,-468.042 871.1204,-468.4538 879.6533,-474.7339 881.7072,-468.042"/>
</g>
<!-- Node11 -->
<g id="node12" class="node">
<title>Node11</title>
<g id="a_node12"><a xlink:href="classramses_1_1SplineBezierVector2f.html" target="_top" xlink:title="The SplineBezierVector2f stores spline keys of type Vector2f that can be used for animation with Bezi...">
<polygon fill="#ffffff" stroke="#000000" points="937,-836.5 937,-855.5 1083,-855.5 1083,-836.5 937,-836.5"/>
<text text-anchor="middle" x="1010" y="-843.5" font-family="Helvetica,sans-Serif" font-size="10.00" fill="#000000">ramses::SplineBezierVector2f</text>
</a>
</g>
</g>
<!-- Node8&#45;&gt;Node11 -->
<g id="edge11" class="edge">
<title>Node8&#45;&gt;Node11</title>
<path fill="none" stroke="#191970" d="M880.7042,-471.4588C888.4505,-474.4066 895.6372,-478.724 901,-485 1000.2893,-601.1966 837.3131,-711.1444 937,-827 940.2458,-830.7722 944.1364,-833.8432 948.409,-836.338"/>
<polygon fill="#191970" stroke="#191970" points="881.6496,-468.0879 871.0629,-468.5026 879.5976,-474.7804 881.6496,-468.0879"/>
</g>
<!-- Node12 -->
<g id="node13" class="node">
<title>Node12</title>
<g id="a_node13"><a xlink:href="classramses_1_1SplineBezierVector2i.html" target="_top" xlink:title="The SplineBezierVector2i stores spline keys of type Vector2i that can be used for animation with Bezi...">
<polygon fill="#ffffff" stroke="#000000" points="937,-798.5 937,-817.5 1083,-817.5 1083,-798.5 937,-798.5"/>
<text text-anchor="middle" x="1010" y="-805.5" font-family="Helvetica,sans-Serif" font-size="10.00" fill="#000000">ramses::SplineBezierVector2i</text>
</a>
</g>
</g>
<!-- Node8&#45;&gt;Node12 -->
<g id="edge12" class="edge">
<title>Node8&#45;&gt;Node12</title>
<path fill="none" stroke="#191970" d="M881.1437,-471.7122C888.7039,-474.6478 895.7146,-478.8954 901,-485 990.0557,-587.8596 847.5923,-686.4462 937,-789 940.3563,-792.8498 944.3842,-795.9675 948.8011,-798.487"/>
<polygon fill="#191970" stroke="#191970" points="881.951,-468.2976 871.3621,-468.6544 879.8623,-474.9787 881.951,-468.2976"/>
</g>
<!-- Node13 -->
<g id="node14" class="node">
<title>Node13</title>
<g id="a_node14"><a xlink:href="classramses_1_1SplineBezierVector3f.html" target="_top" xlink:title="The SplineBezierVector3f stores spline keys of type Vector3f that can be used for animation with Bezi...">
<polygon fill="#ffffff" stroke="#000000" points="937,-760.5 937,-779.5 1083,-779.5 1083,-760.5 937,-760.5"/>
<text text-anchor="middle" x="1010" y="-767.5" font-family="Helvetica,sans-Serif" font-size="10.00" fill="#000000">ramses::SplineBezierVector3f</text>
</a>
</g>
</g>
<!-- Node8&#45;&gt;Node13 -->
<g id="edge13" class="edge">
<title>Node8&#45;&gt;Node13</title>
<path fill="none" stroke="#191970" d="M881.0576,-471.7874C888.6276,-474.7144 895.664,-478.9396 901,-485 979.8366,-574.5393 857.857,-661.7314 937,-751 940.3882,-754.8217 944.4383,-757.9199 948.87,-760.4264"/>
<polygon fill="#191970" stroke="#191970" points="881.8599,-468.3713 871.2713,-468.7337 879.7748,-475.0536 881.8599,-468.3713"/>
</g>
<!-- Node14 -->
<g id="node15" class="node">
<title>Node14</title>
<g id="a_node15"><a xlink:href="classramses_1_1SplineBezierVector3i.html" target="_top" xlink:title="The SplineBezierVector3i stores spline keys of type Vector3i that can be used for animation with Bezi...">
<polygon fill="#ffffff" stroke="#000000" points="937,-722.5 937,-741.5 1083,-741.5 1083,-722.5 937,-722.5"/>
<text text-anchor="middle" x="1010" y="-729.5" font-family="Helvetica,sans-Serif" font-size="10.00" fill="#000000">ramses::SplineBezierVector3i</text>
</a>
</g>
</g>
<!-- Node8&#45;&gt;Node14 -->
<g id="edge14" class="edge">
<title>Node8&#45;&gt;Node14</title>
<path fill="none" stroke="#191970" d="M880.9444,-471.8881C888.5274,-474.8036 895.5974,-478.9989 901,-485 969.6393,-561.2437 868.0999,-636.992 937,-713 940.4302,-716.7841 944.5095,-719.8561 948.9605,-722.3453"/>
<polygon fill="#191970" stroke="#191970" points="881.7402,-468.4703 871.1518,-468.8401 879.6598,-475.154 881.7402,-468.4703"/>
</g>
<!-- Node15 -->
<g id="node16" class="node">
<title>Node15</title>
<g id="a_node16"><a xlink:href="classramses_1_1SplineBezierVector4f.html" target="_top" xlink:title="The SplineBezierVector4f stores spline keys of type Vector4f that can be used for animation with Bezi...">
<polygon fill="#ffffff" stroke="#000000" points="937,-684.5 937,-703.5 1083,-703.5 1083,-684.5 937,-684.5"/>
<text text-anchor="middle" x="1010" y="-691.5" font-family="Helvetica,sans-Serif" font-size="10.00" fill="#000000">ramses::SplineBezierVector4f</text>
</a>
</g>
</g>
<!-- Node8&#45;&gt;Node15 -->
<g id="edge15" class="edge">
<title>Node8&#45;&gt;Node15</title>
<path fill="none" stroke="#191970" d="M881.0423,-472.1272C888.5478,-475.0218 895.5671,-479.1481 901,-485 959.4768,-547.9867 878.3077,-612.2141 937,-675 940.5772,-678.8267 944.8188,-681.9214 949.4297,-684.4195"/>
<polygon fill="#191970" stroke="#191970" points="881.9475,-468.743 871.3581,-469.0822 879.8478,-475.4206 881.9475,-468.743"/>
</g>
<!-- Node16 -->
<g id="node17" class="node">
<title>Node16</title>
<g id="a_node17"><a xlink:href="classramses_1_1SplineBezierVector4i.html" target="_top" xlink:title="The SplineBezierVector4i stores spline keys of type Vector4i that can be used for animation with Bezi...">
<polygon fill="#ffffff" stroke="#000000" points="937,-646.5 937,-665.5 1083,-665.5 1083,-646.5 937,-646.5"/>
<text text-anchor="middle" x="1010" y="-653.5" font-family="Helvetica,sans-Serif" font-size="10.00" fill="#000000">ramses::SplineBezierVector4i</text>
</a>
</g>
</g>
<!-- Node8&#45;&gt;Node16 -->
<g id="edge16" class="edge">
<title>Node8&#45;&gt;Node16</title>
<path fill="none" stroke="#191970" d="M880.8177,-472.3405C888.3496,-475.2101 895.436,-479.2727 901,-485 949.3755,-534.7952 888.4541,-587.3708 937,-637 940.7545,-640.8383 945.1789,-643.9345 949.9622,-646.4279"/>
<polygon fill="#191970" stroke="#191970" points="881.7088,-468.9521 871.12,-469.3084 879.6198,-475.6332 881.7088,-468.9521"/>
</g>
<!-- Node17 -->
<g id="node18" class="node">
<title>Node17</title>
<g id="a_node18"><a xlink:href="classramses_1_1SplineLinearFloat.html" target="_top" xlink:title="The SplineLinearFloat stores spline keys of type float that can be used for animation with linear int...">
<polygon fill="#ffffff" stroke="#000000" points="945,-608.5 945,-627.5 1075,-627.5 1075,-608.5 945,-608.5"/>
<text text-anchor="middle" x="1010" y="-615.5" font-family="Helvetica,sans-Serif" font-size="10.00" fill="#000000">ramses::SplineLinearFloat</text>
</a>
</g>
</g>
<!-- Node8&#45;&gt;Node17 -->
<g id="edge17" class="edge">
<title>Node8&#45;&gt;Node17</title>
<path fill="none" stroke="#191970" d="M880.7197,-472.7921C888.1995,-475.6131 895.2946,-479.5425 901,-485 939.3954,-521.7274 898.4789,-562.4044 937,-599 941.0826,-602.8785 945.8533,-605.9902 950.9657,-608.4831"/>
<polygon fill="#191970" stroke="#191970" points="881.7044,-469.4329 871.1153,-469.7799 879.6096,-476.1121 881.7044,-469.4329"/>
</g>
<!-- Node18 -->
<g id="node19" class="node">
<title>Node18</title>
<g id="a_node19"><a xlink:href="classramses_1_1SplineLinearInt32.html" target="_top" xlink:title="The SplineLinearInt32 stores spline keys of type int32_t that can be used for animation with linear i...">
<polygon fill="#ffffff" stroke="#000000" points="945,-570.5 945,-589.5 1075,-589.5 1075,-570.5 945,-570.5"/>
<text text-anchor="middle" x="1010" y="-577.5" font-family="Helvetica,sans-Serif" font-size="10.00" fill="#000000">ramses::SplineLinearInt32</text>
</a>
</g>
</g>
<!-- Node8&#45;&gt;Node18 -->
<g id="edge18" class="edge">
<title>Node8&#45;&gt;Node18</title>
<path fill="none" stroke="#191970" d="M881.1062,-473.8561C888.2999,-476.5559 895.2052,-480.1689 901,-485 929.7077,-508.9334 908.2105,-537.1651 937,-561 941.6402,-564.8416 946.9698,-567.9161 952.5913,-570.3752"/>
<polygon fill="#191970" stroke="#191970" points="881.7851,-470.3996 871.1949,-470.7117 879.6683,-477.0719 881.7851,-470.3996"/>
</g>
<!-- Node19 -->
<g id="node20" class="node">
<title>Node19</title>
<g id="a_node20"><a xlink:href="classramses_1_1SplineLinearVector2f.html" target="_top" xlink:title="The SplineLinearVector2f stores spline keys of type Vector2f that can be used for animation with line...">
<polygon fill="#ffffff" stroke="#000000" points="937.5,-532.5 937.5,-551.5 1082.5,-551.5 1082.5,-532.5 937.5,-532.5"/>
<text text-anchor="middle" x="1010" y="-539.5" font-family="Helvetica,sans-Serif" font-size="10.00" fill="#000000">ramses::SplineLinearVector2f</text>
</a>
</g>
</g>
<!-- Node8&#45;&gt;Node19 -->
<g id="edge19" class="edge">
<title>Node8&#45;&gt;Node19</title>
<path fill="none" stroke="#191970" d="M880.9114,-475.9293C887.9169,-478.34 894.8188,-481.3204 901,-485 920.9905,-496.9001 916.9688,-511.1684 937,-523 943.54,-526.8629 950.8636,-529.9507 958.2802,-532.4163"/>
<polygon fill="#191970" stroke="#191970" points="881.9396,-472.5838 871.3523,-472.9829 879.8777,-479.2732 881.9396,-472.5838"/>
</g>
<!-- Node20 -->
<g id="node21" class="node">
<title>Node20</title>
<g id="a_node21"><a xlink:href="classramses_1_1SplineLinearVector2i.html" target="_top" xlink:title="The SplineLinearVector2i stores spline keys of type Vector2i that can be used for animation with line...">
<polygon fill="#ffffff" stroke="#000000" points="938,-494.5 938,-513.5 1082,-513.5 1082,-494.5 938,-494.5"/>
<text text-anchor="middle" x="1010" y="-501.5" font-family="Helvetica,sans-Serif" font-size="10.00" fill="#000000">ramses::SplineLinearVector2i</text>
</a>
</g>
</g>
<!-- Node8&#45;&gt;Node20 -->
<g id="edge20" class="edge">
<title>Node8&#45;&gt;Node20</title>
<path fill="none" stroke="#191970" d="M881.1039,-476.7886C907.4645,-482.3536 939.3376,-489.0824 964.7935,-494.4564"/>
<polygon fill="#191970" stroke="#191970" points="881.803,-473.3591 871.2956,-474.718 880.357,-480.2082 881.803,-473.3591"/>
</g>
<!-- Node21 -->
<g id="node22" class="node">
<title>Node21</title>
<g id="a_node22"><a xlink:href="classramses_1_1SplineLinearVector3f.html" target="_top" xlink:title="The SplineLinearVector3f stores spline keys of type Vector3f that can be used for animation with line...">
<polygon fill="#ffffff" stroke="#000000" points="937.5,-456.5 937.5,-475.5 1082.5,-475.5 1082.5,-456.5 937.5,-456.5"/>
<text text-anchor="middle" x="1010" y="-463.5" font-family="Helvetica,sans-Serif" font-size="10.00" fill="#000000">ramses::SplineLinearVector3f</text>
</a>
</g>
</g>
<!-- Node8&#45;&gt;Node21 -->
<g id="edge21" class="edge">
<title>Node8&#45;&gt;Node21</title>
<path fill="none" stroke="#191970" d="M881.772,-466C899.1297,-466 918.8174,-466 937.4649,-466"/>
<polygon fill="#191970" stroke="#191970" points="881.2957,-462.5001 871.2956,-466 881.2956,-469.5001 881.2957,-462.5001"/>
</g>
<!-- Node22 -->
<g id="node23" class="node">
<title>Node22</title>
<g id="a_node23"><a xlink:href="classramses_1_1SplineLinearVector3i.html" target="_top" xlink:title="The SplineLinearVector3i stores spline keys of type Vector3i that can be used for animation with line...">
<polygon fill="#ffffff" stroke="#000000" points="938,-418.5 938,-437.5 1082,-437.5 1082,-418.5 938,-418.5"/>
<text text-anchor="middle" x="1010" y="-425.5" font-family="Helvetica,sans-Serif" font-size="10.00" fill="#000000">ramses::SplineLinearVector3i</text>
</a>
</g>
</g>
<!-- Node8&#45;&gt;Node22 -->
<g id="edge22" class="edge">
<title>Node8&#45;&gt;Node22</title>
<path fill="none" stroke="#191970" d="M881.1039,-455.2114C907.4645,-449.6464 939.3376,-442.9176 964.7935,-437.5436"/>
<polygon fill="#191970" stroke="#191970" points="880.357,-451.7918 871.2956,-457.282 881.803,-458.6409 880.357,-451.7918"/>
</g>
<!-- Node23 -->
<g id="node24" class="node">
<title>Node23</title>
<g id="a_node24"><a xlink:href="classramses_1_1SplineLinearVector4f.html" target="_top" xlink:title="The SplineLinearVector4f stores spline keys of type Vector4f that can be used for animation with line...">
<polygon fill="#ffffff" stroke="#000000" points="937.5,-380.5 937.5,-399.5 1082.5,-399.5 1082.5,-380.5 937.5,-380.5"/>
<text text-anchor="middle" x="1010" y="-387.5" font-family="Helvetica,sans-Serif" font-size="10.00" fill="#000000">ramses::SplineLinearVector4f</text>
</a>
</g>
</g>
<!-- Node8&#45;&gt;Node23 -->
<g id="edge23" class="edge">
<title>Node8&#45;&gt;Node23</title>
<path fill="none" stroke="#191970" d="M854.053,-451.0727C875.2443,-438.443 907.2804,-420.5972 937,-409 946.3939,-405.3343 956.7411,-402.1548 966.6182,-399.5007"/>
<polygon fill="#191970" stroke="#191970" points="852.15,-448.1332 845.4003,-456.2998 855.7695,-454.1248 852.15,-448.1332"/>
</g>
<!-- Node24 -->
<g id="node25" class="node">
<title>Node24</title>
<g id="a_node25"><a xlink:href="classramses_1_1SplineLinearVector4i.html" target="_top" xlink:title="The SplineLinearVector4i stores spline keys of type Vector4i that can be used for animation with line...">
<polygon fill="#ffffff" stroke="#000000" points="938,-342.5 938,-361.5 1082,-361.5 1082,-342.5 938,-342.5"/>
<text text-anchor="middle" x="1010" y="-349.5" font-family="Helvetica,sans-Serif" font-size="10.00" fill="#000000">ramses::SplineLinearVector4i</text>
</a>
</g>
</g>
<!-- Node8&#45;&gt;Node24 -->
<g id="edge24" class="edge">
<title>Node8&#45;&gt;Node24</title>
<path fill="none" stroke="#191970" d="M844.7764,-448.5822C863.9015,-427.1514 899.2745,-391.139 937,-371 944.1627,-367.1763 952.1378,-364.0903 960.1116,-361.6089"/>
<polygon fill="#191970" stroke="#191970" points="841.9983,-446.4422 838.0516,-456.2745 847.2684,-451.0494 841.9983,-446.4422"/>
</g>
<!-- Node25 -->
<g id="node26" class="node">
<title>Node25</title>
<g id="a_node26"><a xlink:href="classramses_1_1SplineStepBool.html" target="_top" xlink:title="The SplineStepBool stores spline keys of type bool that can be used for animation with step interpola...">
<polygon fill="#ffffff" stroke="#000000" points="949,-304.5 949,-323.5 1071,-323.5 1071,-304.5 949,-304.5"/>
<text text-anchor="middle" x="1010" y="-311.5" font-family="Helvetica,sans-Serif" font-size="10.00" fill="#000000">ramses::SplineStepBool</text>
</a>
</g>
</g>
<!-- Node8&#45;&gt;Node25 -->
<g id="edge25" class="edge">
<title>Node8&#45;&gt;Node25</title>
<path fill="none" stroke="#191970" d="M839.9291,-447.0874C856.2044,-417.986 891.3639,-362.5074 937,-333 943.0485,-329.0892 949.8676,-325.9818 956.8469,-323.5131"/>
<polygon fill="#191970" stroke="#191970" points="836.6786,-445.7384 834.9736,-456.1951 842.8274,-449.0839 836.6786,-445.7384"/>
</g>
<!-- Node26 -->
<g id="node27" class="node">
<title>Node26</title>
<g id="a_node27"><a xlink:href="classramses_1_1SplineStepFloat.html" target="_top" xlink:title="The SplineStepFloat stores spline keys of type float that can be used for animation with step interpo...">
<polygon fill="#ffffff" stroke="#000000" points="948,-266.5 948,-285.5 1072,-285.5 1072,-266.5 948,-266.5"/>
<text text-anchor="middle" x="1010" y="-273.5" font-family="Helvetica,sans-Serif" font-size="10.00" fill="#000000">ramses::SplineStepFloat</text>
</a>
</g>
</g>
<!-- Node8&#45;&gt;Node26 -->
<g id="edge26" class="edge">
<title>Node8&#45;&gt;Node26</title>
<path fill="none" stroke="#191970" d="M836.5294,-446.8104C849.6664,-411.1791 882.7586,-334.8104 937,-295 942.2787,-291.1257 948.2802,-288.04 954.5207,-285.5826"/>
<polygon fill="#191970" stroke="#191970" points="833.1455,-445.8803 833.0918,-456.475 839.7407,-448.2262 833.1455,-445.8803"/>
</g>
<!-- Node27 -->
<g id="node28" class="node">
<title>Node27</title>
<g id="a_node28"><a xlink:href="classramses_1_1SplineStepInt32.html" target="_top" xlink:title="The SplineStepInt32 stores spline keys of type int32_t that can be used for animation with step inter...">
<polygon fill="#ffffff" stroke="#000000" points="948,-228.5 948,-247.5 1072,-247.5 1072,-228.5 948,-228.5"/>
<text text-anchor="middle" x="1010" y="-235.5" font-family="Helvetica,sans-Serif" font-size="10.00" fill="#000000">ramses::SplineStepInt32</text>
</a>
</g>
</g>
<!-- Node8&#45;&gt;Node27 -->
<g id="edge27" class="edge">
<title>Node8&#45;&gt;Node27</title>
<path fill="none" stroke="#191970" d="M834.3155,-446.366C844.5074,-404.7728 874.0893,-307.4715 937,-257 941.801,-253.1483 947.2997,-250.0705 953.0781,-247.6122"/>
<polygon fill="#191970" stroke="#191970" points="830.8562,-445.7885 831.9904,-456.3225 837.6728,-447.3804 830.8562,-445.7885"/>
</g>
<!-- Node28 -->
<g id="node29" class="node">
<title>Node28</title>
<g id="a_node29"><a xlink:href="classramses_1_1SplineStepVector2f.html" target="_top" xlink:title="The SplineStepVector2f stores spline keys of type Vector2f that can be used for animation with step i...">
<polygon fill="#ffffff" stroke="#000000" points="940.5,-190.5 940.5,-209.5 1079.5,-209.5 1079.5,-190.5 940.5,-190.5"/>
<text text-anchor="middle" x="1010" y="-197.5" font-family="Helvetica,sans-Serif" font-size="10.00" fill="#000000">ramses::SplineStepVector2f</text>
</a>
</g>
</g>
<!-- Node8&#45;&gt;Node28 -->
<g id="edge28" class="edge">
<title>Node8&#45;&gt;Node28</title>
<path fill="none" stroke="#191970" d="M832.6191,-446.4069C839.9404,-399.61 865.03,-280.6495 937,-219 941.4756,-215.1662 946.6334,-212.0931 952.0952,-209.6318"/>
<polygon fill="#191970" stroke="#191970" points="829.136,-446.0373 831.1542,-456.4381 836.0626,-447.0489 829.136,-446.0373"/>
</g>
<!-- Node29 -->
<g id="node30" class="node">
<title>Node29</title>
<g id="a_node30"><a xlink:href="classramses_1_1SplineStepVector2i.html" target="_top" xlink:title="The SplineStepVector2i stores spline keys of type Vector2i that can be used for animation with step i...">
<polygon fill="#ffffff" stroke="#000000" points="941,-152.5 941,-171.5 1079,-171.5 1079,-152.5 941,-152.5"/>
<text text-anchor="middle" x="1010" y="-159.5" font-family="Helvetica,sans-Serif" font-size="10.00" fill="#000000">ramses::SplineStepVector2i</text>
</a>
</g>
</g>
<!-- Node8&#45;&gt;Node29 -->
<g id="edge29" class="edge">
<title>Node8&#45;&gt;Node29</title>
<path fill="none" stroke="#191970" d="M831.3655,-446.2638C836.0372,-394.5359 855.9444,-253.9967 937,-181 941.2818,-177.1439 946.2482,-174.0521 951.5374,-171.5758"/>
<polygon fill="#191970" stroke="#191970" points="827.8627,-446.1597 830.5472,-456.4088 834.84,-446.7226 827.8627,-446.1597"/>
</g>
<!-- Node30 -->
<g id="node31" class="node">
<title>Node30</title>
<g id="a_node31"><a xlink:href="classramses_1_1SplineStepVector3f.html" target="_top" xlink:title="The SplineStepVector3f stores spline keys of type Vector3f that can be used for animation with step i...">
<polygon fill="#ffffff" stroke="#000000" points="940.5,-114.5 940.5,-133.5 1079.5,-133.5 1079.5,-114.5 940.5,-114.5"/>
<text text-anchor="middle" x="1010" y="-121.5" font-family="Helvetica,sans-Serif" font-size="10.00" fill="#000000">ramses::SplineStepVector3f</text>
</a>
</g>
</g>
<!-- Node8&#45;&gt;Node30 -->
<g id="edge30" class="edge">
<title>Node8&#45;&gt;Node30</title>
<path fill="none" stroke="#191970" d="M833.944,-446.3865C847.0347,-383.151 890.8397,-186.2417 937,-143 941.1097,-139.1502 945.8983,-136.0576 951.0219,-133.5765"/>
<polygon fill="#191970" stroke="#191970" points="830.4977,-445.7706 831.9244,-456.2689 837.3559,-447.1723 830.4977,-445.7706"/>
</g>
<!-- Node31 -->
<g id="node32" class="node">
<title>Node31</title>
<g id="a_node32"><a xlink:href="classramses_1_1SplineStepVector3i.html" target="_top" xlink:title="The SplineStepVector3i stores spline keys of type Vector3i that can be used for animation with step i...">
<polygon fill="#ffffff" stroke="#000000" points="941,-76.5 941,-95.5 1079,-95.5 1079,-76.5 941,-76.5"/>
<text text-anchor="middle" x="1010" y="-83.5" font-family="Helvetica,sans-Serif" font-size="10.00" fill="#000000">ramses::SplineStepVector3i</text>
</a>
</g>
</g>
<!-- Node8&#45;&gt;Node31 -->
<g id="edge31" class="edge">
<title>Node8&#45;&gt;Node31</title>
<path fill="none" stroke="#191970" d="M833.3029,-445.912C844.9643,-377.3455 886.2489,-154.0776 937,-105 940.9539,-101.1765 945.5754,-98.0961 950.5389,-95.618"/>
<polygon fill="#191970" stroke="#191970" points="829.7806,-445.7542 831.5803,-456.195 836.6844,-446.9107 829.7806,-445.7542"/>
</g>
<!-- Node32 -->
<g id="node33" class="node">
<title>Node32</title>
<g id="a_node33"><a xlink:href="classramses_1_1SplineStepVector4f.html" target="_top" xlink:title="The SplineStepVector4f stores spline keys of type Vector4f that can be used for animation with step i...">
<polygon fill="#ffffff" stroke="#000000" points="940.5,-38.5 940.5,-57.5 1079.5,-57.5 1079.5,-38.5 940.5,-38.5"/>
<text text-anchor="middle" x="1010" y="-45.5" font-family="Helvetica,sans-Serif" font-size="10.00" fill="#000000">ramses::SplineStepVector4f</text>
</a>
</g>
</g>
<!-- Node8&#45;&gt;Node32 -->
<g id="edge32" class="edge">
<title>Node8&#45;&gt;Node32</title>
<path fill="none" stroke="#191970" d="M832.6607,-446.1974C842.824,-373.4248 881.4381,-122.1532 937,-67 940.9036,-63.1251 945.4912,-60.0103 950.4334,-57.5103"/>
<polygon fill="#191970" stroke="#191970" points="829.1682,-445.9039 831.2756,-456.287 836.1032,-446.856 829.1682,-445.9039"/>
</g>
<!-- Node33 -->
<g id="node34" class="node">
<title>Node33</title>
<g id="a_node34"><a xlink:href="classramses_1_1SplineStepVector4i.html" target="_top" xlink:title="The SplineStepVector4i stores spline keys of type Vector4i that can be used for animation with step i...">
<polygon fill="#ffffff" stroke="#000000" points="941,-.5 941,-19.5 1079,-19.5 1079,-.5 941,-.5"/>
<text text-anchor="middle" x="1010" y="-7.5" font-family="Helvetica,sans-Serif" font-size="10.00" fill="#000000">ramses::SplineStepVector4i</text>
</a>
</g>
</g>
<!-- Node8&#45;&gt;Node33 -->
<g id="edge33" class="edge">
<title>Node8&#45;&gt;Node33</title>
<path fill="none" stroke="#191970" d="M832.2085,-445.8404C841.1055,-368.2388 876.7639,-90.1158 937,-29 940.769,-25.1759 945.2033,-22.0894 949.9929,-19.6022"/>
<polygon fill="#191970" stroke="#191970" points="828.6887,-445.8213 831.0502,-456.1496 835.6449,-446.603 828.6887,-445.8213"/>
</g>
</g>
</svg>
