<?xml version="1.0" encoding="UTF-8" standalone="no"?>
<!DOCTYPE svg PUBLIC "-//W3C//DTD SVG 1.1//EN"
 "http://www.w3.org/Graphics/SVG/1.1/DTD/svg11.dtd">
<!-- Generated by graphviz version 2.40.1 (20161225.0304)
 -->
<!-- Title: ramses::DataVector4f Pages: 1 -->
<svg width="128pt" height="308pt"
 viewBox="0.00 0.00 128.00 308.00" xmlns="http://www.w3.org/2000/svg" xmlns:xlink="http://www.w3.org/1999/xlink">
<g id="graph0" class="graph" transform="scale(1 1) rotate(0) translate(4 304)">
<title>ramses::DataVector4f</title>
<polygon fill="#ffffff" stroke="transparent" points="-4,4 -4,-304 124,-304 124,4 -4,4"/>
<!-- Node6 -->
<g id="node1" class="node">
<title>Node6</title>
<polygon fill="#bfbfbf" stroke="#000000" points="3.5,-.5 3.5,-19.5 116.5,-19.5 116.5,-.5 3.5,-.5"/>
<text text-anchor="middle" x="60" y="-7.5" font-family="Helvetica,sans-Serif" font-size="10.00" fill="#000000">ramses::DataVector4f</text>
</g>
<!-- Node7 -->
<g id="node2" class="node">
<title>Node7</title>
<g id="a_node2"><a xlink:href="classramses_1_1DataObject.html" target="_top" xlink:title="The DataObject is a base class for data container for storing data in a scene. ">
<polygon fill="#ffffff" stroke="#000000" points="8,-56.5 8,-75.5 112,-75.5 112,-56.5 8,-56.5"/>
<text text-anchor="middle" x="60" y="-63.5" font-family="Helvetica,sans-Serif" font-size="10.00" fill="#000000">ramses::DataObject</text>
</a>
</g>
</g>
<!-- Node7&#45;&gt;Node6 -->
<g id="edge1" class="edge">
<title>Node7&#45;&gt;Node6</title>
<path fill="none" stroke="#191970" d="M60,-46.1575C60,-37.155 60,-26.9199 60,-19.6427"/>
<polygon fill="#191970" stroke="#191970" points="56.5001,-46.2455 60,-56.2455 63.5001,-46.2456 56.5001,-46.2455"/>
</g>
<!-- Node8 -->
<g id="node3" class="node">
<title>Node8</title>
<g id="a_node3"><a xlink:href="classramses_1_1SceneObject.html" target="_top" xlink:title="The SceneObject is a base class for all client API objects owned by a Scene. ">
<polygon fill="#ffffff" stroke="#000000" points="4.5,-112.5 4.5,-131.5 115.5,-131.5 115.5,-112.5 4.5,-112.5"/>
<text text-anchor="middle" x="60" y="-119.5" font-family="Helvetica,sans-Serif" font-size="10.00" fill="#000000">ramses::SceneObject</text>
</a>
</g>
</g>
<!-- Node8&#45;&gt;Node7 -->
<g id="edge2" class="edge">
<title>Node8&#45;&gt;Node7</title>
<path fill="none" stroke="#191970" d="M60,-102.1575C60,-93.155 60,-82.9199 60,-75.6427"/>
<polygon fill="#191970" stroke="#191970" points="56.5001,-102.2455 60,-112.2455 63.5001,-102.2456 56.5001,-102.2455"/>
</g>
<!-- Node9 -->
<g id="node4" class="node">
<title>Node9</title>
<g id="a_node4"><a xlink:href="classramses_1_1ClientObject.html" target="_top" xlink:title="The ClientObject is a base class for all client API objects owned by a RamsesClient. ">
<polygon fill="#ffffff" stroke="#000000" points="5.5,-168.5 5.5,-187.5 114.5,-187.5 114.5,-168.5 5.5,-168.5"/>
<text text-anchor="middle" x="60" y="-175.5" font-family="Helvetica,sans-Serif" font-size="10.00" fill="#000000">ramses::ClientObject</text>
</a>
</g>
</g>
<!-- Node9&#45;&gt;Node8 -->
<g id="edge3" class="edge">
<title>Node9&#45;&gt;Node8</title>
<path fill="none" stroke="#191970" d="M60,-158.1575C60,-149.155 60,-138.9199 60,-131.6427"/>
<polygon fill="#191970" stroke="#191970" points="56.5001,-158.2455 60,-168.2455 63.5001,-158.2456 56.5001,-158.2455"/>
</g>
<!-- Node10 -->
<g id="node5" class="node">
<title>Node10</title>
<g id="a_node5"><a xlink:href="classramses_1_1RamsesObject.html" target="_top" xlink:title="The RamsesObject is a base class for all client API objects owned by the framework. ">
<polygon fill="#ffffff" stroke="#000000" points="0,-224.5 0,-243.5 120,-243.5 120,-224.5 0,-224.5"/>
<text text-anchor="middle" x="60" y="-231.5" font-family="Helvetica,sans-Serif" font-size="10.00" fill="#000000">ramses::RamsesObject</text>
</a>
</g>
</g>
<!-- Node10&#45;&gt;Node9 -->
<g id="edge4" class="edge">
<title>Node10&#45;&gt;Node9</title>
<path fill="none" stroke="#191970" d="M60,-214.1575C60,-205.155 60,-194.9199 60,-187.6427"/>
<polygon fill="#191970" stroke="#191970" points="56.5001,-214.2455 60,-224.2455 63.5001,-214.2456 56.5001,-214.2455"/>
</g>
<!-- Node11 -->
<g id="node6" class="node">
<title>Node11</title>
<g id="a_node6"><a xlink:href="classramses_1_1StatusObject.html" target="_top" xlink:title="The StatusObject provides status message handling. ">
<polygon fill="#ffffff" stroke="#000000" points="4,-280.5 4,-299.5 116,-299.5 116,-280.5 4,-280.5"/>
<text text-anchor="middle" x="60" y="-287.5" font-family="Helvetica,sans-Serif" font-size="10.00" fill="#000000">ramses::StatusObject</text>
</a>
</g>
</g>
<!-- Node11&#45;&gt;Node10 -->
<g id="edge5" class="edge">
<title>Node11&#45;&gt;Node10</title>
<path fill="none" stroke="#191970" d="M60,-270.1575C60,-261.155 60,-250.9199 60,-243.6427"/>
<polygon fill="#191970" stroke="#191970" points="56.5001,-270.2455 60,-280.2455 63.5001,-270.2456 56.5001,-270.2455"/>
</g>
</g>
</svg>
