<?xml version="1.0" encoding="UTF-8" standalone="no"?>
<!DOCTYPE svg PUBLIC "-//W3C//DTD SVG 1.1//EN"
 "http://www.w3.org/Graphics/SVG/1.1/DTD/svg11.dtd">
<!-- Generated by graphviz version 2.43.0 (0)
 -->
<!-- Title: RendererEventHandler Pages: 1 -->
<svg width="180pt" height="151pt"
 viewBox="0.00 0.00 180.00 151.00" xmlns="http://www.w3.org/2000/svg" xmlns:xlink="http://www.w3.org/1999/xlink">
<g id="graph0" class="graph" transform="scale(1 1) rotate(0) translate(4 147)">
<title>RendererEventHandler</title>
<polygon fill="white" stroke="transparent" points="-4,4 -4,-147 176,-147 176,4 -4,4"/>
<!-- Node1 -->
<g id="node1" class="node">
<title>Node1</title>
<g id="a_node1"><a xlink:title=" ">
<polygon fill="#bfbfbf" stroke="black" points="22.5,-0.5 22.5,-19.5 149.5,-19.5 149.5,-0.5 22.5,-0.5"/>
<text text-anchor="middle" x="86" y="-7.5" font-family="Helvetica,sans-Serif" font-size="10.00">RendererEventHandler</text>
</a>
</g>
</g>
<!-- Node2 -->
<g id="node2" class="node">
<title>Node2</title>
<g id="a_node2"><a xlink:href="classramses_1_1RendererEventHandlerEmpty.html" target="_top" xlink:title="Convenience empty implementation of IRendererEventHandler that can be used to derive from when only s...">
<polygon fill="white" stroke="black" points="1.5,-56.5 1.5,-86.5 170.5,-86.5 170.5,-56.5 1.5,-56.5"/>
<text text-anchor="start" x="9.5" y="-74.5" font-family="Helvetica,sans-Serif" font-size="10.00">ramses::RendererEventHandler</text>
<text text-anchor="middle" x="86" y="-63.5" font-family="Helvetica,sans-Serif" font-size="10.00">Empty</text>
</a>
</g>
</g>
<!-- Node2&#45;&gt;Node1 -->
<g id="edge1" class="edge">
<title>Node2&#45;&gt;Node1</title>
<path fill="none" stroke="midnightblue" d="M52.9,-46.9C50.85,-37.3 53.66,-26.81 61.35,-19.66"/>
<polygon fill="midnightblue" stroke="midnightblue" points="49.76,-48.48 56.8,-56.4 56.24,-45.82 49.76,-48.48"/>
</g>
<!-- Node2&#45;&gt;Node1 -->
<g id="edge3" class="edge">
<title>Node2&#45;&gt;Node1</title>
<path fill="none" stroke="midnightblue" d="M66.1,-46.59C64.94,-37.08 66.65,-26.73 71.21,-19.66"/>
<polygon fill="midnightblue" stroke="midnightblue" points="62.72,-47.51 68.48,-56.4 69.52,-45.86 62.72,-47.51"/>
</g>
<!-- Node2&#45;&gt;Node1 -->
<g id="edge4" class="edge">
<title>Node2&#45;&gt;Node1</title>
<path fill="none" stroke="midnightblue" d="M79.36,-46.29C78.99,-36.86 79.57,-26.65 81.07,-19.66"/>
<polygon fill="midnightblue" stroke="midnightblue" points="75.88,-46.71 80.16,-56.4 82.86,-46.15 75.88,-46.71"/>
</g>
<!-- Node2&#45;&gt;Node1 -->
<g id="edge5" class="edge">
<title>Node2&#45;&gt;Node1</title>
<path fill="none" stroke="midnightblue" d="M92.64,-46.29C93.01,-36.86 92.43,-26.65 90.93,-19.66"/>
<polygon fill="midnightblue" stroke="midnightblue" points="89.14,-46.15 91.84,-56.4 96.12,-46.71 89.14,-46.15"/>
</g>
<!-- Node2&#45;&gt;Node1 -->
<g id="edge6" class="edge">
<title>Node2&#45;&gt;Node1</title>
<path fill="none" stroke="midnightblue" d="M105.9,-46.59C107.06,-37.08 105.35,-26.73 100.79,-19.66"/>
<polygon fill="midnightblue" stroke="midnightblue" points="102.48,-45.86 103.52,-56.4 109.28,-47.51 102.48,-45.86"/>
</g>
<!-- Node2&#45;&gt;Node1 -->
<g id="edge7" class="edge">
<title>Node2&#45;&gt;Node1</title>
<path fill="none" stroke="midnightblue" d="M119.1,-46.9C121.15,-37.3 118.34,-26.81 110.65,-19.66"/>
<polygon fill="midnightblue" stroke="midnightblue" points="115.76,-45.82 115.2,-56.4 122.24,-48.48 115.76,-45.82"/>
</g>
<!-- Node3 -->
<g id="node3" class="node">
<title>Node3</title>
<g id="a_node3"><a xlink:href="classramses_1_1IRendererEventHandler.html" target="_top" xlink:title="Provides an interface for handling the result of renderer events. Implementation of this interface mu...">
<polygon fill="white" stroke="black" points="0,-123.5 0,-142.5 172,-142.5 172,-123.5 0,-123.5"/>
<text text-anchor="middle" x="86" y="-130.5" font-family="Helvetica,sans-Serif" font-size="10.00">ramses::IRendererEventHandler</text>
</a>
</g>
</g>
<!-- Node3&#45;&gt;Node2 -->
<g id="edge2" class="edge">
<title>Node3&#45;&gt;Node2</title>
<path fill="none" stroke="midnightblue" d="M86,-113.23C86,-104.59 86,-94.5 86,-86.52"/>
<polygon fill="midnightblue" stroke="midnightblue" points="82.5,-113.48 86,-123.48 89.5,-113.48 82.5,-113.48"/>
</g>
</g>
</svg>
