<?xml version="1.0" encoding="UTF-8" standalone="no"?>
<!DOCTYPE svg PUBLIC "-//W3C//DTD SVG 1.1//EN"
 "http://www.w3.org/Graphics/SVG/1.1/DTD/svg11.dtd">
<!-- Generated by graphviz version 2.43.0 (0)
 -->
<!-- Title: ramses::AnimationSystemRealTime Pages: 1 -->
<svg width="200pt" height="308pt"
 viewBox="0.00 0.00 200.00 308.00" xmlns="http://www.w3.org/2000/svg" xmlns:xlink="http://www.w3.org/1999/xlink">
<g id="graph0" class="graph" transform="scale(1 1) rotate(0) translate(4 304)">
<title>ramses::AnimationSystemRealTime</title>
<polygon fill="white" stroke="transparent" points="-4,4 -4,-304 196,-304 196,4 -4,4"/>
<!-- Node1 -->
<g id="node1" class="node">
<title>Node1</title>
<g id="a_node1"><a xlink:title="The AnimationSystemRealTime is a special version of AnimationSystem that is designed to use system ti...">
<polygon fill="#bfbfbf" stroke="black" points="0,-0.5 0,-19.5 192,-19.5 192,-0.5 0,-0.5"/>
<text text-anchor="middle" x="96" y="-7.5" font-family="Helvetica,sans-Serif" font-size="10.00">ramses::AnimationSystemRealTime</text>
</a>
</g>
</g>
<!-- Node2 -->
<g id="node2" class="node">
<title>Node2</title>
<g id="a_node2"><a xlink:href="classramses_1_1AnimationSystem.html" target="_top" xlink:title="The AnimationSystem holds all animation related data.">
<polygon fill="white" stroke="black" points="23,-56.5 23,-75.5 169,-75.5 169,-56.5 23,-56.5"/>
<text text-anchor="middle" x="96" y="-63.5" font-family="Helvetica,sans-Serif" font-size="10.00">ramses::AnimationSystem</text>
</a>
</g>
</g>
<!-- Node2&#45;&gt;Node1 -->
<g id="edge1" class="edge">
<title>Node2&#45;&gt;Node1</title>
<path fill="none" stroke="midnightblue" d="M96,-45.8C96,-36.91 96,-26.78 96,-19.75"/>
<polygon fill="midnightblue" stroke="midnightblue" points="92.5,-46.08 96,-56.08 99.5,-46.08 92.5,-46.08"/>
</g>
<!-- Node3 -->
<g id="node3" class="node">
<title>Node3</title>
<g id="a_node3"><a xlink:href="classramses_1_1SceneObject.html" target="_top" xlink:title="The SceneObject is a base class for all client API objects owned by a Scene.">
<polygon fill="white" stroke="black" points="36.5,-112.5 36.5,-131.5 155.5,-131.5 155.5,-112.5 36.5,-112.5"/>
<text text-anchor="middle" x="96" y="-119.5" font-family="Helvetica,sans-Serif" font-size="10.00">ramses::SceneObject</text>
</a>
</g>
</g>
<!-- Node3&#45;&gt;Node2 -->
<g id="edge2" class="edge">
<title>Node3&#45;&gt;Node2</title>
<path fill="none" stroke="midnightblue" d="M96,-101.8C96,-92.91 96,-82.78 96,-75.75"/>
<polygon fill="midnightblue" stroke="midnightblue" points="92.5,-102.08 96,-112.08 99.5,-102.08 92.5,-102.08"/>
</g>
<!-- Node4 -->
<g id="node4" class="node">
<title>Node4</title>
<g id="a_node4"><a xlink:href="classramses_1_1ClientObject.html" target="_top" xlink:title="The ClientObject is a base class for all client API objects owned by a RamsesClient.">
<polygon fill="white" stroke="black" points="36.5,-168.5 36.5,-187.5 155.5,-187.5 155.5,-168.5 36.5,-168.5"/>
<text text-anchor="middle" x="96" y="-175.5" font-family="Helvetica,sans-Serif" font-size="10.00">ramses::ClientObject</text>
</a>
</g>
</g>
<!-- Node4&#45;&gt;Node3 -->
<g id="edge3" class="edge">
<title>Node4&#45;&gt;Node3</title>
<path fill="none" stroke="midnightblue" d="M96,-157.8C96,-148.91 96,-138.78 96,-131.75"/>
<polygon fill="midnightblue" stroke="midnightblue" points="92.5,-158.08 96,-168.08 99.5,-158.08 92.5,-158.08"/>
</g>
<!-- Node5 -->
<g id="node5" class="node">
<title>Node5</title>
<g id="a_node5"><a xlink:href="classramses_1_1RamsesObject.html" target="_top" xlink:title="The RamsesObject is a base class for all client API objects owned by the framework.">
<polygon fill="white" stroke="black" points="31.5,-224.5 31.5,-243.5 160.5,-243.5 160.5,-224.5 31.5,-224.5"/>
<text text-anchor="middle" x="96" y="-231.5" font-family="Helvetica,sans-Serif" font-size="10.00">ramses::RamsesObject</text>
</a>
</g>
</g>
<!-- Node5&#45;&gt;Node4 -->
<g id="edge4" class="edge">
<title>Node5&#45;&gt;Node4</title>
<path fill="none" stroke="midnightblue" d="M96,-213.8C96,-204.91 96,-194.78 96,-187.75"/>
<polygon fill="midnightblue" stroke="midnightblue" points="92.5,-214.08 96,-224.08 99.5,-214.08 92.5,-214.08"/>
</g>
<!-- Node6 -->
<g id="node6" class="node">
<title>Node6</title>
<g id="a_node6"><a xlink:href="classramses_1_1StatusObject.html" target="_top" xlink:title="The StatusObject provides status message handling.">
<polygon fill="white" stroke="black" points="35.5,-280.5 35.5,-299.5 156.5,-299.5 156.5,-280.5 35.5,-280.5"/>
<text text-anchor="middle" x="96" y="-287.5" font-family="Helvetica,sans-Serif" font-size="10.00">ramses::StatusObject</text>
</a>
</g>
</g>
<!-- Node6&#45;&gt;Node5 -->
<g id="edge5" class="edge">
<title>Node6&#45;&gt;Node5</title>
<path fill="none" stroke="midnightblue" d="M96,-269.8C96,-260.91 96,-250.78 96,-243.75"/>
<polygon fill="midnightblue" stroke="midnightblue" points="92.5,-270.08 96,-280.08 99.5,-270.08 92.5,-270.08"/>
</g>
</g>
</svg>
