<?xml version="1.0" encoding="UTF-8" standalone="no"?>
<!DOCTYPE svg PUBLIC "-//W3C//DTD SVG 1.1//EN"
 "http://www.w3.org/Graphics/SVG/1.1/DTD/svg11.dtd">
<!-- Generated by graphviz version 2.40.1 (20161225.0304)
 -->
<!-- Title: ramses::Spline Pages: 1 -->
<svg width="135pt" height="308pt"
 viewBox="0.00 0.00 135.00 308.00" xmlns="http://www.w3.org/2000/svg" xmlns:xlink="http://www.w3.org/1999/xlink">
<g id="graph0" class="graph" transform="scale(1 1) rotate(0) translate(4 304)">
<title>ramses::Spline</title>
<polygon fill="#ffffff" stroke="transparent" points="-4,4 -4,-304 131,-304 131,4 -4,4"/>
<!-- Node31 -->
<g id="node1" class="node">
<title>Node31</title>
<polygon fill="#bfbfbf" stroke="#000000" points="22.5,-.5 22.5,-19.5 104.5,-19.5 104.5,-.5 22.5,-.5"/>
<text text-anchor="middle" x="63.5" y="-7.5" font-family="Helvetica,sans-Serif" font-size="10.00" fill="#000000">ramses::Spline</text>
</g>
<!-- Node32 -->
<g id="node2" class="node">
<title>Node32</title>
<g id="a_node2"><a xlink:href="classramses_1_1AnimationObject.html" target="_top" xlink:title="The AnimationObject is a base class for all client API objects owned by an AnimationSystem. ">
<polygon fill="#ffffff" stroke="#000000" points="0,-56.5 0,-75.5 127,-75.5 127,-56.5 0,-56.5"/>
<text text-anchor="middle" x="63.5" y="-63.5" font-family="Helvetica,sans-Serif" font-size="10.00" fill="#000000">ramses::AnimationObject</text>
</a>
</g>
</g>
<!-- Node32&#45;&gt;Node31 -->
<g id="edge1" class="edge">
<title>Node32&#45;&gt;Node31</title>
<path fill="none" stroke="#191970" d="M63.5,-46.1575C63.5,-37.155 63.5,-26.9199 63.5,-19.6427"/>
<polygon fill="#191970" stroke="#191970" points="60.0001,-46.2455 63.5,-56.2455 67.0001,-46.2456 60.0001,-46.2455"/>
</g>
<!-- Node33 -->
<g id="node3" class="node">
<title>Node33</title>
<g id="a_node3"><a xlink:href="classramses_1_1SceneObject.html" target="_top" xlink:title="The SceneObject is a base class for all client API objects owned by a Scene. ">
<polygon fill="#ffffff" stroke="#000000" points="8,-112.5 8,-131.5 119,-131.5 119,-112.5 8,-112.5"/>
<text text-anchor="middle" x="63.5" y="-119.5" font-family="Helvetica,sans-Serif" font-size="10.00" fill="#000000">ramses::SceneObject</text>
</a>
</g>
</g>
<!-- Node33&#45;&gt;Node32 -->
<g id="edge2" class="edge">
<title>Node33&#45;&gt;Node32</title>
<path fill="none" stroke="#191970" d="M63.5,-102.1575C63.5,-93.155 63.5,-82.9199 63.5,-75.6427"/>
<polygon fill="#191970" stroke="#191970" points="60.0001,-102.2455 63.5,-112.2455 67.0001,-102.2456 60.0001,-102.2455"/>
</g>
<!-- Node34 -->
<g id="node4" class="node">
<title>Node34</title>
<g id="a_node4"><a xlink:href="classramses_1_1ClientObject.html" target="_top" xlink:title="The ClientObject is a base class for all client API objects owned by a RamsesClient. ">
<polygon fill="#ffffff" stroke="#000000" points="9,-168.5 9,-187.5 118,-187.5 118,-168.5 9,-168.5"/>
<text text-anchor="middle" x="63.5" y="-175.5" font-family="Helvetica,sans-Serif" font-size="10.00" fill="#000000">ramses::ClientObject</text>
</a>
</g>
</g>
<!-- Node34&#45;&gt;Node33 -->
<g id="edge3" class="edge">
<title>Node34&#45;&gt;Node33</title>
<path fill="none" stroke="#191970" d="M63.5,-158.1575C63.5,-149.155 63.5,-138.9199 63.5,-131.6427"/>
<polygon fill="#191970" stroke="#191970" points="60.0001,-158.2455 63.5,-168.2455 67.0001,-158.2456 60.0001,-158.2455"/>
</g>
<!-- Node35 -->
<g id="node5" class="node">
<title>Node35</title>
<g id="a_node5"><a xlink:href="classramses_1_1RamsesObject.html" target="_top" xlink:title="The RamsesObject is a base class for all client API objects owned by the framework. ">
<polygon fill="#ffffff" stroke="#000000" points="3.5,-224.5 3.5,-243.5 123.5,-243.5 123.5,-224.5 3.5,-224.5"/>
<text text-anchor="middle" x="63.5" y="-231.5" font-family="Helvetica,sans-Serif" font-size="10.00" fill="#000000">ramses::RamsesObject</text>
</a>
</g>
</g>
<!-- Node35&#45;&gt;Node34 -->
<g id="edge4" class="edge">
<title>Node35&#45;&gt;Node34</title>
<path fill="none" stroke="#191970" d="M63.5,-214.1575C63.5,-205.155 63.5,-194.9199 63.5,-187.6427"/>
<polygon fill="#191970" stroke="#191970" points="60.0001,-214.2455 63.5,-224.2455 67.0001,-214.2456 60.0001,-214.2455"/>
</g>
<!-- Node36 -->
<g id="node6" class="node">
<title>Node36</title>
<g id="a_node6"><a xlink:href="classramses_1_1StatusObject.html" target="_top" xlink:title="The StatusObject provides status message handling. ">
<polygon fill="#ffffff" stroke="#000000" points="7.5,-280.5 7.5,-299.5 119.5,-299.5 119.5,-280.5 7.5,-280.5"/>
<text text-anchor="middle" x="63.5" y="-287.5" font-family="Helvetica,sans-Serif" font-size="10.00" fill="#000000">ramses::StatusObject</text>
</a>
</g>
</g>
<!-- Node36&#45;&gt;Node35 -->
<g id="edge5" class="edge">
<title>Node36&#45;&gt;Node35</title>
<path fill="none" stroke="#191970" d="M63.5,-270.1575C63.5,-261.155 63.5,-250.9199 63.5,-243.6427"/>
<polygon fill="#191970" stroke="#191970" points="60.0001,-270.2455 63.5,-280.2455 67.0001,-270.2456 60.0001,-270.2455"/>
</g>
</g>
</svg>
