<?xml version="1.0" encoding="UTF-8" standalone="no"?>
<!DOCTYPE svg PUBLIC "-//W3C//DTD SVG 1.1//EN"
 "http://www.w3.org/Graphics/SVG/1.1/DTD/svg11.dtd">
<!-- Generated by graphviz version 2.40.1 (20161225.0304)
 -->
<!-- Title: ramses::Resource Pages: 1 -->
<svg width="857pt" height="180pt"
 viewBox="0.00 0.00 857.00 180.00" xmlns="http://www.w3.org/2000/svg" xmlns:xlink="http://www.w3.org/1999/xlink">
<g id="graph0" class="graph" transform="scale(1 1) rotate(0) translate(4 176)">
<title>ramses::Resource</title>
<polygon fill="#ffffff" stroke="transparent" points="-4,4 -4,-176 853,-176 853,4 -4,4"/>
<!-- Node0 -->
<g id="node1" class="node">
<title>Node0</title>
<polygon fill="#bfbfbf" stroke="#000000" points="596,-76.5 596,-95.5 693,-95.5 693,-76.5 596,-76.5"/>
<text text-anchor="middle" x="644.5" y="-83.5" font-family="Helvetica,sans-Serif" font-size="10.00" fill="#000000">ramses::Resource</text>
</g>
<!-- Node5 -->
<g id="node6" class="node">
<title>Node5</title>
<g id="a_node6"><a xlink:href="classramses_1_1ArrayResource.html" target="_top" xlink:title="The ArrayResource stores a data array of a given type. The data is immutable. The resource can be use...">
<polygon fill="#ffffff" stroke="#000000" points="729,-152.5 729,-171.5 849,-171.5 849,-152.5 729,-152.5"/>
<text text-anchor="middle" x="789" y="-159.5" font-family="Helvetica,sans-Serif" font-size="10.00" fill="#000000">ramses::ArrayResource</text>
</a>
</g>
</g>
<!-- Node0&#45;&gt;Node5 -->
<g id="edge5" class="edge">
<title>Node0&#45;&gt;Node5</title>
<path fill="none" stroke="#191970" d="M664.7364,-102.0944C681.2546,-114.6128 705.6074,-131.6983 729,-143 736.5756,-146.66 745.0221,-149.8372 753.1304,-152.4909"/>
<polygon fill="#191970" stroke="#191970" points="666.4759,-99.0157 656.4215,-95.6753 662.1983,-104.5567 666.4759,-99.0157"/>
</g>
<!-- Node6 -->
<g id="node7" class="node">
<title>Node6</title>
<g id="a_node7"><a xlink:href="classramses_1_1Effect.html" target="_top" xlink:title="An effect describes how an object will be rendered to the screen. ">
<polygon fill="#ffffff" stroke="#000000" points="748.5,-114.5 748.5,-133.5 829.5,-133.5 829.5,-114.5 748.5,-114.5"/>
<text text-anchor="middle" x="789" y="-121.5" font-family="Helvetica,sans-Serif" font-size="10.00" fill="#000000">ramses::Effect</text>
</a>
</g>
</g>
<!-- Node0&#45;&gt;Node6 -->
<g id="edge6" class="edge">
<title>Node0&#45;&gt;Node6</title>
<path fill="none" stroke="#191970" d="M690.8325,-98.1843C710.8939,-103.46 734.0285,-109.5438 752.7988,-114.4799"/>
<polygon fill="#191970" stroke="#191970" points="691.5248,-94.7474 680.9635,-95.589 689.7445,-101.5173 691.5248,-94.7474"/>
</g>
<!-- Node7 -->
<g id="node8" class="node">
<title>Node7</title>
<g id="a_node8"><a xlink:href="classramses_1_1Texture2D.html" target="_top" xlink:title="Texture represents a 2&#45;D texture resource. ">
<polygon fill="#ffffff" stroke="#000000" points="738.5,-76.5 738.5,-95.5 839.5,-95.5 839.5,-76.5 738.5,-76.5"/>
<text text-anchor="middle" x="789" y="-83.5" font-family="Helvetica,sans-Serif" font-size="10.00" fill="#000000">ramses::Texture2D</text>
</a>
</g>
</g>
<!-- Node0&#45;&gt;Node7 -->
<g id="edge7" class="edge">
<title>Node0&#45;&gt;Node7</title>
<path fill="none" stroke="#191970" d="M703.1294,-86C714.8163,-86 726.9965,-86 738.3864,-86"/>
<polygon fill="#191970" stroke="#191970" points="703.0184,-82.5001 693.0184,-86 703.0184,-89.5001 703.0184,-82.5001"/>
</g>
<!-- Node8 -->
<g id="node9" class="node">
<title>Node8</title>
<g id="a_node9"><a xlink:href="classramses_1_1Texture3D.html" target="_top" xlink:title="Texture represents a texture resource. ">
<polygon fill="#ffffff" stroke="#000000" points="738.5,-38.5 738.5,-57.5 839.5,-57.5 839.5,-38.5 738.5,-38.5"/>
<text text-anchor="middle" x="789" y="-45.5" font-family="Helvetica,sans-Serif" font-size="10.00" fill="#000000">ramses::Texture3D</text>
</a>
</g>
</g>
<!-- Node0&#45;&gt;Node8 -->
<g id="edge8" class="edge">
<title>Node0&#45;&gt;Node8</title>
<path fill="none" stroke="#191970" d="M690.8325,-73.8157C710.8939,-68.54 734.0285,-62.4562 752.7988,-57.5201"/>
<polygon fill="#191970" stroke="#191970" points="689.7445,-70.4827 680.9635,-76.411 691.5248,-77.2526 689.7445,-70.4827"/>
</g>
<!-- Node9 -->
<g id="node10" class="node">
<title>Node9</title>
<g id="a_node10"><a xlink:href="classramses_1_1TextureCube.html" target="_top" xlink:title="TextureCube stores pixel data with 6 equally sized quadratic faces. ">
<polygon fill="#ffffff" stroke="#000000" points="733.5,-.5 733.5,-19.5 844.5,-19.5 844.5,-.5 733.5,-.5"/>
<text text-anchor="middle" x="789" y="-7.5" font-family="Helvetica,sans-Serif" font-size="10.00" fill="#000000">ramses::TextureCube</text>
</a>
</g>
</g>
<!-- Node0&#45;&gt;Node9 -->
<g id="edge9" class="edge">
<title>Node0&#45;&gt;Node9</title>
<path fill="none" stroke="#191970" d="M664.7364,-69.9056C681.2546,-57.3872 705.6074,-40.3017 729,-29 736.5756,-25.34 745.0221,-22.1628 753.1304,-19.5091"/>
<polygon fill="#191970" stroke="#191970" points="662.1983,-67.4433 656.4215,-76.3247 666.4759,-72.9843 662.1983,-67.4433"/>
</g>
<!-- Node1 -->
<g id="node2" class="node">
<title>Node1</title>
<g id="a_node2"><a xlink:href="classramses_1_1SceneObject.html" target="_top" xlink:title="The SceneObject is a base class for all client API objects owned by a Scene. ">
<polygon fill="#ffffff" stroke="#000000" points="449,-76.5 449,-95.5 560,-95.5 560,-76.5 449,-76.5"/>
<text text-anchor="middle" x="504.5" y="-83.5" font-family="Helvetica,sans-Serif" font-size="10.00" fill="#000000">ramses::SceneObject</text>
</a>
</g>
</g>
<!-- Node1&#45;&gt;Node0 -->
<g id="edge1" class="edge">
<title>Node1&#45;&gt;Node0</title>
<path fill="none" stroke="#191970" d="M570.2437,-86C578.8306,-86 587.5032,-86 595.7421,-86"/>
<polygon fill="#191970" stroke="#191970" points="570.234,-82.5001 560.234,-86 570.2339,-89.5001 570.234,-82.5001"/>
</g>
<!-- Node2 -->
<g id="node3" class="node">
<title>Node2</title>
<g id="a_node3"><a xlink:href="classramses_1_1ClientObject.html" target="_top" xlink:title="The ClientObject is a base class for all client API objects owned by a RamsesClient. ">
<polygon fill="#ffffff" stroke="#000000" points="304,-76.5 304,-95.5 413,-95.5 413,-76.5 304,-76.5"/>
<text text-anchor="middle" x="358.5" y="-83.5" font-family="Helvetica,sans-Serif" font-size="10.00" fill="#000000">ramses::ClientObject</text>
</a>
</g>
</g>
<!-- Node2&#45;&gt;Node1 -->
<g id="edge2" class="edge">
<title>Node2&#45;&gt;Node1</title>
<path fill="none" stroke="#191970" d="M423.5191,-86C431.9978,-86 440.6218,-86 448.9262,-86"/>
<polygon fill="#191970" stroke="#191970" points="423.2804,-82.5001 413.2804,-86 423.2804,-89.5001 423.2804,-82.5001"/>
</g>
<!-- Node3 -->
<g id="node4" class="node">
<title>Node3</title>
<g id="a_node4"><a xlink:href="classramses_1_1RamsesObject.html" target="_top" xlink:title="The RamsesObject is a base class for all client API objects owned by the framework. ">
<polygon fill="#ffffff" stroke="#000000" points="148,-76.5 148,-95.5 268,-95.5 268,-76.5 148,-76.5"/>
<text text-anchor="middle" x="208" y="-83.5" font-family="Helvetica,sans-Serif" font-size="10.00" fill="#000000">ramses::RamsesObject</text>
</a>
</g>
</g>
<!-- Node3&#45;&gt;Node2 -->
<g id="edge3" class="edge">
<title>Node3&#45;&gt;Node2</title>
<path fill="none" stroke="#191970" d="M278.3762,-86C286.9761,-86 295.6613,-86 303.9799,-86"/>
<polygon fill="#191970" stroke="#191970" points="278.347,-82.5001 268.3469,-86 278.3469,-89.5001 278.347,-82.5001"/>
</g>
<!-- Node4 -->
<g id="node5" class="node">
<title>Node4</title>
<g id="a_node5"><a xlink:href="classramses_1_1StatusObject.html" target="_top" xlink:title="The StatusObject provides status message handling. ">
<polygon fill="#ffffff" stroke="#000000" points="0,-76.5 0,-95.5 112,-95.5 112,-76.5 0,-76.5"/>
<text text-anchor="middle" x="56" y="-83.5" font-family="Helvetica,sans-Serif" font-size="10.00" fill="#000000">ramses::StatusObject</text>
</a>
</g>
</g>
<!-- Node4&#45;&gt;Node3 -->
<g id="edge4" class="edge">
<title>Node4&#45;&gt;Node3</title>
<path fill="none" stroke="#191970" d="M122.4268,-86C130.9276,-86 139.5908,-86 147.9818,-86"/>
<polygon fill="#191970" stroke="#191970" points="122.1674,-82.5001 112.1673,-86 122.1673,-89.5001 122.1674,-82.5001"/>
</g>
</g>
</svg>
