<?xml version="1.0" encoding="UTF-8" standalone="no"?>
<!DOCTYPE svg PUBLIC "-//W3C//DTD SVG 1.1//EN"
 "http://www.w3.org/Graphics/SVG/1.1/DTD/svg11.dtd">
<!-- Generated by graphviz version 2.40.1 (20161225.0304)
 -->
<!-- Title: ramses::AnimationObject Pages: 1 -->
<svg width="135pt" height="252pt"
 viewBox="0.00 0.00 135.00 252.00" xmlns="http://www.w3.org/2000/svg" xmlns:xlink="http://www.w3.org/1999/xlink">
<g id="graph0" class="graph" transform="scale(1 1) rotate(0) translate(4 248)">
<title>ramses::AnimationObject</title>
<polygon fill="#ffffff" stroke="transparent" points="-4,4 -4,-248 131,-248 131,4 -4,4"/>
<!-- Node34 -->
<g id="node1" class="node">
<title>Node34</title>
<polygon fill="#bfbfbf" stroke="#000000" points="0,-.5 0,-19.5 127,-19.5 127,-.5 0,-.5"/>
<text text-anchor="middle" x="63.5" y="-7.5" font-family="Helvetica,sans-Serif" font-size="10.00" fill="#000000">ramses::AnimationObject</text>
</g>
<!-- Node35 -->
<g id="node2" class="node">
<title>Node35</title>
<g id="a_node2"><a xlink:href="classramses_1_1SceneObject.html" target="_top" xlink:title="The SceneObject is a base class for all client API objects owned by a Scene. ">
<polygon fill="#ffffff" stroke="#000000" points="8,-56.5 8,-75.5 119,-75.5 119,-56.5 8,-56.5"/>
<text text-anchor="middle" x="63.5" y="-63.5" font-family="Helvetica,sans-Serif" font-size="10.00" fill="#000000">ramses::SceneObject</text>
</a>
</g>
</g>
<!-- Node35&#45;&gt;Node34 -->
<g id="edge1" class="edge">
<title>Node35&#45;&gt;Node34</title>
<path fill="none" stroke="#191970" d="M63.5,-46.1575C63.5,-37.155 63.5,-26.9199 63.5,-19.6427"/>
<polygon fill="#191970" stroke="#191970" points="60.0001,-46.2455 63.5,-56.2455 67.0001,-46.2456 60.0001,-46.2455"/>
</g>
<!-- Node36 -->
<g id="node3" class="node">
<title>Node36</title>
<g id="a_node3"><a xlink:href="classramses_1_1ClientObject.html" target="_top" xlink:title="The ClientObject is a base class for all client API objects owned by a RamsesClient. ">
<polygon fill="#ffffff" stroke="#000000" points="9,-112.5 9,-131.5 118,-131.5 118,-112.5 9,-112.5"/>
<text text-anchor="middle" x="63.5" y="-119.5" font-family="Helvetica,sans-Serif" font-size="10.00" fill="#000000">ramses::ClientObject</text>
</a>
</g>
</g>
<!-- Node36&#45;&gt;Node35 -->
<g id="edge2" class="edge">
<title>Node36&#45;&gt;Node35</title>
<path fill="none" stroke="#191970" d="M63.5,-102.1575C63.5,-93.155 63.5,-82.9199 63.5,-75.6427"/>
<polygon fill="#191970" stroke="#191970" points="60.0001,-102.2455 63.5,-112.2455 67.0001,-102.2456 60.0001,-102.2455"/>
</g>
<!-- Node37 -->
<g id="node4" class="node">
<title>Node37</title>
<g id="a_node4"><a xlink:href="classramses_1_1RamsesObject.html" target="_top" xlink:title="The RamsesObject is a base class for all client API objects owned by the framework. ">
<polygon fill="#ffffff" stroke="#000000" points="3.5,-168.5 3.5,-187.5 123.5,-187.5 123.5,-168.5 3.5,-168.5"/>
<text text-anchor="middle" x="63.5" y="-175.5" font-family="Helvetica,sans-Serif" font-size="10.00" fill="#000000">ramses::RamsesObject</text>
</a>
</g>
</g>
<!-- Node37&#45;&gt;Node36 -->
<g id="edge3" class="edge">
<title>Node37&#45;&gt;Node36</title>
<path fill="none" stroke="#191970" d="M63.5,-158.1575C63.5,-149.155 63.5,-138.9199 63.5,-131.6427"/>
<polygon fill="#191970" stroke="#191970" points="60.0001,-158.2455 63.5,-168.2455 67.0001,-158.2456 60.0001,-158.2455"/>
</g>
<!-- Node38 -->
<g id="node5" class="node">
<title>Node38</title>
<g id="a_node5"><a xlink:href="classramses_1_1StatusObject.html" target="_top" xlink:title="The StatusObject provides status message handling. ">
<polygon fill="#ffffff" stroke="#000000" points="7.5,-224.5 7.5,-243.5 119.5,-243.5 119.5,-224.5 7.5,-224.5"/>
<text text-anchor="middle" x="63.5" y="-231.5" font-family="Helvetica,sans-Serif" font-size="10.00" fill="#000000">ramses::StatusObject</text>
</a>
</g>
</g>
<!-- Node38&#45;&gt;Node37 -->
<g id="edge4" class="edge">
<title>Node38&#45;&gt;Node37</title>
<path fill="none" stroke="#191970" d="M63.5,-214.1575C63.5,-205.155 63.5,-194.9199 63.5,-187.6427"/>
<polygon fill="#191970" stroke="#191970" points="60.0001,-214.2455 63.5,-224.2455 67.0001,-214.2456 60.0001,-214.2455"/>
</g>
</g>
</svg>
