<?xml version="1.0" encoding="UTF-8" standalone="no"?>
<!DOCTYPE svg PUBLIC "-//W3C//DTD SVG 1.1//EN"
 "http://www.w3.org/Graphics/SVG/1.1/DTD/svg11.dtd">
<!-- Generated by graphviz version 2.43.0 (0)
 -->
<!-- Title: ramses::PerspectiveCamera Pages: 1 -->
<svg width="162pt" height="364pt"
 viewBox="0.00 0.00 162.00 364.00" xmlns="http://www.w3.org/2000/svg" xmlns:xlink="http://www.w3.org/1999/xlink">
<g id="graph0" class="graph" transform="scale(1 1) rotate(0) translate(4 360)">
<title>ramses::PerspectiveCamera</title>
<polygon fill="white" stroke="transparent" points="-4,4 -4,-360 158,-360 158,4 -4,4"/>
<!-- Node1 -->
<g id="node1" class="node">
<title>Node1</title>
<g id="a_node1"><a xlink:title="The PerspectiveCamera is a local camera which defines a perspective view into the scene.">
<polygon fill="#bfbfbf" stroke="black" points="0,-0.5 0,-19.5 154,-19.5 154,-0.5 0,-0.5"/>
<text text-anchor="middle" x="77" y="-7.5" font-family="Helvetica,sans-Serif" font-size="10.00">ramses::PerspectiveCamera</text>
</a>
</g>
</g>
<!-- Node2 -->
<g id="node2" class="node">
<title>Node2</title>
<g id="a_node2"><a xlink:href="classramses_1_1Camera.html" target="_top" xlink:title="The Camera base class is part of a scene and defines a view into the scene defined by the client appl...">
<polygon fill="white" stroke="black" points="28.5,-56.5 28.5,-75.5 125.5,-75.5 125.5,-56.5 28.5,-56.5"/>
<text text-anchor="middle" x="77" y="-63.5" font-family="Helvetica,sans-Serif" font-size="10.00">ramses::Camera</text>
</a>
</g>
</g>
<!-- Node2&#45;&gt;Node1 -->
<g id="edge1" class="edge">
<title>Node2&#45;&gt;Node1</title>
<path fill="none" stroke="midnightblue" d="M77,-45.8C77,-36.91 77,-26.78 77,-19.75"/>
<polygon fill="midnightblue" stroke="midnightblue" points="73.5,-46.08 77,-56.08 80.5,-46.08 73.5,-46.08"/>
</g>
<!-- Node3 -->
<g id="node3" class="node">
<title>Node3</title>
<g id="a_node3"><a xlink:href="classramses_1_1Node.html" target="_top" xlink:title="The Node is the base class of all nodes and provides scene graph functionality which propagates to it...">
<polygon fill="white" stroke="black" points="35,-112.5 35,-131.5 119,-131.5 119,-112.5 35,-112.5"/>
<text text-anchor="middle" x="77" y="-119.5" font-family="Helvetica,sans-Serif" font-size="10.00">ramses::Node</text>
</a>
</g>
</g>
<!-- Node3&#45;&gt;Node2 -->
<g id="edge2" class="edge">
<title>Node3&#45;&gt;Node2</title>
<path fill="none" stroke="midnightblue" d="M77,-101.8C77,-92.91 77,-82.78 77,-75.75"/>
<polygon fill="midnightblue" stroke="midnightblue" points="73.5,-102.08 77,-112.08 80.5,-102.08 73.5,-102.08"/>
</g>
<!-- Node4 -->
<g id="node4" class="node">
<title>Node4</title>
<g id="a_node4"><a xlink:href="classramses_1_1SceneObject.html" target="_top" xlink:title="The SceneObject is a base class for all client API objects owned by a Scene.">
<polygon fill="white" stroke="black" points="17.5,-168.5 17.5,-187.5 136.5,-187.5 136.5,-168.5 17.5,-168.5"/>
<text text-anchor="middle" x="77" y="-175.5" font-family="Helvetica,sans-Serif" font-size="10.00">ramses::SceneObject</text>
</a>
</g>
</g>
<!-- Node4&#45;&gt;Node3 -->
<g id="edge3" class="edge">
<title>Node4&#45;&gt;Node3</title>
<path fill="none" stroke="midnightblue" d="M77,-157.8C77,-148.91 77,-138.78 77,-131.75"/>
<polygon fill="midnightblue" stroke="midnightblue" points="73.5,-158.08 77,-168.08 80.5,-158.08 73.5,-158.08"/>
</g>
<!-- Node5 -->
<g id="node5" class="node">
<title>Node5</title>
<g id="a_node5"><a xlink:href="classramses_1_1ClientObject.html" target="_top" xlink:title="The ClientObject is a base class for all client API objects owned by a RamsesClient.">
<polygon fill="white" stroke="black" points="17.5,-224.5 17.5,-243.5 136.5,-243.5 136.5,-224.5 17.5,-224.5"/>
<text text-anchor="middle" x="77" y="-231.5" font-family="Helvetica,sans-Serif" font-size="10.00">ramses::ClientObject</text>
</a>
</g>
</g>
<!-- Node5&#45;&gt;Node4 -->
<g id="edge4" class="edge">
<title>Node5&#45;&gt;Node4</title>
<path fill="none" stroke="midnightblue" d="M77,-213.8C77,-204.91 77,-194.78 77,-187.75"/>
<polygon fill="midnightblue" stroke="midnightblue" points="73.5,-214.08 77,-224.08 80.5,-214.08 73.5,-214.08"/>
</g>
<!-- Node6 -->
<g id="node6" class="node">
<title>Node6</title>
<g id="a_node6"><a xlink:href="classramses_1_1RamsesObject.html" target="_top" xlink:title="The RamsesObject is a base class for all client API objects owned by the framework.">
<polygon fill="white" stroke="black" points="12.5,-280.5 12.5,-299.5 141.5,-299.5 141.5,-280.5 12.5,-280.5"/>
<text text-anchor="middle" x="77" y="-287.5" font-family="Helvetica,sans-Serif" font-size="10.00">ramses::RamsesObject</text>
</a>
</g>
</g>
<!-- Node6&#45;&gt;Node5 -->
<g id="edge5" class="edge">
<title>Node6&#45;&gt;Node5</title>
<path fill="none" stroke="midnightblue" d="M77,-269.8C77,-260.91 77,-250.78 77,-243.75"/>
<polygon fill="midnightblue" stroke="midnightblue" points="73.5,-270.08 77,-280.08 80.5,-270.08 73.5,-270.08"/>
</g>
<!-- Node7 -->
<g id="node7" class="node">
<title>Node7</title>
<g id="a_node7"><a xlink:href="classramses_1_1StatusObject.html" target="_top" xlink:title="The StatusObject provides status message handling.">
<polygon fill="white" stroke="black" points="16.5,-336.5 16.5,-355.5 137.5,-355.5 137.5,-336.5 16.5,-336.5"/>
<text text-anchor="middle" x="77" y="-343.5" font-family="Helvetica,sans-Serif" font-size="10.00">ramses::StatusObject</text>
</a>
</g>
</g>
<!-- Node7&#45;&gt;Node6 -->
<g id="edge6" class="edge">
<title>Node7&#45;&gt;Node6</title>
<path fill="none" stroke="midnightblue" d="M77,-325.8C77,-316.91 77,-306.78 77,-299.75"/>
<polygon fill="midnightblue" stroke="midnightblue" points="73.5,-326.08 77,-336.08 80.5,-326.08 73.5,-326.08"/>
</g>
</g>
</svg>
