<?xml version="1.0" encoding="UTF-8" standalone="no"?>
<!DOCTYPE svg PUBLIC "-//W3C//DTD SVG 1.1//EN"
 "http://www.w3.org/Graphics/SVG/1.1/DTD/svg11.dtd">
<!-- Generated by graphviz version 2.43.0 (0)
 -->
<!-- Title: ramses::Spline Pages: 1 -->
<svg width="1101pt" height="940pt"
 viewBox="0.00 0.00 1101.00 940.00" xmlns="http://www.w3.org/2000/svg" xmlns:xlink="http://www.w3.org/1999/xlink">
<g id="graph0" class="graph" transform="scale(1 1) rotate(0) translate(4 936)">
<title>ramses::Spline</title>
<polygon fill="white" stroke="transparent" points="-4,4 -4,-936 1097,-936 1097,4 -4,4"/>
<!-- Node1 -->
<g id="node1" class="node">
<title>Node1</title>
<g id="a_node1"><a xlink:title="The Spline is a set of keys describing an animation.">
<polygon fill="#bfbfbf" stroke="black" points="808,-456.5 808,-475.5 897,-475.5 897,-456.5 808,-456.5"/>
<text text-anchor="middle" x="852.5" y="-463.5" font-family="Helvetica,sans-Serif" font-size="10.00">ramses::Spline</text>
</a>
</g>
</g>
<!-- Node7 -->
<g id="node7" class="node">
<title>Node7</title>
<g id="a_node7"><a xlink:href="classramses_1_1SplineBezierFloat.html" target="_top" xlink:title="The SplineBezierFloat stores spline keys of type float that can be used for animation with Bezier int...">
<polygon fill="white" stroke="black" points="941,-912.5 941,-931.5 1085,-931.5 1085,-912.5 941,-912.5"/>
<text text-anchor="middle" x="1013" y="-919.5" font-family="Helvetica,sans-Serif" font-size="10.00">ramses::SplineBezierFloat</text>
</a>
</g>
</g>
<!-- Node1&#45;&gt;Node7 -->
<g id="edge6" class="edge">
<title>Node1&#45;&gt;Node7</title>
<path fill="none" stroke="midnightblue" d="M854.33,-486.13C857.94,-563.64 874.8,-841.44 933,-903 936.59,-906.79 940.79,-909.89 945.35,-912.4"/>
<polygon fill="midnightblue" stroke="midnightblue" points="857.81,-485.67 853.88,-475.84 850.82,-485.98 857.81,-485.67"/>
</g>
<!-- Node8 -->
<g id="node8" class="node">
<title>Node8</title>
<g id="a_node8"><a xlink:href="classramses_1_1SplineBezierInt32.html" target="_top" xlink:title="The SplineBezierInt32 stores spline keys of type int32_t that can be used for animation with Bezier i...">
<polygon fill="white" stroke="black" points="941,-874.5 941,-893.5 1085,-893.5 1085,-874.5 941,-874.5"/>
<text text-anchor="middle" x="1013" y="-881.5" font-family="Helvetica,sans-Serif" font-size="10.00">ramses::SplineBezierInt32</text>
</a>
</g>
</g>
<!-- Node1&#45;&gt;Node8 -->
<g id="edge7" class="edge">
<title>Node1&#45;&gt;Node8</title>
<path fill="none" stroke="midnightblue" d="M854.69,-485.77C859.45,-558.45 879.56,-809.42 933,-865 936.62,-868.76 940.84,-871.83 945.42,-874.34"/>
<polygon fill="midnightblue" stroke="midnightblue" points="858.17,-485.46 854.05,-475.7 851.19,-485.9 858.17,-485.46"/>
</g>
<!-- Node9 -->
<g id="node9" class="node">
<title>Node9</title>
<g id="a_node9"><a xlink:href="classramses_1_1SplineBezierVector2f.html" target="_top" xlink:title="The SplineBezierVector2f stores spline keys of type Vector2f that can be used for animation with Bezi...">
<polygon fill="white" stroke="black" points="933,-836.5 933,-855.5 1093,-855.5 1093,-836.5 933,-836.5"/>
<text text-anchor="middle" x="1013" y="-843.5" font-family="Helvetica,sans-Serif" font-size="10.00">ramses::SplineBezierVector2f</text>
</a>
</g>
</g>
<!-- Node1&#45;&gt;Node9 -->
<g id="edge8" class="edge">
<title>Node1&#45;&gt;Node9</title>
<path fill="none" stroke="midnightblue" d="M855.16,-486.06C861.23,-554.53 884.46,-777.52 933,-827 936.75,-830.83 941.13,-833.94 945.87,-836.46"/>
<polygon fill="midnightblue" stroke="midnightblue" points="858.62,-485.45 854.28,-475.79 851.65,-486.05 858.62,-485.45"/>
</g>
<!-- Node10 -->
<g id="node10" class="node">
<title>Node10</title>
<g id="a_node10"><a xlink:href="classramses_1_1SplineBezierVector2i.html" target="_top" xlink:title="The SplineBezierVector2i stores spline keys of type Vector2i that can be used for animation with Bezi...">
<polygon fill="white" stroke="black" points="933.5,-798.5 933.5,-817.5 1092.5,-817.5 1092.5,-798.5 933.5,-798.5"/>
<text text-anchor="middle" x="1013" y="-805.5" font-family="Helvetica,sans-Serif" font-size="10.00">ramses::SplineBezierVector2i</text>
</a>
</g>
</g>
<!-- Node1&#45;&gt;Node10 -->
<g id="edge9" class="edge">
<title>Node1&#45;&gt;Node10</title>
<path fill="none" stroke="midnightblue" d="M855.71,-485.98C863.14,-549.54 889.25,-745.48 933,-789 936.8,-792.78 941.21,-795.86 945.97,-798.36"/>
<polygon fill="midnightblue" stroke="midnightblue" points="859.15,-485.25 854.54,-475.72 852.2,-486.05 859.15,-485.25"/>
</g>
<!-- Node11 -->
<g id="node11" class="node">
<title>Node11</title>
<g id="a_node11"><a xlink:href="classramses_1_1SplineBezierVector3f.html" target="_top" xlink:title="The SplineBezierVector3f stores spline keys of type Vector3f that can be used for animation with Bezi...">
<polygon fill="white" stroke="black" points="933,-760.5 933,-779.5 1093,-779.5 1093,-760.5 933,-760.5"/>
<text text-anchor="middle" x="1013" y="-767.5" font-family="Helvetica,sans-Serif" font-size="10.00">ramses::SplineBezierVector3f</text>
</a>
</g>
</g>
<!-- Node1&#45;&gt;Node11 -->
<g id="edge10" class="edge">
<title>Node1&#45;&gt;Node11</title>
<path fill="none" stroke="midnightblue" d="M852.7,-485.67C851.75,-537.23 856.7,-677.4 933,-751 936.96,-754.82 941.55,-757.92 946.48,-760.42"/>
<polygon fill="midnightblue" stroke="midnightblue" points="856.2,-485.65 852.99,-475.56 849.21,-485.45 856.2,-485.65"/>
</g>
<!-- Node12 -->
<g id="node12" class="node">
<title>Node12</title>
<g id="a_node12"><a xlink:href="classramses_1_1SplineBezierVector3i.html" target="_top" xlink:title="The SplineBezierVector3i stores spline keys of type Vector3i that can be used for animation with Bezi...">
<polygon fill="white" stroke="black" points="933.5,-722.5 933.5,-741.5 1092.5,-741.5 1092.5,-722.5 933.5,-722.5"/>
<text text-anchor="middle" x="1013" y="-729.5" font-family="Helvetica,sans-Serif" font-size="10.00">ramses::SplineBezierVector3i</text>
</a>
</g>
</g>
<!-- Node1&#45;&gt;Node12 -->
<g id="edge11" class="edge">
<title>Node1&#45;&gt;Node12</title>
<path fill="none" stroke="midnightblue" d="M853.69,-485.53C855.27,-532.2 866.02,-650.89 933,-713 937.14,-716.84 941.91,-719.94 947.02,-722.44"/>
<polygon fill="midnightblue" stroke="midnightblue" points="857.19,-485.45 853.47,-475.53 850.2,-485.61 857.19,-485.45"/>
</g>
<!-- Node13 -->
<g id="node13" class="node">
<title>Node13</title>
<g id="a_node13"><a xlink:href="classramses_1_1SplineBezierVector4f.html" target="_top" xlink:title="The SplineBezierVector4f stores spline keys of type Vector4f that can be used for animation with Bezi...">
<polygon fill="white" stroke="black" points="933,-684.5 933,-703.5 1093,-703.5 1093,-684.5 933,-684.5"/>
<text text-anchor="middle" x="1013" y="-691.5" font-family="Helvetica,sans-Serif" font-size="10.00">ramses::SplineBezierVector4f</text>
</a>
</g>
</g>
<!-- Node1&#45;&gt;Node13 -->
<g id="edge12" class="edge">
<title>Node1&#45;&gt;Node13</title>
<path fill="none" stroke="midnightblue" d="M855.04,-485.86C859.39,-527.52 875.46,-624.36 933,-675 937.34,-678.82 942.32,-681.91 947.62,-684.39"/>
<polygon fill="midnightblue" stroke="midnightblue" points="858.51,-485.29 854.11,-475.66 851.54,-485.93 858.51,-485.29"/>
</g>
<!-- Node14 -->
<g id="node14" class="node">
<title>Node14</title>
<g id="a_node14"><a xlink:href="classramses_1_1SplineBezierVector4i.html" target="_top" xlink:title="The SplineBezierVector4i stores spline keys of type Vector4i that can be used for animation with Bezi...">
<polygon fill="white" stroke="black" points="933.5,-646.5 933.5,-665.5 1092.5,-665.5 1092.5,-646.5 933.5,-646.5"/>
<text text-anchor="middle" x="1013" y="-653.5" font-family="Helvetica,sans-Serif" font-size="10.00">ramses::SplineBezierVector4i</text>
</a>
</g>
</g>
<!-- Node1&#45;&gt;Node14 -->
<g id="edge13" class="edge">
<title>Node1&#45;&gt;Node14</title>
<path fill="none" stroke="midnightblue" d="M856.88,-485.65C864.11,-521.47 884.53,-597.34 933,-637 937.69,-640.84 943.04,-643.93 948.69,-646.41"/>
<polygon fill="midnightblue" stroke="midnightblue" points="860.26,-484.7 854.98,-475.52 853.38,-486 860.26,-484.7"/>
</g>
<!-- Node15 -->
<g id="node15" class="node">
<title>Node15</title>
<g id="a_node15"><a xlink:href="classramses_1_1SplineLinearFloat.html" target="_top" xlink:title="The SplineLinearFloat stores spline keys of type float that can be used for animation with linear int...">
<polygon fill="white" stroke="black" points="941.5,-608.5 941.5,-627.5 1084.5,-627.5 1084.5,-608.5 941.5,-608.5"/>
<text text-anchor="middle" x="1013" y="-615.5" font-family="Helvetica,sans-Serif" font-size="10.00">ramses::SplineLinearFloat</text>
</a>
</g>
</g>
<!-- Node1&#45;&gt;Node15 -->
<g id="edge14" class="edge">
<title>Node1&#45;&gt;Node15</title>
<path fill="none" stroke="midnightblue" d="M859.6,-485.37C869.87,-514.66 893.43,-569.9 933,-599 938.23,-602.84 944.13,-605.92 950.29,-608.38"/>
<polygon fill="midnightblue" stroke="midnightblue" points="862.91,-484.22 856.42,-475.84 856.27,-486.44 862.91,-484.22"/>
</g>
<!-- Node16 -->
<g id="node16" class="node">
<title>Node16</title>
<g id="a_node16"><a xlink:href="classramses_1_1SplineLinearInt32.html" target="_top" xlink:title="The SplineLinearInt32 stores spline keys of type int32_t that can be used for animation with linear i...">
<polygon fill="white" stroke="black" points="941.5,-570.5 941.5,-589.5 1084.5,-589.5 1084.5,-570.5 941.5,-570.5"/>
<text text-anchor="middle" x="1013" y="-577.5" font-family="Helvetica,sans-Serif" font-size="10.00">ramses::SplineLinearInt32</text>
</a>
</g>
</g>
<!-- Node1&#45;&gt;Node16 -->
<g id="edge15" class="edge">
<title>Node1&#45;&gt;Node16</title>
<path fill="none" stroke="midnightblue" d="M863.87,-484.45C877.07,-506.18 901.93,-541.74 933,-561 939.23,-564.87 946.2,-567.94 953.33,-570.4"/>
<polygon fill="midnightblue" stroke="midnightblue" points="866.73,-482.4 858.65,-475.55 860.69,-485.94 866.73,-482.4"/>
</g>
<!-- Node17 -->
<g id="node17" class="node">
<title>Node17</title>
<g id="a_node17"><a xlink:href="classramses_1_1SplineLinearVector2f.html" target="_top" xlink:title="The SplineLinearVector2f stores spline keys of type Vector2f that can be used for animation with line...">
<polygon fill="white" stroke="black" points="933.5,-532.5 933.5,-551.5 1092.5,-551.5 1092.5,-532.5 933.5,-532.5"/>
<text text-anchor="middle" x="1013" y="-539.5" font-family="Helvetica,sans-Serif" font-size="10.00">ramses::SplineLinearVector2f</text>
</a>
</g>
</g>
<!-- Node1&#45;&gt;Node17 -->
<g id="edge16" class="edge">
<title>Node1&#45;&gt;Node17</title>
<path fill="none" stroke="midnightblue" d="M871.65,-482.16C886.99,-495.01 910.07,-512.51 933,-523 941.34,-526.81 950.54,-529.92 959.62,-532.42"/>
<polygon fill="midnightblue" stroke="midnightblue" points="873.84,-479.43 863.98,-475.58 869.29,-484.75 873.84,-479.43"/>
</g>
<!-- Node18 -->
<g id="node18" class="node">
<title>Node18</title>
<g id="a_node18"><a xlink:href="classramses_1_1SplineLinearVector2i.html" target="_top" xlink:title="The SplineLinearVector2i stores spline keys of type Vector2i that can be used for animation with line...">
<polygon fill="white" stroke="black" points="934,-494.5 934,-513.5 1092,-513.5 1092,-494.5 934,-494.5"/>
<text text-anchor="middle" x="1013" y="-501.5" font-family="Helvetica,sans-Serif" font-size="10.00">ramses::SplineLinearVector2i</text>
</a>
</g>
</g>
<!-- Node1&#45;&gt;Node18 -->
<g id="edge17" class="edge">
<title>Node1&#45;&gt;Node18</title>
<path fill="none" stroke="midnightblue" d="M903.42,-477.97C925.63,-483.29 951.42,-489.48 972.29,-494.48"/>
<polygon fill="midnightblue" stroke="midnightblue" points="904.04,-474.52 893.5,-475.59 902.4,-481.32 904.04,-474.52"/>
</g>
<!-- Node19 -->
<g id="node19" class="node">
<title>Node19</title>
<g id="a_node19"><a xlink:href="classramses_1_1SplineLinearVector3f.html" target="_top" xlink:title="The SplineLinearVector3f stores spline keys of type Vector3f that can be used for animation with line...">
<polygon fill="white" stroke="black" points="933.5,-456.5 933.5,-475.5 1092.5,-475.5 1092.5,-456.5 933.5,-456.5"/>
<text text-anchor="middle" x="1013" y="-463.5" font-family="Helvetica,sans-Serif" font-size="10.00">ramses::SplineLinearVector3f</text>
</a>
</g>
</g>
<!-- Node1&#45;&gt;Node19 -->
<g id="edge18" class="edge">
<title>Node1&#45;&gt;Node19</title>
<path fill="none" stroke="midnightblue" d="M907.28,-466C915.71,-466 924.58,-466 933.44,-466"/>
<polygon fill="midnightblue" stroke="midnightblue" points="907.23,-462.5 897.23,-466 907.23,-469.5 907.23,-462.5"/>
</g>
<!-- Node20 -->
<g id="node20" class="node">
<title>Node20</title>
<g id="a_node20"><a xlink:href="classramses_1_1SplineLinearVector3i.html" target="_top" xlink:title="The SplineLinearVector3i stores spline keys of type Vector3i that can be used for animation with line...">
<polygon fill="white" stroke="black" points="934,-418.5 934,-437.5 1092,-437.5 1092,-418.5 934,-418.5"/>
<text text-anchor="middle" x="1013" y="-425.5" font-family="Helvetica,sans-Serif" font-size="10.00">ramses::SplineLinearVector3i</text>
</a>
</g>
</g>
<!-- Node1&#45;&gt;Node20 -->
<g id="edge19" class="edge">
<title>Node1&#45;&gt;Node20</title>
<path fill="none" stroke="midnightblue" d="M903.42,-454.03C925.63,-448.71 951.42,-442.52 972.29,-437.52"/>
<polygon fill="midnightblue" stroke="midnightblue" points="902.4,-450.68 893.5,-456.41 904.04,-457.48 902.4,-450.68"/>
</g>
<!-- Node21 -->
<g id="node21" class="node">
<title>Node21</title>
<g id="a_node21"><a xlink:href="classramses_1_1SplineLinearVector4f.html" target="_top" xlink:title="The SplineLinearVector4f stores spline keys of type Vector4f that can be used for animation with line...">
<polygon fill="white" stroke="black" points="933.5,-380.5 933.5,-399.5 1092.5,-399.5 1092.5,-380.5 933.5,-380.5"/>
<text text-anchor="middle" x="1013" y="-387.5" font-family="Helvetica,sans-Serif" font-size="10.00">ramses::SplineLinearVector4f</text>
</a>
</g>
</g>
<!-- Node1&#45;&gt;Node21 -->
<g id="edge20" class="edge">
<title>Node1&#45;&gt;Node21</title>
<path fill="none" stroke="midnightblue" d="M871.65,-449.84C886.99,-436.99 910.07,-419.49 933,-409 941.34,-405.19 950.54,-402.08 959.62,-399.58"/>
<polygon fill="midnightblue" stroke="midnightblue" points="869.29,-447.25 863.98,-456.42 873.84,-452.57 869.29,-447.25"/>
</g>
<!-- Node22 -->
<g id="node22" class="node">
<title>Node22</title>
<g id="a_node22"><a xlink:href="classramses_1_1SplineLinearVector4i.html" target="_top" xlink:title="The SplineLinearVector4i stores spline keys of type Vector4i that can be used for animation with line...">
<polygon fill="white" stroke="black" points="934,-342.5 934,-361.5 1092,-361.5 1092,-342.5 934,-342.5"/>
<text text-anchor="middle" x="1013" y="-349.5" font-family="Helvetica,sans-Serif" font-size="10.00">ramses::SplineLinearVector4i</text>
</a>
</g>
</g>
<!-- Node1&#45;&gt;Node22 -->
<g id="edge21" class="edge">
<title>Node1&#45;&gt;Node22</title>
<path fill="none" stroke="midnightblue" d="M863.87,-447.55C877.07,-425.82 901.93,-390.26 933,-371 939.23,-367.13 946.2,-364.06 953.33,-361.6"/>
<polygon fill="midnightblue" stroke="midnightblue" points="860.69,-446.06 858.65,-456.45 866.73,-449.6 860.69,-446.06"/>
</g>
<!-- Node23 -->
<g id="node23" class="node">
<title>Node23</title>
<g id="a_node23"><a xlink:href="classramses_1_1SplineStepBool.html" target="_top" xlink:title="The SplineStepBool stores spline keys of type bool that can be used for animation with step interpola...">
<polygon fill="white" stroke="black" points="947,-304.5 947,-323.5 1079,-323.5 1079,-304.5 947,-304.5"/>
<text text-anchor="middle" x="1013" y="-311.5" font-family="Helvetica,sans-Serif" font-size="10.00">ramses::SplineStepBool</text>
</a>
</g>
</g>
<!-- Node1&#45;&gt;Node23 -->
<g id="edge22" class="edge">
<title>Node1&#45;&gt;Node23</title>
<path fill="none" stroke="midnightblue" d="M859.6,-446.63C869.87,-417.34 893.43,-362.1 933,-333 938.23,-329.16 944.13,-326.08 950.29,-323.62"/>
<polygon fill="midnightblue" stroke="midnightblue" points="856.27,-445.56 856.42,-456.16 862.91,-447.78 856.27,-445.56"/>
</g>
<!-- Node24 -->
<g id="node24" class="node">
<title>Node24</title>
<g id="a_node24"><a xlink:href="classramses_1_1SplineStepFloat.html" target="_top" xlink:title="The SplineStepFloat stores spline keys of type float that can be used for animation with step interpo...">
<polygon fill="white" stroke="black" points="945.5,-266.5 945.5,-285.5 1080.5,-285.5 1080.5,-266.5 945.5,-266.5"/>
<text text-anchor="middle" x="1013" y="-273.5" font-family="Helvetica,sans-Serif" font-size="10.00">ramses::SplineStepFloat</text>
</a>
</g>
</g>
<!-- Node1&#45;&gt;Node24 -->
<g id="edge23" class="edge">
<title>Node1&#45;&gt;Node24</title>
<path fill="none" stroke="midnightblue" d="M856.88,-446.35C864.11,-410.53 884.53,-334.66 933,-295 937.69,-291.16 943.04,-288.07 948.69,-285.59"/>
<polygon fill="midnightblue" stroke="midnightblue" points="853.38,-446 854.98,-456.48 860.26,-447.3 853.38,-446"/>
</g>
<!-- Node25 -->
<g id="node25" class="node">
<title>Node25</title>
<g id="a_node25"><a xlink:href="classramses_1_1SplineStepInt32.html" target="_top" xlink:title="The SplineStepInt32 stores spline keys of type int32_t that can be used for animation with step inter...">
<polygon fill="white" stroke="black" points="945.5,-228.5 945.5,-247.5 1080.5,-247.5 1080.5,-228.5 945.5,-228.5"/>
<text text-anchor="middle" x="1013" y="-235.5" font-family="Helvetica,sans-Serif" font-size="10.00">ramses::SplineStepInt32</text>
</a>
</g>
</g>
<!-- Node1&#45;&gt;Node25 -->
<g id="edge24" class="edge">
<title>Node1&#45;&gt;Node25</title>
<path fill="none" stroke="midnightblue" d="M855.04,-446.14C859.39,-404.48 875.46,-307.64 933,-257 937.34,-253.18 942.32,-250.09 947.62,-247.61"/>
<polygon fill="midnightblue" stroke="midnightblue" points="851.54,-446.07 854.11,-456.34 858.51,-446.71 851.54,-446.07"/>
</g>
<!-- Node26 -->
<g id="node26" class="node">
<title>Node26</title>
<g id="a_node26"><a xlink:href="classramses_1_1SplineStepVector2f.html" target="_top" xlink:title="The SplineStepVector2f stores spline keys of type Vector2f that can be used for animation with step i...">
<polygon fill="white" stroke="black" points="937.5,-190.5 937.5,-209.5 1088.5,-209.5 1088.5,-190.5 937.5,-190.5"/>
<text text-anchor="middle" x="1013" y="-197.5" font-family="Helvetica,sans-Serif" font-size="10.00">ramses::SplineStepVector2f</text>
</a>
</g>
</g>
<!-- Node1&#45;&gt;Node26 -->
<g id="edge25" class="edge">
<title>Node1&#45;&gt;Node26</title>
<path fill="none" stroke="midnightblue" d="M853.69,-446.47C855.27,-399.8 866.02,-281.11 933,-219 937.14,-215.16 941.91,-212.06 947.02,-209.56"/>
<polygon fill="midnightblue" stroke="midnightblue" points="850.2,-446.39 853.47,-456.47 857.19,-446.55 850.2,-446.39"/>
</g>
<!-- Node27 -->
<g id="node27" class="node">
<title>Node27</title>
<g id="a_node27"><a xlink:href="classramses_1_1SplineStepVector2i.html" target="_top" xlink:title="The SplineStepVector2i stores spline keys of type Vector2i that can be used for animation with step i...">
<polygon fill="white" stroke="black" points="938,-152.5 938,-171.5 1088,-171.5 1088,-152.5 938,-152.5"/>
<text text-anchor="middle" x="1013" y="-159.5" font-family="Helvetica,sans-Serif" font-size="10.00">ramses::SplineStepVector2i</text>
</a>
</g>
</g>
<!-- Node1&#45;&gt;Node27 -->
<g id="edge26" class="edge">
<title>Node1&#45;&gt;Node27</title>
<path fill="none" stroke="midnightblue" d="M852.7,-446.33C851.75,-394.77 856.7,-254.6 933,-181 936.96,-177.18 941.55,-174.08 946.48,-171.58"/>
<polygon fill="midnightblue" stroke="midnightblue" points="849.21,-446.55 852.99,-456.44 856.2,-446.35 849.21,-446.55"/>
</g>
<!-- Node28 -->
<g id="node28" class="node">
<title>Node28</title>
<g id="a_node28"><a xlink:href="classramses_1_1SplineStepVector3f.html" target="_top" xlink:title="The SplineStepVector3f stores spline keys of type Vector3f that can be used for animation with step i...">
<polygon fill="white" stroke="black" points="937.5,-114.5 937.5,-133.5 1088.5,-133.5 1088.5,-114.5 937.5,-114.5"/>
<text text-anchor="middle" x="1013" y="-121.5" font-family="Helvetica,sans-Serif" font-size="10.00">ramses::SplineStepVector3f</text>
</a>
</g>
</g>
<!-- Node1&#45;&gt;Node28 -->
<g id="edge27" class="edge">
<title>Node1&#45;&gt;Node28</title>
<path fill="none" stroke="midnightblue" d="M855.71,-446.02C863.14,-382.46 889.25,-186.52 933,-143 936.8,-139.22 941.21,-136.14 945.97,-133.64"/>
<polygon fill="midnightblue" stroke="midnightblue" points="852.2,-445.95 854.54,-456.28 859.15,-446.75 852.2,-445.95"/>
</g>
<!-- Node29 -->
<g id="node29" class="node">
<title>Node29</title>
<g id="a_node29"><a xlink:href="classramses_1_1SplineStepVector3i.html" target="_top" xlink:title="The SplineStepVector3i stores spline keys of type Vector3i that can be used for animation with step i...">
<polygon fill="white" stroke="black" points="938,-76.5 938,-95.5 1088,-95.5 1088,-76.5 938,-76.5"/>
<text text-anchor="middle" x="1013" y="-83.5" font-family="Helvetica,sans-Serif" font-size="10.00">ramses::SplineStepVector3i</text>
</a>
</g>
</g>
<!-- Node1&#45;&gt;Node29 -->
<g id="edge28" class="edge">
<title>Node1&#45;&gt;Node29</title>
<path fill="none" stroke="midnightblue" d="M855.16,-445.94C861.23,-377.47 884.46,-154.48 933,-105 936.75,-101.17 941.13,-98.06 945.87,-95.54"/>
<polygon fill="midnightblue" stroke="midnightblue" points="851.65,-445.95 854.28,-456.21 858.62,-446.55 851.65,-445.95"/>
</g>
<!-- Node30 -->
<g id="node30" class="node">
<title>Node30</title>
<g id="a_node30"><a xlink:href="classramses_1_1SplineStepVector4f.html" target="_top" xlink:title="The SplineStepVector4f stores spline keys of type Vector4f that can be used for animation with step i...">
<polygon fill="white" stroke="black" points="937.5,-38.5 937.5,-57.5 1088.5,-57.5 1088.5,-38.5 937.5,-38.5"/>
<text text-anchor="middle" x="1013" y="-45.5" font-family="Helvetica,sans-Serif" font-size="10.00">ramses::SplineStepVector4f</text>
</a>
</g>
</g>
<!-- Node1&#45;&gt;Node30 -->
<g id="edge29" class="edge">
<title>Node1&#45;&gt;Node30</title>
<path fill="none" stroke="midnightblue" d="M854.69,-446.23C859.45,-373.55 879.56,-122.58 933,-67 936.62,-63.24 940.84,-60.17 945.42,-57.66"/>
<polygon fill="midnightblue" stroke="midnightblue" points="851.19,-446.1 854.05,-456.3 858.17,-446.54 851.19,-446.1"/>
</g>
<!-- Node31 -->
<g id="node31" class="node">
<title>Node31</title>
<g id="a_node31"><a xlink:href="classramses_1_1SplineStepVector4i.html" target="_top" xlink:title="The SplineStepVector4i stores spline keys of type Vector4i that can be used for animation with step i...">
<polygon fill="white" stroke="black" points="938,-0.5 938,-19.5 1088,-19.5 1088,-0.5 938,-0.5"/>
<text text-anchor="middle" x="1013" y="-7.5" font-family="Helvetica,sans-Serif" font-size="10.00">ramses::SplineStepVector4i</text>
</a>
</g>
</g>
<!-- Node1&#45;&gt;Node31 -->
<g id="edge30" class="edge">
<title>Node1&#45;&gt;Node31</title>
<path fill="none" stroke="midnightblue" d="M854.33,-445.87C857.94,-368.36 874.8,-90.56 933,-29 936.59,-25.21 940.79,-22.11 945.35,-19.6"/>
<polygon fill="midnightblue" stroke="midnightblue" points="850.82,-446.02 853.88,-456.16 857.81,-446.33 850.82,-446.02"/>
</g>
<!-- Node2 -->
<g id="node2" class="node">
<title>Node2</title>
<g id="a_node2"><a xlink:href="classramses_1_1AnimationObject.html" target="_top" xlink:title="The AnimationObject is a base class for all client API objects owned by an AnimationSystem.">
<polygon fill="white" stroke="black" points="632,-456.5 632,-475.5 772,-475.5 772,-456.5 632,-456.5"/>
<text text-anchor="middle" x="702" y="-463.5" font-family="Helvetica,sans-Serif" font-size="10.00">ramses::AnimationObject</text>
</a>
</g>
</g>
<!-- Node2&#45;&gt;Node1 -->
<g id="edge1" class="edge">
<title>Node2&#45;&gt;Node1</title>
<path fill="none" stroke="midnightblue" d="M782.27,-466C790.99,-466 799.6,-466 807.65,-466"/>
<polygon fill="midnightblue" stroke="midnightblue" points="782.03,-462.5 772.03,-466 782.03,-469.5 782.03,-462.5"/>
</g>
<!-- Node3 -->
<g id="node3" class="node">
<title>Node3</title>
<g id="a_node3"><a xlink:href="classramses_1_1SceneObject.html" target="_top" xlink:title="The SceneObject is a base class for all client API objects owned by a Scene.">
<polygon fill="white" stroke="black" points="477,-456.5 477,-475.5 596,-475.5 596,-456.5 477,-456.5"/>
<text text-anchor="middle" x="536.5" y="-463.5" font-family="Helvetica,sans-Serif" font-size="10.00">ramses::SceneObject</text>
</a>
</g>
</g>
<!-- Node3&#45;&gt;Node2 -->
<g id="edge2" class="edge">
<title>Node3&#45;&gt;Node2</title>
<path fill="none" stroke="midnightblue" d="M606.3,-466C614.79,-466 623.48,-466 631.97,-466"/>
<polygon fill="midnightblue" stroke="midnightblue" points="606.07,-462.5 596.07,-466 606.07,-469.5 606.07,-462.5"/>
</g>
<!-- Node4 -->
<g id="node4" class="node">
<title>Node4</title>
<g id="a_node4"><a xlink:href="classramses_1_1ClientObject.html" target="_top" xlink:title="The ClientObject is a base class for all client API objects owned by a RamsesClient.">
<polygon fill="white" stroke="black" points="322,-456.5 322,-475.5 441,-475.5 441,-456.5 322,-456.5"/>
<text text-anchor="middle" x="381.5" y="-463.5" font-family="Helvetica,sans-Serif" font-size="10.00">ramses::ClientObject</text>
</a>
</g>
</g>
<!-- Node4&#45;&gt;Node3 -->
<g id="edge3" class="edge">
<title>Node4&#45;&gt;Node3</title>
<path fill="none" stroke="midnightblue" d="M451.49,-466C459.99,-466 468.62,-466 476.94,-466"/>
<polygon fill="midnightblue" stroke="midnightblue" points="451.22,-462.5 441.22,-466 451.22,-469.5 451.22,-462.5"/>
</g>
<!-- Node5 -->
<g id="node5" class="node">
<title>Node5</title>
<g id="a_node5"><a xlink:href="classramses_1_1RamsesObject.html" target="_top" xlink:title="The RamsesObject is a base class for all client API objects owned by the framework.">
<polygon fill="white" stroke="black" points="157,-456.5 157,-475.5 286,-475.5 286,-456.5 157,-456.5"/>
<text text-anchor="middle" x="221.5" y="-463.5" font-family="Helvetica,sans-Serif" font-size="10.00">ramses::RamsesObject</text>
</a>
</g>
</g>
<!-- Node5&#45;&gt;Node4 -->
<g id="edge4" class="edge">
<title>Node5&#45;&gt;Node4</title>
<path fill="none" stroke="midnightblue" d="M296.57,-466C305.04,-466 313.59,-466 321.81,-466"/>
<polygon fill="midnightblue" stroke="midnightblue" points="296.31,-462.5 286.31,-466 296.31,-469.5 296.31,-462.5"/>
</g>
<!-- Node6 -->
<g id="node6" class="node">
<title>Node6</title>
<g id="a_node6"><a xlink:href="classramses_1_1StatusObject.html" target="_top" xlink:title="The StatusObject provides status message handling.">
<polygon fill="white" stroke="black" points="0,-456.5 0,-475.5 121,-475.5 121,-456.5 0,-456.5"/>
<text text-anchor="middle" x="60.5" y="-463.5" font-family="Helvetica,sans-Serif" font-size="10.00">ramses::StatusObject</text>
</a>
</g>
</g>
<!-- Node6&#45;&gt;Node5 -->
<g id="edge5" class="edge">
<title>Node6&#45;&gt;Node5</title>
<path fill="none" stroke="midnightblue" d="M131.37,-466C139.82,-466 148.43,-466 156.78,-466"/>
<polygon fill="midnightblue" stroke="midnightblue" points="131.16,-462.5 121.16,-466 131.16,-469.5 131.16,-462.5"/>
</g>
</g>
</svg>
