<?xml version="1.0" encoding="UTF-8" standalone="no"?>
<!DOCTYPE svg PUBLIC "-//W3C//DTD SVG 1.1//EN"
 "http://www.w3.org/Graphics/SVG/1.1/DTD/svg11.dtd">
<!-- Generated by graphviz version 2.40.1 (20161225.0304)
 -->
<!-- Title: ramses::Camera Pages: 1 -->
<svg width="312pt" height="364pt"
 viewBox="0.00 0.00 312.00 364.00" xmlns="http://www.w3.org/2000/svg" xmlns:xlink="http://www.w3.org/1999/xlink">
<g id="graph0" class="graph" transform="scale(1 1) rotate(0) translate(4 360)">
<title>ramses::Camera</title>
<polygon fill="#ffffff" stroke="transparent" points="-4,4 -4,-360 308,-360 308,4 -4,4"/>
<!-- Node0 -->
<g id="node1" class="node">
<title>Node0</title>
<polygon fill="#bfbfbf" stroke="#000000" points="108,-56.5 108,-75.5 197,-75.5 197,-56.5 108,-56.5"/>
<text text-anchor="middle" x="152.5" y="-63.5" font-family="Helvetica,sans-Serif" font-size="10.00" fill="#000000">ramses::Camera</text>
</g>
<!-- Node6 -->
<g id="node7" class="node">
<title>Node6</title>
<g id="a_node7"><a xlink:href="classramses_1_1OrthographicCamera.html" target="_top" xlink:title="The OrthographicCamera is a local camera which defines an orthographic view into the scene...">
<polygon fill="#ffffff" stroke="#000000" points="0,-.5 0,-19.5 145,-19.5 145,-.5 0,-.5"/>
<text text-anchor="middle" x="72.5" y="-7.5" font-family="Helvetica,sans-Serif" font-size="10.00" fill="#000000">ramses::OrthographicCamera</text>
</a>
</g>
</g>
<!-- Node0&#45;&gt;Node6 -->
<g id="edge6" class="edge">
<title>Node0&#45;&gt;Node6</title>
<path fill="none" stroke="#191970" d="M130.3429,-50.49C116.228,-40.6096 98.3849,-28.1194 86.2752,-19.6427"/>
<polygon fill="#191970" stroke="#191970" points="128.3656,-53.3782 138.5651,-56.2455 132.3799,-47.6436 128.3656,-53.3782"/>
</g>
<!-- Node7 -->
<g id="node8" class="node">
<title>Node7</title>
<g id="a_node8"><a xlink:href="classramses_1_1PerspectiveCamera.html" target="_top" xlink:title="The PerspectiveCamera is a local camera which defines a perspective view into the scene...">
<polygon fill="#ffffff" stroke="#000000" points="163,-.5 163,-19.5 304,-19.5 304,-.5 163,-.5"/>
<text text-anchor="middle" x="233.5" y="-7.5" font-family="Helvetica,sans-Serif" font-size="10.00" fill="#000000">ramses::PerspectiveCamera</text>
</a>
</g>
</g>
<!-- Node0&#45;&gt;Node7 -->
<g id="edge7" class="edge">
<title>Node0&#45;&gt;Node7</title>
<path fill="none" stroke="#191970" d="M174.934,-50.49C189.2254,-40.6096 207.2916,-28.1194 219.5526,-19.6427"/>
<polygon fill="#191970" stroke="#191970" points="172.8443,-47.6797 166.6091,-56.2455 176.8251,-53.4376 172.8443,-47.6797"/>
</g>
<!-- Node1 -->
<g id="node2" class="node">
<title>Node1</title>
<g id="a_node2"><a xlink:href="classramses_1_1Node.html" target="_top" xlink:title="The Node is the base class of all nodes and provides scene graph functionality which propagates to it...">
<polygon fill="#ffffff" stroke="#000000" points="113.5,-112.5 113.5,-131.5 191.5,-131.5 191.5,-112.5 113.5,-112.5"/>
<text text-anchor="middle" x="152.5" y="-119.5" font-family="Helvetica,sans-Serif" font-size="10.00" fill="#000000">ramses::Node</text>
</a>
</g>
</g>
<!-- Node1&#45;&gt;Node0 -->
<g id="edge1" class="edge">
<title>Node1&#45;&gt;Node0</title>
<path fill="none" stroke="#191970" d="M152.5,-102.1575C152.5,-93.155 152.5,-82.9199 152.5,-75.6427"/>
<polygon fill="#191970" stroke="#191970" points="149.0001,-102.2455 152.5,-112.2455 156.0001,-102.2456 149.0001,-102.2455"/>
</g>
<!-- Node2 -->
<g id="node3" class="node">
<title>Node2</title>
<g id="a_node3"><a xlink:href="classramses_1_1SceneObject.html" target="_top" xlink:title="The SceneObject is a base class for all client API objects owned by a Scene. ">
<polygon fill="#ffffff" stroke="#000000" points="97,-168.5 97,-187.5 208,-187.5 208,-168.5 97,-168.5"/>
<text text-anchor="middle" x="152.5" y="-175.5" font-family="Helvetica,sans-Serif" font-size="10.00" fill="#000000">ramses::SceneObject</text>
</a>
</g>
</g>
<!-- Node2&#45;&gt;Node1 -->
<g id="edge2" class="edge">
<title>Node2&#45;&gt;Node1</title>
<path fill="none" stroke="#191970" d="M152.5,-158.1575C152.5,-149.155 152.5,-138.9199 152.5,-131.6427"/>
<polygon fill="#191970" stroke="#191970" points="149.0001,-158.2455 152.5,-168.2455 156.0001,-158.2456 149.0001,-158.2455"/>
</g>
<!-- Node3 -->
<g id="node4" class="node">
<title>Node3</title>
<g id="a_node4"><a xlink:href="classramses_1_1ClientObject.html" target="_top" xlink:title="The ClientObject is a base class for all client API objects owned by a RamsesClient. ">
<polygon fill="#ffffff" stroke="#000000" points="98,-224.5 98,-243.5 207,-243.5 207,-224.5 98,-224.5"/>
<text text-anchor="middle" x="152.5" y="-231.5" font-family="Helvetica,sans-Serif" font-size="10.00" fill="#000000">ramses::ClientObject</text>
</a>
</g>
</g>
<!-- Node3&#45;&gt;Node2 -->
<g id="edge3" class="edge">
<title>Node3&#45;&gt;Node2</title>
<path fill="none" stroke="#191970" d="M152.5,-214.1575C152.5,-205.155 152.5,-194.9199 152.5,-187.6427"/>
<polygon fill="#191970" stroke="#191970" points="149.0001,-214.2455 152.5,-224.2455 156.0001,-214.2456 149.0001,-214.2455"/>
</g>
<!-- Node4 -->
<g id="node5" class="node">
<title>Node4</title>
<g id="a_node5"><a xlink:href="classramses_1_1RamsesObject.html" target="_top" xlink:title="The RamsesObject is a base class for all client API objects owned by the framework. ">
<polygon fill="#ffffff" stroke="#000000" points="92.5,-280.5 92.5,-299.5 212.5,-299.5 212.5,-280.5 92.5,-280.5"/>
<text text-anchor="middle" x="152.5" y="-287.5" font-family="Helvetica,sans-Serif" font-size="10.00" fill="#000000">ramses::RamsesObject</text>
</a>
</g>
</g>
<!-- Node4&#45;&gt;Node3 -->
<g id="edge4" class="edge">
<title>Node4&#45;&gt;Node3</title>
<path fill="none" stroke="#191970" d="M152.5,-270.1575C152.5,-261.155 152.5,-250.9199 152.5,-243.6427"/>
<polygon fill="#191970" stroke="#191970" points="149.0001,-270.2455 152.5,-280.2455 156.0001,-270.2456 149.0001,-270.2455"/>
</g>
<!-- Node5 -->
<g id="node6" class="node">
<title>Node5</title>
<g id="a_node6"><a xlink:href="classramses_1_1StatusObject.html" target="_top" xlink:title="The StatusObject provides status message handling. ">
<polygon fill="#ffffff" stroke="#000000" points="96.5,-336.5 96.5,-355.5 208.5,-355.5 208.5,-336.5 96.5,-336.5"/>
<text text-anchor="middle" x="152.5" y="-343.5" font-family="Helvetica,sans-Serif" font-size="10.00" fill="#000000">ramses::StatusObject</text>
</a>
</g>
</g>
<!-- Node5&#45;&gt;Node4 -->
<g id="edge5" class="edge">
<title>Node5&#45;&gt;Node4</title>
<path fill="none" stroke="#191970" d="M152.5,-326.1575C152.5,-317.155 152.5,-306.9199 152.5,-299.6427"/>
<polygon fill="#191970" stroke="#191970" points="149.0001,-326.2455 152.5,-336.2455 156.0001,-326.2456 149.0001,-326.2455"/>
</g>
</g>
</svg>
