<?xml version="1.0" encoding="UTF-8" standalone="no"?>
<!DOCTYPE svg PUBLIC "-//W3C//DTD SVG 1.1//EN"
 "http://www.w3.org/Graphics/SVG/1.1/DTD/svg11.dtd">
<!-- Generated by graphviz version 2.40.1 (20161225.0304)
 -->
<!-- Title: ramses::PerspectiveCamera Pages: 1 -->
<svg width="149pt" height="364pt"
 viewBox="0.00 0.00 149.00 364.00" xmlns="http://www.w3.org/2000/svg" xmlns:xlink="http://www.w3.org/1999/xlink">
<g id="graph0" class="graph" transform="scale(1 1) rotate(0) translate(4 360)">
<title>ramses::PerspectiveCamera</title>
<polygon fill="#ffffff" stroke="transparent" points="-4,4 -4,-360 145,-360 145,4 -4,4"/>
<!-- Node7 -->
<g id="node1" class="node">
<title>Node7</title>
<polygon fill="#bfbfbf" stroke="#000000" points="0,-.5 0,-19.5 141,-19.5 141,-.5 0,-.5"/>
<text text-anchor="middle" x="70.5" y="-7.5" font-family="Helvetica,sans-Serif" font-size="10.00" fill="#000000">ramses::PerspectiveCamera</text>
</g>
<!-- Node8 -->
<g id="node2" class="node">
<title>Node8</title>
<g id="a_node2"><a xlink:href="classramses_1_1Camera.html" target="_top" xlink:title="The Camera base class is part of a scene and defines a view into the scene defined by the client appl...">
<polygon fill="#ffffff" stroke="#000000" points="26,-56.5 26,-75.5 115,-75.5 115,-56.5 26,-56.5"/>
<text text-anchor="middle" x="70.5" y="-63.5" font-family="Helvetica,sans-Serif" font-size="10.00" fill="#000000">ramses::Camera</text>
</a>
</g>
</g>
<!-- Node8&#45;&gt;Node7 -->
<g id="edge1" class="edge">
<title>Node8&#45;&gt;Node7</title>
<path fill="none" stroke="#191970" d="M70.5,-46.1575C70.5,-37.155 70.5,-26.9199 70.5,-19.6427"/>
<polygon fill="#191970" stroke="#191970" points="67.0001,-46.2455 70.5,-56.2455 74.0001,-46.2456 67.0001,-46.2455"/>
</g>
<!-- Node9 -->
<g id="node3" class="node">
<title>Node9</title>
<g id="a_node3"><a xlink:href="classramses_1_1Node.html" target="_top" xlink:title="The Node is the base class of all nodes and provides scene graph functionality which propagates to it...">
<polygon fill="#ffffff" stroke="#000000" points="31.5,-112.5 31.5,-131.5 109.5,-131.5 109.5,-112.5 31.5,-112.5"/>
<text text-anchor="middle" x="70.5" y="-119.5" font-family="Helvetica,sans-Serif" font-size="10.00" fill="#000000">ramses::Node</text>
</a>
</g>
</g>
<!-- Node9&#45;&gt;Node8 -->
<g id="edge2" class="edge">
<title>Node9&#45;&gt;Node8</title>
<path fill="none" stroke="#191970" d="M70.5,-102.1575C70.5,-93.155 70.5,-82.9199 70.5,-75.6427"/>
<polygon fill="#191970" stroke="#191970" points="67.0001,-102.2455 70.5,-112.2455 74.0001,-102.2456 67.0001,-102.2455"/>
</g>
<!-- Node10 -->
<g id="node4" class="node">
<title>Node10</title>
<g id="a_node4"><a xlink:href="classramses_1_1SceneObject.html" target="_top" xlink:title="The SceneObject is a base class for all client API objects owned by a Scene. ">
<polygon fill="#ffffff" stroke="#000000" points="15,-168.5 15,-187.5 126,-187.5 126,-168.5 15,-168.5"/>
<text text-anchor="middle" x="70.5" y="-175.5" font-family="Helvetica,sans-Serif" font-size="10.00" fill="#000000">ramses::SceneObject</text>
</a>
</g>
</g>
<!-- Node10&#45;&gt;Node9 -->
<g id="edge3" class="edge">
<title>Node10&#45;&gt;Node9</title>
<path fill="none" stroke="#191970" d="M70.5,-158.1575C70.5,-149.155 70.5,-138.9199 70.5,-131.6427"/>
<polygon fill="#191970" stroke="#191970" points="67.0001,-158.2455 70.5,-168.2455 74.0001,-158.2456 67.0001,-158.2455"/>
</g>
<!-- Node11 -->
<g id="node5" class="node">
<title>Node11</title>
<g id="a_node5"><a xlink:href="classramses_1_1ClientObject.html" target="_top" xlink:title="The ClientObject is a base class for all client API objects owned by a RamsesClient. ">
<polygon fill="#ffffff" stroke="#000000" points="16,-224.5 16,-243.5 125,-243.5 125,-224.5 16,-224.5"/>
<text text-anchor="middle" x="70.5" y="-231.5" font-family="Helvetica,sans-Serif" font-size="10.00" fill="#000000">ramses::ClientObject</text>
</a>
</g>
</g>
<!-- Node11&#45;&gt;Node10 -->
<g id="edge4" class="edge">
<title>Node11&#45;&gt;Node10</title>
<path fill="none" stroke="#191970" d="M70.5,-214.1575C70.5,-205.155 70.5,-194.9199 70.5,-187.6427"/>
<polygon fill="#191970" stroke="#191970" points="67.0001,-214.2455 70.5,-224.2455 74.0001,-214.2456 67.0001,-214.2455"/>
</g>
<!-- Node12 -->
<g id="node6" class="node">
<title>Node12</title>
<g id="a_node6"><a xlink:href="classramses_1_1RamsesObject.html" target="_top" xlink:title="The RamsesObject is a base class for all client API objects owned by the framework. ">
<polygon fill="#ffffff" stroke="#000000" points="10.5,-280.5 10.5,-299.5 130.5,-299.5 130.5,-280.5 10.5,-280.5"/>
<text text-anchor="middle" x="70.5" y="-287.5" font-family="Helvetica,sans-Serif" font-size="10.00" fill="#000000">ramses::RamsesObject</text>
</a>
</g>
</g>
<!-- Node12&#45;&gt;Node11 -->
<g id="edge5" class="edge">
<title>Node12&#45;&gt;Node11</title>
<path fill="none" stroke="#191970" d="M70.5,-270.1575C70.5,-261.155 70.5,-250.9199 70.5,-243.6427"/>
<polygon fill="#191970" stroke="#191970" points="67.0001,-270.2455 70.5,-280.2455 74.0001,-270.2456 67.0001,-270.2455"/>
</g>
<!-- Node13 -->
<g id="node7" class="node">
<title>Node13</title>
<g id="a_node7"><a xlink:href="classramses_1_1StatusObject.html" target="_top" xlink:title="The StatusObject provides status message handling. ">
<polygon fill="#ffffff" stroke="#000000" points="14.5,-336.5 14.5,-355.5 126.5,-355.5 126.5,-336.5 14.5,-336.5"/>
<text text-anchor="middle" x="70.5" y="-343.5" font-family="Helvetica,sans-Serif" font-size="10.00" fill="#000000">ramses::StatusObject</text>
</a>
</g>
</g>
<!-- Node13&#45;&gt;Node12 -->
<g id="edge6" class="edge">
<title>Node13&#45;&gt;Node12</title>
<path fill="none" stroke="#191970" d="M70.5,-326.1575C70.5,-317.155 70.5,-306.9199 70.5,-299.6427"/>
<polygon fill="#191970" stroke="#191970" points="67.0001,-326.2455 70.5,-336.2455 74.0001,-326.2456 67.0001,-326.2455"/>
</g>
</g>
</svg>
