<?xml version="1.0" encoding="UTF-8" standalone="no"?>
<!DOCTYPE svg PUBLIC "-//W3C//DTD SVG 1.1//EN"
 "http://www.w3.org/Graphics/SVG/1.1/DTD/svg11.dtd">
<!-- Generated by graphviz version 2.40.1 (20161225.0304)
 -->
<!-- Title: ramses::AnimationSystem Pages: 1 -->
<svg width="140pt" height="252pt"
 viewBox="0.00 0.00 140.00 252.00" xmlns="http://www.w3.org/2000/svg" xmlns:xlink="http://www.w3.org/1999/xlink">
<g id="graph0" class="graph" transform="scale(1 1) rotate(0) translate(4 248)">
<title>ramses::AnimationSystem</title>
<polygon fill="#ffffff" stroke="transparent" points="-4,4 -4,-248 136,-248 136,4 -4,4"/>
<!-- Node6 -->
<g id="node1" class="node">
<title>Node6</title>
<polygon fill="#bfbfbf" stroke="#000000" points="0,-.5 0,-19.5 132,-19.5 132,-.5 0,-.5"/>
<text text-anchor="middle" x="66" y="-7.5" font-family="Helvetica,sans-Serif" font-size="10.00" fill="#000000">ramses::AnimationSystem</text>
</g>
<!-- Node7 -->
<g id="node2" class="node">
<title>Node7</title>
<g id="a_node2"><a xlink:href="classramses_1_1SceneObject.html" target="_top" xlink:title="The SceneObject is a base class for all client API objects owned by a Scene. ">
<polygon fill="#ffffff" stroke="#000000" points="10.5,-56.5 10.5,-75.5 121.5,-75.5 121.5,-56.5 10.5,-56.5"/>
<text text-anchor="middle" x="66" y="-63.5" font-family="Helvetica,sans-Serif" font-size="10.00" fill="#000000">ramses::SceneObject</text>
</a>
</g>
</g>
<!-- Node7&#45;&gt;Node6 -->
<g id="edge1" class="edge">
<title>Node7&#45;&gt;Node6</title>
<path fill="none" stroke="#191970" d="M66,-46.1575C66,-37.155 66,-26.9199 66,-19.6427"/>
<polygon fill="#191970" stroke="#191970" points="62.5001,-46.2455 66,-56.2455 69.5001,-46.2456 62.5001,-46.2455"/>
</g>
<!-- Node8 -->
<g id="node3" class="node">
<title>Node8</title>
<g id="a_node3"><a xlink:href="classramses_1_1ClientObject.html" target="_top" xlink:title="The ClientObject is a base class for all client API objects owned by a RamsesClient. ">
<polygon fill="#ffffff" stroke="#000000" points="11.5,-112.5 11.5,-131.5 120.5,-131.5 120.5,-112.5 11.5,-112.5"/>
<text text-anchor="middle" x="66" y="-119.5" font-family="Helvetica,sans-Serif" font-size="10.00" fill="#000000">ramses::ClientObject</text>
</a>
</g>
</g>
<!-- Node8&#45;&gt;Node7 -->
<g id="edge2" class="edge">
<title>Node8&#45;&gt;Node7</title>
<path fill="none" stroke="#191970" d="M66,-102.1575C66,-93.155 66,-82.9199 66,-75.6427"/>
<polygon fill="#191970" stroke="#191970" points="62.5001,-102.2455 66,-112.2455 69.5001,-102.2456 62.5001,-102.2455"/>
</g>
<!-- Node9 -->
<g id="node4" class="node">
<title>Node9</title>
<g id="a_node4"><a xlink:href="classramses_1_1RamsesObject.html" target="_top" xlink:title="The RamsesObject is a base class for all client API objects owned by the framework. ">
<polygon fill="#ffffff" stroke="#000000" points="6,-168.5 6,-187.5 126,-187.5 126,-168.5 6,-168.5"/>
<text text-anchor="middle" x="66" y="-175.5" font-family="Helvetica,sans-Serif" font-size="10.00" fill="#000000">ramses::RamsesObject</text>
</a>
</g>
</g>
<!-- Node9&#45;&gt;Node8 -->
<g id="edge3" class="edge">
<title>Node9&#45;&gt;Node8</title>
<path fill="none" stroke="#191970" d="M66,-158.1575C66,-149.155 66,-138.9199 66,-131.6427"/>
<polygon fill="#191970" stroke="#191970" points="62.5001,-158.2455 66,-168.2455 69.5001,-158.2456 62.5001,-158.2455"/>
</g>
<!-- Node10 -->
<g id="node5" class="node">
<title>Node10</title>
<g id="a_node5"><a xlink:href="classramses_1_1StatusObject.html" target="_top" xlink:title="The StatusObject provides status message handling. ">
<polygon fill="#ffffff" stroke="#000000" points="10,-224.5 10,-243.5 122,-243.5 122,-224.5 10,-224.5"/>
<text text-anchor="middle" x="66" y="-231.5" font-family="Helvetica,sans-Serif" font-size="10.00" fill="#000000">ramses::StatusObject</text>
</a>
</g>
</g>
<!-- Node10&#45;&gt;Node9 -->
<g id="edge4" class="edge">
<title>Node10&#45;&gt;Node9</title>
<path fill="none" stroke="#191970" d="M66,-214.1575C66,-205.155 66,-194.9199 66,-187.6427"/>
<polygon fill="#191970" stroke="#191970" points="62.5001,-214.2455 66,-224.2455 69.5001,-214.2456 62.5001,-214.2455"/>
</g>
</g>
</svg>
