<?xml version="1.0" encoding="UTF-8" standalone="no"?>
<!DOCTYPE svg PUBLIC "-//W3C//DTD SVG 1.1//EN"
 "http://www.w3.org/Graphics/SVG/1.1/DTD/svg11.dtd">
<!-- Generated by graphviz version 2.43.0 (0)
 -->
<!-- Title: ramses::RenderTarget Pages: 1 -->
<svg width="137pt" height="252pt"
 viewBox="0.00 0.00 137.00 252.00" xmlns="http://www.w3.org/2000/svg" xmlns:xlink="http://www.w3.org/1999/xlink">
<g id="graph0" class="graph" transform="scale(1 1) rotate(0) translate(4 248)">
<title>ramses::RenderTarget</title>
<polygon fill="white" stroke="transparent" points="-4,4 -4,-248 133,-248 133,4 -4,4"/>
<!-- Node1 -->
<g id="node1" class="node">
<title>Node1</title>
<g id="a_node1"><a xlink:title="The RenderTarget can be used as an output for a RenderPass.">
<polygon fill="#bfbfbf" stroke="black" points="3,-0.5 3,-19.5 126,-19.5 126,-0.5 3,-0.5"/>
<text text-anchor="middle" x="64.5" y="-7.5" font-family="Helvetica,sans-Serif" font-size="10.00">ramses::RenderTarget</text>
</a>
</g>
</g>
<!-- Node2 -->
<g id="node2" class="node">
<title>Node2</title>
<g id="a_node2"><a xlink:href="classramses_1_1SceneObject.html" target="_top" xlink:title="The SceneObject is a base class for all client API objects owned by a Scene.">
<polygon fill="white" stroke="black" points="5,-56.5 5,-75.5 124,-75.5 124,-56.5 5,-56.5"/>
<text text-anchor="middle" x="64.5" y="-63.5" font-family="Helvetica,sans-Serif" font-size="10.00">ramses::SceneObject</text>
</a>
</g>
</g>
<!-- Node2&#45;&gt;Node1 -->
<g id="edge1" class="edge">
<title>Node2&#45;&gt;Node1</title>
<path fill="none" stroke="midnightblue" d="M64.5,-45.8C64.5,-36.91 64.5,-26.78 64.5,-19.75"/>
<polygon fill="midnightblue" stroke="midnightblue" points="61,-46.08 64.5,-56.08 68,-46.08 61,-46.08"/>
</g>
<!-- Node3 -->
<g id="node3" class="node">
<title>Node3</title>
<g id="a_node3"><a xlink:href="classramses_1_1ClientObject.html" target="_top" xlink:title="The ClientObject is a base class for all client API objects owned by a RamsesClient.">
<polygon fill="white" stroke="black" points="5,-112.5 5,-131.5 124,-131.5 124,-112.5 5,-112.5"/>
<text text-anchor="middle" x="64.5" y="-119.5" font-family="Helvetica,sans-Serif" font-size="10.00">ramses::ClientObject</text>
</a>
</g>
</g>
<!-- Node3&#45;&gt;Node2 -->
<g id="edge2" class="edge">
<title>Node3&#45;&gt;Node2</title>
<path fill="none" stroke="midnightblue" d="M64.5,-101.8C64.5,-92.91 64.5,-82.78 64.5,-75.75"/>
<polygon fill="midnightblue" stroke="midnightblue" points="61,-102.08 64.5,-112.08 68,-102.08 61,-102.08"/>
</g>
<!-- Node4 -->
<g id="node4" class="node">
<title>Node4</title>
<g id="a_node4"><a xlink:href="classramses_1_1RamsesObject.html" target="_top" xlink:title="The RamsesObject is a base class for all client API objects owned by the framework.">
<polygon fill="white" stroke="black" points="0,-168.5 0,-187.5 129,-187.5 129,-168.5 0,-168.5"/>
<text text-anchor="middle" x="64.5" y="-175.5" font-family="Helvetica,sans-Serif" font-size="10.00">ramses::RamsesObject</text>
</a>
</g>
</g>
<!-- Node4&#45;&gt;Node3 -->
<g id="edge3" class="edge">
<title>Node4&#45;&gt;Node3</title>
<path fill="none" stroke="midnightblue" d="M64.5,-157.8C64.5,-148.91 64.5,-138.78 64.5,-131.75"/>
<polygon fill="midnightblue" stroke="midnightblue" points="61,-158.08 64.5,-168.08 68,-158.08 61,-158.08"/>
</g>
<!-- Node5 -->
<g id="node5" class="node">
<title>Node5</title>
<g id="a_node5"><a xlink:href="classramses_1_1StatusObject.html" target="_top" xlink:title="The StatusObject provides status message handling.">
<polygon fill="white" stroke="black" points="4,-224.5 4,-243.5 125,-243.5 125,-224.5 4,-224.5"/>
<text text-anchor="middle" x="64.5" y="-231.5" font-family="Helvetica,sans-Serif" font-size="10.00">ramses::StatusObject</text>
</a>
</g>
</g>
<!-- Node5&#45;&gt;Node4 -->
<g id="edge4" class="edge">
<title>Node5&#45;&gt;Node4</title>
<path fill="none" stroke="midnightblue" d="M64.5,-213.8C64.5,-204.91 64.5,-194.78 64.5,-187.75"/>
<polygon fill="midnightblue" stroke="midnightblue" points="61,-214.08 64.5,-224.08 68,-214.08 61,-214.08"/>
</g>
</g>
</svg>
