<?xml version="1.0" encoding="UTF-8" standalone="no"?>
<!DOCTYPE svg PUBLIC "-//W3C//DTD SVG 1.1//EN"
 "http://www.w3.org/Graphics/SVG/1.1/DTD/svg11.dtd">
<!-- Generated by graphviz version 2.40.1 (20161225.0304)
 -->
<!-- Title: ramses::DataObject Pages: 1 -->
<svg width="860pt" height="408pt"
 viewBox="0.00 0.00 860.00 408.00" xmlns="http://www.w3.org/2000/svg" xmlns:xlink="http://www.w3.org/1999/xlink">
<g id="graph0" class="graph" transform="scale(1 1) rotate(0) translate(4 404)">
<title>ramses::DataObject</title>
<polygon fill="#ffffff" stroke="transparent" points="-4,4 -4,-404 856,-404 856,4 -4,4"/>
<!-- Node0 -->
<g id="node1" class="node">
<title>Node0</title>
<polygon fill="#bfbfbf" stroke="#000000" points="596,-190.5 596,-209.5 700,-209.5 700,-190.5 596,-190.5"/>
<text text-anchor="middle" x="648" y="-197.5" font-family="Helvetica,sans-Serif" font-size="10.00" fill="#000000">ramses::DataObject</text>
</g>
<!-- Node5 -->
<g id="node6" class="node">
<title>Node5</title>
<g id="a_node6"><a xlink:href="classramses_1_1DataFloat.html" target="_top" xlink:title="The DataFloat data object stores a float value within a scene. ">
<polygon fill="#ffffff" stroke="#000000" points="745,-380.5 745,-399.5 843,-399.5 843,-380.5 745,-380.5"/>
<text text-anchor="middle" x="794" y="-387.5" font-family="Helvetica,sans-Serif" font-size="10.00" fill="#000000">ramses::DataFloat</text>
</a>
</g>
</g>
<!-- Node0&#45;&gt;Node5 -->
<g id="edge5" class="edge">
<title>Node0&#45;&gt;Node5</title>
<path fill="none" stroke="#191970" d="M652.8456,-219.8088C662.5318,-255.2744 687.6283,-329.7546 736,-371 740.5152,-374.85 745.8304,-377.9248 751.3795,-380.3793"/>
<polygon fill="#191970" stroke="#191970" points="656.1358,-218.5542 650.2322,-209.7565 649.361,-220.3155 656.1358,-218.5542"/>
</g>
<!-- Node6 -->
<g id="node7" class="node">
<title>Node6</title>
<g id="a_node7"><a xlink:href="classramses_1_1DataInt32.html" target="_top" xlink:title="The DataInt32 data object stores an 32&#45;bit integer value within a scene. ">
<polygon fill="#ffffff" stroke="#000000" points="745,-342.5 745,-361.5 843,-361.5 843,-342.5 745,-342.5"/>
<text text-anchor="middle" x="794" y="-349.5" font-family="Helvetica,sans-Serif" font-size="10.00" fill="#000000">ramses::DataInt32</text>
</a>
</g>
</g>
<!-- Node0&#45;&gt;Node6 -->
<g id="edge6" class="edge">
<title>Node0&#45;&gt;Node6</title>
<path fill="none" stroke="#191970" d="M655.6438,-218.9817C668.1805,-247.7689 695.8011,-302.3504 736,-333 741.0557,-336.8547 746.9276,-339.9462 752.9553,-342.4205"/>
<polygon fill="#191970" stroke="#191970" points="658.8157,-217.4955 651.7121,-209.635 652.3634,-220.2098 658.8157,-217.4955"/>
</g>
<!-- Node7 -->
<g id="node8" class="node">
<title>Node7</title>
<g id="a_node8"><a xlink:href="classramses_1_1DataMatrix22f.html" target="_top" xlink:title="The DataMatrix22f data object stores a matrix with 4 float components (2 rows, 2 columns) within a sc...">
<polygon fill="#ffffff" stroke="#000000" points="736,-304.5 736,-323.5 852,-323.5 852,-304.5 736,-304.5"/>
<text text-anchor="middle" x="794" y="-311.5" font-family="Helvetica,sans-Serif" font-size="10.00" fill="#000000">ramses::DataMatrix22f</text>
</a>
</g>
</g>
<!-- Node0&#45;&gt;Node7 -->
<g id="edge7" class="edge">
<title>Node0&#45;&gt;Node7</title>
<path fill="none" stroke="#191970" d="M660.2649,-218.0278C675.622,-239.3044 703.8513,-274.3891 736,-295 741.9765,-298.8316 748.7975,-301.959 755.6116,-304.4884"/>
<polygon fill="#191970" stroke="#191970" points="662.9387,-215.7455 654.3219,-209.5809 657.2137,-219.7735 662.9387,-215.7455"/>
</g>
<!-- Node8 -->
<g id="node9" class="node">
<title>Node8</title>
<g id="a_node9"><a xlink:href="classramses_1_1DataMatrix33f.html" target="_top" xlink:title="The DataMatrix33f data object stores a matrix with 9 float components (3 rows, 3 columns) within a sc...">
<polygon fill="#ffffff" stroke="#000000" points="736,-266.5 736,-285.5 852,-285.5 852,-266.5 736,-266.5"/>
<text text-anchor="middle" x="794" y="-273.5" font-family="Helvetica,sans-Serif" font-size="10.00" fill="#000000">ramses::DataMatrix33f</text>
</a>
</g>
</g>
<!-- Node0&#45;&gt;Node8 -->
<g id="edge8" class="edge">
<title>Node0&#45;&gt;Node8</title>
<path fill="none" stroke="#191970" d="M668.7321,-215.6307C686.0181,-228.1106 711.6633,-245.3736 736,-257 743.5532,-260.6084 751.968,-263.7991 759.9933,-266.4862"/>
<polygon fill="#191970" stroke="#191970" points="670.639,-212.6888 660.5057,-209.5957 666.4984,-218.3329 670.639,-212.6888"/>
</g>
<!-- Node9 -->
<g id="node10" class="node">
<title>Node9</title>
<g id="a_node10"><a xlink:href="classramses_1_1DataMatrix44f.html" target="_top" xlink:title="The DataMatrix44f data object stores a matrix with 16 float components (4 rows, 4 columns) within a s...">
<polygon fill="#ffffff" stroke="#000000" points="736,-228.5 736,-247.5 852,-247.5 852,-228.5 736,-228.5"/>
<text text-anchor="middle" x="794" y="-235.5" font-family="Helvetica,sans-Serif" font-size="10.00" fill="#000000">ramses::DataMatrix44f</text>
</a>
</g>
</g>
<!-- Node0&#45;&gt;Node9 -->
<g id="edge9" class="edge">
<title>Node0&#45;&gt;Node9</title>
<path fill="none" stroke="#191970" d="M694.536,-212.1121C714.8696,-217.4044 738.3713,-223.5213 757.423,-228.4799"/>
<polygon fill="#191970" stroke="#191970" points="695.4012,-208.7207 684.842,-209.589 693.6379,-215.4951 695.4012,-208.7207"/>
</g>
<!-- Node10 -->
<g id="node11" class="node">
<title>Node10</title>
<g id="a_node11"><a xlink:href="classramses_1_1DataVector2f.html" target="_top" xlink:title="The DataVector2f data object stores a vector with 2 float components within a scene. ">
<polygon fill="#ffffff" stroke="#000000" points="737.5,-190.5 737.5,-209.5 850.5,-209.5 850.5,-190.5 737.5,-190.5"/>
<text text-anchor="middle" x="794" y="-197.5" font-family="Helvetica,sans-Serif" font-size="10.00" fill="#000000">ramses::DataVector2f</text>
</a>
</g>
</g>
<!-- Node0&#45;&gt;Node10 -->
<g id="edge10" class="edge">
<title>Node0&#45;&gt;Node10</title>
<path fill="none" stroke="#191970" d="M710.536,-200C719.3669,-200 728.4064,-200 737.1231,-200"/>
<polygon fill="#191970" stroke="#191970" points="710.297,-196.5001 700.297,-200 710.2969,-203.5001 710.297,-196.5001"/>
</g>
<!-- Node11 -->
<g id="node12" class="node">
<title>Node11</title>
<g id="a_node12"><a xlink:href="classramses_1_1DataVector2i.html" target="_top" xlink:title="The DataVector2i data object stores a vector with two 32&#45;bit&#45;integer components within a scene...">
<polygon fill="#ffffff" stroke="#000000" points="738,-152.5 738,-171.5 850,-171.5 850,-152.5 738,-152.5"/>
<text text-anchor="middle" x="794" y="-159.5" font-family="Helvetica,sans-Serif" font-size="10.00" fill="#000000">ramses::DataVector2i</text>
</a>
</g>
</g>
<!-- Node0&#45;&gt;Node11 -->
<g id="edge11" class="edge">
<title>Node0&#45;&gt;Node11</title>
<path fill="none" stroke="#191970" d="M694.536,-187.8879C714.8696,-182.5956 738.3713,-176.4787 757.423,-171.5201"/>
<polygon fill="#191970" stroke="#191970" points="693.6379,-184.5049 684.842,-190.411 695.4012,-191.2793 693.6379,-184.5049"/>
</g>
<!-- Node12 -->
<g id="node13" class="node">
<title>Node12</title>
<g id="a_node13"><a xlink:href="classramses_1_1DataVector3f.html" target="_top" xlink:title="The DataVector3f data object stores a vector with 3 float components within a scene. ">
<polygon fill="#ffffff" stroke="#000000" points="737.5,-114.5 737.5,-133.5 850.5,-133.5 850.5,-114.5 737.5,-114.5"/>
<text text-anchor="middle" x="794" y="-121.5" font-family="Helvetica,sans-Serif" font-size="10.00" fill="#000000">ramses::DataVector3f</text>
</a>
</g>
</g>
<!-- Node0&#45;&gt;Node12 -->
<g id="edge12" class="edge">
<title>Node0&#45;&gt;Node12</title>
<path fill="none" stroke="#191970" d="M668.7321,-184.3693C686.0181,-171.8894 711.6633,-154.6264 736,-143 743.5532,-139.3916 751.968,-136.2009 759.9933,-133.5138"/>
<polygon fill="#191970" stroke="#191970" points="666.4984,-181.6671 660.5057,-190.4043 670.639,-187.3112 666.4984,-181.6671"/>
</g>
<!-- Node13 -->
<g id="node14" class="node">
<title>Node13</title>
<g id="a_node14"><a xlink:href="classramses_1_1DataVector3i.html" target="_top" xlink:title="The DataVector3i data object stores a vector with 3 integer components within a scene. ">
<polygon fill="#ffffff" stroke="#000000" points="738,-76.5 738,-95.5 850,-95.5 850,-76.5 738,-76.5"/>
<text text-anchor="middle" x="794" y="-83.5" font-family="Helvetica,sans-Serif" font-size="10.00" fill="#000000">ramses::DataVector3i</text>
</a>
</g>
</g>
<!-- Node0&#45;&gt;Node13 -->
<g id="edge13" class="edge">
<title>Node0&#45;&gt;Node13</title>
<path fill="none" stroke="#191970" d="M660.2649,-181.9722C675.622,-160.6956 703.8513,-125.6109 736,-105 741.9765,-101.1684 748.7975,-98.041 755.6116,-95.5116"/>
<polygon fill="#191970" stroke="#191970" points="657.2137,-180.2265 654.3219,-190.4191 662.9387,-184.2545 657.2137,-180.2265"/>
</g>
<!-- Node14 -->
<g id="node15" class="node">
<title>Node14</title>
<g id="a_node15"><a xlink:href="classramses_1_1DataVector4f.html" target="_top" xlink:title="The DataVector4f data object stores a vector with 4 float components within a scene. ">
<polygon fill="#ffffff" stroke="#000000" points="737.5,-38.5 737.5,-57.5 850.5,-57.5 850.5,-38.5 737.5,-38.5"/>
<text text-anchor="middle" x="794" y="-45.5" font-family="Helvetica,sans-Serif" font-size="10.00" fill="#000000">ramses::DataVector4f</text>
</a>
</g>
</g>
<!-- Node0&#45;&gt;Node14 -->
<g id="edge14" class="edge">
<title>Node0&#45;&gt;Node14</title>
<path fill="none" stroke="#191970" d="M655.6438,-181.0183C668.1805,-152.2311 695.8011,-97.6496 736,-67 741.0557,-63.1453 746.9276,-60.0538 752.9553,-57.5795"/>
<polygon fill="#191970" stroke="#191970" points="652.3634,-179.7902 651.7121,-190.365 658.8157,-182.5045 652.3634,-179.7902"/>
</g>
<!-- Node15 -->
<g id="node16" class="node">
<title>Node15</title>
<g id="a_node16"><a xlink:href="classramses_1_1DataVector4i.html" target="_top" xlink:title="The DataVector4i data object stores a vector with 4 integer components within a scene. ">
<polygon fill="#ffffff" stroke="#000000" points="738,-.5 738,-19.5 850,-19.5 850,-.5 738,-.5"/>
<text text-anchor="middle" x="794" y="-7.5" font-family="Helvetica,sans-Serif" font-size="10.00" fill="#000000">ramses::DataVector4i</text>
</a>
</g>
</g>
<!-- Node0&#45;&gt;Node15 -->
<g id="edge15" class="edge">
<title>Node0&#45;&gt;Node15</title>
<path fill="none" stroke="#191970" d="M652.8456,-180.1912C662.5318,-144.7256 687.6283,-70.2454 736,-29 740.5152,-25.15 745.8304,-22.0752 751.3795,-19.6207"/>
<polygon fill="#191970" stroke="#191970" points="649.361,-179.6845 650.2322,-190.2435 656.1358,-181.4458 649.361,-179.6845"/>
</g>
<!-- Node1 -->
<g id="node2" class="node">
<title>Node1</title>
<g id="a_node2"><a xlink:href="classramses_1_1SceneObject.html" target="_top" xlink:title="The SceneObject is a base class for all client API objects owned by a Scene. ">
<polygon fill="#ffffff" stroke="#000000" points="449,-190.5 449,-209.5 560,-209.5 560,-190.5 449,-190.5"/>
<text text-anchor="middle" x="504.5" y="-197.5" font-family="Helvetica,sans-Serif" font-size="10.00" fill="#000000">ramses::SceneObject</text>
</a>
</g>
</g>
<!-- Node1&#45;&gt;Node0 -->
<g id="edge1" class="edge">
<title>Node1&#45;&gt;Node0</title>
<path fill="none" stroke="#191970" d="M570.6073,-200C579.0509,-200 587.5993,-200 595.7809,-200"/>
<polygon fill="#191970" stroke="#191970" points="570.3918,-196.5001 560.3917,-200 570.3917,-203.5001 570.3918,-196.5001"/>
</g>
<!-- Node2 -->
<g id="node3" class="node">
<title>Node2</title>
<g id="a_node3"><a xlink:href="classramses_1_1ClientObject.html" target="_top" xlink:title="The ClientObject is a base class for all client API objects owned by a RamsesClient. ">
<polygon fill="#ffffff" stroke="#000000" points="304,-190.5 304,-209.5 413,-209.5 413,-190.5 304,-190.5"/>
<text text-anchor="middle" x="358.5" y="-197.5" font-family="Helvetica,sans-Serif" font-size="10.00" fill="#000000">ramses::ClientObject</text>
</a>
</g>
</g>
<!-- Node2&#45;&gt;Node1 -->
<g id="edge2" class="edge">
<title>Node2&#45;&gt;Node1</title>
<path fill="none" stroke="#191970" d="M423.5191,-200C431.9978,-200 440.6218,-200 448.9262,-200"/>
<polygon fill="#191970" stroke="#191970" points="423.2804,-196.5001 413.2804,-200 423.2804,-203.5001 423.2804,-196.5001"/>
</g>
<!-- Node3 -->
<g id="node4" class="node">
<title>Node3</title>
<g id="a_node4"><a xlink:href="classramses_1_1RamsesObject.html" target="_top" xlink:title="The RamsesObject is a base class for all client API objects owned by the framework. ">
<polygon fill="#ffffff" stroke="#000000" points="148,-190.5 148,-209.5 268,-209.5 268,-190.5 148,-190.5"/>
<text text-anchor="middle" x="208" y="-197.5" font-family="Helvetica,sans-Serif" font-size="10.00" fill="#000000">ramses::RamsesObject</text>
</a>
</g>
</g>
<!-- Node3&#45;&gt;Node2 -->
<g id="edge3" class="edge">
<title>Node3&#45;&gt;Node2</title>
<path fill="none" stroke="#191970" d="M278.3762,-200C286.9761,-200 295.6613,-200 303.9799,-200"/>
<polygon fill="#191970" stroke="#191970" points="278.347,-196.5001 268.3469,-200 278.3469,-203.5001 278.347,-196.5001"/>
</g>
<!-- Node4 -->
<g id="node5" class="node">
<title>Node4</title>
<g id="a_node5"><a xlink:href="classramses_1_1StatusObject.html" target="_top" xlink:title="The StatusObject provides status message handling. ">
<polygon fill="#ffffff" stroke="#000000" points="0,-190.5 0,-209.5 112,-209.5 112,-190.5 0,-190.5"/>
<text text-anchor="middle" x="56" y="-197.5" font-family="Helvetica,sans-Serif" font-size="10.00" fill="#000000">ramses::StatusObject</text>
</a>
</g>
</g>
<!-- Node4&#45;&gt;Node3 -->
<g id="edge4" class="edge">
<title>Node4&#45;&gt;Node3</title>
<path fill="none" stroke="#191970" d="M122.4268,-200C130.9276,-200 139.5908,-200 147.9818,-200"/>
<polygon fill="#191970" stroke="#191970" points="122.1674,-196.5001 112.1673,-200 122.1673,-203.5001 122.1674,-196.5001"/>
</g>
</g>
</svg>
