<?xml version="1.0" encoding="UTF-8" standalone="no"?>
<!DOCTYPE svg PUBLIC "-//W3C//DTD SVG 1.1//EN"
 "http://www.w3.org/Graphics/SVG/1.1/DTD/svg11.dtd">
<!-- Generated by graphviz version 2.43.0 (0)
 -->
<!-- Title: ramses::RendererSceneControlEventHandlerEmpty Pages: 1 -->
<svg width="178pt" height="162pt"
 viewBox="0.00 0.00 178.00 162.00" xmlns="http://www.w3.org/2000/svg" xmlns:xlink="http://www.w3.org/1999/xlink">
<g id="graph0" class="graph" transform="scale(1 1) rotate(0) translate(4 158)">
<title>ramses::RendererSceneControlEventHandlerEmpty</title>
<polygon fill="white" stroke="transparent" points="-4,4 -4,-158 174,-158 174,4 -4,4"/>
<!-- Node1 -->
<g id="node1" class="node">
<title>Node1</title>
<g id="a_node1"><a xlink:title="Convenience empty implementation of IRendererSceneControlEventHandler that can be used to derive from...">
<polygon fill="#bfbfbf" stroke="black" points="1.5,-56.5 1.5,-86.5 168.5,-86.5 168.5,-56.5 1.5,-56.5"/>
<text text-anchor="start" x="9.5" y="-74.5" font-family="Helvetica,sans-Serif" font-size="10.00">ramses::RendererSceneControl</text>
<text text-anchor="middle" x="85" y="-63.5" font-family="Helvetica,sans-Serif" font-size="10.00">EventHandlerEmpty</text>
</a>
</g>
</g>
<!-- Node3 -->
<g id="node3" class="node">
<title>Node3</title>
<g id="a_node3"><a xlink:href="classSceneStateEventHandler.html" target="_top" xlink:title=" ">
<polygon fill="white" stroke="black" points="16.5,-0.5 16.5,-19.5 153.5,-19.5 153.5,-0.5 16.5,-0.5"/>
<text text-anchor="middle" x="85" y="-7.5" font-family="Helvetica,sans-Serif" font-size="10.00">SceneStateEventHandler</text>
</a>
</g>
</g>
<!-- Node1&#45;&gt;Node3 -->
<g id="edge2" class="edge">
<title>Node1&#45;&gt;Node3</title>
<path fill="none" stroke="midnightblue" d="M85,-46.29C85,-36.86 85,-26.65 85,-19.66"/>
<polygon fill="midnightblue" stroke="midnightblue" points="81.5,-46.4 85,-56.4 88.5,-46.4 81.5,-46.4"/>
</g>
<!-- Node2 -->
<g id="node2" class="node">
<title>Node2</title>
<g id="a_node2"><a xlink:href="classramses_1_1IRendererSceneControlEventHandler.html" target="_top" xlink:title="Provides an interface for handling the result of renderer scene control events. Implementation of thi...">
<polygon fill="white" stroke="black" points="0,-123.5 0,-153.5 170,-153.5 170,-123.5 0,-123.5"/>
<text text-anchor="start" x="8" y="-141.5" font-family="Helvetica,sans-Serif" font-size="10.00">ramses::IRendererSceneControl</text>
<text text-anchor="middle" x="85" y="-130.5" font-family="Helvetica,sans-Serif" font-size="10.00">EventHandler</text>
</a>
</g>
</g>
<!-- Node2&#45;&gt;Node1 -->
<g id="edge1" class="edge">
<title>Node2&#45;&gt;Node1</title>
<path fill="none" stroke="midnightblue" d="M85,-113.11C85,-104.15 85,-94.32 85,-86.58"/>
<polygon fill="midnightblue" stroke="midnightblue" points="81.5,-113.4 85,-123.4 88.5,-113.4 81.5,-113.4"/>
</g>
</g>
</svg>
