<?xml version="1.0" encoding="UTF-8" standalone="no"?>
<!DOCTYPE svg PUBLIC "-//W3C//DTD SVG 1.1//EN"
 "http://www.w3.org/Graphics/SVG/1.1/DTD/svg11.dtd">
<!-- Generated by graphviz version 2.43.0 (0)
 -->
<!-- Title: ramses::Camera Pages: 1 -->
<svg width="340pt" height="364pt"
 viewBox="0.00 0.00 340.00 364.00" xmlns="http://www.w3.org/2000/svg" xmlns:xlink="http://www.w3.org/1999/xlink">
<g id="graph0" class="graph" transform="scale(1 1) rotate(0) translate(4 360)">
<title>ramses::Camera</title>
<polygon fill="white" stroke="transparent" points="-4,4 -4,-360 336,-360 336,4 -4,4"/>
<!-- Node1 -->
<g id="node1" class="node">
<title>Node1</title>
<g id="a_node1"><a xlink:title="The Camera base class is part of a scene and defines a view into the scene defined by the client appl...">
<polygon fill="#bfbfbf" stroke="black" points="118.5,-56.5 118.5,-75.5 215.5,-75.5 215.5,-56.5 118.5,-56.5"/>
<text text-anchor="middle" x="167" y="-63.5" font-family="Helvetica,sans-Serif" font-size="10.00">ramses::Camera</text>
</a>
</g>
</g>
<!-- Node7 -->
<g id="node7" class="node">
<title>Node7</title>
<g id="a_node7"><a xlink:href="classramses_1_1OrthographicCamera.html" target="_top" xlink:title="The OrthographicCamera is a local camera which defines an orthographic view into the scene.">
<polygon fill="white" stroke="black" points="0,-0.5 0,-19.5 160,-19.5 160,-0.5 0,-0.5"/>
<text text-anchor="middle" x="80" y="-7.5" font-family="Helvetica,sans-Serif" font-size="10.00">ramses::OrthographicCamera</text>
</a>
</g>
</g>
<!-- Node1&#45;&gt;Node7 -->
<g id="edge6" class="edge">
<title>Node1&#45;&gt;Node7</title>
<path fill="none" stroke="midnightblue" d="M144.28,-50.9C128.33,-41 107.5,-28.07 93.94,-19.65"/>
<polygon fill="midnightblue" stroke="midnightblue" points="142.68,-54.02 153.02,-56.32 146.37,-48.08 142.68,-54.02"/>
</g>
<!-- Node8 -->
<g id="node8" class="node">
<title>Node8</title>
<g id="a_node8"><a xlink:href="classramses_1_1PerspectiveCamera.html" target="_top" xlink:title="The PerspectiveCamera is a local camera which defines a perspective view into the scene.">
<polygon fill="white" stroke="black" points="178,-0.5 178,-19.5 332,-19.5 332,-0.5 178,-0.5"/>
<text text-anchor="middle" x="255" y="-7.5" font-family="Helvetica,sans-Serif" font-size="10.00">ramses::PerspectiveCamera</text>
</a>
</g>
</g>
<!-- Node1&#45;&gt;Node8 -->
<g id="edge7" class="edge">
<title>Node1&#45;&gt;Node8</title>
<path fill="none" stroke="midnightblue" d="M189.98,-50.9C206.11,-41 227.18,-28.07 240.9,-19.65"/>
<polygon fill="midnightblue" stroke="midnightblue" points="187.83,-48.11 181.14,-56.32 191.49,-54.08 187.83,-48.11"/>
</g>
<!-- Node2 -->
<g id="node2" class="node">
<title>Node2</title>
<g id="a_node2"><a xlink:href="classramses_1_1Node.html" target="_top" xlink:title="The Node is the base class of all nodes and provides scene graph functionality which propagates to it...">
<polygon fill="white" stroke="black" points="125,-112.5 125,-131.5 209,-131.5 209,-112.5 125,-112.5"/>
<text text-anchor="middle" x="167" y="-119.5" font-family="Helvetica,sans-Serif" font-size="10.00">ramses::Node</text>
</a>
</g>
</g>
<!-- Node2&#45;&gt;Node1 -->
<g id="edge1" class="edge">
<title>Node2&#45;&gt;Node1</title>
<path fill="none" stroke="midnightblue" d="M167,-101.8C167,-92.91 167,-82.78 167,-75.75"/>
<polygon fill="midnightblue" stroke="midnightblue" points="163.5,-102.08 167,-112.08 170.5,-102.08 163.5,-102.08"/>
</g>
<!-- Node3 -->
<g id="node3" class="node">
<title>Node3</title>
<g id="a_node3"><a xlink:href="classramses_1_1SceneObject.html" target="_top" xlink:title="The SceneObject is a base class for all client API objects owned by a Scene.">
<polygon fill="white" stroke="black" points="107.5,-168.5 107.5,-187.5 226.5,-187.5 226.5,-168.5 107.5,-168.5"/>
<text text-anchor="middle" x="167" y="-175.5" font-family="Helvetica,sans-Serif" font-size="10.00">ramses::SceneObject</text>
</a>
</g>
</g>
<!-- Node3&#45;&gt;Node2 -->
<g id="edge2" class="edge">
<title>Node3&#45;&gt;Node2</title>
<path fill="none" stroke="midnightblue" d="M167,-157.8C167,-148.91 167,-138.78 167,-131.75"/>
<polygon fill="midnightblue" stroke="midnightblue" points="163.5,-158.08 167,-168.08 170.5,-158.08 163.5,-158.08"/>
</g>
<!-- Node4 -->
<g id="node4" class="node">
<title>Node4</title>
<g id="a_node4"><a xlink:href="classramses_1_1ClientObject.html" target="_top" xlink:title="The ClientObject is a base class for all client API objects owned by a RamsesClient.">
<polygon fill="white" stroke="black" points="107.5,-224.5 107.5,-243.5 226.5,-243.5 226.5,-224.5 107.5,-224.5"/>
<text text-anchor="middle" x="167" y="-231.5" font-family="Helvetica,sans-Serif" font-size="10.00">ramses::ClientObject</text>
</a>
</g>
</g>
<!-- Node4&#45;&gt;Node3 -->
<g id="edge3" class="edge">
<title>Node4&#45;&gt;Node3</title>
<path fill="none" stroke="midnightblue" d="M167,-213.8C167,-204.91 167,-194.78 167,-187.75"/>
<polygon fill="midnightblue" stroke="midnightblue" points="163.5,-214.08 167,-224.08 170.5,-214.08 163.5,-214.08"/>
</g>
<!-- Node5 -->
<g id="node5" class="node">
<title>Node5</title>
<g id="a_node5"><a xlink:href="classramses_1_1RamsesObject.html" target="_top" xlink:title="The RamsesObject is a base class for all client API objects owned by the framework.">
<polygon fill="white" stroke="black" points="102.5,-280.5 102.5,-299.5 231.5,-299.5 231.5,-280.5 102.5,-280.5"/>
<text text-anchor="middle" x="167" y="-287.5" font-family="Helvetica,sans-Serif" font-size="10.00">ramses::RamsesObject</text>
</a>
</g>
</g>
<!-- Node5&#45;&gt;Node4 -->
<g id="edge4" class="edge">
<title>Node5&#45;&gt;Node4</title>
<path fill="none" stroke="midnightblue" d="M167,-269.8C167,-260.91 167,-250.78 167,-243.75"/>
<polygon fill="midnightblue" stroke="midnightblue" points="163.5,-270.08 167,-280.08 170.5,-270.08 163.5,-270.08"/>
</g>
<!-- Node6 -->
<g id="node6" class="node">
<title>Node6</title>
<g id="a_node6"><a xlink:href="classramses_1_1StatusObject.html" target="_top" xlink:title="The StatusObject provides status message handling.">
<polygon fill="white" stroke="black" points="106.5,-336.5 106.5,-355.5 227.5,-355.5 227.5,-336.5 106.5,-336.5"/>
<text text-anchor="middle" x="167" y="-343.5" font-family="Helvetica,sans-Serif" font-size="10.00">ramses::StatusObject</text>
</a>
</g>
</g>
<!-- Node6&#45;&gt;Node5 -->
<g id="edge5" class="edge">
<title>Node6&#45;&gt;Node5</title>
<path fill="none" stroke="midnightblue" d="M167,-325.8C167,-316.91 167,-306.78 167,-299.75"/>
<polygon fill="midnightblue" stroke="midnightblue" points="163.5,-326.08 167,-336.08 170.5,-326.08 163.5,-326.08"/>
</g>
</g>
</svg>
