<?xml version="1.0" encoding="UTF-8" standalone="no"?>
<!DOCTYPE svg PUBLIC "-//W3C//DTD SVG 1.1//EN"
 "http://www.w3.org/Graphics/SVG/1.1/DTD/svg11.dtd">
<!-- Generated by graphviz version 2.40.1 (20161225.0304)
 -->
<!-- Title: LocalDCSMExample Pages: 1 -->
<svg width="499pt" height="137pt"
 viewBox="0.00 0.00 499.00 137.00" xmlns="http://www.w3.org/2000/svg" xmlns:xlink="http://www.w3.org/1999/xlink">
<g id="graph0" class="graph" transform="scale(1 1) rotate(0) translate(4 133)">
<title>LocalDCSMExample</title>
<polygon fill="#ffffff" stroke="transparent" points="-4,4 -4,-133 495,-133 495,4 -4,4"/>
<!-- Node0 -->
<g id="node1" class="node">
<title>Node0</title>
<polygon fill="#bfbfbf" stroke="#000000" points="383,-55 383,-74 491,-74 491,-55 383,-55"/>
<text text-anchor="middle" x="437" y="-62" font-family="Helvetica,sans-Serif" font-size="10.00" fill="#000000">LocalDCSMExample</text>
</g>
<!-- Node1 -->
<g id="node2" class="node">
<title>Node1</title>
<g id="a_node2"><a xlink:href="classramses_1_1DcsmContentControlEventHandlerEmpty.html" target="_top" xlink:title="Convenience empty implementation of IDcsmContentControlEventHandler that can be used to derive from w...">
<polygon fill="#ffffff" stroke="#000000" points="196.5,-98.5 196.5,-128.5 343.5,-128.5 343.5,-98.5 196.5,-98.5"/>
<text text-anchor="start" x="204.5" y="-116.5" font-family="Helvetica,sans-Serif" font-size="10.00" fill="#000000">ramses::DcsmContentControl</text>
<text text-anchor="middle" x="270" y="-105.5" font-family="Helvetica,sans-Serif" font-size="10.00" fill="#000000">EventHandlerEmpty</text>
</a>
</g>
</g>
<!-- Node1&#45;&gt;Node0 -->
<g id="edge1" class="edge">
<title>Node1&#45;&gt;Node0</title>
<path fill="none" stroke="#191970" d="M331.1994,-95.5433C356.0708,-88.2457 383.7907,-80.1123 404.6159,-74.0019"/>
<polygon fill="#191970" stroke="#191970" points="330.0782,-92.2246 321.4682,-98.3986 332.0491,-98.9415 330.0782,-92.2246"/>
</g>
<!-- Node2 -->
<g id="node3" class="node">
<title>Node2</title>
<g id="a_node3"><a xlink:href="classramses_1_1IDcsmContentControlEventHandler.html" target="_top" xlink:title="Callback handler interface for events emitted by ramses::DcsmContentControl. ">
<polygon fill="#ffffff" stroke="#000000" points="3.5,-98.5 3.5,-128.5 153.5,-128.5 153.5,-98.5 3.5,-98.5"/>
<text text-anchor="start" x="11.5" y="-116.5" font-family="Helvetica,sans-Serif" font-size="10.00" fill="#000000">ramses::IDcsmContentControl</text>
<text text-anchor="middle" x="78.5" y="-105.5" font-family="Helvetica,sans-Serif" font-size="10.00" fill="#000000">EventHandler</text>
</a>
</g>
</g>
<!-- Node2&#45;&gt;Node1 -->
<g id="edge2" class="edge">
<title>Node2&#45;&gt;Node1</title>
<path fill="none" stroke="#191970" d="M163.929,-113.5C174.7403,-113.5 185.7291,-113.5 196.3356,-113.5"/>
<polygon fill="#191970" stroke="#191970" points="163.6363,-110.0001 153.6362,-113.5 163.6362,-117.0001 163.6363,-110.0001"/>
</g>
<!-- Node3 -->
<g id="node4" class="node">
<title>Node3</title>
<g id="a_node4"><a xlink:href="classramses_1_1IDcsmProviderEventHandler.html" target="_top" xlink:title="An Interface for a class, whose functions are called as reaction to DcsmConsumer communication after ...">
<polygon fill="#ffffff" stroke="#000000" points="197,-49.5 197,-79.5 343,-79.5 343,-49.5 197,-49.5"/>
<text text-anchor="start" x="205" y="-67.5" font-family="Helvetica,sans-Serif" font-size="10.00" fill="#000000">ramses::IDcsmProviderEvent</text>
<text text-anchor="middle" x="270" y="-56.5" font-family="Helvetica,sans-Serif" font-size="10.00" fill="#000000">Handler</text>
</a>
</g>
</g>
<!-- Node3&#45;&gt;Node0 -->
<g id="edge3" class="edge">
<title>Node3&#45;&gt;Node0</title>
<path fill="none" stroke="#191970" d="M353.284,-64.5C363.3425,-64.5 373.4051,-64.5 382.888,-64.5"/>
<polygon fill="#191970" stroke="#191970" points="353.2487,-61.0001 343.2486,-64.5 353.2486,-68.0001 353.2487,-61.0001"/>
</g>
<!-- Node4 -->
<g id="node5" class="node">
<title>Node4</title>
<g id="a_node5"><a xlink:href="classramses_1_1RendererEventHandlerEmpty.html" target="_top" xlink:title="Convenience empty implementation of IRendererEventHandler that can be used to derive from when only s...">
<polygon fill="#ffffff" stroke="#000000" points="193,-.5 193,-30.5 347,-30.5 347,-.5 193,-.5"/>
<text text-anchor="start" x="201" y="-18.5" font-family="Helvetica,sans-Serif" font-size="10.00" fill="#000000">ramses::RendererEventHandler</text>
<text text-anchor="middle" x="270" y="-7.5" font-family="Helvetica,sans-Serif" font-size="10.00" fill="#000000">Empty</text>
</a>
</g>
</g>
<!-- Node4&#45;&gt;Node0 -->
<g id="edge4" class="edge">
<title>Node4&#45;&gt;Node0</title>
<path fill="none" stroke="#191970" d="M331.1994,-33.4567C356.0708,-40.7543 383.7907,-48.8877 404.6159,-54.9981"/>
<polygon fill="#191970" stroke="#191970" points="332.0491,-30.0585 321.4682,-30.6014 330.0782,-36.7754 332.0491,-30.0585"/>
</g>
<!-- Node5 -->
<g id="node6" class="node">
<title>Node5</title>
<g id="a_node6"><a xlink:href="classramses_1_1IRendererEventHandler.html" target="_top" xlink:title="Provides an interface for handling the result of renderer events. Implementation of this interface mu...">
<polygon fill="#ffffff" stroke="#000000" points="0,-6 0,-25 157,-25 157,-6 0,-6"/>
<text text-anchor="middle" x="78.5" y="-13" font-family="Helvetica,sans-Serif" font-size="10.00" fill="#000000">ramses::IRendererEventHandler</text>
</a>
</g>
</g>
<!-- Node5&#45;&gt;Node4 -->
<g id="edge5" class="edge">
<title>Node5&#45;&gt;Node4</title>
<path fill="none" stroke="#191970" d="M167.4887,-15.5C175.9511,-15.5 184.4843,-15.5 192.8221,-15.5"/>
<polygon fill="#191970" stroke="#191970" points="167.2194,-12.0001 157.2194,-15.5 167.2194,-19.0001 167.2194,-12.0001"/>
</g>
</g>
</svg>
