<?xml version="1.0" encoding="UTF-8" standalone="no"?>
<!DOCTYPE svg PUBLIC "-//W3C//DTD SVG 1.1//EN"
 "http://www.w3.org/Graphics/SVG/1.1/DTD/svg11.dtd">
<!-- Generated by graphviz version 2.40.1 (20161225.0304)
 -->
<!-- Title: ramses::DcsmContentControlEventHandlerEmpty Pages: 1 -->
<svg width="158pt" height="162pt"
 viewBox="0.00 0.00 158.00 162.00" xmlns="http://www.w3.org/2000/svg" xmlns:xlink="http://www.w3.org/1999/xlink">
<g id="graph0" class="graph" transform="scale(1 1) rotate(0) translate(4 158)">
<title>ramses::DcsmContentControlEventHandlerEmpty</title>
<polygon fill="#ffffff" stroke="transparent" points="-4,4 -4,-158 154,-158 154,4 -4,4"/>
<!-- Node0 -->
<g id="node1" class="node">
<title>Node0</title>
<polygon fill="#bfbfbf" stroke="#000000" points="1.5,-56.5 1.5,-86.5 148.5,-86.5 148.5,-56.5 1.5,-56.5"/>
<text text-anchor="start" x="9.5" y="-74.5" font-family="Helvetica,sans-Serif" font-size="10.00" fill="#000000">ramses::DcsmContentControl</text>
<text text-anchor="middle" x="75" y="-63.5" font-family="Helvetica,sans-Serif" font-size="10.00" fill="#000000">EventHandlerEmpty</text>
</g>
<!-- Node2 -->
<g id="node3" class="node">
<title>Node2</title>
<g id="a_node3"><a xlink:href="classLocalDCSMExample.html" target="_top" xlink:title="LocalDCSMExample">
<polygon fill="#ffffff" stroke="#000000" points="21,-.5 21,-19.5 129,-19.5 129,-.5 21,-.5"/>
<text text-anchor="middle" x="75" y="-7.5" font-family="Helvetica,sans-Serif" font-size="10.00" fill="#000000">LocalDCSMExample</text>
</a>
</g>
</g>
<!-- Node0&#45;&gt;Node2 -->
<g id="edge2" class="edge">
<title>Node0&#45;&gt;Node2</title>
<path fill="none" stroke="#191970" d="M75,-46.2849C75,-36.9858 75,-26.9883 75,-19.8469"/>
<polygon fill="#191970" stroke="#191970" points="71.5001,-46.2977 75,-56.2977 78.5001,-46.2978 71.5001,-46.2977"/>
</g>
<!-- Node1 -->
<g id="node2" class="node">
<title>Node1</title>
<g id="a_node2"><a xlink:href="classramses_1_1IDcsmContentControlEventHandler.html" target="_top" xlink:title="Callback handler interface for events emitted by ramses::DcsmContentControl. ">
<polygon fill="#ffffff" stroke="#000000" points="0,-123.5 0,-153.5 150,-153.5 150,-123.5 0,-123.5"/>
<text text-anchor="start" x="8" y="-141.5" font-family="Helvetica,sans-Serif" font-size="10.00" fill="#000000">ramses::IDcsmContentControl</text>
<text text-anchor="middle" x="75" y="-130.5" font-family="Helvetica,sans-Serif" font-size="10.00" fill="#000000">EventHandler</text>
</a>
</g>
</g>
<!-- Node1&#45;&gt;Node0 -->
<g id="edge1" class="edge">
<title>Node1&#45;&gt;Node0</title>
<path fill="none" stroke="#191970" d="M75,-113.0249C75,-104.128 75,-94.4287 75,-86.6432"/>
<polygon fill="#191970" stroke="#191970" points="71.5001,-113.2966 75,-123.2967 78.5001,-113.2967 71.5001,-113.2966"/>
</g>
</g>
</svg>
