<?xml version="1.0" encoding="UTF-8" standalone="no"?>
<!DOCTYPE svg PUBLIC "-//W3C//DTD SVG 1.1//EN"
 "http://www.w3.org/Graphics/SVG/1.1/DTD/svg11.dtd">
<!-- Generated by graphviz version 2.43.0 (0)
 -->
<!-- Title: ramses::OrthographicCamera Pages: 1 -->
<svg width="168pt" height="364pt"
 viewBox="0.00 0.00 168.00 364.00" xmlns="http://www.w3.org/2000/svg" xmlns:xlink="http://www.w3.org/1999/xlink">
<g id="graph0" class="graph" transform="scale(1 1) rotate(0) translate(4 360)">
<title>ramses::OrthographicCamera</title>
<polygon fill="white" stroke="transparent" points="-4,4 -4,-360 164,-360 164,4 -4,4"/>
<!-- Node1 -->
<g id="node1" class="node">
<title>Node1</title>
<g id="a_node1"><a xlink:title="The OrthographicCamera is a local camera which defines an orthographic view into the scene.">
<polygon fill="#bfbfbf" stroke="black" points="0,-0.5 0,-19.5 160,-19.5 160,-0.5 0,-0.5"/>
<text text-anchor="middle" x="80" y="-7.5" font-family="Helvetica,sans-Serif" font-size="10.00">ramses::OrthographicCamera</text>
</a>
</g>
</g>
<!-- Node2 -->
<g id="node2" class="node">
<title>Node2</title>
<g id="a_node2"><a xlink:href="classramses_1_1Camera.html" target="_top" xlink:title="The Camera base class is part of a scene and defines a view into the scene defined by the client appl...">
<polygon fill="white" stroke="black" points="31.5,-56.5 31.5,-75.5 128.5,-75.5 128.5,-56.5 31.5,-56.5"/>
<text text-anchor="middle" x="80" y="-63.5" font-family="Helvetica,sans-Serif" font-size="10.00">ramses::Camera</text>
</a>
</g>
</g>
<!-- Node2&#45;&gt;Node1 -->
<g id="edge1" class="edge">
<title>Node2&#45;&gt;Node1</title>
<path fill="none" stroke="midnightblue" d="M80,-45.8C80,-36.91 80,-26.78 80,-19.75"/>
<polygon fill="midnightblue" stroke="midnightblue" points="76.5,-46.08 80,-56.08 83.5,-46.08 76.5,-46.08"/>
</g>
<!-- Node3 -->
<g id="node3" class="node">
<title>Node3</title>
<g id="a_node3"><a xlink:href="classramses_1_1Node.html" target="_top" xlink:title="The Node is the base class of all nodes and provides scene graph functionality which propagates to it...">
<polygon fill="white" stroke="black" points="38,-112.5 38,-131.5 122,-131.5 122,-112.5 38,-112.5"/>
<text text-anchor="middle" x="80" y="-119.5" font-family="Helvetica,sans-Serif" font-size="10.00">ramses::Node</text>
</a>
</g>
</g>
<!-- Node3&#45;&gt;Node2 -->
<g id="edge2" class="edge">
<title>Node3&#45;&gt;Node2</title>
<path fill="none" stroke="midnightblue" d="M80,-101.8C80,-92.91 80,-82.78 80,-75.75"/>
<polygon fill="midnightblue" stroke="midnightblue" points="76.5,-102.08 80,-112.08 83.5,-102.08 76.5,-102.08"/>
</g>
<!-- Node4 -->
<g id="node4" class="node">
<title>Node4</title>
<g id="a_node4"><a xlink:href="classramses_1_1SceneObject.html" target="_top" xlink:title="The SceneObject is a base class for all client API objects owned by a Scene.">
<polygon fill="white" stroke="black" points="20.5,-168.5 20.5,-187.5 139.5,-187.5 139.5,-168.5 20.5,-168.5"/>
<text text-anchor="middle" x="80" y="-175.5" font-family="Helvetica,sans-Serif" font-size="10.00">ramses::SceneObject</text>
</a>
</g>
</g>
<!-- Node4&#45;&gt;Node3 -->
<g id="edge3" class="edge">
<title>Node4&#45;&gt;Node3</title>
<path fill="none" stroke="midnightblue" d="M80,-157.8C80,-148.91 80,-138.78 80,-131.75"/>
<polygon fill="midnightblue" stroke="midnightblue" points="76.5,-158.08 80,-168.08 83.5,-158.08 76.5,-158.08"/>
</g>
<!-- Node5 -->
<g id="node5" class="node">
<title>Node5</title>
<g id="a_node5"><a xlink:href="classramses_1_1ClientObject.html" target="_top" xlink:title="The ClientObject is a base class for all client API objects owned by a RamsesClient.">
<polygon fill="white" stroke="black" points="20.5,-224.5 20.5,-243.5 139.5,-243.5 139.5,-224.5 20.5,-224.5"/>
<text text-anchor="middle" x="80" y="-231.5" font-family="Helvetica,sans-Serif" font-size="10.00">ramses::ClientObject</text>
</a>
</g>
</g>
<!-- Node5&#45;&gt;Node4 -->
<g id="edge4" class="edge">
<title>Node5&#45;&gt;Node4</title>
<path fill="none" stroke="midnightblue" d="M80,-213.8C80,-204.91 80,-194.78 80,-187.75"/>
<polygon fill="midnightblue" stroke="midnightblue" points="76.5,-214.08 80,-224.08 83.5,-214.08 76.5,-214.08"/>
</g>
<!-- Node6 -->
<g id="node6" class="node">
<title>Node6</title>
<g id="a_node6"><a xlink:href="classramses_1_1RamsesObject.html" target="_top" xlink:title="The RamsesObject is a base class for all client API objects owned by the framework.">
<polygon fill="white" stroke="black" points="15.5,-280.5 15.5,-299.5 144.5,-299.5 144.5,-280.5 15.5,-280.5"/>
<text text-anchor="middle" x="80" y="-287.5" font-family="Helvetica,sans-Serif" font-size="10.00">ramses::RamsesObject</text>
</a>
</g>
</g>
<!-- Node6&#45;&gt;Node5 -->
<g id="edge5" class="edge">
<title>Node6&#45;&gt;Node5</title>
<path fill="none" stroke="midnightblue" d="M80,-269.8C80,-260.91 80,-250.78 80,-243.75"/>
<polygon fill="midnightblue" stroke="midnightblue" points="76.5,-270.08 80,-280.08 83.5,-270.08 76.5,-270.08"/>
</g>
<!-- Node7 -->
<g id="node7" class="node">
<title>Node7</title>
<g id="a_node7"><a xlink:href="classramses_1_1StatusObject.html" target="_top" xlink:title="The StatusObject provides status message handling.">
<polygon fill="white" stroke="black" points="19.5,-336.5 19.5,-355.5 140.5,-355.5 140.5,-336.5 19.5,-336.5"/>
<text text-anchor="middle" x="80" y="-343.5" font-family="Helvetica,sans-Serif" font-size="10.00">ramses::StatusObject</text>
</a>
</g>
</g>
<!-- Node7&#45;&gt;Node6 -->
<g id="edge6" class="edge">
<title>Node7&#45;&gt;Node6</title>
<path fill="none" stroke="midnightblue" d="M80,-325.8C80,-316.91 80,-306.78 80,-299.75"/>
<polygon fill="midnightblue" stroke="midnightblue" points="76.5,-326.08 80,-336.08 83.5,-326.08 76.5,-326.08"/>
</g>
</g>
</svg>
