<?xml version="1.0" encoding="UTF-8" standalone="no"?>
<!DOCTYPE svg PUBLIC "-//W3C//DTD SVG 1.1//EN"
 "http://www.w3.org/Graphics/SVG/1.1/DTD/svg11.dtd">
<!-- Generated by graphviz version 2.40.1 (20161225.0304)
 -->
<!-- Title: ramses::IDcsmProviderEventHandler Pages: 1 -->
<svg width="420pt" height="106pt"
 viewBox="0.00 0.00 419.50 106.00" xmlns="http://www.w3.org/2000/svg" xmlns:xlink="http://www.w3.org/1999/xlink">
<g id="graph0" class="graph" transform="scale(1 1) rotate(0) translate(4 102)">
<title>ramses::IDcsmProviderEventHandler</title>
<polygon fill="#ffffff" stroke="transparent" points="-4,4 -4,-102 415.5,-102 415.5,4 -4,4"/>
<!-- Node0 -->
<g id="node1" class="node">
<title>Node0</title>
<polygon fill="#bfbfbf" stroke="#000000" points="120.5,-67.5 120.5,-97.5 266.5,-97.5 266.5,-67.5 120.5,-67.5"/>
<text text-anchor="start" x="128.5" y="-85.5" font-family="Helvetica,sans-Serif" font-size="10.00" fill="#000000">ramses::IDcsmProviderEvent</text>
<text text-anchor="middle" x="193.5" y="-74.5" font-family="Helvetica,sans-Serif" font-size="10.00" fill="#000000">Handler</text>
</g>
<!-- Node1 -->
<g id="node2" class="node">
<title>Node1</title>
<polygon fill="#ffffff" stroke="#bfbfbf" points="0,-6 0,-25 121,-25 121,-6 0,-6"/>
<text text-anchor="middle" x="60.5" y="-13" font-family="Helvetica,sans-Serif" font-size="10.00" fill="#000000">DCSMProviderExample</text>
</g>
<!-- Node0&#45;&gt;Node1 -->
<g id="edge1" class="edge">
<title>Node0&#45;&gt;Node1</title>
<path fill="none" stroke="#8b1a1a" d="M154.5333,-62.8702C129.8609,-50.4412 99.0475,-34.9187 79.5645,-25.1039"/>
<polygon fill="#8b1a1a" stroke="#8b1a1a" points="153.1467,-66.0906 163.6522,-67.4639 156.2961,-59.8391 153.1467,-66.0906"/>
</g>
<!-- Node2 -->
<g id="node3" class="node">
<title>Node2</title>
<g id="a_node3"><a xlink:href="classLocalDCSMExample.html" target="_top" xlink:title="LocalDCSMExample">
<polygon fill="#ffffff" stroke="#000000" points="139.5,-6 139.5,-25 247.5,-25 247.5,-6 139.5,-6"/>
<text text-anchor="middle" x="193.5" y="-13" font-family="Helvetica,sans-Serif" font-size="10.00" fill="#000000">LocalDCSMExample</text>
</a>
</g>
</g>
<!-- Node0&#45;&gt;Node2 -->
<g id="edge2" class="edge">
<title>Node0&#45;&gt;Node2</title>
<path fill="none" stroke="#191970" d="M193.5,-57.1199C193.5,-45.9072 193.5,-33.4031 193.5,-25.055"/>
<polygon fill="#191970" stroke="#191970" points="190.0001,-57.2966 193.5,-67.2967 197.0001,-57.2967 190.0001,-57.2966"/>
</g>
<!-- Node3 -->
<g id="node4" class="node">
<title>Node3</title>
<g id="a_node4"><a xlink:href="classramses_1_1IDcsmProviderEventHandlerExtended.html" target="_top" xlink:title="An Interface for a class, whose functions are called as reaction to a DcsmConsumer message after call...">
<polygon fill="#ffffff" stroke="#000000" points="265.5,-.5 265.5,-30.5 411.5,-30.5 411.5,-.5 265.5,-.5"/>
<text text-anchor="start" x="273.5" y="-18.5" font-family="Helvetica,sans-Serif" font-size="10.00" fill="#000000">ramses::IDcsmProviderEvent</text>
<text text-anchor="middle" x="338.5" y="-7.5" font-family="Helvetica,sans-Serif" font-size="10.00" fill="#000000">HandlerExtended</text>
</a>
</g>
</g>
<!-- Node0&#45;&gt;Node3 -->
<g id="edge3" class="edge">
<title>Node0&#45;&gt;Node3</title>
<path fill="none" stroke="#191970" d="M235.3236,-63.1746C257.7451,-52.8143 284.966,-40.2364 305.8172,-30.6017"/>
<polygon fill="#191970" stroke="#191970" points="233.6505,-60.0921 226.0408,-67.4639 236.5867,-66.4465 233.6505,-60.0921"/>
</g>
</g>
</svg>
