<?xml version="1.0" encoding="UTF-8" standalone="no"?>
<!DOCTYPE svg PUBLIC "-//W3C//DTD SVG 1.1//EN"
 "http://www.w3.org/Graphics/SVG/1.1/DTD/svg11.dtd">
<!-- Generated by graphviz version 2.43.0 (0)
 -->
<!-- Title: ramses::IDcsmProviderEventHandler Pages: 1 -->
<svg width="270pt" height="95pt"
 viewBox="0.00 0.00 269.50 95.00" xmlns="http://www.w3.org/2000/svg" xmlns:xlink="http://www.w3.org/1999/xlink">
<g id="graph0" class="graph" transform="scale(1 1) rotate(0) translate(4 91)">
<title>ramses::IDcsmProviderEventHandler</title>
<polygon fill="white" stroke="transparent" points="-4,4 -4,-91 265.5,-91 265.5,4 -4,4"/>
<!-- Node1 -->
<g id="node1" class="node">
<title>Node1</title>
<g id="a_node1"><a xlink:title="An Interface for a class, whose functions are called as reaction to DcsmConsumer communication after ...">
<polygon fill="#bfbfbf" stroke="black" points="55.5,-56.5 55.5,-86.5 213.5,-86.5 213.5,-56.5 55.5,-56.5"/>
<text text-anchor="start" x="63.5" y="-74.5" font-family="Helvetica,sans-Serif" font-size="10.00">ramses::IDcsmProviderEvent</text>
<text text-anchor="middle" x="134.5" y="-63.5" font-family="Helvetica,sans-Serif" font-size="10.00">Handler</text>
</a>
</g>
</g>
<!-- Node2 -->
<g id="node2" class="node">
<title>Node2</title>
<g id="a_node2"><a xlink:title=" ">
<polygon fill="white" stroke="#bfbfbf" points="0,-0.5 0,-19.5 129,-19.5 129,-0.5 0,-0.5"/>
<text text-anchor="middle" x="64.5" y="-7.5" font-family="Helvetica,sans-Serif" font-size="10.00">DCSMProviderExample</text>
</a>
</g>
</g>
<!-- Node1&#45;&gt;Node2 -->
<g id="edge1" class="edge">
<title>Node1&#45;&gt;Node2</title>
<path fill="none" stroke="#8b1a1a" d="M110.26,-49.89C98.08,-39.54 83.98,-27.56 74.69,-19.66"/>
<polygon fill="#8b1a1a" stroke="#8b1a1a" points="108.02,-52.59 117.91,-56.4 112.56,-47.26 108.02,-52.59"/>
</g>
<!-- Node3 -->
<g id="node3" class="node">
<title>Node3</title>
<g id="a_node3"><a xlink:href="classLocalDCSMExample.html" target="_top" xlink:title=" ">
<polygon fill="white" stroke="black" points="147.5,-0.5 147.5,-19.5 261.5,-19.5 261.5,-0.5 147.5,-0.5"/>
<text text-anchor="middle" x="204.5" y="-7.5" font-family="Helvetica,sans-Serif" font-size="10.00">LocalDCSMExample</text>
</a>
</g>
</g>
<!-- Node1&#45;&gt;Node3 -->
<g id="edge2" class="edge">
<title>Node1&#45;&gt;Node3</title>
<path fill="none" stroke="midnightblue" d="M158.74,-49.89C170.92,-39.54 185.02,-27.56 194.31,-19.66"/>
<polygon fill="midnightblue" stroke="midnightblue" points="156.44,-47.26 151.09,-56.4 160.98,-52.59 156.44,-47.26"/>
</g>
</g>
</svg>
