<?xml version="1.0" encoding="UTF-8" standalone="no"?>
<!DOCTYPE svg PUBLIC "-//W3C//DTD SVG 1.1//EN"
 "http://www.w3.org/Graphics/SVG/1.1/DTD/svg11.dtd">
<!-- Generated by graphviz version 2.43.0 (0)
 -->
<!-- Title: ramses::AnimationObject Pages: 1 -->
<!--zoomable 940 -->
<svg id="main" version="1.1" xmlns="http://www.w3.org/2000/svg" xmlns:xlink="http://www.w3.org/1999/xlink" xml:space="preserve" onload="init(evt)">
<style type="text/css"><![CDATA[
.edge:hover path { stroke: red; }
.edge:hover polygon { stroke: red; fill: red; }
]]></style>
<script type="text/javascript"><![CDATA[
var edges = document.getElementsByTagName('g');
if (edges && edges.length) {
  for (var i=0;i<edges.length;i++) {
    if (edges[i].id.substr(0,4)=='edge') {
      edges[i].setAttribute('class','edge');
    }
  }
}
]]></script>
        <defs>
                <circle id="rim" cx="0" cy="0" r="7"/>
                <circle id="rim2" cx="0" cy="0" r="3.5"/>
                <g id="zoomPlus">
                        <use xlink:href="#rim" fill="#404040">
                                <set attributeName="fill" to="#808080" begin="zoomplus.mouseover" end="zoomplus.mouseout"/>
                        </use>
                        <path d="M-4,0h8M0,-4v8" fill="none" stroke="white" stroke-width="1.5" pointer-events="none"/>
                </g>
                <g id="zoomMin">
                        <use xlink:href="#rim" fill="#404040">
                                <set attributeName="fill" to="#808080" begin="zoomminus.mouseover" end="zoomminus.mouseout"/>
                        </use>
                        <path d="M-4,0h8" fill="none" stroke="white" stroke-width="1.5" pointer-events="none"/>
                </g>
                <g id="dirArrow">
                        <path fill="none" stroke="white" stroke-width="1.5" d="M0,-3.0v7 M-2.5,-0.5L0,-3.0L2.5,-0.5"/>
                </g>
               <g id="resetDef">
                       <use xlink:href="#rim2" fill="#404040">
                               <set attributeName="fill" to="#808080" begin="reset.mouseover" end="reset.mouseout"/>
                       </use>
               </g>
        </defs>

<script type="text/javascript">
var viewWidth = 1168;
var viewHeight = 940;
var sectionId = 'dynsection-0';
</script>
<script xlink:href="svgpan.js"/>
<svg id="graph" class="graph">
<g id="viewport">
<title>ramses::AnimationObject</title>
<polygon fill="white" stroke="transparent" points="-4,4 -4,-936 1164,-936 1164,4 -4,4"/>
<!-- Node1 -->
<g id="node1" class="node">
<title>Node1</title>
<g id="a_node1"><a xlink:title="The AnimationObject is a base class for all client API objects owned by an AnimationSystem.">
<polygon fill="#bfbfbf" stroke="black" points="632,-513.5 632,-532.5 772,-532.5 772,-513.5 632,-513.5"/>
<text text-anchor="middle" x="702" y="-520.5" font-family="Helvetica,sans-Serif" font-size="10.00">ramses::AnimationObject</text>
</a>
</g>
</g>
<!-- Node6 -->
<g id="node6" class="node">
<title>Node6</title>
<g id="a_node6"><a xlink:href="classramses_1_1AnimatedProperty.html" target="_top" xlink:title="The AnimatedProperty holds a reference to data that can be animated.">
<polygon fill="white" stroke="black" points="812.5,-570.5 812.5,-589.5 959.5,-589.5 959.5,-570.5 812.5,-570.5"/>
<text text-anchor="middle" x="886" y="-577.5" font-family="Helvetica,sans-Serif" font-size="10.00">ramses::AnimatedProperty</text>
</a>
</g>
</g>
<!-- Node1&#45;&gt;Node6 -->
<g id="edge5" class="edge">
<title>Node1&#45;&gt;Node6</title>
<path fill="none" stroke="midnightblue" d="M736.85,-536.28C757.28,-544.03 783.93,-553.7 808,-561 819.2,-564.4 831.45,-567.63 842.82,-570.44"/>
<polygon fill="midnightblue" stroke="midnightblue" points="737.95,-532.95 727.36,-532.64 735.45,-539.49 737.95,-532.95"/>
</g>
<!-- Node7 -->
<g id="node7" class="node">
<title>Node7</title>
<g id="a_node7"><a xlink:href="classramses_1_1Animation.html" target="_top" xlink:title="The Animation combines spline with one or more AnimatedProperty instances and allows control of the a...">
<polygon fill="white" stroke="black" points="831.5,-532.5 831.5,-551.5 940.5,-551.5 940.5,-532.5 831.5,-532.5"/>
<text text-anchor="middle" x="886" y="-539.5" font-family="Helvetica,sans-Serif" font-size="10.00">ramses::Animation</text>
</a>
</g>
</g>
<!-- Node1&#45;&gt;Node7 -->
<g id="edge6" class="edge">
<title>Node1&#45;&gt;Node7</title>
<path fill="none" stroke="midnightblue" d="M782.28,-531.28C798.84,-533.01 815.92,-534.79 831.28,-536.39"/>
<polygon fill="midnightblue" stroke="midnightblue" points="782.38,-527.77 772.07,-530.21 781.65,-534.73 782.38,-527.77"/>
</g>
<!-- Node8 -->
<g id="node8" class="node">
<title>Node8</title>
<g id="a_node8"><a xlink:href="classramses_1_1AnimationSequence.html" target="_top" xlink:title="The AnimationSequence is a container for multiple animations. AnimationSequence has its own virtual t...">
<polygon fill="white" stroke="black" points="808,-494.5 808,-513.5 964,-513.5 964,-494.5 808,-494.5"/>
<text text-anchor="middle" x="886" y="-501.5" font-family="Helvetica,sans-Serif" font-size="10.00">ramses::AnimationSequence</text>
</a>
</g>
</g>
<!-- Node1&#45;&gt;Node8 -->
<g id="edge7" class="edge">
<title>Node1&#45;&gt;Node8</title>
<path fill="none" stroke="midnightblue" d="M782.29,-514.72C790.74,-513.84 799.33,-512.94 807.76,-512.06"/>
<polygon fill="midnightblue" stroke="midnightblue" points="781.65,-511.27 772.07,-515.79 782.38,-518.23 781.65,-511.27"/>
</g>
<!-- Node9 -->
<g id="node9" class="node">
<title>Node9</title>
<g id="a_node9"><a xlink:href="classramses_1_1Spline.html" target="_top" xlink:title="The Spline is a set of keys describing an animation.">
<polygon fill="white" stroke="black" points="841.5,-456.5 841.5,-475.5 930.5,-475.5 930.5,-456.5 841.5,-456.5"/>
<text text-anchor="middle" x="886" y="-463.5" font-family="Helvetica,sans-Serif" font-size="10.00">ramses::Spline</text>
</a>
</g>
</g>
<!-- Node1&#45;&gt;Node9 -->
<g id="edge8" class="edge">
<title>Node1&#45;&gt;Node9</title>
<path fill="none" stroke="midnightblue" d="M736.85,-509.72C757.28,-501.97 783.93,-492.3 808,-485 819.2,-481.6 831.45,-478.37 842.82,-475.56"/>
<polygon fill="midnightblue" stroke="midnightblue" points="735.45,-506.51 727.36,-513.36 737.95,-513.05 735.45,-506.51"/>
</g>
<!-- Node2 -->
<g id="node2" class="node">
<title>Node2</title>
<g id="a_node2"><a xlink:href="classramses_1_1SceneObject.html" target="_top" xlink:title="The SceneObject is a base class for all client API objects owned by a Scene.">
<polygon fill="white" stroke="black" points="477,-513.5 477,-532.5 596,-532.5 596,-513.5 477,-513.5"/>
<text text-anchor="middle" x="536.5" y="-520.5" font-family="Helvetica,sans-Serif" font-size="10.00">ramses::SceneObject</text>
</a>
</g>
</g>
<!-- Node2&#45;&gt;Node1 -->
<g id="edge1" class="edge">
<title>Node2&#45;&gt;Node1</title>
<path fill="none" stroke="midnightblue" d="M606.3,-523C614.79,-523 623.48,-523 631.97,-523"/>
<polygon fill="midnightblue" stroke="midnightblue" points="606.07,-519.5 596.07,-523 606.07,-526.5 606.07,-519.5"/>
</g>
<!-- Node3 -->
<g id="node3" class="node">
<title>Node3</title>
<g id="a_node3"><a xlink:href="classramses_1_1ClientObject.html" target="_top" xlink:title="The ClientObject is a base class for all client API objects owned by a RamsesClient.">
<polygon fill="white" stroke="black" points="322,-513.5 322,-532.5 441,-532.5 441,-513.5 322,-513.5"/>
<text text-anchor="middle" x="381.5" y="-520.5" font-family="Helvetica,sans-Serif" font-size="10.00">ramses::ClientObject</text>
</a>
</g>
</g>
<!-- Node3&#45;&gt;Node2 -->
<g id="edge2" class="edge">
<title>Node3&#45;&gt;Node2</title>
<path fill="none" stroke="midnightblue" d="M451.49,-523C459.99,-523 468.62,-523 476.94,-523"/>
<polygon fill="midnightblue" stroke="midnightblue" points="451.22,-519.5 441.22,-523 451.22,-526.5 451.22,-519.5"/>
</g>
<!-- Node4 -->
<g id="node4" class="node">
<title>Node4</title>
<g id="a_node4"><a xlink:href="classramses_1_1RamsesObject.html" target="_top" xlink:title="The RamsesObject is a base class for all client API objects owned by the framework.">
<polygon fill="white" stroke="black" points="157,-513.5 157,-532.5 286,-532.5 286,-513.5 157,-513.5"/>
<text text-anchor="middle" x="221.5" y="-520.5" font-family="Helvetica,sans-Serif" font-size="10.00">ramses::RamsesObject</text>
</a>
</g>
</g>
<!-- Node4&#45;&gt;Node3 -->
<g id="edge3" class="edge">
<title>Node4&#45;&gt;Node3</title>
<path fill="none" stroke="midnightblue" d="M296.57,-523C305.04,-523 313.59,-523 321.81,-523"/>
<polygon fill="midnightblue" stroke="midnightblue" points="296.31,-519.5 286.31,-523 296.31,-526.5 296.31,-519.5"/>
</g>
<!-- Node5 -->
<g id="node5" class="node">
<title>Node5</title>
<g id="a_node5"><a xlink:href="classramses_1_1StatusObject.html" target="_top" xlink:title="The StatusObject provides status message handling.">
<polygon fill="white" stroke="black" points="0,-513.5 0,-532.5 121,-532.5 121,-513.5 0,-513.5"/>
<text text-anchor="middle" x="60.5" y="-520.5" font-family="Helvetica,sans-Serif" font-size="10.00">ramses::StatusObject</text>
</a>
</g>
</g>
<!-- Node5&#45;&gt;Node4 -->
<g id="edge4" class="edge">
<title>Node5&#45;&gt;Node4</title>
<path fill="none" stroke="midnightblue" d="M131.37,-523C139.82,-523 148.43,-523 156.78,-523"/>
<polygon fill="midnightblue" stroke="midnightblue" points="131.16,-519.5 121.16,-523 131.16,-526.5 131.16,-519.5"/>
</g>
<!-- Node10 -->
<g id="node10" class="node">
<title>Node10</title>
<g id="a_node10"><a xlink:href="classramses_1_1SplineBezierFloat.html" target="_top" xlink:title="The SplineBezierFloat stores spline keys of type float that can be used for animation with Bezier int...">
<polygon fill="white" stroke="black" points="1008,-912.5 1008,-931.5 1152,-931.5 1152,-912.5 1008,-912.5"/>
<text text-anchor="middle" x="1080" y="-919.5" font-family="Helvetica,sans-Serif" font-size="10.00">ramses::SplineBezierFloat</text>
</a>
</g>
</g>
<!-- Node9&#45;&gt;Node10 -->
<g id="edge9" class="edge">
<title>Node9&#45;&gt;Node10</title>
<path fill="none" stroke="midnightblue" d="M940.63,-470.14C949.56,-473.17 957.89,-477.85 964,-485 1024.59,-555.86 939.2,-832.32 1000,-903 1003.22,-906.74 1007.04,-909.82 1011.22,-912.34"/>
<polygon fill="midnightblue" stroke="midnightblue" points="941.34,-466.71 930.78,-467.46 939.51,-473.46 941.34,-466.71"/>
</g>
<!-- Node11 -->
<g id="node11" class="node">
<title>Node11</title>
<g id="a_node11"><a xlink:href="classramses_1_1SplineBezierInt32.html" target="_top" xlink:title="The SplineBezierInt32 stores spline keys of type int32_t that can be used for animation with Bezier i...">
<polygon fill="white" stroke="black" points="1008,-874.5 1008,-893.5 1152,-893.5 1152,-874.5 1008,-874.5"/>
<text text-anchor="middle" x="1080" y="-881.5" font-family="Helvetica,sans-Serif" font-size="10.00">ramses::SplineBezierInt32</text>
</a>
</g>
</g>
<!-- Node9&#45;&gt;Node11 -->
<g id="edge10" class="edge">
<title>Node9&#45;&gt;Node11</title>
<path fill="none" stroke="midnightblue" d="M940.58,-470.18C949.51,-473.2 957.86,-477.88 964,-485 1019.4,-549.23 944.41,-800.93 1000,-865 1003.24,-868.73 1007.06,-871.79 1011.26,-874.31"/>
<polygon fill="midnightblue" stroke="midnightblue" points="941.29,-466.75 930.73,-467.51 939.46,-473.5 941.29,-466.75"/>
</g>
<!-- Node12 -->
<g id="node12" class="node">
<title>Node12</title>
<g id="a_node12"><a xlink:href="classramses_1_1SplineBezierVector2f.html" target="_top" xlink:title="The SplineBezierVector2f stores spline keys of type Vector2f that can be used for animation with Bezi...">
<polygon fill="white" stroke="black" points="1000,-836.5 1000,-855.5 1160,-855.5 1160,-836.5 1000,-836.5"/>
<text text-anchor="middle" x="1080" y="-843.5" font-family="Helvetica,sans-Serif" font-size="10.00">ramses::SplineBezierVector2f</text>
</a>
</g>
</g>
<!-- Node9&#45;&gt;Node12 -->
<g id="edge11" class="edge">
<title>Node9&#45;&gt;Node12</title>
<path fill="none" stroke="midnightblue" d="M940.52,-470.23C949.46,-473.25 957.82,-477.91 964,-485 1064.42,-600.22 899.24,-712.08 1000,-827 1003.35,-830.82 1007.32,-833.94 1011.66,-836.48"/>
<polygon fill="midnightblue" stroke="midnightblue" points="941.23,-466.8 930.66,-467.56 939.4,-473.55 941.23,-466.8"/>
</g>
<!-- Node13 -->
<g id="node13" class="node">
<title>Node13</title>
<g id="a_node13"><a xlink:href="classramses_1_1SplineBezierVector2i.html" target="_top" xlink:title="The SplineBezierVector2i stores spline keys of type Vector2i that can be used for animation with Bezi...">
<polygon fill="white" stroke="black" points="1000.5,-798.5 1000.5,-817.5 1159.5,-817.5 1159.5,-798.5 1000.5,-798.5"/>
<text text-anchor="middle" x="1080" y="-805.5" font-family="Helvetica,sans-Serif" font-size="10.00">ramses::SplineBezierVector2i</text>
</a>
</g>
</g>
<!-- Node9&#45;&gt;Node13 -->
<g id="edge12" class="edge">
<title>Node9&#45;&gt;Node13</title>
<path fill="none" stroke="midnightblue" d="M940.44,-470.3C949.39,-473.31 957.78,-477.95 964,-485 1054.06,-586.98 909.64,-687.28 1000,-789 1003.37,-792.8 1007.36,-795.9 1011.72,-798.43"/>
<polygon fill="midnightblue" stroke="midnightblue" points="941.16,-466.86 930.59,-467.63 939.33,-473.62 941.16,-466.86"/>
</g>
<!-- Node14 -->
<g id="node14" class="node">
<title>Node14</title>
<g id="a_node14"><a xlink:href="classramses_1_1SplineBezierVector3f.html" target="_top" xlink:title="The SplineBezierVector3f stores spline keys of type Vector3f that can be used for animation with Bezi...">
<polygon fill="white" stroke="black" points="1000,-760.5 1000,-779.5 1160,-779.5 1160,-760.5 1000,-760.5"/>
<text text-anchor="middle" x="1080" y="-767.5" font-family="Helvetica,sans-Serif" font-size="10.00">ramses::SplineBezierVector3f</text>
</a>
</g>
</g>
<!-- Node9&#45;&gt;Node14 -->
<g id="edge13" class="edge">
<title>Node9&#45;&gt;Node14</title>
<path fill="none" stroke="midnightblue" d="M940.64,-470.48C949.49,-473.49 957.78,-478.08 964,-485 1043.71,-573.76 920.03,-662.47 1000,-751 1003.4,-754.77 1007.41,-757.85 1011.79,-760.37"/>
<polygon fill="midnightblue" stroke="midnightblue" points="941.46,-467.07 930.89,-467.8 939.61,-473.82 941.46,-467.07"/>
</g>
<!-- Node15 -->
<g id="node15" class="node">
<title>Node15</title>
<g id="a_node15"><a xlink:href="classramses_1_1SplineBezierVector3i.html" target="_top" xlink:title="The SplineBezierVector3i stores spline keys of type Vector3i that can be used for animation with Bezi...">
<polygon fill="white" stroke="black" points="1000.5,-722.5 1000.5,-741.5 1159.5,-741.5 1159.5,-722.5 1000.5,-722.5"/>
<text text-anchor="middle" x="1080" y="-729.5" font-family="Helvetica,sans-Serif" font-size="10.00">ramses::SplineBezierVector3i</text>
</a>
</g>
</g>
<!-- Node9&#45;&gt;Node15 -->
<g id="edge14" class="edge">
<title>Node9&#45;&gt;Node15</title>
<path fill="none" stroke="midnightblue" d="M940.51,-470.59C949.37,-473.59 957.71,-478.15 964,-485 1033.38,-560.57 930.4,-637.64 1000,-713 1003.54,-716.83 1007.71,-719.96 1012.25,-722.49"/>
<polygon fill="midnightblue" stroke="midnightblue" points="941.34,-467.19 930.77,-467.91 939.48,-473.94 941.34,-467.19"/>
</g>
<!-- Node16 -->
<g id="node16" class="node">
<title>Node16</title>
<g id="a_node16"><a xlink:href="classramses_1_1SplineBezierVector4f.html" target="_top" xlink:title="The SplineBezierVector4f stores spline keys of type Vector4f that can be used for animation with Bezi...">
<polygon fill="white" stroke="black" points="1000,-684.5 1000,-703.5 1160,-703.5 1160,-684.5 1000,-684.5"/>
<text text-anchor="middle" x="1080" y="-691.5" font-family="Helvetica,sans-Serif" font-size="10.00">ramses::SplineBezierVector4f</text>
</a>
</g>
</g>
<!-- Node9&#45;&gt;Node16 -->
<g id="edge15" class="edge">
<title>Node9&#45;&gt;Node16</title>
<path fill="none" stroke="midnightblue" d="M940.35,-470.75C949.22,-473.73 957.6,-478.24 964,-485 1023.09,-547.41 940.73,-612.76 1000,-675 1003.6,-678.78 1007.81,-681.86 1012.38,-684.37"/>
<polygon fill="midnightblue" stroke="midnightblue" points="941.16,-467.34 930.59,-468.08 939.31,-474.09 941.16,-467.34"/>
</g>
<!-- Node17 -->
<g id="node17" class="node">
<title>Node17</title>
<g id="a_node17"><a xlink:href="classramses_1_1SplineBezierVector4i.html" target="_top" xlink:title="The SplineBezierVector4i stores spline keys of type Vector4i that can be used for animation with Bezi...">
<polygon fill="white" stroke="black" points="1000.5,-646.5 1000.5,-665.5 1159.5,-665.5 1159.5,-646.5 1000.5,-646.5"/>
<text text-anchor="middle" x="1080" y="-653.5" font-family="Helvetica,sans-Serif" font-size="10.00">ramses::SplineBezierVector4i</text>
</a>
</g>
</g>
<!-- Node9&#45;&gt;Node17 -->
<g id="edge16" class="edge">
<title>Node9&#45;&gt;Node17</title>
<path fill="none" stroke="midnightblue" d="M940.39,-471.08C949.18,-474.04 957.52,-478.46 964,-485 1012.86,-534.32 950.99,-587.82 1000,-637 1003.78,-640.8 1008.18,-643.89 1012.94,-646.39"/>
<polygon fill="midnightblue" stroke="midnightblue" points="941.31,-467.71 930.74,-468.41 939.44,-474.45 941.31,-467.71"/>
</g>
<!-- Node18 -->
<g id="node18" class="node">
<title>Node18</title>
<g id="a_node18"><a xlink:href="classramses_1_1SplineLinearFloat.html" target="_top" xlink:title="The SplineLinearFloat stores spline keys of type float that can be used for animation with linear int...">
<polygon fill="white" stroke="black" points="1008.5,-608.5 1008.5,-627.5 1151.5,-627.5 1151.5,-608.5 1008.5,-608.5"/>
<text text-anchor="middle" x="1080" y="-615.5" font-family="Helvetica,sans-Serif" font-size="10.00">ramses::SplineLinearFloat</text>
</a>
</g>
</g>
<!-- Node9&#45;&gt;Node18 -->
<g id="edge17" class="edge">
<title>Node9&#45;&gt;Node18</title>
<path fill="none" stroke="midnightblue" d="M940.57,-471.67C949.2,-474.59 957.43,-478.84 964,-485 1002.75,-521.35 961.14,-562.76 1000,-599 1004.13,-602.85 1008.89,-605.96 1014,-608.47"/>
<polygon fill="midnightblue" stroke="midnightblue" points="941.31,-468.24 930.74,-468.91 939.42,-474.98 941.31,-468.24"/>
</g>
<!-- Node19 -->
<g id="node19" class="node">
<title>Node19</title>
<g id="a_node19"><a xlink:href="classramses_1_1SplineLinearInt32.html" target="_top" xlink:title="The SplineLinearInt32 stores spline keys of type int32_t that can be used for animation with linear i...">
<polygon fill="white" stroke="black" points="1008.5,-570.5 1008.5,-589.5 1151.5,-589.5 1151.5,-570.5 1008.5,-570.5"/>
<text text-anchor="middle" x="1080" y="-577.5" font-family="Helvetica,sans-Serif" font-size="10.00">ramses::SplineLinearInt32</text>
</a>
</g>
</g>
<!-- Node9&#45;&gt;Node19 -->
<g id="edge18" class="edge">
<title>Node9&#45;&gt;Node19</title>
<path fill="none" stroke="midnightblue" d="M940.48,-472.63C948.97,-475.46 957.18,-479.43 964,-485 992.94,-508.65 970.99,-537.43 1000,-561 1004.71,-564.82 1010.06,-567.9 1015.72,-570.37"/>
<polygon fill="midnightblue" stroke="midnightblue" points="941.41,-469.26 930.84,-469.9 939.51,-475.99 941.41,-469.26"/>
</g>
<!-- Node20 -->
<g id="node20" class="node">
<title>Node20</title>
<g id="a_node20"><a xlink:href="classramses_1_1SplineLinearVector2f.html" target="_top" xlink:title="The SplineLinearVector2f stores spline keys of type Vector2f that can be used for animation with line...">
<polygon fill="white" stroke="black" points="1000.5,-532.5 1000.5,-551.5 1159.5,-551.5 1159.5,-532.5 1000.5,-532.5"/>
<text text-anchor="middle" x="1080" y="-539.5" font-family="Helvetica,sans-Serif" font-size="10.00">ramses::SplineLinearVector2f</text>
</a>
</g>
</g>
<!-- Node9&#45;&gt;Node20 -->
<g id="edge19" class="edge">
<title>Node9&#45;&gt;Node20</title>
<path fill="none" stroke="midnightblue" d="M940.29,-474.91C948.54,-477.47 956.73,-480.77 964,-485 984.11,-496.7 979.86,-511.36 1000,-523 1006.72,-526.88 1014.19,-529.98 1021.79,-532.44"/>
<polygon fill="midnightblue" stroke="midnightblue" points="941.2,-471.53 930.63,-472.23 939.33,-478.28 941.2,-471.53"/>
</g>
<!-- Node21 -->
<g id="node21" class="node">
<title>Node21</title>
<g id="a_node21"><a xlink:href="classramses_1_1SplineLinearVector2i.html" target="_top" xlink:title="The SplineLinearVector2i stores spline keys of type Vector2i that can be used for animation with line...">
<polygon fill="white" stroke="black" points="1001,-494.5 1001,-513.5 1159,-513.5 1159,-494.5 1001,-494.5"/>
<text text-anchor="middle" x="1080" y="-501.5" font-family="Helvetica,sans-Serif" font-size="10.00">ramses::SplineLinearVector2i</text>
</a>
</g>
</g>
<!-- Node9&#45;&gt;Node21 -->
<g id="edge20" class="edge">
<title>Node9&#45;&gt;Node21</title>
<path fill="none" stroke="midnightblue" d="M940.7,-476.63C969.01,-482.23 1003.45,-489.05 1030.89,-494.48"/>
<polygon fill="midnightblue" stroke="midnightblue" points="941.06,-473.13 930.57,-474.62 939.7,-480 941.06,-473.13"/>
</g>
<!-- Node22 -->
<g id="node22" class="node">
<title>Node22</title>
<g id="a_node22"><a xlink:href="classramses_1_1SplineLinearVector3f.html" target="_top" xlink:title="The SplineLinearVector3f stores spline keys of type Vector3f that can be used for animation with line...">
<polygon fill="white" stroke="black" points="1000.5,-456.5 1000.5,-475.5 1159.5,-475.5 1159.5,-456.5 1000.5,-456.5"/>
<text text-anchor="middle" x="1080" y="-463.5" font-family="Helvetica,sans-Serif" font-size="10.00">ramses::SplineLinearVector3f</text>
</a>
</g>
</g>
<!-- Node9&#45;&gt;Node22 -->
<g id="edge21" class="edge">
<title>Node9&#45;&gt;Node22</title>
<path fill="none" stroke="midnightblue" d="M940.79,-466C959.19,-466 980.17,-466 1000.13,-466"/>
<polygon fill="midnightblue" stroke="midnightblue" points="940.57,-462.5 930.57,-466 940.57,-469.5 940.57,-462.5"/>
</g>
<!-- Node23 -->
<g id="node23" class="node">
<title>Node23</title>
<g id="a_node23"><a xlink:href="classramses_1_1SplineLinearVector3i.html" target="_top" xlink:title="The SplineLinearVector3i stores spline keys of type Vector3i that can be used for animation with line...">
<polygon fill="white" stroke="black" points="1001,-418.5 1001,-437.5 1159,-437.5 1159,-418.5 1001,-418.5"/>
<text text-anchor="middle" x="1080" y="-425.5" font-family="Helvetica,sans-Serif" font-size="10.00">ramses::SplineLinearVector3i</text>
</a>
</g>
</g>
<!-- Node9&#45;&gt;Node23 -->
<g id="edge22" class="edge">
<title>Node9&#45;&gt;Node23</title>
<path fill="none" stroke="midnightblue" d="M940.7,-455.37C969.01,-449.77 1003.45,-442.95 1030.89,-437.52"/>
<polygon fill="midnightblue" stroke="midnightblue" points="939.7,-452 930.57,-457.38 941.06,-458.87 939.7,-452"/>
</g>
<!-- Node24 -->
<g id="node24" class="node">
<title>Node24</title>
<g id="a_node24"><a xlink:href="classramses_1_1SplineLinearVector4f.html" target="_top" xlink:title="The SplineLinearVector4f stores spline keys of type Vector4f that can be used for animation with line...">
<polygon fill="white" stroke="black" points="1000.5,-380.5 1000.5,-399.5 1159.5,-399.5 1159.5,-380.5 1000.5,-380.5"/>
<text text-anchor="middle" x="1080" y="-387.5" font-family="Helvetica,sans-Serif" font-size="10.00">ramses::SplineLinearVector4f</text>
</a>
</g>
</g>
<!-- Node9&#45;&gt;Node24 -->
<g id="edge23" class="edge">
<title>Node9&#45;&gt;Node24</title>
<path fill="none" stroke="midnightblue" d="M911.78,-451.4C934.18,-438.71 968.41,-420.59 1000,-409 1009.93,-405.36 1020.83,-402.22 1031.26,-399.6"/>
<polygon fill="midnightblue" stroke="midnightblue" points="909.87,-448.46 902.94,-456.47 913.35,-454.53 909.87,-448.46"/>
</g>
<!-- Node25 -->
<g id="node25" class="node">
<title>Node25</title>
<g id="a_node25"><a xlink:href="classramses_1_1SplineLinearVector4i.html" target="_top" xlink:title="The SplineLinearVector4i stores spline keys of type Vector4i that can be used for animation with line...">
<polygon fill="white" stroke="black" points="1001,-342.5 1001,-361.5 1159,-361.5 1159,-342.5 1001,-342.5"/>
<text text-anchor="middle" x="1080" y="-349.5" font-family="Helvetica,sans-Serif" font-size="10.00">ramses::SplineLinearVector4i</text>
</a>
</g>
</g>
<!-- Node9&#45;&gt;Node25 -->
<g id="edge24" class="edge">
<title>Node9&#45;&gt;Node25</title>
<path fill="none" stroke="midnightblue" d="M902.48,-448.79C922.77,-427.31 960.44,-390.97 1000,-371 1007.68,-367.12 1016.19,-364.01 1024.69,-361.53"/>
<polygon fill="midnightblue" stroke="midnightblue" points="899.82,-446.51 895.59,-456.23 904.95,-451.27 899.82,-446.51"/>
</g>
<!-- Node26 -->
<g id="node26" class="node">
<title>Node26</title>
<g id="a_node26"><a xlink:href="classramses_1_1SplineStepBool.html" target="_top" xlink:title="The SplineStepBool stores spline keys of type bool that can be used for animation with step interpola...">
<polygon fill="white" stroke="black" points="1014,-304.5 1014,-323.5 1146,-323.5 1146,-304.5 1014,-304.5"/>
<text text-anchor="middle" x="1080" y="-311.5" font-family="Helvetica,sans-Serif" font-size="10.00">ramses::SplineStepBool</text>
</a>
</g>
</g>
<!-- Node9&#45;&gt;Node26 -->
<g id="edge25" class="edge">
<title>Node9&#45;&gt;Node26</title>
<path fill="none" stroke="midnightblue" d="M897.47,-447.37C914.84,-418.24 952.46,-362.23 1000,-333 1006.37,-329.08 1013.49,-325.98 1020.77,-323.51"/>
<polygon fill="midnightblue" stroke="midnightblue" points="894.37,-445.74 892.37,-456.14 900.42,-449.26 894.37,-445.74"/>
</g>
<!-- Node27 -->
<g id="node27" class="node">
<title>Node27</title>
<g id="a_node27"><a xlink:href="classramses_1_1SplineStepFloat.html" target="_top" xlink:title="The SplineStepFloat stores spline keys of type float that can be used for animation with step interpo...">
<polygon fill="white" stroke="black" points="1012.5,-266.5 1012.5,-285.5 1147.5,-285.5 1147.5,-266.5 1012.5,-266.5"/>
<text text-anchor="middle" x="1080" y="-273.5" font-family="Helvetica,sans-Serif" font-size="10.00">ramses::SplineStepFloat</text>
</a>
</g>
</g>
<!-- Node9&#45;&gt;Node27 -->
<g id="edge26" class="edge">
<title>Node9&#45;&gt;Node27</title>
<path fill="none" stroke="midnightblue" d="M894.14,-446.7C908.42,-410.9 944.02,-334.25 1000,-295 1005.54,-291.11 1011.79,-288.02 1018.27,-285.55"/>
<polygon fill="midnightblue" stroke="midnightblue" points="890.73,-445.83 890.39,-456.42 897.26,-448.35 890.73,-445.83"/>
</g>
<!-- Node28 -->
<g id="node28" class="node">
<title>Node28</title>
<g id="a_node28"><a xlink:href="classramses_1_1SplineStepInt32.html" target="_top" xlink:title="The SplineStepInt32 stores spline keys of type int32_t that can be used for animation with step inter...">
<polygon fill="white" stroke="black" points="1012.5,-228.5 1012.5,-247.5 1147.5,-247.5 1147.5,-228.5 1012.5,-228.5"/>
<text text-anchor="middle" x="1080" y="-235.5" font-family="Helvetica,sans-Serif" font-size="10.00">ramses::SplineStepInt32</text>
</a>
</g>
</g>
<!-- Node9&#45;&gt;Node28 -->
<g id="edge27" class="edge">
<title>Node9&#45;&gt;Node28</title>
<path fill="none" stroke="midnightblue" d="M891.76,-446.52C902.98,-404.86 935.17,-306.86 1000,-257 1005.03,-253.13 1010.74,-250.03 1016.72,-247.56"/>
<polygon fill="midnightblue" stroke="midnightblue" points="888.35,-445.71 889.24,-456.27 895.13,-447.46 888.35,-445.71"/>
</g>
<!-- Node29 -->
<g id="node29" class="node">
<title>Node29</title>
<g id="a_node29"><a xlink:href="classramses_1_1SplineStepVector2f.html" target="_top" xlink:title="The SplineStepVector2f stores spline keys of type Vector2f that can be used for animation with step i...">
<polygon fill="white" stroke="black" points="1004.5,-190.5 1004.5,-209.5 1155.5,-209.5 1155.5,-190.5 1004.5,-190.5"/>
<text text-anchor="middle" x="1080" y="-197.5" font-family="Helvetica,sans-Serif" font-size="10.00">ramses::SplineStepVector2f</text>
</a>
</g>
</g>
<!-- Node9&#45;&gt;Node29 -->
<g id="edge28" class="edge">
<title>Node9&#45;&gt;Node29</title>
<path fill="none" stroke="midnightblue" d="M890.05,-446.29C898.41,-399.25 926.18,-279.79 1000,-219 1004.68,-215.14 1010.02,-212.05 1015.66,-209.56"/>
<polygon fill="midnightblue" stroke="midnightblue" points="886.56,-445.94 888.36,-456.38 893.46,-447.1 886.56,-445.94"/>
</g>
<!-- Node30 -->
<g id="node30" class="node">
<title>Node30</title>
<g id="a_node30"><a xlink:href="classramses_1_1SplineStepVector2i.html" target="_top" xlink:title="The SplineStepVector2i stores spline keys of type Vector2i that can be used for animation with step i...">
<polygon fill="white" stroke="black" points="1005,-152.5 1005,-171.5 1155,-171.5 1155,-152.5 1005,-152.5"/>
<text text-anchor="middle" x="1080" y="-159.5" font-family="Helvetica,sans-Serif" font-size="10.00">ramses::SplineStepVector2i</text>
</a>
</g>
</g>
<!-- Node9&#45;&gt;Node30 -->
<g id="edge29" class="edge">
<title>Node9&#45;&gt;Node30</title>
<path fill="none" stroke="midnightblue" d="M888.74,-446.15C894.39,-394.15 917.03,-253 1000,-181 1004.37,-177.21 1009.36,-174.15 1014.67,-171.67"/>
<polygon fill="midnightblue" stroke="midnightblue" points="885.23,-446.06 887.73,-456.35 892.2,-446.75 885.23,-446.06"/>
</g>
<!-- Node31 -->
<g id="node31" class="node">
<title>Node31</title>
<g id="a_node31"><a xlink:href="classramses_1_1SplineStepVector3f.html" target="_top" xlink:title="The SplineStepVector3f stores spline keys of type Vector3f that can be used for animation with step i...">
<polygon fill="white" stroke="black" points="1004.5,-114.5 1004.5,-133.5 1155.5,-133.5 1155.5,-114.5 1004.5,-114.5"/>
<text text-anchor="middle" x="1080" y="-121.5" font-family="Helvetica,sans-Serif" font-size="10.00">ramses::SplineStepVector3f</text>
</a>
</g>
</g>
<!-- Node9&#45;&gt;Node31 -->
<g id="edge30" class="edge">
<title>Node9&#45;&gt;Node31</title>
<path fill="none" stroke="midnightblue" d="M887.69,-446.21C890.78,-389.74 907.65,-226.5 1000,-143 1004.19,-139.22 1008.99,-136.15 1014.12,-133.67"/>
<polygon fill="midnightblue" stroke="midnightblue" points="884.19,-446.16 887.23,-456.3 891.18,-446.48 884.19,-446.16"/>
</g>
<!-- Node32 -->
<g id="node32" class="node">
<title>Node32</title>
<g id="a_node32"><a xlink:href="classramses_1_1SplineStepVector3i.html" target="_top" xlink:title="The SplineStepVector3i stores spline keys of type Vector3i that can be used for animation with step i...">
<polygon fill="white" stroke="black" points="1005,-76.5 1005,-95.5 1155,-95.5 1155,-76.5 1005,-76.5"/>
<text text-anchor="middle" x="1080" y="-83.5" font-family="Helvetica,sans-Serif" font-size="10.00">ramses::SplineStepVector3i</text>
</a>
</g>
</g>
<!-- Node9&#45;&gt;Node32 -->
<g id="edge31" class="edge">
<title>Node9&#45;&gt;Node32</title>
<path fill="none" stroke="midnightblue" d="M886.85,-446.37C887.51,-385.81 898.14,-200.22 1000,-105 1004.12,-101.15 1008.88,-98.03 1013.99,-95.52"/>
<polygon fill="midnightblue" stroke="midnightblue" points="883.35,-446.46 886.82,-456.46 890.35,-446.47 883.35,-446.46"/>
</g>
<!-- Node33 -->
<g id="node33" class="node">
<title>Node33</title>
<g id="a_node33"><a xlink:href="classramses_1_1SplineStepVector4f.html" target="_top" xlink:title="The SplineStepVector4f stores spline keys of type Vector4f that can be used for animation with step i...">
<polygon fill="white" stroke="black" points="1004.5,-38.5 1004.5,-57.5 1155.5,-57.5 1155.5,-38.5 1004.5,-38.5"/>
<text text-anchor="middle" x="1080" y="-45.5" font-family="Helvetica,sans-Serif" font-size="10.00">ramses::SplineStepVector4f</text>
</a>
</g>
</g>
<!-- Node9&#45;&gt;Node33 -->
<g id="edge32" class="edge">
<title>Node9&#45;&gt;Node33</title>
<path fill="none" stroke="midnightblue" d="M889.94,-446.15C901.13,-373.22 943.33,-121.45 1000,-67 1003.97,-63.19 1008.56,-60.1 1013.49,-57.6"/>
<polygon fill="midnightblue" stroke="midnightblue" points="886.45,-445.85 888.41,-456.26 893.37,-446.9 886.45,-445.85"/>
</g>
<!-- Node34 -->
<g id="node34" class="node">
<title>Node34</title>
<g id="a_node34"><a xlink:href="classramses_1_1SplineStepVector4i.html" target="_top" xlink:title="The SplineStepVector4i stores spline keys of type Vector4i that can be used for animation with step i...">
<polygon fill="white" stroke="black" points="1005,-0.5 1005,-19.5 1155,-19.5 1155,-0.5 1005,-0.5"/>
<text text-anchor="middle" x="1080" y="-7.5" font-family="Helvetica,sans-Serif" font-size="10.00">ramses::SplineStepVector4i</text>
</a>
</g>
</g>
<!-- Node9&#45;&gt;Node34 -->
<g id="edge33" class="edge">
<title>Node9&#45;&gt;Node34</title>
<path fill="none" stroke="midnightblue" d="M889.47,-445.79C899.36,-368.02 938.61,-89.35 1000,-29 1003.82,-25.24 1008.25,-22.18 1013.02,-19.69"/>
<polygon fill="midnightblue" stroke="midnightblue" points="885.94,-445.77 888.18,-456.13 892.89,-446.64 885.94,-445.77"/>
</g>
</g>
</svg>
        <g id="navigator" transform="translate(0 0)" fill="#404254">
                <rect fill="#f2f5e9" fill-opacity="0.5" stroke="#606060" stroke-width=".5" x="0" y="0" width="60" height="60"/>
                <use id="zoomplus" xlink:href="#zoomPlus" x="17" y="9" onmousedown="handleZoom(evt,'in')"/>
                <use id="zoomminus" xlink:href="#zoomMin" x="42" y="9" onmousedown="handleZoom(evt,'out')"/>
                <use id="reset" xlink:href="#resetDef" x="30" y="36" onmousedown="handleReset()"/>
                <g id="arrowUp" xlink:href="#dirArrow" transform="translate(30 24)" onmousedown="handlePan(0,-1)">
                  <use xlink:href="#rim" fill="#404040">
                        <set attributeName="fill" to="#808080" begin="arrowUp.mouseover" end="arrowUp.mouseout"/>
                  </use>
                  <path fill="none" stroke="white" stroke-width="1.5" d="M0,-3.0v7 M-2.5,-0.5L0,-3.0L2.5,-0.5"/>
                </g>
                <g id="arrowRight" xlink:href="#dirArrow" transform="rotate(90) translate(36 -43)" onmousedown="handlePan(1,0)">
                  <use xlink:href="#rim" fill="#404040">
                        <set attributeName="fill" to="#808080" begin="arrowRight.mouseover" end="arrowRight.mouseout"/>
                  </use>
                  <path fill="none" stroke="white" stroke-width="1.5" d="M0,-3.0v7 M-2.5,-0.5L0,-3.0L2.5,-0.5"/>
                </g>
                <g id="arrowDown" xlink:href="#dirArrow" transform="rotate(180) translate(-30 -48)" onmousedown="handlePan(0,1)">
                  <use xlink:href="#rim" fill="#404040">
                        <set attributeName="fill" to="#808080" begin="arrowDown.mouseover" end="arrowDown.mouseout"/>
                  </use>
                  <path fill="none" stroke="white" stroke-width="1.5" d="M0,-3.0v7 M-2.5,-0.5L0,-3.0L2.5,-0.5"/>
                </g>
                <g id="arrowLeft" xlink:href="#dirArrow" transform="rotate(270) translate(-36 17)" onmousedown="handlePan(-1,0)">
                  <use xlink:href="#rim" fill="#404040">
                        <set attributeName="fill" to="#808080" begin="arrowLeft.mouseover" end="arrowLeft.mouseout"/>
                  </use>
                  <path fill="none" stroke="white" stroke-width="1.5" d="M0,-3.0v7 M-2.5,-0.5L0,-3.0L2.5,-0.5"/>
                </g>
        </g>
        <svg viewBox="0 0 15 15" width="100%" height="30px" preserveAspectRatio="xMaxYMin meet">
         <g id="arrow_out" transform="scale(0.3 0.3)">
          <a xlink:href="classramses_1_1AnimationObject__inherit__graph_org.svg" target="_base">
           <rect id="button" ry="5" rx="5" y="6" x="6" height="38" width="38"
                fill="#f2f5e9" fill-opacity="0.5" stroke="#606060" stroke-width="1.0"/>
           <path id="arrow"
             d="M 11.500037,31.436501 C 11.940474,20.09759 22.043105,11.32322 32.158766,21.979434 L 37.068811,17.246167 C 37.068811,17.246167 37.088388,32 37.088388,32 L 22.160133,31.978069 C 22.160133,31.978069 26.997745,27.140456 26.997745,27.140456 C 18.528582,18.264221 13.291696,25.230495 11.500037,31.436501 z"
             style="fill:#404040;"/>
          </a>
         </g>
        </svg>
</svg>
