<?xml version="1.0" encoding="UTF-8" standalone="no"?>
<!DOCTYPE svg PUBLIC "-//W3C//DTD SVG 1.1//EN"
 "http://www.w3.org/Graphics/SVG/1.1/DTD/svg11.dtd">
<!-- Generated by graphviz version 2.43.0 (0)
 -->
<!-- Title: ramses::Node Pages: 1 -->
<svg width="502pt" height="364pt"
 viewBox="0.00 0.00 501.50 364.00" xmlns="http://www.w3.org/2000/svg" xmlns:xlink="http://www.w3.org/1999/xlink">
<g id="graph0" class="graph" transform="scale(1 1) rotate(0) translate(4 360)">
<title>ramses::Node</title>
<polygon fill="white" stroke="transparent" points="-4,4 -4,-360 497.5,-360 497.5,4 -4,4"/>
<!-- Node1 -->
<g id="node1" class="node">
<title>Node1</title>
<g id="a_node1"><a xlink:title="The Node is the base class of all nodes and provides scene graph functionality which propagates to it...">
<polygon fill="#bfbfbf" stroke="black" points="247,-112.5 247,-131.5 331,-131.5 331,-112.5 247,-112.5"/>
<text text-anchor="middle" x="289" y="-119.5" font-family="Helvetica,sans-Serif" font-size="10.00">ramses::Node</text>
</a>
</g>
</g>
<!-- Node6 -->
<g id="node6" class="node">
<title>Node6</title>
<g id="a_node6"><a xlink:href="classramses_1_1Camera.html" target="_top" xlink:title="The Camera base class is part of a scene and defines a view into the scene defined by the client appl...">
<polygon fill="white" stroke="black" points="118.5,-56.5 118.5,-75.5 215.5,-75.5 215.5,-56.5 118.5,-56.5"/>
<text text-anchor="middle" x="167" y="-63.5" font-family="Helvetica,sans-Serif" font-size="10.00">ramses::Camera</text>
</a>
</g>
</g>
<!-- Node1&#45;&gt;Node6 -->
<g id="edge5" class="edge">
<title>Node1&#45;&gt;Node6</title>
<path fill="none" stroke="midnightblue" d="M260.46,-108.37C237.61,-98.26 206.19,-84.35 186.24,-75.52"/>
<polygon fill="midnightblue" stroke="midnightblue" points="259.11,-111.6 269.67,-112.44 261.94,-105.2 259.11,-111.6"/>
</g>
<!-- Node9 -->
<g id="node9" class="node">
<title>Node9</title>
<g id="a_node9"><a xlink:href="classramses_1_1MeshNode.html" target="_top" xlink:title="The MeshNode holds all information which is needed to render an object to the screen.">
<polygon fill="white" stroke="black" points="234,-56.5 234,-75.5 344,-75.5 344,-56.5 234,-56.5"/>
<text text-anchor="middle" x="289" y="-63.5" font-family="Helvetica,sans-Serif" font-size="10.00">ramses::MeshNode</text>
</a>
</g>
</g>
<!-- Node1&#45;&gt;Node9 -->
<g id="edge8" class="edge">
<title>Node1&#45;&gt;Node9</title>
<path fill="none" stroke="midnightblue" d="M289,-101.8C289,-92.91 289,-82.78 289,-75.75"/>
<polygon fill="midnightblue" stroke="midnightblue" points="285.5,-102.08 289,-112.08 292.5,-102.08 285.5,-102.08"/>
</g>
<!-- Node10 -->
<g id="node10" class="node">
<title>Node10</title>
<g id="a_node10"><a xlink:href="classramses_1_1PickableObject.html" target="_top" xlink:title="PickableObject provides a way to specify a &#39;pickable&#39; area.">
<polygon fill="white" stroke="black" points="362.5,-56.5 362.5,-75.5 493.5,-75.5 493.5,-56.5 362.5,-56.5"/>
<text text-anchor="middle" x="428" y="-63.5" font-family="Helvetica,sans-Serif" font-size="10.00">ramses::PickableObject</text>
</a>
</g>
</g>
<!-- Node1&#45;&gt;Node10 -->
<g id="edge9" class="edge">
<title>Node1&#45;&gt;Node10</title>
<path fill="none" stroke="midnightblue" d="M320.48,-108.77C346.59,-98.63 383.04,-84.47 406.08,-75.52"/>
<polygon fill="midnightblue" stroke="midnightblue" points="319.08,-105.56 311.02,-112.44 321.61,-112.08 319.08,-105.56"/>
</g>
<!-- Node2 -->
<g id="node2" class="node">
<title>Node2</title>
<g id="a_node2"><a xlink:href="classramses_1_1SceneObject.html" target="_top" xlink:title="The SceneObject is a base class for all client API objects owned by a Scene.">
<polygon fill="white" stroke="black" points="229.5,-168.5 229.5,-187.5 348.5,-187.5 348.5,-168.5 229.5,-168.5"/>
<text text-anchor="middle" x="289" y="-175.5" font-family="Helvetica,sans-Serif" font-size="10.00">ramses::SceneObject</text>
</a>
</g>
</g>
<!-- Node2&#45;&gt;Node1 -->
<g id="edge1" class="edge">
<title>Node2&#45;&gt;Node1</title>
<path fill="none" stroke="midnightblue" d="M289,-157.8C289,-148.91 289,-138.78 289,-131.75"/>
<polygon fill="midnightblue" stroke="midnightblue" points="285.5,-158.08 289,-168.08 292.5,-158.08 285.5,-158.08"/>
</g>
<!-- Node3 -->
<g id="node3" class="node">
<title>Node3</title>
<g id="a_node3"><a xlink:href="classramses_1_1ClientObject.html" target="_top" xlink:title="The ClientObject is a base class for all client API objects owned by a RamsesClient.">
<polygon fill="white" stroke="black" points="229.5,-224.5 229.5,-243.5 348.5,-243.5 348.5,-224.5 229.5,-224.5"/>
<text text-anchor="middle" x="289" y="-231.5" font-family="Helvetica,sans-Serif" font-size="10.00">ramses::ClientObject</text>
</a>
</g>
</g>
<!-- Node3&#45;&gt;Node2 -->
<g id="edge2" class="edge">
<title>Node3&#45;&gt;Node2</title>
<path fill="none" stroke="midnightblue" d="M289,-213.8C289,-204.91 289,-194.78 289,-187.75"/>
<polygon fill="midnightblue" stroke="midnightblue" points="285.5,-214.08 289,-224.08 292.5,-214.08 285.5,-214.08"/>
</g>
<!-- Node4 -->
<g id="node4" class="node">
<title>Node4</title>
<g id="a_node4"><a xlink:href="classramses_1_1RamsesObject.html" target="_top" xlink:title="The RamsesObject is a base class for all client API objects owned by the framework.">
<polygon fill="white" stroke="black" points="224.5,-280.5 224.5,-299.5 353.5,-299.5 353.5,-280.5 224.5,-280.5"/>
<text text-anchor="middle" x="289" y="-287.5" font-family="Helvetica,sans-Serif" font-size="10.00">ramses::RamsesObject</text>
</a>
</g>
</g>
<!-- Node4&#45;&gt;Node3 -->
<g id="edge3" class="edge">
<title>Node4&#45;&gt;Node3</title>
<path fill="none" stroke="midnightblue" d="M289,-269.8C289,-260.91 289,-250.78 289,-243.75"/>
<polygon fill="midnightblue" stroke="midnightblue" points="285.5,-270.08 289,-280.08 292.5,-270.08 285.5,-270.08"/>
</g>
<!-- Node5 -->
<g id="node5" class="node">
<title>Node5</title>
<g id="a_node5"><a xlink:href="classramses_1_1StatusObject.html" target="_top" xlink:title="The StatusObject provides status message handling.">
<polygon fill="white" stroke="black" points="228.5,-336.5 228.5,-355.5 349.5,-355.5 349.5,-336.5 228.5,-336.5"/>
<text text-anchor="middle" x="289" y="-343.5" font-family="Helvetica,sans-Serif" font-size="10.00">ramses::StatusObject</text>
</a>
</g>
</g>
<!-- Node5&#45;&gt;Node4 -->
<g id="edge4" class="edge">
<title>Node5&#45;&gt;Node4</title>
<path fill="none" stroke="midnightblue" d="M289,-325.8C289,-316.91 289,-306.78 289,-299.75"/>
<polygon fill="midnightblue" stroke="midnightblue" points="285.5,-326.08 289,-336.08 292.5,-326.08 285.5,-326.08"/>
</g>
<!-- Node7 -->
<g id="node7" class="node">
<title>Node7</title>
<g id="a_node7"><a xlink:href="classramses_1_1OrthographicCamera.html" target="_top" xlink:title="The OrthographicCamera is a local camera which defines an orthographic view into the scene.">
<polygon fill="white" stroke="black" points="0,-0.5 0,-19.5 160,-19.5 160,-0.5 0,-0.5"/>
<text text-anchor="middle" x="80" y="-7.5" font-family="Helvetica,sans-Serif" font-size="10.00">ramses::OrthographicCamera</text>
</a>
</g>
</g>
<!-- Node6&#45;&gt;Node7 -->
<g id="edge6" class="edge">
<title>Node6&#45;&gt;Node7</title>
<path fill="none" stroke="midnightblue" d="M144.28,-50.9C128.33,-41 107.5,-28.07 93.94,-19.65"/>
<polygon fill="midnightblue" stroke="midnightblue" points="142.68,-54.02 153.02,-56.32 146.37,-48.08 142.68,-54.02"/>
</g>
<!-- Node8 -->
<g id="node8" class="node">
<title>Node8</title>
<g id="a_node8"><a xlink:href="classramses_1_1PerspectiveCamera.html" target="_top" xlink:title="The PerspectiveCamera is a local camera which defines a perspective view into the scene.">
<polygon fill="white" stroke="black" points="178,-0.5 178,-19.5 332,-19.5 332,-0.5 178,-0.5"/>
<text text-anchor="middle" x="255" y="-7.5" font-family="Helvetica,sans-Serif" font-size="10.00">ramses::PerspectiveCamera</text>
</a>
</g>
</g>
<!-- Node6&#45;&gt;Node8 -->
<g id="edge7" class="edge">
<title>Node6&#45;&gt;Node8</title>
<path fill="none" stroke="midnightblue" d="M189.98,-50.9C206.11,-41 227.18,-28.07 240.9,-19.65"/>
<polygon fill="midnightblue" stroke="midnightblue" points="187.83,-48.11 181.14,-56.32 191.49,-54.08 187.83,-48.11"/>
</g>
</g>
</svg>
