<?xml version="1.0" encoding="UTF-8" standalone="no"?>
<!DOCTYPE svg PUBLIC "-//W3C//DTD SVG 1.1//EN"
 "http://www.w3.org/Graphics/SVG/1.1/DTD/svg11.dtd">
<!-- Generated by graphviz version 2.43.0 (0)
 -->
<!-- Title: /home/q479098/src/mirror/renderer/RendererLib/ramses&#45;renderer&#45;api/include/ramses&#45;renderer&#45;api Pages: 1 -->
<svg width="156pt" height="151pt"
 viewBox="0.00 0.00 156.00 151.00" xmlns="http://www.w3.org/2000/svg" xmlns:xlink="http://www.w3.org/1999/xlink">
<g id="graph0" class="graph" transform="scale(1 1) rotate(0) translate(4 147)">
<title>/home/q479098/src/mirror/renderer/RendererLib/ramses&#45;renderer&#45;api/include/ramses&#45;renderer&#45;api</title>
<polygon fill="white" stroke="transparent" points="-4,4 -4,-147 152,-147 152,4 -4,4"/>
<g id="clust1" class="cluster">
<title>clusterdir_4acd8f81f9a26c82a08890379bd35249</title>
<g id="a_clust1"><a xlink:href="dir_4acd8f81f9a26c82a08890379bd35249.html" target="_top" xlink:title="include">
<polygon fill="#ddddee" stroke="black" points="8,-64 8,-135 140,-135 140,-64 8,-64"/>
<text text-anchor="middle" x="74" y="-123" font-family="Helvetica,sans-Serif" font-size="10.00">include</text>
</a>
</g>
</g>
<!-- dir_2016399c76e4951ffe136f2843373232 -->
<g id="node1" class="node">
<title>dir_2016399c76e4951ffe136f2843373232</title>
<g id="a_node1"><a xlink:href="dir_2016399c76e4951ffe136f2843373232.html" target="_top" xlink:title="ramses&#45;renderer&#45;api">
<polygon fill="#eeeeff" stroke="black" points="132,-108 16,-108 16,-72 132,-72 132,-108"/>
<text text-anchor="middle" x="74" y="-87.5" font-family="Helvetica,sans-Serif" font-size="10.00">ramses&#45;renderer&#45;api</text>
</a>
</g>
</g>
<!-- dir_644e041c3a6521da7b27eba0e4eb2b95 -->
<g id="node2" class="node">
<title>dir_644e041c3a6521da7b27eba0e4eb2b95</title>
<g id="a_node2"><a xlink:href="dir_644e041c3a6521da7b27eba0e4eb2b95.html" target="_top" xlink:title="framework">
<polygon fill="white" stroke="red" points="109,-36 39,-36 39,0 109,0 109,-36"/>
<text text-anchor="middle" x="74" y="-15.5" font-family="Helvetica,sans-Serif" font-size="10.00">framework</text>
</a>
</g>
</g>
<!-- dir_2016399c76e4951ffe136f2843373232&#45;&gt;dir_644e041c3a6521da7b27eba0e4eb2b95 -->
<g id="edge1" class="edge">
<title>dir_2016399c76e4951ffe136f2843373232&#45;&gt;dir_644e041c3a6521da7b27eba0e4eb2b95</title>
<path fill="none" stroke="black" d="M74,-71.7C74,-63.98 74,-54.71 74,-46.11"/>
<polygon fill="black" stroke="black" points="77.5,-46.1 74,-36.1 70.5,-46.1 77.5,-46.1"/>
<g id="a_edge1&#45;headlabel"><a xlink:href="dir_000083_000075.html" target="_top" xlink:title="20">
<text text-anchor="middle" x="80.34" y="-47.2" font-family="Helvetica,sans-Serif" font-size="10.00">20</text>
</a>
</g>
</g>
</g>
</svg>
