<?xml version="1.0" encoding="UTF-8" standalone="no"?>
<!DOCTYPE svg PUBLIC "-//W3C//DTD SVG 1.1//EN"
 "http://www.w3.org/Graphics/SVG/1.1/DTD/svg11.dtd">
<!-- Generated by graphviz version 2.43.0 (0)
 -->
<!-- Title: /home/runner/work/ramses/ramses/examples/ramses&#45;example&#45;basic&#45;blending/src Pages: 1 -->
<svg width="198pt" height="151pt"
 viewBox="0.00 0.00 198.00 151.00" xmlns="http://www.w3.org/2000/svg" xmlns:xlink="http://www.w3.org/1999/xlink">
<g id="graph0" class="graph" transform="scale(1 1) rotate(0) translate(4 147)">
<title>/home/runner/work/ramses/ramses/examples/ramses&#45;example&#45;basic&#45;blending/src</title>
<polygon fill="white" stroke="transparent" points="-4,4 -4,-147 194,-147 194,4 -4,4"/>
<g id="clust1" class="cluster">
<title>clusterdir_217a59ada875afa3a48145e6b77f6d2f</title>
<g id="a_clust1"><a xlink:href="dir_217a59ada875afa3a48145e6b77f6d2f.html" target="_top" xlink:title="ramses&#45;example&#45;basic&#45;blending">
<polygon fill="#ddddee" stroke="black" points="8,-64 8,-135 182,-135 182,-64 8,-64"/>
<text text-anchor="middle" x="95" y="-123" font-family="Helvetica,sans-Serif" font-size="10.00">ramses&#45;example&#45;basic&#45;blending</text>
</a>
</g>
</g>
<!-- dir_537304c633cd6ee8d3cd8bda01348c41 -->
<g id="node1" class="node">
<title>dir_537304c633cd6ee8d3cd8bda01348c41</title>
<g id="a_node1"><a xlink:href="dir_537304c633cd6ee8d3cd8bda01348c41.html" target="_top" xlink:title="src">
<polygon fill="#eeeeff" stroke="black" points="122,-108 68,-108 68,-72 122,-72 122,-108"/>
<text text-anchor="middle" x="95" y="-87.5" font-family="Helvetica,sans-Serif" font-size="10.00">src</text>
</a>
</g>
</g>
<!-- dir_26af246848702a33262a7ef2acf92491 -->
<g id="node2" class="node">
<title>dir_26af246848702a33262a7ef2acf92491</title>
<g id="a_node2"><a xlink:href="dir_26af246848702a33262a7ef2acf92491.html" target="_top" xlink:title="client">
<polygon fill="white" stroke="red" points="122,-36 68,-36 68,0 122,0 122,-36"/>
<text text-anchor="middle" x="95" y="-15.5" font-family="Helvetica,sans-Serif" font-size="10.00">client</text>
</a>
</g>
</g>
<!-- dir_537304c633cd6ee8d3cd8bda01348c41&#45;&gt;dir_26af246848702a33262a7ef2acf92491 -->
<g id="edge1" class="edge">
<title>dir_537304c633cd6ee8d3cd8bda01348c41&#45;&gt;dir_26af246848702a33262a7ef2acf92491</title>
<path fill="none" stroke="black" d="M95,-71.7C95,-63.98 95,-54.71 95,-46.11"/>
<polygon fill="black" stroke="black" points="98.5,-46.1 95,-36.1 91.5,-46.1 98.5,-46.1"/>
<g id="a_edge1&#45;headlabel"><a xlink:href="dir_000022_000001.html" target="_top" xlink:title="1">
<text text-anchor="middle" x="101.34" y="-47.2" font-family="Helvetica,sans-Serif" font-size="10.00">1</text>
</a>
</g>
</g>
</g>
</svg>
