<?xml version="1.0" encoding="UTF-8" standalone="no"?>
<!DOCTYPE svg PUBLIC "-//W3C//DTD SVG 1.1//EN"
 "http://www.w3.org/Graphics/SVG/1.1/DTD/svg11.dtd">
<!-- Generated by graphviz version 2.43.0 (0)
 -->
<!-- Title: /home/runner/work/ramses/ramses/renderer/RendererLib/ramses&#45;renderer&#45;api/include/ramses&#45;renderer&#45;api Pages: 1 -->
<svg width="156pt" height="151pt"
 viewBox="0.00 0.00 156.00 151.00" xmlns="http://www.w3.org/2000/svg" xmlns:xlink="http://www.w3.org/1999/xlink">
<g id="graph0" class="graph" transform="scale(1 1) rotate(0) translate(4 147)">
<title>/home/runner/work/ramses/ramses/renderer/RendererLib/ramses&#45;renderer&#45;api/include/ramses&#45;renderer&#45;api</title>
<polygon fill="white" stroke="transparent" points="-4,4 -4,-147 152,-147 152,4 -4,4"/>
<g id="clust1" class="cluster">
<title>clusterdir_e92bb067809c5f8861157b44b96c58df</title>
<g id="a_clust1"><a xlink:href="dir_e92bb067809c5f8861157b44b96c58df.html" target="_top" xlink:title="include">
<polygon fill="#ddddee" stroke="black" points="8,-64 8,-135 140,-135 140,-64 8,-64"/>
<text text-anchor="middle" x="74" y="-123" font-family="Helvetica,sans-Serif" font-size="10.00">include</text>
</a>
</g>
</g>
<!-- dir_5eb8794fe111b1e67f351012fc23df57 -->
<g id="node1" class="node">
<title>dir_5eb8794fe111b1e67f351012fc23df57</title>
<g id="a_node1"><a xlink:href="dir_5eb8794fe111b1e67f351012fc23df57.html" target="_top" xlink:title="ramses&#45;renderer&#45;api">
<polygon fill="#eeeeff" stroke="black" points="132,-108 16,-108 16,-72 132,-72 132,-108"/>
<text text-anchor="middle" x="74" y="-87.5" font-family="Helvetica,sans-Serif" font-size="10.00">ramses&#45;renderer&#45;api</text>
</a>
</g>
</g>
<!-- dir_ca8fa6fd603755c533029df5a9606911 -->
<g id="node2" class="node">
<title>dir_ca8fa6fd603755c533029df5a9606911</title>
<g id="a_node2"><a xlink:href="dir_ca8fa6fd603755c533029df5a9606911.html" target="_top" xlink:title="framework">
<polygon fill="white" stroke="red" points="109,-36 39,-36 39,0 109,0 109,-36"/>
<text text-anchor="middle" x="74" y="-15.5" font-family="Helvetica,sans-Serif" font-size="10.00">framework</text>
</a>
</g>
</g>
<!-- dir_5eb8794fe111b1e67f351012fc23df57&#45;&gt;dir_ca8fa6fd603755c533029df5a9606911 -->
<g id="edge1" class="edge">
<title>dir_5eb8794fe111b1e67f351012fc23df57&#45;&gt;dir_ca8fa6fd603755c533029df5a9606911</title>
<path fill="none" stroke="black" d="M74,-71.7C74,-63.98 74,-54.71 74,-46.11"/>
<polygon fill="black" stroke="black" points="77.5,-46.1 74,-36.1 70.5,-46.1 77.5,-46.1"/>
<g id="a_edge1&#45;headlabel"><a xlink:href="dir_000088_000080.html" target="_top" xlink:title="20">
<text text-anchor="middle" x="80.34" y="-47.2" font-family="Helvetica,sans-Serif" font-size="10.00">20</text>
</a>
</g>
</g>
</g>
</svg>
