<?xml version="1.0" encoding="UTF-8" standalone="no"?>
<!DOCTYPE svg PUBLIC "-//W3C//DTD SVG 1.1//EN"
 "http://www.w3.org/Graphics/SVG/1.1/DTD/svg11.dtd">
<!-- Generated by graphviz version 2.40.1 (20161225.0304)
 -->
<!-- Title: /home/ramses/dev/oss&#45;ramses/examples/ramses&#45;example&#45;local&#45;datalink/src Pages: 1 -->
<svg width="173pt" height="151pt"
 viewBox="0.00 0.00 173.00 151.00" xmlns="http://www.w3.org/2000/svg" xmlns:xlink="http://www.w3.org/1999/xlink">
<g id="graph0" class="graph" transform="scale(1 1) rotate(0) translate(4 147)">
<title>/home/ramses/dev/oss&#45;ramses/examples/ramses&#45;example&#45;local&#45;datalink/src</title>
<polygon fill="#ffffff" stroke="transparent" points="-4,4 -4,-147 169,-147 169,4 -4,4"/>
<g id="clust1" class="cluster">
<title>clusterdir_2f9285700b75fcb5431f532ab0ea0bc9</title>
<g id="a_clust1"><a xlink:href="dir_2f9285700b75fcb5431f532ab0ea0bc9.html" target="_top" xlink:title="ramses&#45;example&#45;local&#45;datalink">
<polygon fill="#ddddee" stroke="#000000" points="8,-64 8,-135 157,-135 157,-64 8,-64"/>
<text text-anchor="middle" x="82.5" y="-123" font-family="Helvetica,sans-Serif" font-size="10.00" fill="#000000">ramses&#45;example&#45;local&#45;datalink</text>
</a>
</g>
</g>
<!-- dir_1affb9ba3277c0bd131be2bc1344d6f8 -->
<g id="node1" class="node">
<title>dir_1affb9ba3277c0bd131be2bc1344d6f8</title>
<g id="a_node1"><a xlink:href="dir_1affb9ba3277c0bd131be2bc1344d6f8.html" target="_top" xlink:title="src">
<polygon fill="#eeeeff" stroke="#000000" points="109,-108 55,-108 55,-72 109,-72 109,-108"/>
<text text-anchor="middle" x="82" y="-87.5" font-family="Helvetica,sans-Serif" font-size="10.00" fill="#000000">src</text>
</a>
</g>
</g>
<!-- dir_db3a54907829b36871118d03417739cd -->
<g id="node2" class="node">
<title>dir_db3a54907829b36871118d03417739cd</title>
<g id="a_node2"><a xlink:href="dir_db3a54907829b36871118d03417739cd.html" target="_top" xlink:title="client">
<polygon fill="#ffffff" stroke="#ff0000" points="73,-36 19,-36 19,0 73,0 73,-36"/>
<text text-anchor="middle" x="46" y="-15.5" font-family="Helvetica,sans-Serif" font-size="10.00" fill="#000000">client</text>
</a>
</g>
</g>
<!-- dir_1affb9ba3277c0bd131be2bc1344d6f8&#45;&gt;dir_db3a54907829b36871118d03417739cd -->
<g id="edge1" class="edge">
<title>dir_1affb9ba3277c0bd131be2bc1344d6f8&#45;&gt;dir_db3a54907829b36871118d03417739cd</title>
<path fill="none" stroke="#000000" d="M72.9157,-71.8314C68.9385,-63.8771 64.1845,-54.369 59.7861,-45.5723"/>
<polygon fill="#000000" stroke="#000000" points="62.8093,-43.7923 55.2066,-36.4133 56.5483,-46.9228 62.8093,-43.7923"/>
<g id="a_edge1&#45;headlabel"><a xlink:href="dir_000048_000000.html" target="_top" xlink:title="3">
<text text-anchor="middle" x="66.9563" y="-43.2377" font-family="Helvetica,sans-Serif" font-size="10.00" fill="#000000">3</text>
</a>
</g>
</g>
<!-- dir_d10aa5f1e26260a914a037377583e9a7 -->
<g id="node3" class="node">
<title>dir_d10aa5f1e26260a914a037377583e9a7</title>
<g id="a_node3"><a xlink:href="dir_d10aa5f1e26260a914a037377583e9a7.html" target="_top" xlink:title="renderer">
<polygon fill="#ffffff" stroke="#ff0000" points="145,-36 91,-36 91,0 145,0 145,-36"/>
<text text-anchor="middle" x="118" y="-15.5" font-family="Helvetica,sans-Serif" font-size="10.00" fill="#000000">renderer</text>
</a>
</g>
</g>
<!-- dir_1affb9ba3277c0bd131be2bc1344d6f8&#45;&gt;dir_d10aa5f1e26260a914a037377583e9a7 -->
<g id="edge2" class="edge">
<title>dir_1affb9ba3277c0bd131be2bc1344d6f8&#45;&gt;dir_d10aa5f1e26260a914a037377583e9a7</title>
<path fill="none" stroke="#000000" d="M91.0843,-71.8314C95.0615,-63.8771 99.8155,-54.369 104.2139,-45.5723"/>
<polygon fill="#000000" stroke="#000000" points="107.4517,-46.9228 108.7934,-36.4133 101.1907,-43.7923 107.4517,-46.9228"/>
<g id="a_edge2&#45;headlabel"><a xlink:href="dir_000048_000075.html" target="_top" xlink:title="4">
<text text-anchor="middle" x="108.3837" y="-48.9077" font-family="Helvetica,sans-Serif" font-size="10.00" fill="#000000">4</text>
</a>
</g>
</g>
</g>
</svg>
