<?xml version="1.0" encoding="UTF-8" standalone="no"?>
<!DOCTYPE svg PUBLIC "-//W3C//DTD SVG 1.1//EN"
 "http://www.w3.org/Graphics/SVG/1.1/DTD/svg11.dtd">
<!-- Generated by graphviz version 2.43.0 (0)
 -->
<!-- Title: /home/q479079/sources/ramses&#45;oss/examples/ramses&#45;example&#45;text&#45;basic/src Pages: 1 -->
<svg width="176pt" height="151pt"
 viewBox="0.00 0.00 176.00 151.00" xmlns="http://www.w3.org/2000/svg" xmlns:xlink="http://www.w3.org/1999/xlink">
<g id="graph0" class="graph" transform="scale(1 1) rotate(0) translate(4 147)">
<title>/home/q479079/sources/ramses&#45;oss/examples/ramses&#45;example&#45;text&#45;basic/src</title>
<polygon fill="white" stroke="transparent" points="-4,4 -4,-147 172,-147 172,4 -4,4"/>
<g id="clust1" class="cluster">
<title>clusterdir_0379f8901090b45f16de50b3dcc979d8</title>
<g id="a_clust1"><a xlink:href="dir_0379f8901090b45f16de50b3dcc979d8.html" target="_top" xlink:title="ramses&#45;example&#45;text&#45;basic">
<polygon fill="#ddddee" stroke="black" points="8,-64 8,-135 160,-135 160,-64 8,-64"/>
<text text-anchor="middle" x="84" y="-123" font-family="Helvetica,sans-Serif" font-size="10.00">ramses&#45;example&#45;text&#45;basic</text>
</a>
</g>
</g>
<!-- dir_e87ee74889a959629724d23d2ab3a72f -->
<g id="node1" class="node">
<title>dir_e87ee74889a959629724d23d2ab3a72f</title>
<g id="a_node1"><a xlink:href="dir_e87ee74889a959629724d23d2ab3a72f.html" target="_top" xlink:title="src">
<polygon fill="#eeeeff" stroke="black" points="111,-108 57,-108 57,-72 111,-72 111,-108"/>
<text text-anchor="middle" x="84" y="-87.5" font-family="Helvetica,sans-Serif" font-size="10.00">src</text>
</a>
</g>
</g>
<!-- dir_db3a54907829b36871118d03417739cd -->
<g id="node2" class="node">
<title>dir_db3a54907829b36871118d03417739cd</title>
<g id="a_node2"><a xlink:href="dir_db3a54907829b36871118d03417739cd.html" target="_top" xlink:title="client">
<polygon fill="white" stroke="red" points="111,-36 57,-36 57,0 111,0 111,-36"/>
<text text-anchor="middle" x="84" y="-15.5" font-family="Helvetica,sans-Serif" font-size="10.00">client</text>
</a>
</g>
</g>
<!-- dir_e87ee74889a959629724d23d2ab3a72f&#45;&gt;dir_db3a54907829b36871118d03417739cd -->
<g id="edge1" class="edge">
<title>dir_e87ee74889a959629724d23d2ab3a72f&#45;&gt;dir_db3a54907829b36871118d03417739cd</title>
<path fill="none" stroke="black" d="M84,-71.7C84,-63.98 84,-54.71 84,-46.11"/>
<polygon fill="black" stroke="black" points="87.5,-46.1 84,-36.1 80.5,-46.1 87.5,-46.1"/>
<g id="a_edge1&#45;headlabel"><a xlink:href="dir_000072_000000.html" target="_top" xlink:title="3">
<text text-anchor="middle" x="90.34" y="-47.2" font-family="Helvetica,sans-Serif" font-size="10.00">3</text>
</a>
</g>
</g>
</g>
</svg>
