<?xml version="1.0" encoding="UTF-8" standalone="no"?>
<!DOCTYPE svg PUBLIC "-//W3C//DTD SVG 1.1//EN"
 "http://www.w3.org/Graphics/SVG/1.1/DTD/svg11.dtd">
<!-- Generated by graphviz version 2.43.0 (0)
 -->
<!-- Title: /home/q479098/src/mirror/examples/ramses&#45;example&#45;local&#45;pick&#45;handling Pages: 1 -->
<svg width="355pt" height="231pt"
 viewBox="0.00 0.00 355.00 231.00" xmlns="http://www.w3.org/2000/svg" xmlns:xlink="http://www.w3.org/1999/xlink">
<g id="graph0" class="graph" transform="scale(1 1) rotate(0) translate(4 227)">
<title>/home/q479098/src/mirror/examples/ramses&#45;example&#45;local&#45;pick&#45;handling</title>
<polygon fill="white" stroke="transparent" points="-4,4 -4,-227 351,-227 351,4 -4,4"/>
<g id="clust1" class="cluster">
<title>clusterdir_d28a4824dc47e487b107a5db32ef43c4</title>
<g id="a_clust1"><a xlink:href="dir_d28a4824dc47e487b107a5db32ef43c4.html" target="_top" xlink:title="examples">
<polygon fill="#ddddee" stroke="black" points="39,-128 39,-215 339,-215 339,-128 39,-128"/>
<text text-anchor="middle" x="189" y="-203" font-family="Helvetica,sans-Serif" font-size="10.00">examples</text>
</a>
</g>
</g>
<g id="clust2" class="cluster">
<title>clusterdir_7c1bbcc314943e3db5a79e8771697325</title>
<g id="a_clust2"><a xlink:href="dir_7c1bbcc314943e3db5a79e8771697325.html" target="_top">
<polygon fill="#eeeeff" stroke="black" points="47,-136 47,-188 331,-188 331,-136 47,-136"/>
</a>
</g>
</g>
<!-- dir_7c1bbcc314943e3db5a79e8771697325 -->
<g id="node1" class="node">
<title>dir_7c1bbcc314943e3db5a79e8771697325</title>
<text text-anchor="middle" x="225" y="-159.5" font-family="Helvetica,sans-Serif" font-size="10.00">ramses&#45;example&#45;local&#45;pick&#45;handling</text>
</g>
<!-- dir_e39b3d8a52500e21a177650c0e464c05 -->
<g id="node2" class="node">
<title>dir_e39b3d8a52500e21a177650c0e464c05</title>
<g id="a_node2"><a xlink:href="dir_e39b3d8a52500e21a177650c0e464c05.html" target="_top" xlink:title="src">
<polygon fill="white" stroke="black" points="109,-180 55,-180 55,-144 109,-144 109,-180"/>
<text text-anchor="middle" x="82" y="-159.5" font-family="Helvetica,sans-Serif" font-size="10.00">src</text>
</a>
</g>
</g>
<!-- dir_db3a54907829b36871118d03417739cd -->
<g id="node3" class="node">
<title>dir_db3a54907829b36871118d03417739cd</title>
<g id="a_node3"><a xlink:href="dir_db3a54907829b36871118d03417739cd.html" target="_top" xlink:title="client">
<polygon fill="white" stroke="red" points="54,-108 0,-108 0,-72 54,-72 54,-108"/>
<text text-anchor="middle" x="27" y="-87.5" font-family="Helvetica,sans-Serif" font-size="10.00">client</text>
</a>
</g>
</g>
<!-- dir_e39b3d8a52500e21a177650c0e464c05&#45;&gt;dir_db3a54907829b36871118d03417739cd -->
<g id="edge2" class="edge">
<title>dir_e39b3d8a52500e21a177650c0e464c05&#45;&gt;dir_db3a54907829b36871118d03417739cd</title>
<path fill="none" stroke="black" d="M68.4,-143.7C61.88,-135.39 53.93,-125.28 46.75,-116.14"/>
<polygon fill="black" stroke="black" points="49.37,-113.81 40.44,-108.1 43.87,-118.13 49.37,-113.81"/>
<g id="a_edge2&#45;headlabel"><a xlink:href="dir_000062_000000.html" target="_top" xlink:title="3">
<text text-anchor="middle" x="53.82" y="-112.38" font-family="Helvetica,sans-Serif" font-size="10.00">3</text>
</a>
</g>
</g>
<!-- dir_644e041c3a6521da7b27eba0e4eb2b95 -->
<g id="node4" class="node">
<title>dir_644e041c3a6521da7b27eba0e4eb2b95</title>
<g id="a_node4"><a xlink:href="dir_644e041c3a6521da7b27eba0e4eb2b95.html" target="_top" xlink:title="framework">
<polygon fill="white" stroke="red" points="117,-36 47,-36 47,0 117,0 117,-36"/>
<text text-anchor="middle" x="82" y="-15.5" font-family="Helvetica,sans-Serif" font-size="10.00">framework</text>
</a>
</g>
</g>
<!-- dir_e39b3d8a52500e21a177650c0e464c05&#45;&gt;dir_644e041c3a6521da7b27eba0e4eb2b95 -->
<g id="edge3" class="edge">
<title>dir_e39b3d8a52500e21a177650c0e464c05&#45;&gt;dir_644e041c3a6521da7b27eba0e4eb2b95</title>
<path fill="none" stroke="black" d="M82,-143.87C82,-119.67 82,-75.21 82,-46.39"/>
<polygon fill="black" stroke="black" points="85.5,-46.19 82,-36.19 78.5,-46.19 85.5,-46.19"/>
<g id="a_edge3&#45;headlabel"><a xlink:href="dir_000062_000075.html" target="_top" xlink:title="1">
<text text-anchor="middle" x="88.34" y="-47.28" font-family="Helvetica,sans-Serif" font-size="10.00">1</text>
</a>
</g>
</g>
<!-- dir_d10aa5f1e26260a914a037377583e9a7 -->
<g id="node5" class="node">
<title>dir_d10aa5f1e26260a914a037377583e9a7</title>
<g id="a_node5"><a xlink:href="dir_d10aa5f1e26260a914a037377583e9a7.html" target="_top" xlink:title="renderer">
<polygon fill="white" stroke="red" points="168,-108 110,-108 110,-72 168,-72 168,-108"/>
<text text-anchor="middle" x="139" y="-87.5" font-family="Helvetica,sans-Serif" font-size="10.00">renderer</text>
</a>
</g>
</g>
<!-- dir_e39b3d8a52500e21a177650c0e464c05&#45;&gt;dir_d10aa5f1e26260a914a037377583e9a7 -->
<g id="edge4" class="edge">
<title>dir_e39b3d8a52500e21a177650c0e464c05&#45;&gt;dir_d10aa5f1e26260a914a037377583e9a7</title>
<path fill="none" stroke="black" d="M96.09,-143.7C102.92,-135.3 111.26,-125.07 118.76,-115.86"/>
<polygon fill="black" stroke="black" points="121.47,-118.07 125.07,-108.1 116.04,-113.65 121.47,-118.07"/>
<g id="a_edge4&#45;headlabel"><a xlink:href="dir_000062_000079.html" target="_top" xlink:title="5">
<text text-anchor="middle" x="121.4" y="-120.15" font-family="Helvetica,sans-Serif" font-size="10.00">5</text>
</a>
</g>
</g>
<!-- dir_db3a54907829b36871118d03417739cd&#45;&gt;dir_644e041c3a6521da7b27eba0e4eb2b95 -->
<g id="edge1" class="edge">
<title>dir_db3a54907829b36871118d03417739cd&#45;&gt;dir_644e041c3a6521da7b27eba0e4eb2b95</title>
<path fill="none" stroke="black" d="M40.6,-71.7C47.12,-63.39 55.07,-53.28 62.25,-44.14"/>
<polygon fill="black" stroke="black" points="65.13,-46.13 68.56,-36.1 59.63,-41.81 65.13,-46.13"/>
<g id="a_edge1&#45;headlabel"><a xlink:href="dir_000000_000075.html" target="_top" xlink:title="32">
<text text-anchor="middle" x="65.15" y="-48.21" font-family="Helvetica,sans-Serif" font-size="10.00">32</text>
</a>
</g>
</g>
<!-- dir_d10aa5f1e26260a914a037377583e9a7&#45;&gt;dir_644e041c3a6521da7b27eba0e4eb2b95 -->
<g id="edge5" class="edge">
<title>dir_d10aa5f1e26260a914a037377583e9a7&#45;&gt;dir_644e041c3a6521da7b27eba0e4eb2b95</title>
<path fill="none" stroke="black" d="M124.91,-71.7C118.08,-63.3 109.74,-53.07 102.24,-43.86"/>
<polygon fill="black" stroke="black" points="104.96,-41.65 95.93,-36.1 99.53,-46.07 104.96,-41.65"/>
<g id="a_edge5&#45;headlabel"><a xlink:href="dir_000079_000075.html" target="_top" xlink:title="20">
<text text-anchor="middle" x="109.43" y="-40.14" font-family="Helvetica,sans-Serif" font-size="10.00">20</text>
</a>
</g>
</g>
</g>
</svg>
