<?xml version="1.0" encoding="UTF-8" standalone="no"?>
<!DOCTYPE svg PUBLIC "-//W3C//DTD SVG 1.1//EN"
 "http://www.w3.org/Graphics/SVG/1.1/DTD/svg11.dtd">
<!-- Generated by graphviz version 2.43.0 (0)
 -->
<!-- Title: /home/runner/work/ramses/ramses/examples/ramses&#45;example&#45;local&#45;client/src Pages: 1 -->
<svg width="181pt" height="151pt"
 viewBox="0.00 0.00 181.00 151.00" xmlns="http://www.w3.org/2000/svg" xmlns:xlink="http://www.w3.org/1999/xlink">
<g id="graph0" class="graph" transform="scale(1 1) rotate(0) translate(4 147)">
<title>/home/runner/work/ramses/ramses/examples/ramses&#45;example&#45;local&#45;client/src</title>
<polygon fill="white" stroke="transparent" points="-4,4 -4,-147 177,-147 177,4 -4,4"/>
<g id="clust1" class="cluster">
<title>clusterdir_9315ceba13c7d78dcbfd1e0edcf6a9a8</title>
<g id="a_clust1"><a xlink:href="dir_9315ceba13c7d78dcbfd1e0edcf6a9a8.html" target="_top" xlink:title="ramses&#45;example&#45;local&#45;client">
<polygon fill="#ddddee" stroke="black" points="8,-64 8,-135 165,-135 165,-64 8,-64"/>
<text text-anchor="middle" x="86.5" y="-123" font-family="Helvetica,sans-Serif" font-size="10.00">ramses&#45;example&#45;local&#45;client</text>
</a>
</g>
</g>
<!-- dir_ef9a27505cc1573b5e5864456a1c2541 -->
<g id="node1" class="node">
<title>dir_ef9a27505cc1573b5e5864456a1c2541</title>
<g id="a_node1"><a xlink:href="dir_ef9a27505cc1573b5e5864456a1c2541.html" target="_top" xlink:title="src">
<polygon fill="#eeeeff" stroke="black" points="113,-108 59,-108 59,-72 113,-72 113,-108"/>
<text text-anchor="middle" x="86" y="-87.5" font-family="Helvetica,sans-Serif" font-size="10.00">src</text>
</a>
</g>
</g>
<!-- dir_26af246848702a33262a7ef2acf92491 -->
<g id="node2" class="node">
<title>dir_26af246848702a33262a7ef2acf92491</title>
<g id="a_node2"><a xlink:href="dir_26af246848702a33262a7ef2acf92491.html" target="_top" xlink:title="client">
<polygon fill="white" stroke="red" points="76,-36 22,-36 22,0 76,0 76,-36"/>
<text text-anchor="middle" x="49" y="-15.5" font-family="Helvetica,sans-Serif" font-size="10.00">client</text>
</a>
</g>
</g>
<!-- dir_ef9a27505cc1573b5e5864456a1c2541&#45;&gt;dir_26af246848702a33262a7ef2acf92491 -->
<g id="edge1" class="edge">
<title>dir_ef9a27505cc1573b5e5864456a1c2541&#45;&gt;dir_26af246848702a33262a7ef2acf92491</title>
<path fill="none" stroke="black" d="M76.85,-71.7C72.6,-63.64 67.44,-53.89 62.73,-44.98"/>
<polygon fill="black" stroke="black" points="65.81,-43.31 58.04,-36.1 59.62,-46.58 65.81,-43.31"/>
<g id="a_edge1&#45;headlabel"><a xlink:href="dir_000054_000001.html" target="_top" xlink:title="1">
<text text-anchor="middle" x="70" y="-42.66" font-family="Helvetica,sans-Serif" font-size="10.00">1</text>
</a>
</g>
</g>
<!-- dir_4797b4e6785279b55036fb4e0c62a1b2 -->
<g id="node3" class="node">
<title>dir_4797b4e6785279b55036fb4e0c62a1b2</title>
<g id="a_node3"><a xlink:href="dir_4797b4e6785279b55036fb4e0c62a1b2.html" target="_top" xlink:title="renderer">
<polygon fill="white" stroke="red" points="152,-36 94,-36 94,0 152,0 152,-36"/>
<text text-anchor="middle" x="123" y="-15.5" font-family="Helvetica,sans-Serif" font-size="10.00">renderer</text>
</a>
</g>
</g>
<!-- dir_ef9a27505cc1573b5e5864456a1c2541&#45;&gt;dir_4797b4e6785279b55036fb4e0c62a1b2 -->
<g id="edge2" class="edge">
<title>dir_ef9a27505cc1573b5e5864456a1c2541&#45;&gt;dir_4797b4e6785279b55036fb4e0c62a1b2</title>
<path fill="none" stroke="black" d="M95.15,-71.7C99.4,-63.64 104.56,-53.89 109.27,-44.98"/>
<polygon fill="black" stroke="black" points="112.38,-46.58 113.96,-36.1 106.19,-43.31 112.38,-46.58"/>
<g id="a_edge2&#45;headlabel"><a xlink:href="dir_000054_000083.html" target="_top" xlink:title="4">
<text text-anchor="middle" x="113.21" y="-48.59" font-family="Helvetica,sans-Serif" font-size="10.00">4</text>
</a>
</g>
</g>
</g>
</svg>
