<?xml version="1.0" encoding="UTF-8" standalone="no"?>
<!DOCTYPE svg PUBLIC "-//W3C//DTD SVG 1.1//EN"
 "http://www.w3.org/Graphics/SVG/1.1/DTD/svg11.dtd">
<!-- Generated by graphviz version 2.43.0 (0)
 -->
<!-- Title: /home/runner/work/ramses/ramses/examples/ramses&#45;example&#45;basic&#45;file&#45;loading/src Pages: 1 -->
<svg width="211pt" height="151pt"
 viewBox="0.00 0.00 211.00 151.00" xmlns="http://www.w3.org/2000/svg" xmlns:xlink="http://www.w3.org/1999/xlink">
<g id="graph0" class="graph" transform="scale(1 1) rotate(0) translate(4 147)">
<title>/home/runner/work/ramses/ramses/examples/ramses&#45;example&#45;basic&#45;file&#45;loading/src</title>
<polygon fill="white" stroke="transparent" points="-4,4 -4,-147 207,-147 207,4 -4,4"/>
<g id="clust1" class="cluster">
<title>clusterdir_47c94d83271f59520581ff8b214b7ad4</title>
<g id="a_clust1"><a xlink:href="dir_47c94d83271f59520581ff8b214b7ad4.html" target="_top" xlink:title="ramses&#45;example&#45;basic&#45;file&#45;loading">
<polygon fill="#ddddee" stroke="black" points="8,-64 8,-135 195,-135 195,-64 8,-64"/>
<text text-anchor="middle" x="101.5" y="-123" font-family="Helvetica,sans-Serif" font-size="10.00">ramses&#45;example&#45;basic&#45;file&#45;loading</text>
</a>
</g>
</g>
<!-- dir_751c7d36a5d4f999eb99c69b9c54ee75 -->
<g id="node1" class="node">
<title>dir_751c7d36a5d4f999eb99c69b9c54ee75</title>
<g id="a_node1"><a xlink:href="dir_751c7d36a5d4f999eb99c69b9c54ee75.html" target="_top" xlink:title="src">
<polygon fill="#eeeeff" stroke="black" points="128,-108 74,-108 74,-72 128,-72 128,-108"/>
<text text-anchor="middle" x="101" y="-87.5" font-family="Helvetica,sans-Serif" font-size="10.00">src</text>
</a>
</g>
</g>
<!-- dir_26af246848702a33262a7ef2acf92491 -->
<g id="node2" class="node">
<title>dir_26af246848702a33262a7ef2acf92491</title>
<g id="a_node2"><a xlink:href="dir_26af246848702a33262a7ef2acf92491.html" target="_top" xlink:title="client">
<polygon fill="white" stroke="red" points="128,-36 74,-36 74,0 128,0 128,-36"/>
<text text-anchor="middle" x="101" y="-15.5" font-family="Helvetica,sans-Serif" font-size="10.00">client</text>
</a>
</g>
</g>
<!-- dir_751c7d36a5d4f999eb99c69b9c54ee75&#45;&gt;dir_26af246848702a33262a7ef2acf92491 -->
<g id="edge1" class="edge">
<title>dir_751c7d36a5d4f999eb99c69b9c54ee75&#45;&gt;dir_26af246848702a33262a7ef2acf92491</title>
<path fill="none" stroke="black" d="M101,-71.7C101,-63.98 101,-54.71 101,-46.11"/>
<polygon fill="black" stroke="black" points="104.5,-46.1 101,-36.1 97.5,-46.1 104.5,-46.1"/>
<g id="a_edge1&#45;headlabel"><a xlink:href="dir_000029_000001.html" target="_top" xlink:title="2">
<text text-anchor="middle" x="107.34" y="-47.2" font-family="Helvetica,sans-Serif" font-size="10.00">2</text>
</a>
</g>
</g>
</g>
</svg>
