<?xml version="1.0" encoding="UTF-8" standalone="no"?>
<!DOCTYPE svg PUBLIC "-//W3C//DTD SVG 1.1//EN"
 "http://www.w3.org/Graphics/SVG/1.1/DTD/svg11.dtd">
<!-- Generated by graphviz version 2.43.0 (0)
 -->
<!-- Title: /home/runner/work/ramses/ramses/client Pages: 1 -->
<svg width="212pt" height="175pt"
 viewBox="0.00 0.00 212.00 175.00" xmlns="http://www.w3.org/2000/svg" xmlns:xlink="http://www.w3.org/1999/xlink">
<g id="graph0" class="graph" transform="scale(1 1) rotate(0) translate(4 171)">
<title>/home/runner/work/ramses/ramses/client</title>
<polygon fill="white" stroke="transparent" points="-4,4 -4,-171 208,-171 208,4 -4,4"/>
<g id="clust1" class="cluster">
<title>clusterdir_7c5875acdb68b2d70fb8aa3689b5e655</title>
<g id="a_clust1"><a xlink:href="dir_7c5875acdb68b2d70fb8aa3689b5e655.html" target="_top" xlink:title="ramses">
<polygon fill="#ddddee" stroke="black" points="8,-8 8,-159 196,-159 196,-8 8,-8"/>
<text text-anchor="middle" x="102" y="-147" font-family="Helvetica,sans-Serif" font-size="10.00">ramses</text>
</a>
</g>
</g>
<g id="clust2" class="cluster">
<title>clusterdir_26af246848702a33262a7ef2acf92491</title>
<g id="a_clust2"><a xlink:href="dir_26af246848702a33262a7ef2acf92491.html" target="_top">
<polygon fill="#eeeeff" stroke="black" points="16,-80 16,-132 188,-132 188,-80 16,-80"/>
</a>
</g>
</g>
<!-- dir_ca8fa6fd603755c533029df5a9606911 -->
<g id="node1" class="node">
<title>dir_ca8fa6fd603755c533029df5a9606911</title>
<g id="a_node1"><a xlink:href="dir_ca8fa6fd603755c533029df5a9606911.html" target="_top" xlink:title="framework">
<polygon fill="white" stroke="red" points="101,-52 31,-52 31,-16 101,-16 101,-52"/>
<text text-anchor="middle" x="66" y="-31.5" font-family="Helvetica,sans-Serif" font-size="10.00">framework</text>
</a>
</g>
</g>
<!-- dir_26af246848702a33262a7ef2acf92491 -->
<g id="node2" class="node">
<title>dir_26af246848702a33262a7ef2acf92491</title>
<text text-anchor="middle" x="153" y="-103.5" font-family="Helvetica,sans-Serif" font-size="10.00">client</text>
</g>
<!-- dir_ac70ea64e2890c36f9947e5bc2f78a20 -->
<g id="node3" class="node">
<title>dir_ac70ea64e2890c36f9947e5bc2f78a20</title>
<g id="a_node3"><a xlink:href="dir_ac70ea64e2890c36f9947e5bc2f78a20.html" target="_top" xlink:title="ramses&#45;client">
<polygon fill="white" stroke="red" points="107.5,-124 24.5,-124 24.5,-88 107.5,-88 107.5,-124"/>
<text text-anchor="middle" x="66" y="-103.5" font-family="Helvetica,sans-Serif" font-size="10.00">ramses&#45;client</text>
</a>
</g>
</g>
<!-- dir_ac70ea64e2890c36f9947e5bc2f78a20&#45;&gt;dir_ca8fa6fd603755c533029df5a9606911 -->
<g id="edge1" class="edge">
<title>dir_ac70ea64e2890c36f9947e5bc2f78a20&#45;&gt;dir_ca8fa6fd603755c533029df5a9606911</title>
<path fill="none" stroke="black" d="M66,-87.7C66,-79.98 66,-70.71 66,-62.11"/>
<polygon fill="black" stroke="black" points="69.5,-62.1 66,-52.1 62.5,-62.1 69.5,-62.1"/>
<g id="a_edge1&#45;headlabel"><a xlink:href="dir_000002_000080.html" target="_top" xlink:title="32">
<text text-anchor="middle" x="72.34" y="-63.2" font-family="Helvetica,sans-Serif" font-size="10.00">32</text>
</a>
</g>
</g>
</g>
</svg>
