<?xml version="1.0" encoding="UTF-8" standalone="no"?>
<!DOCTYPE svg PUBLIC "-//W3C//DTD SVG 1.1//EN"
 "http://www.w3.org/Graphics/SVG/1.1/DTD/svg11.dtd">
<!-- Generated by graphviz version 2.43.0 (0)
 -->
<!-- Title: /home/q479079/sources/ramses&#45;oss/examples/ramses&#45;example&#45;basic&#45;scenegraph/src Pages: 1 -->
<svg width="212pt" height="151pt"
 viewBox="0.00 0.00 212.00 151.00" xmlns="http://www.w3.org/2000/svg" xmlns:xlink="http://www.w3.org/1999/xlink">
<g id="graph0" class="graph" transform="scale(1 1) rotate(0) translate(4 147)">
<title>/home/q479079/sources/ramses&#45;oss/examples/ramses&#45;example&#45;basic&#45;scenegraph/src</title>
<polygon fill="white" stroke="transparent" points="-4,4 -4,-147 208,-147 208,4 -4,4"/>
<g id="clust1" class="cluster">
<title>clusterdir_e11dfd0b8fdb1a452f370f341fbcaf70</title>
<g id="a_clust1"><a xlink:href="dir_e11dfd0b8fdb1a452f370f341fbcaf70.html" target="_top" xlink:title="ramses&#45;example&#45;basic&#45;scenegraph">
<polygon fill="#ddddee" stroke="black" points="8,-64 8,-135 196,-135 196,-64 8,-64"/>
<text text-anchor="middle" x="102" y="-123" font-family="Helvetica,sans-Serif" font-size="10.00">ramses&#45;example&#45;basic&#45;scenegraph</text>
</a>
</g>
</g>
<!-- dir_1000e9dc10917fb42c432645e3b365fe -->
<g id="node1" class="node">
<title>dir_1000e9dc10917fb42c432645e3b365fe</title>
<g id="a_node1"><a xlink:href="dir_1000e9dc10917fb42c432645e3b365fe.html" target="_top" xlink:title="src">
<polygon fill="#eeeeff" stroke="black" points="129,-108 75,-108 75,-72 129,-72 129,-108"/>
<text text-anchor="middle" x="102" y="-87.5" font-family="Helvetica,sans-Serif" font-size="10.00">src</text>
</a>
</g>
</g>
<!-- dir_db3a54907829b36871118d03417739cd -->
<g id="node2" class="node">
<title>dir_db3a54907829b36871118d03417739cd</title>
<g id="a_node2"><a xlink:href="dir_db3a54907829b36871118d03417739cd.html" target="_top" xlink:title="client">
<polygon fill="white" stroke="red" points="129,-36 75,-36 75,0 129,0 129,-36"/>
<text text-anchor="middle" x="102" y="-15.5" font-family="Helvetica,sans-Serif" font-size="10.00">client</text>
</a>
</g>
</g>
<!-- dir_1000e9dc10917fb42c432645e3b365fe&#45;&gt;dir_db3a54907829b36871118d03417739cd -->
<g id="edge1" class="edge">
<title>dir_1000e9dc10917fb42c432645e3b365fe&#45;&gt;dir_db3a54907829b36871118d03417739cd</title>
<path fill="none" stroke="black" d="M102,-71.7C102,-63.98 102,-54.71 102,-46.11"/>
<polygon fill="black" stroke="black" points="105.5,-46.1 102,-36.1 98.5,-46.1 105.5,-46.1"/>
<g id="a_edge1&#45;headlabel"><a xlink:href="dir_000036_000000.html" target="_top" xlink:title="14">
<text text-anchor="middle" x="108.34" y="-47.2" font-family="Helvetica,sans-Serif" font-size="10.00">14</text>
</a>
</g>
</g>
</g>
</svg>
