<?xml version="1.0" encoding="UTF-8" standalone="no"?>
<!DOCTYPE svg PUBLIC "-//W3C//DTD SVG 1.1//EN"
 "http://www.w3.org/Graphics/SVG/1.1/DTD/svg11.dtd">
<!-- Generated by graphviz version 2.43.0 (0)
 -->
<!-- Title: /home/runner/work/ramses/ramses Pages: 1 -->
<svg width="250pt" height="220pt"
 viewBox="0.00 0.00 250.00 220.00" xmlns="http://www.w3.org/2000/svg" xmlns:xlink="http://www.w3.org/1999/xlink">
<g id="graph0" class="graph" transform="scale(1 1) rotate(0) translate(4 216)">
<title>/home/runner/work/ramses/ramses</title>
<polygon fill="white" stroke="transparent" points="-4,4 -4,-216 246,-216 246,4 -4,4"/>
<g id="clust1" class="cluster">
<title>clusterdir_7c5875acdb68b2d70fb8aa3689b5e655</title>
<g id="a_clust1"><a xlink:href="dir_7c5875acdb68b2d70fb8aa3689b5e655.html" target="_top">
<polygon fill="#eeeeff" stroke="black" points="8,-8 8,-204 234,-204 234,-8 8,-8"/>
</a>
</g>
</g>
<!-- dir_7c5875acdb68b2d70fb8aa3689b5e655 -->
<g id="node1" class="node">
<title>dir_7c5875acdb68b2d70fb8aa3689b5e655</title>
<text text-anchor="middle" x="199" y="-175.5" font-family="Helvetica,sans-Serif" font-size="10.00">ramses</text>
</g>
<!-- dir_26af246848702a33262a7ef2acf92491 -->
<g id="node2" class="node">
<title>dir_26af246848702a33262a7ef2acf92491</title>
<g id="a_node2"><a xlink:href="dir_26af246848702a33262a7ef2acf92491.html" target="_top" xlink:title="client">
<polygon fill="white" stroke="red" points="70,-124 16,-124 16,-88 70,-88 70,-124"/>
<text text-anchor="middle" x="43" y="-103.5" font-family="Helvetica,sans-Serif" font-size="10.00">client</text>
</a>
</g>
</g>
<!-- dir_ca8fa6fd603755c533029df5a9606911 -->
<g id="node5" class="node">
<title>dir_ca8fa6fd603755c533029df5a9606911</title>
<g id="a_node5"><a xlink:href="dir_ca8fa6fd603755c533029df5a9606911.html" target="_top" xlink:title="framework">
<polygon fill="white" stroke="red" points="124,-52 54,-52 54,-16 124,-16 124,-52"/>
<text text-anchor="middle" x="89" y="-31.5" font-family="Helvetica,sans-Serif" font-size="10.00">framework</text>
</a>
</g>
</g>
<!-- dir_26af246848702a33262a7ef2acf92491&#45;&gt;dir_ca8fa6fd603755c533029df5a9606911 -->
<g id="edge1" class="edge">
<title>dir_26af246848702a33262a7ef2acf92491&#45;&gt;dir_ca8fa6fd603755c533029df5a9606911</title>
<path fill="none" stroke="black" d="M54.37,-87.7C59.72,-79.56 66.2,-69.69 72.11,-60.7"/>
<polygon fill="black" stroke="black" points="75.19,-62.38 77.76,-52.1 69.34,-58.54 75.19,-62.38"/>
<g id="a_edge1&#45;headlabel"><a xlink:href="dir_000001_000079.html" target="_top" xlink:title="32">
<text text-anchor="middle" x="75.59" y="-64.45" font-family="Helvetica,sans-Serif" font-size="10.00">32</text>
</a>
</g>
</g>
<!-- dir_b99fe0c36fa9f25da8195b93e134ca55 -->
<g id="node3" class="node">
<title>dir_b99fe0c36fa9f25da8195b93e134ca55</title>
<g id="a_node3"><a xlink:href="dir_b99fe0c36fa9f25da8195b93e134ca55.html" target="_top" xlink:title="doc">
<polygon fill="white" stroke="red" points="154,-196 100,-196 100,-160 154,-160 154,-196"/>
<text text-anchor="middle" x="127" y="-175.5" font-family="Helvetica,sans-Serif" font-size="10.00">doc</text>
</a>
</g>
</g>
<!-- dir_98010d7d16e66236fc0a724a9f75a528 -->
<g id="node4" class="node">
<title>dir_98010d7d16e66236fc0a724a9f75a528</title>
<g id="a_node4"><a xlink:href="dir_98010d7d16e66236fc0a724a9f75a528.html" target="_top" xlink:title="examples">
<polygon fill="white" stroke="red" points="81.5,-196 16.5,-196 16.5,-160 81.5,-160 81.5,-196"/>
<text text-anchor="middle" x="49" y="-175.5" font-family="Helvetica,sans-Serif" font-size="10.00">examples</text>
</a>
</g>
</g>
<!-- dir_98010d7d16e66236fc0a724a9f75a528&#45;&gt;dir_26af246848702a33262a7ef2acf92491 -->
<g id="edge3" class="edge">
<title>dir_98010d7d16e66236fc0a724a9f75a528&#45;&gt;dir_26af246848702a33262a7ef2acf92491</title>
<path fill="none" stroke="black" d="M47.52,-159.7C46.86,-151.98 46.06,-142.71 45.32,-134.11"/>
<polygon fill="black" stroke="black" points="48.81,-133.77 44.47,-124.1 41.83,-134.37 48.81,-133.77"/>
<g id="a_edge3&#45;headlabel"><a xlink:href="dir_000016_000001.html" target="_top" xlink:title="65">
<text text-anchor="middle" x="51.94" y="-134.61" font-family="Helvetica,sans-Serif" font-size="10.00">65</text>
</a>
</g>
</g>
<!-- dir_98010d7d16e66236fc0a724a9f75a528&#45;&gt;dir_ca8fa6fd603755c533029df5a9606911 -->
<g id="edge5" class="edge">
<title>dir_98010d7d16e66236fc0a724a9f75a528&#45;&gt;dir_ca8fa6fd603755c533029df5a9606911</title>
<path fill="none" stroke="black" d="M61.17,-159.68C67.56,-149.71 74.89,-136.67 79,-124 85.5,-103.94 87.92,-80.16 88.76,-62.22"/>
<polygon fill="black" stroke="black" points="92.26,-62.27 89.09,-52.16 85.26,-62.04 92.26,-62.27"/>
<g id="a_edge5&#45;headlabel"><a xlink:href="dir_000016_000079.html" target="_top" xlink:title="8">
<text text-anchor="middle" x="94.98" y="-63.46" font-family="Helvetica,sans-Serif" font-size="10.00">8</text>
</a>
</g>
</g>
<!-- dir_4797b4e6785279b55036fb4e0c62a1b2 -->
<g id="node6" class="node">
<title>dir_4797b4e6785279b55036fb4e0c62a1b2</title>
<g id="a_node6"><a xlink:href="dir_4797b4e6785279b55036fb4e0c62a1b2.html" target="_top" xlink:title="renderer">
<polygon fill="white" stroke="red" points="166,-124 108,-124 108,-88 166,-88 166,-124"/>
<text text-anchor="middle" x="137" y="-103.5" font-family="Helvetica,sans-Serif" font-size="10.00">renderer</text>
</a>
</g>
</g>
<!-- dir_98010d7d16e66236fc0a724a9f75a528&#45;&gt;dir_4797b4e6785279b55036fb4e0c62a1b2 -->
<g id="edge4" class="edge">
<title>dir_98010d7d16e66236fc0a724a9f75a528&#45;&gt;dir_4797b4e6785279b55036fb4e0c62a1b2</title>
<path fill="none" stroke="black" d="M70.75,-159.7C81.84,-150.88 95.47,-140.03 107.49,-130.47"/>
<polygon fill="black" stroke="black" points="109.85,-133.07 115.5,-124.1 105.49,-127.59 109.85,-133.07"/>
<g id="a_edge4&#45;headlabel"><a xlink:href="dir_000016_000083.html" target="_top" xlink:title="47">
<text text-anchor="middle" x="108.8" y="-135.03" font-family="Helvetica,sans-Serif" font-size="10.00">47</text>
</a>
</g>
</g>
<!-- dir_4797b4e6785279b55036fb4e0c62a1b2&#45;&gt;dir_ca8fa6fd603755c533029df5a9606911 -->
<g id="edge2" class="edge">
<title>dir_4797b4e6785279b55036fb4e0c62a1b2&#45;&gt;dir_ca8fa6fd603755c533029df5a9606911</title>
<path fill="none" stroke="black" d="M125.13,-87.7C119.5,-79.47 112.65,-69.48 106.43,-60.42"/>
<polygon fill="black" stroke="black" points="109.27,-58.37 100.73,-52.1 103.5,-62.33 109.27,-58.37"/>
<g id="a_edge2&#45;headlabel"><a xlink:href="dir_000083_000079.html" target="_top" xlink:title="20">
<text text-anchor="middle" x="113.65" y="-57.23" font-family="Helvetica,sans-Serif" font-size="10.00">20</text>
</a>
</g>
</g>
</g>
</svg>
