<?xml version="1.0" encoding="UTF-8" standalone="no"?>
<!DOCTYPE svg PUBLIC "-//W3C//DTD SVG 1.1//EN"
 "http://www.w3.org/Graphics/SVG/1.1/DTD/svg11.dtd">
<!-- Generated by graphviz version 2.43.0 (0)
 -->
<!-- Title: /home/runner/work/ramses/ramses/examples/ramses&#45;example&#45;local&#45;dma&#45;offscreenbuffer/src Pages: 1 -->
<svg width="253pt" height="151pt"
 viewBox="0.00 0.00 253.00 151.00" xmlns="http://www.w3.org/2000/svg" xmlns:xlink="http://www.w3.org/1999/xlink">
<g id="graph0" class="graph" transform="scale(1 1) rotate(0) translate(4 147)">
<title>/home/runner/work/ramses/ramses/examples/ramses&#45;example&#45;local&#45;dma&#45;offscreenbuffer/src</title>
<polygon fill="white" stroke="transparent" points="-4,4 -4,-147 249,-147 249,4 -4,4"/>
<g id="clust1" class="cluster">
<title>clusterdir_b21b89f4244fd2126ee0a09318eb9c2b</title>
<g id="a_clust1"><a xlink:href="dir_b21b89f4244fd2126ee0a09318eb9c2b.html" target="_top" xlink:title="ramses&#45;example&#45;local&#45;dma&#45;offscreenbuffer">
<polygon fill="#ddddee" stroke="black" points="8,-64 8,-135 237,-135 237,-64 8,-64"/>
<text text-anchor="middle" x="122.5" y="-123" font-family="Helvetica,sans-Serif" font-size="10.00">ramses&#45;example&#45;local&#45;dma&#45;offscreenbuffer</text>
</a>
</g>
</g>
<!-- dir_081336ad966871168a8b0e942802efd0 -->
<g id="node1" class="node">
<title>dir_081336ad966871168a8b0e942802efd0</title>
<g id="a_node1"><a xlink:href="dir_081336ad966871168a8b0e942802efd0.html" target="_top" xlink:title="src">
<polygon fill="#eeeeff" stroke="black" points="149,-108 95,-108 95,-72 149,-72 149,-108"/>
<text text-anchor="middle" x="122" y="-87.5" font-family="Helvetica,sans-Serif" font-size="10.00">src</text>
</a>
</g>
</g>
<!-- dir_26af246848702a33262a7ef2acf92491 -->
<g id="node2" class="node">
<title>dir_26af246848702a33262a7ef2acf92491</title>
<g id="a_node2"><a xlink:href="dir_26af246848702a33262a7ef2acf92491.html" target="_top" xlink:title="client">
<polygon fill="white" stroke="red" points="112,-36 58,-36 58,0 112,0 112,-36"/>
<text text-anchor="middle" x="85" y="-15.5" font-family="Helvetica,sans-Serif" font-size="10.00">client</text>
</a>
</g>
</g>
<!-- dir_081336ad966871168a8b0e942802efd0&#45;&gt;dir_26af246848702a33262a7ef2acf92491 -->
<g id="edge1" class="edge">
<title>dir_081336ad966871168a8b0e942802efd0&#45;&gt;dir_26af246848702a33262a7ef2acf92491</title>
<path fill="none" stroke="black" d="M112.85,-71.7C108.6,-63.64 103.44,-53.89 98.73,-44.98"/>
<polygon fill="black" stroke="black" points="101.81,-43.31 94.04,-36.1 95.62,-46.58 101.81,-43.31"/>
<g id="a_edge1&#45;headlabel"><a xlink:href="dir_000060_000001.html" target="_top" xlink:title="2">
<text text-anchor="middle" x="106" y="-42.66" font-family="Helvetica,sans-Serif" font-size="10.00">2</text>
</a>
</g>
</g>
<!-- dir_4797b4e6785279b55036fb4e0c62a1b2 -->
<g id="node3" class="node">
<title>dir_4797b4e6785279b55036fb4e0c62a1b2</title>
<g id="a_node3"><a xlink:href="dir_4797b4e6785279b55036fb4e0c62a1b2.html" target="_top" xlink:title="renderer">
<polygon fill="white" stroke="red" points="188,-36 130,-36 130,0 188,0 188,-36"/>
<text text-anchor="middle" x="159" y="-15.5" font-family="Helvetica,sans-Serif" font-size="10.00">renderer</text>
</a>
</g>
</g>
<!-- dir_081336ad966871168a8b0e942802efd0&#45;&gt;dir_4797b4e6785279b55036fb4e0c62a1b2 -->
<g id="edge2" class="edge">
<title>dir_081336ad966871168a8b0e942802efd0&#45;&gt;dir_4797b4e6785279b55036fb4e0c62a1b2</title>
<path fill="none" stroke="black" d="M131.15,-71.7C135.4,-63.64 140.56,-53.89 145.27,-44.98"/>
<polygon fill="black" stroke="black" points="148.38,-46.58 149.96,-36.1 142.19,-43.31 148.38,-46.58"/>
<g id="a_edge2&#45;headlabel"><a xlink:href="dir_000060_000083.html" target="_top" xlink:title="5">
<text text-anchor="middle" x="149.21" y="-48.59" font-family="Helvetica,sans-Serif" font-size="10.00">5</text>
</a>
</g>
</g>
</g>
</svg>
