<?xml version="1.0" encoding="UTF-8" standalone="no"?>
<!DOCTYPE svg PUBLIC "-//W3C//DTD SVG 1.1//EN"
 "http://www.w3.org/Graphics/SVG/1.1/DTD/svg11.dtd">
<!-- Generated by graphviz version 2.43.0 (0)
 -->
<!-- Title: /c/src/mirror/examples/ramses&#45;example&#45;basic&#45;geometry/src Pages: 1 -->
<svg width="203pt" height="151pt"
 viewBox="0.00 0.00 203.00 151.00" xmlns="http://www.w3.org/2000/svg" xmlns:xlink="http://www.w3.org/1999/xlink">
<g id="graph0" class="graph" transform="scale(1 1) rotate(0) translate(4 147)">
<title>/c/src/mirror/examples/ramses&#45;example&#45;basic&#45;geometry/src</title>
<polygon fill="white" stroke="transparent" points="-4,4 -4,-147 199,-147 199,4 -4,4"/>
<g id="clust1" class="cluster">
<title>clusterdir_562ec510d682659c8437916710b5a10f</title>
<g id="a_clust1"><a xlink:href="dir_562ec510d682659c8437916710b5a10f.html" target="_top" xlink:title="ramses&#45;example&#45;basic&#45;geometry">
<polygon fill="#ddddee" stroke="black" points="8,-64 8,-135 187,-135 187,-64 8,-64"/>
<text text-anchor="middle" x="97.5" y="-123" font-family="Helvetica,sans-Serif" font-size="10.00">ramses&#45;example&#45;basic&#45;geometry</text>
</a>
</g>
</g>
<!-- dir_12481dcacef6c4ee734dac2293f77414 -->
<g id="node1" class="node">
<title>dir_12481dcacef6c4ee734dac2293f77414</title>
<g id="a_node1"><a xlink:href="dir_12481dcacef6c4ee734dac2293f77414.html" target="_top" xlink:title="src">
<polygon fill="#eeeeff" stroke="black" points="124,-108 70,-108 70,-72 124,-72 124,-108"/>
<text text-anchor="middle" x="97" y="-87.5" font-family="Helvetica,sans-Serif" font-size="10.00">src</text>
</a>
</g>
</g>
<!-- dir_db3a54907829b36871118d03417739cd -->
<g id="node2" class="node">
<title>dir_db3a54907829b36871118d03417739cd</title>
<g id="a_node2"><a xlink:href="dir_db3a54907829b36871118d03417739cd.html" target="_top" xlink:title="client">
<polygon fill="white" stroke="red" points="124,-36 70,-36 70,0 124,0 124,-36"/>
<text text-anchor="middle" x="97" y="-15.5" font-family="Helvetica,sans-Serif" font-size="10.00">client</text>
</a>
</g>
</g>
<!-- dir_12481dcacef6c4ee734dac2293f77414&#45;&gt;dir_db3a54907829b36871118d03417739cd -->
<g id="edge1" class="edge">
<title>dir_12481dcacef6c4ee734dac2293f77414&#45;&gt;dir_db3a54907829b36871118d03417739cd</title>
<path fill="none" stroke="black" d="M97,-71.7C97,-63.98 97,-54.71 97,-46.11"/>
<polygon fill="black" stroke="black" points="100.5,-46.1 97,-36.1 93.5,-46.1 100.5,-46.1"/>
<g id="a_edge1&#45;headlabel"><a xlink:href="dir_000028_000000.html" target="_top" xlink:title="1">
<text text-anchor="middle" x="103.34" y="-47.2" font-family="Helvetica,sans-Serif" font-size="10.00">1</text>
</a>
</g>
</g>
</g>
</svg>
