<?xml version="1.0" encoding="UTF-8" standalone="no"?>
<!DOCTYPE svg PUBLIC "-//W3C//DTD SVG 1.1//EN"
 "http://www.w3.org/Graphics/SVG/1.1/DTD/svg11.dtd">
<!-- Generated by graphviz version 2.43.0 (0)
 -->
<!-- Title: /home/q479098/src/mirror/examples/ramses&#45;example&#45;local&#45;scene&#45;referencing/src Pages: 1 -->
<svg width="242pt" height="151pt"
 viewBox="0.00 0.00 242.00 151.00" xmlns="http://www.w3.org/2000/svg" xmlns:xlink="http://www.w3.org/1999/xlink">
<g id="graph0" class="graph" transform="scale(1 1) rotate(0) translate(4 147)">
<title>/home/q479098/src/mirror/examples/ramses&#45;example&#45;local&#45;scene&#45;referencing/src</title>
<polygon fill="white" stroke="transparent" points="-4,4 -4,-147 238,-147 238,4 -4,4"/>
<g id="clust1" class="cluster">
<title>clusterdir_700e0780d5ed31d652c4b062f8c921de</title>
<g id="a_clust1"><a xlink:href="dir_700e0780d5ed31d652c4b062f8c921de.html" target="_top" xlink:title="ramses&#45;example&#45;local&#45;scene&#45;referencing">
<polygon fill="#ddddee" stroke="black" points="8,-64 8,-135 226,-135 226,-64 8,-64"/>
<text text-anchor="middle" x="117" y="-123" font-family="Helvetica,sans-Serif" font-size="10.00">ramses&#45;example&#45;local&#45;scene&#45;referencing</text>
</a>
</g>
</g>
<!-- dir_7443acd0e5fbc6dad6b380fc0c56dd0d -->
<g id="node1" class="node">
<title>dir_7443acd0e5fbc6dad6b380fc0c56dd0d</title>
<g id="a_node1"><a xlink:href="dir_7443acd0e5fbc6dad6b380fc0c56dd0d.html" target="_top" xlink:title="src">
<polygon fill="#eeeeff" stroke="black" points="144,-108 90,-108 90,-72 144,-72 144,-108"/>
<text text-anchor="middle" x="117" y="-87.5" font-family="Helvetica,sans-Serif" font-size="10.00">src</text>
</a>
</g>
</g>
<!-- dir_db3a54907829b36871118d03417739cd -->
<g id="node2" class="node">
<title>dir_db3a54907829b36871118d03417739cd</title>
<g id="a_node2"><a xlink:href="dir_db3a54907829b36871118d03417739cd.html" target="_top" xlink:title="client">
<polygon fill="white" stroke="red" points="107,-36 53,-36 53,0 107,0 107,-36"/>
<text text-anchor="middle" x="80" y="-15.5" font-family="Helvetica,sans-Serif" font-size="10.00">client</text>
</a>
</g>
</g>
<!-- dir_7443acd0e5fbc6dad6b380fc0c56dd0d&#45;&gt;dir_db3a54907829b36871118d03417739cd -->
<g id="edge1" class="edge">
<title>dir_7443acd0e5fbc6dad6b380fc0c56dd0d&#45;&gt;dir_db3a54907829b36871118d03417739cd</title>
<path fill="none" stroke="black" d="M107.85,-71.7C103.6,-63.64 98.44,-53.89 93.73,-44.98"/>
<polygon fill="black" stroke="black" points="96.81,-43.31 89.04,-36.1 90.62,-46.58 96.81,-43.31"/>
<g id="a_edge1&#45;headlabel"><a xlink:href="dir_000064_000000.html" target="_top" xlink:title="3">
<text text-anchor="middle" x="101" y="-42.66" font-family="Helvetica,sans-Serif" font-size="10.00">3</text>
</a>
</g>
</g>
<!-- dir_d10aa5f1e26260a914a037377583e9a7 -->
<g id="node3" class="node">
<title>dir_d10aa5f1e26260a914a037377583e9a7</title>
<g id="a_node3"><a xlink:href="dir_d10aa5f1e26260a914a037377583e9a7.html" target="_top" xlink:title="renderer">
<polygon fill="white" stroke="red" points="183,-36 125,-36 125,0 183,0 183,-36"/>
<text text-anchor="middle" x="154" y="-15.5" font-family="Helvetica,sans-Serif" font-size="10.00">renderer</text>
</a>
</g>
</g>
<!-- dir_7443acd0e5fbc6dad6b380fc0c56dd0d&#45;&gt;dir_d10aa5f1e26260a914a037377583e9a7 -->
<g id="edge2" class="edge">
<title>dir_7443acd0e5fbc6dad6b380fc0c56dd0d&#45;&gt;dir_d10aa5f1e26260a914a037377583e9a7</title>
<path fill="none" stroke="black" d="M126.15,-71.7C130.4,-63.64 135.56,-53.89 140.27,-44.98"/>
<polygon fill="black" stroke="black" points="143.38,-46.58 144.96,-36.1 137.19,-43.31 143.38,-46.58"/>
<g id="a_edge2&#45;headlabel"><a xlink:href="dir_000064_000079.html" target="_top" xlink:title="3">
<text text-anchor="middle" x="144.21" y="-48.59" font-family="Helvetica,sans-Serif" font-size="10.00">3</text>
</a>
</g>
</g>
</g>
</svg>
