<?xml version="1.0" encoding="UTF-8" standalone="no"?>
<!DOCTYPE svg PUBLIC "-//W3C//DTD SVG 1.1//EN"
 "http://www.w3.org/Graphics/SVG/1.1/DTD/svg11.dtd">
<!-- Generated by graphviz version 2.43.0 (0)
 -->
<!-- Title: /home/runner/work/ramses/ramses/examples/ramses&#45;example&#45;local&#45;viewport&#45;link/src Pages: 1 -->
<svg width="218pt" height="151pt"
 viewBox="0.00 0.00 218.00 151.00" xmlns="http://www.w3.org/2000/svg" xmlns:xlink="http://www.w3.org/1999/xlink">
<g id="graph0" class="graph" transform="scale(1 1) rotate(0) translate(4 147)">
<title>/home/runner/work/ramses/ramses/examples/ramses&#45;example&#45;local&#45;viewport&#45;link/src</title>
<polygon fill="white" stroke="transparent" points="-4,4 -4,-147 214,-147 214,4 -4,4"/>
<g id="clust1" class="cluster">
<title>clusterdir_475d27d2a09672893c312d546b6d6d03</title>
<g id="a_clust1"><a xlink:href="dir_475d27d2a09672893c312d546b6d6d03.html" target="_top" xlink:title="ramses&#45;example&#45;local&#45;viewport&#45;link">
<polygon fill="#ddddee" stroke="black" points="8,-64 8,-135 202,-135 202,-64 8,-64"/>
<text text-anchor="middle" x="105" y="-123" font-family="Helvetica,sans-Serif" font-size="10.00">ramses&#45;example&#45;local&#45;viewport&#45;link</text>
</a>
</g>
</g>
<!-- dir_3930274ae2784bfedc5219ab1b65419b -->
<g id="node1" class="node">
<title>dir_3930274ae2784bfedc5219ab1b65419b</title>
<g id="a_node1"><a xlink:href="dir_3930274ae2784bfedc5219ab1b65419b.html" target="_top" xlink:title="src">
<polygon fill="#eeeeff" stroke="black" points="132,-108 78,-108 78,-72 132,-72 132,-108"/>
<text text-anchor="middle" x="105" y="-87.5" font-family="Helvetica,sans-Serif" font-size="10.00">src</text>
</a>
</g>
</g>
<!-- dir_26af246848702a33262a7ef2acf92491 -->
<g id="node2" class="node">
<title>dir_26af246848702a33262a7ef2acf92491</title>
<g id="a_node2"><a xlink:href="dir_26af246848702a33262a7ef2acf92491.html" target="_top" xlink:title="client">
<polygon fill="white" stroke="red" points="95,-36 41,-36 41,0 95,0 95,-36"/>
<text text-anchor="middle" x="68" y="-15.5" font-family="Helvetica,sans-Serif" font-size="10.00">client</text>
</a>
</g>
</g>
<!-- dir_3930274ae2784bfedc5219ab1b65419b&#45;&gt;dir_26af246848702a33262a7ef2acf92491 -->
<g id="edge1" class="edge">
<title>dir_3930274ae2784bfedc5219ab1b65419b&#45;&gt;dir_26af246848702a33262a7ef2acf92491</title>
<path fill="none" stroke="black" d="M95.85,-71.7C91.6,-63.64 86.44,-53.89 81.73,-44.98"/>
<polygon fill="black" stroke="black" points="84.81,-43.31 77.04,-36.1 78.62,-46.58 84.81,-43.31"/>
<g id="a_edge1&#45;headlabel"><a xlink:href="dir_000070_000001.html" target="_top" xlink:title="3">
<text text-anchor="middle" x="89" y="-42.66" font-family="Helvetica,sans-Serif" font-size="10.00">3</text>
</a>
</g>
</g>
<!-- dir_4797b4e6785279b55036fb4e0c62a1b2 -->
<g id="node3" class="node">
<title>dir_4797b4e6785279b55036fb4e0c62a1b2</title>
<g id="a_node3"><a xlink:href="dir_4797b4e6785279b55036fb4e0c62a1b2.html" target="_top" xlink:title="renderer">
<polygon fill="white" stroke="red" points="171,-36 113,-36 113,0 171,0 171,-36"/>
<text text-anchor="middle" x="142" y="-15.5" font-family="Helvetica,sans-Serif" font-size="10.00">renderer</text>
</a>
</g>
</g>
<!-- dir_3930274ae2784bfedc5219ab1b65419b&#45;&gt;dir_4797b4e6785279b55036fb4e0c62a1b2 -->
<g id="edge2" class="edge">
<title>dir_3930274ae2784bfedc5219ab1b65419b&#45;&gt;dir_4797b4e6785279b55036fb4e0c62a1b2</title>
<path fill="none" stroke="black" d="M114.15,-71.7C118.4,-63.64 123.56,-53.89 128.27,-44.98"/>
<polygon fill="black" stroke="black" points="131.38,-46.58 132.96,-36.1 125.19,-43.31 131.38,-46.58"/>
<g id="a_edge2&#45;headlabel"><a xlink:href="dir_000070_000083.html" target="_top" xlink:title="4">
<text text-anchor="middle" x="132.21" y="-48.59" font-family="Helvetica,sans-Serif" font-size="10.00">4</text>
</a>
</g>
</g>
</g>
</svg>
