<?xml version="1.0" encoding="UTF-8" standalone="no"?>
<!DOCTYPE svg PUBLIC "-//W3C//DTD SVG 1.1//EN"
 "http://www.w3.org/Graphics/SVG/1.1/DTD/svg11.dtd">
<!-- Generated by graphviz version 2.43.0 (0)
 -->
<!-- Title: /c/src/mirror/examples/ramses&#45;example&#45;basic&#45;rendertarget/src Pages: 1 -->
<svg width="217pt" height="151pt"
 viewBox="0.00 0.00 217.00 151.00" xmlns="http://www.w3.org/2000/svg" xmlns:xlink="http://www.w3.org/1999/xlink">
<g id="graph0" class="graph" transform="scale(1 1) rotate(0) translate(4 147)">
<title>/c/src/mirror/examples/ramses&#45;example&#45;basic&#45;rendertarget/src</title>
<polygon fill="white" stroke="transparent" points="-4,4 -4,-147 213,-147 213,4 -4,4"/>
<g id="clust1" class="cluster">
<title>clusterdir_9835d2407db294b4750e1739802df31b</title>
<g id="a_clust1"><a xlink:href="dir_9835d2407db294b4750e1739802df31b.html" target="_top" xlink:title="ramses&#45;example&#45;basic&#45;rendertarget">
<polygon fill="#ddddee" stroke="black" points="8,-64 8,-135 201,-135 201,-64 8,-64"/>
<text text-anchor="middle" x="104.5" y="-123" font-family="Helvetica,sans-Serif" font-size="10.00">ramses&#45;example&#45;basic&#45;rendertarget</text>
</a>
</g>
</g>
<!-- dir_95a2e41df951cf53699b5e4b3f490f11 -->
<g id="node1" class="node">
<title>dir_95a2e41df951cf53699b5e4b3f490f11</title>
<g id="a_node1"><a xlink:href="dir_95a2e41df951cf53699b5e4b3f490f11.html" target="_top" xlink:title="src">
<polygon fill="#eeeeff" stroke="black" points="131,-108 77,-108 77,-72 131,-72 131,-108"/>
<text text-anchor="middle" x="104" y="-87.5" font-family="Helvetica,sans-Serif" font-size="10.00">src</text>
</a>
</g>
</g>
<!-- dir_db3a54907829b36871118d03417739cd -->
<g id="node2" class="node">
<title>dir_db3a54907829b36871118d03417739cd</title>
<g id="a_node2"><a xlink:href="dir_db3a54907829b36871118d03417739cd.html" target="_top" xlink:title="client">
<polygon fill="white" stroke="red" points="131,-36 77,-36 77,0 131,0 131,-36"/>
<text text-anchor="middle" x="104" y="-15.5" font-family="Helvetica,sans-Serif" font-size="10.00">client</text>
</a>
</g>
</g>
<!-- dir_95a2e41df951cf53699b5e4b3f490f11&#45;&gt;dir_db3a54907829b36871118d03417739cd -->
<g id="edge1" class="edge">
<title>dir_95a2e41df951cf53699b5e4b3f490f11&#45;&gt;dir_db3a54907829b36871118d03417739cd</title>
<path fill="none" stroke="black" d="M104,-71.7C104,-63.98 104,-54.71 104,-46.11"/>
<polygon fill="black" stroke="black" points="107.5,-46.1 104,-36.1 100.5,-46.1 107.5,-46.1"/>
<g id="a_edge1&#45;headlabel"><a xlink:href="dir_000034_000000.html" target="_top" xlink:title="2">
<text text-anchor="middle" x="110.34" y="-47.2" font-family="Helvetica,sans-Serif" font-size="10.00">2</text>
</a>
</g>
</g>
</g>
</svg>
