<?xml version="1.0" encoding="UTF-8" standalone="no"?>
<!DOCTYPE svg PUBLIC "-//W3C//DTD SVG 1.1//EN"
 "http://www.w3.org/Graphics/SVG/1.1/DTD/svg11.dtd">
<!-- Generated by graphviz version 2.43.0 (0)
 -->
<!-- Title: /home/runner/work/ramses/ramses/examples/ramses&#45;example&#45;data&#45;buffers&#45;texture Pages: 1 -->
<svg width="330pt" height="159pt"
 viewBox="0.00 0.00 330.00 159.00" xmlns="http://www.w3.org/2000/svg" xmlns:xlink="http://www.w3.org/1999/xlink">
<g id="graph0" class="graph" transform="scale(1 1) rotate(0) translate(4 155)">
<title>/home/runner/work/ramses/ramses/examples/ramses&#45;example&#45;data&#45;buffers&#45;texture</title>
<polygon fill="white" stroke="transparent" points="-4,4 -4,-155 326,-155 326,4 -4,4"/>
<g id="clust1" class="cluster">
<title>clusterdir_98010d7d16e66236fc0a724a9f75a528</title>
<g id="a_clust1"><a xlink:href="dir_98010d7d16e66236fc0a724a9f75a528.html" target="_top" xlink:title="examples">
<polygon fill="#ddddee" stroke="black" points="8,-56 8,-143 314,-143 314,-56 8,-56"/>
<text text-anchor="middle" x="161" y="-131" font-family="Helvetica,sans-Serif" font-size="10.00">examples</text>
</a>
</g>
</g>
<g id="clust2" class="cluster">
<title>clusterdir_c63e31fb47015b57b0fc13f7d62c9b6d</title>
<g id="a_clust2"><a xlink:href="dir_c63e31fb47015b57b0fc13f7d62c9b6d.html" target="_top">
<polygon fill="#eeeeff" stroke="black" points="16,-64 16,-116 306,-116 306,-64 16,-64"/>
</a>
</g>
</g>
<!-- dir_c63e31fb47015b57b0fc13f7d62c9b6d -->
<g id="node1" class="node">
<title>dir_c63e31fb47015b57b0fc13f7d62c9b6d</title>
<text text-anchor="middle" x="197" y="-87.5" font-family="Helvetica,sans-Serif" font-size="10.00">ramses&#45;example&#45;data&#45;buffers&#45;texture</text>
</g>
<!-- dir_7937b3353c0343f52249997366f70c57 -->
<g id="node2" class="node">
<title>dir_7937b3353c0343f52249997366f70c57</title>
<g id="a_node2"><a xlink:href="dir_7937b3353c0343f52249997366f70c57.html" target="_top" xlink:title="src">
<polygon fill="white" stroke="black" points="78,-108 24,-108 24,-72 78,-72 78,-108"/>
<text text-anchor="middle" x="51" y="-87.5" font-family="Helvetica,sans-Serif" font-size="10.00">src</text>
</a>
</g>
</g>
<!-- dir_26af246848702a33262a7ef2acf92491 -->
<g id="node3" class="node">
<title>dir_26af246848702a33262a7ef2acf92491</title>
<g id="a_node3"><a xlink:href="dir_26af246848702a33262a7ef2acf92491.html" target="_top" xlink:title="client">
<polygon fill="white" stroke="red" points="78,-36 24,-36 24,0 78,0 78,-36"/>
<text text-anchor="middle" x="51" y="-15.5" font-family="Helvetica,sans-Serif" font-size="10.00">client</text>
</a>
</g>
</g>
<!-- dir_7937b3353c0343f52249997366f70c57&#45;&gt;dir_26af246848702a33262a7ef2acf92491 -->
<g id="edge1" class="edge">
<title>dir_7937b3353c0343f52249997366f70c57&#45;&gt;dir_26af246848702a33262a7ef2acf92491</title>
<path fill="none" stroke="black" d="M51,-71.7C51,-63.98 51,-54.71 51,-46.11"/>
<polygon fill="black" stroke="black" points="54.5,-46.1 51,-36.1 47.5,-46.1 54.5,-46.1"/>
<g id="a_edge1&#45;headlabel"><a xlink:href="dir_000043_000001.html" target="_top" xlink:title="2">
<text text-anchor="middle" x="57.34" y="-47.2" font-family="Helvetica,sans-Serif" font-size="10.00">2</text>
</a>
</g>
</g>
</g>
</svg>
