<?xml version="1.0" encoding="UTF-8" standalone="no"?>
<!DOCTYPE svg PUBLIC "-//W3C//DTD SVG 1.1//EN"
 "http://www.w3.org/Graphics/SVG/1.1/DTD/svg11.dtd">
<!-- Generated by graphviz version 2.43.0 (0)
 -->
<!-- Title: /c/src/genivi/examples/ramses&#45;example&#45;local&#45;viewport&#45;link Pages: 1 -->
<svg width="335pt" height="159pt"
 viewBox="0.00 0.00 335.00 159.00" xmlns="http://www.w3.org/2000/svg" xmlns:xlink="http://www.w3.org/1999/xlink">
<g id="graph0" class="graph" transform="scale(1 1) rotate(0) translate(4 155)">
<title>/c/src/genivi/examples/ramses&#45;example&#45;local&#45;viewport&#45;link</title>
<polygon fill="white" stroke="transparent" points="-4,4 -4,-155 331,-155 331,4 -4,4"/>
<g id="clust1" class="cluster">
<title>clusterdir_d28a4824dc47e487b107a5db32ef43c4</title>
<g id="a_clust1"><a xlink:href="dir_d28a4824dc47e487b107a5db32ef43c4.html" target="_top" xlink:title="examples">
<polygon fill="#ddddee" stroke="black" points="21,-56 21,-143 319,-143 319,-56 21,-56"/>
<text text-anchor="middle" x="170" y="-131" font-family="Helvetica,sans-Serif" font-size="10.00">examples</text>
</a>
</g>
</g>
<g id="clust2" class="cluster">
<title>clusterdir_ffda64cfe0c4d6c7b1553eea2acfd5bb</title>
<g id="a_clust2"><a xlink:href="dir_ffda64cfe0c4d6c7b1553eea2acfd5bb.html" target="_top">
<polygon fill="#eeeeff" stroke="black" points="29,-64 29,-116 311,-116 311,-64 29,-64"/>
</a>
</g>
</g>
<!-- dir_ffda64cfe0c4d6c7b1553eea2acfd5bb -->
<g id="node1" class="node">
<title>dir_ffda64cfe0c4d6c7b1553eea2acfd5bb</title>
<text text-anchor="middle" x="206" y="-87.5" font-family="Helvetica,sans-Serif" font-size="10.00">ramses&#45;example&#45;local&#45;viewport&#45;link</text>
</g>
<!-- dir_73166689b415955b3c996fd13e3d36d2 -->
<g id="node2" class="node">
<title>dir_73166689b415955b3c996fd13e3d36d2</title>
<g id="a_node2"><a xlink:href="dir_73166689b415955b3c996fd13e3d36d2.html" target="_top" xlink:title="src">
<polygon fill="white" stroke="black" points="91,-108 37,-108 37,-72 91,-72 91,-108"/>
<text text-anchor="middle" x="64" y="-87.5" font-family="Helvetica,sans-Serif" font-size="10.00">src</text>
</a>
</g>
</g>
<!-- dir_db3a54907829b36871118d03417739cd -->
<g id="node3" class="node">
<title>dir_db3a54907829b36871118d03417739cd</title>
<g id="a_node3"><a xlink:href="dir_db3a54907829b36871118d03417739cd.html" target="_top" xlink:title="client">
<polygon fill="white" stroke="red" points="54,-36 0,-36 0,0 54,0 54,-36"/>
<text text-anchor="middle" x="27" y="-15.5" font-family="Helvetica,sans-Serif" font-size="10.00">client</text>
</a>
</g>
</g>
<!-- dir_73166689b415955b3c996fd13e3d36d2&#45;&gt;dir_db3a54907829b36871118d03417739cd -->
<g id="edge1" class="edge">
<title>dir_73166689b415955b3c996fd13e3d36d2&#45;&gt;dir_db3a54907829b36871118d03417739cd</title>
<path fill="none" stroke="black" d="M54.85,-71.7C50.6,-63.64 45.44,-53.89 40.73,-44.98"/>
<polygon fill="black" stroke="black" points="43.81,-43.31 36.04,-36.1 37.62,-46.58 43.81,-43.31"/>
<g id="a_edge1&#45;headlabel"><a xlink:href="dir_000066_000000.html" target="_top" xlink:title="3">
<text text-anchor="middle" x="48" y="-42.66" font-family="Helvetica,sans-Serif" font-size="10.00">3</text>
</a>
</g>
</g>
<!-- dir_d10aa5f1e26260a914a037377583e9a7 -->
<g id="node4" class="node">
<title>dir_d10aa5f1e26260a914a037377583e9a7</title>
<g id="a_node4"><a xlink:href="dir_d10aa5f1e26260a914a037377583e9a7.html" target="_top" xlink:title="renderer">
<polygon fill="white" stroke="red" points="130,-36 72,-36 72,0 130,0 130,-36"/>
<text text-anchor="middle" x="101" y="-15.5" font-family="Helvetica,sans-Serif" font-size="10.00">renderer</text>
</a>
</g>
</g>
<!-- dir_73166689b415955b3c996fd13e3d36d2&#45;&gt;dir_d10aa5f1e26260a914a037377583e9a7 -->
<g id="edge2" class="edge">
<title>dir_73166689b415955b3c996fd13e3d36d2&#45;&gt;dir_d10aa5f1e26260a914a037377583e9a7</title>
<path fill="none" stroke="black" d="M73.15,-71.7C77.4,-63.64 82.56,-53.89 87.27,-44.98"/>
<polygon fill="black" stroke="black" points="90.38,-46.58 91.96,-36.1 84.19,-43.31 90.38,-46.58"/>
<g id="a_edge2&#45;headlabel"><a xlink:href="dir_000066_000079.html" target="_top" xlink:title="4">
<text text-anchor="middle" x="91.21" y="-48.59" font-family="Helvetica,sans-Serif" font-size="10.00">4</text>
</a>
</g>
</g>
</g>
</svg>
