<?xml version="1.0" encoding="UTF-8" standalone="no"?>
<!DOCTYPE svg PUBLIC "-//W3C//DTD SVG 1.1//EN"
 "http://www.w3.org/Graphics/SVG/1.1/DTD/svg11.dtd">
<!-- Generated by graphviz version 2.40.1 (20161225.0304)
 -->
<!-- Title: /home/ramses/dev/oss&#45;ramses/examples/ramses&#45;example&#45;renderonce/src Pages: 1 -->
<svg width="164pt" height="151pt"
 viewBox="0.00 0.00 164.00 151.00" xmlns="http://www.w3.org/2000/svg" xmlns:xlink="http://www.w3.org/1999/xlink">
<g id="graph0" class="graph" transform="scale(1 1) rotate(0) translate(4 147)">
<title>/home/ramses/dev/oss&#45;ramses/examples/ramses&#45;example&#45;renderonce/src</title>
<polygon fill="#ffffff" stroke="transparent" points="-4,4 -4,-147 160,-147 160,4 -4,4"/>
<g id="clust1" class="cluster">
<title>clusterdir_ded9643a0b4d3666542486400a83bbbc</title>
<g id="a_clust1"><a xlink:href="dir_ded9643a0b4d3666542486400a83bbbc.html" target="_top" xlink:title="ramses&#45;example&#45;renderonce">
<polygon fill="#ddddee" stroke="#000000" points="8,-64 8,-135 148,-135 148,-64 8,-64"/>
<text text-anchor="middle" x="78" y="-123" font-family="Helvetica,sans-Serif" font-size="10.00" fill="#000000">ramses&#45;example&#45;renderonce</text>
</a>
</g>
</g>
<!-- dir_ec8269c42c47bd9cad7322b0b0459f18 -->
<g id="node1" class="node">
<title>dir_ec8269c42c47bd9cad7322b0b0459f18</title>
<g id="a_node1"><a xlink:href="dir_ec8269c42c47bd9cad7322b0b0459f18.html" target="_top" xlink:title="src">
<polygon fill="#eeeeff" stroke="#000000" points="105,-108 51,-108 51,-72 105,-72 105,-108"/>
<text text-anchor="middle" x="78" y="-87.5" font-family="Helvetica,sans-Serif" font-size="10.00" fill="#000000">src</text>
</a>
</g>
</g>
<!-- dir_db3a54907829b36871118d03417739cd -->
<g id="node2" class="node">
<title>dir_db3a54907829b36871118d03417739cd</title>
<g id="a_node2"><a xlink:href="dir_db3a54907829b36871118d03417739cd.html" target="_top" xlink:title="client">
<polygon fill="#ffffff" stroke="#ff0000" points="105,-36 51,-36 51,0 105,0 105,-36"/>
<text text-anchor="middle" x="78" y="-15.5" font-family="Helvetica,sans-Serif" font-size="10.00" fill="#000000">client</text>
</a>
</g>
</g>
<!-- dir_ec8269c42c47bd9cad7322b0b0459f18&#45;&gt;dir_db3a54907829b36871118d03417739cd -->
<g id="edge1" class="edge">
<title>dir_ec8269c42c47bd9cad7322b0b0459f18&#45;&gt;dir_db3a54907829b36871118d03417739cd</title>
<path fill="none" stroke="#000000" d="M78,-71.8314C78,-64.131 78,-54.9743 78,-46.4166"/>
<polygon fill="#000000" stroke="#000000" points="81.5001,-46.4132 78,-36.4133 74.5001,-46.4133 81.5001,-46.4132"/>
<g id="a_edge1&#45;headlabel"><a xlink:href="dir_000066_000000.html" target="_top" xlink:title="2">
<text text-anchor="middle" x="84.3393" y="-47.5079" font-family="Helvetica,sans-Serif" font-size="10.00" fill="#000000">2</text>
</a>
</g>
</g>
</g>
</svg>
