<?xml version="1.0" encoding="UTF-8" standalone="no"?>
<!DOCTYPE svg PUBLIC "-//W3C//DTD SVG 1.1//EN"
 "http://www.w3.org/Graphics/SVG/1.1/DTD/svg11.dtd">
<!-- Generated by graphviz version 2.43.0 (0)
 -->
<!-- Title: /home/runner/work/ramses/ramses/examples/ramses&#45;example&#45;basic&#45;animation/src Pages: 1 -->
<svg width="206pt" height="151pt"
 viewBox="0.00 0.00 206.00 151.00" xmlns="http://www.w3.org/2000/svg" xmlns:xlink="http://www.w3.org/1999/xlink">
<g id="graph0" class="graph" transform="scale(1 1) rotate(0) translate(4 147)">
<title>/home/runner/work/ramses/ramses/examples/ramses&#45;example&#45;basic&#45;animation/src</title>
<polygon fill="white" stroke="transparent" points="-4,4 -4,-147 202,-147 202,4 -4,4"/>
<g id="clust1" class="cluster">
<title>clusterdir_e8403cec071d03ffff886f68dd518e76</title>
<g id="a_clust1"><a xlink:href="dir_e8403cec071d03ffff886f68dd518e76.html" target="_top" xlink:title="ramses&#45;example&#45;basic&#45;animation">
<polygon fill="#ddddee" stroke="black" points="8,-64 8,-135 190,-135 190,-64 8,-64"/>
<text text-anchor="middle" x="99" y="-123" font-family="Helvetica,sans-Serif" font-size="10.00">ramses&#45;example&#45;basic&#45;animation</text>
</a>
</g>
</g>
<!-- dir_b5ce1188916f97f3f6fc3fd0ee54d28c -->
<g id="node1" class="node">
<title>dir_b5ce1188916f97f3f6fc3fd0ee54d28c</title>
<g id="a_node1"><a xlink:href="dir_b5ce1188916f97f3f6fc3fd0ee54d28c.html" target="_top" xlink:title="src">
<polygon fill="#eeeeff" stroke="black" points="126,-108 72,-108 72,-72 126,-72 126,-108"/>
<text text-anchor="middle" x="99" y="-87.5" font-family="Helvetica,sans-Serif" font-size="10.00">src</text>
</a>
</g>
</g>
<!-- dir_26af246848702a33262a7ef2acf92491 -->
<g id="node2" class="node">
<title>dir_26af246848702a33262a7ef2acf92491</title>
<g id="a_node2"><a xlink:href="dir_26af246848702a33262a7ef2acf92491.html" target="_top" xlink:title="client">
<polygon fill="white" stroke="red" points="126,-36 72,-36 72,0 126,0 126,-36"/>
<text text-anchor="middle" x="99" y="-15.5" font-family="Helvetica,sans-Serif" font-size="10.00">client</text>
</a>
</g>
</g>
<!-- dir_b5ce1188916f97f3f6fc3fd0ee54d28c&#45;&gt;dir_26af246848702a33262a7ef2acf92491 -->
<g id="edge1" class="edge">
<title>dir_b5ce1188916f97f3f6fc3fd0ee54d28c&#45;&gt;dir_26af246848702a33262a7ef2acf92491</title>
<path fill="none" stroke="black" d="M99,-71.7C99,-63.98 99,-54.71 99,-46.11"/>
<polygon fill="black" stroke="black" points="102.5,-46.1 99,-36.1 95.5,-46.1 102.5,-46.1"/>
<g id="a_edge1&#45;headlabel"><a xlink:href="dir_000020_000001.html" target="_top" xlink:title="1">
<text text-anchor="middle" x="105.34" y="-47.2" font-family="Helvetica,sans-Serif" font-size="10.00">1</text>
</a>
</g>
</g>
</g>
</svg>
