<?xml version="1.0" encoding="UTF-8" standalone="no"?>
<!DOCTYPE svg PUBLIC "-//W3C//DTD SVG 1.1//EN"
 "http://www.w3.org/Graphics/SVG/1.1/DTD/svg11.dtd">
<!-- Generated by graphviz version 2.43.0 (0)
 -->
<!-- Title: /home/q479079/sources/ramses&#45;oss/examples/ramses&#45;example&#45;local&#45;client&#45;dcsm/src Pages: 1 -->
<svg width="211pt" height="223pt"
 viewBox="0.00 0.00 211.00 223.00" xmlns="http://www.w3.org/2000/svg" xmlns:xlink="http://www.w3.org/1999/xlink">
<g id="graph0" class="graph" transform="scale(1 1) rotate(0) translate(4 219)">
<title>/home/q479079/sources/ramses&#45;oss/examples/ramses&#45;example&#45;local&#45;client&#45;dcsm/src</title>
<polygon fill="white" stroke="transparent" points="-4,4 -4,-219 207,-219 207,4 -4,4"/>
<g id="clust1" class="cluster">
<title>clusterdir_3faa40d9fd9a66d5321065a4c1455990</title>
<g id="a_clust1"><a xlink:href="dir_3faa40d9fd9a66d5321065a4c1455990.html" target="_top" xlink:title="ramses&#45;example&#45;local&#45;client&#45;dcsm">
<polygon fill="#ddddee" stroke="black" points="8,-136 8,-207 195,-207 195,-136 8,-136"/>
<text text-anchor="middle" x="101.5" y="-195" font-family="Helvetica,sans-Serif" font-size="10.00">ramses&#45;example&#45;local&#45;client&#45;dcsm</text>
</a>
</g>
</g>
<!-- dir_753496eb4640bb2f1939e14ba9b21879 -->
<g id="node1" class="node">
<title>dir_753496eb4640bb2f1939e14ba9b21879</title>
<g id="a_node1"><a xlink:href="dir_753496eb4640bb2f1939e14ba9b21879.html" target="_top" xlink:title="src">
<polygon fill="#eeeeff" stroke="black" points="128,-180 74,-180 74,-144 128,-144 128,-180"/>
<text text-anchor="middle" x="101" y="-159.5" font-family="Helvetica,sans-Serif" font-size="10.00">src</text>
</a>
</g>
</g>
<!-- dir_db3a54907829b36871118d03417739cd -->
<g id="node2" class="node">
<title>dir_db3a54907829b36871118d03417739cd</title>
<g id="a_node2"><a xlink:href="dir_db3a54907829b36871118d03417739cd.html" target="_top" xlink:title="client">
<polygon fill="white" stroke="red" points="73,-108 19,-108 19,-72 73,-72 73,-108"/>
<text text-anchor="middle" x="46" y="-87.5" font-family="Helvetica,sans-Serif" font-size="10.00">client</text>
</a>
</g>
</g>
<!-- dir_753496eb4640bb2f1939e14ba9b21879&#45;&gt;dir_db3a54907829b36871118d03417739cd -->
<g id="edge2" class="edge">
<title>dir_753496eb4640bb2f1939e14ba9b21879&#45;&gt;dir_db3a54907829b36871118d03417739cd</title>
<path fill="none" stroke="black" d="M87.4,-143.7C80.88,-135.39 72.93,-125.28 65.75,-116.14"/>
<polygon fill="black" stroke="black" points="68.37,-113.81 59.44,-108.1 62.87,-118.13 68.37,-113.81"/>
<g id="a_edge2&#45;headlabel"><a xlink:href="dir_000050_000000.html" target="_top" xlink:title="1">
<text text-anchor="middle" x="72.82" y="-112.38" font-family="Helvetica,sans-Serif" font-size="10.00">1</text>
</a>
</g>
</g>
<!-- dir_644e041c3a6521da7b27eba0e4eb2b95 -->
<g id="node3" class="node">
<title>dir_644e041c3a6521da7b27eba0e4eb2b95</title>
<g id="a_node3"><a xlink:href="dir_644e041c3a6521da7b27eba0e4eb2b95.html" target="_top" xlink:title="framework">
<polygon fill="white" stroke="red" points="136,-36 66,-36 66,0 136,0 136,-36"/>
<text text-anchor="middle" x="101" y="-15.5" font-family="Helvetica,sans-Serif" font-size="10.00">framework</text>
</a>
</g>
</g>
<!-- dir_753496eb4640bb2f1939e14ba9b21879&#45;&gt;dir_644e041c3a6521da7b27eba0e4eb2b95 -->
<g id="edge3" class="edge">
<title>dir_753496eb4640bb2f1939e14ba9b21879&#45;&gt;dir_644e041c3a6521da7b27eba0e4eb2b95</title>
<path fill="none" stroke="black" d="M101,-143.87C101,-119.67 101,-75.21 101,-46.39"/>
<polygon fill="black" stroke="black" points="104.5,-46.19 101,-36.19 97.5,-46.19 104.5,-46.19"/>
<g id="a_edge3&#45;headlabel"><a xlink:href="dir_000050_000075.html" target="_top" xlink:title="3">
<text text-anchor="middle" x="107.34" y="-47.28" font-family="Helvetica,sans-Serif" font-size="10.00">3</text>
</a>
</g>
</g>
<!-- dir_d10aa5f1e26260a914a037377583e9a7 -->
<g id="node4" class="node">
<title>dir_d10aa5f1e26260a914a037377583e9a7</title>
<g id="a_node4"><a xlink:href="dir_d10aa5f1e26260a914a037377583e9a7.html" target="_top" xlink:title="renderer">
<polygon fill="white" stroke="red" points="187,-108 129,-108 129,-72 187,-72 187,-108"/>
<text text-anchor="middle" x="158" y="-87.5" font-family="Helvetica,sans-Serif" font-size="10.00">renderer</text>
</a>
</g>
</g>
<!-- dir_753496eb4640bb2f1939e14ba9b21879&#45;&gt;dir_d10aa5f1e26260a914a037377583e9a7 -->
<g id="edge4" class="edge">
<title>dir_753496eb4640bb2f1939e14ba9b21879&#45;&gt;dir_d10aa5f1e26260a914a037377583e9a7</title>
<path fill="none" stroke="black" d="M115.09,-143.7C121.92,-135.3 130.26,-125.07 137.76,-115.86"/>
<polygon fill="black" stroke="black" points="140.47,-118.07 144.07,-108.1 135.04,-113.65 140.47,-118.07"/>
<g id="a_edge4&#45;headlabel"><a xlink:href="dir_000050_000079.html" target="_top" xlink:title="6">
<text text-anchor="middle" x="140.4" y="-120.15" font-family="Helvetica,sans-Serif" font-size="10.00">6</text>
</a>
</g>
</g>
<!-- dir_db3a54907829b36871118d03417739cd&#45;&gt;dir_644e041c3a6521da7b27eba0e4eb2b95 -->
<g id="edge1" class="edge">
<title>dir_db3a54907829b36871118d03417739cd&#45;&gt;dir_644e041c3a6521da7b27eba0e4eb2b95</title>
<path fill="none" stroke="black" d="M59.6,-71.7C66.12,-63.39 74.07,-53.28 81.25,-44.14"/>
<polygon fill="black" stroke="black" points="84.13,-46.13 87.56,-36.1 78.63,-41.81 84.13,-46.13"/>
<g id="a_edge1&#45;headlabel"><a xlink:href="dir_000000_000075.html" target="_top" xlink:title="32">
<text text-anchor="middle" x="84.15" y="-48.21" font-family="Helvetica,sans-Serif" font-size="10.00">32</text>
</a>
</g>
</g>
<!-- dir_d10aa5f1e26260a914a037377583e9a7&#45;&gt;dir_644e041c3a6521da7b27eba0e4eb2b95 -->
<g id="edge5" class="edge">
<title>dir_d10aa5f1e26260a914a037377583e9a7&#45;&gt;dir_644e041c3a6521da7b27eba0e4eb2b95</title>
<path fill="none" stroke="black" d="M143.91,-71.7C137.08,-63.3 128.74,-53.07 121.24,-43.86"/>
<polygon fill="black" stroke="black" points="123.96,-41.65 114.93,-36.1 118.53,-46.07 123.96,-41.65"/>
<g id="a_edge5&#45;headlabel"><a xlink:href="dir_000079_000075.html" target="_top" xlink:title="20">
<text text-anchor="middle" x="128.43" y="-40.14" font-family="Helvetica,sans-Serif" font-size="10.00">20</text>
</a>
</g>
</g>
</g>
</svg>
