<?xml version="1.0" encoding="UTF-8" standalone="no"?>
<!DOCTYPE svg PUBLIC "-//W3C//DTD SVG 1.1//EN"
 "http://www.w3.org/Graphics/SVG/1.1/DTD/svg11.dtd">
<!-- Generated by graphviz version 2.43.0 (0)
 -->
<!-- Title: /c/src/genivi/renderer/RendererLib/ramses&#45;renderer&#45;api/include Pages: 1 -->
<svg width="244pt" height="159pt"
 viewBox="0.00 0.00 244.00 159.00" xmlns="http://www.w3.org/2000/svg" xmlns:xlink="http://www.w3.org/1999/xlink">
<g id="graph0" class="graph" transform="scale(1 1) rotate(0) translate(4 155)">
<title>/c/src/genivi/renderer/RendererLib/ramses&#45;renderer&#45;api/include</title>
<polygon fill="white" stroke="transparent" points="-4,4 -4,-155 240,-155 240,4 -4,4"/>
<g id="clust1" class="cluster">
<title>clusterdir_7b1092779ce6328db6627afe25f7a405</title>
<g id="a_clust1"><a xlink:href="dir_7b1092779ce6328db6627afe25f7a405.html" target="_top" xlink:title="ramses&#45;renderer&#45;api">
<polygon fill="#ddddee" stroke="black" points="8,-56 8,-143 228,-143 228,-56 8,-56"/>
<text text-anchor="middle" x="118" y="-131" font-family="Helvetica,sans-Serif" font-size="10.00">ramses&#45;renderer&#45;api</text>
</a>
</g>
</g>
<g id="clust2" class="cluster">
<title>clusterdir_4acd8f81f9a26c82a08890379bd35249</title>
<g id="a_clust2"><a xlink:href="dir_4acd8f81f9a26c82a08890379bd35249.html" target="_top">
<polygon fill="#eeeeff" stroke="black" points="16,-64 16,-116 220,-116 220,-64 16,-64"/>
</a>
</g>
</g>
<!-- dir_4acd8f81f9a26c82a08890379bd35249 -->
<g id="node1" class="node">
<title>dir_4acd8f81f9a26c82a08890379bd35249</title>
<text text-anchor="middle" x="185" y="-87.5" font-family="Helvetica,sans-Serif" font-size="10.00">include</text>
</g>
<!-- dir_2016399c76e4951ffe136f2843373232 -->
<g id="node2" class="node">
<title>dir_2016399c76e4951ffe136f2843373232</title>
<g id="a_node2"><a xlink:href="dir_2016399c76e4951ffe136f2843373232.html" target="_top" xlink:title="ramses&#45;renderer&#45;api">
<polygon fill="white" stroke="black" points="140,-108 24,-108 24,-72 140,-72 140,-108"/>
<text text-anchor="middle" x="82" y="-87.5" font-family="Helvetica,sans-Serif" font-size="10.00">ramses&#45;renderer&#45;api</text>
</a>
</g>
</g>
<!-- dir_644e041c3a6521da7b27eba0e4eb2b95 -->
<g id="node3" class="node">
<title>dir_644e041c3a6521da7b27eba0e4eb2b95</title>
<g id="a_node3"><a xlink:href="dir_644e041c3a6521da7b27eba0e4eb2b95.html" target="_top" xlink:title="framework">
<polygon fill="white" stroke="red" points="117,-36 47,-36 47,0 117,0 117,-36"/>
<text text-anchor="middle" x="82" y="-15.5" font-family="Helvetica,sans-Serif" font-size="10.00">framework</text>
</a>
</g>
</g>
<!-- dir_2016399c76e4951ffe136f2843373232&#45;&gt;dir_644e041c3a6521da7b27eba0e4eb2b95 -->
<g id="edge1" class="edge">
<title>dir_2016399c76e4951ffe136f2843373232&#45;&gt;dir_644e041c3a6521da7b27eba0e4eb2b95</title>
<path fill="none" stroke="black" d="M82,-71.7C82,-63.98 82,-54.71 82,-46.11"/>
<polygon fill="black" stroke="black" points="85.5,-46.1 82,-36.1 78.5,-46.1 85.5,-46.1"/>
<g id="a_edge1&#45;headlabel"><a xlink:href="dir_000083_000075.html" target="_top" xlink:title="20">
<text text-anchor="middle" x="88.34" y="-47.2" font-family="Helvetica,sans-Serif" font-size="10.00">20</text>
</a>
</g>
</g>
</g>
</svg>
