<?xml version="1.0" encoding="UTF-8" standalone="no"?>
<!DOCTYPE svg PUBLIC "-//W3C//DTD SVG 1.1//EN"
 "http://www.w3.org/Graphics/SVG/1.1/DTD/svg11.dtd">
<!-- Generated by graphviz version 2.43.0 (0)
 -->
<!-- Title: /home/q479079/sources/ramses&#45;oss/examples/ramses&#45;example&#45;local&#45;client/src Pages: 1 -->
<svg width="181pt" height="151pt"
 viewBox="0.00 0.00 181.00 151.00" xmlns="http://www.w3.org/2000/svg" xmlns:xlink="http://www.w3.org/1999/xlink">
<g id="graph0" class="graph" transform="scale(1 1) rotate(0) translate(4 147)">
<title>/home/q479079/sources/ramses&#45;oss/examples/ramses&#45;example&#45;local&#45;client/src</title>
<polygon fill="white" stroke="transparent" points="-4,4 -4,-147 177,-147 177,4 -4,4"/>
<g id="clust1" class="cluster">
<title>clusterdir_0a153d4022ca6301d719adc4a5eae26e</title>
<g id="a_clust1"><a xlink:href="dir_0a153d4022ca6301d719adc4a5eae26e.html" target="_top" xlink:title="ramses&#45;example&#45;local&#45;client">
<polygon fill="#ddddee" stroke="black" points="8,-64 8,-135 165,-135 165,-64 8,-64"/>
<text text-anchor="middle" x="86.5" y="-123" font-family="Helvetica,sans-Serif" font-size="10.00">ramses&#45;example&#45;local&#45;client</text>
</a>
</g>
</g>
<!-- dir_9ee737315acdc853cc8002ef9bcff4a3 -->
<g id="node1" class="node">
<title>dir_9ee737315acdc853cc8002ef9bcff4a3</title>
<g id="a_node1"><a xlink:href="dir_9ee737315acdc853cc8002ef9bcff4a3.html" target="_top" xlink:title="src">
<polygon fill="#eeeeff" stroke="black" points="113,-108 59,-108 59,-72 113,-72 113,-108"/>
<text text-anchor="middle" x="86" y="-87.5" font-family="Helvetica,sans-Serif" font-size="10.00">src</text>
</a>
</g>
</g>
<!-- dir_db3a54907829b36871118d03417739cd -->
<g id="node2" class="node">
<title>dir_db3a54907829b36871118d03417739cd</title>
<g id="a_node2"><a xlink:href="dir_db3a54907829b36871118d03417739cd.html" target="_top" xlink:title="client">
<polygon fill="white" stroke="red" points="76,-36 22,-36 22,0 76,0 76,-36"/>
<text text-anchor="middle" x="49" y="-15.5" font-family="Helvetica,sans-Serif" font-size="10.00">client</text>
</a>
</g>
</g>
<!-- dir_9ee737315acdc853cc8002ef9bcff4a3&#45;&gt;dir_db3a54907829b36871118d03417739cd -->
<g id="edge1" class="edge">
<title>dir_9ee737315acdc853cc8002ef9bcff4a3&#45;&gt;dir_db3a54907829b36871118d03417739cd</title>
<path fill="none" stroke="black" d="M76.85,-71.7C72.6,-63.64 67.44,-53.89 62.73,-44.98"/>
<polygon fill="black" stroke="black" points="65.81,-43.31 58.04,-36.1 59.62,-46.58 65.81,-43.31"/>
<g id="a_edge1&#45;headlabel"><a xlink:href="dir_000052_000000.html" target="_top" xlink:title="1">
<text text-anchor="middle" x="70" y="-42.66" font-family="Helvetica,sans-Serif" font-size="10.00">1</text>
</a>
</g>
</g>
<!-- dir_d10aa5f1e26260a914a037377583e9a7 -->
<g id="node3" class="node">
<title>dir_d10aa5f1e26260a914a037377583e9a7</title>
<g id="a_node3"><a xlink:href="dir_d10aa5f1e26260a914a037377583e9a7.html" target="_top" xlink:title="renderer">
<polygon fill="white" stroke="red" points="152,-36 94,-36 94,0 152,0 152,-36"/>
<text text-anchor="middle" x="123" y="-15.5" font-family="Helvetica,sans-Serif" font-size="10.00">renderer</text>
</a>
</g>
</g>
<!-- dir_9ee737315acdc853cc8002ef9bcff4a3&#45;&gt;dir_d10aa5f1e26260a914a037377583e9a7 -->
<g id="edge2" class="edge">
<title>dir_9ee737315acdc853cc8002ef9bcff4a3&#45;&gt;dir_d10aa5f1e26260a914a037377583e9a7</title>
<path fill="none" stroke="black" d="M95.15,-71.7C99.4,-63.64 104.56,-53.89 109.27,-44.98"/>
<polygon fill="black" stroke="black" points="112.38,-46.58 113.96,-36.1 106.19,-43.31 112.38,-46.58"/>
<g id="a_edge2&#45;headlabel"><a xlink:href="dir_000052_000079.html" target="_top" xlink:title="3">
<text text-anchor="middle" x="113.21" y="-48.59" font-family="Helvetica,sans-Serif" font-size="10.00">3</text>
</a>
</g>
</g>
</g>
</svg>
