<?xml version="1.0" encoding="UTF-8" standalone="no"?>
<!DOCTYPE svg PUBLIC "-//W3C//DTD SVG 1.1//EN"
 "http://www.w3.org/Graphics/SVG/1.1/DTD/svg11.dtd">
<!-- Generated by graphviz version 2.43.0 (0)
 -->
<!-- Title: /home/runner/work/ramses/ramses/renderer/RendererLib/ramses&#45;renderer&#45;api Pages: 1 -->
<svg width="244pt" height="159pt"
 viewBox="0.00 0.00 244.00 159.00" xmlns="http://www.w3.org/2000/svg" xmlns:xlink="http://www.w3.org/1999/xlink">
<g id="graph0" class="graph" transform="scale(1 1) rotate(0) translate(4 155)">
<title>/home/runner/work/ramses/ramses/renderer/RendererLib/ramses&#45;renderer&#45;api</title>
<polygon fill="white" stroke="transparent" points="-4,4 -4,-155 240,-155 240,4 -4,4"/>
<g id="clust1" class="cluster">
<title>clusterdir_a3a7c660e810b5001e280646f5df93f6</title>
<g id="a_clust1"><a xlink:href="dir_a3a7c660e810b5001e280646f5df93f6.html" target="_top" xlink:title="RendererLib">
<polygon fill="#ddddee" stroke="black" points="8,-56 8,-143 228,-143 228,-56 8,-56"/>
<text text-anchor="middle" x="118" y="-131" font-family="Helvetica,sans-Serif" font-size="10.00">RendererLib</text>
</a>
</g>
</g>
<g id="clust2" class="cluster">
<title>clusterdir_c50a7a15246d81cc7d5cd44280efaffd</title>
<g id="a_clust2"><a xlink:href="dir_c50a7a15246d81cc7d5cd44280efaffd.html" target="_top">
<polygon fill="#eeeeff" stroke="black" points="16,-64 16,-116 220,-116 220,-64 16,-64"/>
</a>
</g>
</g>
<!-- dir_c50a7a15246d81cc7d5cd44280efaffd -->
<g id="node1" class="node">
<title>dir_c50a7a15246d81cc7d5cd44280efaffd</title>
<text text-anchor="middle" x="154" y="-87.5" font-family="Helvetica,sans-Serif" font-size="10.00">ramses&#45;renderer&#45;api</text>
</g>
<!-- dir_e92bb067809c5f8861157b44b96c58df -->
<g id="node2" class="node">
<title>dir_e92bb067809c5f8861157b44b96c58df</title>
<g id="a_node2"><a xlink:href="dir_e92bb067809c5f8861157b44b96c58df.html" target="_top" xlink:title="include">
<polygon fill="white" stroke="red" points="78,-108 24,-108 24,-72 78,-72 78,-108"/>
<text text-anchor="middle" x="51" y="-87.5" font-family="Helvetica,sans-Serif" font-size="10.00">include</text>
</a>
</g>
</g>
<!-- dir_ca8fa6fd603755c533029df5a9606911 -->
<g id="node3" class="node">
<title>dir_ca8fa6fd603755c533029df5a9606911</title>
<g id="a_node3"><a xlink:href="dir_ca8fa6fd603755c533029df5a9606911.html" target="_top" xlink:title="framework">
<polygon fill="white" stroke="red" points="86,-36 16,-36 16,0 86,0 86,-36"/>
<text text-anchor="middle" x="51" y="-15.5" font-family="Helvetica,sans-Serif" font-size="10.00">framework</text>
</a>
</g>
</g>
<!-- dir_e92bb067809c5f8861157b44b96c58df&#45;&gt;dir_ca8fa6fd603755c533029df5a9606911 -->
<g id="edge1" class="edge">
<title>dir_e92bb067809c5f8861157b44b96c58df&#45;&gt;dir_ca8fa6fd603755c533029df5a9606911</title>
<path fill="none" stroke="black" d="M51,-71.7C51,-63.98 51,-54.71 51,-46.11"/>
<polygon fill="black" stroke="black" points="54.5,-46.1 51,-36.1 47.5,-46.1 54.5,-46.1"/>
<g id="a_edge1&#45;headlabel"><a xlink:href="dir_000087_000080.html" target="_top" xlink:title="20">
<text text-anchor="middle" x="57.34" y="-47.2" font-family="Helvetica,sans-Serif" font-size="10.00">20</text>
</a>
</g>
</g>
</g>
</svg>
