<?xml version="1.0" encoding="UTF-8" standalone="no"?>
<!DOCTYPE svg PUBLIC "-//W3C//DTD SVG 1.1//EN"
 "http://www.w3.org/Graphics/SVG/1.1/DTD/svg11.dtd">
<!-- Generated by graphviz version 2.43.0 (0)
 -->
<!-- Title: /home/runner/work/ramses/ramses/client/ramses&#45;client/ramses&#45;text&#45;api/include Pages: 1 -->
<svg width="152pt" height="231pt"
 viewBox="0.00 0.00 152.00 231.00" xmlns="http://www.w3.org/2000/svg" xmlns:xlink="http://www.w3.org/1999/xlink">
<g id="graph0" class="graph" transform="scale(1 1) rotate(0) translate(4 227)">
<title>/home/runner/work/ramses/ramses/client/ramses&#45;client/ramses&#45;text&#45;api/include</title>
<polygon fill="white" stroke="transparent" points="-4,4 -4,-227 148,-227 148,4 -4,4"/>
<g id="clust1" class="cluster">
<title>clusterdir_e1da186663d25bfac7a90dd8f11e2e59</title>
<g id="a_clust1"><a xlink:href="dir_e1da186663d25bfac7a90dd8f11e2e59.html" target="_top" xlink:title="ramses&#45;text&#45;api">
<polygon fill="#ddddee" stroke="black" points="8,-56 8,-215 136,-215 136,-56 8,-56"/>
<text text-anchor="middle" x="72" y="-203" font-family="Helvetica,sans-Serif" font-size="10.00">ramses&#45;text&#45;api</text>
</a>
</g>
</g>
<g id="clust2" class="cluster">
<title>clusterdir_b0c1129f99fe5de14212e48bbbc12c66</title>
<g id="a_clust2"><a xlink:href="dir_b0c1129f99fe5de14212e48bbbc12c66.html" target="_top">
<polygon fill="#eeeeff" stroke="black" points="16,-64 16,-188 128,-188 128,-64 16,-64"/>
</a>
</g>
</g>
<!-- dir_b0c1129f99fe5de14212e48bbbc12c66 -->
<g id="node1" class="node">
<title>dir_b0c1129f99fe5de14212e48bbbc12c66</title>
<text text-anchor="middle" x="72" y="-159.5" font-family="Helvetica,sans-Serif" font-size="10.00">include</text>
</g>
<!-- dir_185bdfb806b03b9d44d132b2a71a84c8 -->
<g id="node2" class="node">
<title>dir_185bdfb806b03b9d44d132b2a71a84c8</title>
<g id="a_node2"><a xlink:href="dir_185bdfb806b03b9d44d132b2a71a84c8.html" target="_top" xlink:title="ramses&#45;text&#45;api">
<polygon fill="white" stroke="black" points="119.5,-108 24.5,-108 24.5,-72 119.5,-72 119.5,-108"/>
<text text-anchor="middle" x="72" y="-87.5" font-family="Helvetica,sans-Serif" font-size="10.00">ramses&#45;text&#45;api</text>
</a>
</g>
</g>
<!-- dir_b0c1129f99fe5de14212e48bbbc12c66&#45;&gt;dir_185bdfb806b03b9d44d132b2a71a84c8 -->
<g id="edge1" class="edge">
<title>dir_b0c1129f99fe5de14212e48bbbc12c66&#45;&gt;dir_185bdfb806b03b9d44d132b2a71a84c8</title>
<path fill="none" stroke="black" d="M72,-143.7C72,-135.98 72,-126.71 72,-118.11"/>
<polygon fill="black" stroke="black" points="75.5,-118.1 72,-108.1 68.5,-118.1 75.5,-118.1"/>
<g id="a_edge1&#45;headlabel"><a xlink:href="dir_000007_000008.html" target="_top" xlink:title="11">
<text text-anchor="middle" x="78.34" y="-119.2" font-family="Helvetica,sans-Serif" font-size="10.00">11</text>
</a>
</g>
</g>
<!-- dir_ca8fa6fd603755c533029df5a9606911 -->
<g id="node3" class="node">
<title>dir_ca8fa6fd603755c533029df5a9606911</title>
<g id="a_node3"><a xlink:href="dir_ca8fa6fd603755c533029df5a9606911.html" target="_top" xlink:title="framework">
<polygon fill="white" stroke="red" points="107,-36 37,-36 37,0 107,0 107,-36"/>
<text text-anchor="middle" x="72" y="-15.5" font-family="Helvetica,sans-Serif" font-size="10.00">framework</text>
</a>
</g>
</g>
<!-- dir_185bdfb806b03b9d44d132b2a71a84c8&#45;&gt;dir_ca8fa6fd603755c533029df5a9606911 -->
<g id="edge2" class="edge">
<title>dir_185bdfb806b03b9d44d132b2a71a84c8&#45;&gt;dir_ca8fa6fd603755c533029df5a9606911</title>
<path fill="none" stroke="black" d="M72,-71.7C72,-63.98 72,-54.71 72,-46.11"/>
<polygon fill="black" stroke="black" points="75.5,-46.1 72,-36.1 68.5,-46.1 75.5,-46.1"/>
<g id="a_edge2&#45;headlabel"><a xlink:href="dir_000008_000080.html" target="_top" xlink:title="3">
<text text-anchor="middle" x="78.34" y="-47.2" font-family="Helvetica,sans-Serif" font-size="10.00">3</text>
</a>
</g>
</g>
</g>
</svg>
