<?xml version="1.0" encoding="UTF-8" standalone="no"?>
<!DOCTYPE svg PUBLIC "-//W3C//DTD SVG 1.1//EN"
 "http://www.w3.org/Graphics/SVG/1.1/DTD/svg11.dtd">
<!-- Generated by graphviz version 2.40.1 (20161225.0304)
 -->
<!-- Title: /home/ramses/dev/oss&#45;ramses/examples/ramses&#45;example&#45;local&#45;pick&#45;handling Pages: 1 -->
<svg width="331pt" height="231pt"
 viewBox="0.00 0.00 331.00 231.00" xmlns="http://www.w3.org/2000/svg" xmlns:xlink="http://www.w3.org/1999/xlink">
<g id="graph0" class="graph" transform="scale(1 1) rotate(0) translate(4 227)">
<title>/home/ramses/dev/oss&#45;ramses/examples/ramses&#45;example&#45;local&#45;pick&#45;handling</title>
<polygon fill="#ffffff" stroke="transparent" points="-4,4 -4,-227 327,-227 327,4 -4,4"/>
<g id="clust1" class="cluster">
<title>clusterdir_d28a4824dc47e487b107a5db32ef43c4</title>
<g id="a_clust1"><a xlink:href="dir_d28a4824dc47e487b107a5db32ef43c4.html" target="_top" xlink:title="examples">
<polygon fill="#ddddee" stroke="#000000" points="39,-128 39,-215 315,-215 315,-128 39,-128"/>
<text text-anchor="middle" x="177" y="-203" font-family="Helvetica,sans-Serif" font-size="10.00" fill="#000000">examples</text>
</a>
</g>
</g>
<g id="clust2" class="cluster">
<title>clusterdir_7c1bbcc314943e3db5a79e8771697325</title>
<g id="a_clust2"><a xlink:href="dir_7c1bbcc314943e3db5a79e8771697325.html" target="_top">
<polygon fill="#eeeeff" stroke="#000000" points="47,-136 47,-188 307,-188 307,-136 47,-136"/>
</a>
</g>
</g>
<!-- dir_7c1bbcc314943e3db5a79e8771697325 -->
<g id="node1" class="node">
<title>dir_7c1bbcc314943e3db5a79e8771697325</title>
<text text-anchor="middle" x="213" y="-159.5" font-family="Helvetica,sans-Serif" font-size="10.00" fill="#000000">ramses&#45;example&#45;local&#45;pick&#45;handling</text>
</g>
<!-- dir_e39b3d8a52500e21a177650c0e464c05 -->
<g id="node2" class="node">
<title>dir_e39b3d8a52500e21a177650c0e464c05</title>
<g id="a_node2"><a xlink:href="dir_e39b3d8a52500e21a177650c0e464c05.html" target="_top" xlink:title="src">
<polygon fill="#ffffff" stroke="#000000" points="109,-180 55,-180 55,-144 109,-144 109,-180"/>
<text text-anchor="middle" x="82" y="-159.5" font-family="Helvetica,sans-Serif" font-size="10.00" fill="#000000">src</text>
</a>
</g>
</g>
<!-- dir_db3a54907829b36871118d03417739cd -->
<g id="node3" class="node">
<title>dir_db3a54907829b36871118d03417739cd</title>
<g id="a_node3"><a xlink:href="dir_db3a54907829b36871118d03417739cd.html" target="_top" xlink:title="client">
<polygon fill="#ffffff" stroke="#ff0000" points="54,-108 0,-108 0,-72 54,-72 54,-108"/>
<text text-anchor="middle" x="27" y="-87.5" font-family="Helvetica,sans-Serif" font-size="10.00" fill="#000000">client</text>
</a>
</g>
</g>
<!-- dir_e39b3d8a52500e21a177650c0e464c05&#45;&gt;dir_db3a54907829b36871118d03417739cd -->
<g id="edge2" class="edge">
<title>dir_e39b3d8a52500e21a177650c0e464c05&#45;&gt;dir_db3a54907829b36871118d03417739cd</title>
<path fill="none" stroke="#000000" d="M68.1212,-143.8314C61.7864,-135.5386 54.1616,-125.557 47.2074,-116.4533"/>
<polygon fill="#000000" stroke="#000000" points="49.9175,-114.2353 41.0657,-108.4133 44.3548,-118.4847 49.9175,-114.2353"/>
<g id="a_edge2&#45;headlabel"><a xlink:href="dir_000056_000000.html" target="_top" xlink:title="3">
<text text-anchor="middle" x="54.3558" y="-112.8683" font-family="Helvetica,sans-Serif" font-size="10.00" fill="#000000">3</text>
</a>
</g>
</g>
<!-- dir_644e041c3a6521da7b27eba0e4eb2b95 -->
<g id="node4" class="node">
<title>dir_644e041c3a6521da7b27eba0e4eb2b95</title>
<g id="a_node4"><a xlink:href="dir_644e041c3a6521da7b27eba0e4eb2b95.html" target="_top" xlink:title="framework">
<polygon fill="#ffffff" stroke="#ff0000" points="113,-36 51,-36 51,0 113,0 113,-36"/>
<text text-anchor="middle" x="82" y="-15.5" font-family="Helvetica,sans-Serif" font-size="10.00" fill="#000000">framework</text>
</a>
</g>
</g>
<!-- dir_e39b3d8a52500e21a177650c0e464c05&#45;&gt;dir_644e041c3a6521da7b27eba0e4eb2b95 -->
<g id="edge3" class="edge">
<title>dir_e39b3d8a52500e21a177650c0e464c05&#45;&gt;dir_644e041c3a6521da7b27eba0e4eb2b95</title>
<path fill="none" stroke="#000000" d="M82,-143.7623C82,-119.201 82,-75.2474 82,-46.3541"/>
<polygon fill="#000000" stroke="#000000" points="85.5001,-46.0896 82,-36.0896 78.5001,-46.0897 85.5001,-46.0896"/>
<g id="a_edge3&#45;headlabel"><a xlink:href="dir_000056_000069.html" target="_top" xlink:title="1">
<text text-anchor="middle" x="88.3393" y="-47.1842" font-family="Helvetica,sans-Serif" font-size="10.00" fill="#000000">1</text>
</a>
</g>
</g>
<!-- dir_d10aa5f1e26260a914a037377583e9a7 -->
<g id="node5" class="node">
<title>dir_d10aa5f1e26260a914a037377583e9a7</title>
<g id="a_node5"><a xlink:href="dir_d10aa5f1e26260a914a037377583e9a7.html" target="_top" xlink:title="renderer">
<polygon fill="#ffffff" stroke="#ff0000" points="164,-108 110,-108 110,-72 164,-72 164,-108"/>
<text text-anchor="middle" x="137" y="-87.5" font-family="Helvetica,sans-Serif" font-size="10.00" fill="#000000">renderer</text>
</a>
</g>
</g>
<!-- dir_e39b3d8a52500e21a177650c0e464c05&#45;&gt;dir_d10aa5f1e26260a914a037377583e9a7 -->
<g id="edge4" class="edge">
<title>dir_e39b3d8a52500e21a177650c0e464c05&#45;&gt;dir_d10aa5f1e26260a914a037377583e9a7</title>
<path fill="none" stroke="#000000" d="M95.8788,-143.8314C102.2136,-135.5386 109.8384,-125.557 116.7926,-116.4533"/>
<polygon fill="#000000" stroke="#000000" points="119.6452,-118.4847 122.9343,-108.4133 114.0825,-114.2353 119.6452,-118.4847"/>
<g id="a_edge4&#45;headlabel"><a xlink:href="dir_000056_000073.html" target="_top" xlink:title="5">
<text text-anchor="middle" x="119.7195" y="-120.5647" font-family="Helvetica,sans-Serif" font-size="10.00" fill="#000000">5</text>
</a>
</g>
</g>
<!-- dir_db3a54907829b36871118d03417739cd&#45;&gt;dir_644e041c3a6521da7b27eba0e4eb2b95 -->
<g id="edge1" class="edge">
<title>dir_db3a54907829b36871118d03417739cd&#45;&gt;dir_644e041c3a6521da7b27eba0e4eb2b95</title>
<path fill="none" stroke="#000000" d="M40.8788,-71.8314C47.2136,-63.5386 54.8384,-53.557 61.7926,-44.4533"/>
<polygon fill="#000000" stroke="#000000" points="64.6452,-46.4847 67.9343,-36.4133 59.0825,-42.2353 64.6452,-46.4847"/>
<g id="a_edge1&#45;headlabel"><a xlink:href="dir_000000_000069.html" target="_top" xlink:title="32">
<text text-anchor="middle" x="64.7195" y="-48.5647" font-family="Helvetica,sans-Serif" font-size="10.00" fill="#000000">32</text>
</a>
</g>
</g>
<!-- dir_d10aa5f1e26260a914a037377583e9a7&#45;&gt;dir_644e041c3a6521da7b27eba0e4eb2b95 -->
<g id="edge5" class="edge">
<title>dir_d10aa5f1e26260a914a037377583e9a7&#45;&gt;dir_644e041c3a6521da7b27eba0e4eb2b95</title>
<path fill="none" stroke="#000000" d="M123.1212,-71.8314C116.7864,-63.5386 109.1616,-53.557 102.2074,-44.4533"/>
<polygon fill="#000000" stroke="#000000" points="104.9175,-42.2353 96.0657,-36.4133 99.3548,-46.4847 104.9175,-42.2353"/>
<g id="a_edge5&#45;headlabel"><a xlink:href="dir_000073_000069.html" target="_top" xlink:title="20">
<text text-anchor="middle" x="109.3558" y="-40.8683" font-family="Helvetica,sans-Serif" font-size="10.00" fill="#000000">20</text>
</a>
</g>
</g>
</g>
</svg>
