<?xml version="1.0" encoding="UTF-8" standalone="no"?>
<!DOCTYPE svg PUBLIC "-//W3C//DTD SVG 1.1//EN"
 "http://www.w3.org/Graphics/SVG/1.1/DTD/svg11.dtd">
<!-- Generated by graphviz version 2.43.0 (0)
 -->
<!-- Title: /c/src/mirror/examples/ramses&#45;example&#45;interleaved&#45;vertex&#45;buffers/src Pages: 1 -->
<svg width="254pt" height="151pt"
 viewBox="0.00 0.00 254.00 151.00" xmlns="http://www.w3.org/2000/svg" xmlns:xlink="http://www.w3.org/1999/xlink">
<g id="graph0" class="graph" transform="scale(1 1) rotate(0) translate(4 147)">
<title>/c/src/mirror/examples/ramses&#45;example&#45;interleaved&#45;vertex&#45;buffers/src</title>
<polygon fill="white" stroke="transparent" points="-4,4 -4,-147 250,-147 250,4 -4,4"/>
<g id="clust1" class="cluster">
<title>clusterdir_bf35390e748eb43a851991c2dc88e685</title>
<g id="a_clust1"><a xlink:href="dir_bf35390e748eb43a851991c2dc88e685.html" target="_top" xlink:title="ramses&#45;example&#45;interleaved&#45;vertex&#45;buffers">
<polygon fill="#ddddee" stroke="black" points="8,-64 8,-135 238,-135 238,-64 8,-64"/>
<text text-anchor="middle" x="123" y="-123" font-family="Helvetica,sans-Serif" font-size="10.00">ramses&#45;example&#45;interleaved&#45;vertex&#45;buffers</text>
</a>
</g>
</g>
<!-- dir_a1e118aaeaee73bba35de7962cf8b75c -->
<g id="node1" class="node">
<title>dir_a1e118aaeaee73bba35de7962cf8b75c</title>
<g id="a_node1"><a xlink:href="dir_a1e118aaeaee73bba35de7962cf8b75c.html" target="_top" xlink:title="src">
<polygon fill="#eeeeff" stroke="black" points="150,-108 96,-108 96,-72 150,-72 150,-108"/>
<text text-anchor="middle" x="123" y="-87.5" font-family="Helvetica,sans-Serif" font-size="10.00">src</text>
</a>
</g>
</g>
<!-- dir_db3a54907829b36871118d03417739cd -->
<g id="node2" class="node">
<title>dir_db3a54907829b36871118d03417739cd</title>
<g id="a_node2"><a xlink:href="dir_db3a54907829b36871118d03417739cd.html" target="_top" xlink:title="client">
<polygon fill="white" stroke="red" points="150,-36 96,-36 96,0 150,0 150,-36"/>
<text text-anchor="middle" x="123" y="-15.5" font-family="Helvetica,sans-Serif" font-size="10.00">client</text>
</a>
</g>
</g>
<!-- dir_a1e118aaeaee73bba35de7962cf8b75c&#45;&gt;dir_db3a54907829b36871118d03417739cd -->
<g id="edge1" class="edge">
<title>dir_a1e118aaeaee73bba35de7962cf8b75c&#45;&gt;dir_db3a54907829b36871118d03417739cd</title>
<path fill="none" stroke="black" d="M123,-71.7C123,-63.98 123,-54.71 123,-46.11"/>
<polygon fill="black" stroke="black" points="126.5,-46.1 123,-36.1 119.5,-46.1 126.5,-46.1"/>
<g id="a_edge1&#45;headlabel"><a xlink:href="dir_000048_000000.html" target="_top" xlink:title="1">
<text text-anchor="middle" x="129.34" y="-47.2" font-family="Helvetica,sans-Serif" font-size="10.00">1</text>
</a>
</g>
</g>
</g>
</svg>
