<?xml version="1.0" encoding="UTF-8" standalone="no"?>
<!DOCTYPE svg PUBLIC "-//W3C//DTD SVG 1.1//EN"
 "http://www.w3.org/Graphics/SVG/1.1/DTD/svg11.dtd">
<!-- Generated by graphviz version 2.43.0 (0)
 -->
<!-- Title: /c/src/mirror/examples/ramses&#45;example&#45;local&#45;pick&#45;handling/src Pages: 1 -->
<svg width="220pt" height="223pt"
 viewBox="0.00 0.00 220.00 223.00" xmlns="http://www.w3.org/2000/svg" xmlns:xlink="http://www.w3.org/1999/xlink">
<g id="graph0" class="graph" transform="scale(1 1) rotate(0) translate(4 219)">
<title>/c/src/mirror/examples/ramses&#45;example&#45;local&#45;pick&#45;handling/src</title>
<polygon fill="white" stroke="transparent" points="-4,4 -4,-219 216,-219 216,4 -4,4"/>
<g id="clust1" class="cluster">
<title>clusterdir_7c1bbcc314943e3db5a79e8771697325</title>
<g id="a_clust1"><a xlink:href="dir_7c1bbcc314943e3db5a79e8771697325.html" target="_top" xlink:title="ramses&#45;example&#45;local&#45;pick&#45;handling">
<polygon fill="#ddddee" stroke="black" points="8,-136 8,-207 204,-207 204,-136 8,-136"/>
<text text-anchor="middle" x="106" y="-195" font-family="Helvetica,sans-Serif" font-size="10.00">ramses&#45;example&#45;local&#45;pick&#45;handling</text>
</a>
</g>
</g>
<!-- dir_e39b3d8a52500e21a177650c0e464c05 -->
<g id="node1" class="node">
<title>dir_e39b3d8a52500e21a177650c0e464c05</title>
<g id="a_node1"><a xlink:href="dir_e39b3d8a52500e21a177650c0e464c05.html" target="_top" xlink:title="src">
<polygon fill="#eeeeff" stroke="black" points="133,-180 79,-180 79,-144 133,-144 133,-180"/>
<text text-anchor="middle" x="106" y="-159.5" font-family="Helvetica,sans-Serif" font-size="10.00">src</text>
</a>
</g>
</g>
<!-- dir_db3a54907829b36871118d03417739cd -->
<g id="node2" class="node">
<title>dir_db3a54907829b36871118d03417739cd</title>
<g id="a_node2"><a xlink:href="dir_db3a54907829b36871118d03417739cd.html" target="_top" xlink:title="client">
<polygon fill="white" stroke="red" points="78,-108 24,-108 24,-72 78,-72 78,-108"/>
<text text-anchor="middle" x="51" y="-87.5" font-family="Helvetica,sans-Serif" font-size="10.00">client</text>
</a>
</g>
</g>
<!-- dir_e39b3d8a52500e21a177650c0e464c05&#45;&gt;dir_db3a54907829b36871118d03417739cd -->
<g id="edge2" class="edge">
<title>dir_e39b3d8a52500e21a177650c0e464c05&#45;&gt;dir_db3a54907829b36871118d03417739cd</title>
<path fill="none" stroke="black" d="M92.4,-143.7C85.88,-135.39 77.93,-125.28 70.75,-116.14"/>
<polygon fill="black" stroke="black" points="73.37,-113.81 64.44,-108.1 67.87,-118.13 73.37,-113.81"/>
<g id="a_edge2&#45;headlabel"><a xlink:href="dir_000062_000000.html" target="_top" xlink:title="3">
<text text-anchor="middle" x="77.82" y="-112.38" font-family="Helvetica,sans-Serif" font-size="10.00">3</text>
</a>
</g>
</g>
<!-- dir_644e041c3a6521da7b27eba0e4eb2b95 -->
<g id="node3" class="node">
<title>dir_644e041c3a6521da7b27eba0e4eb2b95</title>
<g id="a_node3"><a xlink:href="dir_644e041c3a6521da7b27eba0e4eb2b95.html" target="_top" xlink:title="framework">
<polygon fill="white" stroke="red" points="141,-36 71,-36 71,0 141,0 141,-36"/>
<text text-anchor="middle" x="106" y="-15.5" font-family="Helvetica,sans-Serif" font-size="10.00">framework</text>
</a>
</g>
</g>
<!-- dir_e39b3d8a52500e21a177650c0e464c05&#45;&gt;dir_644e041c3a6521da7b27eba0e4eb2b95 -->
<g id="edge3" class="edge">
<title>dir_e39b3d8a52500e21a177650c0e464c05&#45;&gt;dir_644e041c3a6521da7b27eba0e4eb2b95</title>
<path fill="none" stroke="black" d="M106,-143.87C106,-119.67 106,-75.21 106,-46.39"/>
<polygon fill="black" stroke="black" points="109.5,-46.19 106,-36.19 102.5,-46.19 109.5,-46.19"/>
<g id="a_edge3&#45;headlabel"><a xlink:href="dir_000062_000075.html" target="_top" xlink:title="1">
<text text-anchor="middle" x="112.34" y="-47.28" font-family="Helvetica,sans-Serif" font-size="10.00">1</text>
</a>
</g>
</g>
<!-- dir_d10aa5f1e26260a914a037377583e9a7 -->
<g id="node4" class="node">
<title>dir_d10aa5f1e26260a914a037377583e9a7</title>
<g id="a_node4"><a xlink:href="dir_d10aa5f1e26260a914a037377583e9a7.html" target="_top" xlink:title="renderer">
<polygon fill="white" stroke="red" points="192,-108 134,-108 134,-72 192,-72 192,-108"/>
<text text-anchor="middle" x="163" y="-87.5" font-family="Helvetica,sans-Serif" font-size="10.00">renderer</text>
</a>
</g>
</g>
<!-- dir_e39b3d8a52500e21a177650c0e464c05&#45;&gt;dir_d10aa5f1e26260a914a037377583e9a7 -->
<g id="edge4" class="edge">
<title>dir_e39b3d8a52500e21a177650c0e464c05&#45;&gt;dir_d10aa5f1e26260a914a037377583e9a7</title>
<path fill="none" stroke="black" d="M120.09,-143.7C126.92,-135.3 135.26,-125.07 142.76,-115.86"/>
<polygon fill="black" stroke="black" points="145.47,-118.07 149.07,-108.1 140.04,-113.65 145.47,-118.07"/>
<g id="a_edge4&#45;headlabel"><a xlink:href="dir_000062_000079.html" target="_top" xlink:title="5">
<text text-anchor="middle" x="145.4" y="-120.15" font-family="Helvetica,sans-Serif" font-size="10.00">5</text>
</a>
</g>
</g>
<!-- dir_db3a54907829b36871118d03417739cd&#45;&gt;dir_644e041c3a6521da7b27eba0e4eb2b95 -->
<g id="edge1" class="edge">
<title>dir_db3a54907829b36871118d03417739cd&#45;&gt;dir_644e041c3a6521da7b27eba0e4eb2b95</title>
<path fill="none" stroke="black" d="M64.6,-71.7C71.12,-63.39 79.07,-53.28 86.25,-44.14"/>
<polygon fill="black" stroke="black" points="89.13,-46.13 92.56,-36.1 83.63,-41.81 89.13,-46.13"/>
<g id="a_edge1&#45;headlabel"><a xlink:href="dir_000000_000075.html" target="_top" xlink:title="32">
<text text-anchor="middle" x="89.15" y="-48.21" font-family="Helvetica,sans-Serif" font-size="10.00">32</text>
</a>
</g>
</g>
<!-- dir_d10aa5f1e26260a914a037377583e9a7&#45;&gt;dir_644e041c3a6521da7b27eba0e4eb2b95 -->
<g id="edge5" class="edge">
<title>dir_d10aa5f1e26260a914a037377583e9a7&#45;&gt;dir_644e041c3a6521da7b27eba0e4eb2b95</title>
<path fill="none" stroke="black" d="M148.91,-71.7C142.08,-63.3 133.74,-53.07 126.24,-43.86"/>
<polygon fill="black" stroke="black" points="128.96,-41.65 119.93,-36.1 123.53,-46.07 128.96,-41.65"/>
<g id="a_edge5&#45;headlabel"><a xlink:href="dir_000079_000075.html" target="_top" xlink:title="20">
<text text-anchor="middle" x="133.43" y="-40.14" font-family="Helvetica,sans-Serif" font-size="10.00">20</text>
</a>
</g>
</g>
</g>
</svg>
