<?xml version="1.0" encoding="UTF-8" standalone="no"?>
<!DOCTYPE svg PUBLIC "-//W3C//DTD SVG 1.1//EN"
 "http://www.w3.org/Graphics/SVG/1.1/DTD/svg11.dtd">
<!-- Generated by graphviz version 2.40.1 (20161225.0304)
 -->
<!-- Title: /home/ramses/dev/oss&#45;ramses/examples/ramses&#45;example&#45;dcsm&#45;provider/src Pages: 1 -->
<svg width="177pt" height="223pt"
 viewBox="0.00 0.00 177.00 223.00" xmlns="http://www.w3.org/2000/svg" xmlns:xlink="http://www.w3.org/1999/xlink">
<g id="graph0" class="graph" transform="scale(1 1) rotate(0) translate(4 219)">
<title>/home/ramses/dev/oss&#45;ramses/examples/ramses&#45;example&#45;dcsm&#45;provider/src</title>
<polygon fill="#ffffff" stroke="transparent" points="-4,4 -4,-219 173,-219 173,4 -4,4"/>
<g id="clust1" class="cluster">
<title>clusterdir_00193b4cd142851747477b0f5746c5c1</title>
<g id="a_clust1"><a xlink:href="dir_00193b4cd142851747477b0f5746c5c1.html" target="_top" xlink:title="ramses&#45;example&#45;dcsm&#45;provider">
<polygon fill="#ddddee" stroke="#000000" points="8,-136 8,-207 161,-207 161,-136 8,-136"/>
<text text-anchor="middle" x="84.5" y="-195" font-family="Helvetica,sans-Serif" font-size="10.00" fill="#000000">ramses&#45;example&#45;dcsm&#45;provider</text>
</a>
</g>
</g>
<!-- dir_0616aa8d49e2b015a0befe1247fa43a0 -->
<g id="node1" class="node">
<title>dir_0616aa8d49e2b015a0befe1247fa43a0</title>
<g id="a_node1"><a xlink:href="dir_0616aa8d49e2b015a0befe1247fa43a0.html" target="_top" xlink:title="src">
<polygon fill="#eeeeff" stroke="#000000" points="111,-180 57,-180 57,-144 111,-144 111,-180"/>
<text text-anchor="middle" x="84" y="-159.5" font-family="Helvetica,sans-Serif" font-size="10.00" fill="#000000">src</text>
</a>
</g>
</g>
<!-- dir_db3a54907829b36871118d03417739cd -->
<g id="node2" class="node">
<title>dir_db3a54907829b36871118d03417739cd</title>
<g id="a_node2"><a xlink:href="dir_db3a54907829b36871118d03417739cd.html" target="_top" xlink:title="client">
<polygon fill="#ffffff" stroke="#ff0000" points="83,-108 29,-108 29,-72 83,-72 83,-108"/>
<text text-anchor="middle" x="56" y="-87.5" font-family="Helvetica,sans-Serif" font-size="10.00" fill="#000000">client</text>
</a>
</g>
</g>
<!-- dir_0616aa8d49e2b015a0befe1247fa43a0&#45;&gt;dir_db3a54907829b36871118d03417739cd -->
<g id="edge2" class="edge">
<title>dir_0616aa8d49e2b015a0befe1247fa43a0&#45;&gt;dir_db3a54907829b36871118d03417739cd</title>
<path fill="none" stroke="#000000" d="M76.9344,-143.8314C73.874,-135.9617 70.2221,-126.5712 66.8318,-117.8533"/>
<polygon fill="#000000" stroke="#000000" points="70.0473,-116.4647 63.1607,-108.4133 63.5232,-119.0019 70.0473,-116.4647"/>
<g id="a_edge2&#45;headlabel"><a xlink:href="dir_000038_000000.html" target="_top" xlink:title="2">
<text text-anchor="middle" x="73.9963" y="-116.2859" font-family="Helvetica,sans-Serif" font-size="10.00" fill="#000000">2</text>
</a>
</g>
</g>
<!-- dir_644e041c3a6521da7b27eba0e4eb2b95 -->
<g id="node3" class="node">
<title>dir_644e041c3a6521da7b27eba0e4eb2b95</title>
<g id="a_node3"><a xlink:href="dir_644e041c3a6521da7b27eba0e4eb2b95.html" target="_top" xlink:title="framework">
<polygon fill="#ffffff" stroke="#ff0000" points="114,-36 52,-36 52,0 114,0 114,-36"/>
<text text-anchor="middle" x="83" y="-15.5" font-family="Helvetica,sans-Serif" font-size="10.00" fill="#000000">framework</text>
</a>
</g>
</g>
<!-- dir_0616aa8d49e2b015a0befe1247fa43a0&#45;&gt;dir_644e041c3a6521da7b27eba0e4eb2b95 -->
<g id="edge3" class="edge">
<title>dir_0616aa8d49e2b015a0befe1247fa43a0&#45;&gt;dir_644e041c3a6521da7b27eba0e4eb2b95</title>
<path fill="none" stroke="#000000" d="M87.415,-143.5804C89.1709,-133.1767 91.1226,-119.9092 92,-108 93.1756,-92.0432 93.3197,-87.9455 92,-72 91.3055,-63.6085 90.0138,-54.5578 88.6214,-46.3092"/>
<polygon fill="#000000" stroke="#000000" points="92.0544,-45.6235 86.8413,-36.3999 85.1647,-46.8612 92.0544,-45.6235"/>
<g id="a_edge3&#45;headlabel"><a xlink:href="dir_000038_000071.html" target="_top" xlink:title="3">
<text text-anchor="middle" x="95.4844" y="-46.1595" font-family="Helvetica,sans-Serif" font-size="10.00" fill="#000000">3</text>
</a>
</g>
</g>
<!-- dir_db3a54907829b36871118d03417739cd&#45;&gt;dir_644e041c3a6521da7b27eba0e4eb2b95 -->
<g id="edge1" class="edge">
<title>dir_db3a54907829b36871118d03417739cd&#45;&gt;dir_644e041c3a6521da7b27eba0e4eb2b95</title>
<path fill="none" stroke="#000000" d="M62.8132,-71.8314C65.7644,-63.9617 69.2858,-54.5712 72.555,-45.8533"/>
<polygon fill="#000000" stroke="#000000" points="75.8609,-47.0055 76.095,-36.4133 69.3066,-44.5476 75.8609,-47.0055"/>
<g id="a_edge1&#45;headlabel"><a xlink:href="dir_000000_000071.html" target="_top" xlink:title="32">
<text text-anchor="middle" x="77.2573" y="-48.8682" font-family="Helvetica,sans-Serif" font-size="10.00" fill="#000000">32</text>
</a>
</g>
</g>
</g>
</svg>
