<?xml version="1.0" encoding="UTF-8" standalone="no"?>
<!DOCTYPE svg PUBLIC "-//W3C//DTD SVG 1.1//EN"
 "http://www.w3.org/Graphics/SVG/1.1/DTD/svg11.dtd">
<!-- Generated by graphviz version 2.43.0 (0)
 -->
<!-- Title: /c/src/genivi/examples/ramses&#45;example&#45;geometry&#45;instancing/src Pages: 1 -->
<svg width="228pt" height="151pt"
 viewBox="0.00 0.00 228.00 151.00" xmlns="http://www.w3.org/2000/svg" xmlns:xlink="http://www.w3.org/1999/xlink">
<g id="graph0" class="graph" transform="scale(1 1) rotate(0) translate(4 147)">
<title>/c/src/genivi/examples/ramses&#45;example&#45;geometry&#45;instancing/src</title>
<polygon fill="white" stroke="transparent" points="-4,4 -4,-147 224,-147 224,4 -4,4"/>
<g id="clust1" class="cluster">
<title>clusterdir_e9217ec05e7c12872bbae13de43cd00b</title>
<g id="a_clust1"><a xlink:href="dir_e9217ec05e7c12872bbae13de43cd00b.html" target="_top" xlink:title="ramses&#45;example&#45;geometry&#45;instancing">
<polygon fill="#ddddee" stroke="black" points="8,-64 8,-135 212,-135 212,-64 8,-64"/>
<text text-anchor="middle" x="110" y="-123" font-family="Helvetica,sans-Serif" font-size="10.00">ramses&#45;example&#45;geometry&#45;instancing</text>
</a>
</g>
</g>
<!-- dir_6158317bb680026102edd842f412a691 -->
<g id="node1" class="node">
<title>dir_6158317bb680026102edd842f412a691</title>
<g id="a_node1"><a xlink:href="dir_6158317bb680026102edd842f412a691.html" target="_top" xlink:title="src">
<polygon fill="#eeeeff" stroke="black" points="137,-108 83,-108 83,-72 137,-72 137,-108"/>
<text text-anchor="middle" x="110" y="-87.5" font-family="Helvetica,sans-Serif" font-size="10.00">src</text>
</a>
</g>
</g>
<!-- dir_db3a54907829b36871118d03417739cd -->
<g id="node2" class="node">
<title>dir_db3a54907829b36871118d03417739cd</title>
<g id="a_node2"><a xlink:href="dir_db3a54907829b36871118d03417739cd.html" target="_top" xlink:title="client">
<polygon fill="white" stroke="red" points="137,-36 83,-36 83,0 137,0 137,-36"/>
<text text-anchor="middle" x="110" y="-15.5" font-family="Helvetica,sans-Serif" font-size="10.00">client</text>
</a>
</g>
</g>
<!-- dir_6158317bb680026102edd842f412a691&#45;&gt;dir_db3a54907829b36871118d03417739cd -->
<g id="edge1" class="edge">
<title>dir_6158317bb680026102edd842f412a691&#45;&gt;dir_db3a54907829b36871118d03417739cd</title>
<path fill="none" stroke="black" d="M110,-71.7C110,-63.98 110,-54.71 110,-46.11"/>
<polygon fill="black" stroke="black" points="113.5,-46.1 110,-36.1 106.5,-46.1 113.5,-46.1"/>
<g id="a_edge1&#45;headlabel"><a xlink:href="dir_000046_000000.html" target="_top" xlink:title="1">
<text text-anchor="middle" x="116.34" y="-47.2" font-family="Helvetica,sans-Serif" font-size="10.00">1</text>
</a>
</g>
</g>
</g>
</svg>
