<?xml version="1.0" encoding="UTF-8" standalone="no"?>
<!DOCTYPE svg PUBLIC "-//W3C//DTD SVG 1.1//EN"
 "http://www.w3.org/Graphics/SVG/1.1/DTD/svg11.dtd">
<!-- Generated by graphviz version 2.43.0 (0)
 -->
<!-- Title: /c/src/genivi/client/ramses&#45;client/ramses&#45;text&#45;api Pages: 1 -->
<svg width="224pt" height="159pt"
 viewBox="0.00 0.00 224.00 159.00" xmlns="http://www.w3.org/2000/svg" xmlns:xlink="http://www.w3.org/1999/xlink">
<g id="graph0" class="graph" transform="scale(1 1) rotate(0) translate(4 155)">
<title>/c/src/genivi/client/ramses&#45;client/ramses&#45;text&#45;api</title>
<polygon fill="white" stroke="transparent" points="-4,4 -4,-155 220,-155 220,4 -4,4"/>
<g id="clust1" class="cluster">
<title>clusterdir_f7e371792a83b593d696adf03a390bcd</title>
<g id="a_clust1"><a xlink:href="dir_f7e371792a83b593d696adf03a390bcd.html" target="_top" xlink:title="ramses&#45;client">
<polygon fill="#ddddee" stroke="black" points="8,-56 8,-143 208,-143 208,-56 8,-56"/>
<text text-anchor="middle" x="108" y="-131" font-family="Helvetica,sans-Serif" font-size="10.00">ramses&#45;client</text>
</a>
</g>
</g>
<g id="clust2" class="cluster">
<title>clusterdir_c37235460572b2f956c36c1f12857f9c</title>
<g id="a_clust2"><a xlink:href="dir_c37235460572b2f956c36c1f12857f9c.html" target="_top">
<polygon fill="#eeeeff" stroke="black" points="16,-64 16,-116 200,-116 200,-64 16,-64"/>
</a>
</g>
</g>
<!-- dir_c37235460572b2f956c36c1f12857f9c -->
<g id="node1" class="node">
<title>dir_c37235460572b2f956c36c1f12857f9c</title>
<text text-anchor="middle" x="144" y="-87.5" font-family="Helvetica,sans-Serif" font-size="10.00">ramses&#45;text&#45;api</text>
</g>
<!-- dir_ea6c988c2a9c42d43164bfca56eb48e0 -->
<g id="node2" class="node">
<title>dir_ea6c988c2a9c42d43164bfca56eb48e0</title>
<g id="a_node2"><a xlink:href="dir_ea6c988c2a9c42d43164bfca56eb48e0.html" target="_top" xlink:title="include">
<polygon fill="white" stroke="red" points="78,-108 24,-108 24,-72 78,-72 78,-108"/>
<text text-anchor="middle" x="51" y="-87.5" font-family="Helvetica,sans-Serif" font-size="10.00">include</text>
</a>
</g>
</g>
<!-- dir_644e041c3a6521da7b27eba0e4eb2b95 -->
<g id="node3" class="node">
<title>dir_644e041c3a6521da7b27eba0e4eb2b95</title>
<g id="a_node3"><a xlink:href="dir_644e041c3a6521da7b27eba0e4eb2b95.html" target="_top" xlink:title="framework">
<polygon fill="white" stroke="red" points="86,-36 16,-36 16,0 86,0 86,-36"/>
<text text-anchor="middle" x="51" y="-15.5" font-family="Helvetica,sans-Serif" font-size="10.00">framework</text>
</a>
</g>
</g>
<!-- dir_ea6c988c2a9c42d43164bfca56eb48e0&#45;&gt;dir_644e041c3a6521da7b27eba0e4eb2b95 -->
<g id="edge1" class="edge">
<title>dir_ea6c988c2a9c42d43164bfca56eb48e0&#45;&gt;dir_644e041c3a6521da7b27eba0e4eb2b95</title>
<path fill="none" stroke="black" d="M51,-71.7C51,-63.98 51,-54.71 51,-46.11"/>
<polygon fill="black" stroke="black" points="54.5,-46.1 51,-36.1 47.5,-46.1 54.5,-46.1"/>
<g id="a_edge1&#45;headlabel"><a xlink:href="dir_000006_000075.html" target="_top" xlink:title="3">
<text text-anchor="middle" x="57.34" y="-47.2" font-family="Helvetica,sans-Serif" font-size="10.00">3</text>
</a>
</g>
</g>
</g>
</svg>
