<?xml version="1.0" encoding="UTF-8" standalone="no"?>
<!DOCTYPE svg PUBLIC "-//W3C//DTD SVG 1.1//EN"
 "http://www.w3.org/Graphics/SVG/1.1/DTD/svg11.dtd">
<!-- Generated by graphviz version 2.43.0 (0)
 -->
<!-- Title: /home/runner/work/ramses/ramses/examples/ramses&#45;example&#45;local&#45;scene&#45;referencing Pages: 1 -->
<svg width="359pt" height="159pt"
 viewBox="0.00 0.00 359.00 159.00" xmlns="http://www.w3.org/2000/svg" xmlns:xlink="http://www.w3.org/1999/xlink">
<g id="graph0" class="graph" transform="scale(1 1) rotate(0) translate(4 155)">
<title>/home/runner/work/ramses/ramses/examples/ramses&#45;example&#45;local&#45;scene&#45;referencing</title>
<polygon fill="white" stroke="transparent" points="-4,4 -4,-155 355,-155 355,4 -4,4"/>
<g id="clust1" class="cluster">
<title>clusterdir_98010d7d16e66236fc0a724a9f75a528</title>
<g id="a_clust1"><a xlink:href="dir_98010d7d16e66236fc0a724a9f75a528.html" target="_top" xlink:title="examples">
<polygon fill="#ddddee" stroke="black" points="21,-56 21,-143 343,-143 343,-56 21,-56"/>
<text text-anchor="middle" x="182" y="-131" font-family="Helvetica,sans-Serif" font-size="10.00">examples</text>
</a>
</g>
</g>
<g id="clust2" class="cluster">
<title>clusterdir_d2d28bbd44dfb0e4d3f54d3da9b7f363</title>
<g id="a_clust2"><a xlink:href="dir_d2d28bbd44dfb0e4d3f54d3da9b7f363.html" target="_top">
<polygon fill="#eeeeff" stroke="black" points="29,-64 29,-116 335,-116 335,-64 29,-64"/>
</a>
</g>
</g>
<!-- dir_d2d28bbd44dfb0e4d3f54d3da9b7f363 -->
<g id="node1" class="node">
<title>dir_d2d28bbd44dfb0e4d3f54d3da9b7f363</title>
<text text-anchor="middle" x="218" y="-87.5" font-family="Helvetica,sans-Serif" font-size="10.00">ramses&#45;example&#45;local&#45;scene&#45;referencing</text>
</g>
<!-- dir_6da4d8dbc1398573b19364573c269ffb -->
<g id="node2" class="node">
<title>dir_6da4d8dbc1398573b19364573c269ffb</title>
<g id="a_node2"><a xlink:href="dir_6da4d8dbc1398573b19364573c269ffb.html" target="_top" xlink:title="src">
<polygon fill="white" stroke="black" points="91,-108 37,-108 37,-72 91,-72 91,-108"/>
<text text-anchor="middle" x="64" y="-87.5" font-family="Helvetica,sans-Serif" font-size="10.00">src</text>
</a>
</g>
</g>
<!-- dir_26af246848702a33262a7ef2acf92491 -->
<g id="node3" class="node">
<title>dir_26af246848702a33262a7ef2acf92491</title>
<g id="a_node3"><a xlink:href="dir_26af246848702a33262a7ef2acf92491.html" target="_top" xlink:title="client">
<polygon fill="white" stroke="red" points="54,-36 0,-36 0,0 54,0 54,-36"/>
<text text-anchor="middle" x="27" y="-15.5" font-family="Helvetica,sans-Serif" font-size="10.00">client</text>
</a>
</g>
</g>
<!-- dir_6da4d8dbc1398573b19364573c269ffb&#45;&gt;dir_26af246848702a33262a7ef2acf92491 -->
<g id="edge1" class="edge">
<title>dir_6da4d8dbc1398573b19364573c269ffb&#45;&gt;dir_26af246848702a33262a7ef2acf92491</title>
<path fill="none" stroke="black" d="M54.85,-71.7C50.6,-63.64 45.44,-53.89 40.73,-44.98"/>
<polygon fill="black" stroke="black" points="43.81,-43.31 36.04,-36.1 37.62,-46.58 43.81,-43.31"/>
<g id="a_edge1&#45;headlabel"><a xlink:href="dir_000068_000001.html" target="_top" xlink:title="3">
<text text-anchor="middle" x="48" y="-42.66" font-family="Helvetica,sans-Serif" font-size="10.00">3</text>
</a>
</g>
</g>
<!-- dir_4797b4e6785279b55036fb4e0c62a1b2 -->
<g id="node4" class="node">
<title>dir_4797b4e6785279b55036fb4e0c62a1b2</title>
<g id="a_node4"><a xlink:href="dir_4797b4e6785279b55036fb4e0c62a1b2.html" target="_top" xlink:title="renderer">
<polygon fill="white" stroke="red" points="130,-36 72,-36 72,0 130,0 130,-36"/>
<text text-anchor="middle" x="101" y="-15.5" font-family="Helvetica,sans-Serif" font-size="10.00">renderer</text>
</a>
</g>
</g>
<!-- dir_6da4d8dbc1398573b19364573c269ffb&#45;&gt;dir_4797b4e6785279b55036fb4e0c62a1b2 -->
<g id="edge2" class="edge">
<title>dir_6da4d8dbc1398573b19364573c269ffb&#45;&gt;dir_4797b4e6785279b55036fb4e0c62a1b2</title>
<path fill="none" stroke="black" d="M73.15,-71.7C77.4,-63.64 82.56,-53.89 87.27,-44.98"/>
<polygon fill="black" stroke="black" points="90.38,-46.58 91.96,-36.1 84.19,-43.31 90.38,-46.58"/>
<g id="a_edge2&#45;headlabel"><a xlink:href="dir_000068_000083.html" target="_top" xlink:title="4">
<text text-anchor="middle" x="91.21" y="-48.59" font-family="Helvetica,sans-Serif" font-size="10.00">4</text>
</a>
</g>
</g>
</g>
</svg>
