<?xml version="1.0" encoding="UTF-8" standalone="no"?>
<!DOCTYPE svg PUBLIC "-//W3C//DTD SVG 1.1//EN"
 "http://www.w3.org/Graphics/SVG/1.1/DTD/svg11.dtd">
<!-- Generated by graphviz version 2.43.0 (0)
 -->
<!-- Title: /home/q479098/src/mirror/examples/ramses&#45;example&#45;basic&#45;effect&#45;from&#45;glsl Pages: 1 -->
<svg width="336pt" height="159pt"
 viewBox="0.00 0.00 336.00 159.00" xmlns="http://www.w3.org/2000/svg" xmlns:xlink="http://www.w3.org/1999/xlink">
<g id="graph0" class="graph" transform="scale(1 1) rotate(0) translate(4 155)">
<title>/home/q479098/src/mirror/examples/ramses&#45;example&#45;basic&#45;effect&#45;from&#45;glsl</title>
<polygon fill="white" stroke="transparent" points="-4,4 -4,-155 332,-155 332,4 -4,4"/>
<g id="clust1" class="cluster">
<title>clusterdir_d28a4824dc47e487b107a5db32ef43c4</title>
<g id="a_clust1"><a xlink:href="dir_d28a4824dc47e487b107a5db32ef43c4.html" target="_top" xlink:title="examples">
<polygon fill="#ddddee" stroke="black" points="8,-56 8,-143 320,-143 320,-56 8,-56"/>
<text text-anchor="middle" x="164" y="-131" font-family="Helvetica,sans-Serif" font-size="10.00">examples</text>
</a>
</g>
</g>
<g id="clust2" class="cluster">
<title>clusterdir_931dd99f20da74815a53dea360b95c26</title>
<g id="a_clust2"><a xlink:href="dir_931dd99f20da74815a53dea360b95c26.html" target="_top">
<polygon fill="#eeeeff" stroke="black" points="16,-64 16,-116 312,-116 312,-64 16,-64"/>
</a>
</g>
</g>
<!-- dir_931dd99f20da74815a53dea360b95c26 -->
<g id="node1" class="node">
<title>dir_931dd99f20da74815a53dea360b95c26</title>
<text text-anchor="middle" x="200" y="-87.5" font-family="Helvetica,sans-Serif" font-size="10.00">ramses&#45;example&#45;basic&#45;effect&#45;from&#45;glsl</text>
</g>
<!-- dir_e89cd46bb732eb3d32dfa1440d6475cb -->
<g id="node2" class="node">
<title>dir_e89cd46bb732eb3d32dfa1440d6475cb</title>
<g id="a_node2"><a xlink:href="dir_e89cd46bb732eb3d32dfa1440d6475cb.html" target="_top" xlink:title="src">
<polygon fill="white" stroke="black" points="78,-108 24,-108 24,-72 78,-72 78,-108"/>
<text text-anchor="middle" x="51" y="-87.5" font-family="Helvetica,sans-Serif" font-size="10.00">src</text>
</a>
</g>
</g>
<!-- dir_db3a54907829b36871118d03417739cd -->
<g id="node3" class="node">
<title>dir_db3a54907829b36871118d03417739cd</title>
<g id="a_node3"><a xlink:href="dir_db3a54907829b36871118d03417739cd.html" target="_top" xlink:title="client">
<polygon fill="white" stroke="red" points="78,-36 24,-36 24,0 78,0 78,-36"/>
<text text-anchor="middle" x="51" y="-15.5" font-family="Helvetica,sans-Serif" font-size="10.00">client</text>
</a>
</g>
</g>
<!-- dir_e89cd46bb732eb3d32dfa1440d6475cb&#45;&gt;dir_db3a54907829b36871118d03417739cd -->
<g id="edge1" class="edge">
<title>dir_e89cd46bb732eb3d32dfa1440d6475cb&#45;&gt;dir_db3a54907829b36871118d03417739cd</title>
<path fill="none" stroke="black" d="M51,-71.7C51,-63.98 51,-54.71 51,-46.11"/>
<polygon fill="black" stroke="black" points="54.5,-46.1 51,-36.1 47.5,-46.1 54.5,-46.1"/>
<g id="a_edge1&#45;headlabel"><a xlink:href="dir_000024_000000.html" target="_top" xlink:title="1">
<text text-anchor="middle" x="57.34" y="-47.2" font-family="Helvetica,sans-Serif" font-size="10.00">1</text>
</a>
</g>
</g>
</g>
</svg>
