<?xml version="1.0" encoding="UTF-8" standalone="no"?>
<!DOCTYPE svg PUBLIC "-//W3C//DTD SVG 1.1//EN"
 "http://www.w3.org/Graphics/SVG/1.1/DTD/svg11.dtd">
<!-- Generated by graphviz version 2.40.1 (20161225.0304)
 -->
<!-- Title: /home/ramses/dev/oss&#45;ramses/examples/ramses&#45;example&#45;text&#45;basic/src Pages: 1 -->
<svg width="158pt" height="151pt"
 viewBox="0.00 0.00 158.00 151.00" xmlns="http://www.w3.org/2000/svg" xmlns:xlink="http://www.w3.org/1999/xlink">
<g id="graph0" class="graph" transform="scale(1 1) rotate(0) translate(4 147)">
<title>/home/ramses/dev/oss&#45;ramses/examples/ramses&#45;example&#45;text&#45;basic/src</title>
<polygon fill="#ffffff" stroke="transparent" points="-4,4 -4,-147 154,-147 154,4 -4,4"/>
<g id="clust1" class="cluster">
<title>clusterdir_0379f8901090b45f16de50b3dcc979d8</title>
<g id="a_clust1"><a xlink:href="dir_0379f8901090b45f16de50b3dcc979d8.html" target="_top" xlink:title="ramses&#45;example&#45;text&#45;basic">
<polygon fill="#ddddee" stroke="#000000" points="8,-64 8,-135 142,-135 142,-64 8,-64"/>
<text text-anchor="middle" x="75" y="-123" font-family="Helvetica,sans-Serif" font-size="10.00" fill="#000000">ramses&#45;example&#45;text&#45;basic</text>
</a>
</g>
</g>
<!-- dir_e87ee74889a959629724d23d2ab3a72f -->
<g id="node1" class="node">
<title>dir_e87ee74889a959629724d23d2ab3a72f</title>
<g id="a_node1"><a xlink:href="dir_e87ee74889a959629724d23d2ab3a72f.html" target="_top" xlink:title="src">
<polygon fill="#eeeeff" stroke="#000000" points="102,-108 48,-108 48,-72 102,-72 102,-108"/>
<text text-anchor="middle" x="75" y="-87.5" font-family="Helvetica,sans-Serif" font-size="10.00" fill="#000000">src</text>
</a>
</g>
</g>
<!-- dir_db3a54907829b36871118d03417739cd -->
<g id="node2" class="node">
<title>dir_db3a54907829b36871118d03417739cd</title>
<g id="a_node2"><a xlink:href="dir_db3a54907829b36871118d03417739cd.html" target="_top" xlink:title="client">
<polygon fill="#ffffff" stroke="#ff0000" points="102,-36 48,-36 48,0 102,0 102,-36"/>
<text text-anchor="middle" x="75" y="-15.5" font-family="Helvetica,sans-Serif" font-size="10.00" fill="#000000">client</text>
</a>
</g>
</g>
<!-- dir_e87ee74889a959629724d23d2ab3a72f&#45;&gt;dir_db3a54907829b36871118d03417739cd -->
<g id="edge1" class="edge">
<title>dir_e87ee74889a959629724d23d2ab3a72f&#45;&gt;dir_db3a54907829b36871118d03417739cd</title>
<path fill="none" stroke="#000000" d="M75,-71.8314C75,-64.131 75,-54.9743 75,-46.4166"/>
<polygon fill="#000000" stroke="#000000" points="78.5001,-46.4132 75,-36.4133 71.5001,-46.4133 78.5001,-46.4132"/>
<g id="a_edge1&#45;headlabel"><a xlink:href="dir_000066_000000.html" target="_top" xlink:title="3">
<text text-anchor="middle" x="81.3393" y="-47.5079" font-family="Helvetica,sans-Serif" font-size="10.00" fill="#000000">3</text>
</a>
</g>
</g>
</g>
</svg>
