<?xml version="1.0" encoding="UTF-8" standalone="no"?>
<!DOCTYPE svg PUBLIC "-//W3C//DTD SVG 1.1//EN"
 "http://www.w3.org/Graphics/SVG/1.1/DTD/svg11.dtd">
<!-- Generated by graphviz version 2.40.1 (20161225.0304)
 -->
<!-- Title: /home/ramses/dev/oss&#45;ramses/renderer Pages: 1 -->
<svg width="182pt" height="132pt"
 viewBox="0.00 0.00 182.00 132.00" xmlns="http://www.w3.org/2000/svg" xmlns:xlink="http://www.w3.org/1999/xlink">
<g id="graph0" class="graph" transform="scale(1 1) rotate(0) translate(4 128)">
<title>/home/ramses/dev/oss&#45;ramses/renderer</title>
<polygon fill="#ffffff" stroke="transparent" points="-4,4 -4,-128 178,-128 178,4 -4,4"/>
<g id="clust1" class="cluster">
<title>clusterdir_d10aa5f1e26260a914a037377583e9a7</title>
<g id="a_clust1"><a xlink:href="dir_d10aa5f1e26260a914a037377583e9a7.html" target="_top">
<polygon fill="#eeeeff" stroke="#000000" points="8,-64 8,-116 166,-116 166,-64 8,-64"/>
</a>
</g>
</g>
<!-- dir_d10aa5f1e26260a914a037377583e9a7 -->
<g id="node1" class="node">
<title>dir_d10aa5f1e26260a914a037377583e9a7</title>
<text text-anchor="middle" x="131" y="-87.5" font-family="Helvetica,sans-Serif" font-size="10.00" fill="#000000">renderer</text>
</g>
<!-- dir_aee356b367087b2229dfaa1d8a1e1cf3 -->
<g id="node2" class="node">
<title>dir_aee356b367087b2229dfaa1d8a1e1cf3</title>
<g id="a_node2"><a xlink:href="dir_aee356b367087b2229dfaa1d8a1e1cf3.html" target="_top" xlink:title="RendererLib">
<polygon fill="#ffffff" stroke="#ff0000" points="85.5,-108 16.5,-108 16.5,-72 85.5,-72 85.5,-108"/>
<text text-anchor="middle" x="51" y="-87.5" font-family="Helvetica,sans-Serif" font-size="10.00" fill="#000000">RendererLib</text>
</a>
</g>
</g>
<!-- dir_644e041c3a6521da7b27eba0e4eb2b95 -->
<g id="node3" class="node">
<title>dir_644e041c3a6521da7b27eba0e4eb2b95</title>
<g id="a_node3"><a xlink:href="dir_644e041c3a6521da7b27eba0e4eb2b95.html" target="_top" xlink:title="framework">
<polygon fill="#ffffff" stroke="#ff0000" points="82,-36 20,-36 20,0 82,0 82,-36"/>
<text text-anchor="middle" x="51" y="-15.5" font-family="Helvetica,sans-Serif" font-size="10.00" fill="#000000">framework</text>
</a>
</g>
</g>
<!-- dir_aee356b367087b2229dfaa1d8a1e1cf3&#45;&gt;dir_644e041c3a6521da7b27eba0e4eb2b95 -->
<g id="edge1" class="edge">
<title>dir_aee356b367087b2229dfaa1d8a1e1cf3&#45;&gt;dir_644e041c3a6521da7b27eba0e4eb2b95</title>
<path fill="none" stroke="#000000" d="M51,-71.8314C51,-64.131 51,-54.9743 51,-46.4166"/>
<polygon fill="#000000" stroke="#000000" points="54.5001,-46.4132 51,-36.4133 47.5001,-46.4133 54.5001,-46.4132"/>
<g id="a_edge1&#45;headlabel"><a xlink:href="dir_000074_000069.html" target="_top" xlink:title="20">
<text text-anchor="middle" x="57.3393" y="-47.5079" font-family="Helvetica,sans-Serif" font-size="10.00" fill="#000000">20</text>
</a>
</g>
</g>
</g>
</svg>
