<?xml version="1.0" encoding="UTF-8" standalone="no"?>
<!DOCTYPE svg PUBLIC "-//W3C//DTD SVG 1.1//EN"
 "http://www.w3.org/Graphics/SVG/1.1/DTD/svg11.dtd">
<!-- Generated by graphviz version 2.43.0 (0)
 -->
<!-- Title: /home/q479079/sources/ramses&#45;oss/examples/ramses&#45;example&#45;dcsm&#45;provider/src Pages: 1 -->
<svg width="197pt" height="223pt"
 viewBox="0.00 0.00 197.00 223.00" xmlns="http://www.w3.org/2000/svg" xmlns:xlink="http://www.w3.org/1999/xlink">
<g id="graph0" class="graph" transform="scale(1 1) rotate(0) translate(4 219)">
<title>/home/q479079/sources/ramses&#45;oss/examples/ramses&#45;example&#45;dcsm&#45;provider/src</title>
<polygon fill="white" stroke="transparent" points="-4,4 -4,-219 193,-219 193,4 -4,4"/>
<g id="clust1" class="cluster">
<title>clusterdir_00193b4cd142851747477b0f5746c5c1</title>
<g id="a_clust1"><a xlink:href="dir_00193b4cd142851747477b0f5746c5c1.html" target="_top" xlink:title="ramses&#45;example&#45;dcsm&#45;provider">
<polygon fill="#ddddee" stroke="black" points="8,-136 8,-207 181,-207 181,-136 8,-136"/>
<text text-anchor="middle" x="94.5" y="-195" font-family="Helvetica,sans-Serif" font-size="10.00">ramses&#45;example&#45;dcsm&#45;provider</text>
</a>
</g>
</g>
<!-- dir_0616aa8d49e2b015a0befe1247fa43a0 -->
<g id="node1" class="node">
<title>dir_0616aa8d49e2b015a0befe1247fa43a0</title>
<g id="a_node1"><a xlink:href="dir_0616aa8d49e2b015a0befe1247fa43a0.html" target="_top" xlink:title="src">
<polygon fill="#eeeeff" stroke="black" points="121,-180 67,-180 67,-144 121,-144 121,-180"/>
<text text-anchor="middle" x="94" y="-159.5" font-family="Helvetica,sans-Serif" font-size="10.00">src</text>
</a>
</g>
</g>
<!-- dir_db3a54907829b36871118d03417739cd -->
<g id="node2" class="node">
<title>dir_db3a54907829b36871118d03417739cd</title>
<g id="a_node2"><a xlink:href="dir_db3a54907829b36871118d03417739cd.html" target="_top" xlink:title="client">
<polygon fill="white" stroke="red" points="93,-108 39,-108 39,-72 93,-72 93,-108"/>
<text text-anchor="middle" x="66" y="-87.5" font-family="Helvetica,sans-Serif" font-size="10.00">client</text>
</a>
</g>
</g>
<!-- dir_0616aa8d49e2b015a0befe1247fa43a0&#45;&gt;dir_db3a54907829b36871118d03417739cd -->
<g id="edge2" class="edge">
<title>dir_0616aa8d49e2b015a0befe1247fa43a0&#45;&gt;dir_db3a54907829b36871118d03417739cd</title>
<path fill="none" stroke="black" d="M87.08,-143.7C83.93,-135.81 80.12,-126.3 76.62,-117.55"/>
<polygon fill="black" stroke="black" points="79.81,-116.09 72.84,-108.1 73.31,-118.69 79.81,-116.09"/>
<g id="a_edge2&#45;headlabel"><a xlink:href="dir_000044_000000.html" target="_top" xlink:title="2">
<text text-anchor="middle" x="83.78" y="-115.87" font-family="Helvetica,sans-Serif" font-size="10.00">2</text>
</a>
</g>
</g>
<!-- dir_644e041c3a6521da7b27eba0e4eb2b95 -->
<g id="node3" class="node">
<title>dir_644e041c3a6521da7b27eba0e4eb2b95</title>
<g id="a_node3"><a xlink:href="dir_644e041c3a6521da7b27eba0e4eb2b95.html" target="_top" xlink:title="framework">
<polygon fill="white" stroke="red" points="128,-36 58,-36 58,0 128,0 128,-36"/>
<text text-anchor="middle" x="93" y="-15.5" font-family="Helvetica,sans-Serif" font-size="10.00">framework</text>
</a>
</g>
</g>
<!-- dir_0616aa8d49e2b015a0befe1247fa43a0&#45;&gt;dir_644e041c3a6521da7b27eba0e4eb2b95 -->
<g id="edge3" class="edge">
<title>dir_0616aa8d49e2b015a0befe1247fa43a0&#45;&gt;dir_644e041c3a6521da7b27eba0e4eb2b95</title>
<path fill="none" stroke="black" d="M97.25,-143.89C99.05,-133.54 101.09,-120.06 102,-108 103.2,-92.04 103.34,-87.94 102,-72 101.28,-63.5 99.93,-54.31 98.49,-46.01"/>
<polygon fill="black" stroke="black" points="101.91,-45.29 96.65,-36.09 95.03,-46.56 101.91,-45.29"/>
<g id="a_edge3&#45;headlabel"><a xlink:href="dir_000044_000075.html" target="_top" xlink:title="3">
<text text-anchor="middle" x="105.36" y="-45.81" font-family="Helvetica,sans-Serif" font-size="10.00">3</text>
</a>
</g>
</g>
<!-- dir_db3a54907829b36871118d03417739cd&#45;&gt;dir_644e041c3a6521da7b27eba0e4eb2b95 -->
<g id="edge1" class="edge">
<title>dir_db3a54907829b36871118d03417739cd&#45;&gt;dir_644e041c3a6521da7b27eba0e4eb2b95</title>
<path fill="none" stroke="black" d="M72.67,-71.7C75.71,-63.81 79.38,-54.3 82.76,-45.55"/>
<polygon fill="black" stroke="black" points="86.07,-46.69 86.4,-36.1 79.54,-44.17 86.07,-46.69"/>
<g id="a_edge1&#45;headlabel"><a xlink:href="dir_000000_000075.html" target="_top" xlink:title="32">
<text text-anchor="middle" x="87.42" y="-48.57" font-family="Helvetica,sans-Serif" font-size="10.00">32</text>
</a>
</g>
</g>
</g>
</svg>
