<?xml version="1.0" encoding="UTF-8" standalone="no"?>
<!DOCTYPE svg PUBLIC "-//W3C//DTD SVG 1.1//EN"
 "http://www.w3.org/Graphics/SVG/1.1/DTD/svg11.dtd">
<!-- Generated by graphviz version 2.40.1 (20161225.0304)
 -->
<!-- Title: /home/ramses/dev/oss&#45;ramses/client/ramses&#45;client/ramses&#45;client&#45;api/include Pages: 1 -->
<svg width="148pt" height="231pt"
 viewBox="0.00 0.00 148.00 231.00" xmlns="http://www.w3.org/2000/svg" xmlns:xlink="http://www.w3.org/1999/xlink">
<g id="graph0" class="graph" transform="scale(1 1) rotate(0) translate(4 227)">
<title>/home/ramses/dev/oss&#45;ramses/client/ramses&#45;client/ramses&#45;client&#45;api/include</title>
<polygon fill="#ffffff" stroke="transparent" points="-4,4 -4,-227 144,-227 144,4 -4,4"/>
<g id="clust1" class="cluster">
<title>clusterdir_cc246b20a110ebb5f4d3465125b42565</title>
<g id="a_clust1"><a xlink:href="dir_cc246b20a110ebb5f4d3465125b42565.html" target="_top" xlink:title="ramses&#45;client&#45;api">
<polygon fill="#ddddee" stroke="#000000" points="8,-56 8,-215 132,-215 132,-56 8,-56"/>
<text text-anchor="middle" x="70" y="-203" font-family="Helvetica,sans-Serif" font-size="10.00" fill="#000000">ramses&#45;client&#45;api</text>
</a>
</g>
</g>
<g id="clust2" class="cluster">
<title>clusterdir_f754caf7c3966a66478024502bacc1f2</title>
<g id="a_clust2"><a xlink:href="dir_f754caf7c3966a66478024502bacc1f2.html" target="_top">
<polygon fill="#eeeeff" stroke="#000000" points="16,-64 16,-188 124,-188 124,-64 16,-64"/>
</a>
</g>
</g>
<!-- dir_f754caf7c3966a66478024502bacc1f2 -->
<g id="node1" class="node">
<title>dir_f754caf7c3966a66478024502bacc1f2</title>
<text text-anchor="middle" x="79" y="-159.5" font-family="Helvetica,sans-Serif" font-size="10.00" fill="#000000">include</text>
</g>
<!-- dir_060f19e5ca0ea77ab5b4569579dc76e9 -->
<g id="node2" class="node">
<title>dir_060f19e5ca0ea77ab5b4569579dc76e9</title>
<g id="a_node2"><a xlink:href="dir_060f19e5ca0ea77ab5b4569579dc76e9.html" target="_top" xlink:title="ramses&#45;client&#45;api">
<polygon fill="#ffffff" stroke="#000000" points="115.5,-108 24.5,-108 24.5,-72 115.5,-72 115.5,-108"/>
<text text-anchor="middle" x="70" y="-87.5" font-family="Helvetica,sans-Serif" font-size="10.00" fill="#000000">ramses&#45;client&#45;api</text>
</a>
</g>
</g>
<!-- dir_f754caf7c3966a66478024502bacc1f2&#45;&gt;dir_060f19e5ca0ea77ab5b4569579dc76e9 -->
<g id="edge3" class="edge">
<title>dir_f754caf7c3966a66478024502bacc1f2&#45;&gt;dir_060f19e5ca0ea77ab5b4569579dc76e9</title>
<path fill="none" stroke="#000000" d="M76.7289,-143.8314C75.7664,-136.131 74.6218,-126.9743 73.5521,-118.4166"/>
<polygon fill="#000000" stroke="#000000" points="77.0151,-117.9019 72.3017,-108.4133 70.0691,-118.7702 77.0151,-117.9019"/>
<g id="a_edge3&#45;headlabel"><a xlink:href="dir_000003_000004.html" target="_top" xlink:title="79">
<text text-anchor="middle" x="80.2782" y="-118.6166" font-family="Helvetica,sans-Serif" font-size="10.00" fill="#000000">79</text>
</a>
</g>
</g>
<!-- dir_644e041c3a6521da7b27eba0e4eb2b95 -->
<g id="node3" class="node">
<title>dir_644e041c3a6521da7b27eba0e4eb2b95</title>
<g id="a_node3"><a xlink:href="dir_644e041c3a6521da7b27eba0e4eb2b95.html" target="_top" xlink:title="framework">
<polygon fill="#ffffff" stroke="#ff0000" points="138,-36 76,-36 76,0 138,0 138,-36"/>
<text text-anchor="middle" x="107" y="-15.5" font-family="Helvetica,sans-Serif" font-size="10.00" fill="#000000">framework</text>
</a>
</g>
</g>
<!-- dir_f754caf7c3966a66478024502bacc1f2&#45;&gt;dir_644e041c3a6521da7b27eba0e4eb2b95 -->
<g id="edge2" class="edge">
<title>dir_f754caf7c3966a66478024502bacc1f2&#45;&gt;dir_644e041c3a6521da7b27eba0e4eb2b95</title>
<path fill="none" stroke="#000000" d="M100.3127,-143.7308C109.8134,-134.1756 119.979,-121.6372 125,-108 132.9852,-86.3122 130.0703,-78.5481 125,-56 124.2238,-52.548 123.0962,-49.041 121.7782,-45.6236"/>
<polygon fill="#000000" stroke="#000000" points="124.9273,-44.09 117.693,-36.3495 118.5213,-46.9119 124.9273,-44.09"/>
<g id="a_edge2&#45;headlabel"><a xlink:href="dir_000003_000069.html" target="_top" xlink:title="29">
<text text-anchor="middle" x="128.9747" y="-43.7351" font-family="Helvetica,sans-Serif" font-size="10.00" fill="#000000">29</text>
</a>
</g>
</g>
<!-- dir_060f19e5ca0ea77ab5b4569579dc76e9&#45;&gt;dir_644e041c3a6521da7b27eba0e4eb2b95 -->
<g id="edge1" class="edge">
<title>dir_060f19e5ca0ea77ab5b4569579dc76e9&#45;&gt;dir_644e041c3a6521da7b27eba0e4eb2b95</title>
<path fill="none" stroke="#000000" d="M79.3367,-71.8314C83.4243,-63.8771 88.3104,-54.369 92.8309,-45.5723"/>
<polygon fill="#000000" stroke="#000000" points="96.0799,-46.9074 97.5376,-36.4133 89.8539,-43.7078 96.0799,-46.9074"/>
<g id="a_edge1&#45;headlabel"><a xlink:href="dir_000004_000069.html" target="_top" xlink:title="26">
<text text-anchor="middle" x="96.9623" y="-48.9022" font-family="Helvetica,sans-Serif" font-size="10.00" fill="#000000">26</text>
</a>
</g>
</g>
</g>
</svg>
