<?xml version="1.0" encoding="UTF-8" standalone="no"?>
<!DOCTYPE svg PUBLIC "-//W3C//DTD SVG 1.1//EN"
 "http://www.w3.org/Graphics/SVG/1.1/DTD/svg11.dtd">
<!-- Generated by graphviz version 2.43.0 (0)
 -->
<!-- Title: /c/src/mirror/renderer Pages: 1 -->
<svg width="190pt" height="132pt"
 viewBox="0.00 0.00 190.00 132.00" xmlns="http://www.w3.org/2000/svg" xmlns:xlink="http://www.w3.org/1999/xlink">
<g id="graph0" class="graph" transform="scale(1 1) rotate(0) translate(4 128)">
<title>/c/src/mirror/renderer</title>
<polygon fill="white" stroke="transparent" points="-4,4 -4,-128 186,-128 186,4 -4,4"/>
<g id="clust1" class="cluster">
<title>clusterdir_d10aa5f1e26260a914a037377583e9a7</title>
<g id="a_clust1"><a xlink:href="dir_d10aa5f1e26260a914a037377583e9a7.html" target="_top">
<polygon fill="#eeeeff" stroke="black" points="8,-64 8,-116 174,-116 174,-64 8,-64"/>
</a>
</g>
</g>
<!-- dir_d10aa5f1e26260a914a037377583e9a7 -->
<g id="node1" class="node">
<title>dir_d10aa5f1e26260a914a037377583e9a7</title>
<text text-anchor="middle" x="137" y="-87.5" font-family="Helvetica,sans-Serif" font-size="10.00">renderer</text>
</g>
<!-- dir_aee356b367087b2229dfaa1d8a1e1cf3 -->
<g id="node2" class="node">
<title>dir_aee356b367087b2229dfaa1d8a1e1cf3</title>
<g id="a_node2"><a xlink:href="dir_aee356b367087b2229dfaa1d8a1e1cf3.html" target="_top" xlink:title="RendererLib">
<polygon fill="white" stroke="red" points="90.5,-108 15.5,-108 15.5,-72 90.5,-72 90.5,-108"/>
<text text-anchor="middle" x="53" y="-87.5" font-family="Helvetica,sans-Serif" font-size="10.00">RendererLib</text>
</a>
</g>
</g>
<!-- dir_644e041c3a6521da7b27eba0e4eb2b95 -->
<g id="node3" class="node">
<title>dir_644e041c3a6521da7b27eba0e4eb2b95</title>
<g id="a_node3"><a xlink:href="dir_644e041c3a6521da7b27eba0e4eb2b95.html" target="_top" xlink:title="framework">
<polygon fill="white" stroke="red" points="88,-36 18,-36 18,0 88,0 88,-36"/>
<text text-anchor="middle" x="53" y="-15.5" font-family="Helvetica,sans-Serif" font-size="10.00">framework</text>
</a>
</g>
</g>
<!-- dir_aee356b367087b2229dfaa1d8a1e1cf3&#45;&gt;dir_644e041c3a6521da7b27eba0e4eb2b95 -->
<g id="edge1" class="edge">
<title>dir_aee356b367087b2229dfaa1d8a1e1cf3&#45;&gt;dir_644e041c3a6521da7b27eba0e4eb2b95</title>
<path fill="none" stroke="black" d="M53,-71.7C53,-63.98 53,-54.71 53,-46.11"/>
<polygon fill="black" stroke="black" points="56.5,-46.1 53,-36.1 49.5,-46.1 56.5,-46.1"/>
<g id="a_edge1&#45;headlabel"><a xlink:href="dir_000080_000075.html" target="_top" xlink:title="20">
<text text-anchor="middle" x="59.34" y="-47.2" font-family="Helvetica,sans-Serif" font-size="10.00">20</text>
</a>
</g>
</g>
</g>
</svg>
