<?xml version="1.0" encoding="UTF-8" standalone="no"?>
<!DOCTYPE svg PUBLIC "-//W3C//DTD SVG 1.1//EN"
 "http://www.w3.org/Graphics/SVG/1.1/DTD/svg11.dtd">
<!-- Generated by graphviz version 2.43.0 (0)
 -->
<!-- Title: /home/runner/work/ramses/ramses/examples/ramses&#45;example&#45;basic&#45;effect&#45;from&#45;glsl/src Pages: 1 -->
<svg width="232pt" height="151pt"
 viewBox="0.00 0.00 232.00 151.00" xmlns="http://www.w3.org/2000/svg" xmlns:xlink="http://www.w3.org/1999/xlink">
<g id="graph0" class="graph" transform="scale(1 1) rotate(0) translate(4 147)">
<title>/home/runner/work/ramses/ramses/examples/ramses&#45;example&#45;basic&#45;effect&#45;from&#45;glsl/src</title>
<polygon fill="white" stroke="transparent" points="-4,4 -4,-147 228,-147 228,4 -4,4"/>
<g id="clust1" class="cluster">
<title>clusterdir_8c6bd7e0194f00de49b1b4f8bf9911c1</title>
<g id="a_clust1"><a xlink:href="dir_8c6bd7e0194f00de49b1b4f8bf9911c1.html" target="_top" xlink:title="ramses&#45;example&#45;basic&#45;effect&#45;from&#45;glsl">
<polygon fill="#ddddee" stroke="black" points="8,-64 8,-135 216,-135 216,-64 8,-64"/>
<text text-anchor="middle" x="112" y="-123" font-family="Helvetica,sans-Serif" font-size="10.00">ramses&#45;example&#45;basic&#45;effect&#45;from&#45;glsl</text>
</a>
</g>
</g>
<!-- dir_a53b8f39b60597a497c508e27e7c1805 -->
<g id="node1" class="node">
<title>dir_a53b8f39b60597a497c508e27e7c1805</title>
<g id="a_node1"><a xlink:href="dir_a53b8f39b60597a497c508e27e7c1805.html" target="_top" xlink:title="src">
<polygon fill="#eeeeff" stroke="black" points="139,-108 85,-108 85,-72 139,-72 139,-108"/>
<text text-anchor="middle" x="112" y="-87.5" font-family="Helvetica,sans-Serif" font-size="10.00">src</text>
</a>
</g>
</g>
<!-- dir_26af246848702a33262a7ef2acf92491 -->
<g id="node2" class="node">
<title>dir_26af246848702a33262a7ef2acf92491</title>
<g id="a_node2"><a xlink:href="dir_26af246848702a33262a7ef2acf92491.html" target="_top" xlink:title="client">
<polygon fill="white" stroke="red" points="139,-36 85,-36 85,0 139,0 139,-36"/>
<text text-anchor="middle" x="112" y="-15.5" font-family="Helvetica,sans-Serif" font-size="10.00">client</text>
</a>
</g>
</g>
<!-- dir_a53b8f39b60597a497c508e27e7c1805&#45;&gt;dir_26af246848702a33262a7ef2acf92491 -->
<g id="edge1" class="edge">
<title>dir_a53b8f39b60597a497c508e27e7c1805&#45;&gt;dir_26af246848702a33262a7ef2acf92491</title>
<path fill="none" stroke="black" d="M112,-71.7C112,-63.98 112,-54.71 112,-46.11"/>
<polygon fill="black" stroke="black" points="115.5,-46.1 112,-36.1 108.5,-46.1 115.5,-46.1"/>
<g id="a_edge1&#45;headlabel"><a xlink:href="dir_000027_000001.html" target="_top" xlink:title="1">
<text text-anchor="middle" x="118.34" y="-47.2" font-family="Helvetica,sans-Serif" font-size="10.00">1</text>
</a>
</g>
</g>
</g>
</svg>
