<?xml version="1.0" encoding="UTF-8" standalone="no"?>
<!DOCTYPE svg PUBLIC "-//W3C//DTD SVG 1.1//EN"
 "http://www.w3.org/Graphics/SVG/1.1/DTD/svg11.dtd">
<!-- Generated by graphviz version 2.43.0 (0)
 -->
<!-- Title: /home/runner/work/ramses/ramses/renderer/RendererLib Pages: 1 -->
<svg width="265pt" height="159pt"
 viewBox="0.00 0.00 265.00 159.00" xmlns="http://www.w3.org/2000/svg" xmlns:xlink="http://www.w3.org/1999/xlink">
<g id="graph0" class="graph" transform="scale(1 1) rotate(0) translate(4 155)">
<title>/home/runner/work/ramses/ramses/renderer/RendererLib</title>
<polygon fill="white" stroke="transparent" points="-4,4 -4,-155 261,-155 261,4 -4,4"/>
<g id="clust1" class="cluster">
<title>clusterdir_4797b4e6785279b55036fb4e0c62a1b2</title>
<g id="a_clust1"><a xlink:href="dir_4797b4e6785279b55036fb4e0c62a1b2.html" target="_top" xlink:title="renderer">
<polygon fill="#ddddee" stroke="black" points="8,-56 8,-143 249,-143 249,-56 8,-56"/>
<text text-anchor="middle" x="128.5" y="-131" font-family="Helvetica,sans-Serif" font-size="10.00">renderer</text>
</a>
</g>
</g>
<g id="clust2" class="cluster">
<title>clusterdir_a3a7c660e810b5001e280646f5df93f6</title>
<g id="a_clust2"><a xlink:href="dir_a3a7c660e810b5001e280646f5df93f6.html" target="_top">
<polygon fill="#eeeeff" stroke="black" points="16,-64 16,-116 241,-116 241,-64 16,-64"/>
</a>
</g>
</g>
<!-- dir_a3a7c660e810b5001e280646f5df93f6 -->
<g id="node1" class="node">
<title>dir_a3a7c660e810b5001e280646f5df93f6</title>
<text text-anchor="middle" x="196" y="-87.5" font-family="Helvetica,sans-Serif" font-size="10.00">RendererLib</text>
</g>
<!-- dir_c50a7a15246d81cc7d5cd44280efaffd -->
<g id="node2" class="node">
<title>dir_c50a7a15246d81cc7d5cd44280efaffd</title>
<g id="a_node2"><a xlink:href="dir_c50a7a15246d81cc7d5cd44280efaffd.html" target="_top" xlink:title="ramses&#45;renderer&#45;api">
<polygon fill="white" stroke="red" points="140,-108 24,-108 24,-72 140,-72 140,-108"/>
<text text-anchor="middle" x="82" y="-87.5" font-family="Helvetica,sans-Serif" font-size="10.00">ramses&#45;renderer&#45;api</text>
</a>
</g>
</g>
<!-- dir_ca8fa6fd603755c533029df5a9606911 -->
<g id="node3" class="node">
<title>dir_ca8fa6fd603755c533029df5a9606911</title>
<g id="a_node3"><a xlink:href="dir_ca8fa6fd603755c533029df5a9606911.html" target="_top" xlink:title="framework">
<polygon fill="white" stroke="red" points="117,-36 47,-36 47,0 117,0 117,-36"/>
<text text-anchor="middle" x="82" y="-15.5" font-family="Helvetica,sans-Serif" font-size="10.00">framework</text>
</a>
</g>
</g>
<!-- dir_c50a7a15246d81cc7d5cd44280efaffd&#45;&gt;dir_ca8fa6fd603755c533029df5a9606911 -->
<g id="edge1" class="edge">
<title>dir_c50a7a15246d81cc7d5cd44280efaffd&#45;&gt;dir_ca8fa6fd603755c533029df5a9606911</title>
<path fill="none" stroke="black" d="M82,-71.7C82,-63.98 82,-54.71 82,-46.11"/>
<polygon fill="black" stroke="black" points="85.5,-46.1 82,-36.1 78.5,-46.1 85.5,-46.1"/>
<g id="a_edge1&#45;headlabel"><a xlink:href="dir_000086_000080.html" target="_top" xlink:title="20">
<text text-anchor="middle" x="88.34" y="-47.2" font-family="Helvetica,sans-Serif" font-size="10.00">20</text>
</a>
</g>
</g>
</g>
</svg>
