<?xml version="1.0" encoding="UTF-8" standalone="no"?>
<!DOCTYPE svg PUBLIC "-//W3C//DTD SVG 1.1//EN"
 "http://www.w3.org/Graphics/SVG/1.1/DTD/svg11.dtd">
<!-- Generated by graphviz version 2.43.0 (0)
 -->
<!-- Title: /c/src/mirror/examples/ramses&#45;example&#45;renderonce Pages: 1 -->
<svg width="286pt" height="159pt"
 viewBox="0.00 0.00 286.00 159.00" xmlns="http://www.w3.org/2000/svg" xmlns:xlink="http://www.w3.org/1999/xlink">
<g id="graph0" class="graph" transform="scale(1 1) rotate(0) translate(4 155)">
<title>/c/src/mirror/examples/ramses&#45;example&#45;renderonce</title>
<polygon fill="white" stroke="transparent" points="-4,4 -4,-155 282,-155 282,4 -4,4"/>
<g id="clust1" class="cluster">
<title>clusterdir_d28a4824dc47e487b107a5db32ef43c4</title>
<g id="a_clust1"><a xlink:href="dir_d28a4824dc47e487b107a5db32ef43c4.html" target="_top" xlink:title="examples">
<polygon fill="#ddddee" stroke="black" points="8,-56 8,-143 270,-143 270,-56 8,-56"/>
<text text-anchor="middle" x="139" y="-131" font-family="Helvetica,sans-Serif" font-size="10.00">examples</text>
</a>
</g>
</g>
<g id="clust2" class="cluster">
<title>clusterdir_ded9643a0b4d3666542486400a83bbbc</title>
<g id="a_clust2"><a xlink:href="dir_ded9643a0b4d3666542486400a83bbbc.html" target="_top">
<polygon fill="#eeeeff" stroke="black" points="16,-64 16,-116 262,-116 262,-64 16,-64"/>
</a>
</g>
</g>
<!-- dir_ded9643a0b4d3666542486400a83bbbc -->
<g id="node1" class="node">
<title>dir_ded9643a0b4d3666542486400a83bbbc</title>
<text text-anchor="middle" x="175" y="-87.5" font-family="Helvetica,sans-Serif" font-size="10.00">ramses&#45;example&#45;renderonce</text>
</g>
<!-- dir_ec8269c42c47bd9cad7322b0b0459f18 -->
<g id="node2" class="node">
<title>dir_ec8269c42c47bd9cad7322b0b0459f18</title>
<g id="a_node2"><a xlink:href="dir_ec8269c42c47bd9cad7322b0b0459f18.html" target="_top" xlink:title="src">
<polygon fill="white" stroke="black" points="78,-108 24,-108 24,-72 78,-72 78,-108"/>
<text text-anchor="middle" x="51" y="-87.5" font-family="Helvetica,sans-Serif" font-size="10.00">src</text>
</a>
</g>
</g>
<!-- dir_db3a54907829b36871118d03417739cd -->
<g id="node3" class="node">
<title>dir_db3a54907829b36871118d03417739cd</title>
<g id="a_node3"><a xlink:href="dir_db3a54907829b36871118d03417739cd.html" target="_top" xlink:title="client">
<polygon fill="white" stroke="red" points="78,-36 24,-36 24,0 78,0 78,-36"/>
<text text-anchor="middle" x="51" y="-15.5" font-family="Helvetica,sans-Serif" font-size="10.00">client</text>
</a>
</g>
</g>
<!-- dir_ec8269c42c47bd9cad7322b0b0459f18&#45;&gt;dir_db3a54907829b36871118d03417739cd -->
<g id="edge1" class="edge">
<title>dir_ec8269c42c47bd9cad7322b0b0459f18&#45;&gt;dir_db3a54907829b36871118d03417739cd</title>
<path fill="none" stroke="black" d="M51,-71.7C51,-63.98 51,-54.71 51,-46.11"/>
<polygon fill="black" stroke="black" points="54.5,-46.1 51,-36.1 47.5,-46.1 54.5,-46.1"/>
<g id="a_edge1&#45;headlabel"><a xlink:href="dir_000070_000000.html" target="_top" xlink:title="2">
<text text-anchor="middle" x="57.34" y="-47.2" font-family="Helvetica,sans-Serif" font-size="10.00">2</text>
</a>
</g>
</g>
</g>
</svg>
