<?xml version="1.0" encoding="UTF-8" standalone="no"?>
<!DOCTYPE svg PUBLIC "-//W3C//DTD SVG 1.1//EN"
 "http://www.w3.org/Graphics/SVG/1.1/DTD/svg11.dtd">
<!-- Generated by graphviz version 2.43.0 (0)
 -->
<!-- Title: /c/src/genivi/examples/ramses&#45;example&#45;basic&#45;compositing/src Pages: 1 -->
<svg width="216pt" height="223pt"
 viewBox="0.00 0.00 216.00 223.00" xmlns="http://www.w3.org/2000/svg" xmlns:xlink="http://www.w3.org/1999/xlink">
<g id="graph0" class="graph" transform="scale(1 1) rotate(0) translate(4 219)">
<title>/c/src/genivi/examples/ramses&#45;example&#45;basic&#45;compositing/src</title>
<polygon fill="white" stroke="transparent" points="-4,4 -4,-219 212,-219 212,4 -4,4"/>
<g id="clust1" class="cluster">
<title>clusterdir_a7241e5a0d1b3750c28bb62e911f9590</title>
<g id="a_clust1"><a xlink:href="dir_a7241e5a0d1b3750c28bb62e911f9590.html" target="_top" xlink:title="ramses&#45;example&#45;basic&#45;compositing">
<polygon fill="#ddddee" stroke="black" points="8,-136 8,-207 200,-207 200,-136 8,-136"/>
<text text-anchor="middle" x="104" y="-195" font-family="Helvetica,sans-Serif" font-size="10.00">ramses&#45;example&#45;basic&#45;compositing</text>
</a>
</g>
</g>
<!-- dir_113e74ac0e8a07c63f61c0ae32a5e43f -->
<g id="node1" class="node">
<title>dir_113e74ac0e8a07c63f61c0ae32a5e43f</title>
<g id="a_node1"><a xlink:href="dir_113e74ac0e8a07c63f61c0ae32a5e43f.html" target="_top" xlink:title="src">
<polygon fill="#eeeeff" stroke="black" points="131,-180 77,-180 77,-144 131,-144 131,-180"/>
<text text-anchor="middle" x="104" y="-159.5" font-family="Helvetica,sans-Serif" font-size="10.00">src</text>
</a>
</g>
</g>
<!-- dir_db3a54907829b36871118d03417739cd -->
<g id="node2" class="node">
<title>dir_db3a54907829b36871118d03417739cd</title>
<g id="a_node2"><a xlink:href="dir_db3a54907829b36871118d03417739cd.html" target="_top" xlink:title="client">
<polygon fill="white" stroke="red" points="103,-108 49,-108 49,-72 103,-72 103,-108"/>
<text text-anchor="middle" x="76" y="-87.5" font-family="Helvetica,sans-Serif" font-size="10.00">client</text>
</a>
</g>
</g>
<!-- dir_113e74ac0e8a07c63f61c0ae32a5e43f&#45;&gt;dir_db3a54907829b36871118d03417739cd -->
<g id="edge2" class="edge">
<title>dir_113e74ac0e8a07c63f61c0ae32a5e43f&#45;&gt;dir_db3a54907829b36871118d03417739cd</title>
<path fill="none" stroke="black" d="M97.08,-143.7C93.93,-135.81 90.12,-126.3 86.62,-117.55"/>
<polygon fill="black" stroke="black" points="89.81,-116.09 82.84,-108.1 83.31,-118.69 89.81,-116.09"/>
<g id="a_edge2&#45;headlabel"><a xlink:href="dir_000022_000000.html" target="_top" xlink:title="2">
<text text-anchor="middle" x="93.78" y="-115.87" font-family="Helvetica,sans-Serif" font-size="10.00">2</text>
</a>
</g>
</g>
<!-- dir_644e041c3a6521da7b27eba0e4eb2b95 -->
<g id="node3" class="node">
<title>dir_644e041c3a6521da7b27eba0e4eb2b95</title>
<g id="a_node3"><a xlink:href="dir_644e041c3a6521da7b27eba0e4eb2b95.html" target="_top" xlink:title="framework">
<polygon fill="white" stroke="red" points="138,-36 68,-36 68,0 138,0 138,-36"/>
<text text-anchor="middle" x="103" y="-15.5" font-family="Helvetica,sans-Serif" font-size="10.00">framework</text>
</a>
</g>
</g>
<!-- dir_113e74ac0e8a07c63f61c0ae32a5e43f&#45;&gt;dir_644e041c3a6521da7b27eba0e4eb2b95 -->
<g id="edge3" class="edge">
<title>dir_113e74ac0e8a07c63f61c0ae32a5e43f&#45;&gt;dir_644e041c3a6521da7b27eba0e4eb2b95</title>
<path fill="none" stroke="black" d="M107.25,-143.89C109.05,-133.54 111.09,-120.06 112,-108 113.2,-92.04 113.34,-87.94 112,-72 111.28,-63.5 109.93,-54.31 108.49,-46.01"/>
<polygon fill="black" stroke="black" points="111.91,-45.29 106.65,-36.09 105.03,-46.56 111.91,-45.29"/>
<g id="a_edge3&#45;headlabel"><a xlink:href="dir_000022_000075.html" target="_top" xlink:title="1">
<text text-anchor="middle" x="115.36" y="-45.81" font-family="Helvetica,sans-Serif" font-size="10.00">1</text>
</a>
</g>
</g>
<!-- dir_db3a54907829b36871118d03417739cd&#45;&gt;dir_644e041c3a6521da7b27eba0e4eb2b95 -->
<g id="edge1" class="edge">
<title>dir_db3a54907829b36871118d03417739cd&#45;&gt;dir_644e041c3a6521da7b27eba0e4eb2b95</title>
<path fill="none" stroke="black" d="M82.67,-71.7C85.71,-63.81 89.38,-54.3 92.76,-45.55"/>
<polygon fill="black" stroke="black" points="96.07,-46.69 96.4,-36.1 89.54,-44.17 96.07,-46.69"/>
<g id="a_edge1&#45;headlabel"><a xlink:href="dir_000000_000075.html" target="_top" xlink:title="32">
<text text-anchor="middle" x="97.42" y="-48.57" font-family="Helvetica,sans-Serif" font-size="10.00">32</text>
</a>
</g>
</g>
</g>
</svg>
