<?xml version="1.0" encoding="UTF-8" standalone="no"?>
<!DOCTYPE svg PUBLIC "-//W3C//DTD SVG 1.1//EN"
 "http://www.w3.org/Graphics/SVG/1.1/DTD/svg11.dtd">
<!-- Generated by graphviz version 2.43.0 (0)
 -->
<!-- Title: /home/runner/work/ramses/ramses/examples/ramses&#45;example&#45;local&#45;client&#45;dcsm/src Pages: 1 -->
<svg width="211pt" height="223pt"
 viewBox="0.00 0.00 211.00 223.00" xmlns="http://www.w3.org/2000/svg" xmlns:xlink="http://www.w3.org/1999/xlink">
<g id="graph0" class="graph" transform="scale(1 1) rotate(0) translate(4 219)">
<title>/home/runner/work/ramses/ramses/examples/ramses&#45;example&#45;local&#45;client&#45;dcsm/src</title>
<polygon fill="white" stroke="transparent" points="-4,4 -4,-219 207,-219 207,4 -4,4"/>
<g id="clust1" class="cluster">
<title>clusterdir_553a2a3eebe6cd319fde924219893d63</title>
<g id="a_clust1"><a xlink:href="dir_553a2a3eebe6cd319fde924219893d63.html" target="_top" xlink:title="ramses&#45;example&#45;local&#45;client&#45;dcsm">
<polygon fill="#ddddee" stroke="black" points="8,-136 8,-207 195,-207 195,-136 8,-136"/>
<text text-anchor="middle" x="101.5" y="-195" font-family="Helvetica,sans-Serif" font-size="10.00">ramses&#45;example&#45;local&#45;client&#45;dcsm</text>
</a>
</g>
</g>
<!-- dir_ae5465ec30fd608b230967e0754ed219 -->
<g id="node1" class="node">
<title>dir_ae5465ec30fd608b230967e0754ed219</title>
<g id="a_node1"><a xlink:href="dir_ae5465ec30fd608b230967e0754ed219.html" target="_top" xlink:title="src">
<polygon fill="#eeeeff" stroke="black" points="128,-180 74,-180 74,-144 128,-144 128,-180"/>
<text text-anchor="middle" x="101" y="-159.5" font-family="Helvetica,sans-Serif" font-size="10.00">src</text>
</a>
</g>
</g>
<!-- dir_26af246848702a33262a7ef2acf92491 -->
<g id="node2" class="node">
<title>dir_26af246848702a33262a7ef2acf92491</title>
<g id="a_node2"><a xlink:href="dir_26af246848702a33262a7ef2acf92491.html" target="_top" xlink:title="client">
<polygon fill="white" stroke="red" points="54,-108 0,-108 0,-72 54,-72 54,-108"/>
<text text-anchor="middle" x="27" y="-87.5" font-family="Helvetica,sans-Serif" font-size="10.00">client</text>
</a>
</g>
</g>
<!-- dir_ae5465ec30fd608b230967e0754ed219&#45;&gt;dir_26af246848702a33262a7ef2acf92491 -->
<g id="edge2" class="edge">
<title>dir_ae5465ec30fd608b230967e0754ed219&#45;&gt;dir_26af246848702a33262a7ef2acf92491</title>
<path fill="none" stroke="black" d="M82.71,-143.7C73.57,-135.05 62.36,-124.45 52.4,-115.03"/>
<polygon fill="black" stroke="black" points="54.75,-112.43 45.08,-108.1 49.94,-117.52 54.75,-112.43"/>
<g id="a_edge2&#45;headlabel"><a xlink:href="dir_000053_000001.html" target="_top" xlink:title="1">
<text text-anchor="middle" x="59.31" y="-110.34" font-family="Helvetica,sans-Serif" font-size="10.00">1</text>
</a>
</g>
</g>
<!-- dir_4797b4e6785279b55036fb4e0c62a1b2 -->
<g id="node3" class="node">
<title>dir_4797b4e6785279b55036fb4e0c62a1b2</title>
<g id="a_node3"><a xlink:href="dir_4797b4e6785279b55036fb4e0c62a1b2.html" target="_top" xlink:title="renderer">
<polygon fill="white" stroke="red" points="130,-108 72,-108 72,-72 130,-72 130,-108"/>
<text text-anchor="middle" x="101" y="-87.5" font-family="Helvetica,sans-Serif" font-size="10.00">renderer</text>
</a>
</g>
</g>
<!-- dir_ae5465ec30fd608b230967e0754ed219&#45;&gt;dir_4797b4e6785279b55036fb4e0c62a1b2 -->
<g id="edge3" class="edge">
<title>dir_ae5465ec30fd608b230967e0754ed219&#45;&gt;dir_4797b4e6785279b55036fb4e0c62a1b2</title>
<path fill="none" stroke="black" d="M101,-143.7C101,-135.98 101,-126.71 101,-118.11"/>
<polygon fill="black" stroke="black" points="104.5,-118.1 101,-108.1 97.5,-118.1 104.5,-118.1"/>
<g id="a_edge3&#45;headlabel"><a xlink:href="dir_000053_000084.html" target="_top" xlink:title="6">
<text text-anchor="middle" x="107.34" y="-119.2" font-family="Helvetica,sans-Serif" font-size="10.00">6</text>
</a>
</g>
</g>
<!-- dir_ca8fa6fd603755c533029df5a9606911 -->
<g id="node4" class="node">
<title>dir_ca8fa6fd603755c533029df5a9606911</title>
<g id="a_node4"><a xlink:href="dir_ca8fa6fd603755c533029df5a9606911.html" target="_top" xlink:title="framework">
<polygon fill="white" stroke="red" points="136,-36 66,-36 66,0 136,0 136,-36"/>
<text text-anchor="middle" x="101" y="-15.5" font-family="Helvetica,sans-Serif" font-size="10.00">framework</text>
</a>
</g>
</g>
<!-- dir_ae5465ec30fd608b230967e0754ed219&#45;&gt;dir_ca8fa6fd603755c533029df5a9606911 -->
<g id="edge4" class="edge">
<title>dir_ae5465ec30fd608b230967e0754ed219&#45;&gt;dir_ca8fa6fd603755c533029df5a9606911</title>
<path fill="none" stroke="black" d="M117.46,-143.92C125.65,-134.22 134.7,-121.37 139,-108 143.9,-92.77 143.9,-87.23 139,-72 135.81,-62.08 130,-52.44 123.87,-44.17"/>
<polygon fill="black" stroke="black" points="126.42,-41.74 117.46,-36.08 120.93,-46.09 126.42,-41.74"/>
<g id="a_edge4&#45;headlabel"><a xlink:href="dir_000053_000080.html" target="_top" xlink:title="3">
<text text-anchor="middle" x="130.88" y="-40.3" font-family="Helvetica,sans-Serif" font-size="10.00">3</text>
</a>
</g>
</g>
<!-- dir_26af246848702a33262a7ef2acf92491&#45;&gt;dir_ca8fa6fd603755c533029df5a9606911 -->
<g id="edge1" class="edge">
<title>dir_26af246848702a33262a7ef2acf92491&#45;&gt;dir_ca8fa6fd603755c533029df5a9606911</title>
<path fill="none" stroke="black" d="M45.29,-71.7C54.43,-63.05 65.64,-52.45 75.6,-43.03"/>
<polygon fill="black" stroke="black" points="78.06,-45.52 82.92,-36.1 73.25,-40.43 78.06,-45.52"/>
<g id="a_edge1&#45;headlabel"><a xlink:href="dir_000001_000080.html" target="_top" xlink:title="32">
<text text-anchor="middle" x="77.4" y="-47.55" font-family="Helvetica,sans-Serif" font-size="10.00">32</text>
</a>
</g>
</g>
<!-- dir_4797b4e6785279b55036fb4e0c62a1b2&#45;&gt;dir_ca8fa6fd603755c533029df5a9606911 -->
<g id="edge5" class="edge">
<title>dir_4797b4e6785279b55036fb4e0c62a1b2&#45;&gt;dir_ca8fa6fd603755c533029df5a9606911</title>
<path fill="none" stroke="black" d="M101,-71.7C101,-63.98 101,-54.71 101,-46.11"/>
<polygon fill="black" stroke="black" points="104.5,-46.1 101,-36.1 97.5,-46.1 104.5,-46.1"/>
<g id="a_edge5&#45;headlabel"><a xlink:href="dir_000084_000080.html" target="_top" xlink:title="20">
<text text-anchor="middle" x="107.34" y="-47.2" font-family="Helvetica,sans-Serif" font-size="10.00">20</text>
</a>
</g>
</g>
</g>
</svg>
