<?xml version="1.0" encoding="UTF-8" standalone="no"?>
<!DOCTYPE svg PUBLIC "-//W3C//DTD SVG 1.1//EN"
 "http://www.w3.org/Graphics/SVG/1.1/DTD/svg11.dtd">
<!-- Generated by graphviz version 2.43.0 (0)
 -->
<!-- Title: /home/q479079/sources/ramses&#45;oss/client/ramses&#45;client/ramses&#45;client&#45;api/include Pages: 1 -->
<svg width="158pt" height="231pt"
 viewBox="0.00 0.00 158.00 231.00" xmlns="http://www.w3.org/2000/svg" xmlns:xlink="http://www.w3.org/1999/xlink">
<g id="graph0" class="graph" transform="scale(1 1) rotate(0) translate(4 227)">
<title>/home/q479079/sources/ramses&#45;oss/client/ramses&#45;client/ramses&#45;client&#45;api/include</title>
<polygon fill="white" stroke="transparent" points="-4,4 -4,-227 154,-227 154,4 -4,4"/>
<g id="clust1" class="cluster">
<title>clusterdir_cc246b20a110ebb5f4d3465125b42565</title>
<g id="a_clust1"><a xlink:href="dir_cc246b20a110ebb5f4d3465125b42565.html" target="_top" xlink:title="ramses&#45;client&#45;api">
<polygon fill="#ddddee" stroke="black" points="8,-56 8,-215 142,-215 142,-56 8,-56"/>
<text text-anchor="middle" x="75" y="-203" font-family="Helvetica,sans-Serif" font-size="10.00">ramses&#45;client&#45;api</text>
</a>
</g>
</g>
<g id="clust2" class="cluster">
<title>clusterdir_f754caf7c3966a66478024502bacc1f2</title>
<g id="a_clust2"><a xlink:href="dir_f754caf7c3966a66478024502bacc1f2.html" target="_top">
<polygon fill="#eeeeff" stroke="black" points="16,-64 16,-188 134,-188 134,-64 16,-64"/>
</a>
</g>
</g>
<!-- dir_f754caf7c3966a66478024502bacc1f2 -->
<g id="node1" class="node">
<title>dir_f754caf7c3966a66478024502bacc1f2</title>
<text text-anchor="middle" x="87" y="-159.5" font-family="Helvetica,sans-Serif" font-size="10.00">include</text>
</g>
<!-- dir_060f19e5ca0ea77ab5b4569579dc76e9 -->
<g id="node2" class="node">
<title>dir_060f19e5ca0ea77ab5b4569579dc76e9</title>
<g id="a_node2"><a xlink:href="dir_060f19e5ca0ea77ab5b4569579dc76e9.html" target="_top" xlink:title="ramses&#45;client&#45;api">
<polygon fill="white" stroke="black" points="126,-108 24,-108 24,-72 126,-72 126,-108"/>
<text text-anchor="middle" x="75" y="-87.5" font-family="Helvetica,sans-Serif" font-size="10.00">ramses&#45;client&#45;api</text>
</a>
</g>
</g>
<!-- dir_f754caf7c3966a66478024502bacc1f2&#45;&gt;dir_060f19e5ca0ea77ab5b4569579dc76e9 -->
<g id="edge3" class="edge">
<title>dir_f754caf7c3966a66478024502bacc1f2&#45;&gt;dir_060f19e5ca0ea77ab5b4569579dc76e9</title>
<path fill="none" stroke="black" d="M84.03,-143.7C82.71,-135.98 81.12,-126.71 79.65,-118.11"/>
<polygon fill="black" stroke="black" points="83.07,-117.37 77.93,-108.1 76.17,-118.55 83.07,-117.37"/>
<g id="a_edge3&#45;headlabel"><a xlink:href="dir_000003_000004.html" target="_top" xlink:title="79">
<text text-anchor="middle" x="86.48" y="-117.93" font-family="Helvetica,sans-Serif" font-size="10.00">79</text>
</a>
</g>
</g>
<!-- dir_644e041c3a6521da7b27eba0e4eb2b95 -->
<g id="node3" class="node">
<title>dir_644e041c3a6521da7b27eba0e4eb2b95</title>
<g id="a_node3"><a xlink:href="dir_644e041c3a6521da7b27eba0e4eb2b95.html" target="_top" xlink:title="framework">
<polygon fill="white" stroke="red" points="149,-36 79,-36 79,0 149,0 149,-36"/>
<text text-anchor="middle" x="114" y="-15.5" font-family="Helvetica,sans-Serif" font-size="10.00">framework</text>
</a>
</g>
</g>
<!-- dir_f754caf7c3966a66478024502bacc1f2&#45;&gt;dir_644e041c3a6521da7b27eba0e4eb2b95 -->
<g id="edge2" class="edge">
<title>dir_f754caf7c3966a66478024502bacc1f2&#45;&gt;dir_644e041c3a6521da7b27eba0e4eb2b95</title>
<path fill="none" stroke="black" d="M108.71,-143.79C118.76,-134.41 129.64,-121.9 135,-108 143.31,-86.44 140.9,-78.35 135,-56 134.04,-52.36 132.63,-48.7 130.98,-45.17"/>
<polygon fill="black" stroke="black" points="134.02,-43.44 126.23,-36.26 127.85,-46.73 134.02,-43.44"/>
<g id="a_edge2&#45;headlabel"><a xlink:href="dir_000003_000075.html" target="_top" xlink:title="29">
<text text-anchor="middle" x="138.22" y="-42.78" font-family="Helvetica,sans-Serif" font-size="10.00">29</text>
</a>
</g>
</g>
<!-- dir_060f19e5ca0ea77ab5b4569579dc76e9&#45;&gt;dir_644e041c3a6521da7b27eba0e4eb2b95 -->
<g id="edge1" class="edge">
<title>dir_060f19e5ca0ea77ab5b4569579dc76e9&#45;&gt;dir_644e041c3a6521da7b27eba0e4eb2b95</title>
<path fill="none" stroke="black" d="M84.64,-71.7C89.13,-63.64 94.56,-53.89 99.52,-44.98"/>
<polygon fill="black" stroke="black" points="102.66,-46.54 104.47,-36.1 96.55,-43.14 102.66,-46.54"/>
<g id="a_edge1&#45;headlabel"><a xlink:href="dir_000004_000075.html" target="_top" xlink:title="26">
<text text-anchor="middle" x="103.39" y="-48.57" font-family="Helvetica,sans-Serif" font-size="10.00">26</text>
</a>
</g>
</g>
</g>
</svg>
