<?xml version="1.0" encoding="UTF-8" standalone="no"?>
<!DOCTYPE svg PUBLIC "-//W3C//DTD SVG 1.1//EN"
 "http://www.w3.org/Graphics/SVG/1.1/DTD/svg11.dtd">
<!-- Generated by graphviz version 2.40.1 (20161225.0304)
 -->
<!-- Title: /home/ramses/dev/oss&#45;ramses/examples/ramses&#45;example&#45;minimal/src Pages: 1 -->
<svg width="149pt" height="151pt"
 viewBox="0.00 0.00 149.00 151.00" xmlns="http://www.w3.org/2000/svg" xmlns:xlink="http://www.w3.org/1999/xlink">
<g id="graph0" class="graph" transform="scale(1 1) rotate(0) translate(4 147)">
<title>/home/ramses/dev/oss&#45;ramses/examples/ramses&#45;example&#45;minimal/src</title>
<polygon fill="#ffffff" stroke="transparent" points="-4,4 -4,-147 145,-147 145,4 -4,4"/>
<g id="clust1" class="cluster">
<title>clusterdir_dca6161c1001f5e4b618269f63af0898</title>
<g id="a_clust1"><a xlink:href="dir_dca6161c1001f5e4b618269f63af0898.html" target="_top" xlink:title="ramses&#45;example&#45;minimal">
<polygon fill="#ddddee" stroke="#000000" points="8,-64 8,-135 133,-135 133,-64 8,-64"/>
<text text-anchor="middle" x="70.5" y="-123" font-family="Helvetica,sans-Serif" font-size="10.00" fill="#000000">ramses&#45;example&#45;minimal</text>
</a>
</g>
</g>
<!-- dir_fe87bd7bf0608b6df7a7ff2a2f2cf06d -->
<g id="node1" class="node">
<title>dir_fe87bd7bf0608b6df7a7ff2a2f2cf06d</title>
<g id="a_node1"><a xlink:href="dir_fe87bd7bf0608b6df7a7ff2a2f2cf06d.html" target="_top" xlink:title="src">
<polygon fill="#eeeeff" stroke="#000000" points="97,-108 43,-108 43,-72 97,-72 97,-108"/>
<text text-anchor="middle" x="70" y="-87.5" font-family="Helvetica,sans-Serif" font-size="10.00" fill="#000000">src</text>
</a>
</g>
</g>
<!-- dir_db3a54907829b36871118d03417739cd -->
<g id="node2" class="node">
<title>dir_db3a54907829b36871118d03417739cd</title>
<g id="a_node2"><a xlink:href="dir_db3a54907829b36871118d03417739cd.html" target="_top" xlink:title="client">
<polygon fill="#ffffff" stroke="#ff0000" points="97,-36 43,-36 43,0 97,0 97,-36"/>
<text text-anchor="middle" x="70" y="-15.5" font-family="Helvetica,sans-Serif" font-size="10.00" fill="#000000">client</text>
</a>
</g>
</g>
<!-- dir_fe87bd7bf0608b6df7a7ff2a2f2cf06d&#45;&gt;dir_db3a54907829b36871118d03417739cd -->
<g id="edge1" class="edge">
<title>dir_fe87bd7bf0608b6df7a7ff2a2f2cf06d&#45;&gt;dir_db3a54907829b36871118d03417739cd</title>
<path fill="none" stroke="#000000" d="M70,-71.8314C70,-64.131 70,-54.9743 70,-46.4166"/>
<polygon fill="#000000" stroke="#000000" points="73.5001,-46.4132 70,-36.4133 66.5001,-46.4133 73.5001,-46.4132"/>
<g id="a_edge1&#45;headlabel"><a xlink:href="dir_000062_000000.html" target="_top" xlink:title="1">
<text text-anchor="middle" x="76.3393" y="-47.5079" font-family="Helvetica,sans-Serif" font-size="10.00" fill="#000000">1</text>
</a>
</g>
</g>
</g>
</svg>
