<?xml version="1.0" encoding="UTF-8" standalone="no"?>
<!DOCTYPE svg PUBLIC "-//W3C//DTD SVG 1.1//EN"
 "http://www.w3.org/Graphics/SVG/1.1/DTD/svg11.dtd">
<!-- Generated by graphviz version 2.43.0 (0)
 -->
<!-- Title: /home/runner/work/ramses/ramses/examples/ramses&#45;example&#45;basic&#45;rendertarget/src Pages: 1 -->
<svg width="217pt" height="151pt"
 viewBox="0.00 0.00 217.00 151.00" xmlns="http://www.w3.org/2000/svg" xmlns:xlink="http://www.w3.org/1999/xlink">
<g id="graph0" class="graph" transform="scale(1 1) rotate(0) translate(4 147)">
<title>/home/runner/work/ramses/ramses/examples/ramses&#45;example&#45;basic&#45;rendertarget/src</title>
<polygon fill="white" stroke="transparent" points="-4,4 -4,-147 213,-147 213,4 -4,4"/>
<g id="clust1" class="cluster">
<title>clusterdir_32716c04d35ebc57bf5d8bfc68263738</title>
<g id="a_clust1"><a xlink:href="dir_32716c04d35ebc57bf5d8bfc68263738.html" target="_top" xlink:title="ramses&#45;example&#45;basic&#45;rendertarget">
<polygon fill="#ddddee" stroke="black" points="8,-64 8,-135 201,-135 201,-64 8,-64"/>
<text text-anchor="middle" x="104.5" y="-123" font-family="Helvetica,sans-Serif" font-size="10.00">ramses&#45;example&#45;basic&#45;rendertarget</text>
</a>
</g>
</g>
<!-- dir_b292bdf48eb667b3c00185f93686d5fe -->
<g id="node1" class="node">
<title>dir_b292bdf48eb667b3c00185f93686d5fe</title>
<g id="a_node1"><a xlink:href="dir_b292bdf48eb667b3c00185f93686d5fe.html" target="_top" xlink:title="src">
<polygon fill="#eeeeff" stroke="black" points="131,-108 77,-108 77,-72 131,-72 131,-108"/>
<text text-anchor="middle" x="104" y="-87.5" font-family="Helvetica,sans-Serif" font-size="10.00">src</text>
</a>
</g>
</g>
<!-- dir_26af246848702a33262a7ef2acf92491 -->
<g id="node2" class="node">
<title>dir_26af246848702a33262a7ef2acf92491</title>
<g id="a_node2"><a xlink:href="dir_26af246848702a33262a7ef2acf92491.html" target="_top" xlink:title="client">
<polygon fill="white" stroke="red" points="131,-36 77,-36 77,0 131,0 131,-36"/>
<text text-anchor="middle" x="104" y="-15.5" font-family="Helvetica,sans-Serif" font-size="10.00">client</text>
</a>
</g>
</g>
<!-- dir_b292bdf48eb667b3c00185f93686d5fe&#45;&gt;dir_26af246848702a33262a7ef2acf92491 -->
<g id="edge1" class="edge">
<title>dir_b292bdf48eb667b3c00185f93686d5fe&#45;&gt;dir_26af246848702a33262a7ef2acf92491</title>
<path fill="none" stroke="black" d="M104,-71.7C104,-63.98 104,-54.71 104,-46.11"/>
<polygon fill="black" stroke="black" points="107.5,-46.1 104,-36.1 100.5,-46.1 107.5,-46.1"/>
<g id="a_edge1&#45;headlabel"><a xlink:href="dir_000036_000001.html" target="_top" xlink:title="2">
<text text-anchor="middle" x="110.34" y="-47.2" font-family="Helvetica,sans-Serif" font-size="10.00">2</text>
</a>
</g>
</g>
</g>
</svg>
