<?xml version="1.0" encoding="UTF-8" standalone="no"?>
<!DOCTYPE svg PUBLIC "-//W3C//DTD SVG 1.1//EN"
 "http://www.w3.org/Graphics/SVG/1.1/DTD/svg11.dtd">
<!-- Generated by graphviz version 2.43.0 (0)
 -->
<!-- Title: /c/src/mirror/examples/ramses&#45;example&#45;local&#45;datalink/src Pages: 1 -->
<svg width="194pt" height="151pt"
 viewBox="0.00 0.00 194.00 151.00" xmlns="http://www.w3.org/2000/svg" xmlns:xlink="http://www.w3.org/1999/xlink">
<g id="graph0" class="graph" transform="scale(1 1) rotate(0) translate(4 147)">
<title>/c/src/mirror/examples/ramses&#45;example&#45;local&#45;datalink/src</title>
<polygon fill="white" stroke="transparent" points="-4,4 -4,-147 190,-147 190,4 -4,4"/>
<g id="clust1" class="cluster">
<title>clusterdir_2f9285700b75fcb5431f532ab0ea0bc9</title>
<g id="a_clust1"><a xlink:href="dir_2f9285700b75fcb5431f532ab0ea0bc9.html" target="_top" xlink:title="ramses&#45;example&#45;local&#45;datalink">
<polygon fill="#ddddee" stroke="black" points="8,-64 8,-135 178,-135 178,-64 8,-64"/>
<text text-anchor="middle" x="93" y="-123" font-family="Helvetica,sans-Serif" font-size="10.00">ramses&#45;example&#45;local&#45;datalink</text>
</a>
</g>
</g>
<!-- dir_1affb9ba3277c0bd131be2bc1344d6f8 -->
<g id="node1" class="node">
<title>dir_1affb9ba3277c0bd131be2bc1344d6f8</title>
<g id="a_node1"><a xlink:href="dir_1affb9ba3277c0bd131be2bc1344d6f8.html" target="_top" xlink:title="src">
<polygon fill="#eeeeff" stroke="black" points="120,-108 66,-108 66,-72 120,-72 120,-108"/>
<text text-anchor="middle" x="93" y="-87.5" font-family="Helvetica,sans-Serif" font-size="10.00">src</text>
</a>
</g>
</g>
<!-- dir_db3a54907829b36871118d03417739cd -->
<g id="node2" class="node">
<title>dir_db3a54907829b36871118d03417739cd</title>
<g id="a_node2"><a xlink:href="dir_db3a54907829b36871118d03417739cd.html" target="_top" xlink:title="client">
<polygon fill="white" stroke="red" points="83,-36 29,-36 29,0 83,0 83,-36"/>
<text text-anchor="middle" x="56" y="-15.5" font-family="Helvetica,sans-Serif" font-size="10.00">client</text>
</a>
</g>
</g>
<!-- dir_1affb9ba3277c0bd131be2bc1344d6f8&#45;&gt;dir_db3a54907829b36871118d03417739cd -->
<g id="edge1" class="edge">
<title>dir_1affb9ba3277c0bd131be2bc1344d6f8&#45;&gt;dir_db3a54907829b36871118d03417739cd</title>
<path fill="none" stroke="black" d="M83.85,-71.7C79.6,-63.64 74.44,-53.89 69.73,-44.98"/>
<polygon fill="black" stroke="black" points="72.81,-43.31 65.04,-36.1 66.62,-46.58 72.81,-43.31"/>
<g id="a_edge1&#45;headlabel"><a xlink:href="dir_000054_000000.html" target="_top" xlink:title="3">
<text text-anchor="middle" x="77" y="-42.66" font-family="Helvetica,sans-Serif" font-size="10.00">3</text>
</a>
</g>
</g>
<!-- dir_d10aa5f1e26260a914a037377583e9a7 -->
<g id="node3" class="node">
<title>dir_d10aa5f1e26260a914a037377583e9a7</title>
<g id="a_node3"><a xlink:href="dir_d10aa5f1e26260a914a037377583e9a7.html" target="_top" xlink:title="renderer">
<polygon fill="white" stroke="red" points="159,-36 101,-36 101,0 159,0 159,-36"/>
<text text-anchor="middle" x="130" y="-15.5" font-family="Helvetica,sans-Serif" font-size="10.00">renderer</text>
</a>
</g>
</g>
<!-- dir_1affb9ba3277c0bd131be2bc1344d6f8&#45;&gt;dir_d10aa5f1e26260a914a037377583e9a7 -->
<g id="edge2" class="edge">
<title>dir_1affb9ba3277c0bd131be2bc1344d6f8&#45;&gt;dir_d10aa5f1e26260a914a037377583e9a7</title>
<path fill="none" stroke="black" d="M102.15,-71.7C106.4,-63.64 111.56,-53.89 116.27,-44.98"/>
<polygon fill="black" stroke="black" points="119.38,-46.58 120.96,-36.1 113.19,-43.31 119.38,-46.58"/>
<g id="a_edge2&#45;headlabel"><a xlink:href="dir_000054_000079.html" target="_top" xlink:title="4">
<text text-anchor="middle" x="120.21" y="-48.59" font-family="Helvetica,sans-Serif" font-size="10.00">4</text>
</a>
</g>
</g>
</g>
</svg>
