<?xml version="1.0" encoding="UTF-8" standalone="no"?>
<!DOCTYPE svg PUBLIC "-//W3C//DTD SVG 1.1//EN"
 "http://www.w3.org/Graphics/SVG/1.1/DTD/svg11.dtd">
<!-- Generated by graphviz version 2.43.0 (0)
 -->
<!-- Title: /c/src/genivi/examples/ramses&#45;example&#45;basic&#45;texturing/src Pages: 1 -->
<svg width="200pt" height="151pt"
 viewBox="0.00 0.00 200.00 151.00" xmlns="http://www.w3.org/2000/svg" xmlns:xlink="http://www.w3.org/1999/xlink">
<g id="graph0" class="graph" transform="scale(1 1) rotate(0) translate(4 147)">
<title>/c/src/genivi/examples/ramses&#45;example&#45;basic&#45;texturing/src</title>
<polygon fill="white" stroke="transparent" points="-4,4 -4,-147 196,-147 196,4 -4,4"/>
<g id="clust1" class="cluster">
<title>clusterdir_01ae0cda6c8f22ad9e305bc8870f9594</title>
<g id="a_clust1"><a xlink:href="dir_01ae0cda6c8f22ad9e305bc8870f9594.html" target="_top" xlink:title="ramses&#45;example&#45;basic&#45;texturing">
<polygon fill="#ddddee" stroke="black" points="8,-64 8,-135 184,-135 184,-64 8,-64"/>
<text text-anchor="middle" x="96" y="-123" font-family="Helvetica,sans-Serif" font-size="10.00">ramses&#45;example&#45;basic&#45;texturing</text>
</a>
</g>
</g>
<!-- dir_26023e6f6a94a7556195a97620d36d33 -->
<g id="node1" class="node">
<title>dir_26023e6f6a94a7556195a97620d36d33</title>
<g id="a_node1"><a xlink:href="dir_26023e6f6a94a7556195a97620d36d33.html" target="_top" xlink:title="src">
<polygon fill="#eeeeff" stroke="black" points="123,-108 69,-108 69,-72 123,-72 123,-108"/>
<text text-anchor="middle" x="96" y="-87.5" font-family="Helvetica,sans-Serif" font-size="10.00">src</text>
</a>
</g>
</g>
<!-- dir_db3a54907829b36871118d03417739cd -->
<g id="node2" class="node">
<title>dir_db3a54907829b36871118d03417739cd</title>
<g id="a_node2"><a xlink:href="dir_db3a54907829b36871118d03417739cd.html" target="_top" xlink:title="client">
<polygon fill="white" stroke="red" points="123,-36 69,-36 69,0 123,0 123,-36"/>
<text text-anchor="middle" x="96" y="-15.5" font-family="Helvetica,sans-Serif" font-size="10.00">client</text>
</a>
</g>
</g>
<!-- dir_26023e6f6a94a7556195a97620d36d33&#45;&gt;dir_db3a54907829b36871118d03417739cd -->
<g id="edge1" class="edge">
<title>dir_26023e6f6a94a7556195a97620d36d33&#45;&gt;dir_db3a54907829b36871118d03417739cd</title>
<path fill="none" stroke="black" d="M96,-71.7C96,-63.98 96,-54.71 96,-46.11"/>
<polygon fill="black" stroke="black" points="99.5,-46.1 96,-36.1 92.5,-46.1 99.5,-46.1"/>
<g id="a_edge1&#45;headlabel"><a xlink:href="dir_000038_000000.html" target="_top" xlink:title="2">
<text text-anchor="middle" x="102.34" y="-47.2" font-family="Helvetica,sans-Serif" font-size="10.00">2</text>
</a>
</g>
</g>
</g>
</svg>
