<?xml version="1.0" encoding="UTF-8" standalone="no"?>
<!DOCTYPE svg PUBLIC "-//W3C//DTD SVG 1.1//EN"
 "http://www.w3.org/Graphics/SVG/1.1/DTD/svg11.dtd">
<!-- Generated by graphviz version 2.43.0 (0)
 -->
<!-- Title: /home/runner/work/ramses/ramses/examples/ramses&#45;example&#45;minimal/src Pages: 1 -->
<svg width="167pt" height="151pt"
 viewBox="0.00 0.00 167.00 151.00" xmlns="http://www.w3.org/2000/svg" xmlns:xlink="http://www.w3.org/1999/xlink">
<g id="graph0" class="graph" transform="scale(1 1) rotate(0) translate(4 147)">
<title>/home/runner/work/ramses/ramses/examples/ramses&#45;example&#45;minimal/src</title>
<polygon fill="white" stroke="transparent" points="-4,4 -4,-147 163,-147 163,4 -4,4"/>
<g id="clust1" class="cluster">
<title>clusterdir_e43a81cc60edaed28cef57db857b3899</title>
<g id="a_clust1"><a xlink:href="dir_e43a81cc60edaed28cef57db857b3899.html" target="_top" xlink:title="ramses&#45;example&#45;minimal">
<polygon fill="#ddddee" stroke="black" points="8,-64 8,-135 151,-135 151,-64 8,-64"/>
<text text-anchor="middle" x="79.5" y="-123" font-family="Helvetica,sans-Serif" font-size="10.00">ramses&#45;example&#45;minimal</text>
</a>
</g>
</g>
<!-- dir_9b3ad8eb09ac814fa66b762dcf5fdc73 -->
<g id="node1" class="node">
<title>dir_9b3ad8eb09ac814fa66b762dcf5fdc73</title>
<g id="a_node1"><a xlink:href="dir_9b3ad8eb09ac814fa66b762dcf5fdc73.html" target="_top" xlink:title="src">
<polygon fill="#eeeeff" stroke="black" points="106,-108 52,-108 52,-72 106,-72 106,-108"/>
<text text-anchor="middle" x="79" y="-87.5" font-family="Helvetica,sans-Serif" font-size="10.00">src</text>
</a>
</g>
</g>
<!-- dir_26af246848702a33262a7ef2acf92491 -->
<g id="node2" class="node">
<title>dir_26af246848702a33262a7ef2acf92491</title>
<g id="a_node2"><a xlink:href="dir_26af246848702a33262a7ef2acf92491.html" target="_top" xlink:title="client">
<polygon fill="white" stroke="red" points="106,-36 52,-36 52,0 106,0 106,-36"/>
<text text-anchor="middle" x="79" y="-15.5" font-family="Helvetica,sans-Serif" font-size="10.00">client</text>
</a>
</g>
</g>
<!-- dir_9b3ad8eb09ac814fa66b762dcf5fdc73&#45;&gt;dir_26af246848702a33262a7ef2acf92491 -->
<g id="edge1" class="edge">
<title>dir_9b3ad8eb09ac814fa66b762dcf5fdc73&#45;&gt;dir_26af246848702a33262a7ef2acf92491</title>
<path fill="none" stroke="black" d="M79,-71.7C79,-63.98 79,-54.71 79,-46.11"/>
<polygon fill="black" stroke="black" points="82.5,-46.1 79,-36.1 75.5,-46.1 82.5,-46.1"/>
<g id="a_edge1&#45;headlabel"><a xlink:href="dir_000072_000001.html" target="_top" xlink:title="1">
<text text-anchor="middle" x="85.34" y="-47.2" font-family="Helvetica,sans-Serif" font-size="10.00">1</text>
</a>
</g>
</g>
</g>
</svg>
