<?xml version="1.0" encoding="UTF-8" standalone="no"?>
<!DOCTYPE svg PUBLIC "-//W3C//DTD SVG 1.1//EN"
 "http://www.w3.org/Graphics/SVG/1.1/DTD/svg11.dtd">
<!-- Generated by graphviz version 2.40.1 (20161225.0304)
 -->
<!-- Title: /home/ramses/dev/oss&#45;ramses/client Pages: 1 -->
<svg width="187pt" height="132pt"
 viewBox="0.00 0.00 187.00 132.00" xmlns="http://www.w3.org/2000/svg" xmlns:xlink="http://www.w3.org/1999/xlink">
<g id="graph0" class="graph" transform="scale(1 1) rotate(0) translate(4 128)">
<title>/home/ramses/dev/oss&#45;ramses/client</title>
<polygon fill="#ffffff" stroke="transparent" points="-4,4 -4,-128 183,-128 183,4 -4,4"/>
<g id="clust1" class="cluster">
<title>clusterdir_db3a54907829b36871118d03417739cd</title>
<g id="a_clust1"><a xlink:href="dir_db3a54907829b36871118d03417739cd.html" target="_top">
<polygon fill="#eeeeff" stroke="#000000" points="8,-64 8,-116 171,-116 171,-64 8,-64"/>
</a>
</g>
</g>
<!-- dir_db3a54907829b36871118d03417739cd -->
<g id="node1" class="node">
<title>dir_db3a54907829b36871118d03417739cd</title>
<text text-anchor="middle" x="136" y="-87.5" font-family="Helvetica,sans-Serif" font-size="10.00" fill="#000000">client</text>
</g>
<!-- dir_f7e371792a83b593d696adf03a390bcd -->
<g id="node2" class="node">
<title>dir_f7e371792a83b593d696adf03a390bcd</title>
<g id="a_node2"><a xlink:href="dir_f7e371792a83b593d696adf03a390bcd.html" target="_top" xlink:title="ramses&#45;client">
<polygon fill="#ffffff" stroke="#ff0000" points="90.5,-108 15.5,-108 15.5,-72 90.5,-72 90.5,-108"/>
<text text-anchor="middle" x="53" y="-87.5" font-family="Helvetica,sans-Serif" font-size="10.00" fill="#000000">ramses&#45;client</text>
</a>
</g>
</g>
<!-- dir_644e041c3a6521da7b27eba0e4eb2b95 -->
<g id="node3" class="node">
<title>dir_644e041c3a6521da7b27eba0e4eb2b95</title>
<g id="a_node3"><a xlink:href="dir_644e041c3a6521da7b27eba0e4eb2b95.html" target="_top" xlink:title="framework">
<polygon fill="#ffffff" stroke="#ff0000" points="84,-36 22,-36 22,0 84,0 84,-36"/>
<text text-anchor="middle" x="53" y="-15.5" font-family="Helvetica,sans-Serif" font-size="10.00" fill="#000000">framework</text>
</a>
</g>
</g>
<!-- dir_f7e371792a83b593d696adf03a390bcd&#45;&gt;dir_644e041c3a6521da7b27eba0e4eb2b95 -->
<g id="edge1" class="edge">
<title>dir_f7e371792a83b593d696adf03a390bcd&#45;&gt;dir_644e041c3a6521da7b27eba0e4eb2b95</title>
<path fill="none" stroke="#000000" d="M53,-71.8314C53,-64.131 53,-54.9743 53,-46.4166"/>
<polygon fill="#000000" stroke="#000000" points="56.5001,-46.4132 53,-36.4133 49.5001,-46.4133 56.5001,-46.4132"/>
<g id="a_edge1&#45;headlabel"><a xlink:href="dir_000001_000069.html" target="_top" xlink:title="32">
<text text-anchor="middle" x="59.3393" y="-47.5079" font-family="Helvetica,sans-Serif" font-size="10.00" fill="#000000">32</text>
</a>
</g>
</g>
</g>
</svg>
