<?xml version="1.0" encoding="UTF-8" standalone="no"?>
<!DOCTYPE svg PUBLIC "-//W3C//DTD SVG 1.1//EN"
 "http://www.w3.org/Graphics/SVG/1.1/DTD/svg11.dtd">
<!-- Generated by graphviz version 2.43.0 (0)
 -->
<!-- Title: /home/runner/work/ramses/ramses/examples/ramses&#45;example&#45;renderonce/src Pages: 1 -->
<svg width="182pt" height="151pt"
 viewBox="0.00 0.00 182.00 151.00" xmlns="http://www.w3.org/2000/svg" xmlns:xlink="http://www.w3.org/1999/xlink">
<g id="graph0" class="graph" transform="scale(1 1) rotate(0) translate(4 147)">
<title>/home/runner/work/ramses/ramses/examples/ramses&#45;example&#45;renderonce/src</title>
<polygon fill="white" stroke="transparent" points="-4,4 -4,-147 178,-147 178,4 -4,4"/>
<g id="clust1" class="cluster">
<title>clusterdir_ca8aa9b292d88dd120a1bafdb0e884d9</title>
<g id="a_clust1"><a xlink:href="dir_ca8aa9b292d88dd120a1bafdb0e884d9.html" target="_top" xlink:title="ramses&#45;example&#45;renderonce">
<polygon fill="#ddddee" stroke="black" points="8,-64 8,-135 166,-135 166,-64 8,-64"/>
<text text-anchor="middle" x="87" y="-123" font-family="Helvetica,sans-Serif" font-size="10.00">ramses&#45;example&#45;renderonce</text>
</a>
</g>
</g>
<!-- dir_13e5986fceea44c1fe84f4cb12063f61 -->
<g id="node1" class="node">
<title>dir_13e5986fceea44c1fe84f4cb12063f61</title>
<g id="a_node1"><a xlink:href="dir_13e5986fceea44c1fe84f4cb12063f61.html" target="_top" xlink:title="src">
<polygon fill="#eeeeff" stroke="black" points="114,-108 60,-108 60,-72 114,-72 114,-108"/>
<text text-anchor="middle" x="87" y="-87.5" font-family="Helvetica,sans-Serif" font-size="10.00">src</text>
</a>
</g>
</g>
<!-- dir_26af246848702a33262a7ef2acf92491 -->
<g id="node2" class="node">
<title>dir_26af246848702a33262a7ef2acf92491</title>
<g id="a_node2"><a xlink:href="dir_26af246848702a33262a7ef2acf92491.html" target="_top" xlink:title="client">
<polygon fill="white" stroke="red" points="114,-36 60,-36 60,0 114,0 114,-36"/>
<text text-anchor="middle" x="87" y="-15.5" font-family="Helvetica,sans-Serif" font-size="10.00">client</text>
</a>
</g>
</g>
<!-- dir_13e5986fceea44c1fe84f4cb12063f61&#45;&gt;dir_26af246848702a33262a7ef2acf92491 -->
<g id="edge1" class="edge">
<title>dir_13e5986fceea44c1fe84f4cb12063f61&#45;&gt;dir_26af246848702a33262a7ef2acf92491</title>
<path fill="none" stroke="black" d="M87,-71.7C87,-63.98 87,-54.71 87,-46.11"/>
<polygon fill="black" stroke="black" points="90.5,-46.1 87,-36.1 83.5,-46.1 90.5,-46.1"/>
<g id="a_edge1&#45;headlabel"><a xlink:href="dir_000075_000001.html" target="_top" xlink:title="2">
<text text-anchor="middle" x="93.34" y="-47.2" font-family="Helvetica,sans-Serif" font-size="10.00">2</text>
</a>
</g>
</g>
</g>
</svg>
