<?xml version="1.0" encoding="UTF-8" standalone="no"?>
<!DOCTYPE svg PUBLIC "-//W3C//DTD SVG 1.1//EN"
 "http://www.w3.org/Graphics/SVG/1.1/DTD/svg11.dtd">
<!-- Generated by graphviz version 2.43.0 (0)
 -->
<!-- Title: /home/runner/work/ramses/ramses/examples/ramses&#45;example&#45;basic&#45;animation&#45;realtime/src Pages: 1 -->
<svg width="251pt" height="151pt"
 viewBox="0.00 0.00 251.00 151.00" xmlns="http://www.w3.org/2000/svg" xmlns:xlink="http://www.w3.org/1999/xlink">
<g id="graph0" class="graph" transform="scale(1 1) rotate(0) translate(4 147)">
<title>/home/runner/work/ramses/ramses/examples/ramses&#45;example&#45;basic&#45;animation&#45;realtime/src</title>
<polygon fill="white" stroke="transparent" points="-4,4 -4,-147 247,-147 247,4 -4,4"/>
<g id="clust1" class="cluster">
<title>clusterdir_54fb5da5608b6c2134b234ac94ae087f</title>
<g id="a_clust1"><a xlink:href="dir_54fb5da5608b6c2134b234ac94ae087f.html" target="_top" xlink:title="ramses&#45;example&#45;basic&#45;animation&#45;realtime">
<polygon fill="#ddddee" stroke="black" points="8,-64 8,-135 235,-135 235,-64 8,-64"/>
<text text-anchor="middle" x="121.5" y="-123" font-family="Helvetica,sans-Serif" font-size="10.00">ramses&#45;example&#45;basic&#45;animation&#45;realtime</text>
</a>
</g>
</g>
<!-- dir_d3be1c79c25cf0d27c18818339a16828 -->
<g id="node1" class="node">
<title>dir_d3be1c79c25cf0d27c18818339a16828</title>
<g id="a_node1"><a xlink:href="dir_d3be1c79c25cf0d27c18818339a16828.html" target="_top" xlink:title="src">
<polygon fill="#eeeeff" stroke="black" points="148,-108 94,-108 94,-72 148,-72 148,-108"/>
<text text-anchor="middle" x="121" y="-87.5" font-family="Helvetica,sans-Serif" font-size="10.00">src</text>
</a>
</g>
</g>
<!-- dir_26af246848702a33262a7ef2acf92491 -->
<g id="node2" class="node">
<title>dir_26af246848702a33262a7ef2acf92491</title>
<g id="a_node2"><a xlink:href="dir_26af246848702a33262a7ef2acf92491.html" target="_top" xlink:title="client">
<polygon fill="white" stroke="red" points="148,-36 94,-36 94,0 148,0 148,-36"/>
<text text-anchor="middle" x="121" y="-15.5" font-family="Helvetica,sans-Serif" font-size="10.00">client</text>
</a>
</g>
</g>
<!-- dir_d3be1c79c25cf0d27c18818339a16828&#45;&gt;dir_26af246848702a33262a7ef2acf92491 -->
<g id="edge1" class="edge">
<title>dir_d3be1c79c25cf0d27c18818339a16828&#45;&gt;dir_26af246848702a33262a7ef2acf92491</title>
<path fill="none" stroke="black" d="M121,-71.7C121,-63.98 121,-54.71 121,-46.11"/>
<polygon fill="black" stroke="black" points="124.5,-46.1 121,-36.1 117.5,-46.1 124.5,-46.1"/>
<g id="a_edge1&#45;headlabel"><a xlink:href="dir_000018_000001.html" target="_top" xlink:title="1">
<text text-anchor="middle" x="127.34" y="-47.2" font-family="Helvetica,sans-Serif" font-size="10.00">1</text>
</a>
</g>
</g>
</g>
</svg>
