<?xml version="1.0" encoding="UTF-8" standalone="no"?>
<!DOCTYPE svg PUBLIC "-//W3C//DTD SVG 1.1//EN"
 "http://www.w3.org/Graphics/SVG/1.1/DTD/svg11.dtd">
<!-- Generated by graphviz version 2.43.0 (0)
 -->
<!-- Title: /c/src/genivi/client Pages: 1 -->
<svg width="196pt" height="132pt"
 viewBox="0.00 0.00 196.00 132.00" xmlns="http://www.w3.org/2000/svg" xmlns:xlink="http://www.w3.org/1999/xlink">
<g id="graph0" class="graph" transform="scale(1 1) rotate(0) translate(4 128)">
<title>/c/src/genivi/client</title>
<polygon fill="white" stroke="transparent" points="-4,4 -4,-128 192,-128 192,4 -4,4"/>
<g id="clust1" class="cluster">
<title>clusterdir_db3a54907829b36871118d03417739cd</title>
<g id="a_clust1"><a xlink:href="dir_db3a54907829b36871118d03417739cd.html" target="_top">
<polygon fill="#eeeeff" stroke="black" points="8,-64 8,-116 180,-116 180,-64 8,-64"/>
</a>
</g>
</g>
<!-- dir_db3a54907829b36871118d03417739cd -->
<g id="node1" class="node">
<title>dir_db3a54907829b36871118d03417739cd</title>
<text text-anchor="middle" x="145" y="-87.5" font-family="Helvetica,sans-Serif" font-size="10.00">client</text>
</g>
<!-- dir_f7e371792a83b593d696adf03a390bcd -->
<g id="node2" class="node">
<title>dir_f7e371792a83b593d696adf03a390bcd</title>
<g id="a_node2"><a xlink:href="dir_f7e371792a83b593d696adf03a390bcd.html" target="_top" xlink:title="ramses&#45;client">
<polygon fill="white" stroke="red" points="99.5,-108 16.5,-108 16.5,-72 99.5,-72 99.5,-108"/>
<text text-anchor="middle" x="58" y="-87.5" font-family="Helvetica,sans-Serif" font-size="10.00">ramses&#45;client</text>
</a>
</g>
</g>
<!-- dir_644e041c3a6521da7b27eba0e4eb2b95 -->
<g id="node3" class="node">
<title>dir_644e041c3a6521da7b27eba0e4eb2b95</title>
<g id="a_node3"><a xlink:href="dir_644e041c3a6521da7b27eba0e4eb2b95.html" target="_top" xlink:title="framework">
<polygon fill="white" stroke="red" points="93,-36 23,-36 23,0 93,0 93,-36"/>
<text text-anchor="middle" x="58" y="-15.5" font-family="Helvetica,sans-Serif" font-size="10.00">framework</text>
</a>
</g>
</g>
<!-- dir_f7e371792a83b593d696adf03a390bcd&#45;&gt;dir_644e041c3a6521da7b27eba0e4eb2b95 -->
<g id="edge1" class="edge">
<title>dir_f7e371792a83b593d696adf03a390bcd&#45;&gt;dir_644e041c3a6521da7b27eba0e4eb2b95</title>
<path fill="none" stroke="black" d="M58,-71.7C58,-63.98 58,-54.71 58,-46.11"/>
<polygon fill="black" stroke="black" points="61.5,-46.1 58,-36.1 54.5,-46.1 61.5,-46.1"/>
<g id="a_edge1&#45;headlabel"><a xlink:href="dir_000001_000075.html" target="_top" xlink:title="32">
<text text-anchor="middle" x="64.34" y="-47.2" font-family="Helvetica,sans-Serif" font-size="10.00">32</text>
</a>
</g>
</g>
</g>
</svg>
