<?xml version="1.0" encoding="UTF-8" standalone="no"?>
<!DOCTYPE svg PUBLIC "-//W3C//DTD SVG 1.1//EN"
 "http://www.w3.org/Graphics/SVG/1.1/DTD/svg11.dtd">
<!-- Generated by graphviz version 2.43.0 (0)
 -->
<!-- Title: /home/runner/work/ramses/ramses/renderer Pages: 1 -->
<svg width="206pt" height="175pt"
 viewBox="0.00 0.00 206.00 175.00" xmlns="http://www.w3.org/2000/svg" xmlns:xlink="http://www.w3.org/1999/xlink">
<g id="graph0" class="graph" transform="scale(1 1) rotate(0) translate(4 171)">
<title>/home/runner/work/ramses/ramses/renderer</title>
<polygon fill="white" stroke="transparent" points="-4,4 -4,-171 202,-171 202,4 -4,4"/>
<g id="clust1" class="cluster">
<title>clusterdir_7c5875acdb68b2d70fb8aa3689b5e655</title>
<g id="a_clust1"><a xlink:href="dir_7c5875acdb68b2d70fb8aa3689b5e655.html" target="_top" xlink:title="ramses">
<polygon fill="#ddddee" stroke="black" points="8,-8 8,-159 190,-159 190,-8 8,-8"/>
<text text-anchor="middle" x="99" y="-147" font-family="Helvetica,sans-Serif" font-size="10.00">ramses</text>
</a>
</g>
</g>
<g id="clust2" class="cluster">
<title>clusterdir_4797b4e6785279b55036fb4e0c62a1b2</title>
<g id="a_clust2"><a xlink:href="dir_4797b4e6785279b55036fb4e0c62a1b2.html" target="_top">
<polygon fill="#eeeeff" stroke="black" points="16,-80 16,-132 182,-132 182,-80 16,-80"/>
</a>
</g>
</g>
<!-- dir_ca8fa6fd603755c533029df5a9606911 -->
<g id="node1" class="node">
<title>dir_ca8fa6fd603755c533029df5a9606911</title>
<g id="a_node1"><a xlink:href="dir_ca8fa6fd603755c533029df5a9606911.html" target="_top" xlink:title="framework">
<polygon fill="white" stroke="red" points="96,-52 26,-52 26,-16 96,-16 96,-52"/>
<text text-anchor="middle" x="61" y="-31.5" font-family="Helvetica,sans-Serif" font-size="10.00">framework</text>
</a>
</g>
</g>
<!-- dir_4797b4e6785279b55036fb4e0c62a1b2 -->
<g id="node2" class="node">
<title>dir_4797b4e6785279b55036fb4e0c62a1b2</title>
<text text-anchor="middle" x="145" y="-103.5" font-family="Helvetica,sans-Serif" font-size="10.00">renderer</text>
</g>
<!-- dir_a3a7c660e810b5001e280646f5df93f6 -->
<g id="node3" class="node">
<title>dir_a3a7c660e810b5001e280646f5df93f6</title>
<g id="a_node3"><a xlink:href="dir_a3a7c660e810b5001e280646f5df93f6.html" target="_top" xlink:title="RendererLib">
<polygon fill="white" stroke="red" points="98.5,-124 23.5,-124 23.5,-88 98.5,-88 98.5,-124"/>
<text text-anchor="middle" x="61" y="-103.5" font-family="Helvetica,sans-Serif" font-size="10.00">RendererLib</text>
</a>
</g>
</g>
<!-- dir_a3a7c660e810b5001e280646f5df93f6&#45;&gt;dir_ca8fa6fd603755c533029df5a9606911 -->
<g id="edge1" class="edge">
<title>dir_a3a7c660e810b5001e280646f5df93f6&#45;&gt;dir_ca8fa6fd603755c533029df5a9606911</title>
<path fill="none" stroke="black" d="M61,-87.7C61,-79.98 61,-70.71 61,-62.11"/>
<polygon fill="black" stroke="black" points="64.5,-62.1 61,-52.1 57.5,-62.1 64.5,-62.1"/>
<g id="a_edge1&#45;headlabel"><a xlink:href="dir_000084_000079.html" target="_top" xlink:title="20">
<text text-anchor="middle" x="67.34" y="-63.2" font-family="Helvetica,sans-Serif" font-size="10.00">20</text>
</a>
</g>
</g>
</g>
</svg>
