<?xml version="1.0" encoding="UTF-8" standalone="no"?>
<!DOCTYPE svg PUBLIC "-//W3C//DTD SVG 1.1//EN"
 "http://www.w3.org/Graphics/SVG/1.1/DTD/svg11.dtd">
<!-- Generated by graphviz version 2.43.0 (0)
 -->
<!-- Title: /home/runner/work/ramses/ramses/examples/ramses&#45;example&#45;geometry&#45;instancing/src Pages: 1 -->
<svg width="228pt" height="151pt"
 viewBox="0.00 0.00 228.00 151.00" xmlns="http://www.w3.org/2000/svg" xmlns:xlink="http://www.w3.org/1999/xlink">
<g id="graph0" class="graph" transform="scale(1 1) rotate(0) translate(4 147)">
<title>/home/runner/work/ramses/ramses/examples/ramses&#45;example&#45;geometry&#45;instancing/src</title>
<polygon fill="white" stroke="transparent" points="-4,4 -4,-147 224,-147 224,4 -4,4"/>
<g id="clust1" class="cluster">
<title>clusterdir_b0241604ade7287c14fbea577de3ec97</title>
<g id="a_clust1"><a xlink:href="dir_b0241604ade7287c14fbea577de3ec97.html" target="_top" xlink:title="ramses&#45;example&#45;geometry&#45;instancing">
<polygon fill="#ddddee" stroke="black" points="8,-64 8,-135 212,-135 212,-64 8,-64"/>
<text text-anchor="middle" x="110" y="-123" font-family="Helvetica,sans-Serif" font-size="10.00">ramses&#45;example&#45;geometry&#45;instancing</text>
</a>
</g>
</g>
<!-- dir_39b2673e7504bbd4bc5a8fd6155c267f -->
<g id="node1" class="node">
<title>dir_39b2673e7504bbd4bc5a8fd6155c267f</title>
<g id="a_node1"><a xlink:href="dir_39b2673e7504bbd4bc5a8fd6155c267f.html" target="_top" xlink:title="src">
<polygon fill="#eeeeff" stroke="black" points="137,-108 83,-108 83,-72 137,-72 137,-108"/>
<text text-anchor="middle" x="110" y="-87.5" font-family="Helvetica,sans-Serif" font-size="10.00">src</text>
</a>
</g>
</g>
<!-- dir_26af246848702a33262a7ef2acf92491 -->
<g id="node2" class="node">
<title>dir_26af246848702a33262a7ef2acf92491</title>
<g id="a_node2"><a xlink:href="dir_26af246848702a33262a7ef2acf92491.html" target="_top" xlink:title="client">
<polygon fill="white" stroke="red" points="137,-36 83,-36 83,0 137,0 137,-36"/>
<text text-anchor="middle" x="110" y="-15.5" font-family="Helvetica,sans-Serif" font-size="10.00">client</text>
</a>
</g>
</g>
<!-- dir_39b2673e7504bbd4bc5a8fd6155c267f&#45;&gt;dir_26af246848702a33262a7ef2acf92491 -->
<g id="edge1" class="edge">
<title>dir_39b2673e7504bbd4bc5a8fd6155c267f&#45;&gt;dir_26af246848702a33262a7ef2acf92491</title>
<path fill="none" stroke="black" d="M110,-71.7C110,-63.98 110,-54.71 110,-46.11"/>
<polygon fill="black" stroke="black" points="113.5,-46.1 110,-36.1 106.5,-46.1 113.5,-46.1"/>
<g id="a_edge1&#45;headlabel"><a xlink:href="dir_000048_000001.html" target="_top" xlink:title="1">
<text text-anchor="middle" x="116.34" y="-47.2" font-family="Helvetica,sans-Serif" font-size="10.00">1</text>
</a>
</g>
</g>
</g>
</svg>
