<?xml version="1.0" encoding="UTF-8" standalone="no"?>
<!DOCTYPE svg PUBLIC "-//W3C//DTD SVG 1.1//EN"
 "http://www.w3.org/Graphics/SVG/1.1/DTD/svg11.dtd">
<!-- Generated by graphviz version 2.43.0 (0)
 -->
<!-- Title: /home/runner/work/ramses/ramses/examples/ramses&#45;example&#45;local&#45;scene&#45;referencing/src Pages: 1 -->
<svg width="242pt" height="151pt"
 viewBox="0.00 0.00 242.00 151.00" xmlns="http://www.w3.org/2000/svg" xmlns:xlink="http://www.w3.org/1999/xlink">
<g id="graph0" class="graph" transform="scale(1 1) rotate(0) translate(4 147)">
<title>/home/runner/work/ramses/ramses/examples/ramses&#45;example&#45;local&#45;scene&#45;referencing/src</title>
<polygon fill="white" stroke="transparent" points="-4,4 -4,-147 238,-147 238,4 -4,4"/>
<g id="clust1" class="cluster">
<title>clusterdir_d2d28bbd44dfb0e4d3f54d3da9b7f363</title>
<g id="a_clust1"><a xlink:href="dir_d2d28bbd44dfb0e4d3f54d3da9b7f363.html" target="_top" xlink:title="ramses&#45;example&#45;local&#45;scene&#45;referencing">
<polygon fill="#ddddee" stroke="black" points="8,-64 8,-135 226,-135 226,-64 8,-64"/>
<text text-anchor="middle" x="117" y="-123" font-family="Helvetica,sans-Serif" font-size="10.00">ramses&#45;example&#45;local&#45;scene&#45;referencing</text>
</a>
</g>
</g>
<!-- dir_6da4d8dbc1398573b19364573c269ffb -->
<g id="node1" class="node">
<title>dir_6da4d8dbc1398573b19364573c269ffb</title>
<g id="a_node1"><a xlink:href="dir_6da4d8dbc1398573b19364573c269ffb.html" target="_top" xlink:title="src">
<polygon fill="#eeeeff" stroke="black" points="144,-108 90,-108 90,-72 144,-72 144,-108"/>
<text text-anchor="middle" x="117" y="-87.5" font-family="Helvetica,sans-Serif" font-size="10.00">src</text>
</a>
</g>
</g>
<!-- dir_26af246848702a33262a7ef2acf92491 -->
<g id="node2" class="node">
<title>dir_26af246848702a33262a7ef2acf92491</title>
<g id="a_node2"><a xlink:href="dir_26af246848702a33262a7ef2acf92491.html" target="_top" xlink:title="client">
<polygon fill="white" stroke="red" points="107,-36 53,-36 53,0 107,0 107,-36"/>
<text text-anchor="middle" x="80" y="-15.5" font-family="Helvetica,sans-Serif" font-size="10.00">client</text>
</a>
</g>
</g>
<!-- dir_6da4d8dbc1398573b19364573c269ffb&#45;&gt;dir_26af246848702a33262a7ef2acf92491 -->
<g id="edge1" class="edge">
<title>dir_6da4d8dbc1398573b19364573c269ffb&#45;&gt;dir_26af246848702a33262a7ef2acf92491</title>
<path fill="none" stroke="black" d="M107.85,-71.7C103.6,-63.64 98.44,-53.89 93.73,-44.98"/>
<polygon fill="black" stroke="black" points="96.81,-43.31 89.04,-36.1 90.62,-46.58 96.81,-43.31"/>
<g id="a_edge1&#45;headlabel"><a xlink:href="dir_000068_000001.html" target="_top" xlink:title="3">
<text text-anchor="middle" x="101" y="-42.66" font-family="Helvetica,sans-Serif" font-size="10.00">3</text>
</a>
</g>
</g>
<!-- dir_4797b4e6785279b55036fb4e0c62a1b2 -->
<g id="node3" class="node">
<title>dir_4797b4e6785279b55036fb4e0c62a1b2</title>
<g id="a_node3"><a xlink:href="dir_4797b4e6785279b55036fb4e0c62a1b2.html" target="_top" xlink:title="renderer">
<polygon fill="white" stroke="red" points="183,-36 125,-36 125,0 183,0 183,-36"/>
<text text-anchor="middle" x="154" y="-15.5" font-family="Helvetica,sans-Serif" font-size="10.00">renderer</text>
</a>
</g>
</g>
<!-- dir_6da4d8dbc1398573b19364573c269ffb&#45;&gt;dir_4797b4e6785279b55036fb4e0c62a1b2 -->
<g id="edge2" class="edge">
<title>dir_6da4d8dbc1398573b19364573c269ffb&#45;&gt;dir_4797b4e6785279b55036fb4e0c62a1b2</title>
<path fill="none" stroke="black" d="M126.15,-71.7C130.4,-63.64 135.56,-53.89 140.27,-44.98"/>
<polygon fill="black" stroke="black" points="143.38,-46.58 144.96,-36.1 137.19,-43.31 143.38,-46.58"/>
<g id="a_edge2&#45;headlabel"><a xlink:href="dir_000068_000083.html" target="_top" xlink:title="4">
<text text-anchor="middle" x="144.21" y="-48.59" font-family="Helvetica,sans-Serif" font-size="10.00">4</text>
</a>
</g>
</g>
</g>
</svg>
