<?xml version="1.0" encoding="UTF-8" standalone="no"?>
<!DOCTYPE svg PUBLIC "-//W3C//DTD SVG 1.1//EN"
 "http://www.w3.org/Graphics/SVG/1.1/DTD/svg11.dtd">
<!-- Generated by graphviz version 2.43.0 (0)
 -->
<!-- Title: /home/runner/work/ramses/ramses/client/ramses&#45;client Pages: 1 -->
<svg width="374pt" height="159pt"
 viewBox="0.00 0.00 374.00 159.00" xmlns="http://www.w3.org/2000/svg" xmlns:xlink="http://www.w3.org/1999/xlink">
<g id="graph0" class="graph" transform="scale(1 1) rotate(0) translate(4 155)">
<title>/home/runner/work/ramses/ramses/client/ramses&#45;client</title>
<polygon fill="white" stroke="transparent" points="-4,4 -4,-155 370,-155 370,4 -4,4"/>
<g id="clust1" class="cluster">
<title>clusterdir_26af246848702a33262a7ef2acf92491</title>
<g id="a_clust1"><a xlink:href="dir_26af246848702a33262a7ef2acf92491.html" target="_top" xlink:title="client">
<polygon fill="#ddddee" stroke="black" points="8,-56 8,-143 358,-143 358,-56 8,-56"/>
<text text-anchor="middle" x="183" y="-131" font-family="Helvetica,sans-Serif" font-size="10.00">client</text>
</a>
</g>
</g>
<g id="clust2" class="cluster">
<title>clusterdir_ac70ea64e2890c36f9947e5bc2f78a20</title>
<g id="a_clust2"><a xlink:href="dir_ac70ea64e2890c36f9947e5bc2f78a20.html" target="_top">
<polygon fill="#eeeeff" stroke="black" points="16,-64 16,-116 350,-116 350,-64 16,-64"/>
</a>
</g>
</g>
<!-- dir_ac70ea64e2890c36f9947e5bc2f78a20 -->
<g id="node1" class="node">
<title>dir_ac70ea64e2890c36f9947e5bc2f78a20</title>
<text text-anchor="middle" x="300" y="-87.5" font-family="Helvetica,sans-Serif" font-size="10.00">ramses&#45;client</text>
</g>
<!-- dir_e4fa828c9057458df97f7d6df3a49d6d -->
<g id="node2" class="node">
<title>dir_e4fa828c9057458df97f7d6df3a49d6d</title>
<g id="a_node2"><a xlink:href="dir_e4fa828c9057458df97f7d6df3a49d6d.html" target="_top" xlink:title="ramses&#45;client&#45;api">
<polygon fill="white" stroke="red" points="240,-108 138,-108 138,-72 240,-72 240,-108"/>
<text text-anchor="middle" x="189" y="-87.5" font-family="Helvetica,sans-Serif" font-size="10.00">ramses&#45;client&#45;api</text>
</a>
</g>
</g>
<!-- dir_ca8fa6fd603755c533029df5a9606911 -->
<g id="node4" class="node">
<title>dir_ca8fa6fd603755c533029df5a9606911</title>
<g id="a_node4"><a xlink:href="dir_ca8fa6fd603755c533029df5a9606911.html" target="_top" xlink:title="framework">
<polygon fill="white" stroke="red" points="165,-36 95,-36 95,0 165,0 165,-36"/>
<text text-anchor="middle" x="130" y="-15.5" font-family="Helvetica,sans-Serif" font-size="10.00">framework</text>
</a>
</g>
</g>
<!-- dir_e4fa828c9057458df97f7d6df3a49d6d&#45;&gt;dir_ca8fa6fd603755c533029df5a9606911 -->
<g id="edge2" class="edge">
<title>dir_e4fa828c9057458df97f7d6df3a49d6d&#45;&gt;dir_ca8fa6fd603755c533029df5a9606911</title>
<path fill="none" stroke="black" d="M174.42,-71.7C167.34,-63.3 158.72,-53.07 150.95,-43.86"/>
<polygon fill="black" stroke="black" points="153.54,-41.49 144.42,-36.1 148.19,-46.01 153.54,-41.49"/>
<g id="a_edge2&#45;headlabel"><a xlink:href="dir_000003_000079.html" target="_top" xlink:title="29">
<text text-anchor="middle" x="158.03" y="-39.91" font-family="Helvetica,sans-Serif" font-size="10.00">29</text>
</a>
</g>
</g>
<!-- dir_e1da186663d25bfac7a90dd8f11e2e59 -->
<g id="node3" class="node">
<title>dir_e1da186663d25bfac7a90dd8f11e2e59</title>
<g id="a_node3"><a xlink:href="dir_e1da186663d25bfac7a90dd8f11e2e59.html" target="_top" xlink:title="ramses&#45;text&#45;api">
<polygon fill="white" stroke="red" points="119.5,-108 24.5,-108 24.5,-72 119.5,-72 119.5,-108"/>
<text text-anchor="middle" x="72" y="-87.5" font-family="Helvetica,sans-Serif" font-size="10.00">ramses&#45;text&#45;api</text>
</a>
</g>
</g>
<!-- dir_e1da186663d25bfac7a90dd8f11e2e59&#45;&gt;dir_ca8fa6fd603755c533029df5a9606911 -->
<g id="edge1" class="edge">
<title>dir_e1da186663d25bfac7a90dd8f11e2e59&#45;&gt;dir_ca8fa6fd603755c533029df5a9606911</title>
<path fill="none" stroke="black" d="M86.34,-71.7C93.29,-63.3 101.77,-53.07 109.4,-43.86"/>
<polygon fill="black" stroke="black" points="112.14,-46.04 115.83,-36.1 106.75,-41.57 112.14,-46.04"/>
<g id="a_edge1&#45;headlabel"><a xlink:href="dir_000006_000079.html" target="_top" xlink:title="3">
<text text-anchor="middle" x="112.04" y="-48.12" font-family="Helvetica,sans-Serif" font-size="10.00">3</text>
</a>
</g>
</g>
</g>
</svg>
