<?xml version="1.0" encoding="UTF-8" standalone="no"?>
<!DOCTYPE svg PUBLIC "-//W3C//DTD SVG 1.1//EN"
 "http://www.w3.org/Graphics/SVG/1.1/DTD/svg11.dtd">
<!-- Generated by graphviz version 2.40.1 (20161225.0304)
 -->
<!-- Title: /home/ramses/dev/oss&#45;ramses/examples/ramses&#45;example&#45;local&#45;pick&#45;handling/src Pages: 1 -->
<svg width="196pt" height="223pt"
 viewBox="0.00 0.00 196.00 223.00" xmlns="http://www.w3.org/2000/svg" xmlns:xlink="http://www.w3.org/1999/xlink">
<g id="graph0" class="graph" transform="scale(1 1) rotate(0) translate(4 219)">
<title>/home/ramses/dev/oss&#45;ramses/examples/ramses&#45;example&#45;local&#45;pick&#45;handling/src</title>
<polygon fill="#ffffff" stroke="transparent" points="-4,4 -4,-219 192,-219 192,4 -4,4"/>
<g id="clust1" class="cluster">
<title>clusterdir_7c1bbcc314943e3db5a79e8771697325</title>
<g id="a_clust1"><a xlink:href="dir_7c1bbcc314943e3db5a79e8771697325.html" target="_top" xlink:title="ramses&#45;example&#45;local&#45;pick&#45;handling">
<polygon fill="#ddddee" stroke="#000000" points="8,-136 8,-207 180,-207 180,-136 8,-136"/>
<text text-anchor="middle" x="94" y="-195" font-family="Helvetica,sans-Serif" font-size="10.00" fill="#000000">ramses&#45;example&#45;local&#45;pick&#45;handling</text>
</a>
</g>
</g>
<!-- dir_e39b3d8a52500e21a177650c0e464c05 -->
<g id="node1" class="node">
<title>dir_e39b3d8a52500e21a177650c0e464c05</title>
<g id="a_node1"><a xlink:href="dir_e39b3d8a52500e21a177650c0e464c05.html" target="_top" xlink:title="src">
<polygon fill="#eeeeff" stroke="#000000" points="121,-180 67,-180 67,-144 121,-144 121,-180"/>
<text text-anchor="middle" x="94" y="-159.5" font-family="Helvetica,sans-Serif" font-size="10.00" fill="#000000">src</text>
</a>
</g>
</g>
<!-- dir_db3a54907829b36871118d03417739cd -->
<g id="node2" class="node">
<title>dir_db3a54907829b36871118d03417739cd</title>
<g id="a_node2"><a xlink:href="dir_db3a54907829b36871118d03417739cd.html" target="_top" xlink:title="client">
<polygon fill="#ffffff" stroke="#ff0000" points="66,-108 12,-108 12,-72 66,-72 66,-108"/>
<text text-anchor="middle" x="39" y="-87.5" font-family="Helvetica,sans-Serif" font-size="10.00" fill="#000000">client</text>
</a>
</g>
</g>
<!-- dir_e39b3d8a52500e21a177650c0e464c05&#45;&gt;dir_db3a54907829b36871118d03417739cd -->
<g id="edge2" class="edge">
<title>dir_e39b3d8a52500e21a177650c0e464c05&#45;&gt;dir_db3a54907829b36871118d03417739cd</title>
<path fill="none" stroke="#000000" d="M80.1212,-143.8314C73.7864,-135.5386 66.1616,-125.557 59.2074,-116.4533"/>
<polygon fill="#000000" stroke="#000000" points="61.9175,-114.2353 53.0657,-108.4133 56.3548,-118.4847 61.9175,-114.2353"/>
<g id="a_edge2&#45;headlabel"><a xlink:href="dir_000056_000000.html" target="_top" xlink:title="3">
<text text-anchor="middle" x="66.3558" y="-112.8683" font-family="Helvetica,sans-Serif" font-size="10.00" fill="#000000">3</text>
</a>
</g>
</g>
<!-- dir_644e041c3a6521da7b27eba0e4eb2b95 -->
<g id="node3" class="node">
<title>dir_644e041c3a6521da7b27eba0e4eb2b95</title>
<g id="a_node3"><a xlink:href="dir_644e041c3a6521da7b27eba0e4eb2b95.html" target="_top" xlink:title="framework">
<polygon fill="#ffffff" stroke="#ff0000" points="125,-36 63,-36 63,0 125,0 125,-36"/>
<text text-anchor="middle" x="94" y="-15.5" font-family="Helvetica,sans-Serif" font-size="10.00" fill="#000000">framework</text>
</a>
</g>
</g>
<!-- dir_e39b3d8a52500e21a177650c0e464c05&#45;&gt;dir_644e041c3a6521da7b27eba0e4eb2b95 -->
<g id="edge3" class="edge">
<title>dir_e39b3d8a52500e21a177650c0e464c05&#45;&gt;dir_644e041c3a6521da7b27eba0e4eb2b95</title>
<path fill="none" stroke="#000000" d="M94,-143.7623C94,-119.201 94,-75.2474 94,-46.3541"/>
<polygon fill="#000000" stroke="#000000" points="97.5001,-46.0896 94,-36.0896 90.5001,-46.0897 97.5001,-46.0896"/>
<g id="a_edge3&#45;headlabel"><a xlink:href="dir_000056_000069.html" target="_top" xlink:title="1">
<text text-anchor="middle" x="100.3393" y="-47.1842" font-family="Helvetica,sans-Serif" font-size="10.00" fill="#000000">1</text>
</a>
</g>
</g>
<!-- dir_d10aa5f1e26260a914a037377583e9a7 -->
<g id="node4" class="node">
<title>dir_d10aa5f1e26260a914a037377583e9a7</title>
<g id="a_node4"><a xlink:href="dir_d10aa5f1e26260a914a037377583e9a7.html" target="_top" xlink:title="renderer">
<polygon fill="#ffffff" stroke="#ff0000" points="176,-108 122,-108 122,-72 176,-72 176,-108"/>
<text text-anchor="middle" x="149" y="-87.5" font-family="Helvetica,sans-Serif" font-size="10.00" fill="#000000">renderer</text>
</a>
</g>
</g>
<!-- dir_e39b3d8a52500e21a177650c0e464c05&#45;&gt;dir_d10aa5f1e26260a914a037377583e9a7 -->
<g id="edge4" class="edge">
<title>dir_e39b3d8a52500e21a177650c0e464c05&#45;&gt;dir_d10aa5f1e26260a914a037377583e9a7</title>
<path fill="none" stroke="#000000" d="M107.8788,-143.8314C114.2136,-135.5386 121.8384,-125.557 128.7926,-116.4533"/>
<polygon fill="#000000" stroke="#000000" points="131.6452,-118.4847 134.9343,-108.4133 126.0825,-114.2353 131.6452,-118.4847"/>
<g id="a_edge4&#45;headlabel"><a xlink:href="dir_000056_000073.html" target="_top" xlink:title="5">
<text text-anchor="middle" x="131.7195" y="-120.5647" font-family="Helvetica,sans-Serif" font-size="10.00" fill="#000000">5</text>
</a>
</g>
</g>
<!-- dir_db3a54907829b36871118d03417739cd&#45;&gt;dir_644e041c3a6521da7b27eba0e4eb2b95 -->
<g id="edge1" class="edge">
<title>dir_db3a54907829b36871118d03417739cd&#45;&gt;dir_644e041c3a6521da7b27eba0e4eb2b95</title>
<path fill="none" stroke="#000000" d="M52.8788,-71.8314C59.2136,-63.5386 66.8384,-53.557 73.7926,-44.4533"/>
<polygon fill="#000000" stroke="#000000" points="76.6452,-46.4847 79.9343,-36.4133 71.0825,-42.2353 76.6452,-46.4847"/>
<g id="a_edge1&#45;headlabel"><a xlink:href="dir_000000_000069.html" target="_top" xlink:title="32">
<text text-anchor="middle" x="76.7195" y="-48.5647" font-family="Helvetica,sans-Serif" font-size="10.00" fill="#000000">32</text>
</a>
</g>
</g>
<!-- dir_d10aa5f1e26260a914a037377583e9a7&#45;&gt;dir_644e041c3a6521da7b27eba0e4eb2b95 -->
<g id="edge5" class="edge">
<title>dir_d10aa5f1e26260a914a037377583e9a7&#45;&gt;dir_644e041c3a6521da7b27eba0e4eb2b95</title>
<path fill="none" stroke="#000000" d="M135.1212,-71.8314C128.7864,-63.5386 121.1616,-53.557 114.2074,-44.4533"/>
<polygon fill="#000000" stroke="#000000" points="116.9175,-42.2353 108.0657,-36.4133 111.3548,-46.4847 116.9175,-42.2353"/>
<g id="a_edge5&#45;headlabel"><a xlink:href="dir_000073_000069.html" target="_top" xlink:title="20">
<text text-anchor="middle" x="121.3558" y="-40.8683" font-family="Helvetica,sans-Serif" font-size="10.00" fill="#000000">20</text>
</a>
</g>
</g>
</g>
</svg>
