<?xml version="1.0" encoding="UTF-8" standalone="no"?>
<!DOCTYPE svg PUBLIC "-//W3C//DTD SVG 1.1//EN"
 "http://www.w3.org/Graphics/SVG/1.1/DTD/svg11.dtd">
<!-- Generated by graphviz version 2.43.0 (0)
 -->
<!-- Title: /home/runner/work/ramses/ramses/examples/ramses&#45;example&#45;local&#45;pick&#45;handling/src Pages: 1 -->
<svg width="220pt" height="223pt"
 viewBox="0.00 0.00 220.00 223.00" xmlns="http://www.w3.org/2000/svg" xmlns:xlink="http://www.w3.org/1999/xlink">
<g id="graph0" class="graph" transform="scale(1 1) rotate(0) translate(4 219)">
<title>/home/runner/work/ramses/ramses/examples/ramses&#45;example&#45;local&#45;pick&#45;handling/src</title>
<polygon fill="white" stroke="transparent" points="-4,4 -4,-219 216,-219 216,4 -4,4"/>
<g id="clust1" class="cluster">
<title>clusterdir_d62f9b9eab41c457eea3559aecae9ba5</title>
<g id="a_clust1"><a xlink:href="dir_d62f9b9eab41c457eea3559aecae9ba5.html" target="_top" xlink:title="ramses&#45;example&#45;local&#45;pick&#45;handling">
<polygon fill="#ddddee" stroke="black" points="8,-136 8,-207 204,-207 204,-136 8,-136"/>
<text text-anchor="middle" x="106" y="-195" font-family="Helvetica,sans-Serif" font-size="10.00">ramses&#45;example&#45;local&#45;pick&#45;handling</text>
</a>
</g>
</g>
<!-- dir_83311e8295ce2d69ca4df24758b56673 -->
<g id="node1" class="node">
<title>dir_83311e8295ce2d69ca4df24758b56673</title>
<g id="a_node1"><a xlink:href="dir_83311e8295ce2d69ca4df24758b56673.html" target="_top" xlink:title="src">
<polygon fill="#eeeeff" stroke="black" points="133,-180 79,-180 79,-144 133,-144 133,-180"/>
<text text-anchor="middle" x="106" y="-159.5" font-family="Helvetica,sans-Serif" font-size="10.00">src</text>
</a>
</g>
</g>
<!-- dir_26af246848702a33262a7ef2acf92491 -->
<g id="node2" class="node">
<title>dir_26af246848702a33262a7ef2acf92491</title>
<g id="a_node2"><a xlink:href="dir_26af246848702a33262a7ef2acf92491.html" target="_top" xlink:title="client">
<polygon fill="white" stroke="red" points="59,-108 5,-108 5,-72 59,-72 59,-108"/>
<text text-anchor="middle" x="32" y="-87.5" font-family="Helvetica,sans-Serif" font-size="10.00">client</text>
</a>
</g>
</g>
<!-- dir_83311e8295ce2d69ca4df24758b56673&#45;&gt;dir_26af246848702a33262a7ef2acf92491 -->
<g id="edge2" class="edge">
<title>dir_83311e8295ce2d69ca4df24758b56673&#45;&gt;dir_26af246848702a33262a7ef2acf92491</title>
<path fill="none" stroke="black" d="M87.71,-143.7C78.57,-135.05 67.36,-124.45 57.4,-115.03"/>
<polygon fill="black" stroke="black" points="59.75,-112.43 50.08,-108.1 54.94,-117.52 59.75,-112.43"/>
<g id="a_edge2&#45;headlabel"><a xlink:href="dir_000067_000001.html" target="_top" xlink:title="3">
<text text-anchor="middle" x="64.31" y="-110.34" font-family="Helvetica,sans-Serif" font-size="10.00">3</text>
</a>
</g>
</g>
<!-- dir_4797b4e6785279b55036fb4e0c62a1b2 -->
<g id="node3" class="node">
<title>dir_4797b4e6785279b55036fb4e0c62a1b2</title>
<g id="a_node3"><a xlink:href="dir_4797b4e6785279b55036fb4e0c62a1b2.html" target="_top" xlink:title="renderer">
<polygon fill="white" stroke="red" points="135,-108 77,-108 77,-72 135,-72 135,-108"/>
<text text-anchor="middle" x="106" y="-87.5" font-family="Helvetica,sans-Serif" font-size="10.00">renderer</text>
</a>
</g>
</g>
<!-- dir_83311e8295ce2d69ca4df24758b56673&#45;&gt;dir_4797b4e6785279b55036fb4e0c62a1b2 -->
<g id="edge3" class="edge">
<title>dir_83311e8295ce2d69ca4df24758b56673&#45;&gt;dir_4797b4e6785279b55036fb4e0c62a1b2</title>
<path fill="none" stroke="black" d="M106,-143.7C106,-135.98 106,-126.71 106,-118.11"/>
<polygon fill="black" stroke="black" points="109.5,-118.1 106,-108.1 102.5,-118.1 109.5,-118.1"/>
<g id="a_edge3&#45;headlabel"><a xlink:href="dir_000067_000084.html" target="_top" xlink:title="5">
<text text-anchor="middle" x="112.34" y="-119.2" font-family="Helvetica,sans-Serif" font-size="10.00">5</text>
</a>
</g>
</g>
<!-- dir_ca8fa6fd603755c533029df5a9606911 -->
<g id="node4" class="node">
<title>dir_ca8fa6fd603755c533029df5a9606911</title>
<g id="a_node4"><a xlink:href="dir_ca8fa6fd603755c533029df5a9606911.html" target="_top" xlink:title="framework">
<polygon fill="white" stroke="red" points="141,-36 71,-36 71,0 141,0 141,-36"/>
<text text-anchor="middle" x="106" y="-15.5" font-family="Helvetica,sans-Serif" font-size="10.00">framework</text>
</a>
</g>
</g>
<!-- dir_83311e8295ce2d69ca4df24758b56673&#45;&gt;dir_ca8fa6fd603755c533029df5a9606911 -->
<g id="edge4" class="edge">
<title>dir_83311e8295ce2d69ca4df24758b56673&#45;&gt;dir_ca8fa6fd603755c533029df5a9606911</title>
<path fill="none" stroke="black" d="M122.46,-143.92C130.65,-134.22 139.7,-121.37 144,-108 148.9,-92.77 148.9,-87.23 144,-72 140.81,-62.08 135,-52.44 128.87,-44.17"/>
<polygon fill="black" stroke="black" points="131.42,-41.74 122.46,-36.08 125.93,-46.09 131.42,-41.74"/>
<g id="a_edge4&#45;headlabel"><a xlink:href="dir_000067_000080.html" target="_top" xlink:title="1">
<text text-anchor="middle" x="135.88" y="-40.3" font-family="Helvetica,sans-Serif" font-size="10.00">1</text>
</a>
</g>
</g>
<!-- dir_26af246848702a33262a7ef2acf92491&#45;&gt;dir_ca8fa6fd603755c533029df5a9606911 -->
<g id="edge1" class="edge">
<title>dir_26af246848702a33262a7ef2acf92491&#45;&gt;dir_ca8fa6fd603755c533029df5a9606911</title>
<path fill="none" stroke="black" d="M50.29,-71.7C59.43,-63.05 70.64,-52.45 80.6,-43.03"/>
<polygon fill="black" stroke="black" points="83.06,-45.52 87.92,-36.1 78.25,-40.43 83.06,-45.52"/>
<g id="a_edge1&#45;headlabel"><a xlink:href="dir_000001_000080.html" target="_top" xlink:title="32">
<text text-anchor="middle" x="82.4" y="-47.55" font-family="Helvetica,sans-Serif" font-size="10.00">32</text>
</a>
</g>
</g>
<!-- dir_4797b4e6785279b55036fb4e0c62a1b2&#45;&gt;dir_ca8fa6fd603755c533029df5a9606911 -->
<g id="edge5" class="edge">
<title>dir_4797b4e6785279b55036fb4e0c62a1b2&#45;&gt;dir_ca8fa6fd603755c533029df5a9606911</title>
<path fill="none" stroke="black" d="M106,-71.7C106,-63.98 106,-54.71 106,-46.11"/>
<polygon fill="black" stroke="black" points="109.5,-46.1 106,-36.1 102.5,-46.1 109.5,-46.1"/>
<g id="a_edge5&#45;headlabel"><a xlink:href="dir_000084_000080.html" target="_top" xlink:title="20">
<text text-anchor="middle" x="112.34" y="-47.2" font-family="Helvetica,sans-Serif" font-size="10.00">20</text>
</a>
</g>
</g>
</g>
</svg>
