<?xml version="1.0" encoding="UTF-8" standalone="no"?>
<!DOCTYPE svg PUBLIC "-//W3C//DTD SVG 1.1//EN"
 "http://www.w3.org/Graphics/SVG/1.1/DTD/svg11.dtd">
<!-- Generated by graphviz version 2.43.0 (0)
 -->
<!-- Title: /home/runner/work/ramses/ramses/examples/ramses&#45;example&#45;dcsm&#45;provider Pages: 1 -->
<svg width="306pt" height="231pt"
 viewBox="0.00 0.00 306.00 231.00" xmlns="http://www.w3.org/2000/svg" xmlns:xlink="http://www.w3.org/1999/xlink">
<g id="graph0" class="graph" transform="scale(1 1) rotate(0) translate(4 227)">
<title>/home/runner/work/ramses/ramses/examples/ramses&#45;example&#45;dcsm&#45;provider</title>
<polygon fill="white" stroke="transparent" points="-4,4 -4,-227 302,-227 302,4 -4,4"/>
<g id="clust1" class="cluster">
<title>clusterdir_98010d7d16e66236fc0a724a9f75a528</title>
<g id="a_clust1"><a xlink:href="dir_98010d7d16e66236fc0a724a9f75a528.html" target="_top" xlink:title="examples">
<polygon fill="#ddddee" stroke="black" points="12,-128 12,-215 290,-215 290,-128 12,-128"/>
<text text-anchor="middle" x="151" y="-203" font-family="Helvetica,sans-Serif" font-size="10.00">examples</text>
</a>
</g>
</g>
<g id="clust2" class="cluster">
<title>clusterdir_cbe14d32a39f2878b6467f59e2948968</title>
<g id="a_clust2"><a xlink:href="dir_cbe14d32a39f2878b6467f59e2948968.html" target="_top">
<polygon fill="#eeeeff" stroke="black" points="20,-136 20,-188 282,-188 282,-136 20,-136"/>
</a>
</g>
</g>
<!-- dir_cbe14d32a39f2878b6467f59e2948968 -->
<g id="node1" class="node">
<title>dir_cbe14d32a39f2878b6467f59e2948968</title>
<text text-anchor="middle" x="187" y="-159.5" font-family="Helvetica,sans-Serif" font-size="10.00">ramses&#45;example&#45;dcsm&#45;provider</text>
</g>
<!-- dir_a4ebb0c1ffcf1058a282a2d48f142de5 -->
<g id="node2" class="node">
<title>dir_a4ebb0c1ffcf1058a282a2d48f142de5</title>
<g id="a_node2"><a xlink:href="dir_a4ebb0c1ffcf1058a282a2d48f142de5.html" target="_top" xlink:title="src">
<polygon fill="white" stroke="black" points="82,-180 28,-180 28,-144 82,-144 82,-180"/>
<text text-anchor="middle" x="55" y="-159.5" font-family="Helvetica,sans-Serif" font-size="10.00">src</text>
</a>
</g>
</g>
<!-- dir_26af246848702a33262a7ef2acf92491 -->
<g id="node3" class="node">
<title>dir_26af246848702a33262a7ef2acf92491</title>
<g id="a_node3"><a xlink:href="dir_26af246848702a33262a7ef2acf92491.html" target="_top" xlink:title="client">
<polygon fill="white" stroke="red" points="54,-108 0,-108 0,-72 54,-72 54,-108"/>
<text text-anchor="middle" x="27" y="-87.5" font-family="Helvetica,sans-Serif" font-size="10.00">client</text>
</a>
</g>
</g>
<!-- dir_a4ebb0c1ffcf1058a282a2d48f142de5&#45;&gt;dir_26af246848702a33262a7ef2acf92491 -->
<g id="edge2" class="edge">
<title>dir_a4ebb0c1ffcf1058a282a2d48f142de5&#45;&gt;dir_26af246848702a33262a7ef2acf92491</title>
<path fill="none" stroke="black" d="M48.08,-143.7C44.93,-135.81 41.12,-126.3 37.62,-117.55"/>
<polygon fill="black" stroke="black" points="40.81,-116.09 33.84,-108.1 34.31,-118.69 40.81,-116.09"/>
<g id="a_edge2&#45;headlabel"><a xlink:href="dir_000047_000001.html" target="_top" xlink:title="2">
<text text-anchor="middle" x="44.78" y="-115.87" font-family="Helvetica,sans-Serif" font-size="10.00">2</text>
</a>
</g>
</g>
<!-- dir_ca8fa6fd603755c533029df5a9606911 -->
<g id="node4" class="node">
<title>dir_ca8fa6fd603755c533029df5a9606911</title>
<g id="a_node4"><a xlink:href="dir_ca8fa6fd603755c533029df5a9606911.html" target="_top" xlink:title="framework">
<polygon fill="white" stroke="red" points="89,-36 19,-36 19,0 89,0 89,-36"/>
<text text-anchor="middle" x="54" y="-15.5" font-family="Helvetica,sans-Serif" font-size="10.00">framework</text>
</a>
</g>
</g>
<!-- dir_a4ebb0c1ffcf1058a282a2d48f142de5&#45;&gt;dir_ca8fa6fd603755c533029df5a9606911 -->
<g id="edge3" class="edge">
<title>dir_a4ebb0c1ffcf1058a282a2d48f142de5&#45;&gt;dir_ca8fa6fd603755c533029df5a9606911</title>
<path fill="none" stroke="black" d="M58.25,-143.89C60.05,-133.54 62.09,-120.06 63,-108 64.2,-92.04 64.34,-87.94 63,-72 62.28,-63.5 60.93,-54.31 59.49,-46.01"/>
<polygon fill="black" stroke="black" points="62.91,-45.29 57.65,-36.09 56.03,-46.56 62.91,-45.29"/>
<g id="a_edge3&#45;headlabel"><a xlink:href="dir_000047_000080.html" target="_top" xlink:title="3">
<text text-anchor="middle" x="66.36" y="-45.81" font-family="Helvetica,sans-Serif" font-size="10.00">3</text>
</a>
</g>
</g>
<!-- dir_26af246848702a33262a7ef2acf92491&#45;&gt;dir_ca8fa6fd603755c533029df5a9606911 -->
<g id="edge1" class="edge">
<title>dir_26af246848702a33262a7ef2acf92491&#45;&gt;dir_ca8fa6fd603755c533029df5a9606911</title>
<path fill="none" stroke="black" d="M33.67,-71.7C36.71,-63.81 40.38,-54.3 43.76,-45.55"/>
<polygon fill="black" stroke="black" points="47.07,-46.69 47.4,-36.1 40.54,-44.17 47.07,-46.69"/>
<g id="a_edge1&#45;headlabel"><a xlink:href="dir_000001_000080.html" target="_top" xlink:title="32">
<text text-anchor="middle" x="48.42" y="-48.57" font-family="Helvetica,sans-Serif" font-size="10.00">32</text>
</a>
</g>
</g>
</g>
</svg>
