<?xml version="1.0" encoding="UTF-8" standalone="no"?>
<!DOCTYPE svg PUBLIC "-//W3C//DTD SVG 1.1//EN"
 "http://www.w3.org/Graphics/SVG/1.1/DTD/svg11.dtd">
<!-- Generated by graphviz version 2.40.1 (20161225.0304)
 -->
<!-- Title: /home/ramses/dev/oss&#45;ramses/examples/ramses&#45;example&#45;local&#45;client&#45;dcsm/src Pages: 1 -->
<svg width="189pt" height="223pt"
 viewBox="0.00 0.00 189.00 223.00" xmlns="http://www.w3.org/2000/svg" xmlns:xlink="http://www.w3.org/1999/xlink">
<g id="graph0" class="graph" transform="scale(1 1) rotate(0) translate(4 219)">
<title>/home/ramses/dev/oss&#45;ramses/examples/ramses&#45;example&#45;local&#45;client&#45;dcsm/src</title>
<polygon fill="#ffffff" stroke="transparent" points="-4,4 -4,-219 185,-219 185,4 -4,4"/>
<g id="clust1" class="cluster">
<title>clusterdir_3faa40d9fd9a66d5321065a4c1455990</title>
<g id="a_clust1"><a xlink:href="dir_3faa40d9fd9a66d5321065a4c1455990.html" target="_top" xlink:title="ramses&#45;example&#45;local&#45;client&#45;dcsm">
<polygon fill="#ddddee" stroke="#000000" points="8,-136 8,-207 173,-207 173,-136 8,-136"/>
<text text-anchor="middle" x="90.5" y="-195" font-family="Helvetica,sans-Serif" font-size="10.00" fill="#000000">ramses&#45;example&#45;local&#45;client&#45;dcsm</text>
</a>
</g>
</g>
<!-- dir_753496eb4640bb2f1939e14ba9b21879 -->
<g id="node1" class="node">
<title>dir_753496eb4640bb2f1939e14ba9b21879</title>
<g id="a_node1"><a xlink:href="dir_753496eb4640bb2f1939e14ba9b21879.html" target="_top" xlink:title="src">
<polygon fill="#eeeeff" stroke="#000000" points="117,-180 63,-180 63,-144 117,-144 117,-180"/>
<text text-anchor="middle" x="90" y="-159.5" font-family="Helvetica,sans-Serif" font-size="10.00" fill="#000000">src</text>
</a>
</g>
</g>
<!-- dir_db3a54907829b36871118d03417739cd -->
<g id="node2" class="node">
<title>dir_db3a54907829b36871118d03417739cd</title>
<g id="a_node2"><a xlink:href="dir_db3a54907829b36871118d03417739cd.html" target="_top" xlink:title="client">
<polygon fill="#ffffff" stroke="#ff0000" points="62,-108 8,-108 8,-72 62,-72 62,-108"/>
<text text-anchor="middle" x="35" y="-87.5" font-family="Helvetica,sans-Serif" font-size="10.00" fill="#000000">client</text>
</a>
</g>
</g>
<!-- dir_753496eb4640bb2f1939e14ba9b21879&#45;&gt;dir_db3a54907829b36871118d03417739cd -->
<g id="edge2" class="edge">
<title>dir_753496eb4640bb2f1939e14ba9b21879&#45;&gt;dir_db3a54907829b36871118d03417739cd</title>
<path fill="none" stroke="#000000" d="M76.1212,-143.8314C69.7864,-135.5386 62.1616,-125.557 55.2074,-116.4533"/>
<polygon fill="#000000" stroke="#000000" points="57.9175,-114.2353 49.0657,-108.4133 52.3548,-118.4847 57.9175,-114.2353"/>
<g id="a_edge2&#45;headlabel"><a xlink:href="dir_000044_000000.html" target="_top" xlink:title="1">
<text text-anchor="middle" x="62.3558" y="-112.8683" font-family="Helvetica,sans-Serif" font-size="10.00" fill="#000000">1</text>
</a>
</g>
</g>
<!-- dir_644e041c3a6521da7b27eba0e4eb2b95 -->
<g id="node3" class="node">
<title>dir_644e041c3a6521da7b27eba0e4eb2b95</title>
<g id="a_node3"><a xlink:href="dir_644e041c3a6521da7b27eba0e4eb2b95.html" target="_top" xlink:title="framework">
<polygon fill="#ffffff" stroke="#ff0000" points="121,-36 59,-36 59,0 121,0 121,-36"/>
<text text-anchor="middle" x="90" y="-15.5" font-family="Helvetica,sans-Serif" font-size="10.00" fill="#000000">framework</text>
</a>
</g>
</g>
<!-- dir_753496eb4640bb2f1939e14ba9b21879&#45;&gt;dir_644e041c3a6521da7b27eba0e4eb2b95 -->
<g id="edge3" class="edge">
<title>dir_753496eb4640bb2f1939e14ba9b21879&#45;&gt;dir_644e041c3a6521da7b27eba0e4eb2b95</title>
<path fill="none" stroke="#000000" d="M90,-143.7623C90,-119.201 90,-75.2474 90,-46.3541"/>
<polygon fill="#000000" stroke="#000000" points="93.5001,-46.0896 90,-36.0896 86.5001,-46.0897 93.5001,-46.0896"/>
<g id="a_edge3&#45;headlabel"><a xlink:href="dir_000044_000069.html" target="_top" xlink:title="3">
<text text-anchor="middle" x="96.3393" y="-47.1842" font-family="Helvetica,sans-Serif" font-size="10.00" fill="#000000">3</text>
</a>
</g>
</g>
<!-- dir_d10aa5f1e26260a914a037377583e9a7 -->
<g id="node4" class="node">
<title>dir_d10aa5f1e26260a914a037377583e9a7</title>
<g id="a_node4"><a xlink:href="dir_d10aa5f1e26260a914a037377583e9a7.html" target="_top" xlink:title="renderer">
<polygon fill="#ffffff" stroke="#ff0000" points="172,-108 118,-108 118,-72 172,-72 172,-108"/>
<text text-anchor="middle" x="145" y="-87.5" font-family="Helvetica,sans-Serif" font-size="10.00" fill="#000000">renderer</text>
</a>
</g>
</g>
<!-- dir_753496eb4640bb2f1939e14ba9b21879&#45;&gt;dir_d10aa5f1e26260a914a037377583e9a7 -->
<g id="edge4" class="edge">
<title>dir_753496eb4640bb2f1939e14ba9b21879&#45;&gt;dir_d10aa5f1e26260a914a037377583e9a7</title>
<path fill="none" stroke="#000000" d="M103.8788,-143.8314C110.2136,-135.5386 117.8384,-125.557 124.7926,-116.4533"/>
<polygon fill="#000000" stroke="#000000" points="127.6452,-118.4847 130.9343,-108.4133 122.0825,-114.2353 127.6452,-118.4847"/>
<g id="a_edge4&#45;headlabel"><a xlink:href="dir_000044_000073.html" target="_top" xlink:title="6">
<text text-anchor="middle" x="127.7195" y="-120.5647" font-family="Helvetica,sans-Serif" font-size="10.00" fill="#000000">6</text>
</a>
</g>
</g>
<!-- dir_db3a54907829b36871118d03417739cd&#45;&gt;dir_644e041c3a6521da7b27eba0e4eb2b95 -->
<g id="edge1" class="edge">
<title>dir_db3a54907829b36871118d03417739cd&#45;&gt;dir_644e041c3a6521da7b27eba0e4eb2b95</title>
<path fill="none" stroke="#000000" d="M48.8788,-71.8314C55.2136,-63.5386 62.8384,-53.557 69.7926,-44.4533"/>
<polygon fill="#000000" stroke="#000000" points="72.6452,-46.4847 75.9343,-36.4133 67.0825,-42.2353 72.6452,-46.4847"/>
<g id="a_edge1&#45;headlabel"><a xlink:href="dir_000000_000069.html" target="_top" xlink:title="32">
<text text-anchor="middle" x="72.7195" y="-48.5647" font-family="Helvetica,sans-Serif" font-size="10.00" fill="#000000">32</text>
</a>
</g>
</g>
<!-- dir_d10aa5f1e26260a914a037377583e9a7&#45;&gt;dir_644e041c3a6521da7b27eba0e4eb2b95 -->
<g id="edge5" class="edge">
<title>dir_d10aa5f1e26260a914a037377583e9a7&#45;&gt;dir_644e041c3a6521da7b27eba0e4eb2b95</title>
<path fill="none" stroke="#000000" d="M131.1212,-71.8314C124.7864,-63.5386 117.1616,-53.557 110.2074,-44.4533"/>
<polygon fill="#000000" stroke="#000000" points="112.9175,-42.2353 104.0657,-36.4133 107.3548,-46.4847 112.9175,-42.2353"/>
<g id="a_edge5&#45;headlabel"><a xlink:href="dir_000073_000069.html" target="_top" xlink:title="20">
<text text-anchor="middle" x="117.3558" y="-40.8683" font-family="Helvetica,sans-Serif" font-size="10.00" fill="#000000">20</text>
</a>
</g>
</g>
</g>
</svg>
