<?xml version="1.0" encoding="UTF-8" standalone="no"?>
<!DOCTYPE svg PUBLIC "-//W3C//DTD SVG 1.1//EN"
 "http://www.w3.org/Graphics/SVG/1.1/DTD/svg11.dtd">
<!-- Generated by graphviz version 2.40.1 (20161225.0304)
 -->
<!-- Title: /home/ramses/dev/oss&#45;ramses/examples/ramses&#45;example&#45;minimal Pages: 1 -->
<svg width="254pt" height="159pt"
 viewBox="0.00 0.00 254.00 159.00" xmlns="http://www.w3.org/2000/svg" xmlns:xlink="http://www.w3.org/1999/xlink">
<g id="graph0" class="graph" transform="scale(1 1) rotate(0) translate(4 155)">
<title>/home/ramses/dev/oss&#45;ramses/examples/ramses&#45;example&#45;minimal</title>
<polygon fill="#ffffff" stroke="transparent" points="-4,4 -4,-155 250,-155 250,4 -4,4"/>
<g id="clust1" class="cluster">
<title>clusterdir_d28a4824dc47e487b107a5db32ef43c4</title>
<g id="a_clust1"><a xlink:href="dir_d28a4824dc47e487b107a5db32ef43c4.html" target="_top" xlink:title="examples">
<polygon fill="#ddddee" stroke="#000000" points="8,-56 8,-143 238,-143 238,-56 8,-56"/>
<text text-anchor="middle" x="123" y="-131" font-family="Helvetica,sans-Serif" font-size="10.00" fill="#000000">examples</text>
</a>
</g>
</g>
<g id="clust2" class="cluster">
<title>clusterdir_dca6161c1001f5e4b618269f63af0898</title>
<g id="a_clust2"><a xlink:href="dir_dca6161c1001f5e4b618269f63af0898.html" target="_top">
<polygon fill="#eeeeff" stroke="#000000" points="16,-64 16,-116 230,-116 230,-64 16,-64"/>
</a>
</g>
</g>
<!-- dir_dca6161c1001f5e4b618269f63af0898 -->
<g id="node1" class="node">
<title>dir_dca6161c1001f5e4b618269f63af0898</title>
<text text-anchor="middle" x="159" y="-87.5" font-family="Helvetica,sans-Serif" font-size="10.00" fill="#000000">ramses&#45;example&#45;minimal</text>
</g>
<!-- dir_fe87bd7bf0608b6df7a7ff2a2f2cf06d -->
<g id="node2" class="node">
<title>dir_fe87bd7bf0608b6df7a7ff2a2f2cf06d</title>
<g id="a_node2"><a xlink:href="dir_fe87bd7bf0608b6df7a7ff2a2f2cf06d.html" target="_top" xlink:title="src">
<polygon fill="#ffffff" stroke="#000000" points="78,-108 24,-108 24,-72 78,-72 78,-108"/>
<text text-anchor="middle" x="51" y="-87.5" font-family="Helvetica,sans-Serif" font-size="10.00" fill="#000000">src</text>
</a>
</g>
</g>
<!-- dir_db3a54907829b36871118d03417739cd -->
<g id="node3" class="node">
<title>dir_db3a54907829b36871118d03417739cd</title>
<g id="a_node3"><a xlink:href="dir_db3a54907829b36871118d03417739cd.html" target="_top" xlink:title="client">
<polygon fill="#ffffff" stroke="#ff0000" points="78,-36 24,-36 24,0 78,0 78,-36"/>
<text text-anchor="middle" x="51" y="-15.5" font-family="Helvetica,sans-Serif" font-size="10.00" fill="#000000">client</text>
</a>
</g>
</g>
<!-- dir_fe87bd7bf0608b6df7a7ff2a2f2cf06d&#45;&gt;dir_db3a54907829b36871118d03417739cd -->
<g id="edge1" class="edge">
<title>dir_fe87bd7bf0608b6df7a7ff2a2f2cf06d&#45;&gt;dir_db3a54907829b36871118d03417739cd</title>
<path fill="none" stroke="#000000" d="M51,-71.8314C51,-64.131 51,-54.9743 51,-46.4166"/>
<polygon fill="#000000" stroke="#000000" points="54.5001,-46.4132 51,-36.4133 47.5001,-46.4133 54.5001,-46.4132"/>
<g id="a_edge1&#45;headlabel"><a xlink:href="dir_000062_000000.html" target="_top" xlink:title="1">
<text text-anchor="middle" x="57.3393" y="-47.5079" font-family="Helvetica,sans-Serif" font-size="10.00" fill="#000000">1</text>
</a>
</g>
</g>
</g>
</svg>
