<?xml version="1.0" encoding="UTF-8" standalone="no"?>
<!DOCTYPE svg PUBLIC "-//W3C//DTD SVG 1.1//EN"
 "http://www.w3.org/Graphics/SVG/1.1/DTD/svg11.dtd">
<!-- Generated by graphviz version 2.43.0 (0)
 -->
<!-- Title: /c/src/genivi/examples/ramses&#45;example&#45;basic&#45;file&#45;loading/src Pages: 1 -->
<svg width="211pt" height="151pt"
 viewBox="0.00 0.00 211.00 151.00" xmlns="http://www.w3.org/2000/svg" xmlns:xlink="http://www.w3.org/1999/xlink">
<g id="graph0" class="graph" transform="scale(1 1) rotate(0) translate(4 147)">
<title>/c/src/genivi/examples/ramses&#45;example&#45;basic&#45;file&#45;loading/src</title>
<polygon fill="white" stroke="transparent" points="-4,4 -4,-147 207,-147 207,4 -4,4"/>
<g id="clust1" class="cluster">
<title>clusterdir_b41378e88d8e71544d58a0a9256683ac</title>
<g id="a_clust1"><a xlink:href="dir_b41378e88d8e71544d58a0a9256683ac.html" target="_top" xlink:title="ramses&#45;example&#45;basic&#45;file&#45;loading">
<polygon fill="#ddddee" stroke="black" points="8,-64 8,-135 195,-135 195,-64 8,-64"/>
<text text-anchor="middle" x="101.5" y="-123" font-family="Helvetica,sans-Serif" font-size="10.00">ramses&#45;example&#45;basic&#45;file&#45;loading</text>
</a>
</g>
</g>
<!-- dir_8e649ed14f6458bb1b975efb6df5ee28 -->
<g id="node1" class="node">
<title>dir_8e649ed14f6458bb1b975efb6df5ee28</title>
<g id="a_node1"><a xlink:href="dir_8e649ed14f6458bb1b975efb6df5ee28.html" target="_top" xlink:title="src">
<polygon fill="#eeeeff" stroke="black" points="128,-108 74,-108 74,-72 128,-72 128,-108"/>
<text text-anchor="middle" x="101" y="-87.5" font-family="Helvetica,sans-Serif" font-size="10.00">src</text>
</a>
</g>
</g>
<!-- dir_db3a54907829b36871118d03417739cd -->
<g id="node2" class="node">
<title>dir_db3a54907829b36871118d03417739cd</title>
<g id="a_node2"><a xlink:href="dir_db3a54907829b36871118d03417739cd.html" target="_top" xlink:title="client">
<polygon fill="white" stroke="red" points="128,-36 74,-36 74,0 128,0 128,-36"/>
<text text-anchor="middle" x="101" y="-15.5" font-family="Helvetica,sans-Serif" font-size="10.00">client</text>
</a>
</g>
</g>
<!-- dir_8e649ed14f6458bb1b975efb6df5ee28&#45;&gt;dir_db3a54907829b36871118d03417739cd -->
<g id="edge1" class="edge">
<title>dir_8e649ed14f6458bb1b975efb6df5ee28&#45;&gt;dir_db3a54907829b36871118d03417739cd</title>
<path fill="none" stroke="black" d="M101,-71.7C101,-63.98 101,-54.71 101,-46.11"/>
<polygon fill="black" stroke="black" points="104.5,-46.1 101,-36.1 97.5,-46.1 104.5,-46.1"/>
<g id="a_edge1&#45;headlabel"><a xlink:href="dir_000026_000000.html" target="_top" xlink:title="2">
<text text-anchor="middle" x="107.34" y="-47.2" font-family="Helvetica,sans-Serif" font-size="10.00">2</text>
</a>
</g>
</g>
</g>
</svg>
