<?xml version="1.0" encoding="UTF-8" standalone="no"?>
<!DOCTYPE svg PUBLIC "-//W3C//DTD SVG 1.1//EN"
 "http://www.w3.org/Graphics/SVG/1.1/DTD/svg11.dtd">
<!-- Generated by graphviz version 2.43.0 (0)
 -->
<!-- Title: /home/runner/work/ramses/ramses/examples/ramses&#45;example&#45;basic&#45;scenegraph/src Pages: 1 -->
<svg width="212pt" height="151pt"
 viewBox="0.00 0.00 212.00 151.00" xmlns="http://www.w3.org/2000/svg" xmlns:xlink="http://www.w3.org/1999/xlink">
<g id="graph0" class="graph" transform="scale(1 1) rotate(0) translate(4 147)">
<title>/home/runner/work/ramses/ramses/examples/ramses&#45;example&#45;basic&#45;scenegraph/src</title>
<polygon fill="white" stroke="transparent" points="-4,4 -4,-147 208,-147 208,4 -4,4"/>
<g id="clust1" class="cluster">
<title>clusterdir_c5006174246c0127074063e8b73c042d</title>
<g id="a_clust1"><a xlink:href="dir_c5006174246c0127074063e8b73c042d.html" target="_top" xlink:title="ramses&#45;example&#45;basic&#45;scenegraph">
<polygon fill="#ddddee" stroke="black" points="8,-64 8,-135 196,-135 196,-64 8,-64"/>
<text text-anchor="middle" x="102" y="-123" font-family="Helvetica,sans-Serif" font-size="10.00">ramses&#45;example&#45;basic&#45;scenegraph</text>
</a>
</g>
</g>
<!-- dir_c2eb3b3ae5efc021f52bd703177f1d62 -->
<g id="node1" class="node">
<title>dir_c2eb3b3ae5efc021f52bd703177f1d62</title>
<g id="a_node1"><a xlink:href="dir_c2eb3b3ae5efc021f52bd703177f1d62.html" target="_top" xlink:title="src">
<polygon fill="#eeeeff" stroke="black" points="129,-108 75,-108 75,-72 129,-72 129,-108"/>
<text text-anchor="middle" x="102" y="-87.5" font-family="Helvetica,sans-Serif" font-size="10.00">src</text>
</a>
</g>
</g>
<!-- dir_26af246848702a33262a7ef2acf92491 -->
<g id="node2" class="node">
<title>dir_26af246848702a33262a7ef2acf92491</title>
<g id="a_node2"><a xlink:href="dir_26af246848702a33262a7ef2acf92491.html" target="_top" xlink:title="client">
<polygon fill="white" stroke="red" points="129,-36 75,-36 75,0 129,0 129,-36"/>
<text text-anchor="middle" x="102" y="-15.5" font-family="Helvetica,sans-Serif" font-size="10.00">client</text>
</a>
</g>
</g>
<!-- dir_c2eb3b3ae5efc021f52bd703177f1d62&#45;&gt;dir_26af246848702a33262a7ef2acf92491 -->
<g id="edge1" class="edge">
<title>dir_c2eb3b3ae5efc021f52bd703177f1d62&#45;&gt;dir_26af246848702a33262a7ef2acf92491</title>
<path fill="none" stroke="black" d="M102,-71.7C102,-63.98 102,-54.71 102,-46.11"/>
<polygon fill="black" stroke="black" points="105.5,-46.1 102,-36.1 98.5,-46.1 105.5,-46.1"/>
<g id="a_edge1&#45;headlabel"><a xlink:href="dir_000038_000001.html" target="_top" xlink:title="14">
<text text-anchor="middle" x="108.34" y="-47.2" font-family="Helvetica,sans-Serif" font-size="10.00">14</text>
</a>
</g>
</g>
</g>
</svg>
