<?xml version="1.0" encoding="UTF-8" standalone="no"?>
<!DOCTYPE svg PUBLIC "-//W3C//DTD SVG 1.1//EN"
 "http://www.w3.org/Graphics/SVG/1.1/DTD/svg11.dtd">
<!-- Generated by graphviz version 2.40.1 (20161225.0304)
 -->
<!-- Title: /home/ramses/dev/oss&#45;ramses/examples/ramses&#45;example&#45;local&#45;client/src Pages: 1 -->
<svg width="162pt" height="151pt"
 viewBox="0.00 0.00 162.00 151.00" xmlns="http://www.w3.org/2000/svg" xmlns:xlink="http://www.w3.org/1999/xlink">
<g id="graph0" class="graph" transform="scale(1 1) rotate(0) translate(4 147)">
<title>/home/ramses/dev/oss&#45;ramses/examples/ramses&#45;example&#45;local&#45;client/src</title>
<polygon fill="#ffffff" stroke="transparent" points="-4,4 -4,-147 158,-147 158,4 -4,4"/>
<g id="clust1" class="cluster">
<title>clusterdir_0a153d4022ca6301d719adc4a5eae26e</title>
<g id="a_clust1"><a xlink:href="dir_0a153d4022ca6301d719adc4a5eae26e.html" target="_top" xlink:title="ramses&#45;example&#45;local&#45;client">
<polygon fill="#ddddee" stroke="#000000" points="8,-64 8,-135 146,-135 146,-64 8,-64"/>
<text text-anchor="middle" x="77" y="-123" font-family="Helvetica,sans-Serif" font-size="10.00" fill="#000000">ramses&#45;example&#45;local&#45;client</text>
</a>
</g>
</g>
<!-- dir_9ee737315acdc853cc8002ef9bcff4a3 -->
<g id="node1" class="node">
<title>dir_9ee737315acdc853cc8002ef9bcff4a3</title>
<g id="a_node1"><a xlink:href="dir_9ee737315acdc853cc8002ef9bcff4a3.html" target="_top" xlink:title="src">
<polygon fill="#eeeeff" stroke="#000000" points="104,-108 50,-108 50,-72 104,-72 104,-108"/>
<text text-anchor="middle" x="77" y="-87.5" font-family="Helvetica,sans-Serif" font-size="10.00" fill="#000000">src</text>
</a>
</g>
</g>
<!-- dir_db3a54907829b36871118d03417739cd -->
<g id="node2" class="node">
<title>dir_db3a54907829b36871118d03417739cd</title>
<g id="a_node2"><a xlink:href="dir_db3a54907829b36871118d03417739cd.html" target="_top" xlink:title="client">
<polygon fill="#ffffff" stroke="#ff0000" points="68,-36 14,-36 14,0 68,0 68,-36"/>
<text text-anchor="middle" x="41" y="-15.5" font-family="Helvetica,sans-Serif" font-size="10.00" fill="#000000">client</text>
</a>
</g>
</g>
<!-- dir_9ee737315acdc853cc8002ef9bcff4a3&#45;&gt;dir_db3a54907829b36871118d03417739cd -->
<g id="edge1" class="edge">
<title>dir_9ee737315acdc853cc8002ef9bcff4a3&#45;&gt;dir_db3a54907829b36871118d03417739cd</title>
<path fill="none" stroke="#000000" d="M67.9157,-71.8314C63.9385,-63.8771 59.1845,-54.369 54.7861,-45.5723"/>
<polygon fill="#000000" stroke="#000000" points="57.8093,-43.7923 50.2066,-36.4133 51.5483,-46.9228 57.8093,-43.7923"/>
<g id="a_edge1&#45;headlabel"><a xlink:href="dir_000046_000000.html" target="_top" xlink:title="1">
<text text-anchor="middle" x="61.9563" y="-43.2377" font-family="Helvetica,sans-Serif" font-size="10.00" fill="#000000">1</text>
</a>
</g>
</g>
<!-- dir_d10aa5f1e26260a914a037377583e9a7 -->
<g id="node3" class="node">
<title>dir_d10aa5f1e26260a914a037377583e9a7</title>
<g id="a_node3"><a xlink:href="dir_d10aa5f1e26260a914a037377583e9a7.html" target="_top" xlink:title="renderer">
<polygon fill="#ffffff" stroke="#ff0000" points="140,-36 86,-36 86,0 140,0 140,-36"/>
<text text-anchor="middle" x="113" y="-15.5" font-family="Helvetica,sans-Serif" font-size="10.00" fill="#000000">renderer</text>
</a>
</g>
</g>
<!-- dir_9ee737315acdc853cc8002ef9bcff4a3&#45;&gt;dir_d10aa5f1e26260a914a037377583e9a7 -->
<g id="edge2" class="edge">
<title>dir_9ee737315acdc853cc8002ef9bcff4a3&#45;&gt;dir_d10aa5f1e26260a914a037377583e9a7</title>
<path fill="none" stroke="#000000" d="M86.0843,-71.8314C90.0615,-63.8771 94.8155,-54.369 99.2139,-45.5723"/>
<polygon fill="#000000" stroke="#000000" points="102.4517,-46.9228 103.7934,-36.4133 96.1907,-43.7923 102.4517,-46.9228"/>
<g id="a_edge2&#45;headlabel"><a xlink:href="dir_000046_000073.html" target="_top" xlink:title="3">
<text text-anchor="middle" x="103.3837" y="-48.9077" font-family="Helvetica,sans-Serif" font-size="10.00" fill="#000000">3</text>
</a>
</g>
</g>
</g>
</svg>
