<?xml version="1.0" encoding="UTF-8" standalone="no"?>
<!DOCTYPE svg PUBLIC "-//W3C//DTD SVG 1.1//EN"
 "http://www.w3.org/Graphics/SVG/1.1/DTD/svg11.dtd">
<!-- Generated by graphviz version 2.43.0 (0)
 -->
<!-- Title: /home/runner/work/ramses/ramses/examples/ramses&#45;example&#45;basic&#45;rendergroups/src Pages: 1 -->
<svg width="221pt" height="151pt"
 viewBox="0.00 0.00 221.00 151.00" xmlns="http://www.w3.org/2000/svg" xmlns:xlink="http://www.w3.org/1999/xlink">
<g id="graph0" class="graph" transform="scale(1 1) rotate(0) translate(4 147)">
<title>/home/runner/work/ramses/ramses/examples/ramses&#45;example&#45;basic&#45;rendergroups/src</title>
<polygon fill="white" stroke="transparent" points="-4,4 -4,-147 217,-147 217,4 -4,4"/>
<g id="clust1" class="cluster">
<title>clusterdir_d4f82d2275af1d6849a52b9ae61d8a2e</title>
<g id="a_clust1"><a xlink:href="dir_d4f82d2275af1d6849a52b9ae61d8a2e.html" target="_top" xlink:title="ramses&#45;example&#45;basic&#45;rendergroups">
<polygon fill="#ddddee" stroke="black" points="8,-64 8,-135 205,-135 205,-64 8,-64"/>
<text text-anchor="middle" x="106.5" y="-123" font-family="Helvetica,sans-Serif" font-size="10.00">ramses&#45;example&#45;basic&#45;rendergroups</text>
</a>
</g>
</g>
<!-- dir_dd32225e272449020c4c60279d50939f -->
<g id="node1" class="node">
<title>dir_dd32225e272449020c4c60279d50939f</title>
<g id="a_node1"><a xlink:href="dir_dd32225e272449020c4c60279d50939f.html" target="_top" xlink:title="src">
<polygon fill="#eeeeff" stroke="black" points="133,-108 79,-108 79,-72 133,-72 133,-108"/>
<text text-anchor="middle" x="106" y="-87.5" font-family="Helvetica,sans-Serif" font-size="10.00">src</text>
</a>
</g>
</g>
<!-- dir_26af246848702a33262a7ef2acf92491 -->
<g id="node2" class="node">
<title>dir_26af246848702a33262a7ef2acf92491</title>
<g id="a_node2"><a xlink:href="dir_26af246848702a33262a7ef2acf92491.html" target="_top" xlink:title="client">
<polygon fill="white" stroke="red" points="133,-36 79,-36 79,0 133,0 133,-36"/>
<text text-anchor="middle" x="106" y="-15.5" font-family="Helvetica,sans-Serif" font-size="10.00">client</text>
</a>
</g>
</g>
<!-- dir_dd32225e272449020c4c60279d50939f&#45;&gt;dir_26af246848702a33262a7ef2acf92491 -->
<g id="edge1" class="edge">
<title>dir_dd32225e272449020c4c60279d50939f&#45;&gt;dir_26af246848702a33262a7ef2acf92491</title>
<path fill="none" stroke="black" d="M106,-71.7C106,-63.98 106,-54.71 106,-46.11"/>
<polygon fill="black" stroke="black" points="109.5,-46.1 106,-36.1 102.5,-46.1 109.5,-46.1"/>
<g id="a_edge1&#45;headlabel"><a xlink:href="dir_000032_000001.html" target="_top" xlink:title="1">
<text text-anchor="middle" x="112.34" y="-47.2" font-family="Helvetica,sans-Serif" font-size="10.00">1</text>
</a>
</g>
</g>
</g>
</svg>
