<?xml version="1.0" encoding="UTF-8" standalone="no"?>
<!DOCTYPE svg PUBLIC "-//W3C//DTD SVG 1.1//EN"
 "http://www.w3.org/Graphics/SVG/1.1/DTD/svg11.dtd">
<!-- Generated by graphviz version 2.43.0 (0)
 -->
<!-- Title: /home/runner/work/ramses/ramses/examples/ramses&#45;example&#45;local&#45;offscreenbuffer/src Pages: 1 -->
<svg width="227pt" height="151pt"
 viewBox="0.00 0.00 227.00 151.00" xmlns="http://www.w3.org/2000/svg" xmlns:xlink="http://www.w3.org/1999/xlink">
<g id="graph0" class="graph" transform="scale(1 1) rotate(0) translate(4 147)">
<title>/home/runner/work/ramses/ramses/examples/ramses&#45;example&#45;local&#45;offscreenbuffer/src</title>
<polygon fill="white" stroke="transparent" points="-4,4 -4,-147 223,-147 223,4 -4,4"/>
<g id="clust1" class="cluster">
<title>clusterdir_2065aa44f691572986eac4a03d161c9f</title>
<g id="a_clust1"><a xlink:href="dir_2065aa44f691572986eac4a03d161c9f.html" target="_top" xlink:title="ramses&#45;example&#45;local&#45;offscreenbuffer">
<polygon fill="#ddddee" stroke="black" points="8,-64 8,-135 211,-135 211,-64 8,-64"/>
<text text-anchor="middle" x="109.5" y="-123" font-family="Helvetica,sans-Serif" font-size="10.00">ramses&#45;example&#45;local&#45;offscreenbuffer</text>
</a>
</g>
</g>
<!-- dir_71ef3af9cee15d2470daf6684f6f03cd -->
<g id="node1" class="node">
<title>dir_71ef3af9cee15d2470daf6684f6f03cd</title>
<g id="a_node1"><a xlink:href="dir_71ef3af9cee15d2470daf6684f6f03cd.html" target="_top" xlink:title="src">
<polygon fill="#eeeeff" stroke="black" points="136,-108 82,-108 82,-72 136,-72 136,-108"/>
<text text-anchor="middle" x="109" y="-87.5" font-family="Helvetica,sans-Serif" font-size="10.00">src</text>
</a>
</g>
</g>
<!-- dir_26af246848702a33262a7ef2acf92491 -->
<g id="node2" class="node">
<title>dir_26af246848702a33262a7ef2acf92491</title>
<g id="a_node2"><a xlink:href="dir_26af246848702a33262a7ef2acf92491.html" target="_top" xlink:title="client">
<polygon fill="white" stroke="red" points="99,-36 45,-36 45,0 99,0 99,-36"/>
<text text-anchor="middle" x="72" y="-15.5" font-family="Helvetica,sans-Serif" font-size="10.00">client</text>
</a>
</g>
</g>
<!-- dir_71ef3af9cee15d2470daf6684f6f03cd&#45;&gt;dir_26af246848702a33262a7ef2acf92491 -->
<g id="edge1" class="edge">
<title>dir_71ef3af9cee15d2470daf6684f6f03cd&#45;&gt;dir_26af246848702a33262a7ef2acf92491</title>
<path fill="none" stroke="black" d="M99.85,-71.7C95.6,-63.64 90.44,-53.89 85.73,-44.98"/>
<polygon fill="black" stroke="black" points="88.81,-43.31 81.04,-36.1 82.62,-46.58 88.81,-43.31"/>
<g id="a_edge1&#45;headlabel"><a xlink:href="dir_000065_000001.html" target="_top" xlink:title="2">
<text text-anchor="middle" x="93" y="-42.66" font-family="Helvetica,sans-Serif" font-size="10.00">2</text>
</a>
</g>
</g>
<!-- dir_4797b4e6785279b55036fb4e0c62a1b2 -->
<g id="node3" class="node">
<title>dir_4797b4e6785279b55036fb4e0c62a1b2</title>
<g id="a_node3"><a xlink:href="dir_4797b4e6785279b55036fb4e0c62a1b2.html" target="_top" xlink:title="renderer">
<polygon fill="white" stroke="red" points="175,-36 117,-36 117,0 175,0 175,-36"/>
<text text-anchor="middle" x="146" y="-15.5" font-family="Helvetica,sans-Serif" font-size="10.00">renderer</text>
</a>
</g>
</g>
<!-- dir_71ef3af9cee15d2470daf6684f6f03cd&#45;&gt;dir_4797b4e6785279b55036fb4e0c62a1b2 -->
<g id="edge2" class="edge">
<title>dir_71ef3af9cee15d2470daf6684f6f03cd&#45;&gt;dir_4797b4e6785279b55036fb4e0c62a1b2</title>
<path fill="none" stroke="black" d="M118.15,-71.7C122.4,-63.64 127.56,-53.89 132.27,-44.98"/>
<polygon fill="black" stroke="black" points="135.38,-46.58 136.96,-36.1 129.19,-43.31 135.38,-46.58"/>
<g id="a_edge2&#45;headlabel"><a xlink:href="dir_000065_000084.html" target="_top" xlink:title="5">
<text text-anchor="middle" x="136.21" y="-48.59" font-family="Helvetica,sans-Serif" font-size="10.00">5</text>
</a>
</g>
</g>
</g>
</svg>
