<?xml version="1.0" encoding="UTF-8" standalone="no"?>
<!DOCTYPE svg PUBLIC "-//W3C//DTD SVG 1.1//EN"
 "http://www.w3.org/Graphics/SVG/1.1/DTD/svg11.dtd">
<!-- Generated by graphviz version 2.40.1 (20161225.0304)
 -->
<!-- Title: /home/ramses/dev/oss&#45;ramses/examples/ramses&#45;example&#45;basic&#45;compositing/src Pages: 1 -->
<svg width="194pt" height="223pt"
 viewBox="0.00 0.00 194.00 223.00" xmlns="http://www.w3.org/2000/svg" xmlns:xlink="http://www.w3.org/1999/xlink">
<g id="graph0" class="graph" transform="scale(1 1) rotate(0) translate(4 219)">
<title>/home/ramses/dev/oss&#45;ramses/examples/ramses&#45;example&#45;basic&#45;compositing/src</title>
<polygon fill="#ffffff" stroke="transparent" points="-4,4 -4,-219 190,-219 190,4 -4,4"/>
<g id="clust1" class="cluster">
<title>clusterdir_a7241e5a0d1b3750c28bb62e911f9590</title>
<g id="a_clust1"><a xlink:href="dir_a7241e5a0d1b3750c28bb62e911f9590.html" target="_top" xlink:title="ramses&#45;example&#45;basic&#45;compositing">
<polygon fill="#ddddee" stroke="#000000" points="8,-136 8,-207 178,-207 178,-136 8,-136"/>
<text text-anchor="middle" x="93" y="-195" font-family="Helvetica,sans-Serif" font-size="10.00" fill="#000000">ramses&#45;example&#45;basic&#45;compositing</text>
</a>
</g>
</g>
<!-- dir_113e74ac0e8a07c63f61c0ae32a5e43f -->
<g id="node1" class="node">
<title>dir_113e74ac0e8a07c63f61c0ae32a5e43f</title>
<g id="a_node1"><a xlink:href="dir_113e74ac0e8a07c63f61c0ae32a5e43f.html" target="_top" xlink:title="src">
<polygon fill="#eeeeff" stroke="#000000" points="120,-180 66,-180 66,-144 120,-144 120,-180"/>
<text text-anchor="middle" x="93" y="-159.5" font-family="Helvetica,sans-Serif" font-size="10.00" fill="#000000">src</text>
</a>
</g>
</g>
<!-- dir_db3a54907829b36871118d03417739cd -->
<g id="node2" class="node">
<title>dir_db3a54907829b36871118d03417739cd</title>
<g id="a_node2"><a xlink:href="dir_db3a54907829b36871118d03417739cd.html" target="_top" xlink:title="client">
<polygon fill="#ffffff" stroke="#ff0000" points="92,-108 38,-108 38,-72 92,-72 92,-108"/>
<text text-anchor="middle" x="65" y="-87.5" font-family="Helvetica,sans-Serif" font-size="10.00" fill="#000000">client</text>
</a>
</g>
</g>
<!-- dir_113e74ac0e8a07c63f61c0ae32a5e43f&#45;&gt;dir_db3a54907829b36871118d03417739cd -->
<g id="edge2" class="edge">
<title>dir_113e74ac0e8a07c63f61c0ae32a5e43f&#45;&gt;dir_db3a54907829b36871118d03417739cd</title>
<path fill="none" stroke="#000000" d="M85.9344,-143.8314C82.874,-135.9617 79.2221,-126.5712 75.8318,-117.8533"/>
<polygon fill="#000000" stroke="#000000" points="79.0473,-116.4647 72.1607,-108.4133 72.5232,-119.0019 79.0473,-116.4647"/>
<g id="a_edge2&#45;headlabel"><a xlink:href="dir_000016_000000.html" target="_top" xlink:title="2">
<text text-anchor="middle" x="82.9963" y="-116.2859" font-family="Helvetica,sans-Serif" font-size="10.00" fill="#000000">2</text>
</a>
</g>
</g>
<!-- dir_644e041c3a6521da7b27eba0e4eb2b95 -->
<g id="node3" class="node">
<title>dir_644e041c3a6521da7b27eba0e4eb2b95</title>
<g id="a_node3"><a xlink:href="dir_644e041c3a6521da7b27eba0e4eb2b95.html" target="_top" xlink:title="framework">
<polygon fill="#ffffff" stroke="#ff0000" points="123,-36 61,-36 61,0 123,0 123,-36"/>
<text text-anchor="middle" x="92" y="-15.5" font-family="Helvetica,sans-Serif" font-size="10.00" fill="#000000">framework</text>
</a>
</g>
</g>
<!-- dir_113e74ac0e8a07c63f61c0ae32a5e43f&#45;&gt;dir_644e041c3a6521da7b27eba0e4eb2b95 -->
<g id="edge3" class="edge">
<title>dir_113e74ac0e8a07c63f61c0ae32a5e43f&#45;&gt;dir_644e041c3a6521da7b27eba0e4eb2b95</title>
<path fill="none" stroke="#000000" d="M96.415,-143.5804C98.1709,-133.1767 100.1226,-119.9092 101,-108 102.1756,-92.0432 102.3197,-87.9455 101,-72 100.3055,-63.6085 99.0138,-54.5578 97.6214,-46.3092"/>
<polygon fill="#000000" stroke="#000000" points="101.0544,-45.6235 95.8413,-36.3999 94.1647,-46.8612 101.0544,-45.6235"/>
<g id="a_edge3&#45;headlabel"><a xlink:href="dir_000016_000069.html" target="_top" xlink:title="1">
<text text-anchor="middle" x="104.4844" y="-46.1595" font-family="Helvetica,sans-Serif" font-size="10.00" fill="#000000">1</text>
</a>
</g>
</g>
<!-- dir_db3a54907829b36871118d03417739cd&#45;&gt;dir_644e041c3a6521da7b27eba0e4eb2b95 -->
<g id="edge1" class="edge">
<title>dir_db3a54907829b36871118d03417739cd&#45;&gt;dir_644e041c3a6521da7b27eba0e4eb2b95</title>
<path fill="none" stroke="#000000" d="M71.8132,-71.8314C74.7644,-63.9617 78.2858,-54.5712 81.555,-45.8533"/>
<polygon fill="#000000" stroke="#000000" points="84.8609,-47.0055 85.095,-36.4133 78.3066,-44.5476 84.8609,-47.0055"/>
<g id="a_edge1&#45;headlabel"><a xlink:href="dir_000000_000069.html" target="_top" xlink:title="32">
<text text-anchor="middle" x="86.2573" y="-48.8682" font-family="Helvetica,sans-Serif" font-size="10.00" fill="#000000">32</text>
</a>
</g>
</g>
</g>
</svg>
