<?xml version="1.0" encoding="UTF-8" standalone="no"?>
<!DOCTYPE svg PUBLIC "-//W3C//DTD SVG 1.1//EN"
 "http://www.w3.org/Graphics/SVG/1.1/DTD/svg11.dtd">
<!-- Generated by graphviz version 2.40.1 (20161225.0304)
 -->
<!-- Title: /home/ramses/dev/oss&#45;ramses/examples/ramses&#45;example&#45;local&#45;displays/src Pages: 1 -->
<svg width="175pt" height="151pt"
 viewBox="0.00 0.00 175.00 151.00" xmlns="http://www.w3.org/2000/svg" xmlns:xlink="http://www.w3.org/1999/xlink">
<g id="graph0" class="graph" transform="scale(1 1) rotate(0) translate(4 147)">
<title>/home/ramses/dev/oss&#45;ramses/examples/ramses&#45;example&#45;local&#45;displays/src</title>
<polygon fill="#ffffff" stroke="transparent" points="-4,4 -4,-147 171,-147 171,4 -4,4"/>
<g id="clust1" class="cluster">
<title>clusterdir_4cc1f9001bfaae06db676ccc88ae6204</title>
<g id="a_clust1"><a xlink:href="dir_4cc1f9001bfaae06db676ccc88ae6204.html" target="_top" xlink:title="ramses&#45;example&#45;local&#45;displays">
<polygon fill="#ddddee" stroke="#000000" points="8,-64 8,-135 159,-135 159,-64 8,-64"/>
<text text-anchor="middle" x="83.5" y="-123" font-family="Helvetica,sans-Serif" font-size="10.00" fill="#000000">ramses&#45;example&#45;local&#45;displays</text>
</a>
</g>
</g>
<!-- dir_4fbcb795b70d06e32d2d7b45966b36d7 -->
<g id="node1" class="node">
<title>dir_4fbcb795b70d06e32d2d7b45966b36d7</title>
<g id="a_node1"><a xlink:href="dir_4fbcb795b70d06e32d2d7b45966b36d7.html" target="_top" xlink:title="src">
<polygon fill="#eeeeff" stroke="#000000" points="110,-108 56,-108 56,-72 110,-72 110,-108"/>
<text text-anchor="middle" x="83" y="-87.5" font-family="Helvetica,sans-Serif" font-size="10.00" fill="#000000">src</text>
</a>
</g>
</g>
<!-- dir_db3a54907829b36871118d03417739cd -->
<g id="node2" class="node">
<title>dir_db3a54907829b36871118d03417739cd</title>
<g id="a_node2"><a xlink:href="dir_db3a54907829b36871118d03417739cd.html" target="_top" xlink:title="client">
<polygon fill="#ffffff" stroke="#ff0000" points="74,-36 20,-36 20,0 74,0 74,-36"/>
<text text-anchor="middle" x="47" y="-15.5" font-family="Helvetica,sans-Serif" font-size="10.00" fill="#000000">client</text>
</a>
</g>
</g>
<!-- dir_4fbcb795b70d06e32d2d7b45966b36d7&#45;&gt;dir_db3a54907829b36871118d03417739cd -->
<g id="edge1" class="edge">
<title>dir_4fbcb795b70d06e32d2d7b45966b36d7&#45;&gt;dir_db3a54907829b36871118d03417739cd</title>
<path fill="none" stroke="#000000" d="M73.9157,-71.8314C69.9385,-63.8771 65.1845,-54.369 60.7861,-45.5723"/>
<polygon fill="#000000" stroke="#000000" points="63.8093,-43.7923 56.2066,-36.4133 57.5483,-46.9228 63.8093,-43.7923"/>
<g id="a_edge1&#45;headlabel"><a xlink:href="dir_000050_000000.html" target="_top" xlink:title="1">
<text text-anchor="middle" x="67.9563" y="-43.2377" font-family="Helvetica,sans-Serif" font-size="10.00" fill="#000000">1</text>
</a>
</g>
</g>
<!-- dir_d10aa5f1e26260a914a037377583e9a7 -->
<g id="node3" class="node">
<title>dir_d10aa5f1e26260a914a037377583e9a7</title>
<g id="a_node3"><a xlink:href="dir_d10aa5f1e26260a914a037377583e9a7.html" target="_top" xlink:title="renderer">
<polygon fill="#ffffff" stroke="#ff0000" points="146,-36 92,-36 92,0 146,0 146,-36"/>
<text text-anchor="middle" x="119" y="-15.5" font-family="Helvetica,sans-Serif" font-size="10.00" fill="#000000">renderer</text>
</a>
</g>
</g>
<!-- dir_4fbcb795b70d06e32d2d7b45966b36d7&#45;&gt;dir_d10aa5f1e26260a914a037377583e9a7 -->
<g id="edge2" class="edge">
<title>dir_4fbcb795b70d06e32d2d7b45966b36d7&#45;&gt;dir_d10aa5f1e26260a914a037377583e9a7</title>
<path fill="none" stroke="#000000" d="M92.0843,-71.8314C96.0615,-63.8771 100.8155,-54.369 105.2139,-45.5723"/>
<polygon fill="#000000" stroke="#000000" points="108.4517,-46.9228 109.7934,-36.4133 102.1907,-43.7923 108.4517,-46.9228"/>
<g id="a_edge2&#45;headlabel"><a xlink:href="dir_000050_000075.html" target="_top" xlink:title="3">
<text text-anchor="middle" x="109.3837" y="-48.9077" font-family="Helvetica,sans-Serif" font-size="10.00" fill="#000000">3</text>
</a>
</g>
</g>
</g>
</svg>
