<?xml version="1.0" encoding="UTF-8" standalone="no"?>
<!DOCTYPE svg PUBLIC "-//W3C//DTD SVG 1.1//EN"
 "http://www.w3.org/Graphics/SVG/1.1/DTD/svg11.dtd">
<!-- Generated by graphviz version 2.43.0 (0)
 -->
<!-- Title: /home/q479098/src/mirror/examples/ramses&#45;example&#45;data&#45;buffers&#45;texture/src Pages: 1 -->
<svg width="225pt" height="151pt"
 viewBox="0.00 0.00 225.00 151.00" xmlns="http://www.w3.org/2000/svg" xmlns:xlink="http://www.w3.org/1999/xlink">
<g id="graph0" class="graph" transform="scale(1 1) rotate(0) translate(4 147)">
<title>/home/q479098/src/mirror/examples/ramses&#45;example&#45;data&#45;buffers&#45;texture/src</title>
<polygon fill="white" stroke="transparent" points="-4,4 -4,-147 221,-147 221,4 -4,4"/>
<g id="clust1" class="cluster">
<title>clusterdir_fbdc65aa80630f95292972a42b7f2803</title>
<g id="a_clust1"><a xlink:href="dir_fbdc65aa80630f95292972a42b7f2803.html" target="_top" xlink:title="ramses&#45;example&#45;data&#45;buffers&#45;texture">
<polygon fill="#ddddee" stroke="black" points="8,-64 8,-135 209,-135 209,-64 8,-64"/>
<text text-anchor="middle" x="108.5" y="-123" font-family="Helvetica,sans-Serif" font-size="10.00">ramses&#45;example&#45;data&#45;buffers&#45;texture</text>
</a>
</g>
</g>
<!-- dir_3d737a3e4140a11a6277aee729be47cf -->
<g id="node1" class="node">
<title>dir_3d737a3e4140a11a6277aee729be47cf</title>
<g id="a_node1"><a xlink:href="dir_3d737a3e4140a11a6277aee729be47cf.html" target="_top" xlink:title="src">
<polygon fill="#eeeeff" stroke="black" points="135,-108 81,-108 81,-72 135,-72 135,-108"/>
<text text-anchor="middle" x="108" y="-87.5" font-family="Helvetica,sans-Serif" font-size="10.00">src</text>
</a>
</g>
</g>
<!-- dir_db3a54907829b36871118d03417739cd -->
<g id="node2" class="node">
<title>dir_db3a54907829b36871118d03417739cd</title>
<g id="a_node2"><a xlink:href="dir_db3a54907829b36871118d03417739cd.html" target="_top" xlink:title="client">
<polygon fill="white" stroke="red" points="135,-36 81,-36 81,0 135,0 135,-36"/>
<text text-anchor="middle" x="108" y="-15.5" font-family="Helvetica,sans-Serif" font-size="10.00">client</text>
</a>
</g>
</g>
<!-- dir_3d737a3e4140a11a6277aee729be47cf&#45;&gt;dir_db3a54907829b36871118d03417739cd -->
<g id="edge1" class="edge">
<title>dir_3d737a3e4140a11a6277aee729be47cf&#45;&gt;dir_db3a54907829b36871118d03417739cd</title>
<path fill="none" stroke="black" d="M108,-71.7C108,-63.98 108,-54.71 108,-46.11"/>
<polygon fill="black" stroke="black" points="111.5,-46.1 108,-36.1 104.5,-46.1 111.5,-46.1"/>
<g id="a_edge1&#45;headlabel"><a xlink:href="dir_000040_000000.html" target="_top" xlink:title="2">
<text text-anchor="middle" x="114.34" y="-47.2" font-family="Helvetica,sans-Serif" font-size="10.00">2</text>
</a>
</g>
</g>
</g>
</svg>
