<?xml version="1.0" encoding="UTF-8" standalone="no"?>
<!DOCTYPE svg PUBLIC "-//W3C//DTD SVG 1.1//EN"
 "http://www.w3.org/Graphics/SVG/1.1/DTD/svg11.dtd">
<!-- Generated by graphviz version 2.43.0 (0)
 -->
<!-- Title: Responder Pages: 1 -->
<!--zoomable 978 -->
<svg id="main" version="1.1" xmlns="http://www.w3.org/2000/svg" xmlns:xlink="http://www.w3.org/1999/xlink" xml:space="preserve" onload="init(evt)">
<style type="text/css"><![CDATA[
.edge:hover path { stroke: red; }
.edge:hover polygon { stroke: red; fill: red; }
]]></style>
<script type="text/javascript"><![CDATA[
var edges = document.getElementsByTagName('g');
if (edges && edges.length) {
  for (var i=0;i<edges.length;i++) {
    if (edges[i].id.substr(0,4)=='edge') {
      edges[i].setAttribute('class','edge');
    }
  }
}
]]></script>
        <defs>
                <circle id="rim" cx="0" cy="0" r="7"/>
                <circle id="rim2" cx="0" cy="0" r="3.5"/>
                <g id="zoomPlus">
                        <use xlink:href="#rim" fill="#404040">
                                <set attributeName="fill" to="#808080" begin="zoomplus.mouseover" end="zoomplus.mouseout"/>
                        </use>
                        <path d="M-4,0h8M0,-4v8" fill="none" stroke="white" stroke-width="1.5" pointer-events="none"/>
                </g>
                <g id="zoomMin">
                        <use xlink:href="#rim" fill="#404040">
                                <set attributeName="fill" to="#808080" begin="zoomminus.mouseover" end="zoomminus.mouseout"/>
                        </use>
                        <path d="M-4,0h8" fill="none" stroke="white" stroke-width="1.5" pointer-events="none"/>
                </g>
                <g id="dirArrow">
                        <path fill="none" stroke="white" stroke-width="1.5" d="M0,-3.0v7 M-2.5,-0.5L0,-3.0L2.5,-0.5"/>
                </g>
               <g id="resetDef">
                       <use xlink:href="#rim2" fill="#404040">
                               <set attributeName="fill" to="#808080" begin="reset.mouseover" end="reset.mouseout"/>
                       </use>
               </g>
        </defs>

<script type="text/javascript">
var viewWidth = 1584;
var viewHeight = 978;
</script>
<script xlink:href="svgpan.js"/>
<svg id="graph" class="graph">
<g id="viewport">
<title>Responder</title>
<polygon fill="white" stroke="transparent" points="-4,4 -4,-973.74 1580,-973.74 1580,4 -4,4"/>
<!-- unknown -->
<g id="node1" class="node">
<title>unknown</title>
<ellipse fill="none" stroke="purple" cx="100" cy="-951.74" rx="54.69" ry="18"/>
<text text-anchor="middle" x="100" y="-948.04" font-family="Times,serif" font-size="14.00">Unknown</text>
</g>
<!-- unknown&#45;&gt;unknown -->
<g id="edge2" class="edge">
<title>unknown&#45;&gt;unknown</title>
<path fill="none" stroke="purple" d="M152.86,-956.29C164.3,-955.84 172.6,-954.33 172.6,-951.74 172.6,-950 168.85,-948.75 162.92,-947.98"/>
<polygon fill="purple" stroke="purple" points="163.1,-944.48 152.86,-947.19 162.55,-951.46 163.1,-944.48"/>
<text text-anchor="middle" x="241.1" y="-948.04" font-family="Times,serif" font-size="14.00">Any other message</text>
</g>
<!-- unknown&#45;&gt;unknown -->
<g id="edge3" class="edge">
<title>unknown&#45;&gt;unknown</title>
<path fill="none" stroke="purple" d="M149.99,-959.09C213.36,-963.35 309.6,-960.9 309.6,-951.74 309.6,-943.07 223.24,-940.41 160.27,-943.77"/>
<polygon fill="purple" stroke="purple" points="159.77,-940.3 149.99,-944.39 160.18,-947.29 159.77,-940.3"/>
<text text-anchor="middle" x="342.6" y="-948.04" font-family="Times,serif" font-size="14.00">Old pinfo</text>
</g>
<!-- old_code -->
<g id="node2" class="node">
<title>old_code</title>
<ellipse fill="none" stroke="purple" cx="217" cy="-849.74" rx="53.09" ry="18"/>
<text text-anchor="middle" x="217" y="-846.04" font-family="Times,serif" font-size="14.00">Old Code</text>
</g>
<!-- unknown&#45;&gt;old_code -->
<g id="edge4" class="edge">
<title>unknown&#45;&gt;old_code</title>
<path fill="none" stroke="purple" d="M146.73,-942.38C163.83,-937.23 182.12,-928.96 195,-915.74 204.97,-905.5 210.43,-890.59 213.41,-877.63"/>
<polygon fill="purple" stroke="purple" points="216.85,-878.27 215.31,-867.78 209.98,-876.94 216.85,-878.27"/>
<text text-anchor="middle" x="257" y="-904.54" font-family="Times,serif" font-size="14.00">Up</text>
<text text-anchor="middle" x="257" y="-889.54" font-family="Times,serif" font-size="14.00">+Inform new</text>
</g>
<!-- wait_for_up -->
<g id="node12" class="node">
<title>wait_for_up</title>
<ellipse fill="none" stroke="black" cx="495" cy="-18" rx="62.29" ry="18"/>
<text text-anchor="middle" x="495" y="-14.3" font-family="Times,serif" font-size="14.00">Wait for up</text>
</g>
<!-- unknown&#45;&gt;wait_for_up -->
<g id="edge1" class="edge">
<title>unknown&#45;&gt;wait_for_up</title>
<path fill="none" stroke="purple" d="M70,-936.58C40.54,-920.36 0,-890.76 0,-850.74 0,-850.74 0,-850.74 0,-124 0,-38.72 284.68,-22.4 422.26,-19.49"/>
<polygon fill="purple" stroke="purple" points="422.38,-22.99 432.31,-19.3 422.24,-15.99 422.38,-22.99"/>
<text text-anchor="middle" x="65" y="-502.54" font-family="Times,serif" font-size="14.00">New pinfo</text>
<text text-anchor="middle" x="65" y="-487.54" font-family="Times,serif" font-size="14.00">+Mark reponsible</text>
</g>
<!-- old_code&#45;&gt;unknown -->
<g id="edge5" class="edge">
<title>old_code&#45;&gt;unknown</title>
<path fill="none" stroke="purple" d="M164,-852.33C139.51,-856.06 112.49,-865.08 97,-885.74 89,-896.4 89.01,-911.04 91.35,-923.73"/>
<polygon fill="purple" stroke="purple" points="88.02,-924.87 93.73,-933.79 94.84,-923.26 88.02,-924.87"/>
<text text-anchor="middle" x="144" y="-904.54" font-family="Times,serif" font-size="14.00">Down</text>
<text text-anchor="middle" x="144" y="-889.54" font-family="Times,serif" font-size="14.00">+Inform new</text>
</g>
<!-- old_code&#45;&gt;old_code -->
<g id="edge6" class="edge">
<title>old_code&#45;&gt;old_code</title>
<path fill="none" stroke="purple" d="M268.59,-854.3C279.99,-853.87 288.3,-852.35 288.3,-849.74 288.3,-847.98 284.55,-846.72 278.63,-845.95"/>
<polygon fill="purple" stroke="purple" points="278.83,-842.46 268.59,-845.18 278.29,-849.44 278.83,-842.46"/>
<text text-anchor="middle" x="321.3" y="-846.04" font-family="Times,serif" font-size="14.00">Old pinfo</text>
</g>
<!-- old_code&#45;&gt;old_code -->
<g id="edge7" class="edge">
<title>old_code&#45;&gt;old_code</title>
<path fill="none" stroke="purple" d="M264.52,-857.98C305.47,-860.91 354.3,-858.16 354.3,-849.74 354.3,-842.01 313.15,-839.06 274.72,-840.89"/>
<polygon fill="purple" stroke="purple" points="274.29,-837.41 264.52,-841.5 274.71,-844.4 274.29,-837.41"/>
<text text-anchor="middle" x="447.8" y="-853.54" font-family="Times,serif" font-size="14.00">Send pinfo</text>
<text text-anchor="middle" x="447.8" y="-838.54" font-family="Times,serif" font-size="14.00">Send keepalive (incr MID)</text>
</g>
<!-- session_reply -->
<g id="node5" class="node">
<title>session_reply</title>
<polygon fill="none" stroke="black" points="380,-765.74 270,-727.74 380,-689.74 490,-727.74 380,-765.74"/>
<text text-anchor="middle" x="380" y="-731.54" font-family="Times,serif" font-size="14.00">Send session</text>
<text text-anchor="middle" x="380" y="-716.54" font-family="Times,serif" font-size="14.00">reply</text>
</g>
<!-- old_code&#45;&gt;session_reply -->
<g id="edge8" class="edge">
<title>old_code&#45;&gt;session_reply</title>
<path fill="none" stroke="purple" d="M238.31,-833.05C263.34,-814.62 305.49,-783.59 337.33,-760.16"/>
<polygon fill="purple" stroke="purple" points="339.62,-762.82 345.59,-754.07 335.47,-757.18 339.62,-762.82"/>
<text text-anchor="middle" x="367" y="-802.54" font-family="Times,serif" font-size="14.00">New pinfo</text>
<text text-anchor="middle" x="367" y="-787.54" font-family="Times,serif" font-size="14.00">+Mark resposible</text>
</g>
<!-- unavailable -->
<g id="node3" class="node">
<title>unavailable</title>
<ellipse fill="none" stroke="black" cx="495" cy="-125" rx="65.79" ry="18"/>
<text text-anchor="middle" x="495" y="-121.3" font-family="Times,serif" font-size="14.00">Unavailable</text>
</g>
<!-- unavailable&#45;&gt;unavailable -->
<g id="edge9" class="edge">
<title>unavailable&#45;&gt;unavailable</title>
<path fill="none" stroke="black" d="M545.22,-136.61C563.59,-136.92 578.64,-133.05 578.64,-125 578.64,-118.52 568.9,-114.75 555.52,-113.69"/>
<polygon fill="black" stroke="black" points="555.32,-110.18 545.22,-113.39 555.12,-117.18 555.32,-110.18"/>
<text text-anchor="middle" x="647.14" y="-121.3" font-family="Times,serif" font-size="14.00">Any other message</text>
</g>
<!-- session_wait -->
<g id="node4" class="node">
<title>session_wait</title>
<ellipse fill="none" stroke="black" cx="374" cy="-240.87" rx="52.15" ry="26.74"/>
<text text-anchor="middle" x="374" y="-244.67" font-family="Times,serif" font-size="14.00">Wait for</text>
<text text-anchor="middle" x="374" y="-229.67" font-family="Times,serif" font-size="14.00">session</text>
</g>
<!-- unavailable&#45;&gt;session_wait -->
<g id="edge10" class="edge">
<title>unavailable&#45;&gt;session_wait</title>
<path fill="none" stroke="black" d="M477.59,-142.38C458.93,-159.94 428.9,-188.21 405.97,-209.79"/>
<polygon fill="black" stroke="black" points="403.37,-207.42 398.49,-216.83 408.17,-212.52 403.37,-207.42"/>
<text text-anchor="middle" x="445" y="-184.8" font-family="Times,serif" font-size="14.00">Up</text>
</g>
<!-- unavailable&#45;&gt;wait_for_up -->
<g id="edge30" class="edge">
<title>unavailable&#45;&gt;wait_for_up</title>
<path fill="none" stroke="black" d="M522.58,-108.54C542.72,-95.1 564.64,-74.62 553,-54 549.58,-47.94 544.65,-42.82 539.08,-38.52"/>
<polygon fill="black" stroke="black" points="540.83,-35.47 530.58,-32.79 536.92,-41.28 540.83,-35.47"/>
<text text-anchor="middle" x="597" y="-57.8" font-family="Times,serif" font-size="14.00">Init session</text>
</g>
<!-- session_wait&#45;&gt;unavailable -->
<g id="edge11" class="edge">
<title>session_wait&#45;&gt;unavailable</title>
<path fill="none" stroke="black" d="M416.41,-224.72C431.55,-217.75 447.84,-208.26 460,-196 471.93,-183.97 480.55,-167.04 486.24,-152.85"/>
<polygon fill="black" stroke="black" points="489.66,-153.7 489.88,-143.11 483.1,-151.25 489.66,-153.7"/>
<text text-anchor="middle" x="491.5" y="-184.8" font-family="Times,serif" font-size="14.00">Down</text>
</g>
<!-- session_wait&#45;&gt;session_reply -->
<g id="edge13" class="edge">
<title>session_wait&#45;&gt;session_reply</title>
<path fill="none" stroke="black" d="M323.12,-247.47C261.54,-257.4 166,-284.31 166,-355.74 166,-606.74 166,-606.74 166,-606.74 166,-668.58 234.81,-698.87 294.4,-713.51"/>
<polygon fill="black" stroke="black" points="293.72,-716.94 304.25,-715.81 295.31,-710.13 293.72,-716.94"/>
<text text-anchor="middle" x="207" y="-495.04" font-family="Times,serif" font-size="14.00">Init session</text>
</g>
<!-- send_sid_error_waitforsession -->
<g id="node9" class="node">
<title>send_sid_error_waitforsession</title>
<polygon fill="none" stroke="black" points="254,-163 124,-125 254,-87 384,-125 254,-163"/>
<text text-anchor="middle" x="254" y="-128.8" font-family="Times,serif" font-size="14.00">Send error with</text>
<text text-anchor="middle" x="254" y="-113.8" font-family="Times,serif" font-size="14.00">received SID</text>
</g>
<!-- session_wait&#45;&gt;send_sid_error_waitforsession -->
<g id="edge12" class="edge">
<title>session_wait&#45;&gt;send_sid_error_waitforsession</title>
<path fill="none" stroke="black" d="M321.65,-239.13C288.78,-235.61 248.64,-225.04 227,-196 220.2,-186.87 221.19,-175.82 225.44,-165.22"/>
<polygon fill="black" stroke="black" points="228.66,-166.6 229.91,-156.08 222.37,-163.53 228.66,-166.6"/>
<text text-anchor="middle" x="289.5" y="-184.8" font-family="Times,serif" font-size="14.00">Non&#45;init message</text>
</g>
<!-- session_reply&#45;&gt;session_wait -->
<g id="edge16" class="edge">
<title>session_reply&#45;&gt;session_wait</title>
<path fill="none" stroke="black" d="M343.71,-702.21C316.52,-680.62 284,-646.49 284,-606.74 284,-606.74 284,-606.74 284,-355.74 284,-320.38 311.04,-289.58 335.47,-268.95"/>
<polygon fill="black" stroke="black" points="337.72,-271.64 343.28,-262.62 333.31,-266.2 337.72,-271.64"/>
<text text-anchor="middle" x="297.5" y="-495.04" font-family="Times,serif" font-size="14.00">Fail</text>
</g>
<!-- connected -->
<g id="node6" class="node">
<title>connected</title>
<ellipse fill="none" stroke="black" cx="748" cy="-605.74" rx="59.59" ry="18"/>
<text text-anchor="middle" x="748" y="-602.04" font-family="Times,serif" font-size="14.00">Connected</text>
</g>
<!-- session_reply&#45;&gt;connected -->
<g id="edge15" class="edge">
<title>session_reply&#45;&gt;connected</title>
<path fill="none" stroke="green" d="M425.9,-705.57C467.91,-686.82 532.16,-659.72 590,-641.74 621.82,-631.85 658.06,-623.61 687.81,-617.62"/>
<polygon fill="green" stroke="green" points="688.5,-621.05 697.63,-615.67 687.14,-614.18 688.5,-621.05"/>
<text text-anchor="middle" x="634" y="-660.54" font-family="Times,serif" font-size="14.00">Ok</text>
<text text-anchor="middle" x="634" y="-645.54" font-family="Times,serif" font-size="14.00">+CONNECT</text>
</g>
<!-- connected&#45;&gt;unavailable -->
<g id="edge22" class="edge">
<title>connected&#45;&gt;unavailable</title>
<path fill="none" stroke="red" d="M807.49,-603.76C943.27,-600.65 1271.72,-587.89 1368,-536.74 1387.99,-526.12 1403,-522.38 1403,-499.74 1403,-499.74 1403,-499.74 1403,-239.87 1403,-156.2 788.17,-133.13 570.37,-127.58"/>
<polygon fill="red" stroke="red" points="570.39,-124.08 560.3,-127.33 570.21,-131.07 570.39,-124.08"/>
<text text-anchor="middle" x="1460.5" y="-360.54" font-family="Times,serif" font-size="14.00">Down</text>
<text text-anchor="middle" x="1460.5" y="-345.54" font-family="Times,serif" font-size="14.00">+DISCONNECT</text>
</g>
<!-- connected&#45;&gt;session_reply -->
<g id="edge21" class="edge">
<title>connected&#45;&gt;session_reply</title>
<path fill="none" stroke="red" d="M734.88,-623.43C722.06,-638.53 701.12,-660.13 678,-671.74 618.45,-701.65 544.87,-715.43 485.72,-721.71"/>
<polygon fill="red" stroke="red" points="485.21,-718.25 475.61,-722.73 485.91,-725.21 485.21,-718.25"/>
<text text-anchor="middle" x="774.5" y="-660.54" font-family="Times,serif" font-size="14.00">Init session</text>
<text text-anchor="middle" x="774.5" y="-645.54" font-family="Times,serif" font-size="14.00">+DISCONNECT</text>
</g>
<!-- connected&#45;&gt;connected -->
<g id="edge17" class="edge">
<title>connected&#45;&gt;connected</title>
<path fill="none" stroke="black" d="M802.17,-613.51C815.69,-612.96 825.79,-610.37 825.79,-605.74 825.79,-602.37 820.46,-600.09 812.36,-598.88"/>
<polygon fill="black" stroke="black" points="812.44,-595.37 802.17,-597.97 811.82,-602.34 812.44,-595.37"/>
<text text-anchor="middle" x="866.79" y="-602.04" font-family="Times,serif" font-size="14.00">Receive OK</text>
</g>
<!-- send_error -->
<g id="node7" class="node">
<title>send_error</title>
<polygon fill="none" stroke="black" points="642,-394.74 512,-356.74 642,-318.74 772,-356.74 642,-394.74"/>
<text text-anchor="middle" x="642" y="-360.54" font-family="Times,serif" font-size="14.00">Send error with</text>
<text text-anchor="middle" x="642" y="-345.54" font-family="Times,serif" font-size="14.00">last valid SID</text>
</g>
<!-- connected&#45;&gt;send_error -->
<g id="edge18" class="edge">
<title>connected&#45;&gt;send_error</title>
<path fill="none" stroke="red" d="M805.9,-600.96C928.7,-592.35 1206.24,-569.43 1233,-536.74 1254.4,-510.61 1254.74,-486.59 1233,-460.74 1174.79,-391.51 923.52,-368.81 767.96,-361.37"/>
<polygon fill="red" stroke="red" points="768,-357.86 757.85,-360.9 767.68,-364.86 768,-357.86"/>
<text text-anchor="middle" x="1306.5" y="-502.54" font-family="Times,serif" font-size="14.00">Wrong MID</text>
<text text-anchor="middle" x="1306.5" y="-487.54" font-family="Times,serif" font-size="14.00">+DISCONNECT</text>
</g>
<!-- connected&#45;&gt;send_error -->
<g id="edge19" class="edge">
<title>connected&#45;&gt;send_error</title>
<path fill="none" stroke="red" d="M788.85,-592.54C799.53,-587.3 809.78,-579.94 816,-569.74 828.35,-549.5 888.59,-589.14 814,-460.74 791.84,-422.59 749.45,-396.97 712.31,-380.82"/>
<polygon fill="red" stroke="red" points="713.57,-377.55 702.99,-376.92 710.86,-384.01 713.57,-377.55"/>
<text text-anchor="middle" x="906.5" y="-502.54" font-family="Times,serif" font-size="14.00">Timeout</text>
<text text-anchor="middle" x="906.5" y="-487.54" font-family="Times,serif" font-size="14.00">+DISCONNECT</text>
</g>
<!-- send_sid_error_connected -->
<g id="node8" class="node">
<title>send_sid_error_connected</title>
<polygon fill="none" stroke="black" points="675,-536.74 545,-498.74 675,-460.74 805,-498.74 675,-536.74"/>
<text text-anchor="middle" x="675" y="-502.54" font-family="Times,serif" font-size="14.00">Send error with</text>
<text text-anchor="middle" x="675" y="-487.54" font-family="Times,serif" font-size="14.00">invalid SID</text>
</g>
<!-- connected&#45;&gt;send_sid_error_connected -->
<g id="edge20" class="edge">
<title>connected&#45;&gt;send_sid_error_connected</title>
<path fill="none" stroke="black" d="M742.18,-587.82C738.34,-577.78 732.77,-565.05 726,-554.74 721.73,-548.23 716.67,-541.77 711.43,-535.68"/>
<polygon fill="black" stroke="black" points="714.01,-533.31 704.73,-528.19 708.79,-537.98 714.01,-533.31"/>
<text text-anchor="middle" x="773" y="-558.54" font-family="Times,serif" font-size="14.00">Wrong SID</text>
</g>
<!-- normal_send -->
<g id="node10" class="node">
<title>normal_send</title>
<polygon fill="none" stroke="black" points="428,-516.74 328.96,-498.74 428,-480.74 527.04,-498.74 428,-516.74"/>
<text text-anchor="middle" x="428" y="-495.04" font-family="Times,serif" font-size="14.00">Normal send</text>
</g>
<!-- connected&#45;&gt;normal_send -->
<g id="edge23" class="edge">
<title>connected&#45;&gt;normal_send</title>
<path fill="none" stroke="black" d="M689.29,-601.94C622.71,-597.9 518.97,-588.74 485,-569.74 466.25,-559.25 451.23,-539.92 441.33,-524.23"/>
<polygon fill="black" stroke="black" points="444.24,-522.28 436.1,-515.5 438.24,-525.88 444.24,-522.28"/>
<text text-anchor="middle" x="536.5" y="-558.54" font-family="Times,serif" font-size="14.00">Send message</text>
</g>
<!-- send_keepalive_connected -->
<g id="node11" class="node">
<title>send_keepalive_connected</title>
<polygon fill="none" stroke="black" points="1099,-536.74 974,-498.74 1099,-460.74 1224,-498.74 1099,-536.74"/>
<text text-anchor="middle" x="1099" y="-502.54" font-family="Times,serif" font-size="14.00">Send keepalive</text>
<text text-anchor="middle" x="1099" y="-487.54" font-family="Times,serif" font-size="14.00">(Same MID)</text>
</g>
<!-- connected&#45;&gt;send_keepalive_connected -->
<g id="edge24" class="edge">
<title>connected&#45;&gt;send_keepalive_connected</title>
<path fill="none" stroke="black" d="M805.49,-600.75C850.39,-596.4 913.88,-587.52 967,-569.74 996.25,-559.95 1026.8,-544.15 1051.14,-530.04"/>
<polygon fill="black" stroke="black" points="1052.97,-533.03 1059.81,-524.93 1049.42,-526.99 1052.97,-533.03"/>
<text text-anchor="middle" x="1033" y="-558.54" font-family="Times,serif" font-size="14.00">On timer</text>
</g>
<!-- send_error&#45;&gt;session_wait -->
<g id="edge25" class="edge">
<title>send_error&#45;&gt;session_wait</title>
<path fill="none" stroke="black" d="M590.33,-333.78C542.09,-313.29 470.61,-282.92 423.19,-262.77"/>
<polygon fill="black" stroke="black" points="424.32,-259.45 413.74,-258.76 421.58,-265.89 424.32,-259.45"/>
<text text-anchor="middle" x="534.5" y="-289.54" font-family="Times,serif" font-size="14.00">OK/Fail</text>
</g>
<!-- send_sid_error_connected&#45;&gt;connected -->
<g id="edge26" class="edge">
<title>send_sid_error_connected&#45;&gt;connected</title>
<path fill="none" stroke="black" d="M663.79,-533.58C661.78,-545.82 662.15,-559.21 669,-569.74 674.7,-578.51 683.16,-585.09 692.45,-590.04"/>
<polygon fill="black" stroke="black" points="691,-593.23 701.54,-594.29 693.97,-586.89 691,-593.23"/>
<text text-anchor="middle" x="695.5" y="-558.54" font-family="Times,serif" font-size="14.00">OK/Fail</text>
</g>
<!-- send_sid_error_waitforsession&#45;&gt;session_wait -->
<g id="edge14" class="edge">
<title>send_sid_error_waitforsession&#45;&gt;session_wait</title>
<path fill="none" stroke="black" d="M307.73,-147.47C323.68,-155.96 340.07,-167.07 352,-181 357.77,-187.73 362.09,-196.11 365.3,-204.43"/>
<polygon fill="black" stroke="black" points="362.04,-205.71 368.59,-214.05 368.67,-203.45 362.04,-205.71"/>
<text text-anchor="middle" x="387.5" y="-184.8" font-family="Times,serif" font-size="14.00">OK/Fail</text>
</g>
<!-- normal_send&#45;&gt;connected -->
<g id="edge27" class="edge">
<title>normal_send&#45;&gt;connected</title>
<path fill="none" stroke="black" d="M460.08,-510.91C481.53,-518.34 510.42,-528.26 536,-536.74 591.48,-555.14 655.39,-575.53 698.41,-589.14"/>
<polygon fill="black" stroke="black" points="697.48,-592.51 708.07,-592.19 699.59,-585.84 697.48,-592.51"/>
<text text-anchor="middle" x="644" y="-558.54" font-family="Times,serif" font-size="14.00">Ok</text>
</g>
<!-- normal_send&#45;&gt;send_error -->
<g id="edge28" class="edge">
<title>normal_send&#45;&gt;send_error</title>
<path fill="none" stroke="red" d="M448.52,-484.32C481.84,-462.52 548.57,-418.87 594.25,-388.98"/>
<polygon fill="red" stroke="red" points="596.35,-391.78 602.81,-383.38 592.52,-385.93 596.35,-391.78"/>
<text text-anchor="middle" x="611.5" y="-431.54" font-family="Times,serif" font-size="14.00">Fail</text>
<text text-anchor="middle" x="611.5" y="-416.54" font-family="Times,serif" font-size="14.00">+DISCONNECT</text>
</g>
<!-- send_keepalive_connected&#45;&gt;connected -->
<g id="edge29" class="edge">
<title>send_keepalive_connected&#45;&gt;connected</title>
<path fill="none" stroke="black" d="M1036.62,-517.92C1000.24,-528.56 953.49,-542.31 912,-554.74 873.75,-566.19 830.57,-579.37 798.11,-589.32"/>
<polygon fill="black" stroke="black" points="796.94,-586.02 788.4,-592.3 798.99,-592.71 796.94,-586.02"/>
<text text-anchor="middle" x="937.5" y="-558.54" font-family="Times,serif" font-size="14.00">Ok/Fail</text>
</g>
<!-- wait_for_up&#45;&gt;unavailable -->
<g id="edge31" class="edge">
<title>wait_for_up&#45;&gt;unavailable</title>
<path fill="none" stroke="black" d="M552.36,-25.34C588.64,-30.67 630.74,-39.74 642,-54 668.2,-87.17 613.64,-105.47 563.72,-114.96"/>
<polygon fill="black" stroke="black" points="563.05,-111.52 553.83,-116.74 564.29,-118.41 563.05,-111.52"/>
<text text-anchor="middle" x="677.5" y="-57.8" font-family="Times,serif" font-size="14.00">Timeout</text>
</g>
<!-- wait_for_up&#45;&gt;unavailable -->
<g id="edge32" class="edge">
<title>wait_for_up&#45;&gt;unavailable</title>
<path fill="none" stroke="black" d="M432.61,-19.44C370.67,-21.36 281.88,-28.62 260,-54 220.23,-100.13 333.86,-72.45 393,-87 412.45,-91.78 433.33,-98.98 451.11,-105.75"/>
<polygon fill="black" stroke="black" points="450.05,-109.09 460.63,-109.45 452.58,-102.57 450.05,-109.09"/>
<text text-anchor="middle" x="326.5" y="-57.8" font-family="Times,serif" font-size="14.00">Wrong MID or SID</text>
</g>
<!-- wait_for_up&#45;&gt;unavailable -->
<g id="edge33" class="edge">
<title>wait_for_up&#45;&gt;unavailable</title>
<path fill="none" stroke="black" d="M445.81,-29.1C432.63,-34.29 419.87,-42.14 412,-54 397.92,-75.22 421.81,-93.53 447.51,-106.1"/>
<polygon fill="black" stroke="black" points="446.08,-109.29 456.62,-110.3 449.01,-102.94 446.08,-109.29"/>
<text text-anchor="middle" x="480.5" y="-57.8" font-family="Times,serif" font-size="14.00">Any other message</text>
</g>
<!-- wait_for_up&#45;&gt;session_reply -->
<g id="edge34" class="edge">
<title>wait_for_up&#45;&gt;session_reply</title>
<path fill="none" stroke="black" d="M557.68,-18.6C785.18,-17.96 1554,-23.25 1554,-124 1554,-606.74 1554,-606.74 1554,-606.74 1554,-712.09 796.12,-725.62 498.22,-726.86"/>
<polygon fill="black" stroke="black" points="497.81,-723.37 487.82,-726.9 497.83,-730.37 497.81,-723.37"/>
<text text-anchor="middle" x="1565" y="-353.04" font-family="Times,serif" font-size="14.00">Up</text>
</g>
<!-- wait_for_up&#45;&gt;wait_for_up -->
<g id="edge35" class="edge">
<title>wait_for_up&#45;&gt;wait_for_up</title>
<path fill="none" stroke="black" d="M551.35,-25.75C565.14,-25.18 575.39,-22.59 575.39,-18 575.39,-14.63 569.86,-12.34 561.46,-11.13"/>
<polygon fill="black" stroke="black" points="561.62,-7.63 551.35,-10.25 561.01,-14.6 561.62,-7.63"/>
<text text-anchor="middle" x="662.39" y="-14.3" font-family="Times,serif" font-size="14.00">Init session or keepalive</text>
</g>
</g>
</svg>
        <g id="navigator" transform="translate(0 0)" fill="#404254">
                <rect fill="#f2f5e9" fill-opacity="0.5" stroke="#606060" stroke-width=".5" x="0" y="0" width="60" height="60"/>
                <use id="zoomplus" xlink:href="#zoomPlus" x="17" y="9" onmousedown="handleZoom(evt,'in')"/>
                <use id="zoomminus" xlink:href="#zoomMin" x="42" y="9" onmousedown="handleZoom(evt,'out')"/>
                <use id="reset" xlink:href="#resetDef" x="30" y="36" onmousedown="handleReset()"/>
                <g id="arrowUp" xlink:href="#dirArrow" transform="translate(30 24)" onmousedown="handlePan(0,-1)">
                  <use xlink:href="#rim" fill="#404040">
                        <set attributeName="fill" to="#808080" begin="arrowUp.mouseover" end="arrowUp.mouseout"/>
                  </use>
                  <path fill="none" stroke="white" stroke-width="1.5" d="M0,-3.0v7 M-2.5,-0.5L0,-3.0L2.5,-0.5"/>
                </g>
                <g id="arrowRight" xlink:href="#dirArrow" transform="rotate(90) translate(36 -43)" onmousedown="handlePan(1,0)">
                  <use xlink:href="#rim" fill="#404040">
                        <set attributeName="fill" to="#808080" begin="arrowRight.mouseover" end="arrowRight.mouseout"/>
                  </use>
                  <path fill="none" stroke="white" stroke-width="1.5" d="M0,-3.0v7 M-2.5,-0.5L0,-3.0L2.5,-0.5"/>
                </g>
                <g id="arrowDown" xlink:href="#dirArrow" transform="rotate(180) translate(-30 -48)" onmousedown="handlePan(0,1)">
                  <use xlink:href="#rim" fill="#404040">
                        <set attributeName="fill" to="#808080" begin="arrowDown.mouseover" end="arrowDown.mouseout"/>
                  </use>
                  <path fill="none" stroke="white" stroke-width="1.5" d="M0,-3.0v7 M-2.5,-0.5L0,-3.0L2.5,-0.5"/>
                </g>
                <g id="arrowLeft" xlink:href="#dirArrow" transform="rotate(270) translate(-36 17)" onmousedown="handlePan(-1,0)">
                  <use xlink:href="#rim" fill="#404040">
                        <set attributeName="fill" to="#808080" begin="arrowLeft.mouseover" end="arrowLeft.mouseout"/>
                  </use>
                  <path fill="none" stroke="white" stroke-width="1.5" d="M0,-3.0v7 M-2.5,-0.5L0,-3.0L2.5,-0.5"/>
                </g>
        </g>
        <svg viewBox="0 0 15 15" width="100%" height="30px" preserveAspectRatio="xMaxYMin meet">
         <g id="arrow_out" transform="scale(0.3 0.3)">
          <a xlink:href="dot_responder_with_old_org.svg" target="_base">
           <rect id="button" ry="5" rx="5" y="6" x="6" height="38" width="38"
                fill="#f2f5e9" fill-opacity="0.5" stroke="#606060" stroke-width="1.0"/>
           <path id="arrow"
             d="M 11.500037,31.436501 C 11.940474,20.09759 22.043105,11.32322 32.158766,21.979434 L 37.068811,17.246167 C 37.068811,17.246167 37.088388,32 37.088388,32 L 22.160133,31.978069 C 22.160133,31.978069 26.997745,27.140456 26.997745,27.140456 C 18.528582,18.264221 13.291696,25.230495 11.500037,31.436501 z"
             style="fill:#404040;"/>
          </a>
         </g>
        </svg>
</svg>
