<?xml version="1.0" encoding="UTF-8" standalone="no"?>
<!DOCTYPE svg PUBLIC "-//W3C//DTD SVG 1.1//EN"
 "http://www.w3.org/Graphics/SVG/1.1/DTD/svg11.dtd">
<!-- Generated by graphviz version 2.43.0 (0)
 -->
<!-- Title: Initiator Pages: 1 -->
<!--zoomable 748 -->
<svg id="main" version="1.1" xmlns="http://www.w3.org/2000/svg" xmlns:xlink="http://www.w3.org/1999/xlink" xml:space="preserve" onload="init(evt)">
<style type="text/css"><![CDATA[
.edge:hover path { stroke: red; }
.edge:hover polygon { stroke: red; fill: red; }
]]></style>
<script type="text/javascript"><![CDATA[
var edges = document.getElementsByTagName('g');
if (edges && edges.length) {
  for (var i=0;i<edges.length;i++) {
    if (edges[i].id.substr(0,4)=='edge') {
      edges[i].setAttribute('class','edge');
    }
  }
}
]]></script>
        <defs>
                <circle id="rim" cx="0" cy="0" r="7"/>
                <circle id="rim2" cx="0" cy="0" r="3.5"/>
                <g id="zoomPlus">
                        <use xlink:href="#rim" fill="#404040">
                                <set attributeName="fill" to="#808080" begin="zoomplus.mouseover" end="zoomplus.mouseout"/>
                        </use>
                        <path d="M-4,0h8M0,-4v8" fill="none" stroke="white" stroke-width="1.5" pointer-events="none"/>
                </g>
                <g id="zoomMin">
                        <use xlink:href="#rim" fill="#404040">
                                <set attributeName="fill" to="#808080" begin="zoomminus.mouseover" end="zoomminus.mouseout"/>
                        </use>
                        <path d="M-4,0h8" fill="none" stroke="white" stroke-width="1.5" pointer-events="none"/>
                </g>
                <g id="dirArrow">
                        <path fill="none" stroke="white" stroke-width="1.5" d="M0,-3.0v7 M-2.5,-0.5L0,-3.0L2.5,-0.5"/>
                </g>
               <g id="resetDef">
                       <use xlink:href="#rim2" fill="#404040">
                               <set attributeName="fill" to="#808080" begin="reset.mouseover" end="reset.mouseout"/>
                       </use>
               </g>
        </defs>

<script type="text/javascript">
var viewWidth = 1613;
var viewHeight = 748;
</script>
<script xlink:href="svgpan.js"/>
<svg id="graph" class="graph">
<g id="viewport">
<title>Initiator</title>
<polygon fill="white" stroke="transparent" points="-4,4 -4,-743.74 1608.8,-743.74 1608.8,4 -4,4"/>
<!-- unknown -->
<g id="node1" class="node">
<title>unknown</title>
<ellipse fill="none" stroke="purple" cx="827.8" cy="-721.74" rx="54.69" ry="18"/>
<text text-anchor="middle" x="827.8" y="-718.04" font-family="Times,serif" font-size="14.00">Unknown</text>
</g>
<!-- unknown&#45;&gt;unknown -->
<g id="edge3" class="edge">
<title>unknown&#45;&gt;unknown</title>
<path fill="none" stroke="purple" d="M880.65,-726.29C892.1,-725.84 900.39,-724.33 900.39,-721.74 900.39,-720 896.65,-718.75 890.72,-717.98"/>
<polygon fill="purple" stroke="purple" points="890.9,-714.48 880.65,-717.19 890.35,-721.46 890.9,-714.48"/>
<text text-anchor="middle" x="968.89" y="-718.04" font-family="Times,serif" font-size="14.00">Any other message</text>
</g>
<!-- unknown&#45;&gt;unknown -->
<g id="edge4" class="edge">
<title>unknown&#45;&gt;unknown</title>
<path fill="none" stroke="purple" d="M877.79,-729.09C941.16,-733.35 1037.39,-730.9 1037.39,-721.74 1037.39,-713.07 951.04,-710.41 888.07,-713.77"/>
<polygon fill="purple" stroke="purple" points="887.56,-710.3 877.79,-714.39 887.98,-717.29 887.56,-710.3"/>
<text text-anchor="middle" x="1070.39" y="-718.04" font-family="Times,serif" font-size="14.00">Old pinfo</text>
</g>
<!-- old_code -->
<g id="node2" class="node">
<title>old_code</title>
<ellipse fill="none" stroke="purple" cx="710.8" cy="-615.24" rx="53.09" ry="18"/>
<text text-anchor="middle" x="710.8" y="-611.54" font-family="Times,serif" font-size="14.00">Old Code</text>
</g>
<!-- unknown&#45;&gt;old_code -->
<g id="edge2" class="edge">
<title>unknown&#45;&gt;old_code</title>
<path fill="none" stroke="purple" d="M825.93,-703.54C823.53,-689.14 818.08,-668.88 805.8,-655.74 794.49,-643.64 778.9,-635.12 763.62,-629.18"/>
<polygon fill="purple" stroke="purple" points="764.79,-625.87 754.19,-625.8 762.43,-632.46 764.79,-625.87"/>
<text text-anchor="middle" x="867.8" y="-674.54" font-family="Times,serif" font-size="14.00">Up</text>
<text text-anchor="middle" x="867.8" y="-659.54" font-family="Times,serif" font-size="14.00">+Inform new</text>
</g>
<!-- unavailable -->
<g id="node3" class="node">
<title>unavailable</title>
<ellipse fill="none" stroke="black" cx="1298.8" cy="-371.74" rx="65.79" ry="18"/>
<text text-anchor="middle" x="1298.8" y="-368.04" font-family="Times,serif" font-size="14.00">Unavailable</text>
</g>
<!-- unknown&#45;&gt;unavailable -->
<g id="edge1" class="edge">
<title>unknown&#45;&gt;unavailable</title>
<path fill="none" stroke="purple" d="M869.44,-709.87C917.42,-696.47 997.87,-671.3 1061.8,-637.74 1182.71,-574.27 1248.66,-579.34 1310.8,-457.74 1320.04,-439.66 1316.04,-416.74 1310.28,-399.26"/>
<polygon fill="purple" stroke="purple" points="1313.5,-397.87 1306.77,-389.68 1306.93,-400.27 1313.5,-397.87"/>
<text text-anchor="middle" x="1324.8" y="-556.04" font-family="Times,serif" font-size="14.00">New pinfo</text>
<text text-anchor="middle" x="1324.8" y="-541.04" font-family="Times,serif" font-size="14.00">+Mark reponsible</text>
</g>
<!-- old_code&#45;&gt;unknown -->
<g id="edge5" class="edge">
<title>old_code&#45;&gt;unknown</title>
<path fill="none" stroke="purple" d="M704.52,-633.16C700.04,-648.45 696.57,-670.76 707.8,-685.74 720.95,-703.28 742.4,-712.42 763.56,-717.07"/>
<polygon fill="purple" stroke="purple" points="763.08,-720.54 773.56,-718.96 764.38,-713.66 763.08,-720.54"/>
<text text-anchor="middle" x="754.8" y="-674.54" font-family="Times,serif" font-size="14.00">Down</text>
<text text-anchor="middle" x="754.8" y="-659.54" font-family="Times,serif" font-size="14.00">+Inform new</text>
</g>
<!-- old_code&#45;&gt;old_code -->
<g id="edge7" class="edge">
<title>old_code&#45;&gt;old_code</title>
<path fill="none" stroke="purple" d="M762.07,-620.18C773.63,-619.73 782.09,-618.09 782.09,-615.24 782.09,-613.33 778.27,-611.96 772.26,-611.13"/>
<polygon fill="purple" stroke="purple" points="772.32,-607.62 762.07,-610.3 771.75,-614.6 772.32,-607.62"/>
<text text-anchor="middle" x="815.09" y="-611.54" font-family="Times,serif" font-size="14.00">Old pinfo</text>
</g>
<!-- old_code&#45;&gt;old_code -->
<g id="edge8" class="edge">
<title>old_code&#45;&gt;old_code</title>
<path fill="none" stroke="purple" d="M757.6,-624.09C798.7,-627.34 848.09,-624.39 848.09,-615.24 848.09,-606.84 806.47,-603.67 767.85,-605.72"/>
<polygon fill="purple" stroke="purple" points="767.35,-602.24 757.6,-606.39 767.81,-609.23 767.35,-602.24"/>
<text text-anchor="middle" x="941.59" y="-626.54" font-family="Times,serif" font-size="14.00">Send pinfo</text>
<text text-anchor="middle" x="941.59" y="-611.54" font-family="Times,serif" font-size="14.00">Send keepalive (incr MID)</text>
<text text-anchor="middle" x="941.59" y="-596.54" font-family="Times,serif" font-size="14.00">+Inform session+MID</text>
</g>
<!-- send_session -->
<g id="node4" class="node">
<title>send_session</title>
<polygon fill="none" stroke="black" points="948.8,-267.74 858.64,-249.74 948.8,-231.74 1038.95,-249.74 948.8,-267.74"/>
<text text-anchor="middle" x="948.8" y="-246.04" font-family="Times,serif" font-size="14.00">Init session</text>
</g>
<!-- old_code&#45;&gt;send_session -->
<g id="edge6" class="edge">
<title>old_code&#45;&gt;send_session</title>
<path fill="none" stroke="purple" d="M659.21,-610.69C512.41,-599.4 97.74,-558.97 16.8,-457.74 -3.16,-432.78 -11.81,-376.66 30.8,-333.74 88.54,-275.57 641.8,-257.35 860.49,-252.39"/>
<polygon fill="purple" stroke="purple" points="860.72,-255.89 870.64,-252.16 860.57,-248.89 860.72,-255.89"/>
<text text-anchor="middle" x="102.8" y="-446.54" font-family="Times,serif" font-size="14.00">New pinfo (bad session)</text>
<text text-anchor="middle" x="102.8" y="-431.54" font-family="Times,serif" font-size="14.00">+Mark reponsible</text>
</g>
<!-- connected -->
<g id="node6" class="node">
<title>connected</title>
<ellipse fill="none" stroke="black" cx="710.8" cy="-493.74" rx="59.59" ry="18"/>
<text text-anchor="middle" x="710.8" y="-490.04" font-family="Times,serif" font-size="14.00">Connected</text>
</g>
<!-- old_code&#45;&gt;connected -->
<g id="edge9" class="edge">
<title>old_code&#45;&gt;connected</title>
<path fill="none" stroke="purple" d="M710.8,-597.12C710.8,-577.51 710.8,-545.11 710.8,-522.02"/>
<polygon fill="purple" stroke="purple" points="714.3,-521.83 710.8,-511.83 707.3,-521.83 714.3,-521.83"/>
<text text-anchor="middle" x="800.8" y="-563.54" font-family="Times,serif" font-size="14.00">New pinfo (good session)</text>
<text text-anchor="middle" x="800.8" y="-548.54" font-family="Times,serif" font-size="14.00">+Mark reponsible</text>
<text text-anchor="middle" x="800.8" y="-533.54" font-family="Times,serif" font-size="14.00">+CONNECT</text>
</g>
<!-- unavailable&#45;&gt;unavailable -->
<g id="edge11" class="edge">
<title>unavailable&#45;&gt;unavailable</title>
<path fill="none" stroke="black" d="M1344.82,-384.68C1365.04,-385.83 1382.44,-381.52 1382.44,-371.74 1382.44,-363.64 1370.51,-359.29 1354.92,-358.69"/>
<polygon fill="black" stroke="black" points="1354.78,-355.19 1344.82,-358.8 1354.86,-362.19 1354.78,-355.19"/>
<text text-anchor="middle" x="1429.44" y="-368.04" font-family="Times,serif" font-size="14.00">Any message</text>
</g>
<!-- unavailable&#45;&gt;send_session -->
<g id="edge10" class="edge">
<title>unavailable&#45;&gt;send_session</title>
<path fill="none" stroke="black" d="M1266.89,-355.94C1252.25,-349.16 1234.65,-341.03 1218.8,-333.74 1172.18,-312.3 1162.52,-301.83 1113.8,-285.74 1079.17,-274.31 1039.19,-265.72 1007.26,-259.91"/>
<polygon fill="black" stroke="black" points="1007.65,-256.42 997.19,-258.12 1006.42,-263.31 1007.65,-256.42"/>
<text text-anchor="middle" x="1191.8" y="-297.04" font-family="Times,serif" font-size="14.00">Up</text>
</g>
<!-- session_wait -->
<g id="node5" class="node">
<title>session_wait</title>
<ellipse fill="none" stroke="black" cx="1131.8" cy="-153.87" rx="74.91" ry="26.74"/>
<text text-anchor="middle" x="1131.8" y="-157.67" font-family="Times,serif" font-size="14.00">Wait session</text>
<text text-anchor="middle" x="1131.8" y="-142.67" font-family="Times,serif" font-size="14.00">reply</text>
</g>
<!-- send_session&#45;&gt;session_wait -->
<g id="edge12" class="edge">
<title>send_session&#45;&gt;session_wait</title>
<path fill="none" stroke="black" d="M1016.94,-245.29C1098.82,-240.44 1227.11,-230.29 1241.8,-213.74 1259.12,-194.23 1235.78,-180.04 1206.22,-170.49"/>
<polygon fill="black" stroke="black" points="1207.03,-167.08 1196.44,-167.55 1205.01,-173.78 1207.03,-167.08"/>
<text text-anchor="middle" x="1256.8" y="-202.54" font-family="Times,serif" font-size="14.00">Ok</text>
</g>
<!-- send_session&#45;&gt;session_wait -->
<g id="edge13" class="edge">
<title>send_session&#45;&gt;session_wait</title>
<path fill="none" stroke="black" d="M911.12,-239.17C884.68,-230.65 856.57,-216.76 871.8,-198.74 894.04,-172.43 980.01,-161.89 1047.08,-157.68"/>
<polygon fill="black" stroke="black" points="1047.48,-161.16 1057.25,-157.08 1047.06,-154.17 1047.48,-161.16"/>
<text text-anchor="middle" x="885.3" y="-202.54" font-family="Times,serif" font-size="14.00">Fail</text>
</g>
<!-- session_wait&#45;&gt;unavailable -->
<g id="edge14" class="edge">
<title>session_wait&#45;&gt;unavailable</title>
<path fill="none" stroke="black" d="M1203.49,-162.12C1228.16,-168.18 1253.83,-179.12 1270.8,-198.74 1305.93,-239.35 1305.81,-306.32 1302.43,-343.58"/>
<polygon fill="black" stroke="black" points="1298.93,-343.38 1301.36,-353.7 1305.89,-344.12 1298.93,-343.38"/>
<text text-anchor="middle" x="1320.3" y="-246.04" font-family="Times,serif" font-size="14.00">Down</text>
</g>
<!-- session_wait&#45;&gt;send_session -->
<g id="edge16" class="edge">
<title>session_wait&#45;&gt;send_session</title>
<path fill="none" stroke="black" d="M1058.85,-160.46C1005.29,-166.26 939,-177.57 921.8,-198.74 914.87,-207.27 919.08,-217.84 926.05,-227.06"/>
<polygon fill="black" stroke="black" points="923.49,-229.45 932.67,-234.73 928.79,-224.88 923.49,-229.45"/>
<text text-anchor="middle" x="951.3" y="-202.54" font-family="Times,serif" font-size="14.00">Timeout</text>
</g>
<!-- session_wait&#45;&gt;send_session -->
<g id="edge17" class="edge">
<title>session_wait&#45;&gt;send_session</title>
<path fill="none" stroke="black" d="M1071.6,-169.95C1049.41,-176.92 1024.63,-186.42 1003.8,-198.74 991.18,-206.2 978.92,-216.89 969.2,-226.47"/>
<polygon fill="black" stroke="black" points="966.48,-224.24 961.98,-233.83 971.48,-229.14 966.48,-224.24"/>
<text text-anchor="middle" x="1056.8" y="-202.54" font-family="Times,serif" font-size="14.00">MID Mismatch</text>
</g>
<!-- session_wait&#45;&gt;send_session -->
<g id="edge18" class="edge">
<title>session_wait&#45;&gt;send_session</title>
<path fill="none" stroke="black" d="M1127.84,-181C1124.78,-192.59 1119.37,-205.46 1109.8,-213.74 1095.26,-226.33 1051.56,-235.35 1013.36,-241.08"/>
<polygon fill="black" stroke="black" points="1012.67,-237.64 1003.27,-242.54 1013.67,-244.57 1012.67,-237.64"/>
<text text-anchor="middle" x="1175.3" y="-202.54" font-family="Times,serif" font-size="14.00">Error valid SID</text>
</g>
<!-- session_wait&#45;&gt;session_wait -->
<g id="edge15" class="edge">
<title>session_wait&#45;&gt;session_wait</title>
<path fill="none" stroke="black" d="M1202.32,-163.12C1215.48,-161.98 1224.75,-158.9 1224.75,-153.87 1224.75,-150.26 1219.96,-147.65 1212.38,-146.04"/>
<polygon fill="black" stroke="black" points="1212.72,-142.56 1202.32,-144.62 1211.74,-149.49 1212.72,-142.56"/>
<text text-anchor="middle" x="1276.25" y="-150.17" font-family="Times,serif" font-size="14.00">Unrealted SID</text>
</g>
<!-- session_wait&#45;&gt;connected -->
<g id="edge19" class="edge">
<title>session_wait&#45;&gt;connected</title>
<path fill="none" stroke="green" d="M1195.41,-168.38C1224.78,-175.66 1259.72,-185.82 1289.8,-198.74 1407.41,-249.25 1563.42,-307.97 1485.8,-409.74 1436.89,-473.87 1390.38,-444.65 1310.8,-457.74 1121.09,-488.94 893.66,-493.36 781.07,-493.38"/>
<polygon fill="green" stroke="green" points="780.87,-489.88 770.87,-493.38 780.86,-496.88 780.87,-489.88"/>
<text text-anchor="middle" x="1547.8" y="-304.54" font-family="Times,serif" font-size="14.00">Session confirm</text>
<text text-anchor="middle" x="1547.8" y="-289.54" font-family="Times,serif" font-size="14.00">+CONNECT</text>
</g>
<!-- send_keepalive_wait_session -->
<g id="node9" class="node">
<title>send_keepalive_wait_session</title>
<polygon fill="none" stroke="black" points="1131.8,-76 1006.8,-38 1131.8,0 1256.8,-38 1131.8,-76"/>
<text text-anchor="middle" x="1131.8" y="-41.8" font-family="Times,serif" font-size="14.00">Send keepalive</text>
<text text-anchor="middle" x="1131.8" y="-26.8" font-family="Times,serif" font-size="14.00">(Same MID)</text>
</g>
<!-- session_wait&#45;&gt;send_keepalive_wait_session -->
<g id="edge20" class="edge">
<title>session_wait&#45;&gt;send_keepalive_wait_session</title>
<path fill="none" stroke="black" d="M1101.3,-129.19C1092.13,-119.1 1085.49,-106.73 1089.8,-94 1091.87,-87.88 1094.93,-81.9 1098.46,-76.27"/>
<polygon fill="black" stroke="black" points="1101.54,-77.97 1104.34,-67.75 1095.78,-73.99 1101.54,-77.97"/>
<text text-anchor="middle" x="1121.8" y="-97.8" font-family="Times,serif" font-size="14.00">On timer</text>
</g>
<!-- connected&#45;&gt;unavailable -->
<g id="edge22" class="edge">
<title>connected&#45;&gt;unavailable</title>
<path fill="none" stroke="red" d="M769.39,-490.11C865.03,-485.41 1050.39,-474.45 1113.8,-457.74 1168.55,-443.31 1227.21,-413.66 1263.46,-393.48"/>
<polygon fill="red" stroke="red" points="1265.63,-396.28 1272.62,-388.32 1262.19,-390.18 1265.63,-396.28"/>
<text text-anchor="middle" x="1249.3" y="-446.54" font-family="Times,serif" font-size="14.00">Down</text>
<text text-anchor="middle" x="1249.3" y="-431.54" font-family="Times,serif" font-size="14.00">+DISCONNECT</text>
</g>
<!-- connected&#45;&gt;send_session -->
<g id="edge25" class="edge">
<title>connected&#45;&gt;send_session</title>
<path fill="none" stroke="red" d="M743.92,-478.53C753.34,-473.17 762.9,-466.25 769.8,-457.74 806.43,-412.53 775.38,-379.12 811.8,-333.74 837.32,-301.94 878.55,-279.34 909.12,-265.83"/>
<polygon fill="red" stroke="red" points="910.82,-268.91 918.64,-261.76 908.07,-262.47 910.82,-268.91"/>
<text text-anchor="middle" x="869.3" y="-375.54" font-family="Times,serif" font-size="14.00">Timeout</text>
<text text-anchor="middle" x="869.3" y="-360.54" font-family="Times,serif" font-size="14.00">+DISCONNECT</text>
</g>
<!-- connected&#45;&gt;send_session -->
<g id="edge26" class="edge">
<title>connected&#45;&gt;send_session</title>
<path fill="none" stroke="red" d="M766.58,-487.03C816.62,-478.79 887.97,-458.68 926.8,-409.74 956.96,-371.72 956.27,-311.85 952.74,-277.45"/>
<polygon fill="red" stroke="red" points="956.18,-276.75 951.53,-267.23 949.23,-277.58 956.18,-276.75"/>
<text text-anchor="middle" x="1010.3" y="-375.54" font-family="Times,serif" font-size="14.00">MID Mismatch</text>
<text text-anchor="middle" x="1010.3" y="-360.54" font-family="Times,serif" font-size="14.00">+DISCONNECT</text>
</g>
<!-- connected&#45;&gt;send_session -->
<g id="edge27" class="edge">
<title>connected&#45;&gt;send_session</title>
<path fill="none" stroke="red" d="M768.15,-488.27C860.51,-479.73 1035.54,-457.5 1071.8,-409.74 1092.22,-382.84 1087.65,-363.57 1071.8,-333.74 1054.42,-301.04 1017.77,-278.89 988.98,-265.76"/>
<polygon fill="red" stroke="red" points="990.12,-262.44 979.55,-261.65 987.32,-268.85 990.12,-262.44"/>
<text text-anchor="middle" x="1142.3" y="-375.54" font-family="Times,serif" font-size="14.00">Error valid SID</text>
<text text-anchor="middle" x="1142.3" y="-360.54" font-family="Times,serif" font-size="14.00">+DISCONNECT</text>
</g>
<!-- connected&#45;&gt;connected -->
<g id="edge24" class="edge">
<title>connected&#45;&gt;connected</title>
<path fill="none" stroke="black" d="M762.05,-503.09C777.01,-502.76 788.59,-499.65 788.59,-493.74 788.59,-489.26 781.94,-486.39 772.21,-485.12"/>
<polygon fill="black" stroke="black" points="772.27,-481.62 762.05,-484.39 771.77,-488.6 772.27,-481.62"/>
<text text-anchor="middle" x="840.09" y="-490.04" font-family="Times,serif" font-size="14.00">Unrealted SID</text>
</g>
<!-- normal_send -->
<g id="node7" class="node">
<title>normal_send</title>
<polygon fill="none" stroke="black" points="138.8,-389.74 39.76,-371.74 138.8,-353.74 237.84,-371.74 138.8,-389.74"/>
<text text-anchor="middle" x="138.8" y="-368.04" font-family="Times,serif" font-size="14.00">Normal send</text>
</g>
<!-- connected&#45;&gt;normal_send -->
<g id="edge28" class="edge">
<title>connected&#45;&gt;normal_send</title>
<path fill="none" stroke="black" d="M651.03,-493.12C575.48,-492.26 441.98,-486.28 331.8,-457.74 272.33,-442.34 207.91,-410.61 170.57,-390.58"/>
<polygon fill="black" stroke="black" points="172.14,-387.45 161.68,-385.75 168.8,-393.6 172.14,-387.45"/>
<text text-anchor="middle" x="383.3" y="-439.04" font-family="Times,serif" font-size="14.00">Send message</text>
</g>
<!-- update_timeout -->
<g id="node8" class="node">
<title>update_timeout</title>
<polygon fill="none" stroke="black" points="374.8,-389.74 256.16,-371.74 374.8,-353.74 493.44,-371.74 374.8,-389.74"/>
<text text-anchor="middle" x="374.8" y="-368.04" font-family="Times,serif" font-size="14.00">Update timeout</text>
</g>
<!-- connected&#45;&gt;update_timeout -->
<g id="edge23" class="edge">
<title>connected&#45;&gt;update_timeout</title>
<path fill="none" stroke="black" d="M656.36,-486.28C622.11,-481.08 577.42,-472.19 539.8,-457.74 515.25,-448.31 511.99,-440.13 488.8,-427.74 463.7,-414.33 434.82,-400.41 412.41,-389.93"/>
<polygon fill="black" stroke="black" points="413.77,-386.71 403.23,-385.67 410.82,-393.06 413.77,-386.71"/>
<text text-anchor="middle" x="580.8" y="-439.04" font-family="Times,serif" font-size="14.00">Receive OK</text>
</g>
<!-- send_keepalive_connected -->
<g id="node10" class="node">
<title>send_keepalive_connected</title>
<polygon fill="none" stroke="black" points="636.8,-409.74 511.8,-371.74 636.8,-333.74 761.8,-371.74 636.8,-409.74"/>
<text text-anchor="middle" x="636.8" y="-375.54" font-family="Times,serif" font-size="14.00">Send keepalive</text>
<text text-anchor="middle" x="636.8" y="-360.54" font-family="Times,serif" font-size="14.00">(Same MID)</text>
</g>
<!-- connected&#45;&gt;send_keepalive_connected -->
<g id="edge29" class="edge">
<title>connected&#45;&gt;send_keepalive_connected</title>
<path fill="none" stroke="black" d="M707.14,-475.58C703.74,-461.95 697.83,-442.74 688.8,-427.74 684.7,-420.93 679.64,-414.27 674.29,-408.07"/>
<polygon fill="black" stroke="black" points="676.73,-405.55 667.43,-400.48 671.54,-410.24 676.73,-405.55"/>
<text text-anchor="middle" x="733.8" y="-439.04" font-family="Times,serif" font-size="14.00">On timer</text>
</g>
<!-- normal_send&#45;&gt;send_session -->
<g id="edge31" class="edge">
<title>normal_send&#45;&gt;send_session</title>
<path fill="none" stroke="red" d="M167.65,-358.98C189.13,-350.69 219.36,-339.99 246.8,-333.74 469.03,-283.14 738.29,-262.27 869.37,-254.63"/>
<polygon fill="red" stroke="red" points="869.93,-258.1 879.71,-254.04 869.53,-251.12 869.93,-258.1"/>
<text text-anchor="middle" x="572.3" y="-304.54" font-family="Times,serif" font-size="14.00">Fail</text>
<text text-anchor="middle" x="572.3" y="-289.54" font-family="Times,serif" font-size="14.00">+DISCONNECT</text>
</g>
<!-- normal_send&#45;&gt;connected -->
<g id="edge30" class="edge">
<title>normal_send&#45;&gt;connected</title>
<path fill="none" stroke="black" d="M151.86,-387.6C171.71,-409.78 209.05,-449.81 226.8,-457.74 298.85,-489.93 524.66,-493.75 640.59,-493.48"/>
<polygon fill="black" stroke="black" points="640.79,-496.98 650.78,-493.45 640.76,-489.98 640.79,-496.98"/>
<text text-anchor="middle" x="236.8" y="-439.04" font-family="Times,serif" font-size="14.00">Ok</text>
</g>
<!-- update_timeout&#45;&gt;connected -->
<g id="edge32" class="edge">
<title>update_timeout&#45;&gt;connected</title>
<path fill="none" stroke="black" d="M389.51,-387.51C409.89,-407.03 448.75,-440.88 488.8,-457.74 537.17,-478.11 596.01,-486.74 640.95,-490.34"/>
<polygon fill="black" stroke="black" points="640.96,-493.85 651.19,-491.09 641.47,-486.86 640.96,-493.85"/>
</g>
<!-- send_keepalive_wait_session&#45;&gt;session_wait -->
<g id="edge21" class="edge">
<title>send_keepalive_wait_session&#45;&gt;session_wait</title>
<path fill="none" stroke="black" d="M1149.35,-70.79C1153.91,-82.67 1156.79,-96.36 1153.8,-109 1153.09,-111.97 1152.16,-114.97 1151.06,-117.93"/>
<polygon fill="black" stroke="black" points="1147.82,-116.61 1147.14,-127.18 1154.27,-119.34 1147.82,-116.61"/>
<text text-anchor="middle" x="1180.3" y="-97.8" font-family="Times,serif" font-size="14.00">Ok/Fail</text>
</g>
<!-- send_keepalive_connected&#45;&gt;connected -->
<g id="edge33" class="edge">
<title>send_keepalive_connected&#45;&gt;connected</title>
<path fill="none" stroke="black" d="M626.97,-407.02C624.26,-423.56 624.28,-442.97 633.8,-457.74 639.22,-466.17 647.23,-472.59 656.05,-477.47"/>
<polygon fill="black" stroke="black" points="654.56,-480.64 665.09,-481.87 657.62,-474.34 654.56,-480.64"/>
<text text-anchor="middle" x="659.3" y="-439.04" font-family="Times,serif" font-size="14.00">Ok/Fail</text>
</g>
</g>
</svg>
        <g id="navigator" transform="translate(0 0)" fill="#404254">
                <rect fill="#f2f5e9" fill-opacity="0.5" stroke="#606060" stroke-width=".5" x="0" y="0" width="60" height="60"/>
                <use id="zoomplus" xlink:href="#zoomPlus" x="17" y="9" onmousedown="handleZoom(evt,'in')"/>
                <use id="zoomminus" xlink:href="#zoomMin" x="42" y="9" onmousedown="handleZoom(evt,'out')"/>
                <use id="reset" xlink:href="#resetDef" x="30" y="36" onmousedown="handleReset()"/>
                <g id="arrowUp" xlink:href="#dirArrow" transform="translate(30 24)" onmousedown="handlePan(0,-1)">
                  <use xlink:href="#rim" fill="#404040">
                        <set attributeName="fill" to="#808080" begin="arrowUp.mouseover" end="arrowUp.mouseout"/>
                  </use>
                  <path fill="none" stroke="white" stroke-width="1.5" d="M0,-3.0v7 M-2.5,-0.5L0,-3.0L2.5,-0.5"/>
                </g>
                <g id="arrowRight" xlink:href="#dirArrow" transform="rotate(90) translate(36 -43)" onmousedown="handlePan(1,0)">
                  <use xlink:href="#rim" fill="#404040">
                        <set attributeName="fill" to="#808080" begin="arrowRight.mouseover" end="arrowRight.mouseout"/>
                  </use>
                  <path fill="none" stroke="white" stroke-width="1.5" d="M0,-3.0v7 M-2.5,-0.5L0,-3.0L2.5,-0.5"/>
                </g>
                <g id="arrowDown" xlink:href="#dirArrow" transform="rotate(180) translate(-30 -48)" onmousedown="handlePan(0,1)">
                  <use xlink:href="#rim" fill="#404040">
                        <set attributeName="fill" to="#808080" begin="arrowDown.mouseover" end="arrowDown.mouseout"/>
                  </use>
                  <path fill="none" stroke="white" stroke-width="1.5" d="M0,-3.0v7 M-2.5,-0.5L0,-3.0L2.5,-0.5"/>
                </g>
                <g id="arrowLeft" xlink:href="#dirArrow" transform="rotate(270) translate(-36 17)" onmousedown="handlePan(-1,0)">
                  <use xlink:href="#rim" fill="#404040">
                        <set attributeName="fill" to="#808080" begin="arrowLeft.mouseover" end="arrowLeft.mouseout"/>
                  </use>
                  <path fill="none" stroke="white" stroke-width="1.5" d="M0,-3.0v7 M-2.5,-0.5L0,-3.0L2.5,-0.5"/>
                </g>
        </g>
        <svg viewBox="0 0 15 15" width="100%" height="30px" preserveAspectRatio="xMaxYMin meet">
         <g id="arrow_out" transform="scale(0.3 0.3)">
          <a xlink:href="dot_initiator_with_old_org.svg" target="_base">
           <rect id="button" ry="5" rx="5" y="6" x="6" height="38" width="38"
                fill="#f2f5e9" fill-opacity="0.5" stroke="#606060" stroke-width="1.0"/>
           <path id="arrow"
             d="M 11.500037,31.436501 C 11.940474,20.09759 22.043105,11.32322 32.158766,21.979434 L 37.068811,17.246167 C 37.068811,17.246167 37.088388,32 37.088388,32 L 22.160133,31.978069 C 22.160133,31.978069 26.997745,27.140456 26.997745,27.140456 C 18.528582,18.264221 13.291696,25.230495 11.500037,31.436501 z"
             style="fill:#404040;"/>
          </a>
         </g>
        </svg>
</svg>
