<?xml version="1.0" encoding="UTF-8" standalone="no"?>
<!DOCTYPE svg PUBLIC "-//W3C//DTD SVG 1.1//EN"
 "http://www.w3.org/Graphics/SVG/1.1/DTD/svg11.dtd">
<!-- Generated by graphviz version 2.40.1 (20161225.0304)
 -->
<!-- Title: Graphical Class Hierarchy Pages: 1 -->
<svg width="518pt" height="39pt"
 viewBox="0.00 0.00 518.00 39.00" xmlns="http://www.w3.org/2000/svg" xmlns:xlink="http://www.w3.org/1999/xlink">
<g id="graph0" class="graph" transform="scale(1 1) rotate(0) translate(4 35)">
<title>Graphical Class Hierarchy</title>
<polygon fill="#ffffff" stroke="transparent" points="-4,4 -4,-35 514,-35 514,4 -4,4"/>
<!-- Node0 -->
<g id="node1" class="node">
<title>Node0</title>
<g id="a_node1"><a xlink:href="classramses_1_1IRendererSceneControlEventHandler.html" target="_top" xlink:title="Provides an interface for handling the result of renderer scene control events. Implementation of thi...">
<polygon fill="#ffffff" stroke="#000000" points="0,-.5 0,-30.5 157,-30.5 157,-.5 0,-.5"/>
<text text-anchor="start" x="8" y="-18.5" font-family="Helvetica,sans-Serif" font-size="10.00" fill="#000000">ramses::IRendererSceneControl</text>
<text text-anchor="middle" x="78.5" y="-7.5" font-family="Helvetica,sans-Serif" font-size="10.00" fill="#000000">EventHandler</text>
</a>
</g>
</g>
<!-- Node1 -->
<g id="node2" class="node">
<title>Node1</title>
<g id="a_node2"><a xlink:href="classramses_1_1RendererSceneControlEventHandlerEmpty.html" target="_top" xlink:title="Convenience empty implementation of IRendererSceneControlEventHandler that can be used to derive from...">
<polygon fill="#ffffff" stroke="#000000" points="193,-.5 193,-30.5 347,-30.5 347,-.5 193,-.5"/>
<text text-anchor="start" x="201" y="-18.5" font-family="Helvetica,sans-Serif" font-size="10.00" fill="#000000">ramses::RendererSceneControl</text>
<text text-anchor="middle" x="270" y="-7.5" font-family="Helvetica,sans-Serif" font-size="10.00" fill="#000000">EventHandlerEmpty</text>
</a>
</g>
</g>
<!-- Node0&#45;&gt;Node1 -->
<g id="edge1" class="edge">
<title>Node0&#45;&gt;Node1</title>
<path fill="none" stroke="#191970" d="M167.4887,-15.5C175.9511,-15.5 184.4843,-15.5 192.8221,-15.5"/>
<polygon fill="#191970" stroke="#191970" points="167.2194,-12.0001 157.2194,-15.5 167.2194,-19.0001 167.2194,-12.0001"/>
</g>
<!-- Node2 -->
<g id="node3" class="node">
<title>Node2</title>
<g id="a_node3"><a xlink:href="classSceneStateEventHandler.html" target="_top" xlink:title="SceneStateEventHandler">
<polygon fill="#ffffff" stroke="#000000" points="383,-6 383,-25 510,-25 510,-6 383,-6"/>
<text text-anchor="middle" x="446.5" y="-13" font-family="Helvetica,sans-Serif" font-size="10.00" fill="#000000">SceneStateEventHandler</text>
</a>
</g>
</g>
<!-- Node1&#45;&gt;Node2 -->
<g id="edge2" class="edge">
<title>Node1&#45;&gt;Node2</title>
<path fill="none" stroke="#191970" d="M357.3007,-15.5C365.962,-15.5 374.6355,-15.5 382.9874,-15.5"/>
<polygon fill="#191970" stroke="#191970" points="357.1587,-12.0001 347.1587,-15.5 357.1587,-19.0001 357.1587,-12.0001"/>
</g>
</g>
</svg>
