<?xml version="1.0" encoding="UTF-8" standalone="no"?>
<!DOCTYPE svg PUBLIC "-//W3C//DTD SVG 1.1//EN"
 "http://www.w3.org/Graphics/SVG/1.1/DTD/svg11.dtd">
<!-- Generated by graphviz version 2.40.1 (20161225.0304)
 -->
<!-- Title: Graphical Class Hierarchy Pages: 1 -->
<svg width="348pt" height="116pt"
 viewBox="0.00 0.00 348.00 115.50" xmlns="http://www.w3.org/2000/svg" xmlns:xlink="http://www.w3.org/1999/xlink">
<g id="graph0" class="graph" transform="scale(1 1) rotate(0) translate(4 111.5)">
<title>Graphical Class Hierarchy</title>
<polygon fill="#ffffff" stroke="transparent" points="-4,4 -4,-111.5 344,-111.5 344,4 -4,4"/>
<!-- Node0 -->
<g id="node1" class="node">
<title>Node0</title>
<g id="a_node1"><a xlink:href="classramses_1_1DcsmStatusMessage.html" target="_top" xlink:title="The base class of a message to be sent from DCSM consumer to provider. ">
<polygon fill="#ffffff" stroke="#000000" points="0,-50 0,-69 149,-69 149,-50 0,-50"/>
<text text-anchor="middle" x="74.5" y="-57" font-family="Helvetica,sans-Serif" font-size="10.00" fill="#000000">ramses::DcsmStatusMessage</text>
</a>
</g>
</g>
<!-- Node1 -->
<g id="node2" class="node">
<title>Node1</title>
<g id="a_node2"><a xlink:href="classramses_1_1ActiveLayoutMessage.html" target="_top" xlink:title="A status message containing the instrument cluster&#39;s active layout. ">
<polygon fill="#ffffff" stroke="#000000" points="186.5,-88 186.5,-107 338.5,-107 338.5,-88 186.5,-88"/>
<text text-anchor="middle" x="262.5" y="-95" font-family="Helvetica,sans-Serif" font-size="10.00" fill="#000000">ramses::ActiveLayoutMessage</text>
</a>
</g>
</g>
<!-- Node0&#45;&gt;Node1 -->
<g id="edge1" class="edge">
<title>Node0&#45;&gt;Node1</title>
<path fill="none" stroke="#191970" d="M131.9365,-71.1095C158.6744,-76.514 190.0879,-82.8635 215.4008,-87.9799"/>
<polygon fill="#191970" stroke="#191970" points="132.4356,-67.6397 121.9403,-69.089 131.0487,-74.5009 132.4356,-67.6397"/>
</g>
<!-- Node2 -->
<g id="node3" class="node">
<title>Node2</title>
<g id="a_node3"><a xlink:href="classramses_1_1StreamStatusMessage.html" target="_top" xlink:title="A message containing a stream status. ">
<polygon fill="#ffffff" stroke="#000000" points="185,-50 185,-69 340,-69 340,-50 185,-50"/>
<text text-anchor="middle" x="262.5" y="-57" font-family="Helvetica,sans-Serif" font-size="10.00" fill="#000000">ramses::StreamStatusMessage</text>
</a>
</g>
</g>
<!-- Node0&#45;&gt;Node2 -->
<g id="edge2" class="edge">
<title>Node0&#45;&gt;Node2</title>
<path fill="none" stroke="#191970" d="M159.1036,-59.5C167.7049,-59.5 176.4121,-59.5 184.9335,-59.5"/>
<polygon fill="#191970" stroke="#191970" points="159.0726,-56.0001 149.0726,-59.5 159.0726,-63.0001 159.0726,-56.0001"/>
</g>
<!-- Node3 -->
<g id="node4" class="node">
<title>Node3</title>
<g id="a_node4"><a xlink:href="classramses_1_1WidgetFocusStatusMessage.html" target="_top" xlink:title="A message containing the widget focus state. ">
<polygon fill="#ffffff" stroke="#000000" points="192,-.5 192,-30.5 333,-30.5 333,-.5 192,-.5"/>
<text text-anchor="start" x="200" y="-18.5" font-family="Helvetica,sans-Serif" font-size="10.00" fill="#000000">ramses::WidgetFocusStatus</text>
<text text-anchor="middle" x="262.5" y="-7.5" font-family="Helvetica,sans-Serif" font-size="10.00" fill="#000000">Message</text>
</a>
</g>
</g>
<!-- Node0&#45;&gt;Node3 -->
<g id="edge3" class="edge">
<title>Node0&#45;&gt;Node3</title>
<path fill="none" stroke="#191970" d="M125.2773,-47.616C147.7049,-42.3669 174.3289,-36.1358 198.1298,-30.5654"/>
<polygon fill="#191970" stroke="#191970" points="124.2325,-44.2658 115.2932,-49.9527 125.8277,-51.0816 124.2325,-44.2658"/>
</g>
</g>
</svg>
