<?xml version="1.0" encoding="UTF-8" standalone="no"?>
<!DOCTYPE svg PUBLIC "-//W3C//DTD SVG 1.1//EN"
 "http://www.w3.org/Graphics/SVG/1.1/DTD/svg11.dtd">
<!-- Generated by graphviz version 2.43.0 (0)
 -->
<!-- Title: Graphical Class Hierarchy Pages: 1 -->
<svg width="379pt" height="39pt"
 viewBox="0.00 0.00 379.00 39.00" xmlns="http://www.w3.org/2000/svg" xmlns:xlink="http://www.w3.org/1999/xlink">
<g id="graph0" class="graph" transform="scale(1 1) rotate(0) translate(4 35)">
<title>Graphical Class Hierarchy</title>
<polygon fill="white" stroke="transparent" points="-4,4 -4,-35 375,-35 375,4 -4,4"/>
<!-- Node0 -->
<g id="node1" class="node">
<title>Node0</title>
<g id="a_node1"><a xlink:href="classramses_1_1IRendererResourceCache.html" target="_top" xlink:title="An interface used to implement a caching mechanism for resources used on the RamsesRenderer....">
<polygon fill="white" stroke="black" points="0,-0.5 0,-30.5 151,-30.5 151,-0.5 0,-0.5"/>
<text text-anchor="start" x="8" y="-18.5" font-family="Helvetica,sans-Serif" font-size="10.00">ramses::IRendererResource</text>
<text text-anchor="middle" x="75.5" y="-7.5" font-family="Helvetica,sans-Serif" font-size="10.00">Cache</text>
</a>
</g>
</g>
<!-- Node1 -->
<g id="node2" class="node">
<title>Node1</title>
<g id="a_node2"><a xlink:href="classramses_1_1DefaultRendererResourceCache.html" target="_top" xlink:title="The DefaultRendererResourceCache provides a simple example on how the IRendererResourceCache interfac...">
<polygon fill="white" stroke="black" points="187,-0.5 187,-30.5 371,-30.5 371,-0.5 187,-0.5"/>
<text text-anchor="start" x="195" y="-18.5" font-family="Helvetica,sans-Serif" font-size="10.00">ramses::DefaultRendererResource</text>
<text text-anchor="middle" x="279" y="-7.5" font-family="Helvetica,sans-Serif" font-size="10.00">Cache</text>
</a>
</g>
</g>
<!-- Node0&#45;&gt;Node1 -->
<g id="edge1" class="edge">
<title>Node0&#45;&gt;Node1</title>
<path fill="none" stroke="midnightblue" d="M161.45,-15.5C169.9,-15.5 178.5,-15.5 187,-15.5"/>
<polygon fill="midnightblue" stroke="midnightblue" points="161.24,-12 151.24,-15.5 161.24,-19 161.24,-12"/>
</g>
</g>
</svg>
