<?xml version="1.0" encoding="UTF-8" standalone="no"?>
<!DOCTYPE svg PUBLIC "-//W3C//DTD SVG 1.1//EN"
 "http://www.w3.org/Graphics/SVG/1.1/DTD/svg11.dtd">
<!-- Generated by graphviz version 2.40.1 (20161225.0304)
 -->
<!-- Title: Graphical Class Hierarchy Pages: 1 -->
<svg width="537pt" height="137pt"
 viewBox="0.00 0.00 537.00 137.00" xmlns="http://www.w3.org/2000/svg" xmlns:xlink="http://www.w3.org/1999/xlink">
<g id="graph0" class="graph" transform="scale(1 1) rotate(0) translate(4 133)">
<title>Graphical Class Hierarchy</title>
<polygon fill="#ffffff" stroke="transparent" points="-4,4 -4,-133 533,-133 533,4 -4,4"/>
<!-- Node144 -->
<g id="node1" class="node">
<title>Node144</title>
<g id="a_node1"><a xlink:href="classramses_1_1IDcsmContentControlEventHandler.html" target="_top" xlink:title="Callback handler interface for events emitted by ramses::DcsmContentControl. ">
<polygon fill="#ffffff" stroke="#000000" points="3.5,-98.5 3.5,-128.5 153.5,-128.5 153.5,-98.5 3.5,-98.5"/>
<text text-anchor="start" x="11.5" y="-116.5" font-family="Helvetica,sans-Serif" font-size="10.00" fill="#000000">ramses::IDcsmContentControl</text>
<text text-anchor="middle" x="78.5" y="-105.5" font-family="Helvetica,sans-Serif" font-size="10.00" fill="#000000">EventHandler</text>
</a>
</g>
</g>
<!-- Node145 -->
<g id="node2" class="node">
<title>Node145</title>
<g id="a_node2"><a xlink:href="classramses_1_1DcsmContentControlEventHandlerEmpty.html" target="_top" xlink:title="Convenience empty implementation of IDcsmContentControlEventHandler that can be used to derive from w...">
<polygon fill="#ffffff" stroke="#000000" points="196.5,-98.5 196.5,-128.5 343.5,-128.5 343.5,-98.5 196.5,-98.5"/>
<text text-anchor="start" x="204.5" y="-116.5" font-family="Helvetica,sans-Serif" font-size="10.00" fill="#000000">ramses::DcsmContentControl</text>
<text text-anchor="middle" x="270" y="-105.5" font-family="Helvetica,sans-Serif" font-size="10.00" fill="#000000">EventHandlerEmpty</text>
</a>
</g>
</g>
<!-- Node144&#45;&gt;Node145 -->
<g id="edge1" class="edge">
<title>Node144&#45;&gt;Node145</title>
<path fill="none" stroke="#191970" d="M163.929,-113.5C174.7403,-113.5 185.7291,-113.5 196.3356,-113.5"/>
<polygon fill="#191970" stroke="#191970" points="163.6363,-110.0001 153.6362,-113.5 163.6362,-117.0001 163.6363,-110.0001"/>
</g>
<!-- Node2 -->
<g id="node3" class="node">
<title>Node2</title>
<g id="a_node3"><a xlink:href="classLocalDCSMExample.html" target="_top" xlink:title="LocalDCSMExample">
<polygon fill="#ffffff" stroke="#000000" points="402,-55 402,-74 510,-74 510,-55 402,-55"/>
<text text-anchor="middle" x="456" y="-62" font-family="Helvetica,sans-Serif" font-size="10.00" fill="#000000">LocalDCSMExample</text>
</a>
</g>
</g>
<!-- Node145&#45;&gt;Node2 -->
<g id="edge2" class="edge">
<title>Node145&#45;&gt;Node2</title>
<path fill="none" stroke="#191970" d="M336.8133,-95.8986C364.818,-88.5211 396.2718,-80.2348 419.8327,-74.028"/>
<polygon fill="#191970" stroke="#191970" points="335.8486,-92.5333 327.0702,-98.4654 337.6319,-99.3023 335.8486,-92.5333"/>
</g>
<!-- Node142 -->
<g id="node4" class="node">
<title>Node142</title>
<g id="a_node4"><a xlink:href="classramses_1_1IDcsmProviderEventHandler.html" target="_top" xlink:title="An Interface for a class, whose functions are called as reaction to DcsmConsumer communication after ...">
<polygon fill="#ffffff" stroke="#000000" points="197,-.5 197,-30.5 343,-30.5 343,-.5 197,-.5"/>
<text text-anchor="start" x="205" y="-18.5" font-family="Helvetica,sans-Serif" font-size="10.00" fill="#000000">ramses::IDcsmProviderEvent</text>
<text text-anchor="middle" x="270" y="-7.5" font-family="Helvetica,sans-Serif" font-size="10.00" fill="#000000">Handler</text>
</a>
</g>
</g>
<!-- Node142&#45;&gt;Node2 -->
<g id="edge3" class="edge">
<title>Node142&#45;&gt;Node2</title>
<path fill="none" stroke="#191970" d="M336.8133,-33.1014C364.818,-40.4789 396.2718,-48.7652 419.8327,-54.972"/>
<polygon fill="#191970" stroke="#191970" points="337.6319,-29.6977 327.0702,-30.5346 335.8486,-36.4667 337.6319,-29.6977"/>
</g>
<!-- Node143 -->
<g id="node5" class="node">
<title>Node143</title>
<g id="a_node5"><a xlink:href="classramses_1_1IDcsmProviderEventHandlerExtended.html" target="_top" xlink:title="An Interface for a class, whose functions are called as reaction to a DcsmConsumer message after call...">
<polygon fill="#ffffff" stroke="#000000" points="383,-.5 383,-30.5 529,-30.5 529,-.5 383,-.5"/>
<text text-anchor="start" x="391" y="-18.5" font-family="Helvetica,sans-Serif" font-size="10.00" fill="#000000">ramses::IDcsmProviderEvent</text>
<text text-anchor="middle" x="456" y="-7.5" font-family="Helvetica,sans-Serif" font-size="10.00" fill="#000000">HandlerExtended</text>
</a>
</g>
</g>
<!-- Node142&#45;&gt;Node143 -->
<g id="edge4" class="edge">
<title>Node142&#45;&gt;Node143</title>
<path fill="none" stroke="#191970" d="M353.3987,-15.5C363.21,-15.5 373.1653,-15.5 382.8216,-15.5"/>
<polygon fill="#191970" stroke="#191970" points="353.2452,-12.0001 343.2451,-15.5 353.2451,-19.0001 353.2452,-12.0001"/>
</g>
<!-- Node0 -->
<g id="node6" class="node">
<title>Node0</title>
<g id="a_node6"><a xlink:href="classramses_1_1IRendererEventHandler.html" target="_top" xlink:title="Provides an interface for handling the result of renderer events. Implementation of this interface mu...">
<polygon fill="#ffffff" stroke="#000000" points="0,-55 0,-74 157,-74 157,-55 0,-55"/>
<text text-anchor="middle" x="78.5" y="-62" font-family="Helvetica,sans-Serif" font-size="10.00" fill="#000000">ramses::IRendererEventHandler</text>
</a>
</g>
</g>
<!-- Node1 -->
<g id="node7" class="node">
<title>Node1</title>
<g id="a_node7"><a xlink:href="classramses_1_1RendererEventHandlerEmpty.html" target="_top" xlink:title="Convenience empty implementation of IRendererEventHandler that can be used to derive from when only s...">
<polygon fill="#ffffff" stroke="#000000" points="193,-49.5 193,-79.5 347,-79.5 347,-49.5 193,-49.5"/>
<text text-anchor="start" x="201" y="-67.5" font-family="Helvetica,sans-Serif" font-size="10.00" fill="#000000">ramses::RendererEventHandler</text>
<text text-anchor="middle" x="270" y="-56.5" font-family="Helvetica,sans-Serif" font-size="10.00" fill="#000000">Empty</text>
</a>
</g>
</g>
<!-- Node0&#45;&gt;Node1 -->
<g id="edge5" class="edge">
<title>Node0&#45;&gt;Node1</title>
<path fill="none" stroke="#191970" d="M167.4887,-64.5C175.9511,-64.5 184.4843,-64.5 192.8221,-64.5"/>
<polygon fill="#191970" stroke="#191970" points="167.2194,-61.0001 157.2194,-64.5 167.2194,-68.0001 167.2194,-61.0001"/>
</g>
<!-- Node1&#45;&gt;Node2 -->
<g id="edge6" class="edge">
<title>Node1&#45;&gt;Node2</title>
<path fill="none" stroke="#191970" d="M357.6646,-64.5C372.7582,-64.5 388.0398,-64.5 401.9122,-64.5"/>
<polygon fill="#191970" stroke="#191970" points="357.2649,-61.0001 347.2649,-64.5 357.2648,-68.0001 357.2649,-61.0001"/>
</g>
</g>
</svg>
