<?xml version="1.0" encoding="UTF-8" standalone="no"?>
<!DOCTYPE svg PUBLIC "-//W3C//DTD SVG 1.1//EN"
 "http://www.w3.org/Graphics/SVG/1.1/DTD/svg11.dtd">
<!-- Generated by graphviz version 2.43.0 (0)
 -->
<!-- Title: Graphical Class Hierarchy Pages: 1 -->
<svg width="535pt" height="137pt"
 viewBox="0.00 0.00 535.00 137.00" xmlns="http://www.w3.org/2000/svg" xmlns:xlink="http://www.w3.org/1999/xlink">
<g id="graph0" class="graph" transform="scale(1 1) rotate(0) translate(4 133)">
<title>Graphical Class Hierarchy</title>
<polygon fill="white" stroke="transparent" points="-4,4 -4,-133 531,-133 531,4 -4,4"/>
<!-- Node144 -->
<g id="node1" class="node">
<title>Node144</title>
<g id="a_node1"><a xlink:href="classramses_1_1IDcsmContentControlEventHandler.html" target="_top" xlink:title="Callback handler interface for events emitted by ramses::DcsmContentControl.">
<polygon fill="white" stroke="black" points="4.5,-98.5 4.5,-128.5 167.5,-128.5 167.5,-98.5 4.5,-98.5"/>
<text text-anchor="start" x="12.5" y="-116.5" font-family="Helvetica,sans-Serif" font-size="10.00">ramses::IDcsmContentControl</text>
<text text-anchor="middle" x="86" y="-105.5" font-family="Helvetica,sans-Serif" font-size="10.00">EventHandler</text>
</a>
</g>
</g>
<!-- Node145 -->
<g id="node2" class="node">
<title>Node145</title>
<g id="a_node2"><a xlink:href="classramses_1_1DcsmContentControlEventHandlerEmpty.html" target="_top" xlink:title="Convenience empty implementation of IDcsmContentControlEventHandler that can be used to derive from w...">
<polygon fill="white" stroke="black" points="212.5,-98.5 212.5,-128.5 372.5,-128.5 372.5,-98.5 212.5,-98.5"/>
<text text-anchor="start" x="220.5" y="-116.5" font-family="Helvetica,sans-Serif" font-size="10.00">ramses::DcsmContentControl</text>
<text text-anchor="middle" x="292.5" y="-105.5" font-family="Helvetica,sans-Serif" font-size="10.00">EventHandlerEmpty</text>
</a>
</g>
</g>
<!-- Node144&#45;&gt;Node145 -->
<g id="edge1" class="edge">
<title>Node144&#45;&gt;Node145</title>
<path fill="none" stroke="midnightblue" d="M177.64,-113.5C189.22,-113.5 201,-113.5 212.38,-113.5"/>
<polygon fill="midnightblue" stroke="midnightblue" points="177.53,-110 167.53,-113.5 177.53,-117 177.53,-110"/>
</g>
<!-- Node2 -->
<g id="node3" class="node">
<title>Node2</title>
<g id="a_node3"><a xlink:href="classLocalDCSMExample.html" target="_top" xlink:title=" ">
<polygon fill="white" stroke="black" points="413,-55 413,-74 527,-74 527,-55 413,-55"/>
<text text-anchor="middle" x="470" y="-62" font-family="Helvetica,sans-Serif" font-size="10.00">LocalDCSMExample</text>
</a>
</g>
</g>
<!-- Node145&#45;&gt;Node2 -->
<g id="edge2" class="edge">
<title>Node145&#45;&gt;Node2</title>
<path fill="none" stroke="midnightblue" d="M357.47,-95.64C383.69,-88.32 412.99,-80.14 434.97,-74"/>
<polygon fill="midnightblue" stroke="midnightblue" points="356.28,-92.34 347.59,-98.4 358.16,-99.08 356.28,-92.34"/>
</g>
<!-- Node143 -->
<g id="node4" class="node">
<title>Node143</title>
<g id="a_node4"><a xlink:href="classramses_1_1IDcsmProviderEventHandler.html" target="_top" xlink:title="An Interface for a class, whose functions are called as reaction to DcsmConsumer communication after ...">
<polygon fill="white" stroke="black" points="213.5,-49.5 213.5,-79.5 371.5,-79.5 371.5,-49.5 213.5,-49.5"/>
<text text-anchor="start" x="221.5" y="-67.5" font-family="Helvetica,sans-Serif" font-size="10.00">ramses::IDcsmProviderEvent</text>
<text text-anchor="middle" x="292.5" y="-56.5" font-family="Helvetica,sans-Serif" font-size="10.00">Handler</text>
</a>
</g>
</g>
<!-- Node143&#45;&gt;Node2 -->
<g id="edge3" class="edge">
<title>Node143&#45;&gt;Node2</title>
<path fill="none" stroke="midnightblue" d="M381.89,-64.5C392.47,-64.5 403.04,-64.5 412.98,-64.5"/>
<polygon fill="midnightblue" stroke="midnightblue" points="381.75,-61 371.75,-64.5 381.75,-68 381.75,-61"/>
</g>
<!-- Node0 -->
<g id="node5" class="node">
<title>Node0</title>
<g id="a_node5"><a xlink:href="classramses_1_1IRendererEventHandler.html" target="_top" xlink:title="Provides an interface for handling the result of renderer events. Implementation of this interface mu...">
<polygon fill="white" stroke="black" points="0,-6 0,-25 172,-25 172,-6 0,-6"/>
<text text-anchor="middle" x="86" y="-13" font-family="Helvetica,sans-Serif" font-size="10.00">ramses::IRendererEventHandler</text>
</a>
</g>
</g>
<!-- Node1 -->
<g id="node6" class="node">
<title>Node1</title>
<g id="a_node6"><a xlink:href="classramses_1_1RendererEventHandlerEmpty.html" target="_top" xlink:title="Convenience empty implementation of IRendererEventHandler that can be used to derive from when only s...">
<polygon fill="white" stroke="black" points="208,-0.5 208,-30.5 377,-30.5 377,-0.5 208,-0.5"/>
<text text-anchor="start" x="216" y="-18.5" font-family="Helvetica,sans-Serif" font-size="10.00">ramses::RendererEventHandler</text>
<text text-anchor="middle" x="292.5" y="-7.5" font-family="Helvetica,sans-Serif" font-size="10.00">Empty</text>
</a>
</g>
</g>
<!-- Node0&#45;&gt;Node1 -->
<g id="edge4" class="edge">
<title>Node0&#45;&gt;Node1</title>
<path fill="none" stroke="midnightblue" d="M182.48,-15.5C190.9,-15.5 199.39,-15.5 207.71,-15.5"/>
<polygon fill="midnightblue" stroke="midnightblue" points="182.25,-12 172.25,-15.5 182.25,-19 182.25,-12"/>
</g>
<!-- Node1&#45;&gt;Node2 -->
<g id="edge5" class="edge">
<title>Node1&#45;&gt;Node2</title>
<path fill="none" stroke="midnightblue" d="M357.47,-33.36C383.69,-40.68 412.99,-48.86 434.97,-55"/>
<polygon fill="midnightblue" stroke="midnightblue" points="358.16,-29.92 347.59,-30.6 356.28,-36.66 358.16,-29.92"/>
</g>
</g>
</svg>
