<?xml version="1.0" encoding="UTF-8" standalone="no"?>
<!DOCTYPE svg PUBLIC "-//W3C//DTD SVG 1.1//EN"
 "http://www.w3.org/Graphics/SVG/1.1/DTD/svg11.dtd">
<!-- Generated by graphviz version 2.43.0 (0)
 -->
<!-- Title: ramses::GlyphMetrics Pages: 1 -->
<svg width="557pt" height="132pt"
 viewBox="0.00 0.00 557.00 132.00" xmlns="http://www.w3.org/2000/svg" xmlns:xlink="http://www.w3.org/1999/xlink">
<g id="graph0" class="graph" transform="scale(1 1) rotate(0) translate(4 128)">
<title>ramses::GlyphMetrics</title>
<polygon fill="white" stroke="transparent" points="-4,4 -4,-128 553,-128 553,4 -4,4"/>
<!-- Node1 -->
<g id="node1" class="node">
<title>Node1</title>
<g id="a_node1"><a xlink:title="GlyphMetrics describes a glyph&#39;s position and dimensions in the rasterized glyph bitmap space.">
<polygon fill="#bfbfbf" stroke="black" points="426,-52 426,-71 549,-71 549,-52 426,-52"/>
<text text-anchor="middle" x="487.5" y="-59" font-family="Helvetica,sans-Serif" font-size="10.00">ramses::GlyphMetrics</text>
</a>
</g>
</g>
<!-- Node2 -->
<g id="node2" class="node">
<title>Node2</title>
<g id="a_node2"><a xlink:href="structramses_1_1GlyphKey.html" target="_top" xlink:title="GlyphKey identifies a glyph with a specific font instance.">
<polygon fill="white" stroke="black" points="264,-52 264,-71 369,-71 369,-52 264,-52"/>
<text text-anchor="middle" x="316.5" y="-59" font-family="Helvetica,sans-Serif" font-size="10.00">ramses::GlyphKey</text>
</a>
</g>
</g>
<!-- Node2&#45;&gt;Node1 -->
<g id="edge1" class="edge">
<title>Node2&#45;&gt;Node1</title>
<path fill="none" stroke="#9a32cd" stroke-dasharray="5,2" d="M379.45,-61.5C394.64,-61.5 410.88,-61.5 426,-61.5"/>
<polygon fill="#9a32cd" stroke="#9a32cd" points="379.12,-58 369.12,-61.5 379.12,-65 379.12,-58"/>
<text text-anchor="middle" x="397.5" y="-64.5" font-family="Helvetica,sans-Serif" font-size="10.00"> key</text>
</g>
<!-- Node3 -->
<g id="node3" class="node">
<title>Node3</title>
<g id="a_node3"><a xlink:href="classramses_1_1StronglyTypedValue.html" target="_top" xlink:title=" ">
<polygon fill="white" stroke="black" points="0,-71.5 0,-123.5 155,-123.5 155,-71.5 0,-71.5"/>
<text text-anchor="start" x="8" y="-111.5" font-family="Helvetica,sans-Serif" font-size="10.00">ramses::StronglyTypedValue</text>
<text text-anchor="start" x="8" y="-100.5" font-family="Helvetica,sans-Serif" font-size="10.00">&lt; uint32_t, std::numeric</text>
<text text-anchor="start" x="8" y="-89.5" font-family="Helvetica,sans-Serif" font-size="10.00">_limits&lt; uint32_t &gt;::max</text>
<text text-anchor="middle" x="77.5" y="-78.5" font-family="Helvetica,sans-Serif" font-size="10.00">(), FontInstanceIdTag &gt;</text>
</a>
</g>
</g>
<!-- Node3&#45;&gt;Node2 -->
<g id="edge2" class="edge">
<title>Node3&#45;&gt;Node2</title>
<path fill="none" stroke="#9a32cd" stroke-dasharray="5,2" d="M165.26,-84.32C198.36,-79.29 235.01,-73.73 263.84,-69.35"/>
<polygon fill="#9a32cd" stroke="#9a32cd" points="164.48,-80.9 155.12,-85.86 165.53,-87.82 164.48,-80.9"/>
<text text-anchor="middle" x="209.5" y="-85.5" font-family="Helvetica,sans-Serif" font-size="10.00"> fontInstanceId</text>
</g>
<!-- Node4 -->
<g id="node4" class="node">
<title>Node4</title>
<g id="a_node4"><a xlink:href="classramses_1_1StronglyTypedValue.html" target="_top" xlink:title=" ">
<polygon fill="white" stroke="black" points="0,-0.5 0,-52.5 155,-52.5 155,-0.5 0,-0.5"/>
<text text-anchor="start" x="8" y="-40.5" font-family="Helvetica,sans-Serif" font-size="10.00">ramses::StronglyTypedValue</text>
<text text-anchor="start" x="8" y="-29.5" font-family="Helvetica,sans-Serif" font-size="10.00">&lt; uint32_t, std::numeric</text>
<text text-anchor="start" x="8" y="-18.5" font-family="Helvetica,sans-Serif" font-size="10.00">_limits&lt; uint32_t &gt;::max</text>
<text text-anchor="middle" x="77.5" y="-7.5" font-family="Helvetica,sans-Serif" font-size="10.00">(), GlyphIdTag &gt;</text>
</a>
</g>
</g>
<!-- Node4&#45;&gt;Node2 -->
<g id="edge3" class="edge">
<title>Node4&#45;&gt;Node2</title>
<path fill="none" stroke="#9a32cd" stroke-dasharray="5,2" d="M165.26,-39.31C198.36,-44.2 235.01,-49.61 263.84,-53.87"/>
<polygon fill="#9a32cd" stroke="#9a32cd" points="165.52,-35.81 155.12,-37.82 164.5,-42.74 165.52,-35.81"/>
<text text-anchor="middle" x="209.5" y="-53.5" font-family="Helvetica,sans-Serif" font-size="10.00"> identifier</text>
</g>
</g>
</svg>
