<?xml version="1.0" encoding="UTF-8" standalone="no"?>
<!DOCTYPE svg PUBLIC "-//W3C//DTD SVG 1.1//EN"
 "http://www.w3.org/Graphics/SVG/1.1/DTD/svg11.dtd">
<!-- Generated by graphviz version 2.43.0 (0)
 -->
<!-- Title: ramses::FontInstanceOffset Pages: 1 -->
<svg width="413pt" height="61pt"
 viewBox="0.00 0.00 413.00 61.00" xmlns="http://www.w3.org/2000/svg" xmlns:xlink="http://www.w3.org/1999/xlink">
<g id="graph0" class="graph" transform="scale(1 1) rotate(0) translate(4 57)">
<title>ramses::FontInstanceOffset</title>
<polygon fill="white" stroke="transparent" points="-4,4 -4,-57 409,-57 409,4 -4,4"/>
<!-- Node1 -->
<g id="node1" class="node">
<title>Node1</title>
<g id="a_node1"><a xlink:title="A list of tuples from font instances and offsets into a string.">
<polygon fill="#bfbfbf" stroke="black" points="255,-17 255,-36 405,-36 405,-17 255,-17"/>
<text text-anchor="middle" x="330" y="-24" font-family="Helvetica,sans-Serif" font-size="10.00">ramses::FontInstanceOffset</text>
</a>
</g>
</g>
<!-- Node2 -->
<g id="node2" class="node">
<title>Node2</title>
<g id="a_node2"><a xlink:href="classramses_1_1StronglyTypedValue.html" target="_top" xlink:title=" ">
<polygon fill="white" stroke="black" points="0,-0.5 0,-52.5 155,-52.5 155,-0.5 0,-0.5"/>
<text text-anchor="start" x="8" y="-40.5" font-family="Helvetica,sans-Serif" font-size="10.00">ramses::StronglyTypedValue</text>
<text text-anchor="start" x="8" y="-29.5" font-family="Helvetica,sans-Serif" font-size="10.00">&lt; uint32_t, std::numeric</text>
<text text-anchor="start" x="8" y="-18.5" font-family="Helvetica,sans-Serif" font-size="10.00">_limits&lt; uint32_t &gt;::max</text>
<text text-anchor="middle" x="77.5" y="-7.5" font-family="Helvetica,sans-Serif" font-size="10.00">(), FontInstanceIdTag &gt;</text>
</a>
</g>
</g>
<!-- Node2&#45;&gt;Node1 -->
<g id="edge1" class="edge">
<title>Node2&#45;&gt;Node1</title>
<path fill="none" stroke="#9a32cd" stroke-dasharray="5,2" d="M165.19,-26.5C194.33,-26.5 226.56,-26.5 254.67,-26.5"/>
<polygon fill="#9a32cd" stroke="#9a32cd" points="165.02,-23 155.02,-26.5 165.02,-30 165.02,-23"/>
<text text-anchor="middle" x="205" y="-29.5" font-family="Helvetica,sans-Serif" font-size="10.00"> fontInstance</text>
</g>
</g>
</svg>
