<?xml version="1.0" encoding="UTF-8" standalone="no"?>
<!DOCTYPE svg PUBLIC "-//W3C//DTD SVG 1.1//EN"
 "http://www.w3.org/Graphics/SVG/1.1/DTD/svg11.dtd">
<!-- Generated by graphviz version 2.40.1 (20161225.0304)
 -->
<!-- Title: ramses::TextLine Pages: 1 -->
<svg width="226pt" height="412pt"
 viewBox="0.00 0.00 226.00 412.00" xmlns="http://www.w3.org/2000/svg" xmlns:xlink="http://www.w3.org/1999/xlink">
<g id="graph0" class="graph" transform="scale(1 1) rotate(0) translate(4 408)">
<title>ramses::TextLine</title>
<polygon fill="#ffffff" stroke="transparent" points="-4,4 -4,-408 222,-408 222,4 -4,4"/>
<!-- Node1 -->
<g id="node1" class="node">
<title>Node1</title>
<polygon fill="#bfbfbf" stroke="#000000" points="49,-.5 49,-19.5 141,-19.5 141,-.5 49,-.5"/>
<text text-anchor="middle" x="95" y="-7.5" font-family="Helvetica,sans-Serif" font-size="10.00" fill="#000000">ramses::TextLine</text>
</g>
<!-- Node2 -->
<g id="node2" class="node">
<title>Node2</title>
<g id="a_node2"><a xlink:href="classramses_1_1MeshNode.html" target="_top" xlink:title="The MeshNode holds all information which is needed to render an object to the screen. ">
<polygon fill="#ffffff" stroke="#000000" points="0,-74 0,-93 102,-93 102,-74 0,-74"/>
<text text-anchor="middle" x="51" y="-81" font-family="Helvetica,sans-Serif" font-size="10.00" fill="#000000">ramses::MeshNode</text>
</a>
</g>
</g>
<!-- Node2&#45;&gt;Node1 -->
<g id="edge1" class="edge">
<title>Node2&#45;&gt;Node1</title>
<path fill="none" stroke="#9a32cd" stroke-dasharray="5,2" d="M59.0777,-64.4921C62.9052,-56.1437 67.7799,-46.36 73,-38 76.9946,-31.6025 82.1783,-24.9435 86.5105,-19.7252"/>
<polygon fill="#9a32cd" stroke="#9a32cd" points="55.8178,-63.21 54.9756,-73.7714 62.2201,-66.0404 55.8178,-63.21"/>
<text text-anchor="middle" x="98.5" y="-41" font-family="Helvetica,sans-Serif" font-size="10.00" fill="#000000"> meshNode</text>
</g>
<!-- Node3 -->
<g id="node3" class="node">
<title>Node3</title>
<g id="a_node3"><a xlink:href="classramses_1_1Node.html" target="_top" xlink:title="The Node is the base class of all nodes and provides scene graph functionality which propagates to it...">
<polygon fill="#ffffff" stroke="#000000" points="22,-156.5 22,-175.5 100,-175.5 100,-156.5 22,-156.5"/>
<text text-anchor="middle" x="61" y="-163.5" font-family="Helvetica,sans-Serif" font-size="10.00" fill="#000000">ramses::Node</text>
</a>
</g>
</g>
<!-- Node3&#45;&gt;Node2 -->
<g id="edge2" class="edge">
<title>Node3&#45;&gt;Node2</title>
<path fill="none" stroke="#191970" d="M58.5522,-145.8058C56.5163,-129.0092 53.7089,-105.8486 52.154,-93.0204"/>
<polygon fill="#191970" stroke="#191970" points="55.1356,-146.706 59.8136,-156.2122 62.0848,-145.8637 55.1356,-146.706"/>
</g>
<!-- Node4 -->
<g id="node4" class="node">
<title>Node4</title>
<g id="a_node4"><a xlink:href="classramses_1_1SceneObject.html" target="_top" xlink:title="The SceneObject is a base class for all client API objects owned by a Scene. ">
<polygon fill="#ffffff" stroke="#000000" points="40.5,-213.5 40.5,-232.5 151.5,-232.5 151.5,-213.5 40.5,-213.5"/>
<text text-anchor="middle" x="96" y="-220.5" font-family="Helvetica,sans-Serif" font-size="10.00" fill="#000000">ramses::SceneObject</text>
</a>
</g>
</g>
<!-- Node4&#45;&gt;Node3 -->
<g id="edge3" class="edge">
<title>Node4&#45;&gt;Node3</title>
<path fill="none" stroke="#191970" d="M84.7946,-204.7512C78.8259,-195.0308 71.7301,-183.4748 66.8496,-175.5265"/>
<polygon fill="#191970" stroke="#191970" points="81.8474,-206.6404 90.0627,-213.3307 87.8127,-202.9776 81.8474,-206.6404"/>
</g>
<!-- Node8 -->
<g id="node8" class="node">
<title>Node8</title>
<g id="a_node8"><a xlink:href="classramses_1_1ArrayBuffer.html" target="_top" xlink:title="The ArrayBuffer is a data object used to provide vertex or index data to ramses::GeometryBinding::set...">
<polygon fill="#ffffff" stroke="#000000" points="81,-118.5 81,-137.5 185,-137.5 185,-118.5 81,-118.5"/>
<text text-anchor="middle" x="133" y="-125.5" font-family="Helvetica,sans-Serif" font-size="10.00" fill="#000000">ramses::ArrayBuffer</text>
</a>
</g>
</g>
<!-- Node4&#45;&gt;Node8 -->
<g id="edge8" class="edge">
<title>Node4&#45;&gt;Node8</title>
<path fill="none" stroke="#191970" d="M103.477,-203.8023C111.2914,-183.7382 123.2359,-153.0699 129.2556,-137.614"/>
<polygon fill="#191970" stroke="#191970" points="100.1882,-202.6027 99.8203,-213.1911 106.7109,-205.1432 100.1882,-202.6027"/>
</g>
<!-- Node5 -->
<g id="node5" class="node">
<title>Node5</title>
<g id="a_node5"><a xlink:href="classramses_1_1ClientObject.html" target="_top" xlink:title="The ClientObject is a base class for all client API objects owned by a RamsesClient. ">
<polygon fill="#ffffff" stroke="#000000" points="41.5,-270.5 41.5,-289.5 150.5,-289.5 150.5,-270.5 41.5,-270.5"/>
<text text-anchor="middle" x="96" y="-277.5" font-family="Helvetica,sans-Serif" font-size="10.00" fill="#000000">ramses::ClientObject</text>
</a>
</g>
</g>
<!-- Node5&#45;&gt;Node4 -->
<g id="edge4" class="edge">
<title>Node5&#45;&gt;Node4</title>
<path fill="none" stroke="#191970" d="M96,-260.2342C96,-250.8491 96,-240.0651 96,-232.5265"/>
<polygon fill="#191970" stroke="#191970" points="92.5001,-260.3307 96,-270.3307 99.5001,-260.3308 92.5001,-260.3307"/>
</g>
<!-- Node6 -->
<g id="node6" class="node">
<title>Node6</title>
<g id="a_node6"><a xlink:href="classramses_1_1RamsesObject.html" target="_top" xlink:title="The RamsesObject is a base class for all client API objects owned by the framework. ">
<polygon fill="#ffffff" stroke="#000000" points="36,-327.5 36,-346.5 156,-346.5 156,-327.5 36,-327.5"/>
<text text-anchor="middle" x="96" y="-334.5" font-family="Helvetica,sans-Serif" font-size="10.00" fill="#000000">ramses::RamsesObject</text>
</a>
</g>
</g>
<!-- Node6&#45;&gt;Node5 -->
<g id="edge5" class="edge">
<title>Node6&#45;&gt;Node5</title>
<path fill="none" stroke="#191970" d="M96,-317.2342C96,-307.8491 96,-297.0651 96,-289.5265"/>
<polygon fill="#191970" stroke="#191970" points="92.5001,-317.3307 96,-327.3307 99.5001,-317.3308 92.5001,-317.3307"/>
</g>
<!-- Node7 -->
<g id="node7" class="node">
<title>Node7</title>
<g id="a_node7"><a xlink:href="classramses_1_1StatusObject.html" target="_top" xlink:title="The StatusObject provides status message handling. ">
<polygon fill="#ffffff" stroke="#000000" points="40,-384.5 40,-403.5 152,-403.5 152,-384.5 40,-384.5"/>
<text text-anchor="middle" x="96" y="-391.5" font-family="Helvetica,sans-Serif" font-size="10.00" fill="#000000">ramses::StatusObject</text>
</a>
</g>
</g>
<!-- Node7&#45;&gt;Node6 -->
<g id="edge6" class="edge">
<title>Node7&#45;&gt;Node6</title>
<path fill="none" stroke="#191970" d="M96,-374.2342C96,-364.8491 96,-354.0651 96,-346.5265"/>
<polygon fill="#191970" stroke="#191970" points="92.5001,-374.3307 96,-384.3307 99.5001,-374.3308 92.5001,-374.3307"/>
</g>
<!-- Node8&#45;&gt;Node1 -->
<g id="edge7" class="edge">
<title>Node8&#45;&gt;Node1</title>
<path fill="none" stroke="#9a32cd" stroke-dasharray="5,2" d="M134.8088,-108.3771C135.714,-89.4082 134.8268,-60.3387 124,-38 120.5204,-30.8205 114.389,-24.4828 108.6576,-19.6608"/>
<polygon fill="#9a32cd" stroke="#9a32cd" points="131.3077,-108.2741 134.1085,-118.492 138.291,-108.7576 131.3077,-108.2741"/>
<text text-anchor="middle" x="176.5" y="-92" font-family="Helvetica,sans-Serif" font-size="10.00" fill="#000000"> indices</text>
<text text-anchor="middle" x="176.5" y="-81" font-family="Helvetica,sans-Serif" font-size="10.00" fill="#000000">textureCoordinates</text>
<text text-anchor="middle" x="176.5" y="-70" font-family="Helvetica,sans-Serif" font-size="10.00" fill="#000000">positions</text>
</g>
</g>
</svg>
