<?xml version="1.0" encoding="UTF-8" standalone="no"?>
<!DOCTYPE svg PUBLIC "-//W3C//DTD SVG 1.1//EN"
 "http://www.w3.org/Graphics/SVG/1.1/DTD/svg11.dtd">
<!-- Generated by graphviz version 2.40.1 (20161225.0304)
 -->
<!-- Title: ramses::FontInstanceOffset Pages: 1 -->
<svg width="384pt" height="61pt"
 viewBox="0.00 0.00 384.00 61.00" xmlns="http://www.w3.org/2000/svg" xmlns:xlink="http://www.w3.org/1999/xlink">
<g id="graph0" class="graph" transform="scale(1 1) rotate(0) translate(4 57)">
<title>ramses::FontInstanceOffset</title>
<polygon fill="#ffffff" stroke="transparent" points="-4,4 -4,-57 380,-57 380,4 -4,4"/>
<!-- Node1 -->
<g id="node1" class="node">
<title>Node1</title>
<polygon fill="#bfbfbf" stroke="#000000" points="237,-17 237,-36 376,-36 376,-17 237,-17"/>
<text text-anchor="middle" x="306.5" y="-24" font-family="Helvetica,sans-Serif" font-size="10.00" fill="#000000">ramses::FontInstanceOffset</text>
</g>
<!-- Node2 -->
<g id="node2" class="node">
<title>Node2</title>
<g id="a_node2"><a xlink:href="classramses_1_1StronglyTypedValue.html" target="_top" xlink:title="ramses::StronglyTypedValue\l\&lt; uint32_t, std::numeric\l_limits\&lt; uint32_t \&gt;::max\l(), FontInstanceIdTag \&gt;">
<polygon fill="#ffffff" stroke="#000000" points="0,-.5 0,-52.5 143,-52.5 143,-.5 0,-.5"/>
<text text-anchor="start" x="8" y="-40.5" font-family="Helvetica,sans-Serif" font-size="10.00" fill="#000000">ramses::StronglyTypedValue</text>
<text text-anchor="start" x="8" y="-29.5" font-family="Helvetica,sans-Serif" font-size="10.00" fill="#000000">&lt; uint32_t, std::numeric</text>
<text text-anchor="start" x="8" y="-18.5" font-family="Helvetica,sans-Serif" font-size="10.00" fill="#000000">_limits&lt; uint32_t &gt;::max</text>
<text text-anchor="middle" x="71.5" y="-7.5" font-family="Helvetica,sans-Serif" font-size="10.00" fill="#000000">(), FontInstanceIdTag &gt;</text>
</a>
</g>
</g>
<!-- Node2&#45;&gt;Node1 -->
<g id="edge1" class="edge">
<title>Node2&#45;&gt;Node1</title>
<path fill="none" stroke="#9a32cd" stroke-dasharray="5,2" d="M153.5404,-26.5C180.6915,-26.5 210.6298,-26.5 236.7675,-26.5"/>
<polygon fill="#9a32cd" stroke="#9a32cd" points="153.2847,-23.0001 143.2847,-26.5 153.2846,-30.0001 153.2847,-23.0001"/>
<text text-anchor="middle" x="190" y="-29.5" font-family="Helvetica,sans-Serif" font-size="10.00" fill="#000000"> fontInstance</text>
</g>
</g>
</svg>
