<?xml version="1.0" encoding="UTF-8" standalone="no"?>
<!DOCTYPE svg PUBLIC "-//W3C//DTD SVG 1.1//EN"
 "http://www.w3.org/Graphics/SVG/1.1/DTD/svg11.dtd">
<!-- Generated by graphviz version 2.43.0 (0)
 -->
<!-- Title: ramses::FontCascade Pages: 1 -->
<svg width="387pt" height="100pt"
 viewBox="0.00 0.00 387.00 99.50" xmlns="http://www.w3.org/2000/svg" xmlns:xlink="http://www.w3.org/1999/xlink">
<g id="graph0" class="graph" transform="scale(1 1) rotate(0) translate(4 95.5)">
<title>ramses::FontCascade</title>
<polygon fill="white" stroke="transparent" points="-4,4 -4,-95.5 383,-95.5 383,4 -4,4"/>
<!-- Node1 -->
<g id="node1" class="node">
<title>Node1</title>
<g id="a_node1"><a xlink:title="struct to define a font cascade">
<polygon fill="#bfbfbf" stroke="black" points="258,-27.5 258,-46.5 379,-46.5 379,-27.5 258,-27.5"/>
<text text-anchor="middle" x="318.5" y="-34.5" font-family="Helvetica,sans-Serif" font-size="10.00">ramses::FontCascade</text>
</a>
</g>
</g>
<!-- Node2 -->
<g id="node2" class="node">
<title>Node2</title>
<g id="a_node2"><a xlink:href="classramses_1_1StronglyTypedValue.html" target="_top" xlink:title=" ">
<polygon fill="white" stroke="black" points="0,-39 0,-91 155,-91 155,-39 0,-39"/>
<text text-anchor="start" x="8" y="-79" font-family="Helvetica,sans-Serif" font-size="10.00">ramses::StronglyTypedValue</text>
<text text-anchor="start" x="8" y="-68" font-family="Helvetica,sans-Serif" font-size="10.00">&lt; uint32_t, std::numeric</text>
<text text-anchor="start" x="8" y="-57" font-family="Helvetica,sans-Serif" font-size="10.00">_limits&lt; uint32_t &gt;::max</text>
<text text-anchor="middle" x="77.5" y="-46" font-family="Helvetica,sans-Serif" font-size="10.00">(), FontInstanceIdTag &gt;</text>
</a>
</g>
</g>
<!-- Node2&#45;&gt;Node1 -->
<g id="edge1" class="edge">
<title>Node2&#45;&gt;Node1</title>
<path fill="none" stroke="#9a32cd" stroke-dasharray="5,2" d="M165.4,-54.82C196.16,-51.22 230.03,-47.25 257.98,-43.97"/>
<polygon fill="#9a32cd" stroke="#9a32cd" points="164.63,-51.39 155.11,-56.03 165.45,-58.34 164.63,-51.39"/>
<text text-anchor="middle" x="206.5" y="-56" font-family="Helvetica,sans-Serif" font-size="10.00"> fallbackFont</text>
</g>
<!-- Node3 -->
<g id="node3" class="node">
<title>Node3</title>
<g id="a_node3"><a xlink:href="classramses_1_1IFontAccessor.html" target="_top" xlink:title="Interface for getting font instances using font instance ids.">
<polygon fill="white" stroke="black" points="14.5,-0.5 14.5,-19.5 140.5,-19.5 140.5,-0.5 14.5,-0.5"/>
<text text-anchor="middle" x="77.5" y="-7.5" font-family="Helvetica,sans-Serif" font-size="10.00">ramses::IFontAccessor</text>
</a>
</g>
</g>
<!-- Node3&#45;&gt;Node1 -->
<g id="edge2" class="edge">
<title>Node3&#45;&gt;Node1</title>
<path fill="none" stroke="#9a32cd" stroke-dasharray="5,2" d="M150.61,-18.15C184.82,-22.01 225.22,-26.58 257.7,-30.24"/>
<polygon fill="#9a32cd" stroke="#9a32cd" points="151,-14.67 140.67,-17.02 150.21,-21.62 151,-14.67"/>
<text text-anchor="middle" x="206.5" y="-31" font-family="Helvetica,sans-Serif" font-size="10.00"> fontAccessor</text>
</g>
</g>
</svg>
