<?xml version="1.0" encoding="UTF-8" standalone="no"?>
<!DOCTYPE svg PUBLIC "-//W3C//DTD SVG 1.1//EN"
 "http://www.w3.org/Graphics/SVG/1.1/DTD/svg11.dtd">
<!-- Generated by graphviz version 2.40.1 (20161225.0304)
 -->
<!-- Title: ramses::GlyphKey Pages: 1 -->
<svg width="351pt" height="132pt"
 viewBox="0.00 0.00 351.00 132.00" xmlns="http://www.w3.org/2000/svg" xmlns:xlink="http://www.w3.org/1999/xlink">
<g id="graph0" class="graph" transform="scale(1 1) rotate(0) translate(4 128)">
<title>ramses::GlyphKey</title>
<polygon fill="#ffffff" stroke="transparent" points="-4,4 -4,-128 347,-128 347,4 -4,4"/>
<!-- Node1 -->
<g id="node1" class="node">
<title>Node1</title>
<polygon fill="#bfbfbf" stroke="#000000" points="245,-52 245,-71 343,-71 343,-52 245,-52"/>
<text text-anchor="middle" x="294" y="-59" font-family="Helvetica,sans-Serif" font-size="10.00" fill="#000000">ramses::GlyphKey</text>
</g>
<!-- Node2 -->
<g id="node2" class="node">
<title>Node2</title>
<g id="a_node2"><a xlink:href="classramses_1_1StronglyTypedValue.html" target="_top" xlink:title="ramses::StronglyTypedValue\l\&lt; uint32_t, std::numeric\l_limits\&lt; uint32_t \&gt;::max\l(), FontInstanceIdTag \&gt;">
<polygon fill="#ffffff" stroke="#000000" points="0,-71.5 0,-123.5 143,-123.5 143,-71.5 0,-71.5"/>
<text text-anchor="start" x="8" y="-111.5" font-family="Helvetica,sans-Serif" font-size="10.00" fill="#000000">ramses::StronglyTypedValue</text>
<text text-anchor="start" x="8" y="-100.5" font-family="Helvetica,sans-Serif" font-size="10.00" fill="#000000">&lt; uint32_t, std::numeric</text>
<text text-anchor="start" x="8" y="-89.5" font-family="Helvetica,sans-Serif" font-size="10.00" fill="#000000">_limits&lt; uint32_t &gt;::max</text>
<text text-anchor="middle" x="71.5" y="-78.5" font-family="Helvetica,sans-Serif" font-size="10.00" fill="#000000">(), FontInstanceIdTag &gt;</text>
</a>
</g>
</g>
<!-- Node2&#45;&gt;Node1 -->
<g id="edge1" class="edge">
<title>Node2&#45;&gt;Node1</title>
<path fill="none" stroke="#9a32cd" stroke-dasharray="5,2" d="M153.3801,-84.252C184.0246,-79.2938 217.8715,-73.8174 244.6783,-69.4801"/>
<polygon fill="#9a32cd" stroke="#9a32cd" points="152.4377,-80.8589 143.1251,-85.9112 153.5558,-87.769 152.4377,-80.8589"/>
<text text-anchor="middle" x="194" y="-85.5" font-family="Helvetica,sans-Serif" font-size="10.00" fill="#000000"> fontInstanceId</text>
</g>
<!-- Node3 -->
<g id="node3" class="node">
<title>Node3</title>
<g id="a_node3"><a xlink:href="classramses_1_1StronglyTypedValue.html" target="_top" xlink:title="ramses::StronglyTypedValue\l\&lt; uint32_t, std::numeric\l_limits\&lt; uint32_t \&gt;::max\l(), GlyphIdTag \&gt;">
<polygon fill="#ffffff" stroke="#000000" points="0,-.5 0,-52.5 143,-52.5 143,-.5 0,-.5"/>
<text text-anchor="start" x="8" y="-40.5" font-family="Helvetica,sans-Serif" font-size="10.00" fill="#000000">ramses::StronglyTypedValue</text>
<text text-anchor="start" x="8" y="-29.5" font-family="Helvetica,sans-Serif" font-size="10.00" fill="#000000">&lt; uint32_t, std::numeric</text>
<text text-anchor="start" x="8" y="-18.5" font-family="Helvetica,sans-Serif" font-size="10.00" fill="#000000">_limits&lt; uint32_t &gt;::max</text>
<text text-anchor="middle" x="71.5" y="-7.5" font-family="Helvetica,sans-Serif" font-size="10.00" fill="#000000">(), GlyphIdTag &gt;</text>
</a>
</g>
</g>
<!-- Node3&#45;&gt;Node1 -->
<g id="edge2" class="edge">
<title>Node3&#45;&gt;Node1</title>
<path fill="none" stroke="#9a32cd" stroke-dasharray="5,2" d="M153.3801,-39.38C184.0246,-44.2005 217.8715,-49.5247 244.6783,-53.7415"/>
<polygon fill="#9a32cd" stroke="#9a32cd" points="153.5476,-35.8634 143.1251,-37.7669 152.4598,-42.7784 153.5476,-35.8634"/>
<text text-anchor="middle" x="194" y="-52.5" font-family="Helvetica,sans-Serif" font-size="10.00" fill="#000000"> identifier</text>
</g>
</g>
</svg>
