<?xml version="1.0" encoding="UTF-8" standalone="no"?>
<!DOCTYPE svg PUBLIC "-//W3C//DTD SVG 1.1//EN"
 "http://www.w3.org/Graphics/SVG/1.1/DTD/svg11.dtd">
<!-- Generated by graphviz version 2.43.0 (0)
 -->
<!-- Title: ramses::TextLine Pages: 1 -->
<svg width="245pt" height="412pt"
 viewBox="0.00 0.00 245.00 412.00" xmlns="http://www.w3.org/2000/svg" xmlns:xlink="http://www.w3.org/1999/xlink">
<g id="graph0" class="graph" transform="scale(1 1) rotate(0) translate(4 408)">
<title>ramses::TextLine</title>
<polygon fill="white" stroke="transparent" points="-4,4 -4,-408 241,-408 241,4 -4,4"/>
<!-- Node1 -->
<g id="node1" class="node">
<title>Node1</title>
<g id="a_node1"><a xlink:title="Groups the scene objects needed to render a text line.">
<polygon fill="#bfbfbf" stroke="black" points="50.5,-0.5 50.5,-19.5 149.5,-19.5 149.5,-0.5 50.5,-0.5"/>
<text text-anchor="middle" x="100" y="-7.5" font-family="Helvetica,sans-Serif" font-size="10.00">ramses::TextLine</text>
</a>
</g>
</g>
<!-- Node2 -->
<g id="node2" class="node">
<title>Node2</title>
<g id="a_node2"><a xlink:href="classramses_1_1MeshNode.html" target="_top" xlink:title="The MeshNode holds all information which is needed to render an object to the screen.">
<polygon fill="white" stroke="black" points="0,-74 0,-93 110,-93 110,-74 0,-74"/>
<text text-anchor="middle" x="55" y="-81" font-family="Helvetica,sans-Serif" font-size="10.00">ramses::MeshNode</text>
</a>
</g>
</g>
<!-- Node2&#45;&gt;Node1 -->
<g id="edge1" class="edge">
<title>Node2&#45;&gt;Node1</title>
<path fill="none" stroke="#9a32cd" stroke-dasharray="5,2" d="M62.14,-64.4C65.77,-56.06 70.57,-46.22 76,-38 80.29,-31.51 86.05,-24.97 90.86,-19.96"/>
<polygon fill="#9a32cd" stroke="#9a32cd" points="58.79,-63.34 58.2,-73.92 65.25,-66.02 58.79,-63.34"/>
<text text-anchor="middle" x="104" y="-41" font-family="Helvetica,sans-Serif" font-size="10.00"> meshNode</text>
</g>
<!-- Node3 -->
<g id="node3" class="node">
<title>Node3</title>
<g id="a_node3"><a xlink:href="classramses_1_1Node.html" target="_top" xlink:title="The Node is the base class of all nodes and provides scene graph functionality which propagates to it...">
<polygon fill="white" stroke="black" points="23,-156.5 23,-175.5 107,-175.5 107,-156.5 23,-156.5"/>
<text text-anchor="middle" x="65" y="-163.5" font-family="Helvetica,sans-Serif" font-size="10.00">ramses::Node</text>
</a>
</g>
</g>
<!-- Node3&#45;&gt;Node2 -->
<g id="edge2" class="edge">
<title>Node3&#45;&gt;Node2</title>
<path fill="none" stroke="midnightblue" d="M62.66,-146.17C60.59,-129.51 57.66,-105.93 56.09,-93.3"/>
<polygon fill="midnightblue" stroke="midnightblue" points="59.22,-146.89 63.93,-156.39 66.17,-146.03 59.22,-146.89"/>
</g>
<!-- Node4 -->
<g id="node4" class="node">
<title>Node4</title>
<g id="a_node4"><a xlink:href="classramses_1_1SceneObject.html" target="_top" xlink:title="The SceneObject is a base class for all client API objects owned by a Scene.">
<polygon fill="white" stroke="black" points="41.5,-213.5 41.5,-232.5 160.5,-232.5 160.5,-213.5 41.5,-213.5"/>
<text text-anchor="middle" x="101" y="-220.5" font-family="Helvetica,sans-Serif" font-size="10.00">ramses::SceneObject</text>
</a>
</g>
</g>
<!-- Node4&#45;&gt;Node3 -->
<g id="edge3" class="edge">
<title>Node4&#45;&gt;Node3</title>
<path fill="none" stroke="midnightblue" d="M89.83,-204.94C83.49,-195.25 75.83,-183.54 70.7,-175.71"/>
<polygon fill="midnightblue" stroke="midnightblue" points="86.97,-206.96 95.38,-213.41 92.83,-203.12 86.97,-206.96"/>
</g>
<!-- Node8 -->
<g id="node8" class="node">
<title>Node8</title>
<g id="a_node8"><a xlink:href="classramses_1_1ArrayBuffer.html" target="_top" xlink:title="The ArrayBuffer is a data object used to provide vertex or index data to ramses::GeometryBinding::set...">
<polygon fill="white" stroke="black" points="84,-118.5 84,-137.5 198,-137.5 198,-118.5 84,-118.5"/>
<text text-anchor="middle" x="141" y="-125.5" font-family="Helvetica,sans-Serif" font-size="10.00">ramses::ArrayBuffer</text>
</a>
</g>
</g>
<!-- Node4&#45;&gt;Node8 -->
<g id="edge8" class="edge">
<title>Node4&#45;&gt;Node8</title>
<path fill="none" stroke="midnightblue" d="M108.67,-204.17C117.26,-184.2 130.83,-152.63 137.32,-137.56"/>
<polygon fill="midnightblue" stroke="midnightblue" points="105.43,-202.85 104.69,-213.42 111.86,-205.61 105.43,-202.85"/>
</g>
<!-- Node5 -->
<g id="node5" class="node">
<title>Node5</title>
<g id="a_node5"><a xlink:href="classramses_1_1ClientObject.html" target="_top" xlink:title="The ClientObject is a base class for all client API objects owned by a RamsesClient.">
<polygon fill="white" stroke="black" points="41.5,-270.5 41.5,-289.5 160.5,-289.5 160.5,-270.5 41.5,-270.5"/>
<text text-anchor="middle" x="101" y="-277.5" font-family="Helvetica,sans-Serif" font-size="10.00">ramses::ClientObject</text>
</a>
</g>
</g>
<!-- Node5&#45;&gt;Node4 -->
<g id="edge4" class="edge">
<title>Node5&#45;&gt;Node4</title>
<path fill="none" stroke="midnightblue" d="M101,-260.12C101,-250.82 101,-240.06 101,-232.71"/>
<polygon fill="midnightblue" stroke="midnightblue" points="97.5,-260.41 101,-270.41 104.5,-260.41 97.5,-260.41"/>
</g>
<!-- Node6 -->
<g id="node6" class="node">
<title>Node6</title>
<g id="a_node6"><a xlink:href="classramses_1_1RamsesObject.html" target="_top" xlink:title="The RamsesObject is a base class for all client API objects owned by the framework.">
<polygon fill="white" stroke="black" points="36.5,-327.5 36.5,-346.5 165.5,-346.5 165.5,-327.5 36.5,-327.5"/>
<text text-anchor="middle" x="101" y="-334.5" font-family="Helvetica,sans-Serif" font-size="10.00">ramses::RamsesObject</text>
</a>
</g>
</g>
<!-- Node6&#45;&gt;Node5 -->
<g id="edge5" class="edge">
<title>Node6&#45;&gt;Node5</title>
<path fill="none" stroke="midnightblue" d="M101,-317.12C101,-307.82 101,-297.06 101,-289.71"/>
<polygon fill="midnightblue" stroke="midnightblue" points="97.5,-317.41 101,-327.41 104.5,-317.41 97.5,-317.41"/>
</g>
<!-- Node7 -->
<g id="node7" class="node">
<title>Node7</title>
<g id="a_node7"><a xlink:href="classramses_1_1StatusObject.html" target="_top" xlink:title="The StatusObject provides status message handling.">
<polygon fill="white" stroke="black" points="40.5,-384.5 40.5,-403.5 161.5,-403.5 161.5,-384.5 40.5,-384.5"/>
<text text-anchor="middle" x="101" y="-391.5" font-family="Helvetica,sans-Serif" font-size="10.00">ramses::StatusObject</text>
</a>
</g>
</g>
<!-- Node7&#45;&gt;Node6 -->
<g id="edge6" class="edge">
<title>Node7&#45;&gt;Node6</title>
<path fill="none" stroke="midnightblue" d="M101,-374.12C101,-364.82 101,-354.06 101,-346.71"/>
<polygon fill="midnightblue" stroke="midnightblue" points="97.5,-374.41 101,-384.41 104.5,-374.41 97.5,-374.41"/>
</g>
<!-- Node8&#45;&gt;Node1 -->
<g id="edge7" class="edge">
<title>Node8&#45;&gt;Node1</title>
<path fill="none" stroke="#9a32cd" stroke-dasharray="5,2" d="M143.03,-108.32C144.21,-89.46 143.63,-60.06 132,-38 128.07,-30.54 121.13,-24.3 114.71,-19.7"/>
<polygon fill="#9a32cd" stroke="#9a32cd" points="139.54,-108.04 142.17,-118.3 146.52,-108.64 139.54,-108.04"/>
<text text-anchor="middle" x="190" y="-92" font-family="Helvetica,sans-Serif" font-size="10.00"> indices</text>
<text text-anchor="middle" x="190" y="-81" font-family="Helvetica,sans-Serif" font-size="10.00">positions</text>
<text text-anchor="middle" x="190" y="-70" font-family="Helvetica,sans-Serif" font-size="10.00">textureCoordinates</text>
</g>
</g>
</svg>
