<?xml version="1.0" encoding="UTF-8" standalone="no"?>
<!DOCTYPE svg PUBLIC "-//W3C//DTD SVG 1.1//EN"
 "http://www.w3.org/Graphics/SVG/1.1/DTD/svg11.dtd">
<!-- Generated by graphviz version 2.40.1 (20161225.0304)
 -->
<!-- Title: ramses::FontCascade Pages: 1 -->
<svg width="361pt" height="100pt"
 viewBox="0.00 0.00 361.00 99.50" xmlns="http://www.w3.org/2000/svg" xmlns:xlink="http://www.w3.org/1999/xlink">
<g id="graph0" class="graph" transform="scale(1 1) rotate(0) translate(4 95.5)">
<title>ramses::FontCascade</title>
<polygon fill="#ffffff" stroke="transparent" points="-4,4 -4,-95.5 357,-95.5 357,4 -4,4"/>
<!-- Node1 -->
<g id="node1" class="node">
<title>Node1</title>
<polygon fill="#bfbfbf" stroke="#000000" points="240,-27.5 240,-46.5 353,-46.5 353,-27.5 240,-27.5"/>
<text text-anchor="middle" x="296.5" y="-34.5" font-family="Helvetica,sans-Serif" font-size="10.00" fill="#000000">ramses::FontCascade</text>
</g>
<!-- Node2 -->
<g id="node2" class="node">
<title>Node2</title>
<g id="a_node2"><a xlink:href="classramses_1_1StronglyTypedValue.html" target="_top" xlink:title="ramses::StronglyTypedValue\l\&lt; uint32_t, std::numeric\l_limits\&lt; uint32_t \&gt;::max\l(), FontInstanceIdTag \&gt;">
<polygon fill="#ffffff" stroke="#000000" points="0,-39 0,-91 143,-91 143,-39 0,-39"/>
<text text-anchor="start" x="8" y="-79" font-family="Helvetica,sans-Serif" font-size="10.00" fill="#000000">ramses::StronglyTypedValue</text>
<text text-anchor="start" x="8" y="-68" font-family="Helvetica,sans-Serif" font-size="10.00" fill="#000000">&lt; uint32_t, std::numeric</text>
<text text-anchor="start" x="8" y="-57" font-family="Helvetica,sans-Serif" font-size="10.00" fill="#000000">_limits&lt; uint32_t &gt;::max</text>
<text text-anchor="middle" x="71.5" y="-46" font-family="Helvetica,sans-Serif" font-size="10.00" fill="#000000">(), FontInstanceIdTag &gt;</text>
</a>
</g>
</g>
<!-- Node2&#45;&gt;Node1 -->
<g id="edge1" class="edge">
<title>Node2&#45;&gt;Node1</title>
<path fill="none" stroke="#9a32cd" stroke-dasharray="5,2" d="M153.0439,-54.8523C181.8222,-51.271 213.5312,-47.325 239.803,-44.0556"/>
<polygon fill="#9a32cd" stroke="#9a32cd" points="152.4918,-51.3939 143.0006,-56.1022 153.3563,-58.3404 152.4918,-51.3939"/>
<text text-anchor="middle" x="191.5" y="-56" font-family="Helvetica,sans-Serif" font-size="10.00" fill="#000000"> fallbackFont</text>
</g>
<!-- Node3 -->
<g id="node3" class="node">
<title>Node3</title>
<g id="a_node3"><a xlink:href="classramses_1_1IFontAccessor.html" target="_top" xlink:title="Interface for getting font instances using font instance ids. ">
<polygon fill="#ffffff" stroke="#000000" points="12,-.5 12,-19.5 131,-19.5 131,-.5 12,-.5"/>
<text text-anchor="middle" x="71.5" y="-7.5" font-family="Helvetica,sans-Serif" font-size="10.00" fill="#000000">ramses::IFontAccessor</text>
</a>
</g>
</g>
<!-- Node3&#45;&gt;Node1 -->
<g id="edge2" class="edge">
<title>Node3&#45;&gt;Node1</title>
<path fill="none" stroke="#9a32cd" stroke-dasharray="5,2" d="M141.2625,-18.3715C172.8587,-22.163 209.7378,-26.5885 239.6208,-30.1745"/>
<polygon fill="#9a32cd" stroke="#9a32cd" points="141.551,-14.8811 131.2052,-17.1646 140.7169,-21.8312 141.551,-14.8811"/>
<text text-anchor="middle" x="191.5" y="-31" font-family="Helvetica,sans-Serif" font-size="10.00" fill="#000000"> fontAccessor</text>
</g>
</g>
</svg>
